<?xml version="1.0" standalone="no"?>
 <!DOCTYPE svg PUBLIC "-//W3C//DTD SVG 1.1//EN" 
 "http://www.w3.org/Graphics/SVG/1.1/DTD/svg11.dtd"> 
<svg
  xmlns:svg="http://www.w3.org/2000/svg"
  xmlns="http://www.w3.org/2000/svg"
  xmlns:xlink="http://www.w3.org/1999/xlink"
  version="1.1"
  width="27.940000cm" height="21.590000cm" viewBox="0 0 110000 85000">
<title>SVG Picture created as SYSC4907_REV2.svg date 2021/01/15 14:57:45 </title>
  <desc>Picture generated by Eeschema-SVG </desc>
<g style="fill:#000000; fill-opacity:1;stroke:#000000; stroke-opacity:1;
stroke-linecap:round; stroke-linejoin:round;"
 transform="translate(0 0) scale(1 1)">
</g>
<g style="fill:#000000; fill-opacity:0.0; 
stroke:#000000; stroke-width:-10; stroke-opacity:1; 
stroke-linecap:round; stroke-linejoin:round;">
</g>
<g style="fill:#840000; fill-opacity:0.0; 
stroke:#840000; stroke-width:-10; stroke-opacity:1; 
stroke-linecap:round; stroke-linejoin:round;">
</g>
<g style="fill:#840000; fill-opacity:0.0; 
stroke:#840000; stroke-width:100; stroke-opacity:1; 
stroke-linecap:round; stroke-linejoin:round;">
</g>
<g style="fill:#840000; fill-opacity:0.0; 
stroke:#840000; stroke-width:60; stroke-opacity:1; 
stroke-linecap:round; stroke-linejoin:round;">
<rect x="62760" y="67680" width="42520" height="12600" rx="0" />
</g>
<g style="fill:#840000; fill-opacity:0.0; 
stroke:#840000; stroke-width:100; stroke-opacity:1; 
stroke-linecap:round; stroke-linejoin:round;">
</g>
<g style="fill:#840000; fill-opacity:0.0; 
stroke:#840000; stroke-width:60; stroke-opacity:1; 
stroke-linecap:round; stroke-linejoin:round;">
<rect x="3940" y="3940" width="102120" height="77120" rx="0" />
</g>
<g style="fill:#840000; fill-opacity:0.0; 
stroke:#840000; stroke-width:100; stroke-opacity:1; 
stroke-linecap:round; stroke-linejoin:round;">
</g>
<g style="fill:#840000; fill-opacity:0.0; 
stroke:#840000; stroke-width:60; stroke-opacity:1; 
stroke-linecap:round; stroke-linejoin:round;">
<rect x="4720" y="4720" width="100560" height="75560" rx="0" />
</g>
<g style="fill:#840000; fill-opacity:0.0; 
stroke:#840000; stroke-width:100; stroke-opacity:1; 
stroke-linecap:round; stroke-linejoin:round;">
</g>
<g style="fill:#840000; fill-opacity:0.0; 
stroke:#840000; stroke-width:60; stroke-opacity:1; 
stroke-linecap:round; stroke-linejoin:round;">
<path d="M23620 4720
L23620 3940
" />
</g>
<g style="fill:#840000; fill-opacity:0.0; 
stroke:#840000; stroke-width:100; stroke-opacity:1; 
stroke-linecap:round; stroke-linejoin:round;">
</g>
<g style="fill:#840000; fill-opacity:0.0; 
stroke:#840000; stroke-width:60; stroke-opacity:1; 
stroke-linecap:round; stroke-linejoin:round;">
<path d="M43310 4720
L43310 3940
" />
</g>
<g style="fill:#840000; fill-opacity:0.0; 
stroke:#840000; stroke-width:100; stroke-opacity:1; 
stroke-linecap:round; stroke-linejoin:round;">
</g>
<g style="fill:#840000; fill-opacity:0.0; 
stroke:#840000; stroke-width:60; stroke-opacity:1; 
stroke-linecap:round; stroke-linejoin:round;">
<path d="M62990 4720
L62990 3940
" />
</g>
<g style="fill:#840000; fill-opacity:0.0; 
stroke:#840000; stroke-width:100; stroke-opacity:1; 
stroke-linecap:round; stroke-linejoin:round;">
</g>
<g style="fill:#840000; fill-opacity:0.0; 
stroke:#840000; stroke-width:60; stroke-opacity:1; 
stroke-linecap:round; stroke-linejoin:round;">
<path d="M82680 4720
L82680 3940
" />
</g>
<g style="fill:#840000; fill-opacity:0.0; 
stroke:#840000; stroke-width:100; stroke-opacity:1; 
stroke-linecap:round; stroke-linejoin:round;">
</g>
<g style="fill:#840000; fill-opacity:0.0; 
stroke:#840000; stroke-width:60; stroke-opacity:1; 
stroke-linecap:round; stroke-linejoin:round;">
<path d="M102360 4720
L102360 3940
" />
</g>
<g style="fill:#840000; fill-opacity:0.0; 
stroke:#840000; stroke-width:100; stroke-opacity:1; 
stroke-linecap:round; stroke-linejoin:round;">
</g>
<g style="fill:#840000; fill-opacity:0.0; 
stroke:#840000; stroke-width:60; stroke-opacity:1; 
stroke-linecap:round; stroke-linejoin:round;">
<text x="13780" y="4580"
textLength="550" font-size="680" lengthAdjust="spacingAndGlyphs"
text-anchor="start" opacity="0">1</text>
<path d="M14190 4560
L13900 4560
" />
<path d="M14050 4560
L14050 4050
L14000 4120
L13950 4170
L13900 4190
" />
</g>
<g style="fill:#840000; fill-opacity:0.0; 
stroke:#840000; stroke-width:100; stroke-opacity:1; 
stroke-linecap:round; stroke-linejoin:round;">
</g>
<g style="fill:#840000; fill-opacity:0.0; 
stroke:#840000; stroke-width:60; stroke-opacity:1; 
stroke-linecap:round; stroke-linejoin:round;">
<text x="33460" y="4580"
textLength="550" font-size="680" lengthAdjust="spacingAndGlyphs"
text-anchor="start" opacity="0">2</text>
<path d="M33580 4090
L33610 4070
L33660 4050
L33780 4050
L33830 4070
L33850 4090
L33870 4140
L33870 4190
L33850 4260
L33560 4560
L33870 4560
" />
</g>
<g style="fill:#840000; fill-opacity:0.0; 
stroke:#840000; stroke-width:100; stroke-opacity:1; 
stroke-linecap:round; stroke-linejoin:round;">
</g>
<g style="fill:#840000; fill-opacity:0.0; 
stroke:#840000; stroke-width:60; stroke-opacity:1; 
stroke-linecap:round; stroke-linejoin:round;">
<text x="53150" y="4580"
textLength="550" font-size="680" lengthAdjust="spacingAndGlyphs"
text-anchor="start" opacity="0">3</text>
<path d="M53250 4050
L53560 4050
L53390 4240
L53470 4240
L53520 4260
L53540 4290
L53560 4340
L53560 4460
L53540 4510
L53520 4530
L53470 4560
L53320 4560
L53270 4530
L53250 4510
" />
</g>
<g style="fill:#840000; fill-opacity:0.0; 
stroke:#840000; stroke-width:100; stroke-opacity:1; 
stroke-linecap:round; stroke-linejoin:round;">
</g>
<g style="fill:#840000; fill-opacity:0.0; 
stroke:#840000; stroke-width:60; stroke-opacity:1; 
stroke-linecap:round; stroke-linejoin:round;">
<text x="72830" y="4580"
textLength="550" font-size="680" lengthAdjust="spacingAndGlyphs"
text-anchor="start" opacity="0">4</text>
<path d="M73200 4220
L73200 4560
" />
<path d="M73070 4020
L72950 4390
L73270 4390
" />
</g>
<g style="fill:#840000; fill-opacity:0.0; 
stroke:#840000; stroke-width:100; stroke-opacity:1; 
stroke-linecap:round; stroke-linejoin:round;">
</g>
<g style="fill:#840000; fill-opacity:0.0; 
stroke:#840000; stroke-width:60; stroke-opacity:1; 
stroke-linecap:round; stroke-linejoin:round;">
<text x="92520" y="4580"
textLength="550" font-size="680" lengthAdjust="spacingAndGlyphs"
text-anchor="start" opacity="0">5</text>
<path d="M92910 4050
L92670 4050
L92640 4290
L92670 4260
L92720 4240
L92840 4240
L92890 4260
L92910 4290
L92930 4340
L92930 4460
L92910 4510
L92890 4530
L92840 4560
L92720 4560
L92670 4530
L92640 4510
" />
</g>
<g style="fill:#840000; fill-opacity:0.0; 
stroke:#840000; stroke-width:100; stroke-opacity:1; 
stroke-linecap:round; stroke-linejoin:round;">
</g>
<g style="fill:#840000; fill-opacity:0.0; 
stroke:#840000; stroke-width:60; stroke-opacity:1; 
stroke-linecap:round; stroke-linejoin:round;">
<path d="M23620 80280
L23620 81060
" />
</g>
<g style="fill:#840000; fill-opacity:0.0; 
stroke:#840000; stroke-width:100; stroke-opacity:1; 
stroke-linecap:round; stroke-linejoin:round;">
</g>
<g style="fill:#840000; fill-opacity:0.0; 
stroke:#840000; stroke-width:60; stroke-opacity:1; 
stroke-linecap:round; stroke-linejoin:round;">
<path d="M43310 80280
L43310 81060
" />
</g>
<g style="fill:#840000; fill-opacity:0.0; 
stroke:#840000; stroke-width:100; stroke-opacity:1; 
stroke-linecap:round; stroke-linejoin:round;">
</g>
<g style="fill:#840000; fill-opacity:0.0; 
stroke:#840000; stroke-width:60; stroke-opacity:1; 
stroke-linecap:round; stroke-linejoin:round;">
<path d="M62990 80280
L62990 81060
" />
</g>
<g style="fill:#840000; fill-opacity:0.0; 
stroke:#840000; stroke-width:100; stroke-opacity:1; 
stroke-linecap:round; stroke-linejoin:round;">
</g>
<g style="fill:#840000; fill-opacity:0.0; 
stroke:#840000; stroke-width:60; stroke-opacity:1; 
stroke-linecap:round; stroke-linejoin:round;">
<path d="M82680 80280
L82680 81060
" />
</g>
<g style="fill:#840000; fill-opacity:0.0; 
stroke:#840000; stroke-width:100; stroke-opacity:1; 
stroke-linecap:round; stroke-linejoin:round;">
</g>
<g style="fill:#840000; fill-opacity:0.0; 
stroke:#840000; stroke-width:60; stroke-opacity:1; 
stroke-linecap:round; stroke-linejoin:round;">
<path d="M102360 80280
L102360 81060
" />
</g>
<g style="fill:#840000; fill-opacity:0.0; 
stroke:#840000; stroke-width:100; stroke-opacity:1; 
stroke-linecap:round; stroke-linejoin:round;">
</g>
<g style="fill:#840000; fill-opacity:0.0; 
stroke:#840000; stroke-width:60; stroke-opacity:1; 
stroke-linecap:round; stroke-linejoin:round;">
<text x="13780" y="80920"
textLength="550" font-size="680" lengthAdjust="spacingAndGlyphs"
text-anchor="start" opacity="0">1</text>
<path d="M14190 80900
L13900 80900
" />
<path d="M14050 80900
L14050 80390
L14000 80460
L13950 80510
L13900 80530
" />
</g>
<g style="fill:#840000; fill-opacity:0.0; 
stroke:#840000; stroke-width:100; stroke-opacity:1; 
stroke-linecap:round; stroke-linejoin:round;">
</g>
<g style="fill:#840000; fill-opacity:0.0; 
stroke:#840000; stroke-width:60; stroke-opacity:1; 
stroke-linecap:round; stroke-linejoin:round;">
<text x="33460" y="80920"
textLength="550" font-size="680" lengthAdjust="spacingAndGlyphs"
text-anchor="start" opacity="0">2</text>
<path d="M33580 80430
L33610 80410
L33660 80390
L33780 80390
L33830 80410
L33850 80430
L33870 80480
L33870 80530
L33850 80600
L33560 80900
L33870 80900
" />
</g>
<g style="fill:#840000; fill-opacity:0.0; 
stroke:#840000; stroke-width:100; stroke-opacity:1; 
stroke-linecap:round; stroke-linejoin:round;">
</g>
<g style="fill:#840000; fill-opacity:0.0; 
stroke:#840000; stroke-width:60; stroke-opacity:1; 
stroke-linecap:round; stroke-linejoin:round;">
<text x="53150" y="80920"
textLength="550" font-size="680" lengthAdjust="spacingAndGlyphs"
text-anchor="start" opacity="0">3</text>
<path d="M53250 80390
L53560 80390
L53390 80580
L53470 80580
L53520 80600
L53540 80630
L53560 80680
L53560 80800
L53540 80850
L53520 80870
L53470 80900
L53320 80900
L53270 80870
L53250 80850
" />
</g>
<g style="fill:#840000; fill-opacity:0.0; 
stroke:#840000; stroke-width:100; stroke-opacity:1; 
stroke-linecap:round; stroke-linejoin:round;">
</g>
<g style="fill:#840000; fill-opacity:0.0; 
stroke:#840000; stroke-width:60; stroke-opacity:1; 
stroke-linecap:round; stroke-linejoin:round;">
<text x="72830" y="80920"
textLength="550" font-size="680" lengthAdjust="spacingAndGlyphs"
text-anchor="start" opacity="0">4</text>
<path d="M73200 80560
L73200 80900
" />
<path d="M73070 80360
L72950 80730
L73270 80730
" />
</g>
<g style="fill:#840000; fill-opacity:0.0; 
stroke:#840000; stroke-width:100; stroke-opacity:1; 
stroke-linecap:round; stroke-linejoin:round;">
</g>
<g style="fill:#840000; fill-opacity:0.0; 
stroke:#840000; stroke-width:60; stroke-opacity:1; 
stroke-linecap:round; stroke-linejoin:round;">
<text x="92520" y="80920"
textLength="550" font-size="680" lengthAdjust="spacingAndGlyphs"
text-anchor="start" opacity="0">5</text>
<path d="M92910 80390
L92670 80390
L92640 80630
L92670 80600
L92720 80580
L92840 80580
L92890 80600
L92910 80630
L92930 80680
L92930 80800
L92910 80850
L92890 80870
L92840 80900
L92720 80900
L92670 80870
L92640 80850
" />
</g>
<g style="fill:#840000; fill-opacity:0.0; 
stroke:#840000; stroke-width:100; stroke-opacity:1; 
stroke-linecap:round; stroke-linejoin:round;">
</g>
<g style="fill:#840000; fill-opacity:0.0; 
stroke:#840000; stroke-width:60; stroke-opacity:1; 
stroke-linecap:round; stroke-linejoin:round;">
<path d="M3940 23620
L4720 23620
" />
</g>
<g style="fill:#840000; fill-opacity:0.0; 
stroke:#840000; stroke-width:100; stroke-opacity:1; 
stroke-linecap:round; stroke-linejoin:round;">
</g>
<g style="fill:#840000; fill-opacity:0.0; 
stroke:#840000; stroke-width:60; stroke-opacity:1; 
stroke-linecap:round; stroke-linejoin:round;">
<path d="M3940 43310
L4720 43310
" />
</g>
<g style="fill:#840000; fill-opacity:0.0; 
stroke:#840000; stroke-width:100; stroke-opacity:1; 
stroke-linecap:round; stroke-linejoin:round;">
</g>
<g style="fill:#840000; fill-opacity:0.0; 
stroke:#840000; stroke-width:60; stroke-opacity:1; 
stroke-linecap:round; stroke-linejoin:round;">
<path d="M3940 62990
L4720 62990
" />
</g>
<g style="fill:#840000; fill-opacity:0.0; 
stroke:#840000; stroke-width:100; stroke-opacity:1; 
stroke-linecap:round; stroke-linejoin:round;">
</g>
<g style="fill:#840000; fill-opacity:0.0; 
stroke:#840000; stroke-width:60; stroke-opacity:1; 
stroke-linecap:round; stroke-linejoin:round;">
<text x="4330" y="14030"
textLength="500" font-size="680" lengthAdjust="spacingAndGlyphs"
text-anchor="middle" opacity="0">A</text>
<path d="M4200 13860
L4450 13860
" />
<path d="M4160 14010
L4330 13500
L4500 14010
" />
</g>
<g style="fill:#840000; fill-opacity:0.0; 
stroke:#840000; stroke-width:100; stroke-opacity:1; 
stroke-linecap:round; stroke-linejoin:round;">
</g>
<g style="fill:#840000; fill-opacity:0.0; 
stroke:#840000; stroke-width:60; stroke-opacity:1; 
stroke-linecap:round; stroke-linejoin:round;">
<text x="4330" y="33710"
textLength="570" font-size="680" lengthAdjust="spacingAndGlyphs"
text-anchor="middle" opacity="0">B</text>
<path d="M4360 33420
L4430 33440
L4460 33470
L4480 33520
L4480 33590
L4460 33640
L4430 33660
L4390 33690
L4190 33690
L4190 33180
L4360 33180
L4410 33200
L4430 33220
L4460 33270
L4460 33320
L4430 33370
L4410 33390
L4360 33420
L4190 33420
" />
</g>
<g style="fill:#840000; fill-opacity:0.0; 
stroke:#840000; stroke-width:100; stroke-opacity:1; 
stroke-linecap:round; stroke-linejoin:round;">
</g>
<g style="fill:#840000; fill-opacity:0.0; 
stroke:#840000; stroke-width:60; stroke-opacity:1; 
stroke-linecap:round; stroke-linejoin:round;">
<text x="4330" y="53400"
textLength="570" font-size="680" lengthAdjust="spacingAndGlyphs"
text-anchor="middle" opacity="0">C</text>
<path d="M4480 53330
L4460 53350
L4390 53380
L4340 53380
L4260 53350
L4220 53300
L4190 53250
L4170 53160
L4170 53080
L4190 52990
L4220 52940
L4260 52890
L4340 52870
L4390 52870
L4460 52890
L4480 52910
" />
</g>
<g style="fill:#840000; fill-opacity:0.0; 
stroke:#840000; stroke-width:100; stroke-opacity:1; 
stroke-linecap:round; stroke-linejoin:round;">
</g>
<g style="fill:#840000; fill-opacity:0.0; 
stroke:#840000; stroke-width:60; stroke-opacity:1; 
stroke-linecap:round; stroke-linejoin:round;">
<text x="4330" y="73080"
textLength="570" font-size="680" lengthAdjust="spacingAndGlyphs"
text-anchor="middle" opacity="0">D</text>
<path d="M4190 73060
L4190 72550
L4310 72550
L4390 72570
L4430 72620
L4460 72670
L4480 72760
L4480 72840
L4460 72930
L4430 72980
L4390 73030
L4310 73060
L4190 73060
" />
</g>
<g style="fill:#840000; fill-opacity:0.0; 
stroke:#840000; stroke-width:100; stroke-opacity:1; 
stroke-linecap:round; stroke-linejoin:round;">
</g>
<g style="fill:#840000; fill-opacity:0.0; 
stroke:#840000; stroke-width:60; stroke-opacity:1; 
stroke-linecap:round; stroke-linejoin:round;">
<path d="M106060 23620
L105280 23620
" />
</g>
<g style="fill:#840000; fill-opacity:0.0; 
stroke:#840000; stroke-width:100; stroke-opacity:1; 
stroke-linecap:round; stroke-linejoin:round;">
</g>
<g style="fill:#840000; fill-opacity:0.0; 
stroke:#840000; stroke-width:60; stroke-opacity:1; 
stroke-linecap:round; stroke-linejoin:round;">
<path d="M106060 43310
L105280 43310
" />
</g>
<g style="fill:#840000; fill-opacity:0.0; 
stroke:#840000; stroke-width:100; stroke-opacity:1; 
stroke-linecap:round; stroke-linejoin:round;">
</g>
<g style="fill:#840000; fill-opacity:0.0; 
stroke:#840000; stroke-width:60; stroke-opacity:1; 
stroke-linecap:round; stroke-linejoin:round;">
<path d="M106060 62990
L105280 62990
" />
</g>
<g style="fill:#840000; fill-opacity:0.0; 
stroke:#840000; stroke-width:100; stroke-opacity:1; 
stroke-linecap:round; stroke-linejoin:round;">
</g>
<g style="fill:#840000; fill-opacity:0.0; 
stroke:#840000; stroke-width:60; stroke-opacity:1; 
stroke-linecap:round; stroke-linejoin:round;">
<text x="105670" y="14030"
textLength="500" font-size="680" lengthAdjust="spacingAndGlyphs"
text-anchor="middle" opacity="0">A</text>
<path d="M105540 13860
L105790 13860
" />
<path d="M105500 14010
L105670 13500
L105840 14010
" />
</g>
<g style="fill:#840000; fill-opacity:0.0; 
stroke:#840000; stroke-width:100; stroke-opacity:1; 
stroke-linecap:round; stroke-linejoin:round;">
</g>
<g style="fill:#840000; fill-opacity:0.0; 
stroke:#840000; stroke-width:60; stroke-opacity:1; 
stroke-linecap:round; stroke-linejoin:round;">
<text x="105670" y="33710"
textLength="570" font-size="680" lengthAdjust="spacingAndGlyphs"
text-anchor="middle" opacity="0">B</text>
<path d="M105700 33420
L105770 33440
L105800 33470
L105820 33520
L105820 33590
L105800 33640
L105770 33660
L105730 33690
L105530 33690
L105530 33180
L105700 33180
L105750 33200
L105770 33220
L105800 33270
L105800 33320
L105770 33370
L105750 33390
L105700 33420
L105530 33420
" />
</g>
<g style="fill:#840000; fill-opacity:0.0; 
stroke:#840000; stroke-width:100; stroke-opacity:1; 
stroke-linecap:round; stroke-linejoin:round;">
</g>
<g style="fill:#840000; fill-opacity:0.0; 
stroke:#840000; stroke-width:60; stroke-opacity:1; 
stroke-linecap:round; stroke-linejoin:round;">
<text x="105670" y="53400"
textLength="570" font-size="680" lengthAdjust="spacingAndGlyphs"
text-anchor="middle" opacity="0">C</text>
<path d="M105820 53330
L105800 53350
L105730 53380
L105680 53380
L105600 53350
L105560 53300
L105530 53250
L105510 53160
L105510 53080
L105530 52990
L105560 52940
L105600 52890
L105680 52870
L105730 52870
L105800 52890
L105820 52910
" />
</g>
<g style="fill:#840000; fill-opacity:0.0; 
stroke:#840000; stroke-width:100; stroke-opacity:1; 
stroke-linecap:round; stroke-linejoin:round;">
</g>
<g style="fill:#840000; fill-opacity:0.0; 
stroke:#840000; stroke-width:60; stroke-opacity:1; 
stroke-linecap:round; stroke-linejoin:round;">
<text x="105670" y="73080"
textLength="570" font-size="680" lengthAdjust="spacingAndGlyphs"
text-anchor="middle" opacity="0">D</text>
<path d="M105530 73060
L105530 72550
L105650 72550
L105730 72570
L105770 72620
L105800 72670
L105820 72760
L105820 72840
L105800 72930
L105770 72980
L105730 73030
L105650 73060
L105530 73060
" />
</g>
<g style="fill:#840000; fill-opacity:0.0; 
stroke:#840000; stroke-width:100; stroke-opacity:1; 
stroke-linecap:round; stroke-linejoin:round;">
</g>
<g style="fill:#840000; fill-opacity:0.0; 
stroke:#840000; stroke-width:60; stroke-opacity:1; 
stroke-linecap:round; stroke-linejoin:round;">
<text x="71810" y="78640"
textLength="8710" font-size="780" lengthAdjust="spacingAndGlyphs"
text-anchor="start" opacity="0">Date: 2020-12-01</text>
<path d="M71980 78610
L71980 78020
L72120 78020
L72200 78050
L72260 78110
L72280 78160
L72310 78270
L72310 78360
L72280 78470
L72260 78530
L72200 78580
L72120 78610
L71980 78610
" />
<path d="M72820 78610
L72820 78300
L72790 78250
L72730 78220
L72620 78220
L72570 78250
" />
<path d="M72820 78580
L72760 78610
L72620 78610
L72570 78580
L72540 78530
L72540 78470
L72570 78420
L72620 78390
L72760 78390
L72820 78360
" />
<path d="M73020 78220
L73240 78220
" />
<path d="M73100 78020
L73100 78530
L73130 78580
L73180 78610
L73240 78610
" />
<path d="M73660 78580
L73610 78610
L73490 78610
L73440 78580
L73410 78530
L73410 78300
L73440 78250
L73490 78220
L73610 78220
L73660 78250
L73690 78300
L73690 78360
L73410 78420
" />
<path d="M73940 78560
L73970 78580
L73940 78610
L73910 78580
L73940 78560
L73940 78610
" />
<path d="M73940 78250
L73970 78270
L73940 78300
L73910 78270
L73940 78250
L73940 78300
" />
<path d="M74640 78080
L74670 78050
L74730 78020
L74870 78020
L74930 78050
L74950 78080
L74980 78130
L74980 78190
L74950 78270
L74620 78610
L74980 78610
" />
<path d="M75350 78020
L75400 78020
L75460 78050
L75490 78080
L75520 78130
L75540 78250
L75540 78390
L75520 78500
L75490 78560
L75460 78580
L75400 78610
L75350 78610
L75290 78580
L75260 78560
L75230 78500
L75210 78390
L75210 78250
L75230 78130
L75260 78080
L75290 78050
L75350 78020
" />
<path d="M75770 78080
L75800 78050
L75850 78020
L75990 78020
L76050 78050
L76080 78080
L76110 78130
L76110 78190
L76080 78270
L75740 78610
L76110 78610
" />
<path d="M76470 78020
L76530 78020
L76580 78050
L76610 78080
L76640 78130
L76670 78250
L76670 78390
L76640 78500
L76610 78560
L76580 78580
L76530 78610
L76470 78610
L76410 78580
L76390 78560
L76360 78500
L76330 78390
L76330 78250
L76360 78130
L76390 78080
L76410 78050
L76470 78020
" />
<path d="M76920 78390
L77370 78390
" />
<path d="M77960 78610
L77620 78610
" />
<path d="M77790 78610
L77790 78020
L77740 78110
L77680 78160
L77620 78190
" />
<path d="M78180 78080
L78210 78050
L78270 78020
L78410 78020
L78470 78050
L78490 78080
L78520 78130
L78520 78190
L78490 78270
L78160 78610
L78520 78610
" />
<path d="M78770 78390
L79220 78390
" />
<path d="M79620 78020
L79670 78020
L79730 78050
L79760 78080
L79790 78130
L79810 78250
L79810 78390
L79790 78500
L79760 78560
L79730 78580
L79670 78610
L79620 78610
L79560 78580
L79530 78560
L79510 78500
L79480 78390
L79480 78250
L79510 78130
L79530 78080
L79560 78050
L79620 78020
" />
<path d="M80380 78610
L80040 78610
" />
<path d="M80210 78610
L80210 78020
L80150 78110
L80100 78160
L80040 78190
" />
</g>
<g style="fill:#840000; fill-opacity:0.0; 
stroke:#840000; stroke-width:100; stroke-opacity:1; 
stroke-linecap:round; stroke-linejoin:round;">
</g>
<g style="fill:#840000; fill-opacity:0.0; 
stroke:#840000; stroke-width:60; stroke-opacity:1; 
stroke-linecap:round; stroke-linejoin:round;">
<path d="M62760 78900
L105280 78900
" />
</g>
<g style="fill:#840000; fill-opacity:0.0; 
stroke:#840000; stroke-width:100; stroke-opacity:1; 
stroke-linecap:round; stroke-linejoin:round;">
</g>
<g style="fill:#840000; fill-opacity:0.0; 
stroke:#840000; stroke-width:60; stroke-opacity:1; 
stroke-linecap:round; stroke-linejoin:round;">
<text x="63150" y="79740"
textLength="13520" font-size="780" lengthAdjust="spacingAndGlyphs"
text-anchor="start" opacity="0">KiCad E.D.A.  kicad (5.1.7)-1</text>
<path d="M63320 79710
L63320 79120
" />
<path d="M63650 79710
L63400 79370
" />
<path d="M63650 79120
L63320 79460
" />
<path d="M63910 79710
L63910 79320
" />
<path d="M63910 79120
L63880 79150
L63910 79180
L63930 79150
L63910 79120
L63910 79180
" />
<path d="M64520 79660
L64500 79680
L64410 79710
L64360 79710
L64270 79680
L64210 79630
L64190 79570
L64160 79460
L64160 79370
L64190 79260
L64210 79210
L64270 79150
L64360 79120
L64410 79120
L64500 79150
L64520 79180
" />
<path d="M65030 79710
L65030 79400
L65000 79350
L64950 79320
L64830 79320
L64780 79350
" />
<path d="M65030 79680
L64970 79710
L64830 79710
L64780 79680
L64750 79630
L64750 79570
L64780 79520
L64830 79490
L64970 79490
L65030 79460
" />
<path d="M65560 79710
L65560 79120
" />
<path d="M65560 79680
L65510 79710
L65390 79710
L65340 79680
L65310 79660
L65280 79600
L65280 79430
L65310 79370
L65340 79350
L65390 79320
L65510 79320
L65560 79350
" />
<path d="M66290 79400
L66490 79400
" />
<path d="M66570 79710
L66290 79710
L66290 79120
L66570 79120
" />
<path d="M66830 79660
L66860 79680
L66830 79710
L66800 79680
L66830 79660
L66830 79710
" />
<path d="M67110 79710
L67110 79120
L67250 79120
L67330 79150
L67390 79210
L67420 79260
L67450 79370
L67450 79460
L67420 79570
L67390 79630
L67330 79680
L67250 79710
L67110 79710
" />
<path d="M67700 79660
L67730 79680
L67700 79710
L67670 79680
L67700 79660
L67700 79710
" />
<path d="M67950 79540
L68230 79540
" />
<path d="M67900 79710
L68090 79120
L68290 79710
" />
<path d="M68490 79660
L68510 79680
L68490 79710
L68460 79680
L68490 79660
L68490 79710
" />
<path d="M69670 79710
L69670 79120
" />
<path d="M69720 79490
L69890 79710
" />
<path d="M69890 79320
L69670 79540
" />
<path d="M70140 79710
L70140 79320
" />
<path d="M70140 79120
L70110 79150
L70140 79180
L70170 79150
L70140 79120
L70140 79180
" />
<path d="M70680 79680
L70620 79710
L70510 79710
L70450 79680
L70420 79660
L70400 79600
L70400 79430
L70420 79370
L70450 79350
L70510 79320
L70620 79320
L70680 79350
" />
<path d="M71180 79710
L71180 79400
L71150 79350
L71100 79320
L70990 79320
L70930 79350
" />
<path d="M71180 79680
L71130 79710
L70990 79710
L70930 79680
L70900 79630
L70900 79570
L70930 79520
L70990 79490
L71130 79490
L71180 79460
" />
<path d="M71720 79710
L71720 79120
" />
<path d="M71720 79680
L71660 79710
L71550 79710
L71490 79680
L71460 79660
L71440 79600
L71440 79430
L71460 79370
L71490 79350
L71550 79320
L71660 79320
L71720 79350
" />
<path d="M72620 79940
L72590 79910
L72530 79820
L72500 79770
L72470 79680
L72450 79540
L72450 79430
L72470 79290
L72500 79210
L72530 79150
L72590 79070
L72620 79040
" />
<path d="M73120 79120
L72840 79120
L72810 79400
L72840 79370
L72900 79350
L73040 79350
L73090 79370
L73120 79400
L73150 79460
L73150 79600
L73120 79660
L73090 79680
L73040 79710
L72900 79710
L72840 79680
L72810 79660
" />
<path d="M73400 79660
L73430 79680
L73400 79710
L73370 79680
L73400 79660
L73400 79710
" />
<path d="M73990 79710
L73650 79710
" />
<path d="M73820 79710
L73820 79120
L73770 79210
L73710 79260
L73650 79290
" />
<path d="M74240 79660
L74270 79680
L74240 79710
L74220 79680
L74240 79660
L74240 79710
" />
<path d="M74470 79120
L74860 79120
L74610 79710
" />
<path d="M75030 79940
L75060 79910
L75120 79820
L75140 79770
L75170 79680
L75200 79540
L75200 79430
L75170 79290
L75140 79210
L75120 79150
L75060 79070
L75030 79040
" />
<path d="M75480 79490
L75930 79490
" />
<path d="M76520 79710
L76180 79710
" />
<path d="M76350 79710
L76350 79120
L76300 79210
L76240 79260
L76180 79290
" />
</g>
<g style="fill:#840000; fill-opacity:0.0; 
stroke:#840000; stroke-width:100; stroke-opacity:1; 
stroke-linecap:round; stroke-linejoin:round;">
</g>
<g style="fill:#840000; fill-opacity:0.0; 
stroke:#840000; stroke-width:60; stroke-opacity:1; 
stroke-linecap:round; stroke-linejoin:round;">
<path d="M62760 77720
L105280 77720
" />
</g>
<g style="fill:#840000; fill-opacity:0.0; 
stroke:#840000; stroke-width:100; stroke-opacity:1; 
stroke-linecap:round; stroke-linejoin:round;">
</g>
<g style="fill:#840000; fill-opacity:0.0; 
stroke:#840000; stroke-width:120; stroke-opacity:1; 
stroke-linecap:round; stroke-linejoin:round;">
<text x="96610" y="78640"
textLength="2340" font-size="780" lengthAdjust="spacingAndGlyphs"
text-anchor="start" opacity="0">Rev: </text>
<path d="M97160 78610
L96960 78330
" />
<path d="M96820 78610
L96820 78020
L97050 78020
L97100 78050
L97130 78080
L97160 78130
L97160 78220
L97130 78270
L97100 78300
L97050 78330
L96820 78330
" />
<path d="M97640 78580
L97580 78610
L97470 78610
L97410 78580
L97390 78530
L97390 78300
L97410 78250
L97470 78220
L97580 78220
L97640 78250
L97670 78300
L97670 78360
L97390 78420
" />
<path d="M97860 78220
L98000 78610
L98140 78220
" />
<path d="M98370 78560
L98400 78580
L98370 78610
L98340 78580
L98370 78560
L98370 78610
" />
<path d="M98370 78250
L98400 78270
L98370 78300
L98340 78270
L98370 78250
L98370 78300
" />
</g>
<g style="fill:#840000; fill-opacity:0.0; 
stroke:#840000; stroke-width:100; stroke-opacity:1; 
stroke-linecap:round; stroke-linejoin:round;">
</g>
<g style="fill:#840000; fill-opacity:0.0; 
stroke:#840000; stroke-width:60; stroke-opacity:1; 
stroke-linecap:round; stroke-linejoin:round;">
<text x="63150" y="78640"
textLength="3220" font-size="780" lengthAdjust="spacingAndGlyphs"
text-anchor="start" opacity="0">Size: A</text>
<path d="M63290 78580
L63370 78610
L63510 78610
L63570 78580
L63600 78560
L63620 78500
L63620 78440
L63600 78390
L63570 78360
L63510 78330
L63400 78300
L63340 78270
L63320 78250
L63290 78190
L63290 78130
L63320 78080
L63340 78050
L63400 78020
L63540 78020
L63620 78050
" />
<path d="M63880 78610
L63880 78220
" />
<path d="M63880 78020
L63850 78050
L63880 78080
L63910 78050
L63880 78020
L63880 78080
" />
<path d="M64100 78220
L64410 78220
L64100 78610
L64410 78610
" />
<path d="M64860 78580
L64800 78610
L64690 78610
L64640 78580
L64610 78530
L64610 78300
L64640 78250
L64690 78220
L64800 78220
L64860 78250
L64890 78300
L64890 78360
L64610 78420
" />
<path d="M65140 78560
L65170 78580
L65140 78610
L65110 78580
L65140 78560
L65140 78610
" />
<path d="M65140 78250
L65170 78270
L65140 78300
L65110 78270
L65140 78250
L65140 78300
" />
<path d="M65840 78440
L66130 78440
" />
<path d="M65790 78610
L65980 78020
L66180 78610
" />
</g>
<g style="fill:#840000; fill-opacity:0.0; 
stroke:#840000; stroke-width:100; stroke-opacity:1; 
stroke-linecap:round; stroke-linejoin:round;">
</g>
<g style="fill:#840000; fill-opacity:0.0; 
stroke:#840000; stroke-width:60; stroke-opacity:1; 
stroke-linecap:round; stroke-linejoin:round;">
<text x="96610" y="79740"
textLength="3350" font-size="780" lengthAdjust="spacingAndGlyphs"
text-anchor="start" opacity="0">Id: 1/4</text>
<path d="M96780 79710
L96780 79120
" />
<path d="M97310 79710
L97310 79120
" />
<path d="M97310 79680
L97250 79710
L97140 79710
L97080 79680
L97060 79660
L97030 79600
L97030 79430
L97060 79370
L97080 79350
L97140 79320
L97250 79320
L97310 79350
" />
<path d="M97590 79660
L97620 79680
L97590 79710
L97560 79680
L97590 79660
L97590 79710
" />
<path d="M97590 79350
L97620 79370
L97590 79400
L97560 79370
L97590 79350
L97590 79400
" />
<path d="M98630 79710
L98290 79710
" />
<path d="M98460 79710
L98460 79120
L98410 79210
L98350 79260
L98290 79290
" />
<path d="M99300 79090
L98800 79850
" />
<path d="M99750 79320
L99750 79710
" />
<path d="M99610 79090
L99470 79520
L99840 79520
" />
</g>
<g style="fill:#840000; fill-opacity:0.0; 
stroke:#840000; stroke-width:100; stroke-opacity:1; 
stroke-linecap:round; stroke-linejoin:round;">
</g>
<g style="fill:#840000; fill-opacity:0.0; 
stroke:#840000; stroke-width:60; stroke-opacity:1; 
stroke-linecap:round; stroke-linejoin:round;">
<path d="M62760 76140
L105280 76140
" />
</g>
<g style="fill:#840000; fill-opacity:0.0; 
stroke:#840000; stroke-width:100; stroke-opacity:1; 
stroke-linecap:round; stroke-linejoin:round;">
</g>
<g style="fill:#840000; fill-opacity:0.0; 
stroke:#840000; stroke-width:160; stroke-opacity:1; 
stroke-linecap:round; stroke-linejoin:round;">
<text x="63150" y="77240"
textLength="6390" font-size="1050" lengthAdjust="spacingAndGlyphs"
text-anchor="start" opacity="0">Title: Root</text>
<path d="M63430 76410
L63880 76410
" />
<path d="M63550 77200
L63650 76410
" />
<path d="M64040 77200
L64110 76680
" />
<path d="M64140 76410
L64100 76450
L64130 76490
L64180 76450
L64140 76410
L64130 76490
" />
<path d="M64370 76680
L64670 76680
" />
<path d="M64520 76410
L64430 77090
L64460 77160
L64530 77200
L64610 77200
" />
<path d="M64980 77200
L64910 77160
L64890 77090
L64970 76410
" />
<path d="M65590 77160
L65510 77200
L65360 77200
L65290 77160
L65260 77090
L65300 76790
L65350 76710
L65430 76680
L65580 76680
L65650 76710
L65680 76790
L65670 76860
L65280 76940
" />
<path d="M65970 77130
L66000 77160
L65960 77200
L65930 77160
L65970 77130
L65960 77200
" />
<path d="M66020 76710
L66060 76750
L66010 76790
L65980 76750
L66020 76710
L66010 76790
" />
<path d="M67390 77200
L67180 76830
" />
<path d="M66940 77200
L67040 76410
L67340 76410
L67410 76450
L67440 76490
L67470 76560
L67460 76680
L67410 76750
L67370 76790
L67290 76830
L66990 76830
" />
<path d="M67840 77200
L67770 77160
L67740 77130
L67710 77050
L67740 76830
L67790 76750
L67830 76710
L67910 76680
L68020 76680
L68090 76710
L68130 76750
L68150 76830
L68130 77050
L68080 77130
L68040 77160
L67960 77200
L67840 77200
" />
<path d="M68560 77200
L68490 77160
L68450 77130
L68430 77050
L68450 76830
L68500 76750
L68540 76710
L68620 76680
L68740 76680
L68810 76710
L68840 76750
L68870 76830
L68840 77050
L68790 77130
L68750 77160
L68670 77200
L68560 77200
" />
<path d="M69110 76680
L69410 76680
" />
<path d="M69260 76410
L69170 77090
L69200 77160
L69270 77200
L69350 77200
" />
</g>
<g style="fill:#840000; fill-opacity:0.0; 
stroke:#840000; stroke-width:100; stroke-opacity:1; 
stroke-linecap:round; stroke-linejoin:round;">
</g>
<g style="fill:#840000; fill-opacity:0.0; 
stroke:#840000; stroke-width:60; stroke-opacity:1; 
stroke-linecap:round; stroke-linejoin:round;">
<text x="63150" y="75720"
textLength="11450" font-size="780" lengthAdjust="spacingAndGlyphs"
text-anchor="start" opacity="0">File: SYSC4907_REV2.sch</text>
<path d="M63510 75380
L63320 75380
" />
<path d="M63320 75690
L63320 75100
L63600 75100
" />
<path d="M63820 75690
L63820 75300
" />
<path d="M63820 75100
L63790 75130
L63820 75160
L63850 75130
L63820 75100
L63820 75160
" />
<path d="M64190 75690
L64130 75660
L64100 75610
L64100 75100
" />
<path d="M64640 75660
L64580 75690
L64470 75690
L64410 75660
L64380 75610
L64380 75380
L64410 75330
L64470 75300
L64580 75300
L64640 75330
L64660 75380
L64660 75440
L64380 75500
" />
<path d="M64920 75640
L64950 75660
L64920 75690
L64890 75660
L64920 75640
L64920 75690
" />
<path d="M64920 75330
L64950 75350
L64920 75380
L64890 75350
L64920 75330
L64920 75380
" />
<path d="M65620 75660
L65700 75690
L65840 75690
L65900 75660
L65930 75640
L65960 75580
L65960 75520
L65930 75470
L65900 75440
L65840 75410
L65730 75380
L65680 75350
L65650 75330
L65620 75270
L65620 75210
L65650 75160
L65680 75130
L65730 75100
L65870 75100
L65960 75130
" />
<path d="M66320 75410
L66320 75690
" />
<path d="M66130 75100
L66320 75410
L66520 75100
" />
<path d="M66690 75660
L66770 75690
L66910 75690
L66970 75660
L67000 75640
L67020 75580
L67020 75520
L67000 75470
L66970 75440
L66910 75410
L66800 75380
L66740 75350
L66720 75330
L66690 75270
L66690 75210
L66720 75160
L66740 75130
L66800 75100
L66940 75100
L67020 75130
" />
<path d="M67610 75640
L67590 75660
L67500 75690
L67450 75690
L67360 75660
L67310 75610
L67280 75550
L67250 75440
L67250 75350
L67280 75240
L67310 75190
L67360 75130
L67450 75100
L67500 75100
L67590 75130
L67610 75160
" />
<path d="M68120 75300
L68120 75690
" />
<path d="M67980 75070
L67840 75500
L68200 75500
" />
<path d="M68460 75690
L68570 75690
L68630 75660
L68650 75640
L68710 75550
L68740 75440
L68740 75210
L68710 75160
L68680 75130
L68630 75100
L68510 75100
L68460 75130
L68430 75160
L68400 75210
L68400 75350
L68430 75410
L68460 75440
L68510 75470
L68630 75470
L68680 75440
L68710 75410
L68740 75350
" />
<path d="M69100 75100
L69160 75100
L69220 75130
L69240 75160
L69270 75210
L69300 75330
L69300 75470
L69270 75580
L69240 75640
L69220 75660
L69160 75690
L69100 75690
L69050 75660
L69020 75640
L68990 75580
L68960 75470
L68960 75330
L68990 75210
L69020 75160
L69050 75130
L69100 75100
" />
<path d="M69500 75100
L69890 75100
L69640 75690
" />
<path d="M69970 75750
L70420 75750
" />
<path d="M70900 75690
L70700 75410
" />
<path d="M70560 75690
L70560 75100
L70790 75100
L70850 75130
L70870 75160
L70900 75210
L70900 75300
L70870 75350
L70850 75380
L70790 75410
L70560 75410
" />
<path d="M71150 75380
L71350 75380
" />
<path d="M71440 75690
L71150 75690
L71150 75100
L71440 75100
" />
<path d="M71600 75100
L71800 75690
L72000 75100
" />
<path d="M72170 75160
L72190 75130
L72250 75100
L72390 75100
L72450 75130
L72470 75160
L72500 75210
L72500 75270
L72470 75350
L72140 75690
L72500 75690
" />
<path d="M72760 75640
L72780 75660
L72760 75690
L72730 75660
L72760 75640
L72760 75690
" />
<path d="M73010 75660
L73060 75690
L73180 75690
L73230 75660
L73260 75610
L73260 75580
L73230 75520
L73180 75500
L73090 75500
L73040 75470
L73010 75410
L73010 75380
L73040 75330
L73090 75300
L73180 75300
L73230 75330
" />
<path d="M73770 75660
L73710 75690
L73600 75690
L73540 75660
L73510 75640
L73490 75580
L73490 75410
L73510 75350
L73540 75330
L73600 75300
L73710 75300
L73770 75330
" />
<path d="M74020 75690
L74020 75100
" />
<path d="M74270 75690
L74270 75380
L74240 75330
L74190 75300
L74100 75300
L74050 75330
L74020 75350
" />
</g>
<g style="fill:#840000; fill-opacity:0.0; 
stroke:#840000; stroke-width:100; stroke-opacity:1; 
stroke-linecap:round; stroke-linejoin:round;">
</g>
<g style="fill:#840000; fill-opacity:0.0; 
stroke:#840000; stroke-width:60; stroke-opacity:1; 
stroke-linecap:round; stroke-linejoin:round;">
<path d="M62760 73780
L105280 73780
" />
</g>
<g style="fill:#840000; fill-opacity:0.0; 
stroke:#840000; stroke-width:100; stroke-opacity:1; 
stroke-linecap:round; stroke-linejoin:round;">
</g>
<g style="fill:#840000; fill-opacity:0.0; 
stroke:#840000; stroke-width:60; stroke-opacity:1; 
stroke-linecap:round; stroke-linejoin:round;">
<text x="63150" y="74660"
textLength="3850" font-size="780" lengthAdjust="spacingAndGlyphs"
text-anchor="start" opacity="0">Sheet: /</text>
<path d="M63290 74600
L63370 74630
L63510 74630
L63570 74600
L63600 74580
L63620 74520
L63620 74460
L63600 74410
L63570 74380
L63510 74350
L63400 74320
L63340 74290
L63320 74270
L63290 74210
L63290 74150
L63320 74100
L63340 74070
L63400 74040
L63540 74040
L63620 74070
" />
<path d="M63880 74630
L63880 74040
" />
<path d="M64130 74630
L64130 74320
L64100 74270
L64050 74240
L63960 74240
L63910 74270
L63880 74290
" />
<path d="M64640 74600
L64580 74630
L64470 74630
L64410 74600
L64380 74550
L64380 74320
L64410 74270
L64470 74240
L64580 74240
L64640 74270
L64660 74320
L64660 74380
L64380 74440
" />
<path d="M65140 74600
L65090 74630
L64970 74630
L64920 74600
L64890 74550
L64890 74320
L64920 74270
L64970 74240
L65090 74240
L65140 74270
L65170 74320
L65170 74380
L64890 74440
" />
<path d="M65340 74240
L65560 74240
" />
<path d="M65420 74040
L65420 74550
L65450 74600
L65510 74630
L65560 74630
" />
<path d="M65760 74580
L65790 74600
L65760 74630
L65730 74600
L65760 74580
L65760 74630
" />
<path d="M65760 74270
L65790 74290
L65760 74320
L65730 74290
L65760 74270
L65760 74320
" />
<path d="M66910 74010
L66410 74770
" />
</g>
<g style="fill:#840000; fill-opacity:0.0; 
stroke:#840000; stroke-width:100; stroke-opacity:1; 
stroke-linecap:round; stroke-linejoin:round;">
</g>
<g style="fill:#840000; fill-opacity:0.0; 
stroke:#840000; stroke-width:60; stroke-opacity:1; 
stroke-linecap:round; stroke-linejoin:round;">
<path d="M70630 77720
L70630 78900
" />
</g>
<g style="fill:#840000; fill-opacity:0.0; 
stroke:#840000; stroke-width:100; stroke-opacity:1; 
stroke-linecap:round; stroke-linejoin:round;">
</g>
<g style="fill:#840000; fill-opacity:0.0; 
stroke:#840000; stroke-width:60; stroke-opacity:1; 
stroke-linecap:round; stroke-linejoin:round;">
<path d="M95830 77720
L95830 80280
" />
</g>
<g style="fill:#840084; fill-opacity:0.0; 
stroke:#840084; stroke-width:60; stroke-opacity:1; 
stroke-linecap:round; stroke-linejoin:round;">
<path d="M51500 37500
L59500 37500
L59500 44500
L51500 44500
L51500 37500
" />
</g>
<g style="fill:#008484; fill-opacity:0.0; 
stroke:#008484; stroke-width:60; stroke-opacity:1; 
stroke-linecap:round; stroke-linejoin:round;">
</g>
<g style="fill:#000000; fill-opacity:0.0; 
stroke:#000000; stroke-width:60; stroke-opacity:1; 
stroke-linecap:round; stroke-linejoin:round;">
<text x="51500" y="37460"
textLength="6440" font-size="660" lengthAdjust="spacingAndGlyphs"
text-anchor="start" opacity="0">Sheet: Processor</text>
<path d="M51620 37410
L51690 37430
L51810 37430
L51860 37410
L51880 37380
L51910 37340
L51910 37290
L51880 37240
L51860 37220
L51810 37190
L51720 37170
L51670 37150
L51640 37120
L51620 37070
L51620 37030
L51640 36980
L51670 36960
L51720 36930
L51830 36930
L51910 36960
" />
<path d="M52120 37430
L52120 36930
" />
<path d="M52330 37430
L52330 37170
L52310 37120
L52260 37100
L52190 37100
L52140 37120
L52120 37150
" />
<path d="M52760 37410
L52720 37430
L52620 37430
L52570 37410
L52550 37360
L52550 37170
L52570 37120
L52620 37100
L52720 37100
L52760 37120
L52790 37170
L52790 37220
L52550 37260
" />
<path d="M53190 37410
L53140 37430
L53050 37430
L53000 37410
L52980 37360
L52980 37170
L53000 37120
L53050 37100
L53140 37100
L53190 37120
L53220 37170
L53220 37220
L52980 37260
" />
<path d="M53360 37100
L53550 37100
" />
<path d="M53430 36930
L53430 37360
L53450 37410
L53500 37430
L53550 37430
" />
<path d="M53720 37380
L53740 37410
L53720 37430
L53690 37410
L53720 37380
L53720 37430
" />
<path d="M53720 37120
L53740 37150
L53720 37170
L53690 37150
L53720 37120
L53720 37170
" />
<path d="M54330 37430
L54330 36930
L54530 36930
L54570 36960
L54600 36980
L54620 37030
L54620 37100
L54600 37150
L54570 37170
L54530 37190
L54330 37190
" />
<path d="M54830 37430
L54830 37100
" />
<path d="M54830 37190
L54860 37150
L54880 37120
L54930 37100
L54980 37100
" />
<path d="M55220 37430
L55170 37410
L55140 37380
L55120 37340
L55120 37190
L55140 37150
L55170 37120
L55220 37100
L55290 37100
L55330 37120
L55360 37150
L55380 37190
L55380 37340
L55360 37380
L55330 37410
L55290 37430
L55220 37430
" />
<path d="M55810 37410
L55760 37430
L55670 37430
L55620 37410
L55600 37380
L55570 37340
L55570 37190
L55600 37150
L55620 37120
L55670 37100
L55760 37100
L55810 37120
" />
<path d="M56220 37410
L56170 37430
L56070 37430
L56030 37410
L56000 37360
L56000 37170
L56030 37120
L56070 37100
L56170 37100
L56220 37120
L56240 37170
L56240 37220
L56000 37260
" />
<path d="M56430 37410
L56480 37430
L56570 37430
L56620 37410
L56640 37360
L56640 37340
L56620 37290
L56570 37260
L56500 37260
L56450 37240
L56430 37190
L56430 37170
L56450 37120
L56500 37100
L56570 37100
L56620 37120
" />
<path d="M56830 37410
L56880 37430
L56980 37430
L57030 37410
L57050 37360
L57050 37340
L57030 37290
L56980 37260
L56910 37260
L56860 37240
L56830 37190
L56830 37170
L56860 37120
L56910 37100
L56980 37100
L57030 37120
" />
<path d="M57330 37430
L57290 37410
L57260 37380
L57240 37340
L57240 37190
L57260 37150
L57290 37120
L57330 37100
L57410 37100
L57450 37120
L57480 37150
L57500 37190
L57500 37340
L57480 37380
L57450 37410
L57410 37430
L57330 37430
" />
<path d="M57720 37430
L57720 37100
" />
<path d="M57720 37190
L57740 37150
L57760 37120
L57810 37100
L57860 37100
" />
</g>
<g style="fill:#848400; fill-opacity:0.0; 
stroke:#848400; stroke-width:60; stroke-opacity:1; 
stroke-linecap:round; stroke-linejoin:round;">
</g>
<g style="fill:#000000; fill-opacity:0.0; 
stroke:#000000; stroke-width:60; stroke-opacity:1; 
stroke-linecap:round; stroke-linejoin:round;">
<text x="51500" y="45040"
textLength="7250" font-size="660" lengthAdjust="spacingAndGlyphs"
text-anchor="start" opacity="0">File: Processor.sch</text>
<path d="M51810 44750
L51640 44750
" />
<path d="M51640 45010
L51640 44510
L51880 44510
" />
<path d="M52070 45010
L52070 44680
" />
<path d="M52070 44510
L52050 44540
L52070 44560
L52100 44540
L52070 44510
L52070 44560
" />
<path d="M52380 45010
L52330 44990
L52310 44940
L52310 44510
" />
<path d="M52760 44990
L52720 45010
L52620 45010
L52570 44990
L52550 44940
L52550 44750
L52570 44700
L52620 44680
L52720 44680
L52760 44700
L52790 44750
L52790 44800
L52550 44840
" />
<path d="M53000 44960
L53030 44990
L53000 45010
L52980 44990
L53000 44960
L53000 45010
" />
<path d="M53000 44700
L53030 44730
L53000 44750
L52980 44730
L53000 44700
L53000 44750
" />
<path d="M53620 45010
L53620 44510
L53810 44510
L53860 44540
L53880 44560
L53910 44610
L53910 44680
L53880 44730
L53860 44750
L53810 44770
L53620 44770
" />
<path d="M54120 45010
L54120 44680
" />
<path d="M54120 44770
L54140 44730
L54170 44700
L54220 44680
L54260 44680
" />
<path d="M54500 45010
L54450 44990
L54430 44960
L54410 44920
L54410 44770
L54430 44730
L54450 44700
L54500 44680
L54570 44680
L54620 44700
L54640 44730
L54670 44770
L54670 44920
L54640 44960
L54620 44990
L54570 45010
L54500 45010
" />
<path d="M55100 44990
L55050 45010
L54950 45010
L54910 44990
L54880 44960
L54860 44920
L54860 44770
L54880 44730
L54910 44700
L54950 44680
L55050 44680
L55100 44700
" />
<path d="M55500 44990
L55450 45010
L55360 45010
L55310 44990
L55290 44940
L55290 44750
L55310 44700
L55360 44680
L55450 44680
L55500 44700
L55530 44750
L55530 44800
L55290 44840
" />
<path d="M55720 44990
L55760 45010
L55860 45010
L55910 44990
L55930 44940
L55930 44920
L55910 44870
L55860 44840
L55790 44840
L55740 44820
L55720 44770
L55720 44750
L55740 44700
L55790 44680
L55860 44680
L55910 44700
" />
<path d="M56120 44990
L56170 45010
L56260 45010
L56310 44990
L56330 44940
L56330 44920
L56310 44870
L56260 44840
L56190 44840
L56140 44820
L56120 44770
L56120 44750
L56140 44700
L56190 44680
L56260 44680
L56310 44700
" />
<path d="M56620 45010
L56570 44990
L56550 44960
L56530 44920
L56530 44770
L56550 44730
L56570 44700
L56620 44680
L56690 44680
L56740 44700
L56760 44730
L56790 44770
L56790 44920
L56760 44960
L56740 44990
L56690 45010
L56620 45010
" />
<path d="M57000 45010
L57000 44680
" />
<path d="M57000 44770
L57030 44730
L57050 44700
L57100 44680
L57140 44680
" />
<path d="M57310 44960
L57330 44990
L57310 45010
L57290 44990
L57310 44960
L57310 45010
" />
<path d="M57530 44990
L57570 45010
L57670 45010
L57720 44990
L57740 44940
L57740 44920
L57720 44870
L57670 44840
L57600 44840
L57550 44820
L57530 44770
L57530 44750
L57550 44700
L57600 44680
L57670 44680
L57720 44700
" />
<path d="M58170 44990
L58120 45010
L58030 45010
L57980 44990
L57950 44960
L57930 44920
L57930 44770
L57950 44730
L57980 44700
L58030 44680
L58120 44680
L58170 44700
" />
<path d="M58380 45010
L58380 44510
" />
<path d="M58600 45010
L58600 44750
L58570 44700
L58530 44680
L58450 44680
L58410 44700
L58380 44730
" />
</g>
<g style="fill:#840084; fill-opacity:0.0; 
stroke:#840084; stroke-width:60; stroke-opacity:1; 
stroke-linecap:round; stroke-linejoin:round;">
<path d="M42500 37500
L50500 37500
L50500 44500
L42500 44500
L42500 37500
" />
</g>
<g style="fill:#008484; fill-opacity:0.0; 
stroke:#008484; stroke-width:60; stroke-opacity:1; 
stroke-linecap:round; stroke-linejoin:round;">
</g>
<g style="fill:#000000; fill-opacity:0.0; 
stroke:#000000; stroke-width:60; stroke-opacity:1; 
stroke-linecap:round; stroke-linejoin:round;">
<text x="42500" y="37460"
textLength="7440" font-size="660" lengthAdjust="spacingAndGlyphs"
text-anchor="start" opacity="0">Sheet: PowerSupply</text>
<path d="M42620 37410
L42690 37430
L42810 37430
L42860 37410
L42880 37380
L42910 37340
L42910 37290
L42880 37240
L42860 37220
L42810 37190
L42720 37170
L42670 37150
L42640 37120
L42620 37070
L42620 37030
L42640 36980
L42670 36960
L42720 36930
L42830 36930
L42910 36960
" />
<path d="M43120 37430
L43120 36930
" />
<path d="M43330 37430
L43330 37170
L43310 37120
L43260 37100
L43190 37100
L43140 37120
L43120 37150
" />
<path d="M43760 37410
L43720 37430
L43620 37430
L43570 37410
L43550 37360
L43550 37170
L43570 37120
L43620 37100
L43720 37100
L43760 37120
L43790 37170
L43790 37220
L43550 37260
" />
<path d="M44190 37410
L44140 37430
L44050 37430
L44000 37410
L43980 37360
L43980 37170
L44000 37120
L44050 37100
L44140 37100
L44190 37120
L44220 37170
L44220 37220
L43980 37260
" />
<path d="M44360 37100
L44550 37100
" />
<path d="M44430 36930
L44430 37360
L44450 37410
L44500 37430
L44550 37430
" />
<path d="M44720 37380
L44740 37410
L44720 37430
L44690 37410
L44720 37380
L44720 37430
" />
<path d="M44720 37120
L44740 37150
L44720 37170
L44690 37150
L44720 37120
L44720 37170
" />
<path d="M45330 37430
L45330 36930
L45530 36930
L45570 36960
L45600 36980
L45620 37030
L45620 37100
L45600 37150
L45570 37170
L45530 37190
L45330 37190
" />
<path d="M45910 37430
L45860 37410
L45830 37380
L45810 37340
L45810 37190
L45830 37150
L45860 37120
L45910 37100
L45980 37100
L46030 37120
L46050 37150
L46070 37190
L46070 37340
L46050 37380
L46030 37410
L45980 37430
L45910 37430
" />
<path d="M46240 37100
L46330 37430
L46430 37190
L46530 37430
L46620 37100
" />
<path d="M47000 37410
L46950 37430
L46860 37430
L46810 37410
L46790 37360
L46790 37170
L46810 37120
L46860 37100
L46950 37100
L47000 37120
L47030 37170
L47030 37220
L46790 37260
" />
<path d="M47240 37430
L47240 37100
" />
<path d="M47240 37190
L47260 37150
L47290 37120
L47330 37100
L47380 37100
" />
<path d="M47530 37410
L47600 37430
L47720 37430
L47760 37410
L47790 37380
L47810 37340
L47810 37290
L47790 37240
L47760 37220
L47720 37190
L47620 37170
L47570 37150
L47550 37120
L47530 37070
L47530 37030
L47550 36980
L47570 36960
L47620 36930
L47740 36930
L47810 36960
" />
<path d="M48240 37100
L48240 37430
" />
<path d="M48030 37100
L48030 37360
L48050 37410
L48100 37430
L48170 37430
L48220 37410
L48240 37380
" />
<path d="M48480 37100
L48480 37600
" />
<path d="M48480 37120
L48530 37100
L48620 37100
L48670 37120
L48690 37150
L48720 37190
L48720 37340
L48690 37380
L48670 37410
L48620 37430
L48530 37430
L48480 37410
" />
<path d="M48930 37100
L48930 37600
" />
<path d="M48930 37120
L48980 37100
L49070 37100
L49120 37120
L49140 37150
L49170 37190
L49170 37340
L49140 37380
L49120 37410
L49070 37430
L48980 37430
L48930 37410
" />
<path d="M49450 37430
L49410 37410
L49380 37360
L49380 36930
" />
<path d="M49600 37100
L49720 37430
" />
<path d="M49830 37100
L49720 37430
L49670 37550
L49640 37570
L49600 37600
" />
</g>
<g style="fill:#848400; fill-opacity:0.0; 
stroke:#848400; stroke-width:60; stroke-opacity:1; 
stroke-linecap:round; stroke-linejoin:round;">
</g>
<g style="fill:#000000; fill-opacity:0.0; 
stroke:#000000; stroke-width:60; stroke-opacity:1; 
stroke-linecap:round; stroke-linejoin:round;">
<text x="42500" y="45040"
textLength="8250" font-size="660" lengthAdjust="spacingAndGlyphs"
text-anchor="start" opacity="0">File: PowerSupply.sch</text>
<path d="M42810 44750
L42640 44750
" />
<path d="M42640 45010
L42640 44510
L42880 44510
" />
<path d="M43070 45010
L43070 44680
" />
<path d="M43070 44510
L43050 44540
L43070 44560
L43100 44540
L43070 44510
L43070 44560
" />
<path d="M43380 45010
L43330 44990
L43310 44940
L43310 44510
" />
<path d="M43760 44990
L43720 45010
L43620 45010
L43570 44990
L43550 44940
L43550 44750
L43570 44700
L43620 44680
L43720 44680
L43760 44700
L43790 44750
L43790 44800
L43550 44840
" />
<path d="M44000 44960
L44030 44990
L44000 45010
L43980 44990
L44000 44960
L44000 45010
" />
<path d="M44000 44700
L44030 44730
L44000 44750
L43980 44730
L44000 44700
L44000 44750
" />
<path d="M44620 45010
L44620 44510
L44810 44510
L44860 44540
L44880 44560
L44910 44610
L44910 44680
L44880 44730
L44860 44750
L44810 44770
L44620 44770
" />
<path d="M45190 45010
L45140 44990
L45120 44960
L45100 44920
L45100 44770
L45120 44730
L45140 44700
L45190 44680
L45260 44680
L45310 44700
L45330 44730
L45360 44770
L45360 44920
L45330 44960
L45310 44990
L45260 45010
L45190 45010
" />
<path d="M45530 44680
L45620 45010
L45720 44770
L45810 45010
L45910 44680
" />
<path d="M46290 44990
L46240 45010
L46140 45010
L46100 44990
L46070 44940
L46070 44750
L46100 44700
L46140 44680
L46240 44680
L46290 44700
L46310 44750
L46310 44800
L46070 44840
" />
<path d="M46530 45010
L46530 44680
" />
<path d="M46530 44770
L46550 44730
L46570 44700
L46620 44680
L46670 44680
" />
<path d="M46810 44990
L46880 45010
L47000 45010
L47050 44990
L47070 44960
L47100 44920
L47100 44870
L47070 44820
L47050 44800
L47000 44770
L46910 44750
L46860 44730
L46830 44700
L46810 44650
L46810 44610
L46830 44560
L46860 44540
L46910 44510
L47030 44510
L47100 44540
" />
<path d="M47530 44680
L47530 45010
" />
<path d="M47310 44680
L47310 44940
L47330 44990
L47380 45010
L47450 45010
L47500 44990
L47530 44960
" />
<path d="M47760 44680
L47760 45180
" />
<path d="M47760 44700
L47810 44680
L47910 44680
L47950 44700
L47980 44730
L48000 44770
L48000 44920
L47980 44960
L47950 44990
L47910 45010
L47810 45010
L47760 44990
" />
<path d="M48220 44680
L48220 45180
" />
<path d="M48220 44700
L48260 44680
L48360 44680
L48410 44700
L48430 44730
L48450 44770
L48450 44920
L48430 44960
L48410 44990
L48360 45010
L48260 45010
L48220 44990
" />
<path d="M48740 45010
L48690 44990
L48670 44940
L48670 44510
" />
<path d="M48880 44680
L49000 45010
" />
<path d="M49120 44680
L49000 45010
L48950 45130
L48930 45150
L48880 45180
" />
<path d="M49310 44960
L49330 44990
L49310 45010
L49290 44990
L49310 44960
L49310 45010
" />
<path d="M49530 44990
L49570 45010
L49670 45010
L49720 44990
L49740 44940
L49740 44920
L49720 44870
L49670 44840
L49600 44840
L49550 44820
L49530 44770
L49530 44750
L49550 44700
L49600 44680
L49670 44680
L49720 44700
" />
<path d="M50170 44990
L50120 45010
L50030 45010
L49980 44990
L49950 44960
L49930 44920
L49930 44770
L49950 44730
L49980 44700
L50030 44680
L50120 44680
L50170 44700
" />
<path d="M50380 45010
L50380 44510
" />
<path d="M50600 45010
L50600 44750
L50570 44700
L50530 44680
L50450 44680
L50410 44700
L50380 44730
" />
</g>
<g style="fill:#840084; fill-opacity:0.0; 
stroke:#840084; stroke-width:60; stroke-opacity:1; 
stroke-linecap:round; stroke-linejoin:round;">
<path d="M60500 37500
L68500 37500
L68500 44500
L60500 44500
L60500 37500
" />
</g>
<g style="fill:#008484; fill-opacity:0.0; 
stroke:#008484; stroke-width:60; stroke-opacity:1; 
stroke-linecap:round; stroke-linejoin:round;">
</g>
<g style="fill:#000000; fill-opacity:0.0; 
stroke:#000000; stroke-width:60; stroke-opacity:1; 
stroke-linecap:round; stroke-linejoin:round;">
<text x="60500" y="37460"
textLength="5680" font-size="660" lengthAdjust="spacingAndGlyphs"
text-anchor="start" opacity="0">Sheet: Sensors</text>
<path d="M60620 37410
L60690 37430
L60810 37430
L60860 37410
L60880 37380
L60910 37340
L60910 37290
L60880 37240
L60860 37220
L60810 37190
L60720 37170
L60670 37150
L60640 37120
L60620 37070
L60620 37030
L60640 36980
L60670 36960
L60720 36930
L60830 36930
L60910 36960
" />
<path d="M61120 37430
L61120 36930
" />
<path d="M61330 37430
L61330 37170
L61310 37120
L61260 37100
L61190 37100
L61140 37120
L61120 37150
" />
<path d="M61760 37410
L61720 37430
L61620 37430
L61570 37410
L61550 37360
L61550 37170
L61570 37120
L61620 37100
L61720 37100
L61760 37120
L61790 37170
L61790 37220
L61550 37260
" />
<path d="M62190 37410
L62140 37430
L62050 37430
L62000 37410
L61980 37360
L61980 37170
L62000 37120
L62050 37100
L62140 37100
L62190 37120
L62220 37170
L62220 37220
L61980 37260
" />
<path d="M62360 37100
L62550 37100
" />
<path d="M62430 36930
L62430 37360
L62450 37410
L62500 37430
L62550 37430
" />
<path d="M62720 37380
L62740 37410
L62720 37430
L62690 37410
L62720 37380
L62720 37430
" />
<path d="M62720 37120
L62740 37150
L62720 37170
L62690 37150
L62720 37120
L62720 37170
" />
<path d="M63310 37410
L63380 37430
L63500 37430
L63550 37410
L63570 37380
L63600 37340
L63600 37290
L63570 37240
L63550 37220
L63500 37190
L63410 37170
L63360 37150
L63330 37120
L63310 37070
L63310 37030
L63330 36980
L63360 36960
L63410 36930
L63530 36930
L63600 36960
" />
<path d="M64000 37410
L63950 37430
L63860 37430
L63810 37410
L63790 37360
L63790 37170
L63810 37120
L63860 37100
L63950 37100
L64000 37120
L64030 37170
L64030 37220
L63790 37260
" />
<path d="M64240 37100
L64240 37430
" />
<path d="M64240 37150
L64260 37120
L64310 37100
L64380 37100
L64430 37120
L64450 37170
L64450 37430
" />
<path d="M64670 37410
L64720 37430
L64810 37430
L64860 37410
L64880 37360
L64880 37340
L64860 37290
L64810 37260
L64740 37260
L64690 37240
L64670 37190
L64670 37170
L64690 37120
L64740 37100
L64810 37100
L64860 37120
" />
<path d="M65170 37430
L65120 37410
L65100 37380
L65070 37340
L65070 37190
L65100 37150
L65120 37120
L65170 37100
L65240 37100
L65290 37120
L65310 37150
L65330 37190
L65330 37340
L65310 37380
L65290 37410
L65240 37430
L65170 37430
" />
<path d="M65550 37430
L65550 37100
" />
<path d="M65550 37190
L65570 37150
L65600 37120
L65640 37100
L65690 37100
" />
<path d="M65830 37410
L65880 37430
L65980 37430
L66030 37410
L66050 37360
L66050 37340
L66030 37290
L65980 37260
L65910 37260
L65860 37240
L65830 37190
L65830 37170
L65860 37120
L65910 37100
L65980 37100
L66030 37120
" />
</g>
<g style="fill:#848400; fill-opacity:0.0; 
stroke:#848400; stroke-width:60; stroke-opacity:1; 
stroke-linecap:round; stroke-linejoin:round;">
</g>
<g style="fill:#000000; fill-opacity:0.0; 
stroke:#000000; stroke-width:60; stroke-opacity:1; 
stroke-linecap:round; stroke-linejoin:round;">
<text x="60500" y="45040"
textLength="6490" font-size="660" lengthAdjust="spacingAndGlyphs"
text-anchor="start" opacity="0">File: Sensors.sch</text>
<path d="M60810 44750
L60640 44750
" />
<path d="M60640 45010
L60640 44510
L60880 44510
" />
<path d="M61070 45010
L61070 44680
" />
<path d="M61070 44510
L61050 44540
L61070 44560
L61100 44540
L61070 44510
L61070 44560
" />
<path d="M61380 45010
L61330 44990
L61310 44940
L61310 44510
" />
<path d="M61760 44990
L61720 45010
L61620 45010
L61570 44990
L61550 44940
L61550 44750
L61570 44700
L61620 44680
L61720 44680
L61760 44700
L61790 44750
L61790 44800
L61550 44840
" />
<path d="M62000 44960
L62030 44990
L62000 45010
L61980 44990
L62000 44960
L62000 45010
" />
<path d="M62000 44700
L62030 44730
L62000 44750
L61980 44730
L62000 44700
L62000 44750
" />
<path d="M62600 44990
L62670 45010
L62790 45010
L62830 44990
L62860 44960
L62880 44920
L62880 44870
L62860 44820
L62830 44800
L62790 44770
L62690 44750
L62640 44730
L62620 44700
L62600 44650
L62600 44610
L62620 44560
L62640 44540
L62690 44510
L62810 44510
L62880 44540
" />
<path d="M63290 44990
L63240 45010
L63140 45010
L63100 44990
L63070 44940
L63070 44750
L63100 44700
L63140 44680
L63240 44680
L63290 44700
L63310 44750
L63310 44800
L63070 44840
" />
<path d="M63530 44680
L63530 45010
" />
<path d="M63530 44730
L63550 44700
L63600 44680
L63670 44680
L63720 44700
L63740 44750
L63740 45010
" />
<path d="M63950 44990
L64000 45010
L64100 45010
L64140 44990
L64170 44940
L64170 44920
L64140 44870
L64100 44840
L64030 44840
L63980 44820
L63950 44770
L63950 44750
L63980 44700
L64030 44680
L64100 44680
L64140 44700
" />
<path d="M64450 45010
L64410 44990
L64380 44960
L64360 44920
L64360 44770
L64380 44730
L64410 44700
L64450 44680
L64530 44680
L64570 44700
L64600 44730
L64620 44770
L64620 44920
L64600 44960
L64570 44990
L64530 45010
L64450 45010
" />
<path d="M64830 45010
L64830 44680
" />
<path d="M64830 44770
L64860 44730
L64880 44700
L64930 44680
L64980 44680
" />
<path d="M65120 44990
L65170 45010
L65260 45010
L65310 44990
L65330 44940
L65330 44920
L65310 44870
L65260 44840
L65190 44840
L65140 44820
L65120 44770
L65120 44750
L65140 44700
L65190 44680
L65260 44680
L65310 44700
" />
<path d="M65550 44960
L65570 44990
L65550 45010
L65530 44990
L65550 44960
L65550 45010
" />
<path d="M65760 44990
L65810 45010
L65910 45010
L65950 44990
L65980 44940
L65980 44920
L65950 44870
L65910 44840
L65830 44840
L65790 44820
L65760 44770
L65760 44750
L65790 44700
L65830 44680
L65910 44680
L65950 44700
" />
<path d="M66410 44990
L66360 45010
L66260 45010
L66220 44990
L66190 44960
L66170 44920
L66170 44770
L66190 44730
L66220 44700
L66260 44680
L66360 44680
L66410 44700
" />
<path d="M66620 45010
L66620 44510
" />
<path d="M66830 45010
L66830 44750
L66810 44700
L66760 44680
L66690 44680
L66640 44700
L66620 44730
" />
</g>
<g style="fill:#840084; fill-opacity:0.0; 
stroke:#840084; stroke-width:60; stroke-opacity:1; 
stroke-linecap:round; stroke-linejoin:round;">
</g> 
</svg>
