%TF.GenerationSoftware,KiCad,Pcbnew,(5.1.7)-1*%
%TF.CreationDate,2021-01-20T17:17:38-05:00*%
%TF.ProjectId,SYSC4907_REV2,53595343-3439-4303-975f-524556322e6b,rev?*%
%TF.SameCoordinates,Original*%
%TF.FileFunction,Legend,Bot*%
%TF.FilePolarity,Positive*%
%FSLAX46Y46*%
G04 Gerber Fmt 4.6, Leading zero omitted, Abs format (unit mm)*
G04 Created by KiCad (PCBNEW (5.1.7)-1) date 2021-01-20 17:17:38*
%MOMM*%
%LPD*%
G01*
G04 APERTURE LIST*
%ADD10C,0.120000*%
%ADD11C,0.152400*%
%ADD12C,0.100000*%
%ADD13C,0.150000*%
G04 APERTURE END LIST*
D10*
X102000000Y-105000000D02*
X102000000Y-117000000D01*
X102000000Y-140000000D02*
X102000000Y-128000000D01*
X70193000Y-119859000D02*
X72860000Y-119605000D01*
X70193000Y-115795000D02*
X72860000Y-116049000D01*
X70193000Y-119859000D02*
X70193000Y-115795000D01*
X59652000Y-119859000D02*
X70193000Y-119859000D01*
X59652000Y-115795000D02*
X59652000Y-119859000D01*
X59779000Y-115795000D02*
X59652000Y-115795000D01*
X70193000Y-115795000D02*
X59779000Y-115795000D01*
X72860000Y-116049000D02*
X85306000Y-116049000D01*
X72860000Y-119605000D02*
X72860000Y-116049000D01*
X85306000Y-119605000D02*
X72860000Y-119605000D01*
X85306000Y-116049000D02*
X85306000Y-119605000D01*
%TO.C,C201*%
X89749000Y-122672267D02*
X89749000Y-122379733D01*
X90769000Y-122672267D02*
X90769000Y-122379733D01*
%TO.C,C401*%
X86701000Y-134356267D02*
X86701000Y-134063733D01*
X87721000Y-134356267D02*
X87721000Y-134063733D01*
%TO.C,C402*%
X74763000Y-117973267D02*
X74763000Y-117680733D01*
X75783000Y-117973267D02*
X75783000Y-117680733D01*
%TO.C,C403*%
X83403000Y-117680733D02*
X83403000Y-117973267D01*
X82383000Y-117680733D02*
X82383000Y-117973267D01*
%TO.C,C404*%
X74259000Y-117973267D02*
X74259000Y-117680733D01*
X73239000Y-117973267D02*
X73239000Y-117680733D01*
%TO.C,C405*%
X83907000Y-117680733D02*
X83907000Y-117973267D01*
X84927000Y-117680733D02*
X84927000Y-117973267D01*
%TO.C,C407*%
X81113000Y-134063733D02*
X81113000Y-134356267D01*
X82133000Y-134063733D02*
X82133000Y-134356267D01*
%TO.C,C408*%
X87594000Y-128475733D02*
X87594000Y-128768267D01*
X86574000Y-128475733D02*
X86574000Y-128768267D01*
%TO.C,C410*%
X79335000Y-117973267D02*
X79335000Y-117680733D01*
X80355000Y-117973267D02*
X80355000Y-117680733D01*
%TO.C,C411*%
X82260000Y-128475733D02*
X82260000Y-128768267D01*
X81240000Y-128475733D02*
X81240000Y-128768267D01*
%TO.C,C412*%
X81879000Y-117973267D02*
X81879000Y-117680733D01*
X80859000Y-117973267D02*
X80859000Y-117680733D01*
%TO.C,C413*%
X78831000Y-117973267D02*
X78831000Y-117680733D01*
X77811000Y-117973267D02*
X77811000Y-117680733D01*
%TO.C,C414*%
X84563267Y-131926000D02*
X84270733Y-131926000D01*
X84563267Y-130906000D02*
X84270733Y-130906000D01*
%TO.C,C419*%
X66529267Y-132053000D02*
X66236733Y-132053000D01*
X66529267Y-131033000D02*
X66236733Y-131033000D01*
%TO.C,C420*%
X66529267Y-137383000D02*
X66236733Y-137383000D01*
X66529267Y-138403000D02*
X66236733Y-138403000D01*
%TO.C,C421*%
X63083000Y-134571733D02*
X63083000Y-134864267D01*
X62063000Y-134571733D02*
X62063000Y-134864267D01*
%TO.C,J203*%
X70075000Y-121485000D02*
X71995000Y-121485000D01*
X71995000Y-121485000D02*
X71995000Y-107475000D01*
X58475000Y-121485000D02*
X58025000Y-121485000D01*
X58025000Y-121485000D02*
X58025000Y-117875000D01*
X70315000Y-105215000D02*
X68005000Y-105215000D01*
X59055000Y-105215000D02*
X60915000Y-105215000D01*
X59055000Y-105215000D02*
X58855000Y-105415000D01*
X58025000Y-116175000D02*
X58025000Y-111475000D01*
X58025000Y-110175000D02*
X58025000Y-108375000D01*
X61125000Y-105565000D02*
X67495000Y-105565000D01*
X61125000Y-105565000D02*
X61125000Y-105415000D01*
X60915000Y-105215000D02*
X61125000Y-105415000D01*
X70315000Y-105215000D02*
X70515000Y-105415000D01*
X70515000Y-105415000D02*
X70775000Y-105415000D01*
X68005000Y-105215000D02*
X67495000Y-105565000D01*
%TO.C,JP201*%
X90256000Y-115144000D02*
X93056000Y-115144000D01*
X93056000Y-115144000D02*
X93056000Y-113144000D01*
X93056000Y-113144000D02*
X90256000Y-113144000D01*
X90256000Y-113144000D02*
X90256000Y-115144000D01*
%TO.C,JP202*%
X90256000Y-110223000D02*
X90256000Y-112223000D01*
X93056000Y-110223000D02*
X90256000Y-110223000D01*
X93056000Y-112223000D02*
X93056000Y-110223000D01*
X90256000Y-112223000D02*
X93056000Y-112223000D01*
%TO.C,JP203*%
X70825000Y-129654000D02*
X70825000Y-131654000D01*
X73625000Y-129654000D02*
X70825000Y-129654000D01*
X73625000Y-131654000D02*
X73625000Y-129654000D01*
X70825000Y-131654000D02*
X73625000Y-131654000D01*
%TO.C,JP204*%
X70825000Y-134321000D02*
X73625000Y-134321000D01*
X73625000Y-134321000D02*
X73625000Y-132321000D01*
X73625000Y-132321000D02*
X70825000Y-132321000D01*
X70825000Y-132321000D02*
X70825000Y-134321000D01*
%TO.C,JP205*%
X70825000Y-134988000D02*
X70825000Y-136988000D01*
X73625000Y-134988000D02*
X70825000Y-134988000D01*
X73625000Y-136988000D02*
X73625000Y-134988000D01*
X70825000Y-136988000D02*
X73625000Y-136988000D01*
%TO.C,JP206*%
X70840000Y-126987000D02*
X70840000Y-128987000D01*
X73640000Y-126987000D02*
X70840000Y-126987000D01*
X73640000Y-128987000D02*
X73640000Y-126987000D01*
X70840000Y-128987000D02*
X73640000Y-128987000D01*
%TO.C,JP207*%
X70825000Y-139655000D02*
X73625000Y-139655000D01*
X73625000Y-139655000D02*
X73625000Y-137655000D01*
X73625000Y-137655000D02*
X70825000Y-137655000D01*
X70825000Y-137655000D02*
X70825000Y-139655000D01*
%TO.C,JP208*%
X101673000Y-132181000D02*
X101673000Y-129381000D01*
X101673000Y-129381000D02*
X99673000Y-129381000D01*
X99673000Y-129381000D02*
X99673000Y-132181000D01*
X99673000Y-132181000D02*
X101673000Y-132181000D01*
%TO.C,JP209*%
X97006000Y-132181000D02*
X99006000Y-132181000D01*
X97006000Y-129381000D02*
X97006000Y-132181000D01*
X99006000Y-129381000D02*
X97006000Y-129381000D01*
X99006000Y-132181000D02*
X99006000Y-129381000D01*
%TO.C,JP210*%
X77562000Y-113398000D02*
X74762000Y-113398000D01*
X74762000Y-113398000D02*
X74762000Y-115398000D01*
X74762000Y-115398000D02*
X77562000Y-115398000D01*
X77562000Y-115398000D02*
X77562000Y-113398000D01*
%TO.C,JP211*%
X77562000Y-112731000D02*
X77562000Y-110731000D01*
X74762000Y-112731000D02*
X77562000Y-112731000D01*
X74762000Y-110731000D02*
X74762000Y-112731000D01*
X77562000Y-110731000D02*
X74762000Y-110731000D01*
%TO.C,JP212*%
X77562000Y-108064000D02*
X74762000Y-108064000D01*
X74762000Y-108064000D02*
X74762000Y-110064000D01*
X74762000Y-110064000D02*
X77562000Y-110064000D01*
X77562000Y-110064000D02*
X77562000Y-108064000D01*
%TO.C,JP213*%
X77562000Y-105397000D02*
X74762000Y-105397000D01*
X74762000Y-105397000D02*
X74762000Y-107397000D01*
X74762000Y-107397000D02*
X77562000Y-107397000D01*
X77562000Y-107397000D02*
X77562000Y-105397000D01*
%TO.C,R201*%
X87972276Y-115174500D02*
X88481724Y-115174500D01*
X87972276Y-114129500D02*
X88481724Y-114129500D01*
%TO.C,R202*%
X87972276Y-112253500D02*
X88481724Y-112253500D01*
X87972276Y-111208500D02*
X88481724Y-111208500D01*
%TO.C,R203*%
X54572724Y-120254500D02*
X54063276Y-120254500D01*
X54572724Y-119209500D02*
X54063276Y-119209500D01*
%TO.C,R401*%
X79845724Y-124924500D02*
X79336276Y-124924500D01*
X79845724Y-125969500D02*
X79336276Y-125969500D01*
%TO.C,R402*%
X77319500Y-118081724D02*
X77319500Y-117572276D01*
X76274500Y-118081724D02*
X76274500Y-117572276D01*
D11*
%TO.C,U202*%
X91113300Y-127986400D02*
X91113300Y-117013600D01*
X91113300Y-117013600D02*
X106886700Y-117013600D01*
X106886700Y-117013600D02*
X106886700Y-127986400D01*
X106886700Y-127986400D02*
X91113300Y-127986400D01*
X91641998Y-126540500D02*
X91387998Y-126540500D01*
X91387998Y-126540500D02*
X91387998Y-126159500D01*
X91387998Y-126159500D02*
X91641998Y-126159500D01*
X91641998Y-126159500D02*
X91641998Y-126540500D01*
X96990499Y-117338001D02*
X96609499Y-117338001D01*
X96609499Y-117338001D02*
X96609499Y-117592001D01*
X96609499Y-117592001D02*
X96990499Y-117592001D01*
X96990499Y-117592001D02*
X96990499Y-117338001D01*
X106358002Y-122140501D02*
X106612002Y-122140501D01*
X106612002Y-122140501D02*
X106612002Y-121759501D01*
X106612002Y-121759501D02*
X106358002Y-121759501D01*
X106358002Y-121759501D02*
X106358002Y-122140501D01*
D10*
%TO.C,U203*%
X57944000Y-128368000D02*
X57944000Y-131968000D01*
X57944000Y-128368000D02*
X57944000Y-126168000D01*
X52724000Y-128368000D02*
X52724000Y-130568000D01*
X52724000Y-128368000D02*
X52724000Y-126168000D01*
%TO.C,U401*%
X82807000Y-135110000D02*
X82807000Y-132660000D01*
X86027000Y-133310000D02*
X86027000Y-135110000D01*
%TO.C,U403*%
X86027000Y-127722000D02*
X86027000Y-130172000D01*
X82807000Y-129522000D02*
X82807000Y-127722000D01*
D12*
%TO.C,U404*%
G36*
X86802000Y-122119000D02*
G01*
X86167000Y-122119000D01*
X86167000Y-122881000D01*
X86802000Y-122881000D01*
X86802000Y-122119000D01*
G37*
X86802000Y-122119000D02*
X86167000Y-122119000D01*
X86167000Y-122881000D01*
X86802000Y-122881000D01*
X86802000Y-122119000D01*
D10*
X86200000Y-122500000D02*
G75*
G03*
X86200000Y-122500000I-2700000J0D01*
G01*
%TO.C,U406*%
X67993000Y-136102000D02*
X67993000Y-136352000D01*
X64773000Y-133132000D02*
X65023000Y-133132000D01*
X64773000Y-133382000D02*
X64773000Y-133132000D01*
X64773000Y-136352000D02*
X65023000Y-136352000D01*
X64773000Y-136102000D02*
X64773000Y-136352000D01*
X67993000Y-133132000D02*
X67743000Y-133132000D01*
X67993000Y-133382000D02*
X67993000Y-133132000D01*
%TO.C,C202*%
X52161000Y-126062733D02*
X52161000Y-126355267D01*
X51141000Y-126062733D02*
X51141000Y-126355267D01*
%TO.C,C203*%
X51141000Y-130380733D02*
X51141000Y-130673267D01*
X52161000Y-130380733D02*
X52161000Y-130673267D01*
%TO.C,C201*%
D13*
X90616142Y-117977952D02*
X90663761Y-117930333D01*
X90711380Y-117787476D01*
X90711380Y-117692238D01*
X90663761Y-117549380D01*
X90568523Y-117454142D01*
X90473285Y-117406523D01*
X90282809Y-117358904D01*
X90139952Y-117358904D01*
X89949476Y-117406523D01*
X89854238Y-117454142D01*
X89759000Y-117549380D01*
X89711380Y-117692238D01*
X89711380Y-117787476D01*
X89759000Y-117930333D01*
X89806619Y-117977952D01*
X89806619Y-118358904D02*
X89759000Y-118406523D01*
X89711380Y-118501761D01*
X89711380Y-118739857D01*
X89759000Y-118835095D01*
X89806619Y-118882714D01*
X89901857Y-118930333D01*
X89997095Y-118930333D01*
X90139952Y-118882714D01*
X90711380Y-118311285D01*
X90711380Y-118930333D01*
X89711380Y-119549380D02*
X89711380Y-119644619D01*
X89759000Y-119739857D01*
X89806619Y-119787476D01*
X89901857Y-119835095D01*
X90092333Y-119882714D01*
X90330428Y-119882714D01*
X90520904Y-119835095D01*
X90616142Y-119787476D01*
X90663761Y-119739857D01*
X90711380Y-119644619D01*
X90711380Y-119549380D01*
X90663761Y-119454142D01*
X90616142Y-119406523D01*
X90520904Y-119358904D01*
X90330428Y-119311285D01*
X90092333Y-119311285D01*
X89901857Y-119358904D01*
X89806619Y-119406523D01*
X89759000Y-119454142D01*
X89711380Y-119549380D01*
X90711380Y-120835095D02*
X90711380Y-120263666D01*
X90711380Y-120549380D02*
X89711380Y-120549380D01*
X89854238Y-120454142D01*
X89949476Y-120358904D01*
X89997095Y-120263666D01*
%TO.C,C401*%
X88998142Y-133090952D02*
X89045761Y-133043333D01*
X89093380Y-132900476D01*
X89093380Y-132805238D01*
X89045761Y-132662380D01*
X88950523Y-132567142D01*
X88855285Y-132519523D01*
X88664809Y-132471904D01*
X88521952Y-132471904D01*
X88331476Y-132519523D01*
X88236238Y-132567142D01*
X88141000Y-132662380D01*
X88093380Y-132805238D01*
X88093380Y-132900476D01*
X88141000Y-133043333D01*
X88188619Y-133090952D01*
X88426714Y-133948095D02*
X89093380Y-133948095D01*
X88045761Y-133710000D02*
X88760047Y-133471904D01*
X88760047Y-134090952D01*
X88093380Y-134662380D02*
X88093380Y-134757619D01*
X88141000Y-134852857D01*
X88188619Y-134900476D01*
X88283857Y-134948095D01*
X88474333Y-134995714D01*
X88712428Y-134995714D01*
X88902904Y-134948095D01*
X88998142Y-134900476D01*
X89045761Y-134852857D01*
X89093380Y-134757619D01*
X89093380Y-134662380D01*
X89045761Y-134567142D01*
X88998142Y-134519523D01*
X88902904Y-134471904D01*
X88712428Y-134424285D01*
X88474333Y-134424285D01*
X88283857Y-134471904D01*
X88188619Y-134519523D01*
X88141000Y-134567142D01*
X88093380Y-134662380D01*
X89093380Y-135948095D02*
X89093380Y-135376666D01*
X89093380Y-135662380D02*
X88093380Y-135662380D01*
X88236238Y-135567142D01*
X88331476Y-135471904D01*
X88379095Y-135376666D01*
%TO.C,C402*%
X62168142Y-116707952D02*
X62215761Y-116660333D01*
X62263380Y-116517476D01*
X62263380Y-116422238D01*
X62215761Y-116279380D01*
X62120523Y-116184142D01*
X62025285Y-116136523D01*
X61834809Y-116088904D01*
X61691952Y-116088904D01*
X61501476Y-116136523D01*
X61406238Y-116184142D01*
X61311000Y-116279380D01*
X61263380Y-116422238D01*
X61263380Y-116517476D01*
X61311000Y-116660333D01*
X61358619Y-116707952D01*
X61596714Y-117565095D02*
X62263380Y-117565095D01*
X61215761Y-117327000D02*
X61930047Y-117088904D01*
X61930047Y-117707952D01*
X61263380Y-118279380D02*
X61263380Y-118374619D01*
X61311000Y-118469857D01*
X61358619Y-118517476D01*
X61453857Y-118565095D01*
X61644333Y-118612714D01*
X61882428Y-118612714D01*
X62072904Y-118565095D01*
X62168142Y-118517476D01*
X62215761Y-118469857D01*
X62263380Y-118374619D01*
X62263380Y-118279380D01*
X62215761Y-118184142D01*
X62168142Y-118136523D01*
X62072904Y-118088904D01*
X61882428Y-118041285D01*
X61644333Y-118041285D01*
X61453857Y-118088904D01*
X61358619Y-118136523D01*
X61311000Y-118184142D01*
X61263380Y-118279380D01*
X61358619Y-118993666D02*
X61311000Y-119041285D01*
X61263380Y-119136523D01*
X61263380Y-119374619D01*
X61311000Y-119469857D01*
X61358619Y-119517476D01*
X61453857Y-119565095D01*
X61549095Y-119565095D01*
X61691952Y-119517476D01*
X62263380Y-118946047D01*
X62263380Y-119565095D01*
%TO.C,C403*%
X68518142Y-116707952D02*
X68565761Y-116660333D01*
X68613380Y-116517476D01*
X68613380Y-116422238D01*
X68565761Y-116279380D01*
X68470523Y-116184142D01*
X68375285Y-116136523D01*
X68184809Y-116088904D01*
X68041952Y-116088904D01*
X67851476Y-116136523D01*
X67756238Y-116184142D01*
X67661000Y-116279380D01*
X67613380Y-116422238D01*
X67613380Y-116517476D01*
X67661000Y-116660333D01*
X67708619Y-116707952D01*
X67946714Y-117565095D02*
X68613380Y-117565095D01*
X67565761Y-117327000D02*
X68280047Y-117088904D01*
X68280047Y-117707952D01*
X67613380Y-118279380D02*
X67613380Y-118374619D01*
X67661000Y-118469857D01*
X67708619Y-118517476D01*
X67803857Y-118565095D01*
X67994333Y-118612714D01*
X68232428Y-118612714D01*
X68422904Y-118565095D01*
X68518142Y-118517476D01*
X68565761Y-118469857D01*
X68613380Y-118374619D01*
X68613380Y-118279380D01*
X68565761Y-118184142D01*
X68518142Y-118136523D01*
X68422904Y-118088904D01*
X68232428Y-118041285D01*
X67994333Y-118041285D01*
X67803857Y-118088904D01*
X67708619Y-118136523D01*
X67661000Y-118184142D01*
X67613380Y-118279380D01*
X67613380Y-118946047D02*
X67613380Y-119565095D01*
X67994333Y-119231761D01*
X67994333Y-119374619D01*
X68041952Y-119469857D01*
X68089571Y-119517476D01*
X68184809Y-119565095D01*
X68422904Y-119565095D01*
X68518142Y-119517476D01*
X68565761Y-119469857D01*
X68613380Y-119374619D01*
X68613380Y-119088904D01*
X68565761Y-118993666D01*
X68518142Y-118946047D01*
%TO.C,C404*%
X60898142Y-116707952D02*
X60945761Y-116660333D01*
X60993380Y-116517476D01*
X60993380Y-116422238D01*
X60945761Y-116279380D01*
X60850523Y-116184142D01*
X60755285Y-116136523D01*
X60564809Y-116088904D01*
X60421952Y-116088904D01*
X60231476Y-116136523D01*
X60136238Y-116184142D01*
X60041000Y-116279380D01*
X59993380Y-116422238D01*
X59993380Y-116517476D01*
X60041000Y-116660333D01*
X60088619Y-116707952D01*
X60326714Y-117565095D02*
X60993380Y-117565095D01*
X59945761Y-117327000D02*
X60660047Y-117088904D01*
X60660047Y-117707952D01*
X59993380Y-118279380D02*
X59993380Y-118374619D01*
X60041000Y-118469857D01*
X60088619Y-118517476D01*
X60183857Y-118565095D01*
X60374333Y-118612714D01*
X60612428Y-118612714D01*
X60802904Y-118565095D01*
X60898142Y-118517476D01*
X60945761Y-118469857D01*
X60993380Y-118374619D01*
X60993380Y-118279380D01*
X60945761Y-118184142D01*
X60898142Y-118136523D01*
X60802904Y-118088904D01*
X60612428Y-118041285D01*
X60374333Y-118041285D01*
X60183857Y-118088904D01*
X60088619Y-118136523D01*
X60041000Y-118184142D01*
X59993380Y-118279380D01*
X60326714Y-119469857D02*
X60993380Y-119469857D01*
X59945761Y-119231761D02*
X60660047Y-118993666D01*
X60660047Y-119612714D01*
%TO.C,C405*%
X69788142Y-116707952D02*
X69835761Y-116660333D01*
X69883380Y-116517476D01*
X69883380Y-116422238D01*
X69835761Y-116279380D01*
X69740523Y-116184142D01*
X69645285Y-116136523D01*
X69454809Y-116088904D01*
X69311952Y-116088904D01*
X69121476Y-116136523D01*
X69026238Y-116184142D01*
X68931000Y-116279380D01*
X68883380Y-116422238D01*
X68883380Y-116517476D01*
X68931000Y-116660333D01*
X68978619Y-116707952D01*
X69216714Y-117565095D02*
X69883380Y-117565095D01*
X68835761Y-117327000D02*
X69550047Y-117088904D01*
X69550047Y-117707952D01*
X68883380Y-118279380D02*
X68883380Y-118374619D01*
X68931000Y-118469857D01*
X68978619Y-118517476D01*
X69073857Y-118565095D01*
X69264333Y-118612714D01*
X69502428Y-118612714D01*
X69692904Y-118565095D01*
X69788142Y-118517476D01*
X69835761Y-118469857D01*
X69883380Y-118374619D01*
X69883380Y-118279380D01*
X69835761Y-118184142D01*
X69788142Y-118136523D01*
X69692904Y-118088904D01*
X69502428Y-118041285D01*
X69264333Y-118041285D01*
X69073857Y-118088904D01*
X68978619Y-118136523D01*
X68931000Y-118184142D01*
X68883380Y-118279380D01*
X68883380Y-119517476D02*
X68883380Y-119041285D01*
X69359571Y-118993666D01*
X69311952Y-119041285D01*
X69264333Y-119136523D01*
X69264333Y-119374619D01*
X69311952Y-119469857D01*
X69359571Y-119517476D01*
X69454809Y-119565095D01*
X69692904Y-119565095D01*
X69788142Y-119517476D01*
X69835761Y-119469857D01*
X69883380Y-119374619D01*
X69883380Y-119136523D01*
X69835761Y-119041285D01*
X69788142Y-118993666D01*
%TO.C,C407*%
X80550142Y-133090952D02*
X80597761Y-133043333D01*
X80645380Y-132900476D01*
X80645380Y-132805238D01*
X80597761Y-132662380D01*
X80502523Y-132567142D01*
X80407285Y-132519523D01*
X80216809Y-132471904D01*
X80073952Y-132471904D01*
X79883476Y-132519523D01*
X79788238Y-132567142D01*
X79693000Y-132662380D01*
X79645380Y-132805238D01*
X79645380Y-132900476D01*
X79693000Y-133043333D01*
X79740619Y-133090952D01*
X79978714Y-133948095D02*
X80645380Y-133948095D01*
X79597761Y-133710000D02*
X80312047Y-133471904D01*
X80312047Y-134090952D01*
X79645380Y-134662380D02*
X79645380Y-134757619D01*
X79693000Y-134852857D01*
X79740619Y-134900476D01*
X79835857Y-134948095D01*
X80026333Y-134995714D01*
X80264428Y-134995714D01*
X80454904Y-134948095D01*
X80550142Y-134900476D01*
X80597761Y-134852857D01*
X80645380Y-134757619D01*
X80645380Y-134662380D01*
X80597761Y-134567142D01*
X80550142Y-134519523D01*
X80454904Y-134471904D01*
X80264428Y-134424285D01*
X80026333Y-134424285D01*
X79835857Y-134471904D01*
X79740619Y-134519523D01*
X79693000Y-134567142D01*
X79645380Y-134662380D01*
X79645380Y-135329047D02*
X79645380Y-135995714D01*
X80645380Y-135567142D01*
%TO.C,C408*%
X88965142Y-127502952D02*
X89012761Y-127455333D01*
X89060380Y-127312476D01*
X89060380Y-127217238D01*
X89012761Y-127074380D01*
X88917523Y-126979142D01*
X88822285Y-126931523D01*
X88631809Y-126883904D01*
X88488952Y-126883904D01*
X88298476Y-126931523D01*
X88203238Y-126979142D01*
X88108000Y-127074380D01*
X88060380Y-127217238D01*
X88060380Y-127312476D01*
X88108000Y-127455333D01*
X88155619Y-127502952D01*
X88393714Y-128360095D02*
X89060380Y-128360095D01*
X88012761Y-128122000D02*
X88727047Y-127883904D01*
X88727047Y-128502952D01*
X88060380Y-129074380D02*
X88060380Y-129169619D01*
X88108000Y-129264857D01*
X88155619Y-129312476D01*
X88250857Y-129360095D01*
X88441333Y-129407714D01*
X88679428Y-129407714D01*
X88869904Y-129360095D01*
X88965142Y-129312476D01*
X89012761Y-129264857D01*
X89060380Y-129169619D01*
X89060380Y-129074380D01*
X89012761Y-128979142D01*
X88965142Y-128931523D01*
X88869904Y-128883904D01*
X88679428Y-128836285D01*
X88441333Y-128836285D01*
X88250857Y-128883904D01*
X88155619Y-128931523D01*
X88108000Y-128979142D01*
X88060380Y-129074380D01*
X88488952Y-129979142D02*
X88441333Y-129883904D01*
X88393714Y-129836285D01*
X88298476Y-129788666D01*
X88250857Y-129788666D01*
X88155619Y-129836285D01*
X88108000Y-129883904D01*
X88060380Y-129979142D01*
X88060380Y-130169619D01*
X88108000Y-130264857D01*
X88155619Y-130312476D01*
X88250857Y-130360095D01*
X88298476Y-130360095D01*
X88393714Y-130312476D01*
X88441333Y-130264857D01*
X88488952Y-130169619D01*
X88488952Y-129979142D01*
X88536571Y-129883904D01*
X88584190Y-129836285D01*
X88679428Y-129788666D01*
X88869904Y-129788666D01*
X88965142Y-129836285D01*
X89012761Y-129883904D01*
X89060380Y-129979142D01*
X89060380Y-130169619D01*
X89012761Y-130264857D01*
X88965142Y-130312476D01*
X88869904Y-130360095D01*
X88679428Y-130360095D01*
X88584190Y-130312476D01*
X88536571Y-130264857D01*
X88488952Y-130169619D01*
%TO.C,C410*%
X65978142Y-116707952D02*
X66025761Y-116660333D01*
X66073380Y-116517476D01*
X66073380Y-116422238D01*
X66025761Y-116279380D01*
X65930523Y-116184142D01*
X65835285Y-116136523D01*
X65644809Y-116088904D01*
X65501952Y-116088904D01*
X65311476Y-116136523D01*
X65216238Y-116184142D01*
X65121000Y-116279380D01*
X65073380Y-116422238D01*
X65073380Y-116517476D01*
X65121000Y-116660333D01*
X65168619Y-116707952D01*
X65406714Y-117565095D02*
X66073380Y-117565095D01*
X65025761Y-117327000D02*
X65740047Y-117088904D01*
X65740047Y-117707952D01*
X66073380Y-118612714D02*
X66073380Y-118041285D01*
X66073380Y-118327000D02*
X65073380Y-118327000D01*
X65216238Y-118231761D01*
X65311476Y-118136523D01*
X65359095Y-118041285D01*
X65073380Y-119231761D02*
X65073380Y-119327000D01*
X65121000Y-119422238D01*
X65168619Y-119469857D01*
X65263857Y-119517476D01*
X65454333Y-119565095D01*
X65692428Y-119565095D01*
X65882904Y-119517476D01*
X65978142Y-119469857D01*
X66025761Y-119422238D01*
X66073380Y-119327000D01*
X66073380Y-119231761D01*
X66025761Y-119136523D01*
X65978142Y-119088904D01*
X65882904Y-119041285D01*
X65692428Y-118993666D01*
X65454333Y-118993666D01*
X65263857Y-119041285D01*
X65168619Y-119088904D01*
X65121000Y-119136523D01*
X65073380Y-119231761D01*
%TO.C,C411*%
X80677142Y-127502952D02*
X80724761Y-127455333D01*
X80772380Y-127312476D01*
X80772380Y-127217238D01*
X80724761Y-127074380D01*
X80629523Y-126979142D01*
X80534285Y-126931523D01*
X80343809Y-126883904D01*
X80200952Y-126883904D01*
X80010476Y-126931523D01*
X79915238Y-126979142D01*
X79820000Y-127074380D01*
X79772380Y-127217238D01*
X79772380Y-127312476D01*
X79820000Y-127455333D01*
X79867619Y-127502952D01*
X80105714Y-128360095D02*
X80772380Y-128360095D01*
X79724761Y-128122000D02*
X80439047Y-127883904D01*
X80439047Y-128502952D01*
X80772380Y-129407714D02*
X80772380Y-128836285D01*
X80772380Y-129122000D02*
X79772380Y-129122000D01*
X79915238Y-129026761D01*
X80010476Y-128931523D01*
X80058095Y-128836285D01*
X80772380Y-130360095D02*
X80772380Y-129788666D01*
X80772380Y-130074380D02*
X79772380Y-130074380D01*
X79915238Y-129979142D01*
X80010476Y-129883904D01*
X80058095Y-129788666D01*
%TO.C,C412*%
X67248142Y-116707952D02*
X67295761Y-116660333D01*
X67343380Y-116517476D01*
X67343380Y-116422238D01*
X67295761Y-116279380D01*
X67200523Y-116184142D01*
X67105285Y-116136523D01*
X66914809Y-116088904D01*
X66771952Y-116088904D01*
X66581476Y-116136523D01*
X66486238Y-116184142D01*
X66391000Y-116279380D01*
X66343380Y-116422238D01*
X66343380Y-116517476D01*
X66391000Y-116660333D01*
X66438619Y-116707952D01*
X66676714Y-117565095D02*
X67343380Y-117565095D01*
X66295761Y-117327000D02*
X67010047Y-117088904D01*
X67010047Y-117707952D01*
X67343380Y-118612714D02*
X67343380Y-118041285D01*
X67343380Y-118327000D02*
X66343380Y-118327000D01*
X66486238Y-118231761D01*
X66581476Y-118136523D01*
X66629095Y-118041285D01*
X66438619Y-118993666D02*
X66391000Y-119041285D01*
X66343380Y-119136523D01*
X66343380Y-119374619D01*
X66391000Y-119469857D01*
X66438619Y-119517476D01*
X66533857Y-119565095D01*
X66629095Y-119565095D01*
X66771952Y-119517476D01*
X67343380Y-118946047D01*
X67343380Y-119565095D01*
%TO.C,C413*%
X64708142Y-116707952D02*
X64755761Y-116660333D01*
X64803380Y-116517476D01*
X64803380Y-116422238D01*
X64755761Y-116279380D01*
X64660523Y-116184142D01*
X64565285Y-116136523D01*
X64374809Y-116088904D01*
X64231952Y-116088904D01*
X64041476Y-116136523D01*
X63946238Y-116184142D01*
X63851000Y-116279380D01*
X63803380Y-116422238D01*
X63803380Y-116517476D01*
X63851000Y-116660333D01*
X63898619Y-116707952D01*
X64136714Y-117565095D02*
X64803380Y-117565095D01*
X63755761Y-117327000D02*
X64470047Y-117088904D01*
X64470047Y-117707952D01*
X64803380Y-118612714D02*
X64803380Y-118041285D01*
X64803380Y-118327000D02*
X63803380Y-118327000D01*
X63946238Y-118231761D01*
X64041476Y-118136523D01*
X64089095Y-118041285D01*
X63803380Y-118946047D02*
X63803380Y-119565095D01*
X64184333Y-119231761D01*
X64184333Y-119374619D01*
X64231952Y-119469857D01*
X64279571Y-119517476D01*
X64374809Y-119565095D01*
X64612904Y-119565095D01*
X64708142Y-119517476D01*
X64755761Y-119469857D01*
X64803380Y-119374619D01*
X64803380Y-119088904D01*
X64755761Y-118993666D01*
X64708142Y-118946047D01*
%TO.C,C414*%
X81980047Y-131773142D02*
X82027666Y-131820761D01*
X82170523Y-131868380D01*
X82265761Y-131868380D01*
X82408619Y-131820761D01*
X82503857Y-131725523D01*
X82551476Y-131630285D01*
X82599095Y-131439809D01*
X82599095Y-131296952D01*
X82551476Y-131106476D01*
X82503857Y-131011238D01*
X82408619Y-130916000D01*
X82265761Y-130868380D01*
X82170523Y-130868380D01*
X82027666Y-130916000D01*
X81980047Y-130963619D01*
X81122904Y-131201714D02*
X81122904Y-131868380D01*
X81361000Y-130820761D02*
X81599095Y-131535047D01*
X80980047Y-131535047D01*
X80075285Y-131868380D02*
X80646714Y-131868380D01*
X80361000Y-131868380D02*
X80361000Y-130868380D01*
X80456238Y-131011238D01*
X80551476Y-131106476D01*
X80646714Y-131154095D01*
X79218142Y-131201714D02*
X79218142Y-131868380D01*
X79456238Y-130820761D02*
X79694333Y-131535047D01*
X79075285Y-131535047D01*
%TO.C,C419*%
X67502047Y-130249142D02*
X67549666Y-130296761D01*
X67692523Y-130344380D01*
X67787761Y-130344380D01*
X67930619Y-130296761D01*
X68025857Y-130201523D01*
X68073476Y-130106285D01*
X68121095Y-129915809D01*
X68121095Y-129772952D01*
X68073476Y-129582476D01*
X68025857Y-129487238D01*
X67930619Y-129392000D01*
X67787761Y-129344380D01*
X67692523Y-129344380D01*
X67549666Y-129392000D01*
X67502047Y-129439619D01*
X66644904Y-129677714D02*
X66644904Y-130344380D01*
X66883000Y-129296761D02*
X67121095Y-130011047D01*
X66502047Y-130011047D01*
X65597285Y-130344380D02*
X66168714Y-130344380D01*
X65883000Y-130344380D02*
X65883000Y-129344380D01*
X65978238Y-129487238D01*
X66073476Y-129582476D01*
X66168714Y-129630095D01*
X65121095Y-130344380D02*
X64930619Y-130344380D01*
X64835380Y-130296761D01*
X64787761Y-130249142D01*
X64692523Y-130106285D01*
X64644904Y-129915809D01*
X64644904Y-129534857D01*
X64692523Y-129439619D01*
X64740142Y-129392000D01*
X64835380Y-129344380D01*
X65025857Y-129344380D01*
X65121095Y-129392000D01*
X65168714Y-129439619D01*
X65216333Y-129534857D01*
X65216333Y-129772952D01*
X65168714Y-129868190D01*
X65121095Y-129915809D01*
X65025857Y-129963428D01*
X64835380Y-129963428D01*
X64740142Y-129915809D01*
X64692523Y-129868190D01*
X64644904Y-129772952D01*
%TO.C,C420*%
X67375047Y-139774142D02*
X67422666Y-139821761D01*
X67565523Y-139869380D01*
X67660761Y-139869380D01*
X67803619Y-139821761D01*
X67898857Y-139726523D01*
X67946476Y-139631285D01*
X67994095Y-139440809D01*
X67994095Y-139297952D01*
X67946476Y-139107476D01*
X67898857Y-139012238D01*
X67803619Y-138917000D01*
X67660761Y-138869380D01*
X67565523Y-138869380D01*
X67422666Y-138917000D01*
X67375047Y-138964619D01*
X66517904Y-139202714D02*
X66517904Y-139869380D01*
X66756000Y-138821761D02*
X66994095Y-139536047D01*
X66375047Y-139536047D01*
X66041714Y-138964619D02*
X65994095Y-138917000D01*
X65898857Y-138869380D01*
X65660761Y-138869380D01*
X65565523Y-138917000D01*
X65517904Y-138964619D01*
X65470285Y-139059857D01*
X65470285Y-139155095D01*
X65517904Y-139297952D01*
X66089333Y-139869380D01*
X65470285Y-139869380D01*
X64851238Y-138869380D02*
X64756000Y-138869380D01*
X64660761Y-138917000D01*
X64613142Y-138964619D01*
X64565523Y-139059857D01*
X64517904Y-139250333D01*
X64517904Y-139488428D01*
X64565523Y-139678904D01*
X64613142Y-139774142D01*
X64660761Y-139821761D01*
X64756000Y-139869380D01*
X64851238Y-139869380D01*
X64946476Y-139821761D01*
X64994095Y-139774142D01*
X65041714Y-139678904D01*
X65089333Y-139488428D01*
X65089333Y-139250333D01*
X65041714Y-139059857D01*
X64994095Y-138964619D01*
X64946476Y-138917000D01*
X64851238Y-138869380D01*
%TO.C,C421*%
X61500142Y-133598952D02*
X61547761Y-133551333D01*
X61595380Y-133408476D01*
X61595380Y-133313238D01*
X61547761Y-133170380D01*
X61452523Y-133075142D01*
X61357285Y-133027523D01*
X61166809Y-132979904D01*
X61023952Y-132979904D01*
X60833476Y-133027523D01*
X60738238Y-133075142D01*
X60643000Y-133170380D01*
X60595380Y-133313238D01*
X60595380Y-133408476D01*
X60643000Y-133551333D01*
X60690619Y-133598952D01*
X60928714Y-134456095D02*
X61595380Y-134456095D01*
X60547761Y-134218000D02*
X61262047Y-133979904D01*
X61262047Y-134598952D01*
X60690619Y-134932285D02*
X60643000Y-134979904D01*
X60595380Y-135075142D01*
X60595380Y-135313238D01*
X60643000Y-135408476D01*
X60690619Y-135456095D01*
X60785857Y-135503714D01*
X60881095Y-135503714D01*
X61023952Y-135456095D01*
X61595380Y-134884666D01*
X61595380Y-135503714D01*
X61595380Y-136456095D02*
X61595380Y-135884666D01*
X61595380Y-136170380D02*
X60595380Y-136170380D01*
X60738238Y-136075142D01*
X60833476Y-135979904D01*
X60881095Y-135884666D01*
%TO.C,J203*%
X66210714Y-122577380D02*
X66210714Y-123291666D01*
X66258333Y-123434523D01*
X66353571Y-123529761D01*
X66496428Y-123577380D01*
X66591666Y-123577380D01*
X65782142Y-122672619D02*
X65734523Y-122625000D01*
X65639285Y-122577380D01*
X65401190Y-122577380D01*
X65305952Y-122625000D01*
X65258333Y-122672619D01*
X65210714Y-122767857D01*
X65210714Y-122863095D01*
X65258333Y-123005952D01*
X65829761Y-123577380D01*
X65210714Y-123577380D01*
X64591666Y-122577380D02*
X64496428Y-122577380D01*
X64401190Y-122625000D01*
X64353571Y-122672619D01*
X64305952Y-122767857D01*
X64258333Y-122958333D01*
X64258333Y-123196428D01*
X64305952Y-123386904D01*
X64353571Y-123482142D01*
X64401190Y-123529761D01*
X64496428Y-123577380D01*
X64591666Y-123577380D01*
X64686904Y-123529761D01*
X64734523Y-123482142D01*
X64782142Y-123386904D01*
X64829761Y-123196428D01*
X64829761Y-122958333D01*
X64782142Y-122767857D01*
X64734523Y-122672619D01*
X64686904Y-122625000D01*
X64591666Y-122577380D01*
X63925000Y-122577380D02*
X63305952Y-122577380D01*
X63639285Y-122958333D01*
X63496428Y-122958333D01*
X63401190Y-123005952D01*
X63353571Y-123053571D01*
X63305952Y-123148809D01*
X63305952Y-123386904D01*
X63353571Y-123482142D01*
X63401190Y-123529761D01*
X63496428Y-123577380D01*
X63782142Y-123577380D01*
X63877380Y-123529761D01*
X63925000Y-123482142D01*
%TO.C,JP201*%
X97505714Y-113596380D02*
X97505714Y-114310666D01*
X97553333Y-114453523D01*
X97648571Y-114548761D01*
X97791428Y-114596380D01*
X97886666Y-114596380D01*
X97029523Y-114596380D02*
X97029523Y-113596380D01*
X96648571Y-113596380D01*
X96553333Y-113644000D01*
X96505714Y-113691619D01*
X96458095Y-113786857D01*
X96458095Y-113929714D01*
X96505714Y-114024952D01*
X96553333Y-114072571D01*
X96648571Y-114120190D01*
X97029523Y-114120190D01*
X96077142Y-113691619D02*
X96029523Y-113644000D01*
X95934285Y-113596380D01*
X95696190Y-113596380D01*
X95600952Y-113644000D01*
X95553333Y-113691619D01*
X95505714Y-113786857D01*
X95505714Y-113882095D01*
X95553333Y-114024952D01*
X96124761Y-114596380D01*
X95505714Y-114596380D01*
X94886666Y-113596380D02*
X94791428Y-113596380D01*
X94696190Y-113644000D01*
X94648571Y-113691619D01*
X94600952Y-113786857D01*
X94553333Y-113977333D01*
X94553333Y-114215428D01*
X94600952Y-114405904D01*
X94648571Y-114501142D01*
X94696190Y-114548761D01*
X94791428Y-114596380D01*
X94886666Y-114596380D01*
X94981904Y-114548761D01*
X95029523Y-114501142D01*
X95077142Y-114405904D01*
X95124761Y-114215428D01*
X95124761Y-113977333D01*
X95077142Y-113786857D01*
X95029523Y-113691619D01*
X94981904Y-113644000D01*
X94886666Y-113596380D01*
X93600952Y-114596380D02*
X94172380Y-114596380D01*
X93886666Y-114596380D02*
X93886666Y-113596380D01*
X93981904Y-113739238D01*
X94077142Y-113834476D01*
X94172380Y-113882095D01*
%TO.C,JP202*%
X97505714Y-110675380D02*
X97505714Y-111389666D01*
X97553333Y-111532523D01*
X97648571Y-111627761D01*
X97791428Y-111675380D01*
X97886666Y-111675380D01*
X97029523Y-111675380D02*
X97029523Y-110675380D01*
X96648571Y-110675380D01*
X96553333Y-110723000D01*
X96505714Y-110770619D01*
X96458095Y-110865857D01*
X96458095Y-111008714D01*
X96505714Y-111103952D01*
X96553333Y-111151571D01*
X96648571Y-111199190D01*
X97029523Y-111199190D01*
X96077142Y-110770619D02*
X96029523Y-110723000D01*
X95934285Y-110675380D01*
X95696190Y-110675380D01*
X95600952Y-110723000D01*
X95553333Y-110770619D01*
X95505714Y-110865857D01*
X95505714Y-110961095D01*
X95553333Y-111103952D01*
X96124761Y-111675380D01*
X95505714Y-111675380D01*
X94886666Y-110675380D02*
X94791428Y-110675380D01*
X94696190Y-110723000D01*
X94648571Y-110770619D01*
X94600952Y-110865857D01*
X94553333Y-111056333D01*
X94553333Y-111294428D01*
X94600952Y-111484904D01*
X94648571Y-111580142D01*
X94696190Y-111627761D01*
X94791428Y-111675380D01*
X94886666Y-111675380D01*
X94981904Y-111627761D01*
X95029523Y-111580142D01*
X95077142Y-111484904D01*
X95124761Y-111294428D01*
X95124761Y-111056333D01*
X95077142Y-110865857D01*
X95029523Y-110770619D01*
X94981904Y-110723000D01*
X94886666Y-110675380D01*
X94172380Y-110770619D02*
X94124761Y-110723000D01*
X94029523Y-110675380D01*
X93791428Y-110675380D01*
X93696190Y-110723000D01*
X93648571Y-110770619D01*
X93600952Y-110865857D01*
X93600952Y-110961095D01*
X93648571Y-111103952D01*
X94220000Y-111675380D01*
X93600952Y-111675380D01*
%TO.C,JP203*%
X77947714Y-130106380D02*
X77947714Y-130820666D01*
X77995333Y-130963523D01*
X78090571Y-131058761D01*
X78233428Y-131106380D01*
X78328666Y-131106380D01*
X77471523Y-131106380D02*
X77471523Y-130106380D01*
X77090571Y-130106380D01*
X76995333Y-130154000D01*
X76947714Y-130201619D01*
X76900095Y-130296857D01*
X76900095Y-130439714D01*
X76947714Y-130534952D01*
X76995333Y-130582571D01*
X77090571Y-130630190D01*
X77471523Y-130630190D01*
X76519142Y-130201619D02*
X76471523Y-130154000D01*
X76376285Y-130106380D01*
X76138190Y-130106380D01*
X76042952Y-130154000D01*
X75995333Y-130201619D01*
X75947714Y-130296857D01*
X75947714Y-130392095D01*
X75995333Y-130534952D01*
X76566761Y-131106380D01*
X75947714Y-131106380D01*
X75328666Y-130106380D02*
X75233428Y-130106380D01*
X75138190Y-130154000D01*
X75090571Y-130201619D01*
X75042952Y-130296857D01*
X74995333Y-130487333D01*
X74995333Y-130725428D01*
X75042952Y-130915904D01*
X75090571Y-131011142D01*
X75138190Y-131058761D01*
X75233428Y-131106380D01*
X75328666Y-131106380D01*
X75423904Y-131058761D01*
X75471523Y-131011142D01*
X75519142Y-130915904D01*
X75566761Y-130725428D01*
X75566761Y-130487333D01*
X75519142Y-130296857D01*
X75471523Y-130201619D01*
X75423904Y-130154000D01*
X75328666Y-130106380D01*
X74662000Y-130106380D02*
X74042952Y-130106380D01*
X74376285Y-130487333D01*
X74233428Y-130487333D01*
X74138190Y-130534952D01*
X74090571Y-130582571D01*
X74042952Y-130677809D01*
X74042952Y-130915904D01*
X74090571Y-131011142D01*
X74138190Y-131058761D01*
X74233428Y-131106380D01*
X74519142Y-131106380D01*
X74614380Y-131058761D01*
X74662000Y-131011142D01*
%TO.C,JP204*%
X78074714Y-132646380D02*
X78074714Y-133360666D01*
X78122333Y-133503523D01*
X78217571Y-133598761D01*
X78360428Y-133646380D01*
X78455666Y-133646380D01*
X77598523Y-133646380D02*
X77598523Y-132646380D01*
X77217571Y-132646380D01*
X77122333Y-132694000D01*
X77074714Y-132741619D01*
X77027095Y-132836857D01*
X77027095Y-132979714D01*
X77074714Y-133074952D01*
X77122333Y-133122571D01*
X77217571Y-133170190D01*
X77598523Y-133170190D01*
X76646142Y-132741619D02*
X76598523Y-132694000D01*
X76503285Y-132646380D01*
X76265190Y-132646380D01*
X76169952Y-132694000D01*
X76122333Y-132741619D01*
X76074714Y-132836857D01*
X76074714Y-132932095D01*
X76122333Y-133074952D01*
X76693761Y-133646380D01*
X76074714Y-133646380D01*
X75455666Y-132646380D02*
X75360428Y-132646380D01*
X75265190Y-132694000D01*
X75217571Y-132741619D01*
X75169952Y-132836857D01*
X75122333Y-133027333D01*
X75122333Y-133265428D01*
X75169952Y-133455904D01*
X75217571Y-133551142D01*
X75265190Y-133598761D01*
X75360428Y-133646380D01*
X75455666Y-133646380D01*
X75550904Y-133598761D01*
X75598523Y-133551142D01*
X75646142Y-133455904D01*
X75693761Y-133265428D01*
X75693761Y-133027333D01*
X75646142Y-132836857D01*
X75598523Y-132741619D01*
X75550904Y-132694000D01*
X75455666Y-132646380D01*
X74265190Y-132979714D02*
X74265190Y-133646380D01*
X74503285Y-132598761D02*
X74741380Y-133313047D01*
X74122333Y-133313047D01*
%TO.C,JP205*%
X77947714Y-135567380D02*
X77947714Y-136281666D01*
X77995333Y-136424523D01*
X78090571Y-136519761D01*
X78233428Y-136567380D01*
X78328666Y-136567380D01*
X77471523Y-136567380D02*
X77471523Y-135567380D01*
X77090571Y-135567380D01*
X76995333Y-135615000D01*
X76947714Y-135662619D01*
X76900095Y-135757857D01*
X76900095Y-135900714D01*
X76947714Y-135995952D01*
X76995333Y-136043571D01*
X77090571Y-136091190D01*
X77471523Y-136091190D01*
X76519142Y-135662619D02*
X76471523Y-135615000D01*
X76376285Y-135567380D01*
X76138190Y-135567380D01*
X76042952Y-135615000D01*
X75995333Y-135662619D01*
X75947714Y-135757857D01*
X75947714Y-135853095D01*
X75995333Y-135995952D01*
X76566761Y-136567380D01*
X75947714Y-136567380D01*
X75328666Y-135567380D02*
X75233428Y-135567380D01*
X75138190Y-135615000D01*
X75090571Y-135662619D01*
X75042952Y-135757857D01*
X74995333Y-135948333D01*
X74995333Y-136186428D01*
X75042952Y-136376904D01*
X75090571Y-136472142D01*
X75138190Y-136519761D01*
X75233428Y-136567380D01*
X75328666Y-136567380D01*
X75423904Y-136519761D01*
X75471523Y-136472142D01*
X75519142Y-136376904D01*
X75566761Y-136186428D01*
X75566761Y-135948333D01*
X75519142Y-135757857D01*
X75471523Y-135662619D01*
X75423904Y-135615000D01*
X75328666Y-135567380D01*
X74090571Y-135567380D02*
X74566761Y-135567380D01*
X74614380Y-136043571D01*
X74566761Y-135995952D01*
X74471523Y-135948333D01*
X74233428Y-135948333D01*
X74138190Y-135995952D01*
X74090571Y-136043571D01*
X74042952Y-136138809D01*
X74042952Y-136376904D01*
X74090571Y-136472142D01*
X74138190Y-136519761D01*
X74233428Y-136567380D01*
X74471523Y-136567380D01*
X74566761Y-136519761D01*
X74614380Y-136472142D01*
%TO.C,JP206*%
X77962714Y-127312380D02*
X77962714Y-128026666D01*
X78010333Y-128169523D01*
X78105571Y-128264761D01*
X78248428Y-128312380D01*
X78343666Y-128312380D01*
X77486523Y-128312380D02*
X77486523Y-127312380D01*
X77105571Y-127312380D01*
X77010333Y-127360000D01*
X76962714Y-127407619D01*
X76915095Y-127502857D01*
X76915095Y-127645714D01*
X76962714Y-127740952D01*
X77010333Y-127788571D01*
X77105571Y-127836190D01*
X77486523Y-127836190D01*
X76534142Y-127407619D02*
X76486523Y-127360000D01*
X76391285Y-127312380D01*
X76153190Y-127312380D01*
X76057952Y-127360000D01*
X76010333Y-127407619D01*
X75962714Y-127502857D01*
X75962714Y-127598095D01*
X76010333Y-127740952D01*
X76581761Y-128312380D01*
X75962714Y-128312380D01*
X75343666Y-127312380D02*
X75248428Y-127312380D01*
X75153190Y-127360000D01*
X75105571Y-127407619D01*
X75057952Y-127502857D01*
X75010333Y-127693333D01*
X75010333Y-127931428D01*
X75057952Y-128121904D01*
X75105571Y-128217142D01*
X75153190Y-128264761D01*
X75248428Y-128312380D01*
X75343666Y-128312380D01*
X75438904Y-128264761D01*
X75486523Y-128217142D01*
X75534142Y-128121904D01*
X75581761Y-127931428D01*
X75581761Y-127693333D01*
X75534142Y-127502857D01*
X75486523Y-127407619D01*
X75438904Y-127360000D01*
X75343666Y-127312380D01*
X74153190Y-127312380D02*
X74343666Y-127312380D01*
X74438904Y-127360000D01*
X74486523Y-127407619D01*
X74581761Y-127550476D01*
X74629380Y-127740952D01*
X74629380Y-128121904D01*
X74581761Y-128217142D01*
X74534142Y-128264761D01*
X74438904Y-128312380D01*
X74248428Y-128312380D01*
X74153190Y-128264761D01*
X74105571Y-128217142D01*
X74057952Y-128121904D01*
X74057952Y-127883809D01*
X74105571Y-127788571D01*
X74153190Y-127740952D01*
X74248428Y-127693333D01*
X74438904Y-127693333D01*
X74534142Y-127740952D01*
X74581761Y-127788571D01*
X74629380Y-127883809D01*
%TO.C,JP207*%
X78074714Y-138107380D02*
X78074714Y-138821666D01*
X78122333Y-138964523D01*
X78217571Y-139059761D01*
X78360428Y-139107380D01*
X78455666Y-139107380D01*
X77598523Y-139107380D02*
X77598523Y-138107380D01*
X77217571Y-138107380D01*
X77122333Y-138155000D01*
X77074714Y-138202619D01*
X77027095Y-138297857D01*
X77027095Y-138440714D01*
X77074714Y-138535952D01*
X77122333Y-138583571D01*
X77217571Y-138631190D01*
X77598523Y-138631190D01*
X76646142Y-138202619D02*
X76598523Y-138155000D01*
X76503285Y-138107380D01*
X76265190Y-138107380D01*
X76169952Y-138155000D01*
X76122333Y-138202619D01*
X76074714Y-138297857D01*
X76074714Y-138393095D01*
X76122333Y-138535952D01*
X76693761Y-139107380D01*
X76074714Y-139107380D01*
X75455666Y-138107380D02*
X75360428Y-138107380D01*
X75265190Y-138155000D01*
X75217571Y-138202619D01*
X75169952Y-138297857D01*
X75122333Y-138488333D01*
X75122333Y-138726428D01*
X75169952Y-138916904D01*
X75217571Y-139012142D01*
X75265190Y-139059761D01*
X75360428Y-139107380D01*
X75455666Y-139107380D01*
X75550904Y-139059761D01*
X75598523Y-139012142D01*
X75646142Y-138916904D01*
X75693761Y-138726428D01*
X75693761Y-138488333D01*
X75646142Y-138297857D01*
X75598523Y-138202619D01*
X75550904Y-138155000D01*
X75455666Y-138107380D01*
X74789000Y-138107380D02*
X74122333Y-138107380D01*
X74550904Y-139107380D01*
%TO.C,JP208*%
X100125380Y-133186285D02*
X100839666Y-133186285D01*
X100982523Y-133138666D01*
X101077761Y-133043428D01*
X101125380Y-132900571D01*
X101125380Y-132805333D01*
X101125380Y-133662476D02*
X100125380Y-133662476D01*
X100125380Y-134043428D01*
X100173000Y-134138666D01*
X100220619Y-134186285D01*
X100315857Y-134233904D01*
X100458714Y-134233904D01*
X100553952Y-134186285D01*
X100601571Y-134138666D01*
X100649190Y-134043428D01*
X100649190Y-133662476D01*
X100220619Y-134614857D02*
X100173000Y-134662476D01*
X100125380Y-134757714D01*
X100125380Y-134995809D01*
X100173000Y-135091047D01*
X100220619Y-135138666D01*
X100315857Y-135186285D01*
X100411095Y-135186285D01*
X100553952Y-135138666D01*
X101125380Y-134567238D01*
X101125380Y-135186285D01*
X100125380Y-135805333D02*
X100125380Y-135900571D01*
X100173000Y-135995809D01*
X100220619Y-136043428D01*
X100315857Y-136091047D01*
X100506333Y-136138666D01*
X100744428Y-136138666D01*
X100934904Y-136091047D01*
X101030142Y-136043428D01*
X101077761Y-135995809D01*
X101125380Y-135900571D01*
X101125380Y-135805333D01*
X101077761Y-135710095D01*
X101030142Y-135662476D01*
X100934904Y-135614857D01*
X100744428Y-135567238D01*
X100506333Y-135567238D01*
X100315857Y-135614857D01*
X100220619Y-135662476D01*
X100173000Y-135710095D01*
X100125380Y-135805333D01*
X100553952Y-136710095D02*
X100506333Y-136614857D01*
X100458714Y-136567238D01*
X100363476Y-136519619D01*
X100315857Y-136519619D01*
X100220619Y-136567238D01*
X100173000Y-136614857D01*
X100125380Y-136710095D01*
X100125380Y-136900571D01*
X100173000Y-136995809D01*
X100220619Y-137043428D01*
X100315857Y-137091047D01*
X100363476Y-137091047D01*
X100458714Y-137043428D01*
X100506333Y-136995809D01*
X100553952Y-136900571D01*
X100553952Y-136710095D01*
X100601571Y-136614857D01*
X100649190Y-136567238D01*
X100744428Y-136519619D01*
X100934904Y-136519619D01*
X101030142Y-136567238D01*
X101077761Y-136614857D01*
X101125380Y-136710095D01*
X101125380Y-136900571D01*
X101077761Y-136995809D01*
X101030142Y-137043428D01*
X100934904Y-137091047D01*
X100744428Y-137091047D01*
X100649190Y-137043428D01*
X100601571Y-136995809D01*
X100553952Y-136900571D01*
%TO.C,JP209*%
X97458380Y-133186285D02*
X98172666Y-133186285D01*
X98315523Y-133138666D01*
X98410761Y-133043428D01*
X98458380Y-132900571D01*
X98458380Y-132805333D01*
X98458380Y-133662476D02*
X97458380Y-133662476D01*
X97458380Y-134043428D01*
X97506000Y-134138666D01*
X97553619Y-134186285D01*
X97648857Y-134233904D01*
X97791714Y-134233904D01*
X97886952Y-134186285D01*
X97934571Y-134138666D01*
X97982190Y-134043428D01*
X97982190Y-133662476D01*
X97553619Y-134614857D02*
X97506000Y-134662476D01*
X97458380Y-134757714D01*
X97458380Y-134995809D01*
X97506000Y-135091047D01*
X97553619Y-135138666D01*
X97648857Y-135186285D01*
X97744095Y-135186285D01*
X97886952Y-135138666D01*
X98458380Y-134567238D01*
X98458380Y-135186285D01*
X97458380Y-135805333D02*
X97458380Y-135900571D01*
X97506000Y-135995809D01*
X97553619Y-136043428D01*
X97648857Y-136091047D01*
X97839333Y-136138666D01*
X98077428Y-136138666D01*
X98267904Y-136091047D01*
X98363142Y-136043428D01*
X98410761Y-135995809D01*
X98458380Y-135900571D01*
X98458380Y-135805333D01*
X98410761Y-135710095D01*
X98363142Y-135662476D01*
X98267904Y-135614857D01*
X98077428Y-135567238D01*
X97839333Y-135567238D01*
X97648857Y-135614857D01*
X97553619Y-135662476D01*
X97506000Y-135710095D01*
X97458380Y-135805333D01*
X98458380Y-136614857D02*
X98458380Y-136805333D01*
X98410761Y-136900571D01*
X98363142Y-136948190D01*
X98220285Y-137043428D01*
X98029809Y-137091047D01*
X97648857Y-137091047D01*
X97553619Y-137043428D01*
X97506000Y-136995809D01*
X97458380Y-136900571D01*
X97458380Y-136710095D01*
X97506000Y-136614857D01*
X97553619Y-136567238D01*
X97648857Y-136519619D01*
X97886952Y-136519619D01*
X97982190Y-136567238D01*
X98029809Y-136614857D01*
X98077428Y-136710095D01*
X98077428Y-136900571D01*
X98029809Y-136995809D01*
X97982190Y-137043428D01*
X97886952Y-137091047D01*
%TO.C,JP210*%
X81884714Y-113850380D02*
X81884714Y-114564666D01*
X81932333Y-114707523D01*
X82027571Y-114802761D01*
X82170428Y-114850380D01*
X82265666Y-114850380D01*
X81408523Y-114850380D02*
X81408523Y-113850380D01*
X81027571Y-113850380D01*
X80932333Y-113898000D01*
X80884714Y-113945619D01*
X80837095Y-114040857D01*
X80837095Y-114183714D01*
X80884714Y-114278952D01*
X80932333Y-114326571D01*
X81027571Y-114374190D01*
X81408523Y-114374190D01*
X80456142Y-113945619D02*
X80408523Y-113898000D01*
X80313285Y-113850380D01*
X80075190Y-113850380D01*
X79979952Y-113898000D01*
X79932333Y-113945619D01*
X79884714Y-114040857D01*
X79884714Y-114136095D01*
X79932333Y-114278952D01*
X80503761Y-114850380D01*
X79884714Y-114850380D01*
X78932333Y-114850380D02*
X79503761Y-114850380D01*
X79218047Y-114850380D02*
X79218047Y-113850380D01*
X79313285Y-113993238D01*
X79408523Y-114088476D01*
X79503761Y-114136095D01*
X78313285Y-113850380D02*
X78218047Y-113850380D01*
X78122809Y-113898000D01*
X78075190Y-113945619D01*
X78027571Y-114040857D01*
X77979952Y-114231333D01*
X77979952Y-114469428D01*
X78027571Y-114659904D01*
X78075190Y-114755142D01*
X78122809Y-114802761D01*
X78218047Y-114850380D01*
X78313285Y-114850380D01*
X78408523Y-114802761D01*
X78456142Y-114755142D01*
X78503761Y-114659904D01*
X78551380Y-114469428D01*
X78551380Y-114231333D01*
X78503761Y-114040857D01*
X78456142Y-113945619D01*
X78408523Y-113898000D01*
X78313285Y-113850380D01*
%TO.C,JP211*%
X81884714Y-111183380D02*
X81884714Y-111897666D01*
X81932333Y-112040523D01*
X82027571Y-112135761D01*
X82170428Y-112183380D01*
X82265666Y-112183380D01*
X81408523Y-112183380D02*
X81408523Y-111183380D01*
X81027571Y-111183380D01*
X80932333Y-111231000D01*
X80884714Y-111278619D01*
X80837095Y-111373857D01*
X80837095Y-111516714D01*
X80884714Y-111611952D01*
X80932333Y-111659571D01*
X81027571Y-111707190D01*
X81408523Y-111707190D01*
X80456142Y-111278619D02*
X80408523Y-111231000D01*
X80313285Y-111183380D01*
X80075190Y-111183380D01*
X79979952Y-111231000D01*
X79932333Y-111278619D01*
X79884714Y-111373857D01*
X79884714Y-111469095D01*
X79932333Y-111611952D01*
X80503761Y-112183380D01*
X79884714Y-112183380D01*
X78932333Y-112183380D02*
X79503761Y-112183380D01*
X79218047Y-112183380D02*
X79218047Y-111183380D01*
X79313285Y-111326238D01*
X79408523Y-111421476D01*
X79503761Y-111469095D01*
X77979952Y-112183380D02*
X78551380Y-112183380D01*
X78265666Y-112183380D02*
X78265666Y-111183380D01*
X78360904Y-111326238D01*
X78456142Y-111421476D01*
X78551380Y-111469095D01*
%TO.C,JP212*%
X81884714Y-108516380D02*
X81884714Y-109230666D01*
X81932333Y-109373523D01*
X82027571Y-109468761D01*
X82170428Y-109516380D01*
X82265666Y-109516380D01*
X81408523Y-109516380D02*
X81408523Y-108516380D01*
X81027571Y-108516380D01*
X80932333Y-108564000D01*
X80884714Y-108611619D01*
X80837095Y-108706857D01*
X80837095Y-108849714D01*
X80884714Y-108944952D01*
X80932333Y-108992571D01*
X81027571Y-109040190D01*
X81408523Y-109040190D01*
X80456142Y-108611619D02*
X80408523Y-108564000D01*
X80313285Y-108516380D01*
X80075190Y-108516380D01*
X79979952Y-108564000D01*
X79932333Y-108611619D01*
X79884714Y-108706857D01*
X79884714Y-108802095D01*
X79932333Y-108944952D01*
X80503761Y-109516380D01*
X79884714Y-109516380D01*
X78932333Y-109516380D02*
X79503761Y-109516380D01*
X79218047Y-109516380D02*
X79218047Y-108516380D01*
X79313285Y-108659238D01*
X79408523Y-108754476D01*
X79503761Y-108802095D01*
X78551380Y-108611619D02*
X78503761Y-108564000D01*
X78408523Y-108516380D01*
X78170428Y-108516380D01*
X78075190Y-108564000D01*
X78027571Y-108611619D01*
X77979952Y-108706857D01*
X77979952Y-108802095D01*
X78027571Y-108944952D01*
X78599000Y-109516380D01*
X77979952Y-109516380D01*
%TO.C,JP213*%
X81884714Y-105849380D02*
X81884714Y-106563666D01*
X81932333Y-106706523D01*
X82027571Y-106801761D01*
X82170428Y-106849380D01*
X82265666Y-106849380D01*
X81408523Y-106849380D02*
X81408523Y-105849380D01*
X81027571Y-105849380D01*
X80932333Y-105897000D01*
X80884714Y-105944619D01*
X80837095Y-106039857D01*
X80837095Y-106182714D01*
X80884714Y-106277952D01*
X80932333Y-106325571D01*
X81027571Y-106373190D01*
X81408523Y-106373190D01*
X80456142Y-105944619D02*
X80408523Y-105897000D01*
X80313285Y-105849380D01*
X80075190Y-105849380D01*
X79979952Y-105897000D01*
X79932333Y-105944619D01*
X79884714Y-106039857D01*
X79884714Y-106135095D01*
X79932333Y-106277952D01*
X80503761Y-106849380D01*
X79884714Y-106849380D01*
X78932333Y-106849380D02*
X79503761Y-106849380D01*
X79218047Y-106849380D02*
X79218047Y-105849380D01*
X79313285Y-105992238D01*
X79408523Y-106087476D01*
X79503761Y-106135095D01*
X78599000Y-105849380D02*
X77979952Y-105849380D01*
X78313285Y-106230333D01*
X78170428Y-106230333D01*
X78075190Y-106277952D01*
X78027571Y-106325571D01*
X77979952Y-106420809D01*
X77979952Y-106658904D01*
X78027571Y-106754142D01*
X78075190Y-106801761D01*
X78170428Y-106849380D01*
X78456142Y-106849380D01*
X78551380Y-106801761D01*
X78599000Y-106754142D01*
%TO.C,R201*%
X89219047Y-113707380D02*
X89552380Y-113231190D01*
X89790476Y-113707380D02*
X89790476Y-112707380D01*
X89409523Y-112707380D01*
X89314285Y-112755000D01*
X89266666Y-112802619D01*
X89219047Y-112897857D01*
X89219047Y-113040714D01*
X89266666Y-113135952D01*
X89314285Y-113183571D01*
X89409523Y-113231190D01*
X89790476Y-113231190D01*
X88838095Y-112802619D02*
X88790476Y-112755000D01*
X88695238Y-112707380D01*
X88457142Y-112707380D01*
X88361904Y-112755000D01*
X88314285Y-112802619D01*
X88266666Y-112897857D01*
X88266666Y-112993095D01*
X88314285Y-113135952D01*
X88885714Y-113707380D01*
X88266666Y-113707380D01*
X87647619Y-112707380D02*
X87552380Y-112707380D01*
X87457142Y-112755000D01*
X87409523Y-112802619D01*
X87361904Y-112897857D01*
X87314285Y-113088333D01*
X87314285Y-113326428D01*
X87361904Y-113516904D01*
X87409523Y-113612142D01*
X87457142Y-113659761D01*
X87552380Y-113707380D01*
X87647619Y-113707380D01*
X87742857Y-113659761D01*
X87790476Y-113612142D01*
X87838095Y-113516904D01*
X87885714Y-113326428D01*
X87885714Y-113088333D01*
X87838095Y-112897857D01*
X87790476Y-112802619D01*
X87742857Y-112755000D01*
X87647619Y-112707380D01*
X86361904Y-113707380D02*
X86933333Y-113707380D01*
X86647619Y-113707380D02*
X86647619Y-112707380D01*
X86742857Y-112850238D01*
X86838095Y-112945476D01*
X86933333Y-112993095D01*
%TO.C,R202*%
X89219047Y-110786380D02*
X89552380Y-110310190D01*
X89790476Y-110786380D02*
X89790476Y-109786380D01*
X89409523Y-109786380D01*
X89314285Y-109834000D01*
X89266666Y-109881619D01*
X89219047Y-109976857D01*
X89219047Y-110119714D01*
X89266666Y-110214952D01*
X89314285Y-110262571D01*
X89409523Y-110310190D01*
X89790476Y-110310190D01*
X88838095Y-109881619D02*
X88790476Y-109834000D01*
X88695238Y-109786380D01*
X88457142Y-109786380D01*
X88361904Y-109834000D01*
X88314285Y-109881619D01*
X88266666Y-109976857D01*
X88266666Y-110072095D01*
X88314285Y-110214952D01*
X88885714Y-110786380D01*
X88266666Y-110786380D01*
X87647619Y-109786380D02*
X87552380Y-109786380D01*
X87457142Y-109834000D01*
X87409523Y-109881619D01*
X87361904Y-109976857D01*
X87314285Y-110167333D01*
X87314285Y-110405428D01*
X87361904Y-110595904D01*
X87409523Y-110691142D01*
X87457142Y-110738761D01*
X87552380Y-110786380D01*
X87647619Y-110786380D01*
X87742857Y-110738761D01*
X87790476Y-110691142D01*
X87838095Y-110595904D01*
X87885714Y-110405428D01*
X87885714Y-110167333D01*
X87838095Y-109976857D01*
X87790476Y-109881619D01*
X87742857Y-109834000D01*
X87647619Y-109786380D01*
X86933333Y-109881619D02*
X86885714Y-109834000D01*
X86790476Y-109786380D01*
X86552380Y-109786380D01*
X86457142Y-109834000D01*
X86409523Y-109881619D01*
X86361904Y-109976857D01*
X86361904Y-110072095D01*
X86409523Y-110214952D01*
X86980952Y-110786380D01*
X86361904Y-110786380D01*
%TO.C,R203*%
X55437047Y-118754380D02*
X55770380Y-118278190D01*
X56008476Y-118754380D02*
X56008476Y-117754380D01*
X55627523Y-117754380D01*
X55532285Y-117802000D01*
X55484666Y-117849619D01*
X55437047Y-117944857D01*
X55437047Y-118087714D01*
X55484666Y-118182952D01*
X55532285Y-118230571D01*
X55627523Y-118278190D01*
X56008476Y-118278190D01*
X55056095Y-117849619D02*
X55008476Y-117802000D01*
X54913238Y-117754380D01*
X54675142Y-117754380D01*
X54579904Y-117802000D01*
X54532285Y-117849619D01*
X54484666Y-117944857D01*
X54484666Y-118040095D01*
X54532285Y-118182952D01*
X55103714Y-118754380D01*
X54484666Y-118754380D01*
X53865619Y-117754380D02*
X53770380Y-117754380D01*
X53675142Y-117802000D01*
X53627523Y-117849619D01*
X53579904Y-117944857D01*
X53532285Y-118135333D01*
X53532285Y-118373428D01*
X53579904Y-118563904D01*
X53627523Y-118659142D01*
X53675142Y-118706761D01*
X53770380Y-118754380D01*
X53865619Y-118754380D01*
X53960857Y-118706761D01*
X54008476Y-118659142D01*
X54056095Y-118563904D01*
X54103714Y-118373428D01*
X54103714Y-118135333D01*
X54056095Y-117944857D01*
X54008476Y-117849619D01*
X53960857Y-117802000D01*
X53865619Y-117754380D01*
X53198952Y-117754380D02*
X52579904Y-117754380D01*
X52913238Y-118135333D01*
X52770380Y-118135333D01*
X52675142Y-118182952D01*
X52627523Y-118230571D01*
X52579904Y-118325809D01*
X52579904Y-118563904D01*
X52627523Y-118659142D01*
X52675142Y-118706761D01*
X52770380Y-118754380D01*
X53056095Y-118754380D01*
X53151333Y-118706761D01*
X53198952Y-118659142D01*
%TO.C,R401*%
X77027047Y-125899380D02*
X77360380Y-125423190D01*
X77598476Y-125899380D02*
X77598476Y-124899380D01*
X77217523Y-124899380D01*
X77122285Y-124947000D01*
X77074666Y-124994619D01*
X77027047Y-125089857D01*
X77027047Y-125232714D01*
X77074666Y-125327952D01*
X77122285Y-125375571D01*
X77217523Y-125423190D01*
X77598476Y-125423190D01*
X76169904Y-125232714D02*
X76169904Y-125899380D01*
X76408000Y-124851761D02*
X76646095Y-125566047D01*
X76027047Y-125566047D01*
X75455619Y-124899380D02*
X75360380Y-124899380D01*
X75265142Y-124947000D01*
X75217523Y-124994619D01*
X75169904Y-125089857D01*
X75122285Y-125280333D01*
X75122285Y-125518428D01*
X75169904Y-125708904D01*
X75217523Y-125804142D01*
X75265142Y-125851761D01*
X75360380Y-125899380D01*
X75455619Y-125899380D01*
X75550857Y-125851761D01*
X75598476Y-125804142D01*
X75646095Y-125708904D01*
X75693714Y-125518428D01*
X75693714Y-125280333D01*
X75646095Y-125089857D01*
X75598476Y-124994619D01*
X75550857Y-124947000D01*
X75455619Y-124899380D01*
X74169904Y-125899380D02*
X74741333Y-125899380D01*
X74455619Y-125899380D02*
X74455619Y-124899380D01*
X74550857Y-125042238D01*
X74646095Y-125137476D01*
X74741333Y-125185095D01*
%TO.C,R402*%
X63533380Y-116707952D02*
X63057190Y-116374619D01*
X63533380Y-116136523D02*
X62533380Y-116136523D01*
X62533380Y-116517476D01*
X62581000Y-116612714D01*
X62628619Y-116660333D01*
X62723857Y-116707952D01*
X62866714Y-116707952D01*
X62961952Y-116660333D01*
X63009571Y-116612714D01*
X63057190Y-116517476D01*
X63057190Y-116136523D01*
X62866714Y-117565095D02*
X63533380Y-117565095D01*
X62485761Y-117327000D02*
X63200047Y-117088904D01*
X63200047Y-117707952D01*
X62533380Y-118279380D02*
X62533380Y-118374619D01*
X62581000Y-118469857D01*
X62628619Y-118517476D01*
X62723857Y-118565095D01*
X62914333Y-118612714D01*
X63152428Y-118612714D01*
X63342904Y-118565095D01*
X63438142Y-118517476D01*
X63485761Y-118469857D01*
X63533380Y-118374619D01*
X63533380Y-118279380D01*
X63485761Y-118184142D01*
X63438142Y-118136523D01*
X63342904Y-118088904D01*
X63152428Y-118041285D01*
X62914333Y-118041285D01*
X62723857Y-118088904D01*
X62628619Y-118136523D01*
X62581000Y-118184142D01*
X62533380Y-118279380D01*
X62628619Y-118993666D02*
X62581000Y-119041285D01*
X62533380Y-119136523D01*
X62533380Y-119374619D01*
X62581000Y-119469857D01*
X62628619Y-119517476D01*
X62723857Y-119565095D01*
X62819095Y-119565095D01*
X62961952Y-119517476D01*
X63533380Y-118946047D01*
X63533380Y-119565095D01*
%TO.C,U202*%
X106832285Y-115628380D02*
X106832285Y-116437904D01*
X106784666Y-116533142D01*
X106737047Y-116580761D01*
X106641809Y-116628380D01*
X106451333Y-116628380D01*
X106356095Y-116580761D01*
X106308476Y-116533142D01*
X106260857Y-116437904D01*
X106260857Y-115628380D01*
X105832285Y-115723619D02*
X105784666Y-115676000D01*
X105689428Y-115628380D01*
X105451333Y-115628380D01*
X105356095Y-115676000D01*
X105308476Y-115723619D01*
X105260857Y-115818857D01*
X105260857Y-115914095D01*
X105308476Y-116056952D01*
X105879904Y-116628380D01*
X105260857Y-116628380D01*
X104641809Y-115628380D02*
X104546571Y-115628380D01*
X104451333Y-115676000D01*
X104403714Y-115723619D01*
X104356095Y-115818857D01*
X104308476Y-116009333D01*
X104308476Y-116247428D01*
X104356095Y-116437904D01*
X104403714Y-116533142D01*
X104451333Y-116580761D01*
X104546571Y-116628380D01*
X104641809Y-116628380D01*
X104737047Y-116580761D01*
X104784666Y-116533142D01*
X104832285Y-116437904D01*
X104879904Y-116247428D01*
X104879904Y-116009333D01*
X104832285Y-115818857D01*
X104784666Y-115723619D01*
X104737047Y-115676000D01*
X104641809Y-115628380D01*
X103927523Y-115723619D02*
X103879904Y-115676000D01*
X103784666Y-115628380D01*
X103546571Y-115628380D01*
X103451333Y-115676000D01*
X103403714Y-115723619D01*
X103356095Y-115818857D01*
X103356095Y-115914095D01*
X103403714Y-116056952D01*
X103975142Y-116628380D01*
X103356095Y-116628380D01*
X104665571Y-119478380D02*
X104713190Y-119621238D01*
X104760809Y-119668857D01*
X104856047Y-119716476D01*
X104998904Y-119716476D01*
X105094142Y-119668857D01*
X105141761Y-119621238D01*
X105189380Y-119526000D01*
X105189380Y-119145047D01*
X104189380Y-119145047D01*
X104189380Y-119478380D01*
X104237000Y-119573619D01*
X104284619Y-119621238D01*
X104379857Y-119668857D01*
X104475095Y-119668857D01*
X104570333Y-119621238D01*
X104617952Y-119573619D01*
X104665571Y-119478380D01*
X104665571Y-119145047D01*
X105189380Y-120145047D02*
X104189380Y-120145047D01*
X104903666Y-120478380D01*
X104189380Y-120811714D01*
X105189380Y-120811714D01*
X105189380Y-121287904D02*
X104189380Y-121287904D01*
X104189380Y-121525999D01*
X104237000Y-121668857D01*
X104332238Y-121764095D01*
X104427476Y-121811714D01*
X104617952Y-121859333D01*
X104760809Y-121859333D01*
X104951285Y-121811714D01*
X105046523Y-121764095D01*
X105141761Y-121668857D01*
X105189380Y-121525999D01*
X105189380Y-121287904D01*
X104808428Y-122287904D02*
X104808428Y-123049809D01*
X104189380Y-123430761D02*
X104189380Y-124049809D01*
X104570333Y-123716476D01*
X104570333Y-123859333D01*
X104617952Y-123954571D01*
X104665571Y-124002190D01*
X104760809Y-124049809D01*
X104998904Y-124049809D01*
X105094142Y-124002190D01*
X105141761Y-123954571D01*
X105189380Y-123859333D01*
X105189380Y-123573619D01*
X105141761Y-123478380D01*
X105094142Y-123430761D01*
X104522714Y-124906952D02*
X105189380Y-124906952D01*
X104141761Y-124668857D02*
X104856047Y-124430761D01*
X104856047Y-125049809D01*
X104189380Y-125621238D02*
X104189380Y-125716476D01*
X104237000Y-125811714D01*
X104284619Y-125859333D01*
X104379857Y-125906952D01*
X104570333Y-125954571D01*
X104808428Y-125954571D01*
X104998904Y-125906952D01*
X105094142Y-125859333D01*
X105141761Y-125811714D01*
X105189380Y-125716476D01*
X105189380Y-125621238D01*
X105141761Y-125525999D01*
X105094142Y-125478380D01*
X104998904Y-125430761D01*
X104808428Y-125383142D01*
X104570333Y-125383142D01*
X104379857Y-125430761D01*
X104284619Y-125478380D01*
X104237000Y-125525999D01*
X104189380Y-125621238D01*
X103328620Y-127789000D02*
X103090524Y-127789000D01*
X103185762Y-128027095D02*
X103090524Y-127789000D01*
X103185762Y-127550904D01*
X102900048Y-127931857D02*
X103090524Y-127789000D01*
X102900048Y-127646142D01*
X103328620Y-127789000D02*
X103090524Y-127789000D01*
X103185762Y-128027095D02*
X103090524Y-127789000D01*
X103185762Y-127550904D01*
X102900048Y-127931857D02*
X103090524Y-127789000D01*
X102900048Y-127646142D01*
%TO.C,U203*%
X58236380Y-126653714D02*
X59045904Y-126653714D01*
X59141142Y-126701333D01*
X59188761Y-126748952D01*
X59236380Y-126844190D01*
X59236380Y-127034666D01*
X59188761Y-127129904D01*
X59141142Y-127177523D01*
X59045904Y-127225142D01*
X58236380Y-127225142D01*
X58331619Y-127653714D02*
X58284000Y-127701333D01*
X58236380Y-127796571D01*
X58236380Y-128034666D01*
X58284000Y-128129904D01*
X58331619Y-128177523D01*
X58426857Y-128225142D01*
X58522095Y-128225142D01*
X58664952Y-128177523D01*
X59236380Y-127606095D01*
X59236380Y-128225142D01*
X58236380Y-128844190D02*
X58236380Y-128939428D01*
X58284000Y-129034666D01*
X58331619Y-129082285D01*
X58426857Y-129129904D01*
X58617333Y-129177523D01*
X58855428Y-129177523D01*
X59045904Y-129129904D01*
X59141142Y-129082285D01*
X59188761Y-129034666D01*
X59236380Y-128939428D01*
X59236380Y-128844190D01*
X59188761Y-128748952D01*
X59141142Y-128701333D01*
X59045904Y-128653714D01*
X58855428Y-128606095D01*
X58617333Y-128606095D01*
X58426857Y-128653714D01*
X58331619Y-128701333D01*
X58284000Y-128748952D01*
X58236380Y-128844190D01*
X58236380Y-129510857D02*
X58236380Y-130129904D01*
X58617333Y-129796571D01*
X58617333Y-129939428D01*
X58664952Y-130034666D01*
X58712571Y-130082285D01*
X58807809Y-130129904D01*
X59045904Y-130129904D01*
X59141142Y-130082285D01*
X59188761Y-130034666D01*
X59236380Y-129939428D01*
X59236380Y-129653714D01*
X59188761Y-129558476D01*
X59141142Y-129510857D01*
%TO.C,U401*%
X86131285Y-136456380D02*
X86131285Y-137265904D01*
X86083666Y-137361142D01*
X86036047Y-137408761D01*
X85940809Y-137456380D01*
X85750333Y-137456380D01*
X85655095Y-137408761D01*
X85607476Y-137361142D01*
X85559857Y-137265904D01*
X85559857Y-136456380D01*
X84655095Y-136789714D02*
X84655095Y-137456380D01*
X84893190Y-136408761D02*
X85131285Y-137123047D01*
X84512238Y-137123047D01*
X83940809Y-136456380D02*
X83845571Y-136456380D01*
X83750333Y-136504000D01*
X83702714Y-136551619D01*
X83655095Y-136646857D01*
X83607476Y-136837333D01*
X83607476Y-137075428D01*
X83655095Y-137265904D01*
X83702714Y-137361142D01*
X83750333Y-137408761D01*
X83845571Y-137456380D01*
X83940809Y-137456380D01*
X84036047Y-137408761D01*
X84083666Y-137361142D01*
X84131285Y-137265904D01*
X84178904Y-137075428D01*
X84178904Y-136837333D01*
X84131285Y-136646857D01*
X84083666Y-136551619D01*
X84036047Y-136504000D01*
X83940809Y-136456380D01*
X82655095Y-137456380D02*
X83226523Y-137456380D01*
X82940809Y-137456380D02*
X82940809Y-136456380D01*
X83036047Y-136599238D01*
X83131285Y-136694476D01*
X83226523Y-136742095D01*
%TO.C,U402*%
X72693380Y-120811714D02*
X73502904Y-120811714D01*
X73598142Y-120859333D01*
X73645761Y-120906952D01*
X73693380Y-121002190D01*
X73693380Y-121192666D01*
X73645761Y-121287904D01*
X73598142Y-121335523D01*
X73502904Y-121383142D01*
X72693380Y-121383142D01*
X73026714Y-122287904D02*
X73693380Y-122287904D01*
X72645761Y-122049809D02*
X73360047Y-121811714D01*
X73360047Y-122430761D01*
X72693380Y-123002190D02*
X72693380Y-123097428D01*
X72741000Y-123192666D01*
X72788619Y-123240285D01*
X72883857Y-123287904D01*
X73074333Y-123335523D01*
X73312428Y-123335523D01*
X73502904Y-123287904D01*
X73598142Y-123240285D01*
X73645761Y-123192666D01*
X73693380Y-123097428D01*
X73693380Y-123002190D01*
X73645761Y-122906952D01*
X73598142Y-122859333D01*
X73502904Y-122811714D01*
X73312428Y-122764095D01*
X73074333Y-122764095D01*
X72883857Y-122811714D01*
X72788619Y-122859333D01*
X72741000Y-122906952D01*
X72693380Y-123002190D01*
X72788619Y-123716476D02*
X72741000Y-123764095D01*
X72693380Y-123859333D01*
X72693380Y-124097428D01*
X72741000Y-124192666D01*
X72788619Y-124240285D01*
X72883857Y-124287904D01*
X72979095Y-124287904D01*
X73121952Y-124240285D01*
X73693380Y-123668857D01*
X73693380Y-124287904D01*
%TO.C,U403*%
X86131285Y-125407380D02*
X86131285Y-126216904D01*
X86083666Y-126312142D01*
X86036047Y-126359761D01*
X85940809Y-126407380D01*
X85750333Y-126407380D01*
X85655095Y-126359761D01*
X85607476Y-126312142D01*
X85559857Y-126216904D01*
X85559857Y-125407380D01*
X84655095Y-125740714D02*
X84655095Y-126407380D01*
X84893190Y-125359761D02*
X85131285Y-126074047D01*
X84512238Y-126074047D01*
X83940809Y-125407380D02*
X83845571Y-125407380D01*
X83750333Y-125455000D01*
X83702714Y-125502619D01*
X83655095Y-125597857D01*
X83607476Y-125788333D01*
X83607476Y-126026428D01*
X83655095Y-126216904D01*
X83702714Y-126312142D01*
X83750333Y-126359761D01*
X83845571Y-126407380D01*
X83940809Y-126407380D01*
X84036047Y-126359761D01*
X84083666Y-126312142D01*
X84131285Y-126216904D01*
X84178904Y-126026428D01*
X84178904Y-125788333D01*
X84131285Y-125597857D01*
X84083666Y-125502619D01*
X84036047Y-125455000D01*
X83940809Y-125407380D01*
X83274142Y-125407380D02*
X82655095Y-125407380D01*
X82988428Y-125788333D01*
X82845571Y-125788333D01*
X82750333Y-125835952D01*
X82702714Y-125883571D01*
X82655095Y-125978809D01*
X82655095Y-126216904D01*
X82702714Y-126312142D01*
X82750333Y-126359761D01*
X82845571Y-126407380D01*
X83131285Y-126407380D01*
X83226523Y-126359761D01*
X83274142Y-126312142D01*
%TO.C,U404*%
X87171380Y-120938714D02*
X87980904Y-120938714D01*
X88076142Y-120986333D01*
X88123761Y-121033952D01*
X88171380Y-121129190D01*
X88171380Y-121319666D01*
X88123761Y-121414904D01*
X88076142Y-121462523D01*
X87980904Y-121510142D01*
X87171380Y-121510142D01*
X87504714Y-122414904D02*
X88171380Y-122414904D01*
X87123761Y-122176809D02*
X87838047Y-121938714D01*
X87838047Y-122557761D01*
X87171380Y-123129190D02*
X87171380Y-123224428D01*
X87219000Y-123319666D01*
X87266619Y-123367285D01*
X87361857Y-123414904D01*
X87552333Y-123462523D01*
X87790428Y-123462523D01*
X87980904Y-123414904D01*
X88076142Y-123367285D01*
X88123761Y-123319666D01*
X88171380Y-123224428D01*
X88171380Y-123129190D01*
X88123761Y-123033952D01*
X88076142Y-122986333D01*
X87980904Y-122938714D01*
X87790428Y-122891095D01*
X87552333Y-122891095D01*
X87361857Y-122938714D01*
X87266619Y-122986333D01*
X87219000Y-123033952D01*
X87171380Y-123129190D01*
X87504714Y-124319666D02*
X88171380Y-124319666D01*
X87123761Y-124081571D02*
X87838047Y-123843476D01*
X87838047Y-124462523D01*
%TO.C,U406*%
X68829380Y-133027714D02*
X69638904Y-133027714D01*
X69734142Y-133075333D01*
X69781761Y-133122952D01*
X69829380Y-133218190D01*
X69829380Y-133408666D01*
X69781761Y-133503904D01*
X69734142Y-133551523D01*
X69638904Y-133599142D01*
X68829380Y-133599142D01*
X69162714Y-134503904D02*
X69829380Y-134503904D01*
X68781761Y-134265809D02*
X69496047Y-134027714D01*
X69496047Y-134646761D01*
X68829380Y-135218190D02*
X68829380Y-135313428D01*
X68877000Y-135408666D01*
X68924619Y-135456285D01*
X69019857Y-135503904D01*
X69210333Y-135551523D01*
X69448428Y-135551523D01*
X69638904Y-135503904D01*
X69734142Y-135456285D01*
X69781761Y-135408666D01*
X69829380Y-135313428D01*
X69829380Y-135218190D01*
X69781761Y-135122952D01*
X69734142Y-135075333D01*
X69638904Y-135027714D01*
X69448428Y-134980095D01*
X69210333Y-134980095D01*
X69019857Y-135027714D01*
X68924619Y-135075333D01*
X68877000Y-135122952D01*
X68829380Y-135218190D01*
X68829380Y-136408666D02*
X68829380Y-136218190D01*
X68877000Y-136122952D01*
X68924619Y-136075333D01*
X69067476Y-135980095D01*
X69257952Y-135932476D01*
X69638904Y-135932476D01*
X69734142Y-135980095D01*
X69781761Y-136027714D01*
X69829380Y-136122952D01*
X69829380Y-136313428D01*
X69781761Y-136408666D01*
X69734142Y-136456285D01*
X69638904Y-136503904D01*
X69400809Y-136503904D01*
X69305571Y-136456285D01*
X69257952Y-136408666D01*
X69210333Y-136313428D01*
X69210333Y-136122952D01*
X69257952Y-136027714D01*
X69305571Y-135980095D01*
X69400809Y-135932476D01*
%TO.C,C202*%
X53913047Y-124153142D02*
X53960666Y-124200761D01*
X54103523Y-124248380D01*
X54198761Y-124248380D01*
X54341619Y-124200761D01*
X54436857Y-124105523D01*
X54484476Y-124010285D01*
X54532095Y-123819809D01*
X54532095Y-123676952D01*
X54484476Y-123486476D01*
X54436857Y-123391238D01*
X54341619Y-123296000D01*
X54198761Y-123248380D01*
X54103523Y-123248380D01*
X53960666Y-123296000D01*
X53913047Y-123343619D01*
X53532095Y-123343619D02*
X53484476Y-123296000D01*
X53389238Y-123248380D01*
X53151142Y-123248380D01*
X53055904Y-123296000D01*
X53008285Y-123343619D01*
X52960666Y-123438857D01*
X52960666Y-123534095D01*
X53008285Y-123676952D01*
X53579714Y-124248380D01*
X52960666Y-124248380D01*
X52341619Y-123248380D02*
X52246380Y-123248380D01*
X52151142Y-123296000D01*
X52103523Y-123343619D01*
X52055904Y-123438857D01*
X52008285Y-123629333D01*
X52008285Y-123867428D01*
X52055904Y-124057904D01*
X52103523Y-124153142D01*
X52151142Y-124200761D01*
X52246380Y-124248380D01*
X52341619Y-124248380D01*
X52436857Y-124200761D01*
X52484476Y-124153142D01*
X52532095Y-124057904D01*
X52579714Y-123867428D01*
X52579714Y-123629333D01*
X52532095Y-123438857D01*
X52484476Y-123343619D01*
X52436857Y-123296000D01*
X52341619Y-123248380D01*
X51627333Y-123343619D02*
X51579714Y-123296000D01*
X51484476Y-123248380D01*
X51246380Y-123248380D01*
X51151142Y-123296000D01*
X51103523Y-123343619D01*
X51055904Y-123438857D01*
X51055904Y-123534095D01*
X51103523Y-123676952D01*
X51674952Y-124248380D01*
X51055904Y-124248380D01*
%TO.C,C203*%
X52008142Y-133090952D02*
X52055761Y-133043333D01*
X52103380Y-132900476D01*
X52103380Y-132805238D01*
X52055761Y-132662380D01*
X51960523Y-132567142D01*
X51865285Y-132519523D01*
X51674809Y-132471904D01*
X51531952Y-132471904D01*
X51341476Y-132519523D01*
X51246238Y-132567142D01*
X51151000Y-132662380D01*
X51103380Y-132805238D01*
X51103380Y-132900476D01*
X51151000Y-133043333D01*
X51198619Y-133090952D01*
X51198619Y-133471904D02*
X51151000Y-133519523D01*
X51103380Y-133614761D01*
X51103380Y-133852857D01*
X51151000Y-133948095D01*
X51198619Y-133995714D01*
X51293857Y-134043333D01*
X51389095Y-134043333D01*
X51531952Y-133995714D01*
X52103380Y-133424285D01*
X52103380Y-134043333D01*
X51103380Y-134662380D02*
X51103380Y-134757619D01*
X51151000Y-134852857D01*
X51198619Y-134900476D01*
X51293857Y-134948095D01*
X51484333Y-134995714D01*
X51722428Y-134995714D01*
X51912904Y-134948095D01*
X52008142Y-134900476D01*
X52055761Y-134852857D01*
X52103380Y-134757619D01*
X52103380Y-134662380D01*
X52055761Y-134567142D01*
X52008142Y-134519523D01*
X51912904Y-134471904D01*
X51722428Y-134424285D01*
X51484333Y-134424285D01*
X51293857Y-134471904D01*
X51198619Y-134519523D01*
X51151000Y-134567142D01*
X51103380Y-134662380D01*
X51103380Y-135329047D02*
X51103380Y-135948095D01*
X51484333Y-135614761D01*
X51484333Y-135757619D01*
X51531952Y-135852857D01*
X51579571Y-135900476D01*
X51674809Y-135948095D01*
X51912904Y-135948095D01*
X52008142Y-135900476D01*
X52055761Y-135852857D01*
X52103380Y-135757619D01*
X52103380Y-135471904D01*
X52055761Y-135376666D01*
X52008142Y-135329047D01*
%TD*%
M02*
