M48
; DRILL file {KiCad (5.1.7)-1} date 01/20/21 17:17:43
; FORMAT={-:-/ absolute / inch / decimal}
; #@! TF.CreationDate,2021-01-20T17:17:43-05:00
; #@! TF.GenerationSoftware,Kicad,Pcbnew,(5.1.7)-1
; #@! TF.FileFunction,Plated,1,4,PTH
FMAT,2
INCH
T1C0.0157
T2C0.0217
T3C0.0394
%
G90
G05
T1
X2.0735Y-5.2439
X2.0935Y-4.4389
X2.1035Y-4.1989
X2.1035Y-4.5989
X2.1535Y-5.0339
X2.2585Y-4.7889
X2.3225Y-5.1572
X2.325Y-4.9847
X2.3375Y-5.3447
X2.3585Y-4.4639
X2.4Y-5.3447
X2.4085Y-4.4639
X2.495Y-4.9847
X2.5185Y-5.4289
X2.5385Y-4.7239
X2.5397Y-4.6461
X2.549Y-5.1383
X2.6435Y-5.0389
X2.6685Y-4.6789
X2.6985Y-4.5489
X2.7035Y-5.4289
X2.7285Y-4.8539
X2.7685Y-5.3439
X2.7759Y-4.6811
X2.8435Y-4.3289
X2.8547Y-4.5261
X2.8835Y-4.9789
X2.9035Y-4.7239
X3.0135Y-4.8239
X3.0549Y-5.002
X3.0621Y-4.7374
X3.0774Y-5.3389
X3.0835Y-4.5439
X3.1385Y-5.3389
X3.1935Y-5.3986
X3.2146Y-4.5455
X3.2335Y-5.3689
X3.2585Y-5.0639
X3.2885Y-4.9089
X3.3535Y-4.3289
X3.3585Y-4.9489
X3.3684Y-4.5261
X3.3735Y-4.5889
X3.3885Y-5.0639
X3.4735Y-4.3289
X3.4814Y-4.2726
X3.4885Y-5.0739
X3.5532Y-4.7376
X3.5535Y-4.6289
X3.5535Y-4.6839
X3.5535Y-5.2139
X3.5685Y-4.9078
X3.5685Y-4.9889
X3.5935Y-4.8239
X3.5985Y-5.2739
X3.61Y-4.5939
X3.6235Y-5.0789
X3.6485Y-5.3739
X3.6535Y-5.1189
X3.6783Y-4.5689
X3.6985Y-4.3539
X3.6985Y-4.5289
X3.7135Y-4.3989
X3.7185Y-4.5939
X3.7885Y-5.2739
X3.8385Y-4.7789
X3.8385Y-4.8239
X3.8385Y-4.8689
X3.8435Y-5.4739
X3.8561Y-5.2789
X3.8785Y-4.5939
X3.9035Y-5.2789
X3.9291Y-5.0439
X3.9435Y-5.3689
X3.9685Y-5.0439
X3.9708Y-4.6033
X3.9785Y-5.2739
X3.9885Y-4.4639
X3.9885Y-4.5032
X3.9885Y-4.5439
X3.995Y-4.798
X3.995Y-4.8489
T2
X3.252Y-4.7874
X3.252Y-4.8583
X3.3228Y-4.7874
X3.3228Y-4.8583
T3
X2.0457Y-5.4331
X2.1457Y-5.4331
T0
M30
