%TF.GenerationSoftware,KiCad,Pcbnew,(5.1.7)-1*%
%TF.CreationDate,2021-01-20T17:17:38-05:00*%
%TF.ProjectId,SYSC4907_REV2,53595343-3439-4303-975f-524556322e6b,rev?*%
%TF.SameCoordinates,Original*%
%TF.FileFunction,Copper,L1,Top*%
%TF.FilePolarity,Positive*%
%FSLAX46Y46*%
G04 Gerber Fmt 4.6, Leading zero omitted, Abs format (unit mm)*
G04 Created by KiCad (PCBNEW (5.1.7)-1) date 2021-01-20 17:17:38*
%MOMM*%
%LPD*%
G01*
G04 APERTURE LIST*
%TA.AperFunction,EtchedComponent*%
%ADD10C,0.100000*%
%TD*%
%TA.AperFunction,SMDPad,CuDef*%
%ADD11R,1.000000X1.000000*%
%TD*%
%TA.AperFunction,SMDPad,CuDef*%
%ADD12R,1.150000X0.300000*%
%TD*%
%TA.AperFunction,SMDPad,CuDef*%
%ADD13R,1.150000X0.600000*%
%TD*%
%TA.AperFunction,SMDPad,CuDef*%
%ADD14R,2.000000X2.180000*%
%TD*%
%TA.AperFunction,SMDPad,CuDef*%
%ADD15R,2.400000X0.740000*%
%TD*%
%TA.AperFunction,SMDPad,CuDef*%
%ADD16R,1.000000X1.500000*%
%TD*%
%TA.AperFunction,SMDPad,CuDef*%
%ADD17R,1.500000X1.000000*%
%TD*%
%TA.AperFunction,SMDPad,CuDef*%
%ADD18R,2.900000X1.800000*%
%TD*%
%TA.AperFunction,SMDPad,CuDef*%
%ADD19R,0.400000X0.510000*%
%TD*%
%TA.AperFunction,SMDPad,CuDef*%
%ADD20R,1.050000X1.400000*%
%TD*%
%TA.AperFunction,SMDPad,CuDef*%
%ADD21C,1.000000*%
%TD*%
%TA.AperFunction,SMDPad,CuDef*%
%ADD22R,1.060000X0.650000*%
%TD*%
%TA.AperFunction,SMDPad,CuDef*%
%ADD23R,2.700000X2.700000*%
%TD*%
%TA.AperFunction,SMDPad,CuDef*%
%ADD24R,0.650000X1.220000*%
%TD*%
%TA.AperFunction,SMDPad,CuDef*%
%ADD25R,0.650000X1.060000*%
%TD*%
%TA.AperFunction,ComponentPad*%
%ADD26C,1.500000*%
%TD*%
%TA.AperFunction,SMDPad,CuDef*%
%ADD27R,0.300000X0.800000*%
%TD*%
%TA.AperFunction,SMDPad,CuDef*%
%ADD28R,0.800000X0.300000*%
%TD*%
%TA.AperFunction,ComponentPad*%
%ADD29R,1.700000X1.700000*%
%TD*%
%TA.AperFunction,ComponentPad*%
%ADD30O,1.700000X1.700000*%
%TD*%
%TA.AperFunction,ViaPad*%
%ADD31C,0.800000*%
%TD*%
%TA.AperFunction,Conductor*%
%ADD32C,0.500000*%
%TD*%
%TA.AperFunction,Conductor*%
%ADD33C,0.250000*%
%TD*%
%TA.AperFunction,Conductor*%
%ADD34C,1.000000*%
%TD*%
G04 APERTURE END LIST*
D10*
%TO.C,JP301*%
G36*
X56392000Y-128724000D02*
G01*
X56892000Y-128724000D01*
X56892000Y-129324000D01*
X56392000Y-129324000D01*
X56392000Y-128724000D01*
G37*
%TO.C,JP303*%
G36*
X56892000Y-134658000D02*
G01*
X56392000Y-134658000D01*
X56392000Y-134058000D01*
X56892000Y-134058000D01*
X56892000Y-134658000D01*
G37*
%TO.C,JP305*%
G36*
X67861000Y-133586000D02*
G01*
X67861000Y-133086000D01*
X68461000Y-133086000D01*
X68461000Y-133586000D01*
X67861000Y-133586000D01*
G37*
%TO.C,JP306*%
G36*
X74876000Y-112104000D02*
G01*
X74876000Y-111604000D01*
X75476000Y-111604000D01*
X75476000Y-112104000D01*
X74876000Y-112104000D01*
G37*
%TO.C,JP307*%
G36*
X87876000Y-112104000D02*
G01*
X87876000Y-111604000D01*
X88476000Y-111604000D01*
X88476000Y-112104000D01*
X87876000Y-112104000D01*
G37*
%TO.C,JP308*%
G36*
X75135500Y-129714500D02*
G01*
X75135500Y-129214500D01*
X75735500Y-129214500D01*
X75735500Y-129714500D01*
X75135500Y-129714500D01*
G37*
%TD*%
%TO.P,C301,2*%
%TO.N,Net-(C301-Pad2)*%
%TA.AperFunction,SMDPad,CuDef*%
G36*
G01*
X56967000Y-127102500D02*
X56967000Y-126627500D01*
G75*
G02*
X57204500Y-126390000I237500J0D01*
G01*
X57804500Y-126390000D01*
G75*
G02*
X58042000Y-126627500I0J-237500D01*
G01*
X58042000Y-127102500D01*
G75*
G02*
X57804500Y-127340000I-237500J0D01*
G01*
X57204500Y-127340000D01*
G75*
G02*
X56967000Y-127102500I0J237500D01*
G01*
G37*
%TD.AperFunction*%
%TO.P,C301,1*%
%TO.N,GND*%
%TA.AperFunction,SMDPad,CuDef*%
G36*
G01*
X55242000Y-127102500D02*
X55242000Y-126627500D01*
G75*
G02*
X55479500Y-126390000I237500J0D01*
G01*
X56079500Y-126390000D01*
G75*
G02*
X56317000Y-126627500I0J-237500D01*
G01*
X56317000Y-127102500D01*
G75*
G02*
X56079500Y-127340000I-237500J0D01*
G01*
X55479500Y-127340000D01*
G75*
G02*
X55242000Y-127102500I0J237500D01*
G01*
G37*
%TD.AperFunction*%
%TD*%
%TO.P,C302,1*%
%TO.N,+5V*%
%TA.AperFunction,SMDPad,CuDef*%
G36*
G01*
X71603500Y-113254000D02*
X71128500Y-113254000D01*
G75*
G02*
X70891000Y-113016500I0J237500D01*
G01*
X70891000Y-112416500D01*
G75*
G02*
X71128500Y-112179000I237500J0D01*
G01*
X71603500Y-112179000D01*
G75*
G02*
X71841000Y-112416500I0J-237500D01*
G01*
X71841000Y-113016500D01*
G75*
G02*
X71603500Y-113254000I-237500J0D01*
G01*
G37*
%TD.AperFunction*%
%TO.P,C302,2*%
%TO.N,GND*%
%TA.AperFunction,SMDPad,CuDef*%
G36*
G01*
X71603500Y-111529000D02*
X71128500Y-111529000D01*
G75*
G02*
X70891000Y-111291500I0J237500D01*
G01*
X70891000Y-110691500D01*
G75*
G02*
X71128500Y-110454000I237500J0D01*
G01*
X71603500Y-110454000D01*
G75*
G02*
X71841000Y-110691500I0J-237500D01*
G01*
X71841000Y-111291500D01*
G75*
G02*
X71603500Y-111529000I-237500J0D01*
G01*
G37*
%TD.AperFunction*%
%TD*%
%TO.P,C303,1*%
%TO.N,GND*%
%TA.AperFunction,SMDPad,CuDef*%
G36*
G01*
X59610000Y-134742000D02*
X59135000Y-134742000D01*
G75*
G02*
X58897500Y-134504500I0J237500D01*
G01*
X58897500Y-133904500D01*
G75*
G02*
X59135000Y-133667000I237500J0D01*
G01*
X59610000Y-133667000D01*
G75*
G02*
X59847500Y-133904500I0J-237500D01*
G01*
X59847500Y-134504500D01*
G75*
G02*
X59610000Y-134742000I-237500J0D01*
G01*
G37*
%TD.AperFunction*%
%TO.P,C303,2*%
%TO.N,Net-(C303-Pad2)*%
%TA.AperFunction,SMDPad,CuDef*%
G36*
G01*
X59610000Y-133017000D02*
X59135000Y-133017000D01*
G75*
G02*
X58897500Y-132779500I0J237500D01*
G01*
X58897500Y-132179500D01*
G75*
G02*
X59135000Y-131942000I237500J0D01*
G01*
X59610000Y-131942000D01*
G75*
G02*
X59847500Y-132179500I0J-237500D01*
G01*
X59847500Y-132779500D01*
G75*
G02*
X59610000Y-133017000I-237500J0D01*
G01*
G37*
%TD.AperFunction*%
%TD*%
%TO.P,C304,2*%
%TO.N,Net-(C304-Pad2)*%
%TA.AperFunction,SMDPad,CuDef*%
G36*
G01*
X68047500Y-115085000D02*
X67572500Y-115085000D01*
G75*
G02*
X67335000Y-114847500I0J237500D01*
G01*
X67335000Y-114247500D01*
G75*
G02*
X67572500Y-114010000I237500J0D01*
G01*
X68047500Y-114010000D01*
G75*
G02*
X68285000Y-114247500I0J-237500D01*
G01*
X68285000Y-114847500D01*
G75*
G02*
X68047500Y-115085000I-237500J0D01*
G01*
G37*
%TD.AperFunction*%
%TO.P,C304,1*%
%TO.N,Net-(C304-Pad1)*%
%TA.AperFunction,SMDPad,CuDef*%
G36*
G01*
X68047500Y-116810000D02*
X67572500Y-116810000D01*
G75*
G02*
X67335000Y-116572500I0J237500D01*
G01*
X67335000Y-115972500D01*
G75*
G02*
X67572500Y-115735000I237500J0D01*
G01*
X68047500Y-115735000D01*
G75*
G02*
X68285000Y-115972500I0J-237500D01*
G01*
X68285000Y-116572500D01*
G75*
G02*
X68047500Y-116810000I-237500J0D01*
G01*
G37*
%TD.AperFunction*%
%TD*%
%TO.P,C305,1*%
%TO.N,Net-(C304-Pad1)*%
%TA.AperFunction,SMDPad,CuDef*%
G36*
G01*
X73254500Y-113254000D02*
X72779500Y-113254000D01*
G75*
G02*
X72542000Y-113016500I0J237500D01*
G01*
X72542000Y-112416500D01*
G75*
G02*
X72779500Y-112179000I237500J0D01*
G01*
X73254500Y-112179000D01*
G75*
G02*
X73492000Y-112416500I0J-237500D01*
G01*
X73492000Y-113016500D01*
G75*
G02*
X73254500Y-113254000I-237500J0D01*
G01*
G37*
%TD.AperFunction*%
%TO.P,C305,2*%
%TO.N,GND*%
%TA.AperFunction,SMDPad,CuDef*%
G36*
G01*
X73254500Y-111529000D02*
X72779500Y-111529000D01*
G75*
G02*
X72542000Y-111291500I0J237500D01*
G01*
X72542000Y-110691500D01*
G75*
G02*
X72779500Y-110454000I237500J0D01*
G01*
X73254500Y-110454000D01*
G75*
G02*
X73492000Y-110691500I0J-237500D01*
G01*
X73492000Y-111291500D01*
G75*
G02*
X73254500Y-111529000I-237500J0D01*
G01*
G37*
%TD.AperFunction*%
%TD*%
%TO.P,C306,2*%
%TO.N,GND*%
%TA.AperFunction,SMDPad,CuDef*%
G36*
G01*
X55990500Y-123873000D02*
X55515500Y-123873000D01*
G75*
G02*
X55278000Y-123635500I0J237500D01*
G01*
X55278000Y-123035500D01*
G75*
G02*
X55515500Y-122798000I237500J0D01*
G01*
X55990500Y-122798000D01*
G75*
G02*
X56228000Y-123035500I0J-237500D01*
G01*
X56228000Y-123635500D01*
G75*
G02*
X55990500Y-123873000I-237500J0D01*
G01*
G37*
%TD.AperFunction*%
%TO.P,C306,1*%
%TO.N,VBAT_MEAS*%
%TA.AperFunction,SMDPad,CuDef*%
G36*
G01*
X55990500Y-125598000D02*
X55515500Y-125598000D01*
G75*
G02*
X55278000Y-125360500I0J237500D01*
G01*
X55278000Y-124760500D01*
G75*
G02*
X55515500Y-124523000I237500J0D01*
G01*
X55990500Y-124523000D01*
G75*
G02*
X56228000Y-124760500I0J-237500D01*
G01*
X56228000Y-125360500D01*
G75*
G02*
X55990500Y-125598000I-237500J0D01*
G01*
G37*
%TD.AperFunction*%
%TD*%
%TO.P,C307,2*%
%TO.N,GND*%
%TA.AperFunction,SMDPad,CuDef*%
G36*
G01*
X84603500Y-111529000D02*
X84128500Y-111529000D01*
G75*
G02*
X83891000Y-111291500I0J237500D01*
G01*
X83891000Y-110691500D01*
G75*
G02*
X84128500Y-110454000I237500J0D01*
G01*
X84603500Y-110454000D01*
G75*
G02*
X84841000Y-110691500I0J-237500D01*
G01*
X84841000Y-111291500D01*
G75*
G02*
X84603500Y-111529000I-237500J0D01*
G01*
G37*
%TD.AperFunction*%
%TO.P,C307,1*%
%TO.N,+5V*%
%TA.AperFunction,SMDPad,CuDef*%
G36*
G01*
X84603500Y-113254000D02*
X84128500Y-113254000D01*
G75*
G02*
X83891000Y-113016500I0J237500D01*
G01*
X83891000Y-112416500D01*
G75*
G02*
X84128500Y-112179000I237500J0D01*
G01*
X84603500Y-112179000D01*
G75*
G02*
X84841000Y-112416500I0J-237500D01*
G01*
X84841000Y-113016500D01*
G75*
G02*
X84603500Y-113254000I-237500J0D01*
G01*
G37*
%TD.AperFunction*%
%TD*%
%TO.P,C308,2*%
%TO.N,GND*%
%TA.AperFunction,SMDPad,CuDef*%
G36*
G01*
X87420500Y-133076500D02*
X86945500Y-133076500D01*
G75*
G02*
X86708000Y-132839000I0J237500D01*
G01*
X86708000Y-132239000D01*
G75*
G02*
X86945500Y-132001500I237500J0D01*
G01*
X87420500Y-132001500D01*
G75*
G02*
X87658000Y-132239000I0J-237500D01*
G01*
X87658000Y-132839000D01*
G75*
G02*
X87420500Y-133076500I-237500J0D01*
G01*
G37*
%TD.AperFunction*%
%TO.P,C308,1*%
%TO.N,POWER_SW*%
%TA.AperFunction,SMDPad,CuDef*%
G36*
G01*
X87420500Y-134801500D02*
X86945500Y-134801500D01*
G75*
G02*
X86708000Y-134564000I0J237500D01*
G01*
X86708000Y-133964000D01*
G75*
G02*
X86945500Y-133726500I237500J0D01*
G01*
X87420500Y-133726500D01*
G75*
G02*
X87658000Y-133964000I0J-237500D01*
G01*
X87658000Y-134564000D01*
G75*
G02*
X87420500Y-134801500I-237500J0D01*
G01*
G37*
%TD.AperFunction*%
%TD*%
%TO.P,C309,1*%
%TO.N,Net-(C309-Pad1)*%
%TA.AperFunction,SMDPad,CuDef*%
G36*
G01*
X81047500Y-116810000D02*
X80572500Y-116810000D01*
G75*
G02*
X80335000Y-116572500I0J237500D01*
G01*
X80335000Y-115972500D01*
G75*
G02*
X80572500Y-115735000I237500J0D01*
G01*
X81047500Y-115735000D01*
G75*
G02*
X81285000Y-115972500I0J-237500D01*
G01*
X81285000Y-116572500D01*
G75*
G02*
X81047500Y-116810000I-237500J0D01*
G01*
G37*
%TD.AperFunction*%
%TO.P,C309,2*%
%TO.N,Net-(C309-Pad2)*%
%TA.AperFunction,SMDPad,CuDef*%
G36*
G01*
X81047500Y-115085000D02*
X80572500Y-115085000D01*
G75*
G02*
X80335000Y-114847500I0J237500D01*
G01*
X80335000Y-114247500D01*
G75*
G02*
X80572500Y-114010000I237500J0D01*
G01*
X81047500Y-114010000D01*
G75*
G02*
X81285000Y-114247500I0J-237500D01*
G01*
X81285000Y-114847500D01*
G75*
G02*
X81047500Y-115085000I-237500J0D01*
G01*
G37*
%TD.AperFunction*%
%TD*%
%TO.P,C310,2*%
%TO.N,GND*%
%TA.AperFunction,SMDPad,CuDef*%
G36*
G01*
X73514000Y-129139500D02*
X73039000Y-129139500D01*
G75*
G02*
X72801500Y-128902000I0J237500D01*
G01*
X72801500Y-128302000D01*
G75*
G02*
X73039000Y-128064500I237500J0D01*
G01*
X73514000Y-128064500D01*
G75*
G02*
X73751500Y-128302000I0J-237500D01*
G01*
X73751500Y-128902000D01*
G75*
G02*
X73514000Y-129139500I-237500J0D01*
G01*
G37*
%TD.AperFunction*%
%TO.P,C310,1*%
%TO.N,Net-(C310-Pad1)*%
%TA.AperFunction,SMDPad,CuDef*%
G36*
G01*
X73514000Y-130864500D02*
X73039000Y-130864500D01*
G75*
G02*
X72801500Y-130627000I0J237500D01*
G01*
X72801500Y-130027000D01*
G75*
G02*
X73039000Y-129789500I237500J0D01*
G01*
X73514000Y-129789500D01*
G75*
G02*
X73751500Y-130027000I0J-237500D01*
G01*
X73751500Y-130627000D01*
G75*
G02*
X73514000Y-130864500I-237500J0D01*
G01*
G37*
%TD.AperFunction*%
%TD*%
%TO.P,C311,1*%
%TO.N,Net-(C309-Pad1)*%
%TA.AperFunction,SMDPad,CuDef*%
G36*
G01*
X86254500Y-113254000D02*
X85779500Y-113254000D01*
G75*
G02*
X85542000Y-113016500I0J237500D01*
G01*
X85542000Y-112416500D01*
G75*
G02*
X85779500Y-112179000I237500J0D01*
G01*
X86254500Y-112179000D01*
G75*
G02*
X86492000Y-112416500I0J-237500D01*
G01*
X86492000Y-113016500D01*
G75*
G02*
X86254500Y-113254000I-237500J0D01*
G01*
G37*
%TD.AperFunction*%
%TO.P,C311,2*%
%TO.N,GND*%
%TA.AperFunction,SMDPad,CuDef*%
G36*
G01*
X86254500Y-111529000D02*
X85779500Y-111529000D01*
G75*
G02*
X85542000Y-111291500I0J237500D01*
G01*
X85542000Y-110691500D01*
G75*
G02*
X85779500Y-110454000I237500J0D01*
G01*
X86254500Y-110454000D01*
G75*
G02*
X86492000Y-110691500I0J-237500D01*
G01*
X86492000Y-111291500D01*
G75*
G02*
X86254500Y-111529000I-237500J0D01*
G01*
G37*
%TD.AperFunction*%
%TD*%
%TO.P,C312,2*%
%TO.N,GND*%
%TA.AperFunction,SMDPad,CuDef*%
G36*
G01*
X77832000Y-129139500D02*
X77357000Y-129139500D01*
G75*
G02*
X77119500Y-128902000I0J237500D01*
G01*
X77119500Y-128302000D01*
G75*
G02*
X77357000Y-128064500I237500J0D01*
G01*
X77832000Y-128064500D01*
G75*
G02*
X78069500Y-128302000I0J-237500D01*
G01*
X78069500Y-128902000D01*
G75*
G02*
X77832000Y-129139500I-237500J0D01*
G01*
G37*
%TD.AperFunction*%
%TO.P,C312,1*%
%TO.N,Net-(C312-Pad1)*%
%TA.AperFunction,SMDPad,CuDef*%
G36*
G01*
X77832000Y-130864500D02*
X77357000Y-130864500D01*
G75*
G02*
X77119500Y-130627000I0J237500D01*
G01*
X77119500Y-130027000D01*
G75*
G02*
X77357000Y-129789500I237500J0D01*
G01*
X77832000Y-129789500D01*
G75*
G02*
X78069500Y-130027000I0J-237500D01*
G01*
X78069500Y-130627000D01*
G75*
G02*
X77832000Y-130864500I-237500J0D01*
G01*
G37*
%TD.AperFunction*%
%TD*%
%TO.P,C415,2*%
%TO.N,GND*%
%TA.AperFunction,SMDPad,CuDef*%
G36*
G01*
X87663000Y-123017500D02*
X87663000Y-122542500D01*
G75*
G02*
X87900500Y-122305000I237500J0D01*
G01*
X88500500Y-122305000D01*
G75*
G02*
X88738000Y-122542500I0J-237500D01*
G01*
X88738000Y-123017500D01*
G75*
G02*
X88500500Y-123255000I-237500J0D01*
G01*
X87900500Y-123255000D01*
G75*
G02*
X87663000Y-123017500I0J237500D01*
G01*
G37*
%TD.AperFunction*%
%TO.P,C415,1*%
%TO.N,AMB_TEMP*%
%TA.AperFunction,SMDPad,CuDef*%
G36*
G01*
X85938000Y-123017500D02*
X85938000Y-122542500D01*
G75*
G02*
X86175500Y-122305000I237500J0D01*
G01*
X86775500Y-122305000D01*
G75*
G02*
X87013000Y-122542500I0J-237500D01*
G01*
X87013000Y-123017500D01*
G75*
G02*
X86775500Y-123255000I-237500J0D01*
G01*
X86175500Y-123255000D01*
G75*
G02*
X85938000Y-123017500I0J237500D01*
G01*
G37*
%TD.AperFunction*%
%TD*%
%TO.P,C416,1*%
%TO.N,+1V8*%
%TA.AperFunction,SMDPad,CuDef*%
G36*
G01*
X94687500Y-134086000D02*
X94212500Y-134086000D01*
G75*
G02*
X93975000Y-133848500I0J237500D01*
G01*
X93975000Y-133248500D01*
G75*
G02*
X94212500Y-133011000I237500J0D01*
G01*
X94687500Y-133011000D01*
G75*
G02*
X94925000Y-133248500I0J-237500D01*
G01*
X94925000Y-133848500D01*
G75*
G02*
X94687500Y-134086000I-237500J0D01*
G01*
G37*
%TD.AperFunction*%
%TO.P,C416,2*%
%TO.N,GND*%
%TA.AperFunction,SMDPad,CuDef*%
G36*
G01*
X94687500Y-132361000D02*
X94212500Y-132361000D01*
G75*
G02*
X93975000Y-132123500I0J237500D01*
G01*
X93975000Y-131523500D01*
G75*
G02*
X94212500Y-131286000I237500J0D01*
G01*
X94687500Y-131286000D01*
G75*
G02*
X94925000Y-131523500I0J-237500D01*
G01*
X94925000Y-132123500D01*
G75*
G02*
X94687500Y-132361000I-237500J0D01*
G01*
G37*
%TD.AperFunction*%
%TD*%
%TO.P,C417,2*%
%TO.N,GND*%
%TA.AperFunction,SMDPad,CuDef*%
G36*
G01*
X93036500Y-132361000D02*
X92561500Y-132361000D01*
G75*
G02*
X92324000Y-132123500I0J237500D01*
G01*
X92324000Y-131523500D01*
G75*
G02*
X92561500Y-131286000I237500J0D01*
G01*
X93036500Y-131286000D01*
G75*
G02*
X93274000Y-131523500I0J-237500D01*
G01*
X93274000Y-132123500D01*
G75*
G02*
X93036500Y-132361000I-237500J0D01*
G01*
G37*
%TD.AperFunction*%
%TO.P,C417,1*%
%TO.N,+1V8*%
%TA.AperFunction,SMDPad,CuDef*%
G36*
G01*
X93036500Y-134086000D02*
X92561500Y-134086000D01*
G75*
G02*
X92324000Y-133848500I0J237500D01*
G01*
X92324000Y-133248500D01*
G75*
G02*
X92561500Y-133011000I237500J0D01*
G01*
X93036500Y-133011000D01*
G75*
G02*
X93274000Y-133248500I0J-237500D01*
G01*
X93274000Y-133848500D01*
G75*
G02*
X93036500Y-134086000I-237500J0D01*
G01*
G37*
%TD.AperFunction*%
%TD*%
%TO.P,C418,2*%
%TO.N,+1V8*%
%TA.AperFunction,SMDPad,CuDef*%
G36*
G01*
X100490000Y-139273500D02*
X100490000Y-138798500D01*
G75*
G02*
X100727500Y-138561000I237500J0D01*
G01*
X101327500Y-138561000D01*
G75*
G02*
X101565000Y-138798500I0J-237500D01*
G01*
X101565000Y-139273500D01*
G75*
G02*
X101327500Y-139511000I-237500J0D01*
G01*
X100727500Y-139511000D01*
G75*
G02*
X100490000Y-139273500I0J237500D01*
G01*
G37*
%TD.AperFunction*%
%TO.P,C418,1*%
%TO.N,GND*%
%TA.AperFunction,SMDPad,CuDef*%
G36*
G01*
X98765000Y-139273500D02*
X98765000Y-138798500D01*
G75*
G02*
X99002500Y-138561000I237500J0D01*
G01*
X99602500Y-138561000D01*
G75*
G02*
X99840000Y-138798500I0J-237500D01*
G01*
X99840000Y-139273500D01*
G75*
G02*
X99602500Y-139511000I-237500J0D01*
G01*
X99002500Y-139511000D01*
G75*
G02*
X98765000Y-139273500I0J237500D01*
G01*
G37*
%TD.AperFunction*%
%TD*%
D11*
%TO.P,D301,2*%
%TO.N,Net-(D301-Pad2)*%
X91890000Y-126717000D03*
%TO.P,D301,1*%
%TO.N,Net-(D301-Pad1)*%
X89390000Y-126717000D03*
%TD*%
%TO.P,D302,1*%
%TO.N,Net-(D301-Pad1)*%
X89390000Y-124658501D03*
%TO.P,D302,2*%
%TO.N,POWER_ON*%
X91890000Y-124658501D03*
%TD*%
D12*
%TO.P,J201,6*%
%TO.N,Net-(J201-Pad6)*%
X56000000Y-111500000D03*
%TO.P,J201,7*%
%TO.N,Net-(J201-Pad5)*%
X56000000Y-112000000D03*
%TO.P,J201,8*%
%TO.N,Net-(J201-Pad6)*%
X56000000Y-112500000D03*
%TO.P,J201,9*%
%TO.N,Net-(J201-Pad9)*%
X56000000Y-113000000D03*
%TO.P,J201,10*%
%TO.N,Net-(J201-Pad10)*%
X56000000Y-113500000D03*
%TO.P,J201,5*%
%TO.N,Net-(J201-Pad5)*%
X56000000Y-111000000D03*
%TO.P,J201,4*%
%TO.N,Net-(J201-Pad4)*%
X56000000Y-110500000D03*
%TO.P,J201,3*%
%TO.N,Net-(J201-Pad3)*%
X56000000Y-110000000D03*
D13*
%TO.P,J201,2*%
%TO.N,VBUS*%
X56000000Y-109350000D03*
%TO.P,J201,11*%
X56000000Y-114150000D03*
%TO.P,J201,12*%
%TO.N,GND*%
X56000000Y-114950000D03*
%TO.P,J201,1*%
X56000000Y-108550000D03*
D14*
X55425000Y-106640000D03*
X55425000Y-116860000D03*
X51495000Y-116860000D03*
X51495000Y-106640000D03*
%TD*%
D15*
%TO.P,J202,1*%
%TO.N,+1V8*%
X95550000Y-119960000D03*
%TO.P,J202,2*%
%TO.N,Net-(J202-Pad2)*%
X99450000Y-119960000D03*
%TO.P,J202,3*%
%TO.N,GND*%
X95550000Y-121230000D03*
%TO.P,J202,4*%
%TO.N,Net-(J202-Pad4)*%
X99450000Y-121230000D03*
%TO.P,J202,5*%
%TO.N,GND*%
X95550000Y-122500000D03*
%TO.P,J202,6*%
%TO.N,Net-(J202-Pad6)*%
X99450000Y-122500000D03*
%TO.P,J202,7*%
%TO.N,Net-(J202-Pad7)*%
X95550000Y-123770000D03*
%TO.P,J202,8*%
%TO.N,Net-(J202-Pad8)*%
X99450000Y-123770000D03*
%TO.P,J202,9*%
%TO.N,GND*%
X95550000Y-125040000D03*
%TO.P,J202,10*%
%TO.N,Net-(J202-Pad10)*%
X99450000Y-125040000D03*
%TD*%
D16*
%TO.P,JP301,1*%
%TO.N,VBUS*%
X55992000Y-129024000D03*
%TO.P,JP301,2*%
%TO.N,Net-(C301-Pad2)*%
X57292000Y-129024000D03*
%TD*%
%TO.P,JP302,2*%
%TO.N,Net-(C310-Pad1)*%
X57292000Y-131691000D03*
%TO.P,JP302,1*%
%TO.N,VBUS*%
X55992000Y-131691000D03*
%TD*%
%TO.P,JP303,2*%
%TO.N,Net-(C310-Pad1)*%
X55992000Y-134358000D03*
%TO.P,JP303,1*%
%TO.N,Net-(C303-Pad2)*%
X57292000Y-134358000D03*
%TD*%
D17*
%TO.P,JP304,1*%
%TO.N,Net-(JP304-Pad1)*%
X70866000Y-132692000D03*
%TO.P,JP304,2*%
%TO.N,+1V8*%
X70866000Y-133992000D03*
%TD*%
%TO.P,JP305,1*%
%TO.N,Net-(JP304-Pad1)*%
X68161000Y-133986000D03*
%TO.P,JP305,2*%
%TO.N,FAST_CHARGE*%
X68161000Y-132686000D03*
%TD*%
%TO.P,JP306,2*%
%TO.N,+3V3*%
X75176000Y-111204000D03*
%TO.P,JP306,1*%
%TO.N,Net-(C304-Pad1)*%
X75176000Y-112504000D03*
%TD*%
%TO.P,JP307,1*%
%TO.N,Net-(C309-Pad1)*%
X88176000Y-112504000D03*
%TO.P,JP307,2*%
%TO.N,+1V8*%
X88176000Y-111204000D03*
%TD*%
%TO.P,JP308,2*%
%TO.N,+5V*%
X75435500Y-128814500D03*
%TO.P,JP308,1*%
%TO.N,Net-(C312-Pad1)*%
X75435500Y-130114500D03*
%TD*%
D18*
%TO.P,L301,1*%
%TO.N,Net-(C304-Pad1)*%
X74668000Y-114953000D03*
%TO.P,L301,2*%
%TO.N,Net-(L301-Pad2)*%
X74668000Y-118153000D03*
%TD*%
%TO.P,L302,1*%
%TO.N,Net-(C309-Pad1)*%
X87668000Y-114953000D03*
%TO.P,L302,2*%
%TO.N,Net-(L302-Pad2)*%
X87668000Y-118153000D03*
%TD*%
%TO.P,L303,2*%
%TO.N,Net-(L303-Pad2)*%
X74356000Y-135636500D03*
%TO.P,L303,1*%
%TO.N,Net-(C310-Pad1)*%
X74356000Y-132436500D03*
%TD*%
D19*
%TO.P,Q201,2*%
%TO.N,GND*%
X96728000Y-112376000D03*
%TO.P,Q201,3*%
%TO.N,Net-(Q201-Pad3)*%
X96228000Y-111086000D03*
%TO.P,Q201,1*%
%TO.N,LED_B*%
X95728000Y-112376000D03*
%TD*%
%TO.P,Q202,1*%
%TO.N,LED_G*%
X98014000Y-112376000D03*
%TO.P,Q202,3*%
%TO.N,Net-(Q202-Pad3)*%
X98514000Y-111086000D03*
%TO.P,Q202,2*%
%TO.N,GND*%
X99014000Y-112376000D03*
%TD*%
%TO.P,Q203,2*%
%TO.N,GND*%
X101300000Y-112376000D03*
%TO.P,Q203,3*%
%TO.N,Net-(Q203-Pad3)*%
X100800000Y-111086000D03*
%TO.P,Q203,1*%
%TO.N,LED_R*%
X100300000Y-112376000D03*
%TD*%
%TO.P,Q301,1*%
%TO.N,Net-(D301-Pad2)*%
X88080000Y-131062000D03*
%TO.P,Q301,3*%
%TO.N,POWER_SW*%
X88580000Y-129772000D03*
%TO.P,Q301,2*%
%TO.N,GND*%
X89080000Y-131062000D03*
%TD*%
%TO.P,Q302,1*%
%TO.N,Net-(D301-Pad1)*%
X85857500Y-131062000D03*
%TO.P,Q302,3*%
%TO.N,Net-(Q302-Pad3)*%
X86357500Y-129772000D03*
%TO.P,Q302,2*%
%TO.N,GND*%
X86857500Y-131062000D03*
%TD*%
%TO.P,Q303,2*%
%TO.N,Net-(C310-Pad1)*%
X84635000Y-131062000D03*
%TO.P,Q303,3*%
%TO.N,Net-(Q303-Pad3)*%
X84135000Y-129772000D03*
%TO.P,Q303,1*%
%TO.N,Net-(Q302-Pad3)*%
X83635000Y-131062000D03*
%TD*%
%TO.P,R204,2*%
%TO.N,Net-(R204-Pad2)*%
%TA.AperFunction,SMDPad,CuDef*%
G36*
G01*
X95256000Y-106253500D02*
X95256000Y-105778500D01*
G75*
G02*
X95493500Y-105541000I237500J0D01*
G01*
X95993500Y-105541000D01*
G75*
G02*
X96231000Y-105778500I0J-237500D01*
G01*
X96231000Y-106253500D01*
G75*
G02*
X95993500Y-106491000I-237500J0D01*
G01*
X95493500Y-106491000D01*
G75*
G02*
X95256000Y-106253500I0J237500D01*
G01*
G37*
%TD.AperFunction*%
%TO.P,R204,1*%
%TO.N,+3V3*%
%TA.AperFunction,SMDPad,CuDef*%
G36*
G01*
X93431000Y-106253500D02*
X93431000Y-105778500D01*
G75*
G02*
X93668500Y-105541000I237500J0D01*
G01*
X94168500Y-105541000D01*
G75*
G02*
X94406000Y-105778500I0J-237500D01*
G01*
X94406000Y-106253500D01*
G75*
G02*
X94168500Y-106491000I-237500J0D01*
G01*
X93668500Y-106491000D01*
G75*
G02*
X93431000Y-106253500I0J237500D01*
G01*
G37*
%TD.AperFunction*%
%TD*%
%TO.P,R205,1*%
%TO.N,+3V3*%
%TA.AperFunction,SMDPad,CuDef*%
G36*
G01*
X93431000Y-107904500D02*
X93431000Y-107429500D01*
G75*
G02*
X93668500Y-107192000I237500J0D01*
G01*
X94168500Y-107192000D01*
G75*
G02*
X94406000Y-107429500I0J-237500D01*
G01*
X94406000Y-107904500D01*
G75*
G02*
X94168500Y-108142000I-237500J0D01*
G01*
X93668500Y-108142000D01*
G75*
G02*
X93431000Y-107904500I0J237500D01*
G01*
G37*
%TD.AperFunction*%
%TO.P,R205,2*%
%TO.N,Net-(R205-Pad2)*%
%TA.AperFunction,SMDPad,CuDef*%
G36*
G01*
X95256000Y-107904500D02*
X95256000Y-107429500D01*
G75*
G02*
X95493500Y-107192000I237500J0D01*
G01*
X95993500Y-107192000D01*
G75*
G02*
X96231000Y-107429500I0J-237500D01*
G01*
X96231000Y-107904500D01*
G75*
G02*
X95993500Y-108142000I-237500J0D01*
G01*
X95493500Y-108142000D01*
G75*
G02*
X95256000Y-107904500I0J237500D01*
G01*
G37*
%TD.AperFunction*%
%TD*%
%TO.P,R206,1*%
%TO.N,+3V3*%
%TA.AperFunction,SMDPad,CuDef*%
G36*
G01*
X93431000Y-109555500D02*
X93431000Y-109080500D01*
G75*
G02*
X93668500Y-108843000I237500J0D01*
G01*
X94168500Y-108843000D01*
G75*
G02*
X94406000Y-109080500I0J-237500D01*
G01*
X94406000Y-109555500D01*
G75*
G02*
X94168500Y-109793000I-237500J0D01*
G01*
X93668500Y-109793000D01*
G75*
G02*
X93431000Y-109555500I0J237500D01*
G01*
G37*
%TD.AperFunction*%
%TO.P,R206,2*%
%TO.N,Net-(R206-Pad2)*%
%TA.AperFunction,SMDPad,CuDef*%
G36*
G01*
X95256000Y-109555500D02*
X95256000Y-109080500D01*
G75*
G02*
X95493500Y-108843000I237500J0D01*
G01*
X95993500Y-108843000D01*
G75*
G02*
X96231000Y-109080500I0J-237500D01*
G01*
X96231000Y-109555500D01*
G75*
G02*
X95993500Y-109793000I-237500J0D01*
G01*
X95493500Y-109793000D01*
G75*
G02*
X95256000Y-109555500I0J237500D01*
G01*
G37*
%TD.AperFunction*%
%TD*%
%TO.P,R301,1*%
%TO.N,Net-(C301-Pad2)*%
%TA.AperFunction,SMDPad,CuDef*%
G36*
G01*
X61197500Y-134742000D02*
X60722500Y-134742000D01*
G75*
G02*
X60485000Y-134504500I0J237500D01*
G01*
X60485000Y-134004500D01*
G75*
G02*
X60722500Y-133767000I237500J0D01*
G01*
X61197500Y-133767000D01*
G75*
G02*
X61435000Y-134004500I0J-237500D01*
G01*
X61435000Y-134504500D01*
G75*
G02*
X61197500Y-134742000I-237500J0D01*
G01*
G37*
%TD.AperFunction*%
%TO.P,R301,2*%
%TO.N,Net-(R301-Pad2)*%
%TA.AperFunction,SMDPad,CuDef*%
G36*
G01*
X61197500Y-132917000D02*
X60722500Y-132917000D01*
G75*
G02*
X60485000Y-132679500I0J237500D01*
G01*
X60485000Y-132179500D01*
G75*
G02*
X60722500Y-131942000I237500J0D01*
G01*
X61197500Y-131942000D01*
G75*
G02*
X61435000Y-132179500I0J-237500D01*
G01*
X61435000Y-132679500D01*
G75*
G02*
X61197500Y-132917000I-237500J0D01*
G01*
G37*
%TD.AperFunction*%
%TD*%
%TO.P,R302,2*%
%TO.N,GND*%
%TA.AperFunction,SMDPad,CuDef*%
G36*
G01*
X62310000Y-133767000D02*
X62785000Y-133767000D01*
G75*
G02*
X63022500Y-134004500I0J-237500D01*
G01*
X63022500Y-134504500D01*
G75*
G02*
X62785000Y-134742000I-237500J0D01*
G01*
X62310000Y-134742000D01*
G75*
G02*
X62072500Y-134504500I0J237500D01*
G01*
X62072500Y-134004500D01*
G75*
G02*
X62310000Y-133767000I237500J0D01*
G01*
G37*
%TD.AperFunction*%
%TO.P,R302,1*%
%TO.N,Net-(R301-Pad2)*%
%TA.AperFunction,SMDPad,CuDef*%
G36*
G01*
X62310000Y-131942000D02*
X62785000Y-131942000D01*
G75*
G02*
X63022500Y-132179500I0J-237500D01*
G01*
X63022500Y-132679500D01*
G75*
G02*
X62785000Y-132917000I-237500J0D01*
G01*
X62310000Y-132917000D01*
G75*
G02*
X62072500Y-132679500I0J237500D01*
G01*
X62072500Y-132179500D01*
G75*
G02*
X62310000Y-131942000I237500J0D01*
G01*
G37*
%TD.AperFunction*%
%TD*%
%TO.P,R303,2*%
%TO.N,GND*%
%TA.AperFunction,SMDPad,CuDef*%
G36*
G01*
X64088000Y-133767000D02*
X64563000Y-133767000D01*
G75*
G02*
X64800500Y-134004500I0J-237500D01*
G01*
X64800500Y-134504500D01*
G75*
G02*
X64563000Y-134742000I-237500J0D01*
G01*
X64088000Y-134742000D01*
G75*
G02*
X63850500Y-134504500I0J237500D01*
G01*
X63850500Y-134004500D01*
G75*
G02*
X64088000Y-133767000I237500J0D01*
G01*
G37*
%TD.AperFunction*%
%TO.P,R303,1*%
%TO.N,Net-(R303-Pad1)*%
%TA.AperFunction,SMDPad,CuDef*%
G36*
G01*
X64088000Y-131942000D02*
X64563000Y-131942000D01*
G75*
G02*
X64800500Y-132179500I0J-237500D01*
G01*
X64800500Y-132679500D01*
G75*
G02*
X64563000Y-132917000I-237500J0D01*
G01*
X64088000Y-132917000D01*
G75*
G02*
X63850500Y-132679500I0J237500D01*
G01*
X63850500Y-132179500D01*
G75*
G02*
X64088000Y-131942000I237500J0D01*
G01*
G37*
%TD.AperFunction*%
%TD*%
%TO.P,R304,1*%
%TO.N,+5V*%
%TA.AperFunction,SMDPad,CuDef*%
G36*
G01*
X69477500Y-110454000D02*
X69952500Y-110454000D01*
G75*
G02*
X70190000Y-110691500I0J-237500D01*
G01*
X70190000Y-111191500D01*
G75*
G02*
X69952500Y-111429000I-237500J0D01*
G01*
X69477500Y-111429000D01*
G75*
G02*
X69240000Y-111191500I0J237500D01*
G01*
X69240000Y-110691500D01*
G75*
G02*
X69477500Y-110454000I237500J0D01*
G01*
G37*
%TD.AperFunction*%
%TO.P,R304,2*%
%TO.N,Net-(R304-Pad2)*%
%TA.AperFunction,SMDPad,CuDef*%
G36*
G01*
X69477500Y-112279000D02*
X69952500Y-112279000D01*
G75*
G02*
X70190000Y-112516500I0J-237500D01*
G01*
X70190000Y-113016500D01*
G75*
G02*
X69952500Y-113254000I-237500J0D01*
G01*
X69477500Y-113254000D01*
G75*
G02*
X69240000Y-113016500I0J237500D01*
G01*
X69240000Y-112516500D01*
G75*
G02*
X69477500Y-112279000I237500J0D01*
G01*
G37*
%TD.AperFunction*%
%TD*%
%TO.P,R305,1*%
%TO.N,Net-(R305-Pad1)*%
%TA.AperFunction,SMDPad,CuDef*%
G36*
G01*
X62594500Y-125598000D02*
X62119500Y-125598000D01*
G75*
G02*
X61882000Y-125360500I0J237500D01*
G01*
X61882000Y-124860500D01*
G75*
G02*
X62119500Y-124623000I237500J0D01*
G01*
X62594500Y-124623000D01*
G75*
G02*
X62832000Y-124860500I0J-237500D01*
G01*
X62832000Y-125360500D01*
G75*
G02*
X62594500Y-125598000I-237500J0D01*
G01*
G37*
%TD.AperFunction*%
%TO.P,R305,2*%
%TO.N,GND*%
%TA.AperFunction,SMDPad,CuDef*%
G36*
G01*
X62594500Y-123773000D02*
X62119500Y-123773000D01*
G75*
G02*
X61882000Y-123535500I0J237500D01*
G01*
X61882000Y-123035500D01*
G75*
G02*
X62119500Y-122798000I237500J0D01*
G01*
X62594500Y-122798000D01*
G75*
G02*
X62832000Y-123035500I0J-237500D01*
G01*
X62832000Y-123535500D01*
G75*
G02*
X62594500Y-123773000I-237500J0D01*
G01*
G37*
%TD.AperFunction*%
%TD*%
%TO.P,R306,2*%
%TO.N,GND*%
%TA.AperFunction,SMDPad,CuDef*%
G36*
G01*
X60943500Y-123773000D02*
X60468500Y-123773000D01*
G75*
G02*
X60231000Y-123535500I0J237500D01*
G01*
X60231000Y-123035500D01*
G75*
G02*
X60468500Y-122798000I237500J0D01*
G01*
X60943500Y-122798000D01*
G75*
G02*
X61181000Y-123035500I0J-237500D01*
G01*
X61181000Y-123535500D01*
G75*
G02*
X60943500Y-123773000I-237500J0D01*
G01*
G37*
%TD.AperFunction*%
%TO.P,R306,1*%
%TO.N,Net-(R306-Pad1)*%
%TA.AperFunction,SMDPad,CuDef*%
G36*
G01*
X60943500Y-125598000D02*
X60468500Y-125598000D01*
G75*
G02*
X60231000Y-125360500I0J237500D01*
G01*
X60231000Y-124860500D01*
G75*
G02*
X60468500Y-124623000I237500J0D01*
G01*
X60943500Y-124623000D01*
G75*
G02*
X61181000Y-124860500I0J-237500D01*
G01*
X61181000Y-125360500D01*
G75*
G02*
X60943500Y-125598000I-237500J0D01*
G01*
G37*
%TD.AperFunction*%
%TD*%
%TO.P,R307,1*%
%TO.N,FAST_CHARGE*%
%TA.AperFunction,SMDPad,CuDef*%
G36*
G01*
X65764500Y-131921000D02*
X66239500Y-131921000D01*
G75*
G02*
X66477000Y-132158500I0J-237500D01*
G01*
X66477000Y-132658500D01*
G75*
G02*
X66239500Y-132896000I-237500J0D01*
G01*
X65764500Y-132896000D01*
G75*
G02*
X65527000Y-132658500I0J237500D01*
G01*
X65527000Y-132158500D01*
G75*
G02*
X65764500Y-131921000I237500J0D01*
G01*
G37*
%TD.AperFunction*%
%TO.P,R307,2*%
%TO.N,GND*%
%TA.AperFunction,SMDPad,CuDef*%
G36*
G01*
X65764500Y-133746000D02*
X66239500Y-133746000D01*
G75*
G02*
X66477000Y-133983500I0J-237500D01*
G01*
X66477000Y-134483500D01*
G75*
G02*
X66239500Y-134721000I-237500J0D01*
G01*
X65764500Y-134721000D01*
G75*
G02*
X65527000Y-134483500I0J237500D01*
G01*
X65527000Y-133983500D01*
G75*
G02*
X65764500Y-133746000I237500J0D01*
G01*
G37*
%TD.AperFunction*%
%TD*%
%TO.P,R308,1*%
%TO.N,Net-(C304-Pad1)*%
%TA.AperFunction,SMDPad,CuDef*%
G36*
G01*
X66396500Y-116810000D02*
X65921500Y-116810000D01*
G75*
G02*
X65684000Y-116572500I0J237500D01*
G01*
X65684000Y-116072500D01*
G75*
G02*
X65921500Y-115835000I237500J0D01*
G01*
X66396500Y-115835000D01*
G75*
G02*
X66634000Y-116072500I0J-237500D01*
G01*
X66634000Y-116572500D01*
G75*
G02*
X66396500Y-116810000I-237500J0D01*
G01*
G37*
%TD.AperFunction*%
%TO.P,R308,2*%
%TO.N,Net-(C304-Pad2)*%
%TA.AperFunction,SMDPad,CuDef*%
G36*
G01*
X66396500Y-114985000D02*
X65921500Y-114985000D01*
G75*
G02*
X65684000Y-114747500I0J237500D01*
G01*
X65684000Y-114247500D01*
G75*
G02*
X65921500Y-114010000I237500J0D01*
G01*
X66396500Y-114010000D01*
G75*
G02*
X66634000Y-114247500I0J-237500D01*
G01*
X66634000Y-114747500D01*
G75*
G02*
X66396500Y-114985000I-237500J0D01*
G01*
G37*
%TD.AperFunction*%
%TD*%
%TO.P,R309,2*%
%TO.N,GND*%
%TA.AperFunction,SMDPad,CuDef*%
G36*
G01*
X64270500Y-115835000D02*
X64745500Y-115835000D01*
G75*
G02*
X64983000Y-116072500I0J-237500D01*
G01*
X64983000Y-116572500D01*
G75*
G02*
X64745500Y-116810000I-237500J0D01*
G01*
X64270500Y-116810000D01*
G75*
G02*
X64033000Y-116572500I0J237500D01*
G01*
X64033000Y-116072500D01*
G75*
G02*
X64270500Y-115835000I237500J0D01*
G01*
G37*
%TD.AperFunction*%
%TO.P,R309,1*%
%TO.N,Net-(C304-Pad2)*%
%TA.AperFunction,SMDPad,CuDef*%
G36*
G01*
X64270500Y-114010000D02*
X64745500Y-114010000D01*
G75*
G02*
X64983000Y-114247500I0J-237500D01*
G01*
X64983000Y-114747500D01*
G75*
G02*
X64745500Y-114985000I-237500J0D01*
G01*
X64270500Y-114985000D01*
G75*
G02*
X64033000Y-114747500I0J237500D01*
G01*
X64033000Y-114247500D01*
G75*
G02*
X64270500Y-114010000I237500J0D01*
G01*
G37*
%TD.AperFunction*%
%TD*%
%TO.P,R310,2*%
%TO.N,VBAT_MEAS*%
%TA.AperFunction,SMDPad,CuDef*%
G36*
G01*
X59292500Y-123773000D02*
X58817500Y-123773000D01*
G75*
G02*
X58580000Y-123535500I0J237500D01*
G01*
X58580000Y-123035500D01*
G75*
G02*
X58817500Y-122798000I237500J0D01*
G01*
X59292500Y-122798000D01*
G75*
G02*
X59530000Y-123035500I0J-237500D01*
G01*
X59530000Y-123535500D01*
G75*
G02*
X59292500Y-123773000I-237500J0D01*
G01*
G37*
%TD.AperFunction*%
%TO.P,R310,1*%
%TO.N,+BATT*%
%TA.AperFunction,SMDPad,CuDef*%
G36*
G01*
X59292500Y-125598000D02*
X58817500Y-125598000D01*
G75*
G02*
X58580000Y-125360500I0J237500D01*
G01*
X58580000Y-124860500D01*
G75*
G02*
X58817500Y-124623000I237500J0D01*
G01*
X59292500Y-124623000D01*
G75*
G02*
X59530000Y-124860500I0J-237500D01*
G01*
X59530000Y-125360500D01*
G75*
G02*
X59292500Y-125598000I-237500J0D01*
G01*
G37*
%TD.AperFunction*%
%TD*%
%TO.P,R311,1*%
%TO.N,VBAT_MEAS*%
%TA.AperFunction,SMDPad,CuDef*%
G36*
G01*
X57641500Y-125598000D02*
X57166500Y-125598000D01*
G75*
G02*
X56929000Y-125360500I0J237500D01*
G01*
X56929000Y-124860500D01*
G75*
G02*
X57166500Y-124623000I237500J0D01*
G01*
X57641500Y-124623000D01*
G75*
G02*
X57879000Y-124860500I0J-237500D01*
G01*
X57879000Y-125360500D01*
G75*
G02*
X57641500Y-125598000I-237500J0D01*
G01*
G37*
%TD.AperFunction*%
%TO.P,R311,2*%
%TO.N,GND*%
%TA.AperFunction,SMDPad,CuDef*%
G36*
G01*
X57641500Y-123773000D02*
X57166500Y-123773000D01*
G75*
G02*
X56929000Y-123535500I0J237500D01*
G01*
X56929000Y-123035500D01*
G75*
G02*
X57166500Y-122798000I237500J0D01*
G01*
X57641500Y-122798000D01*
G75*
G02*
X57879000Y-123035500I0J-237500D01*
G01*
X57879000Y-123535500D01*
G75*
G02*
X57641500Y-123773000I-237500J0D01*
G01*
G37*
%TD.AperFunction*%
%TD*%
%TO.P,R312,2*%
%TO.N,Net-(R312-Pad2)*%
%TA.AperFunction,SMDPad,CuDef*%
G36*
G01*
X82477500Y-112279000D02*
X82952500Y-112279000D01*
G75*
G02*
X83190000Y-112516500I0J-237500D01*
G01*
X83190000Y-113016500D01*
G75*
G02*
X82952500Y-113254000I-237500J0D01*
G01*
X82477500Y-113254000D01*
G75*
G02*
X82240000Y-113016500I0J237500D01*
G01*
X82240000Y-112516500D01*
G75*
G02*
X82477500Y-112279000I237500J0D01*
G01*
G37*
%TD.AperFunction*%
%TO.P,R312,1*%
%TO.N,+5V*%
%TA.AperFunction,SMDPad,CuDef*%
G36*
G01*
X82477500Y-110454000D02*
X82952500Y-110454000D01*
G75*
G02*
X83190000Y-110691500I0J-237500D01*
G01*
X83190000Y-111191500D01*
G75*
G02*
X82952500Y-111429000I-237500J0D01*
G01*
X82477500Y-111429000D01*
G75*
G02*
X82240000Y-111191500I0J237500D01*
G01*
X82240000Y-110691500D01*
G75*
G02*
X82477500Y-110454000I237500J0D01*
G01*
G37*
%TD.AperFunction*%
%TD*%
%TO.P,R313,2*%
%TO.N,POWER_SW*%
%TA.AperFunction,SMDPad,CuDef*%
G36*
G01*
X88660000Y-133826500D02*
X89135000Y-133826500D01*
G75*
G02*
X89372500Y-134064000I0J-237500D01*
G01*
X89372500Y-134564000D01*
G75*
G02*
X89135000Y-134801500I-237500J0D01*
G01*
X88660000Y-134801500D01*
G75*
G02*
X88422500Y-134564000I0J237500D01*
G01*
X88422500Y-134064000D01*
G75*
G02*
X88660000Y-133826500I237500J0D01*
G01*
G37*
%TD.AperFunction*%
%TO.P,R313,1*%
%TO.N,+1V8*%
%TA.AperFunction,SMDPad,CuDef*%
G36*
G01*
X88660000Y-132001500D02*
X89135000Y-132001500D01*
G75*
G02*
X89372500Y-132239000I0J-237500D01*
G01*
X89372500Y-132739000D01*
G75*
G02*
X89135000Y-132976500I-237500J0D01*
G01*
X88660000Y-132976500D01*
G75*
G02*
X88422500Y-132739000I0J237500D01*
G01*
X88422500Y-132239000D01*
G75*
G02*
X88660000Y-132001500I237500J0D01*
G01*
G37*
%TD.AperFunction*%
%TD*%
%TO.P,R314,2*%
%TO.N,Net-(Q302-Pad3)*%
%TA.AperFunction,SMDPad,CuDef*%
G36*
G01*
X83991500Y-132976500D02*
X83516500Y-132976500D01*
G75*
G02*
X83279000Y-132739000I0J237500D01*
G01*
X83279000Y-132239000D01*
G75*
G02*
X83516500Y-132001500I237500J0D01*
G01*
X83991500Y-132001500D01*
G75*
G02*
X84229000Y-132239000I0J-237500D01*
G01*
X84229000Y-132739000D01*
G75*
G02*
X83991500Y-132976500I-237500J0D01*
G01*
G37*
%TD.AperFunction*%
%TO.P,R314,1*%
%TO.N,Net-(C310-Pad1)*%
%TA.AperFunction,SMDPad,CuDef*%
G36*
G01*
X83991500Y-134801500D02*
X83516500Y-134801500D01*
G75*
G02*
X83279000Y-134564000I0J237500D01*
G01*
X83279000Y-134064000D01*
G75*
G02*
X83516500Y-133826500I237500J0D01*
G01*
X83991500Y-133826500D01*
G75*
G02*
X84229000Y-134064000I0J-237500D01*
G01*
X84229000Y-134564000D01*
G75*
G02*
X83991500Y-134801500I-237500J0D01*
G01*
G37*
%TD.AperFunction*%
%TD*%
%TO.P,R315,1*%
%TO.N,GND*%
%TA.AperFunction,SMDPad,CuDef*%
G36*
G01*
X85706000Y-134801500D02*
X85231000Y-134801500D01*
G75*
G02*
X84993500Y-134564000I0J237500D01*
G01*
X84993500Y-134064000D01*
G75*
G02*
X85231000Y-133826500I237500J0D01*
G01*
X85706000Y-133826500D01*
G75*
G02*
X85943500Y-134064000I0J-237500D01*
G01*
X85943500Y-134564000D01*
G75*
G02*
X85706000Y-134801500I-237500J0D01*
G01*
G37*
%TD.AperFunction*%
%TO.P,R315,2*%
%TO.N,Net-(D301-Pad1)*%
%TA.AperFunction,SMDPad,CuDef*%
G36*
G01*
X85706000Y-132976500D02*
X85231000Y-132976500D01*
G75*
G02*
X84993500Y-132739000I0J237500D01*
G01*
X84993500Y-132239000D01*
G75*
G02*
X85231000Y-132001500I237500J0D01*
G01*
X85706000Y-132001500D01*
G75*
G02*
X85943500Y-132239000I0J-237500D01*
G01*
X85943500Y-132739000D01*
G75*
G02*
X85706000Y-132976500I-237500J0D01*
G01*
G37*
%TD.AperFunction*%
%TD*%
%TO.P,R316,1*%
%TO.N,Net-(C309-Pad1)*%
%TA.AperFunction,SMDPad,CuDef*%
G36*
G01*
X79396500Y-116810000D02*
X78921500Y-116810000D01*
G75*
G02*
X78684000Y-116572500I0J237500D01*
G01*
X78684000Y-116072500D01*
G75*
G02*
X78921500Y-115835000I237500J0D01*
G01*
X79396500Y-115835000D01*
G75*
G02*
X79634000Y-116072500I0J-237500D01*
G01*
X79634000Y-116572500D01*
G75*
G02*
X79396500Y-116810000I-237500J0D01*
G01*
G37*
%TD.AperFunction*%
%TO.P,R316,2*%
%TO.N,Net-(C309-Pad2)*%
%TA.AperFunction,SMDPad,CuDef*%
G36*
G01*
X79396500Y-114985000D02*
X78921500Y-114985000D01*
G75*
G02*
X78684000Y-114747500I0J237500D01*
G01*
X78684000Y-114247500D01*
G75*
G02*
X78921500Y-114010000I237500J0D01*
G01*
X79396500Y-114010000D01*
G75*
G02*
X79634000Y-114247500I0J-237500D01*
G01*
X79634000Y-114747500D01*
G75*
G02*
X79396500Y-114985000I-237500J0D01*
G01*
G37*
%TD.AperFunction*%
%TD*%
%TO.P,R317,1*%
%TO.N,Net-(C309-Pad2)*%
%TA.AperFunction,SMDPad,CuDef*%
G36*
G01*
X77270500Y-114010000D02*
X77745500Y-114010000D01*
G75*
G02*
X77983000Y-114247500I0J-237500D01*
G01*
X77983000Y-114747500D01*
G75*
G02*
X77745500Y-114985000I-237500J0D01*
G01*
X77270500Y-114985000D01*
G75*
G02*
X77033000Y-114747500I0J237500D01*
G01*
X77033000Y-114247500D01*
G75*
G02*
X77270500Y-114010000I237500J0D01*
G01*
G37*
%TD.AperFunction*%
%TO.P,R317,2*%
%TO.N,GND*%
%TA.AperFunction,SMDPad,CuDef*%
G36*
G01*
X77270500Y-115835000D02*
X77745500Y-115835000D01*
G75*
G02*
X77983000Y-116072500I0J-237500D01*
G01*
X77983000Y-116572500D01*
G75*
G02*
X77745500Y-116810000I-237500J0D01*
G01*
X77270500Y-116810000D01*
G75*
G02*
X77033000Y-116572500I0J237500D01*
G01*
X77033000Y-116072500D01*
G75*
G02*
X77270500Y-115835000I237500J0D01*
G01*
G37*
%TD.AperFunction*%
%TD*%
%TO.P,R318,1*%
%TO.N,Net-(Q303-Pad3)*%
%TA.AperFunction,SMDPad,CuDef*%
G36*
G01*
X81070500Y-134801500D02*
X80595500Y-134801500D01*
G75*
G02*
X80358000Y-134564000I0J237500D01*
G01*
X80358000Y-134064000D01*
G75*
G02*
X80595500Y-133826500I237500J0D01*
G01*
X81070500Y-133826500D01*
G75*
G02*
X81308000Y-134064000I0J-237500D01*
G01*
X81308000Y-134564000D01*
G75*
G02*
X81070500Y-134801500I-237500J0D01*
G01*
G37*
%TD.AperFunction*%
%TO.P,R318,2*%
%TO.N,GND*%
%TA.AperFunction,SMDPad,CuDef*%
G36*
G01*
X81070500Y-132976500D02*
X80595500Y-132976500D01*
G75*
G02*
X80358000Y-132739000I0J237500D01*
G01*
X80358000Y-132239000D01*
G75*
G02*
X80595500Y-132001500I237500J0D01*
G01*
X81070500Y-132001500D01*
G75*
G02*
X81308000Y-132239000I0J-237500D01*
G01*
X81308000Y-132739000D01*
G75*
G02*
X81070500Y-132976500I-237500J0D01*
G01*
G37*
%TD.AperFunction*%
%TD*%
%TO.P,R319,2*%
%TO.N,Net-(R319-Pad2)*%
%TA.AperFunction,SMDPad,CuDef*%
G36*
G01*
X79008000Y-129889500D02*
X79483000Y-129889500D01*
G75*
G02*
X79720500Y-130127000I0J-237500D01*
G01*
X79720500Y-130627000D01*
G75*
G02*
X79483000Y-130864500I-237500J0D01*
G01*
X79008000Y-130864500D01*
G75*
G02*
X78770500Y-130627000I0J237500D01*
G01*
X78770500Y-130127000D01*
G75*
G02*
X79008000Y-129889500I237500J0D01*
G01*
G37*
%TD.AperFunction*%
%TO.P,R319,1*%
%TO.N,Net-(C312-Pad1)*%
%TA.AperFunction,SMDPad,CuDef*%
G36*
G01*
X79008000Y-128064500D02*
X79483000Y-128064500D01*
G75*
G02*
X79720500Y-128302000I0J-237500D01*
G01*
X79720500Y-128802000D01*
G75*
G02*
X79483000Y-129039500I-237500J0D01*
G01*
X79008000Y-129039500D01*
G75*
G02*
X78770500Y-128802000I0J237500D01*
G01*
X78770500Y-128302000D01*
G75*
G02*
X79008000Y-128064500I237500J0D01*
G01*
G37*
%TD.AperFunction*%
%TD*%
%TO.P,R320,1*%
%TO.N,Net-(R319-Pad2)*%
%TA.AperFunction,SMDPad,CuDef*%
G36*
G01*
X81134000Y-130864500D02*
X80659000Y-130864500D01*
G75*
G02*
X80421500Y-130627000I0J237500D01*
G01*
X80421500Y-130127000D01*
G75*
G02*
X80659000Y-129889500I237500J0D01*
G01*
X81134000Y-129889500D01*
G75*
G02*
X81371500Y-130127000I0J-237500D01*
G01*
X81371500Y-130627000D01*
G75*
G02*
X81134000Y-130864500I-237500J0D01*
G01*
G37*
%TD.AperFunction*%
%TO.P,R320,2*%
%TO.N,GND*%
%TA.AperFunction,SMDPad,CuDef*%
G36*
G01*
X81134000Y-129039500D02*
X80659000Y-129039500D01*
G75*
G02*
X80421500Y-128802000I0J237500D01*
G01*
X80421500Y-128302000D01*
G75*
G02*
X80659000Y-128064500I237500J0D01*
G01*
X81134000Y-128064500D01*
G75*
G02*
X81371500Y-128302000I0J-237500D01*
G01*
X81371500Y-128802000D01*
G75*
G02*
X81134000Y-129039500I-237500J0D01*
G01*
G37*
%TD.AperFunction*%
%TD*%
%TO.P,R403,2*%
%TO.N,GND*%
%TA.AperFunction,SMDPad,CuDef*%
G36*
G01*
X87763000Y-121366500D02*
X87763000Y-120891500D01*
G75*
G02*
X88000500Y-120654000I237500J0D01*
G01*
X88500500Y-120654000D01*
G75*
G02*
X88738000Y-120891500I0J-237500D01*
G01*
X88738000Y-121366500D01*
G75*
G02*
X88500500Y-121604000I-237500J0D01*
G01*
X88000500Y-121604000D01*
G75*
G02*
X87763000Y-121366500I0J237500D01*
G01*
G37*
%TD.AperFunction*%
%TO.P,R403,1*%
%TO.N,AMB_TEMP*%
%TA.AperFunction,SMDPad,CuDef*%
G36*
G01*
X85938000Y-121366500D02*
X85938000Y-120891500D01*
G75*
G02*
X86175500Y-120654000I237500J0D01*
G01*
X86675500Y-120654000D01*
G75*
G02*
X86913000Y-120891500I0J-237500D01*
G01*
X86913000Y-121366500D01*
G75*
G02*
X86675500Y-121604000I-237500J0D01*
G01*
X86175500Y-121604000D01*
G75*
G02*
X85938000Y-121366500I0J237500D01*
G01*
G37*
%TD.AperFunction*%
%TD*%
%TO.P,R404,1*%
%TO.N,UV_INT*%
%TA.AperFunction,SMDPad,CuDef*%
G36*
G01*
X98765000Y-137495500D02*
X98765000Y-137020500D01*
G75*
G02*
X99002500Y-136783000I237500J0D01*
G01*
X99502500Y-136783000D01*
G75*
G02*
X99740000Y-137020500I0J-237500D01*
G01*
X99740000Y-137495500D01*
G75*
G02*
X99502500Y-137733000I-237500J0D01*
G01*
X99002500Y-137733000D01*
G75*
G02*
X98765000Y-137495500I0J237500D01*
G01*
G37*
%TD.AperFunction*%
%TO.P,R404,2*%
%TO.N,+1V8*%
%TA.AperFunction,SMDPad,CuDef*%
G36*
G01*
X100590000Y-137495500D02*
X100590000Y-137020500D01*
G75*
G02*
X100827500Y-136783000I237500J0D01*
G01*
X101327500Y-136783000D01*
G75*
G02*
X101565000Y-137020500I0J-237500D01*
G01*
X101565000Y-137495500D01*
G75*
G02*
X101327500Y-137733000I-237500J0D01*
G01*
X100827500Y-137733000D01*
G75*
G02*
X100590000Y-137495500I0J237500D01*
G01*
G37*
%TD.AperFunction*%
%TD*%
%TO.P,R405,1*%
%TO.N,Net-(R405-Pad1)*%
%TA.AperFunction,SMDPad,CuDef*%
G36*
G01*
X98765000Y-135717500D02*
X98765000Y-135242500D01*
G75*
G02*
X99002500Y-135005000I237500J0D01*
G01*
X99502500Y-135005000D01*
G75*
G02*
X99740000Y-135242500I0J-237500D01*
G01*
X99740000Y-135717500D01*
G75*
G02*
X99502500Y-135955000I-237500J0D01*
G01*
X99002500Y-135955000D01*
G75*
G02*
X98765000Y-135717500I0J237500D01*
G01*
G37*
%TD.AperFunction*%
%TO.P,R405,2*%
%TO.N,+1V8*%
%TA.AperFunction,SMDPad,CuDef*%
G36*
G01*
X100590000Y-135717500D02*
X100590000Y-135242500D01*
G75*
G02*
X100827500Y-135005000I237500J0D01*
G01*
X101327500Y-135005000D01*
G75*
G02*
X101565000Y-135242500I0J-237500D01*
G01*
X101565000Y-135717500D01*
G75*
G02*
X101327500Y-135955000I-237500J0D01*
G01*
X100827500Y-135955000D01*
G75*
G02*
X100590000Y-135717500I0J237500D01*
G01*
G37*
%TD.AperFunction*%
%TD*%
D20*
%TO.P,SW301,2*%
%TO.N,Net-(C310-Pad1)*%
X51025000Y-124300000D03*
%TO.P,SW301,1*%
%TO.N,Net-(D301-Pad2)*%
X52475000Y-124300000D03*
X52475000Y-120700000D03*
%TO.P,SW301,2*%
%TO.N,Net-(C310-Pad1)*%
X51025000Y-120700000D03*
%TD*%
D21*
%TO.P,TP301,1*%
%TO.N,Net-(TP301-Pad1)*%
X66294000Y-130357500D03*
%TD*%
%TO.P,TP302,1*%
%TO.N,Net-(TP302-Pad1)*%
X70612000Y-130357500D03*
%TD*%
%TO.P,TP303,1*%
%TO.N,Net-(TP303-Pad1)*%
X68453000Y-130357500D03*
%TD*%
%TO.P,TP304,1*%
%TO.N,Net-(R304-Pad2)*%
X67683000Y-112550000D03*
%TD*%
%TO.P,TP305,1*%
%TO.N,Net-(R312-Pad2)*%
X80683000Y-112550000D03*
%TD*%
D22*
%TO.P,U201,1*%
%TO.N,Net-(J201-Pad6)*%
X60711000Y-107606000D03*
%TO.P,U201,2*%
%TO.N,GND*%
X60711000Y-108556000D03*
%TO.P,U201,3*%
%TO.N,Net-(J201-Pad5)*%
X60711000Y-109506000D03*
%TO.P,U201,4*%
%TO.N,Net-(U201-Pad4)*%
X62911000Y-109506000D03*
%TO.P,U201,6*%
%TO.N,Net-(U201-Pad6)*%
X62911000Y-107606000D03*
%TO.P,U201,5*%
%TO.N,VBUS*%
X62911000Y-108556000D03*
%TD*%
D16*
%TO.P,U204,1*%
%TO.N,Net-(Q201-Pad3)*%
X98157000Y-109167000D03*
%TO.P,U204,2*%
%TO.N,Net-(Q202-Pad3)*%
X99657000Y-109167000D03*
%TO.P,U204,3*%
%TO.N,Net-(Q203-Pad3)*%
X101157000Y-109167000D03*
%TO.P,U204,5*%
%TO.N,Net-(R205-Pad2)*%
X99657000Y-106167000D03*
%TO.P,U204,6*%
%TO.N,Net-(R204-Pad2)*%
X98157000Y-106167000D03*
%TO.P,U204,4*%
%TO.N,Net-(R206-Pad2)*%
X101157000Y-106167000D03*
%TD*%
%TO.P,U301,1*%
%TO.N,Net-(C303-Pad2)*%
%TA.AperFunction,SMDPad,CuDef*%
G36*
G01*
X60276500Y-131120000D02*
X60151500Y-131120000D01*
G75*
G02*
X60089000Y-131057500I0J62500D01*
G01*
X60089000Y-130382500D01*
G75*
G02*
X60151500Y-130320000I62500J0D01*
G01*
X60276500Y-130320000D01*
G75*
G02*
X60339000Y-130382500I0J-62500D01*
G01*
X60339000Y-131057500D01*
G75*
G02*
X60276500Y-131120000I-62500J0D01*
G01*
G37*
%TD.AperFunction*%
%TO.P,U301,2*%
%TO.N,Net-(R301-Pad2)*%
%TA.AperFunction,SMDPad,CuDef*%
G36*
G01*
X60776500Y-131120000D02*
X60651500Y-131120000D01*
G75*
G02*
X60589000Y-131057500I0J62500D01*
G01*
X60589000Y-130382500D01*
G75*
G02*
X60651500Y-130320000I62500J0D01*
G01*
X60776500Y-130320000D01*
G75*
G02*
X60839000Y-130382500I0J-62500D01*
G01*
X60839000Y-131057500D01*
G75*
G02*
X60776500Y-131120000I-62500J0D01*
G01*
G37*
%TD.AperFunction*%
%TO.P,U301,3*%
%TO.N,GND*%
%TA.AperFunction,SMDPad,CuDef*%
G36*
G01*
X61276500Y-131120000D02*
X61151500Y-131120000D01*
G75*
G02*
X61089000Y-131057500I0J62500D01*
G01*
X61089000Y-130382500D01*
G75*
G02*
X61151500Y-130320000I62500J0D01*
G01*
X61276500Y-130320000D01*
G75*
G02*
X61339000Y-130382500I0J-62500D01*
G01*
X61339000Y-131057500D01*
G75*
G02*
X61276500Y-131120000I-62500J0D01*
G01*
G37*
%TD.AperFunction*%
%TO.P,U301,4*%
%TO.N,Net-(JP304-Pad1)*%
%TA.AperFunction,SMDPad,CuDef*%
G36*
G01*
X61776500Y-131120000D02*
X61651500Y-131120000D01*
G75*
G02*
X61589000Y-131057500I0J62500D01*
G01*
X61589000Y-130382500D01*
G75*
G02*
X61651500Y-130320000I62500J0D01*
G01*
X61776500Y-130320000D01*
G75*
G02*
X61839000Y-130382500I0J-62500D01*
G01*
X61839000Y-131057500D01*
G75*
G02*
X61776500Y-131120000I-62500J0D01*
G01*
G37*
%TD.AperFunction*%
%TO.P,U301,5*%
%TO.N,Net-(R303-Pad1)*%
%TA.AperFunction,SMDPad,CuDef*%
G36*
G01*
X62276500Y-131120000D02*
X62151500Y-131120000D01*
G75*
G02*
X62089000Y-131057500I0J62500D01*
G01*
X62089000Y-130382500D01*
G75*
G02*
X62151500Y-130320000I62500J0D01*
G01*
X62276500Y-130320000D01*
G75*
G02*
X62339000Y-130382500I0J-62500D01*
G01*
X62339000Y-131057500D01*
G75*
G02*
X62276500Y-131120000I-62500J0D01*
G01*
G37*
%TD.AperFunction*%
%TO.P,U301,6*%
%TO.N,Net-(TP301-Pad1)*%
%TA.AperFunction,SMDPad,CuDef*%
G36*
G01*
X63501500Y-129895000D02*
X62826500Y-129895000D01*
G75*
G02*
X62764000Y-129832500I0J62500D01*
G01*
X62764000Y-129707500D01*
G75*
G02*
X62826500Y-129645000I62500J0D01*
G01*
X63501500Y-129645000D01*
G75*
G02*
X63564000Y-129707500I0J-62500D01*
G01*
X63564000Y-129832500D01*
G75*
G02*
X63501500Y-129895000I-62500J0D01*
G01*
G37*
%TD.AperFunction*%
%TO.P,U301,7*%
%TO.N,Net-(TP303-Pad1)*%
%TA.AperFunction,SMDPad,CuDef*%
G36*
G01*
X63501500Y-129395000D02*
X62826500Y-129395000D01*
G75*
G02*
X62764000Y-129332500I0J62500D01*
G01*
X62764000Y-129207500D01*
G75*
G02*
X62826500Y-129145000I62500J0D01*
G01*
X63501500Y-129145000D01*
G75*
G02*
X63564000Y-129207500I0J-62500D01*
G01*
X63564000Y-129332500D01*
G75*
G02*
X63501500Y-129395000I-62500J0D01*
G01*
G37*
%TD.AperFunction*%
%TO.P,U301,8*%
%TO.N,Net-(TP302-Pad1)*%
%TA.AperFunction,SMDPad,CuDef*%
G36*
G01*
X63501500Y-128895000D02*
X62826500Y-128895000D01*
G75*
G02*
X62764000Y-128832500I0J62500D01*
G01*
X62764000Y-128707500D01*
G75*
G02*
X62826500Y-128645000I62500J0D01*
G01*
X63501500Y-128645000D01*
G75*
G02*
X63564000Y-128707500I0J-62500D01*
G01*
X63564000Y-128832500D01*
G75*
G02*
X63501500Y-128895000I-62500J0D01*
G01*
G37*
%TD.AperFunction*%
%TO.P,U301,9*%
%TO.N,GND*%
%TA.AperFunction,SMDPad,CuDef*%
G36*
G01*
X63501500Y-128395000D02*
X62826500Y-128395000D01*
G75*
G02*
X62764000Y-128332500I0J62500D01*
G01*
X62764000Y-128207500D01*
G75*
G02*
X62826500Y-128145000I62500J0D01*
G01*
X63501500Y-128145000D01*
G75*
G02*
X63564000Y-128207500I0J-62500D01*
G01*
X63564000Y-128332500D01*
G75*
G02*
X63501500Y-128395000I-62500J0D01*
G01*
G37*
%TD.AperFunction*%
%TO.P,U301,10*%
%TA.AperFunction,SMDPad,CuDef*%
G36*
G01*
X63501500Y-127895000D02*
X62826500Y-127895000D01*
G75*
G02*
X62764000Y-127832500I0J62500D01*
G01*
X62764000Y-127707500D01*
G75*
G02*
X62826500Y-127645000I62500J0D01*
G01*
X63501500Y-127645000D01*
G75*
G02*
X63564000Y-127707500I0J-62500D01*
G01*
X63564000Y-127832500D01*
G75*
G02*
X63501500Y-127895000I-62500J0D01*
G01*
G37*
%TD.AperFunction*%
%TO.P,U301,11*%
%TA.AperFunction,SMDPad,CuDef*%
G36*
G01*
X62276500Y-127220000D02*
X62151500Y-127220000D01*
G75*
G02*
X62089000Y-127157500I0J62500D01*
G01*
X62089000Y-126482500D01*
G75*
G02*
X62151500Y-126420000I62500J0D01*
G01*
X62276500Y-126420000D01*
G75*
G02*
X62339000Y-126482500I0J-62500D01*
G01*
X62339000Y-127157500D01*
G75*
G02*
X62276500Y-127220000I-62500J0D01*
G01*
G37*
%TD.AperFunction*%
%TO.P,U301,12*%
%TO.N,Net-(R305-Pad1)*%
%TA.AperFunction,SMDPad,CuDef*%
G36*
G01*
X61776500Y-127220000D02*
X61651500Y-127220000D01*
G75*
G02*
X61589000Y-127157500I0J62500D01*
G01*
X61589000Y-126482500D01*
G75*
G02*
X61651500Y-126420000I62500J0D01*
G01*
X61776500Y-126420000D01*
G75*
G02*
X61839000Y-126482500I0J-62500D01*
G01*
X61839000Y-127157500D01*
G75*
G02*
X61776500Y-127220000I-62500J0D01*
G01*
G37*
%TD.AperFunction*%
%TO.P,U301,13*%
%TO.N,Net-(R306-Pad1)*%
%TA.AperFunction,SMDPad,CuDef*%
G36*
G01*
X61276500Y-127220000D02*
X61151500Y-127220000D01*
G75*
G02*
X61089000Y-127157500I0J62500D01*
G01*
X61089000Y-126482500D01*
G75*
G02*
X61151500Y-126420000I62500J0D01*
G01*
X61276500Y-126420000D01*
G75*
G02*
X61339000Y-126482500I0J-62500D01*
G01*
X61339000Y-127157500D01*
G75*
G02*
X61276500Y-127220000I-62500J0D01*
G01*
G37*
%TD.AperFunction*%
%TO.P,U301,14*%
%TO.N,+BATT*%
%TA.AperFunction,SMDPad,CuDef*%
G36*
G01*
X60776500Y-127220000D02*
X60651500Y-127220000D01*
G75*
G02*
X60589000Y-127157500I0J62500D01*
G01*
X60589000Y-126482500D01*
G75*
G02*
X60651500Y-126420000I62500J0D01*
G01*
X60776500Y-126420000D01*
G75*
G02*
X60839000Y-126482500I0J-62500D01*
G01*
X60839000Y-127157500D01*
G75*
G02*
X60776500Y-127220000I-62500J0D01*
G01*
G37*
%TD.AperFunction*%
%TO.P,U301,15*%
%TA.AperFunction,SMDPad,CuDef*%
G36*
G01*
X60276500Y-127220000D02*
X60151500Y-127220000D01*
G75*
G02*
X60089000Y-127157500I0J62500D01*
G01*
X60089000Y-126482500D01*
G75*
G02*
X60151500Y-126420000I62500J0D01*
G01*
X60276500Y-126420000D01*
G75*
G02*
X60339000Y-126482500I0J-62500D01*
G01*
X60339000Y-127157500D01*
G75*
G02*
X60276500Y-127220000I-62500J0D01*
G01*
G37*
%TD.AperFunction*%
%TO.P,U301,16*%
%TA.AperFunction,SMDPad,CuDef*%
G36*
G01*
X59601500Y-127895000D02*
X58926500Y-127895000D01*
G75*
G02*
X58864000Y-127832500I0J62500D01*
G01*
X58864000Y-127707500D01*
G75*
G02*
X58926500Y-127645000I62500J0D01*
G01*
X59601500Y-127645000D01*
G75*
G02*
X59664000Y-127707500I0J-62500D01*
G01*
X59664000Y-127832500D01*
G75*
G02*
X59601500Y-127895000I-62500J0D01*
G01*
G37*
%TD.AperFunction*%
%TO.P,U301,17*%
%TO.N,Net-(C301-Pad2)*%
%TA.AperFunction,SMDPad,CuDef*%
G36*
G01*
X59601500Y-128395000D02*
X58926500Y-128395000D01*
G75*
G02*
X58864000Y-128332500I0J62500D01*
G01*
X58864000Y-128207500D01*
G75*
G02*
X58926500Y-128145000I62500J0D01*
G01*
X59601500Y-128145000D01*
G75*
G02*
X59664000Y-128207500I0J-62500D01*
G01*
X59664000Y-128332500D01*
G75*
G02*
X59601500Y-128395000I-62500J0D01*
G01*
G37*
%TD.AperFunction*%
%TO.P,U301,18*%
%TA.AperFunction,SMDPad,CuDef*%
G36*
G01*
X59601500Y-128895000D02*
X58926500Y-128895000D01*
G75*
G02*
X58864000Y-128832500I0J62500D01*
G01*
X58864000Y-128707500D01*
G75*
G02*
X58926500Y-128645000I62500J0D01*
G01*
X59601500Y-128645000D01*
G75*
G02*
X59664000Y-128707500I0J-62500D01*
G01*
X59664000Y-128832500D01*
G75*
G02*
X59601500Y-128895000I-62500J0D01*
G01*
G37*
%TD.AperFunction*%
%TO.P,U301,19*%
%TA.AperFunction,SMDPad,CuDef*%
G36*
G01*
X59601500Y-129395000D02*
X58926500Y-129395000D01*
G75*
G02*
X58864000Y-129332500I0J62500D01*
G01*
X58864000Y-129207500D01*
G75*
G02*
X58926500Y-129145000I62500J0D01*
G01*
X59601500Y-129145000D01*
G75*
G02*
X59664000Y-129207500I0J-62500D01*
G01*
X59664000Y-129332500D01*
G75*
G02*
X59601500Y-129395000I-62500J0D01*
G01*
G37*
%TD.AperFunction*%
%TO.P,U301,20*%
%TO.N,Net-(C303-Pad2)*%
%TA.AperFunction,SMDPad,CuDef*%
G36*
G01*
X59601500Y-129895000D02*
X58926500Y-129895000D01*
G75*
G02*
X58864000Y-129832500I0J62500D01*
G01*
X58864000Y-129707500D01*
G75*
G02*
X58926500Y-129645000I62500J0D01*
G01*
X59601500Y-129645000D01*
G75*
G02*
X59664000Y-129707500I0J-62500D01*
G01*
X59664000Y-129832500D01*
G75*
G02*
X59601500Y-129895000I-62500J0D01*
G01*
G37*
%TD.AperFunction*%
D23*
%TO.P,U301,21*%
%TO.N,GND*%
X61214000Y-128770000D03*
%TD*%
D24*
%TO.P,U302,6*%
%TO.N,Net-(C304-Pad2)*%
X69527000Y-114608000D03*
%TO.P,U302,5*%
%TO.N,Net-(R304-Pad2)*%
X70477000Y-114608000D03*
%TO.P,U302,4*%
%TO.N,+5V*%
X71427000Y-114608000D03*
%TO.P,U302,3*%
%TO.N,Net-(L301-Pad2)*%
X71427000Y-117228000D03*
%TO.P,U302,2*%
%TO.N,GND*%
X70477000Y-117228000D03*
%TO.P,U302,1*%
%TO.N,+5V*%
X69527000Y-117228000D03*
%TD*%
%TO.P,U303,1*%
%TO.N,+5V*%
X82527000Y-117228000D03*
%TO.P,U303,2*%
%TO.N,GND*%
X83477000Y-117228000D03*
%TO.P,U303,3*%
%TO.N,Net-(L302-Pad2)*%
X84427000Y-117228000D03*
%TO.P,U303,4*%
%TO.N,+5V*%
X84427000Y-114608000D03*
%TO.P,U303,5*%
%TO.N,Net-(R312-Pad2)*%
X83477000Y-114608000D03*
%TO.P,U303,6*%
%TO.N,Net-(C309-Pad2)*%
X82527000Y-114608000D03*
%TD*%
D25*
%TO.P,U304,5*%
%TO.N,Net-(C312-Pad1)*%
X78166000Y-132047500D03*
%TO.P,U304,6*%
%TO.N,Net-(C310-Pad1)*%
X77216000Y-132047500D03*
%TO.P,U304,4*%
%TO.N,Net-(R319-Pad2)*%
X79116000Y-132047500D03*
%TO.P,U304,3*%
%TO.N,Net-(Q303-Pad3)*%
X79116000Y-134247500D03*
%TO.P,U304,2*%
%TO.N,GND*%
X78166000Y-134247500D03*
%TO.P,U304,1*%
%TO.N,Net-(L303-Pad2)*%
X77216000Y-134247500D03*
%TD*%
D26*
%TO.P,U404,3*%
%TO.N,+1V8*%
X82600000Y-123400000D03*
%TO.P,U404,2*%
%TO.N,Net-(U403-Pad8)*%
X84400000Y-123400000D03*
%TO.P,U404,4*%
%TO.N,Net-(C407-Pad1)*%
X82600000Y-121600000D03*
%TO.P,U404,1*%
%TO.N,AMB_TEMP*%
X84400000Y-121600000D03*
%TD*%
%TO.P,U405,1*%
%TO.N,GND*%
%TA.AperFunction,SMDPad,CuDef*%
G36*
G01*
X93741000Y-137546000D02*
X93741000Y-137821000D01*
G75*
G02*
X93616000Y-137946000I-125000J0D01*
G01*
X93366000Y-137946000D01*
G75*
G02*
X93241000Y-137821000I0J125000D01*
G01*
X93241000Y-137546000D01*
G75*
G02*
X93366000Y-137421000I125000J0D01*
G01*
X93616000Y-137421000D01*
G75*
G02*
X93741000Y-137546000I0J-125000D01*
G01*
G37*
%TD.AperFunction*%
%TO.P,U405,2*%
%TO.N,+1V8*%
%TA.AperFunction,SMDPad,CuDef*%
G36*
G01*
X92941000Y-137546000D02*
X92941000Y-137821000D01*
G75*
G02*
X92816000Y-137946000I-125000J0D01*
G01*
X92566000Y-137946000D01*
G75*
G02*
X92441000Y-137821000I0J125000D01*
G01*
X92441000Y-137546000D01*
G75*
G02*
X92566000Y-137421000I125000J0D01*
G01*
X92816000Y-137421000D01*
G75*
G02*
X92941000Y-137546000I0J-125000D01*
G01*
G37*
%TD.AperFunction*%
%TO.P,U405,3*%
%TO.N,I2C_SDA*%
%TA.AperFunction,SMDPad,CuDef*%
G36*
G01*
X92141000Y-137546000D02*
X92141000Y-137821000D01*
G75*
G02*
X92016000Y-137946000I-125000J0D01*
G01*
X91766000Y-137946000D01*
G75*
G02*
X91641000Y-137821000I0J125000D01*
G01*
X91641000Y-137546000D01*
G75*
G02*
X91766000Y-137421000I125000J0D01*
G01*
X92016000Y-137421000D01*
G75*
G02*
X92141000Y-137546000I0J-125000D01*
G01*
G37*
%TD.AperFunction*%
%TO.P,U405,4*%
%TO.N,I2C_SCL*%
%TA.AperFunction,SMDPad,CuDef*%
G36*
G01*
X91341000Y-137546000D02*
X91341000Y-137821000D01*
G75*
G02*
X91216000Y-137946000I-125000J0D01*
G01*
X90966000Y-137946000D01*
G75*
G02*
X90841000Y-137821000I0J125000D01*
G01*
X90841000Y-137546000D01*
G75*
G02*
X90966000Y-137421000I125000J0D01*
G01*
X91216000Y-137421000D01*
G75*
G02*
X91341000Y-137546000I0J-125000D01*
G01*
G37*
%TD.AperFunction*%
%TO.P,U405,5*%
%TO.N,GND*%
%TA.AperFunction,SMDPad,CuDef*%
G36*
G01*
X91341000Y-135171000D02*
X91341000Y-135446000D01*
G75*
G02*
X91216000Y-135571000I-125000J0D01*
G01*
X90966000Y-135571000D01*
G75*
G02*
X90841000Y-135446000I0J125000D01*
G01*
X90841000Y-135171000D01*
G75*
G02*
X90966000Y-135046000I125000J0D01*
G01*
X91216000Y-135046000D01*
G75*
G02*
X91341000Y-135171000I0J-125000D01*
G01*
G37*
%TD.AperFunction*%
%TO.P,U405,6*%
%TO.N,+1V8*%
%TA.AperFunction,SMDPad,CuDef*%
G36*
G01*
X92141000Y-135171000D02*
X92141000Y-135446000D01*
G75*
G02*
X92016000Y-135571000I-125000J0D01*
G01*
X91766000Y-135571000D01*
G75*
G02*
X91641000Y-135446000I0J125000D01*
G01*
X91641000Y-135171000D01*
G75*
G02*
X91766000Y-135046000I125000J0D01*
G01*
X92016000Y-135046000D01*
G75*
G02*
X92141000Y-135171000I0J-125000D01*
G01*
G37*
%TD.AperFunction*%
%TO.P,U405,7*%
%TO.N,GND*%
%TA.AperFunction,SMDPad,CuDef*%
G36*
G01*
X92941000Y-135171000D02*
X92941000Y-135446000D01*
G75*
G02*
X92816000Y-135571000I-125000J0D01*
G01*
X92566000Y-135571000D01*
G75*
G02*
X92441000Y-135446000I0J125000D01*
G01*
X92441000Y-135171000D01*
G75*
G02*
X92566000Y-135046000I125000J0D01*
G01*
X92816000Y-135046000D01*
G75*
G02*
X92941000Y-135171000I0J-125000D01*
G01*
G37*
%TD.AperFunction*%
%TO.P,U405,8*%
%TO.N,+1V8*%
%TA.AperFunction,SMDPad,CuDef*%
G36*
G01*
X93741000Y-135171000D02*
X93741000Y-135446000D01*
G75*
G02*
X93616000Y-135571000I-125000J0D01*
G01*
X93366000Y-135571000D01*
G75*
G02*
X93241000Y-135446000I0J125000D01*
G01*
X93241000Y-135171000D01*
G75*
G02*
X93366000Y-135046000I125000J0D01*
G01*
X93616000Y-135046000D01*
G75*
G02*
X93741000Y-135171000I0J-125000D01*
G01*
G37*
%TD.AperFunction*%
%TD*%
D27*
%TO.P,U407,1*%
%TO.N,I2C_SDA*%
X95732000Y-137319000D03*
%TO.P,U407,2*%
%TO.N,I2C_SCL*%
X96232000Y-137319000D03*
%TO.P,U407,3*%
%TO.N,+1V8*%
X96732000Y-137319000D03*
%TO.P,U407,4*%
%TO.N,UV_INT*%
X97232000Y-137319000D03*
%TO.P,U407,6*%
%TO.N,Net-(R405-Pad1)*%
X97232000Y-135419000D03*
%TO.P,U407,7*%
X96732000Y-135419000D03*
%TO.P,U407,8*%
%TO.N,GND*%
X96232000Y-135419000D03*
%TO.P,U407,9*%
%TO.N,Net-(R405-Pad1)*%
X95732000Y-135419000D03*
D28*
%TO.P,U407,10*%
%TO.N,Net-(U407-Pad10)*%
X95532000Y-136369000D03*
%TO.P,U407,5*%
%TO.N,Net-(U407-Pad5)*%
X97432000Y-136369000D03*
%TD*%
D29*
%TO.P,J301,1*%
%TO.N,+BATT*%
X54500000Y-138000000D03*
D30*
%TO.P,J301,2*%
%TO.N,GND*%
X51960000Y-138000000D03*
%TD*%
D31*
%TO.N,GND*%
X64508000Y-118011000D03*
X63373000Y-126611000D03*
X57366000Y-121637000D03*
X59372500Y-135755000D03*
X78166000Y-135607000D03*
X77594500Y-127051500D03*
X70509000Y-118900000D03*
X94323000Y-111731000D03*
X97625000Y-139036000D03*
X96228000Y-133956000D03*
X53429000Y-106651000D03*
X53429000Y-116811000D03*
X54699000Y-127860000D03*
X69304000Y-123288000D03*
X68669000Y-137893000D03*
X78321000Y-115414000D03*
X77778241Y-120330000D03*
X94450000Y-116684000D03*
X88608000Y-128876000D03*
X73241000Y-126463000D03*
X100800000Y-128114000D03*
X90640000Y-124658501D03*
X92799000Y-130019000D03*
X92672000Y-136496000D03*
X67145000Y-127987000D03*
X72225000Y-109953000D03*
X85179000Y-109953000D03*
X97498000Y-122526000D03*
%TO.N,+1V8*%
X90259000Y-132432000D03*
X101054000Y-133956000D03*
X91402000Y-133956000D03*
X53175000Y-112747000D03*
X63970000Y-137893000D03*
X73749000Y-119986000D03*
X90252503Y-120335495D03*
X83528000Y-124685000D03*
X88227000Y-109953000D03*
X70320000Y-135734000D03*
X64744316Y-130513011D03*
%TO.N,Net-(C301-Pad2)*%
X58991500Y-130992500D03*
X60960000Y-135755000D03*
%TO.N,+5V*%
X85687000Y-116557000D03*
X67780000Y-118843000D03*
%TO.N,Net-(C304-Pad1)*%
X72509000Y-114963000D03*
X68542000Y-115541000D03*
%TO.N,VBAT_MEAS*%
X59906000Y-113382000D03*
X97498000Y-123669000D03*
%TO.N,POWER_SW*%
X99799997Y-128114000D03*
X101474000Y-123161000D03*
%TO.N,Net-(C309-Pad1)*%
X85558500Y-114963000D03*
X81651524Y-115456702D03*
%TO.N,Net-(C407-Pad1)*%
X86068000Y-128622000D03*
%TO.N,+3V3*%
X64478000Y-119986000D03*
X76543000Y-122526000D03*
X93942000Y-110588000D03*
X88427052Y-108525050D03*
%TO.N,Net-(D301-Pad2)*%
X52667000Y-133194000D03*
X99149000Y-134083000D03*
%TO.N,POWER_ON*%
X90640000Y-126717000D03*
%TO.N,VBUS*%
X90259000Y-118970000D03*
%TO.N,Net-(J202-Pad2)*%
X101474000Y-121868009D03*
%TO.N,Net-(J202-Pad4)*%
X100859073Y-116922996D03*
%TO.N,Net-(J202-Pad10)*%
X98514000Y-116684000D03*
%TO.N,I2C_SCL*%
X81115000Y-137124950D03*
%TO.N,I2C_SDA*%
X82131000Y-136369000D03*
%TO.N,UV_INT*%
X100165000Y-136369000D03*
%TO.N,HEART_INT*%
X79718000Y-135607000D03*
X97945432Y-134084485D03*
%TO.N,FAST_CHARGE*%
X90259000Y-117573000D03*
X97498000Y-121383000D03*
%TO.N,+BATT*%
X59055000Y-126611000D03*
%TO.N,Net-(U201-Pad4)*%
X91695000Y-116684000D03*
%TO.N,Net-(U201-Pad6)*%
X93429347Y-116049000D03*
%TO.N,IR_TEMP*%
X82766000Y-128622000D03*
X92037000Y-129003000D03*
%TO.N,AMB_TEMP*%
X91275000Y-122526000D03*
%TO.N,Net-(U403-Pad8)*%
X85306000Y-125701000D03*
%TO.N,LED_B*%
X101308000Y-115414000D03*
%TO.N,LED_G*%
X101308000Y-114382003D03*
%TO.N,LED_R*%
X101308000Y-113382000D03*
%TO.N,SD_DET*%
X93942000Y-115033000D03*
X61176000Y-113382000D03*
%TD*%
D32*
%TO.N,GND*%
X71366000Y-110991500D02*
X73017000Y-110991500D01*
X64508000Y-116322500D02*
X64508000Y-118011000D01*
D33*
X61214000Y-130720000D02*
X61214000Y-128770000D01*
X61714000Y-128270000D02*
X61214000Y-128770000D01*
X63164000Y-128270000D02*
X61714000Y-128270000D01*
X63164000Y-127770000D02*
X62214000Y-127770000D01*
X62214000Y-127770000D02*
X61214000Y-128770000D01*
X62214000Y-126820000D02*
X62214000Y-127770000D01*
D32*
X62357000Y-123285500D02*
X60706000Y-123285500D01*
X57354000Y-123335500D02*
X57404000Y-123285500D01*
X55753000Y-123335500D02*
X57354000Y-123335500D01*
D33*
X62754000Y-127770000D02*
X62484000Y-127500000D01*
X63164000Y-127770000D02*
X62754000Y-127770000D01*
D32*
X62484000Y-127500000D02*
X61214000Y-128770000D01*
D33*
X62214000Y-127230000D02*
X62484000Y-127500000D01*
X62214000Y-126820000D02*
X62214000Y-127230000D01*
D32*
X63373000Y-126611000D02*
X62484000Y-127500000D01*
D33*
X63164000Y-126820000D02*
X63373000Y-126611000D01*
D32*
X64325500Y-134254500D02*
X62547500Y-134254500D01*
D33*
X59372500Y-134204500D02*
X59372500Y-135755000D01*
X59372500Y-134204500D02*
X59372500Y-134167500D01*
X59372500Y-134204500D02*
X59372500Y-133850000D01*
X59372500Y-133850000D02*
X59880500Y-133342000D01*
X61635000Y-133342000D02*
X62547500Y-134254500D01*
X59880500Y-133342000D02*
X61635000Y-133342000D01*
X64325500Y-134254500D02*
X64325500Y-134294500D01*
X87183000Y-131387500D02*
X86857500Y-131062000D01*
X87183000Y-132475500D02*
X87183000Y-131387500D01*
X88465510Y-131676490D02*
X89080000Y-131062000D01*
X88045510Y-131676490D02*
X88465510Y-131676490D01*
X87183000Y-132539000D02*
X88045510Y-131676490D01*
X78420000Y-133147500D02*
X80174500Y-133147500D01*
X80174500Y-133147500D02*
X80833000Y-132489000D01*
X78166000Y-133401500D02*
X78420000Y-133147500D01*
X78166000Y-134247500D02*
X78166000Y-133401500D01*
X80896500Y-128552000D02*
X80936500Y-128552000D01*
D32*
X77594500Y-128602000D02*
X77594500Y-127051500D01*
X84366000Y-110991500D02*
X86017000Y-110991500D01*
X70477000Y-118868000D02*
X70509000Y-118900000D01*
X70477000Y-117228000D02*
X70477000Y-118868000D01*
X80896500Y-128552000D02*
X80896500Y-127751500D01*
X80196500Y-127051500D02*
X77594500Y-127051500D01*
X80896500Y-127751500D02*
X80196500Y-127051500D01*
D33*
X96728000Y-112376000D02*
X96728000Y-112374000D01*
X101300000Y-112376000D02*
X101300000Y-112358000D01*
X101300000Y-112358000D02*
X100673000Y-111731000D01*
X100673000Y-111731000D02*
X100292000Y-111731000D01*
X95332998Y-111731000D02*
X94323000Y-111731000D01*
X99014000Y-111739000D02*
X99022000Y-111731000D01*
X99014000Y-112376000D02*
X99014000Y-111739000D01*
X100292000Y-111731000D02*
X99022000Y-111731000D01*
X96728000Y-112376000D02*
X96728000Y-111739000D01*
X96728000Y-111739000D02*
X96736000Y-111731000D01*
X96736000Y-111731000D02*
X95332998Y-111731000D01*
X99022000Y-111731000D02*
X96736000Y-111731000D01*
D32*
X99302500Y-139036000D02*
X97625000Y-139036000D01*
D33*
X96232000Y-133960000D02*
X96228000Y-133956000D01*
X96232000Y-135419000D02*
X96232000Y-133960000D01*
D32*
X93491000Y-136807000D02*
X93491000Y-137683500D01*
X93180000Y-136496000D02*
X93491000Y-136807000D01*
X92691000Y-136477000D02*
X92672000Y-136496000D01*
X92691000Y-135308500D02*
X92691000Y-136477000D01*
X92672000Y-136496000D02*
X93180000Y-136496000D01*
X91402000Y-136496000D02*
X92672000Y-136496000D01*
X91091000Y-136439000D02*
X91148000Y-136496000D01*
X91091000Y-135308500D02*
X91091000Y-136439000D01*
X91148000Y-136496000D02*
X89751000Y-136496000D01*
X91402000Y-136496000D02*
X91148000Y-136496000D01*
X92799000Y-131823500D02*
X94450000Y-131823500D01*
D34*
X51495000Y-116860000D02*
X51495000Y-106640000D01*
D32*
X57404000Y-121675000D02*
X57366000Y-121637000D01*
X57404000Y-123285500D02*
X57404000Y-121675000D01*
X56000000Y-107215000D02*
X55425000Y-106640000D01*
X56000000Y-108550000D02*
X56000000Y-107215000D01*
X56000000Y-116285000D02*
X55425000Y-116860000D01*
X56000000Y-114950000D02*
X56000000Y-116285000D01*
X53418000Y-106640000D02*
X53429000Y-106651000D01*
D34*
X55425000Y-106640000D02*
X53418000Y-106640000D01*
X53418000Y-106640000D02*
X51495000Y-106640000D01*
D32*
X53380000Y-116860000D02*
X53429000Y-116811000D01*
D34*
X55425000Y-116860000D02*
X53380000Y-116860000D01*
X53380000Y-116860000D02*
X51495000Y-116860000D01*
D32*
X56006000Y-108556000D02*
X56000000Y-108550000D01*
X60711000Y-108556000D02*
X56006000Y-108556000D01*
X55694000Y-126865000D02*
X54699000Y-127860000D01*
X55779500Y-126865000D02*
X55694000Y-126865000D01*
X63373000Y-124301500D02*
X62357000Y-123285500D01*
X63373000Y-126611000D02*
X63373000Y-124301500D01*
X73276500Y-128602000D02*
X73276500Y-128586500D01*
X77508000Y-116227000D02*
X78321000Y-115414000D01*
X77508000Y-116322500D02*
X77508000Y-116227000D01*
X79473501Y-118288001D02*
X83193999Y-118288001D01*
X77508000Y-116322500D02*
X79473501Y-118288001D01*
X83477000Y-118005000D02*
X83477000Y-117228000D01*
X83193999Y-118288001D02*
X83477000Y-118005000D01*
X88250500Y-122730000D02*
X88200500Y-122780000D01*
X88250500Y-121129000D02*
X88250500Y-122730000D01*
X95550000Y-121230000D02*
X95550000Y-122500000D01*
X87650500Y-136496000D02*
X89751000Y-136496000D01*
X85468500Y-134314000D02*
X87650500Y-136496000D01*
X73276500Y-126498500D02*
X73241000Y-126463000D01*
X73276500Y-128602000D02*
X73276500Y-126498500D01*
X94439998Y-125040000D02*
X95550000Y-125040000D01*
X93899999Y-124500001D02*
X94439998Y-125040000D01*
X93899999Y-123039999D02*
X93899999Y-124500001D01*
X94439998Y-122500000D02*
X93899999Y-123039999D01*
X95550000Y-122500000D02*
X94439998Y-122500000D01*
X95550000Y-125040000D02*
X96329000Y-125040000D01*
X92799000Y-131823500D02*
X92799000Y-130019000D01*
X85468500Y-134253500D02*
X87183000Y-132539000D01*
X85468500Y-134314000D02*
X85468500Y-134253500D01*
X64346500Y-134233500D02*
X64325500Y-134254500D01*
X66002000Y-134233500D02*
X64346500Y-134233500D01*
X89327184Y-122780000D02*
X88200500Y-122780000D01*
X90640000Y-124092816D02*
X89327184Y-122780000D01*
X90640000Y-124658501D02*
X90640000Y-124092816D01*
X71366000Y-110812000D02*
X72225000Y-109953000D01*
X71366000Y-110991500D02*
X71366000Y-110812000D01*
X84366000Y-110766000D02*
X85179000Y-109953000D01*
X84366000Y-110991500D02*
X84366000Y-110766000D01*
X97472000Y-122500000D02*
X97498000Y-122526000D01*
X95550000Y-122500000D02*
X97472000Y-122500000D01*
X78166000Y-134247500D02*
X78166000Y-135607000D01*
D33*
%TO.N,+1V8*%
X88897500Y-132489000D02*
X89128000Y-132489000D01*
D32*
X101101000Y-135480000D02*
X101101000Y-137258000D01*
X101101000Y-138962500D02*
X101027500Y-139036000D01*
X101101000Y-137258000D02*
X101101000Y-138962500D01*
D33*
X96732000Y-137969000D02*
X96910000Y-138147000D01*
X96732000Y-137319000D02*
X96732000Y-137969000D01*
X100138500Y-138147000D02*
X101027500Y-139036000D01*
X96910000Y-138147000D02*
X100138500Y-138147000D01*
D32*
X101077500Y-133979500D02*
X101054000Y-133956000D01*
X101077500Y-135480000D02*
X101077500Y-133979500D01*
X92799000Y-133548500D02*
X94450000Y-133548500D01*
X90202000Y-132489000D02*
X90259000Y-132432000D01*
X88897500Y-132489000D02*
X90202000Y-132489000D01*
X91891000Y-134456500D02*
X92799000Y-133548500D01*
X91891000Y-135308500D02*
X91891000Y-134456500D01*
X94450000Y-133548500D02*
X94450000Y-134349500D01*
X92691000Y-137683500D02*
X92691000Y-138293000D01*
X92691000Y-138293000D02*
X92926000Y-138528000D01*
X92926000Y-138528000D02*
X94196000Y-138528000D01*
X94196000Y-138528000D02*
X94450000Y-138274000D01*
X94405500Y-135308500D02*
X94450000Y-135353000D01*
X93491000Y-135308500D02*
X94405500Y-135308500D01*
X94450000Y-135353000D02*
X94450000Y-133548500D01*
X94450000Y-138274000D02*
X94450000Y-135353000D01*
X91891000Y-134445000D02*
X91402000Y-133956000D01*
X91891000Y-134456500D02*
X91891000Y-134445000D01*
X83528000Y-124685000D02*
X82893000Y-124685000D01*
X82600000Y-124392000D02*
X82600000Y-123400000D01*
X82893000Y-124685000D02*
X82600000Y-124392000D01*
X88176000Y-110004000D02*
X88227000Y-109953000D01*
X88176000Y-111204000D02*
X88176000Y-110004000D01*
X90252503Y-120335495D02*
X93084505Y-120335495D01*
X93460000Y-119960000D02*
X95550000Y-119960000D01*
X93084505Y-120335495D02*
X93460000Y-119960000D01*
X70866000Y-135188000D02*
X70320000Y-135734000D01*
X70866000Y-133992000D02*
X70866000Y-135188000D01*
D33*
%TO.N,Net-(C301-Pad2)*%
X59264000Y-129270000D02*
X59264000Y-128770000D01*
X59264000Y-128770000D02*
X59264000Y-128270000D01*
X57546000Y-128770000D02*
X57292000Y-129024000D01*
X59264000Y-128770000D02*
X57546000Y-128770000D01*
X57504500Y-128811500D02*
X57292000Y-129024000D01*
D32*
X57504500Y-126865000D02*
X57504500Y-128811500D01*
D33*
X59264000Y-129270000D02*
X58618500Y-129270000D01*
X58538990Y-130539990D02*
X58991500Y-130992500D01*
X58538990Y-129349510D02*
X58538990Y-130539990D01*
X58618500Y-129270000D02*
X58538990Y-129349510D01*
X60960000Y-134254500D02*
X60960000Y-135755000D01*
%TO.N,+5V*%
X69715000Y-111065500D02*
X71366000Y-112716500D01*
X69715000Y-110941500D02*
X69715000Y-111065500D01*
D32*
X71366000Y-114547000D02*
X71427000Y-114608000D01*
X71366000Y-112716500D02*
X71366000Y-114547000D01*
X69527000Y-117228000D02*
X69527000Y-116167000D01*
X69527000Y-116167000D02*
X69715000Y-115979000D01*
X69715000Y-115979000D02*
X71239000Y-115979000D01*
X71427000Y-115791000D02*
X71427000Y-114608000D01*
X71239000Y-115979000D02*
X71427000Y-115791000D01*
X84427000Y-115777000D02*
X84427000Y-114608000D01*
X84225000Y-115979000D02*
X84427000Y-115777000D01*
X82701000Y-115979000D02*
X84225000Y-115979000D01*
X82527000Y-116153000D02*
X82701000Y-115979000D01*
X82527000Y-117228000D02*
X82527000Y-116153000D01*
X84427000Y-112777500D02*
X84366000Y-112716500D01*
X84427000Y-114608000D02*
X84427000Y-112777500D01*
D33*
X84366000Y-112716500D02*
X84366000Y-112691000D01*
X82715000Y-111040000D02*
X82715000Y-110941500D01*
X84366000Y-112691000D02*
X82715000Y-111040000D01*
D32*
X85612000Y-116557000D02*
X85687000Y-116557000D01*
X85034000Y-115979000D02*
X85612000Y-116557000D01*
X84225000Y-115979000D02*
X85034000Y-115979000D01*
D34*
X69431000Y-119450002D02*
X69408999Y-119428001D01*
X69431000Y-120494000D02*
X69431000Y-119450002D01*
X75435500Y-126498500D02*
X69431000Y-120494000D01*
X75435500Y-128814500D02*
X75435500Y-126498500D01*
X67802001Y-118820999D02*
X67780000Y-118843000D01*
X69408999Y-118820999D02*
X67802001Y-118820999D01*
X69408999Y-119428001D02*
X69408999Y-118820999D01*
X69408999Y-118820999D02*
X69408999Y-117346001D01*
D33*
%TO.N,Net-(C303-Pad2)*%
X59878998Y-130720000D02*
X60214000Y-130720000D01*
X59264000Y-130105002D02*
X59878998Y-130720000D01*
X59264000Y-129770000D02*
X59264000Y-130105002D01*
X60214000Y-130818000D02*
X60198000Y-130834000D01*
X60214000Y-130720000D02*
X60214000Y-130818000D01*
X60198000Y-131654000D02*
X59372500Y-132479500D01*
X60198000Y-130834000D02*
X60198000Y-131654000D01*
D32*
X57292000Y-134358000D02*
X57340500Y-134358000D01*
X59219000Y-132479500D02*
X59372500Y-132479500D01*
X57340500Y-134358000D02*
X59219000Y-132479500D01*
%TO.N,Net-(C304-Pad2)*%
X64508000Y-114497500D02*
X66159000Y-114497500D01*
D33*
X67760000Y-114497500D02*
X67810000Y-114547500D01*
D32*
X66159000Y-114497500D02*
X67760000Y-114497500D01*
D33*
X69466500Y-114547500D02*
X69527000Y-114608000D01*
D32*
X67810000Y-114547500D02*
X69466500Y-114547500D01*
%TO.N,Net-(C304-Pad1)*%
X75176000Y-112504000D02*
X74079000Y-112504000D01*
X73866500Y-112716500D02*
X73017000Y-112716500D01*
X74079000Y-112504000D02*
X73866500Y-112716500D01*
D33*
X67760000Y-116322500D02*
X67810000Y-116272500D01*
D32*
X66159000Y-116322500D02*
X67760000Y-116322500D01*
D34*
X75176000Y-112504000D02*
X75176000Y-114953000D01*
D33*
X73017000Y-112716500D02*
X73017000Y-112804000D01*
X72519000Y-114953000D02*
X72509000Y-114963000D01*
D32*
X74668000Y-114953000D02*
X72519000Y-114953000D01*
X67810500Y-116272500D02*
X68542000Y-115541000D01*
X67810000Y-116272500D02*
X67810500Y-116272500D01*
D33*
%TO.N,VBAT_MEAS*%
X57404000Y-125110500D02*
X57404000Y-125087000D01*
X59055000Y-123436000D02*
X59055000Y-123285500D01*
D32*
X57404000Y-125087000D02*
X59055000Y-123436000D01*
D33*
X55803000Y-125110500D02*
X55753000Y-125060500D01*
D32*
X57404000Y-125110500D02*
X55803000Y-125110500D01*
X59055000Y-123285500D02*
X59055000Y-114360000D01*
X59055000Y-114233000D02*
X59906000Y-113382000D01*
X59055000Y-114360000D02*
X59055000Y-114233000D01*
D33*
%TO.N,POWER_SW*%
X88847500Y-134264000D02*
X88897500Y-134314000D01*
D32*
X87183000Y-134264000D02*
X88847500Y-134264000D01*
D33*
X88897500Y-134314000D02*
X88897500Y-134290500D01*
D32*
X88680000Y-129772000D02*
X90266000Y-129772000D01*
X89635002Y-134314000D02*
X88897500Y-134314000D01*
X91109001Y-132840001D02*
X89635002Y-134314000D01*
X91109001Y-130615001D02*
X91109001Y-132840001D01*
X90266000Y-129772000D02*
X91109001Y-130615001D01*
X91667998Y-128114000D02*
X99799997Y-128114000D01*
X90266000Y-129515998D02*
X91667998Y-128114000D01*
X90266000Y-129772000D02*
X90266000Y-129515998D01*
D33*
%TO.N,Net-(C309-Pad1)*%
X80760000Y-116322500D02*
X80810000Y-116272500D01*
D32*
X79159000Y-116322500D02*
X80760000Y-116322500D01*
D34*
X88176000Y-114445000D02*
X87668000Y-114953000D01*
X88176000Y-112504000D02*
X88176000Y-114445000D01*
D32*
X88176000Y-112504000D02*
X87065000Y-112504000D01*
X86852500Y-112716500D02*
X86017000Y-112716500D01*
X87065000Y-112504000D02*
X86852500Y-112716500D01*
D33*
X85568500Y-114953000D02*
X85558500Y-114963000D01*
D32*
X87668000Y-114953000D02*
X85568500Y-114953000D01*
X80835726Y-116272500D02*
X81651524Y-115456702D01*
X80810000Y-116272500D02*
X80835726Y-116272500D01*
%TO.N,Net-(C309-Pad2)*%
X77508000Y-114497500D02*
X79159000Y-114497500D01*
D33*
X80760000Y-114497500D02*
X80810000Y-114547500D01*
D32*
X79159000Y-114497500D02*
X80760000Y-114497500D01*
D33*
X82466500Y-114547500D02*
X82527000Y-114608000D01*
D32*
X80810000Y-114547500D02*
X82466500Y-114547500D01*
%TO.N,Net-(C310-Pad1)*%
X57292000Y-131691000D02*
X57292000Y-132297998D01*
X55992000Y-134358000D02*
X55992000Y-133166500D01*
X55992000Y-133166500D02*
X56134000Y-133024500D01*
X57292000Y-132941000D02*
X57292000Y-131691000D01*
X57208500Y-133024500D02*
X57292000Y-132941000D01*
X56134000Y-133024500D02*
X57208500Y-133024500D01*
D33*
X83754000Y-134314000D02*
X83754000Y-134290500D01*
X84635000Y-133346000D02*
X84635000Y-131062000D01*
X83754000Y-134290500D02*
X84635000Y-133409500D01*
D32*
X74745000Y-132047500D02*
X74356000Y-132436500D01*
X77216000Y-132047500D02*
X74745000Y-132047500D01*
X73975000Y-132055500D02*
X74356000Y-132436500D01*
X73276500Y-130353500D02*
X73975000Y-131052000D01*
X73975000Y-131052000D02*
X73975000Y-132055500D01*
X73276500Y-130327000D02*
X73276500Y-130353500D01*
X55992000Y-134358000D02*
X55992000Y-135884000D01*
X73744500Y-132436500D02*
X72352000Y-133829000D01*
X74356000Y-132436500D02*
X73744500Y-132436500D01*
X51025000Y-121285002D02*
X51025000Y-120700000D01*
X51650001Y-121910003D02*
X51025000Y-121285002D01*
X51650001Y-123150998D02*
X51650001Y-121910003D01*
X51025000Y-123775999D02*
X51650001Y-123150998D01*
X51025000Y-124300000D02*
X51025000Y-123775999D01*
X56713001Y-136605001D02*
X71953001Y-136605001D01*
X55992000Y-135884000D02*
X56713001Y-136605001D01*
X71953001Y-136513999D02*
X72352000Y-136115000D01*
X71953001Y-136605001D02*
X71953001Y-136513999D01*
X72352000Y-133829000D02*
X72352000Y-136115000D01*
X53704000Y-134358000D02*
X55992000Y-134358000D01*
X52053000Y-134358000D02*
X53704000Y-134358000D01*
X51025000Y-133330000D02*
X52053000Y-134358000D01*
X51025000Y-124300000D02*
X51025000Y-133330000D01*
X83754000Y-134314000D02*
X82662000Y-134314000D01*
X71953001Y-136605001D02*
X72352000Y-137004000D01*
X79972000Y-137004000D02*
X82662000Y-134314000D01*
X72352000Y-137004000D02*
X79972000Y-137004000D01*
D33*
%TO.N,Net-(C312-Pad1)*%
X77594500Y-130203000D02*
X79245500Y-128552000D01*
X77594500Y-130327000D02*
X77594500Y-130203000D01*
D32*
X75648000Y-130327000D02*
X75435500Y-130114500D01*
X77594500Y-130327000D02*
X75648000Y-130327000D01*
X78166000Y-130898500D02*
X77594500Y-130327000D01*
X78166000Y-132047500D02*
X78166000Y-130898500D01*
%TO.N,Net-(C407-Pad1)*%
X82600000Y-121600000D02*
X81660000Y-121600000D01*
X81660000Y-121600000D02*
X81242000Y-122018000D01*
X85502315Y-128622000D02*
X86068000Y-128622000D01*
X81242000Y-124361685D02*
X85502315Y-128622000D01*
X81242000Y-122018000D02*
X81242000Y-124361685D01*
%TO.N,+3V3*%
X93918500Y-106016000D02*
X93918500Y-107667000D01*
X93918500Y-107667000D02*
X93918500Y-109318000D01*
X93918500Y-110564500D02*
X93942000Y-110588000D01*
X93918500Y-109318000D02*
X93918500Y-110564500D01*
D34*
X63081000Y-118589000D02*
X63081000Y-112540478D01*
X63081000Y-112540478D02*
X67096428Y-108525050D01*
X64478000Y-119986000D02*
X63081000Y-118589000D01*
X67096428Y-108525050D02*
X73718050Y-108525050D01*
X75176000Y-109983000D02*
X75176000Y-111204000D01*
X73718050Y-108525050D02*
X75176000Y-109983000D01*
X75176000Y-111204000D02*
X75176000Y-110304000D01*
X75176000Y-110304000D02*
X76954950Y-108525050D01*
X76954950Y-108525050D02*
X79972000Y-108525050D01*
X79972000Y-108525050D02*
X83782000Y-108525050D01*
X83782000Y-108525050D02*
X88427052Y-108525050D01*
D32*
%TO.N,Net-(D301-Pad2)*%
X53450001Y-121675001D02*
X52475000Y-120700000D01*
X53450001Y-123324999D02*
X53450001Y-121675001D01*
X52475000Y-124300000D02*
X53450001Y-123324999D01*
D33*
X90493000Y-128114000D02*
X91890000Y-126717000D01*
X88296998Y-128114000D02*
X90493000Y-128114000D01*
X87818000Y-128592998D02*
X88296998Y-128114000D01*
X88080000Y-131060000D02*
X87818000Y-130798000D01*
X87818000Y-130798000D02*
X87818000Y-128592998D01*
X88080000Y-131062000D02*
X88080000Y-131060000D01*
D32*
X91890000Y-126717000D02*
X91890000Y-126824000D01*
X52475000Y-125792038D02*
X51725010Y-126542028D01*
X52475000Y-124300000D02*
X52475000Y-125792038D01*
X51725010Y-128669973D02*
X52667000Y-129611963D01*
X52667000Y-129611963D02*
X52667000Y-133194000D01*
X51725010Y-126542028D02*
X51725010Y-128669973D01*
X101650001Y-131581999D02*
X99149000Y-134083000D01*
X101650001Y-127313001D02*
X101650001Y-131581999D01*
X101054000Y-126717000D02*
X101650001Y-127313001D01*
X91890000Y-126717000D02*
X101054000Y-126717000D01*
D33*
%TO.N,Net-(D301-Pad1)*%
X85468500Y-131451000D02*
X85857500Y-131062000D01*
X85468500Y-132425500D02*
X85468500Y-131451000D01*
D32*
X89390000Y-124658501D02*
X89390000Y-126717000D01*
D33*
X88481000Y-126717000D02*
X89390000Y-126717000D01*
X86992500Y-128205500D02*
X88481000Y-126717000D01*
X86992500Y-130177002D02*
X86992500Y-128205500D01*
X86752502Y-130417000D02*
X86992500Y-130177002D01*
X85857500Y-130917000D02*
X86357500Y-130417000D01*
X86357500Y-130417000D02*
X86752502Y-130417000D01*
X85857500Y-131062000D02*
X85857500Y-130917000D01*
D32*
%TO.N,POWER_ON*%
X90640000Y-125908501D02*
X90640000Y-126717000D01*
X91890000Y-124658501D02*
X90640000Y-125908501D01*
D33*
%TO.N,Net-(J201-Pad6)*%
X56810002Y-112500000D02*
X56000000Y-112500000D01*
X56900001Y-112410001D02*
X56810002Y-112500000D01*
X56825000Y-111500000D02*
X56900001Y-111575001D01*
X56000000Y-111500000D02*
X56825000Y-111500000D01*
X61566001Y-110091001D02*
X61566001Y-107803001D01*
X59630001Y-112027001D02*
X61566001Y-110091001D01*
X56900001Y-112027001D02*
X59630001Y-112027001D01*
X56900001Y-111575001D02*
X56900001Y-112027001D01*
X56900001Y-112027001D02*
X56900001Y-112410001D01*
X61369000Y-107606000D02*
X60711000Y-107606000D01*
X61566001Y-107803001D02*
X61369000Y-107606000D01*
%TO.N,Net-(J201-Pad5)*%
X55099999Y-111959999D02*
X55140000Y-112000000D01*
X55099999Y-111075001D02*
X55099999Y-111959999D01*
X55175000Y-111000000D02*
X55099999Y-111075001D01*
X55140000Y-112000000D02*
X56000000Y-112000000D01*
X56000000Y-111000000D02*
X55175000Y-111000000D01*
X56000000Y-111000000D02*
X58224000Y-111000000D01*
X59718000Y-109506000D02*
X60711000Y-109506000D01*
X58224000Y-111000000D02*
X59718000Y-109506000D01*
D34*
%TO.N,VBUS*%
X55992000Y-131691000D02*
X55992000Y-129024000D01*
D33*
X55397002Y-109350000D02*
X56000000Y-109350000D01*
X54649989Y-113402987D02*
X54649989Y-110097013D01*
X54649989Y-110097013D02*
X55397002Y-109350000D01*
X55397002Y-114150000D02*
X54649989Y-113402987D01*
X56000000Y-114150000D02*
X55397002Y-114150000D01*
D32*
X56000000Y-114150000D02*
X56885002Y-114150000D01*
D33*
X58542002Y-112493000D02*
X56885002Y-114150000D01*
X59800412Y-112493000D02*
X58542002Y-112493000D01*
X62016010Y-110277402D02*
X59800412Y-112493000D01*
X62131000Y-108556000D02*
X62016011Y-108670989D01*
X62016011Y-108670989D02*
X62016010Y-110277402D01*
X62911000Y-108556000D02*
X62131000Y-108556000D01*
D32*
X62911000Y-108556000D02*
X63689962Y-108556000D01*
X63689962Y-108556000D02*
X66070942Y-106175020D01*
X66070942Y-106175020D02*
X68669000Y-106175020D01*
X68669000Y-106175020D02*
X89275020Y-106175020D01*
X90291020Y-106175020D02*
X91971990Y-107855990D01*
X89275020Y-106175020D02*
X90291020Y-106175020D01*
X91971990Y-115646268D02*
X92501723Y-116176000D01*
X91971990Y-107855990D02*
X91971990Y-115646268D01*
X92501723Y-116176000D02*
X92545000Y-116219277D01*
X52667000Y-128622000D02*
X53069000Y-129024000D01*
X54699000Y-124558000D02*
X52667000Y-126590000D01*
X52667000Y-126590000D02*
X52667000Y-128622000D01*
X54699000Y-122272000D02*
X54699000Y-124558000D01*
X57366000Y-120494000D02*
X54699000Y-122272000D01*
X57366000Y-114630998D02*
X57366000Y-120494000D01*
X53069000Y-129024000D02*
X55992000Y-129024000D01*
X56885002Y-114150000D02*
X57366000Y-114630998D01*
X91275000Y-118970000D02*
X90259000Y-118970000D01*
X92545000Y-117700000D02*
X91275000Y-118970000D01*
X92545001Y-116219278D02*
X92545000Y-117700000D01*
X92501723Y-116176000D02*
X92545001Y-116219278D01*
D33*
%TO.N,Net-(J202-Pad2)*%
X101474000Y-121098998D02*
X101474000Y-121868009D01*
X100335002Y-119960000D02*
X101474000Y-121098998D01*
X99450000Y-119960000D02*
X100335002Y-119960000D01*
%TO.N,Net-(J202-Pad4)*%
X100859073Y-116922996D02*
X99955069Y-117827000D01*
X98514000Y-117827000D02*
X97924999Y-118416001D01*
X99955069Y-117827000D02*
X98514000Y-117827000D01*
X98564998Y-121230000D02*
X99450000Y-121230000D01*
X97924999Y-120590001D02*
X98564998Y-121230000D01*
X97924999Y-118416001D02*
X97924999Y-120590001D01*
%TO.N,Net-(J202-Pad10)*%
X102199001Y-123740999D02*
X102199001Y-117009999D01*
X100900000Y-125040000D02*
X102199001Y-123740999D01*
X99450000Y-125040000D02*
X100900000Y-125040000D01*
X99000005Y-116197995D02*
X98514000Y-116684000D01*
X101386997Y-116197995D02*
X99000005Y-116197995D01*
X102199001Y-117009999D02*
X101386997Y-116197995D01*
%TO.N,I2C_SCL*%
X91091000Y-138142596D02*
X91091000Y-137683500D01*
X92501423Y-139553019D02*
X91091000Y-138142596D01*
X94948980Y-139553020D02*
X92501423Y-139553019D01*
X96232000Y-138270000D02*
X94948980Y-139553020D01*
X96232000Y-137319000D02*
X96232000Y-138270000D01*
X81673550Y-137683500D02*
X81115000Y-137124950D01*
X91091000Y-137683500D02*
X81673550Y-137683500D01*
%TO.N,I2C_SDA*%
X91891000Y-138306186D02*
X91891000Y-137683500D01*
X92687824Y-139103010D02*
X91891000Y-138306186D01*
X94597990Y-139103010D02*
X92687824Y-139103010D01*
X95732000Y-137969000D02*
X94597990Y-139103010D01*
X95732000Y-137319000D02*
X95732000Y-137969000D01*
X88389010Y-137095990D02*
X88251510Y-137233490D01*
X91565990Y-137095990D02*
X88389010Y-137095990D01*
X91891000Y-137421000D02*
X91565990Y-137095990D01*
X91891000Y-137683500D02*
X91891000Y-137421000D01*
X88251510Y-137233490D02*
X83909000Y-137233490D01*
X83909000Y-137233490D02*
X82995490Y-137233490D01*
X82995490Y-137233490D02*
X82131000Y-136369000D01*
%TO.N,UV_INT*%
X97293000Y-137258000D02*
X97232000Y-137319000D01*
D32*
X99276000Y-137258000D02*
X97393000Y-137258000D01*
D33*
X99276000Y-137258000D02*
X100165000Y-136369000D01*
X99252500Y-137258000D02*
X99276000Y-137258000D01*
D32*
%TO.N,Net-(JP304-Pad1)*%
X70866000Y-132692000D02*
X71076000Y-132692000D01*
X68167000Y-133992000D02*
X68161000Y-133986000D01*
D33*
X67037510Y-133986000D02*
X68161000Y-133986000D01*
X66393510Y-133342000D02*
X67037510Y-133986000D01*
X63627000Y-133342000D02*
X66393510Y-133342000D01*
X63436500Y-133151500D02*
X63627000Y-133342000D01*
X63436500Y-131627500D02*
X63436500Y-133151500D01*
X63309500Y-131500500D02*
X63436500Y-131627500D01*
X61849000Y-131500500D02*
X63309500Y-131500500D01*
X61714000Y-131365500D02*
X61849000Y-131500500D01*
X61714000Y-130720000D02*
X61714000Y-131365500D01*
D32*
X69147000Y-133986000D02*
X68161000Y-133986000D01*
X69558000Y-133575000D02*
X69147000Y-133986000D01*
X69558000Y-132940000D02*
X69558000Y-133575000D01*
X69806000Y-132692000D02*
X69558000Y-132940000D01*
X70866000Y-132692000D02*
X69806000Y-132692000D01*
%TO.N,FAST_CHARGE*%
X67883500Y-132408500D02*
X68161000Y-132686000D01*
X66002000Y-132408500D02*
X67883500Y-132408500D01*
X68161000Y-132686000D02*
X69304000Y-131543000D01*
X69304000Y-131543000D02*
X71590000Y-131543000D01*
X71590000Y-131543000D02*
X72098000Y-131035000D01*
X72098000Y-128949516D02*
X64084493Y-120936009D01*
X72098000Y-131035000D02*
X72098000Y-128949516D01*
X62130990Y-118982507D02*
X62130990Y-113062010D01*
X64084493Y-120936009D02*
X62130990Y-118982507D01*
X62130990Y-112146972D02*
X66702922Y-107575040D01*
X62130990Y-113062010D02*
X62130990Y-112146972D01*
X66702922Y-107575040D02*
X80117443Y-107575040D01*
X89659040Y-107575040D02*
X90571970Y-108487970D01*
X80117443Y-107575040D02*
X89659040Y-107575040D01*
X90571970Y-108487970D02*
X90571970Y-116049000D01*
X90571970Y-117260030D02*
X90259000Y-117573000D01*
X90571970Y-116049000D02*
X90571970Y-117260030D01*
D34*
%TO.N,Net-(L301-Pad2)*%
X73794000Y-118153000D02*
X74287000Y-118153000D01*
X72869000Y-117228000D02*
X73794000Y-118153000D01*
X71602001Y-117228000D02*
X72869000Y-117228000D01*
%TO.N,Net-(L302-Pad2)*%
X84502001Y-117437001D02*
X84502001Y-117228000D01*
X85218000Y-118153000D02*
X84502001Y-117437001D01*
X87668000Y-118153000D02*
X85218000Y-118153000D01*
D32*
%TO.N,Net-(L303-Pad2)*%
X74356000Y-135636500D02*
X74978500Y-135636500D01*
X76367500Y-134247500D02*
X77216000Y-134247500D01*
X74978500Y-135636500D02*
X76367500Y-134247500D01*
D33*
%TO.N,Net-(Q201-Pad3)*%
X96228000Y-111086000D02*
X97381000Y-111086000D01*
X98157000Y-110310000D02*
X98157000Y-109167000D01*
X97381000Y-111086000D02*
X98157000Y-110310000D01*
%TO.N,Net-(Q202-Pad3)*%
X98514000Y-111086000D02*
X99032000Y-111086000D01*
X99657000Y-110461000D02*
X99657000Y-109167000D01*
X99032000Y-111086000D02*
X99657000Y-110461000D01*
%TO.N,Net-(Q203-Pad3)*%
X100800000Y-111086000D02*
X100800000Y-110715000D01*
X101157000Y-110358000D02*
X101157000Y-109167000D01*
X100800000Y-110715000D02*
X101157000Y-110358000D01*
%TO.N,Net-(Q302-Pad3)*%
X83635000Y-131062000D02*
X83635000Y-130599500D01*
X83635000Y-130599500D02*
X83817500Y-130417000D01*
X85712500Y-130417000D02*
X86357500Y-129772000D01*
X83817500Y-130417000D02*
X85712500Y-130417000D01*
X83754000Y-132489000D02*
X83754000Y-131750500D01*
X83635000Y-131631500D02*
X83635000Y-131062000D01*
X83754000Y-131750500D02*
X83635000Y-131631500D01*
%TO.N,Net-(Q303-Pad3)*%
X80766500Y-134247500D02*
X80833000Y-134314000D01*
D32*
X79116000Y-134247500D02*
X80766500Y-134247500D01*
D33*
X80833000Y-134314000D02*
X80833000Y-134290500D01*
D32*
X84086010Y-129841990D02*
X82943010Y-129841990D01*
X84135000Y-129793000D02*
X84086010Y-129841990D01*
X84135000Y-129772000D02*
X84135000Y-129793000D01*
X82943010Y-129841990D02*
X82385000Y-130400000D01*
X82385000Y-130400000D02*
X82385000Y-133575000D01*
X82385000Y-133575000D02*
X81623000Y-134337000D01*
X81600000Y-134314000D02*
X80833000Y-134314000D01*
X81623000Y-134337000D02*
X81600000Y-134314000D01*
D33*
%TO.N,Net-(R204-Pad2)*%
X98006000Y-106016000D02*
X98157000Y-106167000D01*
X95743500Y-106016000D02*
X98006000Y-106016000D01*
%TO.N,Net-(R205-Pad2)*%
X95743500Y-107667000D02*
X96990000Y-107667000D01*
X96990000Y-107667000D02*
X97244000Y-107413000D01*
X97244000Y-107413000D02*
X98768000Y-107413000D01*
X99657000Y-106524000D02*
X99657000Y-106167000D01*
X98768000Y-107413000D02*
X99657000Y-106524000D01*
%TO.N,Net-(R206-Pad2)*%
X95743500Y-109318000D02*
X96736000Y-109318000D01*
X96736000Y-109318000D02*
X97117000Y-108937000D01*
X97117000Y-108937000D02*
X97117000Y-108302000D01*
X97117000Y-108302000D02*
X97498000Y-107921000D01*
X97498000Y-107921000D02*
X100800000Y-107921000D01*
X101157000Y-107564000D02*
X101157000Y-106167000D01*
X100800000Y-107921000D02*
X101157000Y-107564000D01*
%TO.N,Net-(R301-Pad2)*%
X60714000Y-132183500D02*
X60960000Y-132429500D01*
X60714000Y-130720000D02*
X60714000Y-132183500D01*
D32*
X60960000Y-132429500D02*
X62547500Y-132429500D01*
D33*
%TO.N,Net-(R303-Pad1)*%
X64325500Y-132429500D02*
X64325500Y-131119500D01*
X63926000Y-130720000D02*
X62214000Y-130720000D01*
X64325500Y-131119500D02*
X63926000Y-130720000D01*
%TO.N,Net-(R304-Pad2)*%
X70477000Y-113528500D02*
X69715000Y-112766500D01*
X70477000Y-114608000D02*
X70477000Y-113528500D01*
D32*
X67899500Y-112766500D02*
X67683000Y-112550000D01*
X69715000Y-112766500D02*
X67899500Y-112766500D01*
D33*
%TO.N,Net-(R305-Pad1)*%
X61714000Y-125753500D02*
X62357000Y-125110500D01*
X61714000Y-126820000D02*
X61714000Y-125753500D01*
%TO.N,Net-(R306-Pad1)*%
X61214000Y-125618500D02*
X60706000Y-125110500D01*
X61214000Y-126820000D02*
X61214000Y-125618500D01*
%TO.N,+BATT*%
X60214000Y-126820000D02*
X60714000Y-126820000D01*
X60214000Y-126269500D02*
X59055000Y-125110500D01*
X60214000Y-126820000D02*
X60214000Y-126269500D01*
X59264000Y-126820000D02*
X59055000Y-126611000D01*
X59264000Y-127074000D02*
X59264000Y-126820000D01*
X59264000Y-127770000D02*
X59264000Y-127074000D01*
X59518000Y-126820000D02*
X59264000Y-127074000D01*
X60214000Y-126820000D02*
X59518000Y-126820000D01*
X59518000Y-126820000D02*
X59264000Y-126820000D01*
%TO.N,Net-(R312-Pad2)*%
X83477000Y-113528500D02*
X82715000Y-112766500D01*
X83477000Y-114608000D02*
X83477000Y-113528500D01*
D32*
X80899500Y-112766500D02*
X80683000Y-112550000D01*
X82715000Y-112766500D02*
X80899500Y-112766500D01*
D33*
%TO.N,Net-(R319-Pad2)*%
X79116000Y-130506500D02*
X79245500Y-130377000D01*
D32*
X79116000Y-132047500D02*
X79116000Y-130506500D01*
X79245500Y-130377000D02*
X80896500Y-130377000D01*
D33*
%TO.N,Net-(R405-Pad1)*%
X97293000Y-135480000D02*
X97232000Y-135419000D01*
D32*
X99276000Y-135480000D02*
X97393000Y-135480000D01*
D33*
X97232000Y-135419000D02*
X96732000Y-135419000D01*
X96953001Y-133607999D02*
X96953001Y-134373999D01*
X96576001Y-133230999D02*
X96953001Y-133607999D01*
X95879999Y-133230999D02*
X96576001Y-133230999D01*
X95502999Y-134304001D02*
X95502999Y-133607999D01*
X95732000Y-134533002D02*
X95502999Y-134304001D01*
X95502999Y-133607999D02*
X95879999Y-133230999D01*
X95732000Y-135419000D02*
X95732000Y-134533002D01*
X96732000Y-134595000D02*
X96732000Y-135419000D01*
X96953001Y-134373999D02*
X96732000Y-134595000D01*
%TO.N,Net-(TP301-Pad1)*%
X65706500Y-129770000D02*
X66294000Y-130357500D01*
X63164000Y-129770000D02*
X65706500Y-129770000D01*
%TO.N,Net-(TP302-Pad1)*%
X69024500Y-128770000D02*
X70612000Y-130357500D01*
X63164000Y-128770000D02*
X69024500Y-128770000D01*
%TO.N,Net-(TP303-Pad1)*%
X67365500Y-129270000D02*
X68453000Y-130357500D01*
X63164000Y-129270000D02*
X67365500Y-129270000D01*
D32*
%TO.N,Net-(U201-Pad4)*%
X91271980Y-108171980D02*
X91271980Y-116260980D01*
X89975030Y-106875030D02*
X91271980Y-108171980D01*
X66412970Y-106875030D02*
X89975030Y-106875030D01*
X91271980Y-116260980D02*
X91695000Y-116684000D01*
X63782000Y-109506000D02*
X66412970Y-106875030D01*
X62911000Y-109506000D02*
X63782000Y-109506000D01*
%TO.N,Net-(U201-Pad6)*%
X63650000Y-107606000D02*
X62911000Y-107606000D01*
X65780990Y-105475010D02*
X63650000Y-107606000D01*
X90480010Y-105475010D02*
X65780990Y-105475010D01*
X90513000Y-105508000D02*
X90480010Y-105475010D01*
X90640000Y-105508000D02*
X90513000Y-105508000D01*
X92672000Y-107540000D02*
X90640000Y-105508000D01*
X92672000Y-115356315D02*
X92672000Y-107540000D01*
X93429347Y-116049000D02*
X92672000Y-115356315D01*
%TO.N,AMB_TEMP*%
X86425500Y-122730000D02*
X86475500Y-122780000D01*
X86425500Y-121129000D02*
X86425500Y-122730000D01*
X84400000Y-121600000D02*
X84454000Y-121600000D01*
X84400000Y-121600000D02*
X84581000Y-121600000D01*
X85052000Y-121129000D02*
X86425500Y-121129000D01*
X84581000Y-121600000D02*
X85052000Y-121129000D01*
X86475500Y-122780000D02*
X86475500Y-122753500D01*
D33*
X87719000Y-120240000D02*
X88989000Y-120240000D01*
X87338000Y-120621000D02*
X87719000Y-120240000D01*
X87338000Y-121891000D02*
X87338000Y-120621000D01*
X88989000Y-120240000D02*
X91275000Y-122526000D01*
X86475500Y-122753500D02*
X87338000Y-121891000D01*
D32*
%TO.N,Net-(U403-Pad8)*%
X84400000Y-124795000D02*
X84417000Y-124812000D01*
X84400000Y-123400000D02*
X84400000Y-124795000D01*
X84400000Y-124795000D02*
X85306000Y-125701000D01*
D33*
%TO.N,LED_B*%
X98766000Y-115414000D02*
X101308000Y-115414000D01*
X95728000Y-112376000D02*
X98766000Y-115414000D01*
%TO.N,LED_G*%
X100020003Y-114382003D02*
X101308000Y-114382003D01*
X98014000Y-112376000D02*
X100020003Y-114382003D01*
%TO.N,LED_R*%
X100300000Y-112376000D02*
X100300000Y-112882000D01*
X100300000Y-112882000D02*
X100300000Y-113247000D01*
X100435000Y-113382000D02*
X101308000Y-113382000D01*
X100300000Y-113247000D02*
X100435000Y-113382000D01*
%TD*%
M02*
