%TF.GenerationSoftware,KiCad,Pcbnew,(5.1.7)-1*%
%TF.CreationDate,2021-01-20T17:17:38-05:00*%
%TF.ProjectId,SYSC4907_REV2,53595343-3439-4303-975f-524556322e6b,rev?*%
%TF.SameCoordinates,Original*%
%TF.FileFunction,Legend,Top*%
%TF.FilePolarity,Positive*%
%FSLAX46Y46*%
G04 Gerber Fmt 4.6, Leading zero omitted, Abs format (unit mm)*
G04 Created by KiCad (PCBNEW (5.1.7)-1) date 2021-01-20 17:17:38*
%MOMM*%
%LPD*%
G01*
G04 APERTURE LIST*
%ADD10C,0.120000*%
%ADD11C,0.350000*%
%ADD12C,0.200000*%
%ADD13C,0.150000*%
G04 APERTURE END LIST*
D10*
X102000000Y-140000000D02*
X102000000Y-105000000D01*
%TO.C,C301*%
X56495733Y-126355000D02*
X56788267Y-126355000D01*
X56495733Y-127375000D02*
X56788267Y-127375000D01*
%TO.C,C302*%
X71876000Y-112000267D02*
X71876000Y-111707733D01*
X70856000Y-112000267D02*
X70856000Y-111707733D01*
%TO.C,C303*%
X59882500Y-133488267D02*
X59882500Y-133195733D01*
X58862500Y-133488267D02*
X58862500Y-133195733D01*
%TO.C,C304*%
X67300000Y-115556267D02*
X67300000Y-115263733D01*
X68320000Y-115556267D02*
X68320000Y-115263733D01*
%TO.C,C305*%
X73527000Y-112000267D02*
X73527000Y-111707733D01*
X72507000Y-112000267D02*
X72507000Y-111707733D01*
%TO.C,C306*%
X55243000Y-124344267D02*
X55243000Y-124051733D01*
X56263000Y-124344267D02*
X56263000Y-124051733D01*
%TO.C,C307*%
X83856000Y-112000267D02*
X83856000Y-111707733D01*
X84876000Y-112000267D02*
X84876000Y-111707733D01*
%TO.C,C308*%
X86673000Y-133547767D02*
X86673000Y-133255233D01*
X87693000Y-133547767D02*
X87693000Y-133255233D01*
%TO.C,C309*%
X81320000Y-115556267D02*
X81320000Y-115263733D01*
X80300000Y-115556267D02*
X80300000Y-115263733D01*
%TO.C,C310*%
X72766500Y-129610767D02*
X72766500Y-129318233D01*
X73786500Y-129610767D02*
X73786500Y-129318233D01*
%TO.C,C311*%
X86527000Y-112000267D02*
X86527000Y-111707733D01*
X85507000Y-112000267D02*
X85507000Y-111707733D01*
%TO.C,C312*%
X77084500Y-129610767D02*
X77084500Y-129318233D01*
X78104500Y-129610767D02*
X78104500Y-129318233D01*
%TO.C,C415*%
X87191733Y-122270000D02*
X87484267Y-122270000D01*
X87191733Y-123290000D02*
X87484267Y-123290000D01*
%TO.C,C416*%
X94960000Y-132832267D02*
X94960000Y-132539733D01*
X93940000Y-132832267D02*
X93940000Y-132539733D01*
%TO.C,C417*%
X92289000Y-132832267D02*
X92289000Y-132539733D01*
X93309000Y-132832267D02*
X93309000Y-132539733D01*
%TO.C,C418*%
X100018733Y-138526000D02*
X100311267Y-138526000D01*
X100018733Y-139546000D02*
X100311267Y-139546000D01*
%TO.C,D301*%
X88740000Y-125867000D02*
X88740000Y-127567000D01*
X88740000Y-127567000D02*
X91890000Y-127567000D01*
X88740000Y-125867000D02*
X91890000Y-125867000D01*
%TO.C,D302*%
X88740000Y-123808501D02*
X91890000Y-123808501D01*
X88740000Y-125508501D02*
X91890000Y-125508501D01*
X88740000Y-123808501D02*
X88740000Y-125508501D01*
%TO.C,J201*%
X48645000Y-108250000D02*
X48645000Y-115250000D01*
%TO.C,J202*%
X99265000Y-125670000D02*
X99265000Y-125735000D01*
X95735000Y-125670000D02*
X95735000Y-125735000D01*
X99265000Y-119265000D02*
X99265000Y-119330000D01*
X95735000Y-119265000D02*
X95735000Y-119330000D01*
X94410000Y-119330000D02*
X95735000Y-119330000D01*
X95735000Y-125735000D02*
X99265000Y-125735000D01*
X95735000Y-119265000D02*
X99265000Y-119265000D01*
%TO.C,JP301*%
X55242000Y-128024000D02*
X58042000Y-128024000D01*
X58042000Y-128024000D02*
X58042000Y-130024000D01*
X58042000Y-130024000D02*
X55242000Y-130024000D01*
X55242000Y-130024000D02*
X55242000Y-128024000D01*
%TO.C,JP302*%
X55242000Y-130691000D02*
X58042000Y-130691000D01*
X58042000Y-130691000D02*
X58042000Y-132691000D01*
X58042000Y-132691000D02*
X55242000Y-132691000D01*
X55242000Y-132691000D02*
X55242000Y-130691000D01*
%TO.C,JP303*%
X58042000Y-133358000D02*
X58042000Y-135358000D01*
X55242000Y-133358000D02*
X58042000Y-133358000D01*
X55242000Y-135358000D02*
X55242000Y-133358000D01*
X58042000Y-135358000D02*
X55242000Y-135358000D01*
%TO.C,JP304*%
X69866000Y-131942000D02*
X71866000Y-131942000D01*
X69866000Y-134742000D02*
X69866000Y-131942000D01*
X71866000Y-134742000D02*
X69866000Y-134742000D01*
X71866000Y-131942000D02*
X71866000Y-134742000D01*
%TO.C,JP305*%
X67161000Y-134736000D02*
X67161000Y-131936000D01*
X67161000Y-131936000D02*
X69161000Y-131936000D01*
X69161000Y-131936000D02*
X69161000Y-134736000D01*
X69161000Y-134736000D02*
X67161000Y-134736000D01*
%TO.C,JP306*%
X76176000Y-113254000D02*
X74176000Y-113254000D01*
X76176000Y-110454000D02*
X76176000Y-113254000D01*
X74176000Y-110454000D02*
X76176000Y-110454000D01*
X74176000Y-113254000D02*
X74176000Y-110454000D01*
%TO.C,JP307*%
X87176000Y-113254000D02*
X87176000Y-110454000D01*
X87176000Y-110454000D02*
X89176000Y-110454000D01*
X89176000Y-110454000D02*
X89176000Y-113254000D01*
X89176000Y-113254000D02*
X87176000Y-113254000D01*
%TO.C,JP308*%
X76435500Y-130864500D02*
X74435500Y-130864500D01*
X76435500Y-128064500D02*
X76435500Y-130864500D01*
X74435500Y-128064500D02*
X76435500Y-128064500D01*
X74435500Y-130864500D02*
X74435500Y-128064500D01*
%TO.C,L301*%
X73068000Y-114053000D02*
X73068000Y-119053000D01*
X76268000Y-114053000D02*
X76268000Y-119053000D01*
%TO.C,L302*%
X86068000Y-114053000D02*
X86068000Y-119053000D01*
X89268000Y-114053000D02*
X89268000Y-119053000D01*
%TO.C,L303*%
X75956000Y-131536500D02*
X75956000Y-136536500D01*
X72756000Y-131536500D02*
X72756000Y-136536500D01*
%TO.C,Q201*%
X97128000Y-111081000D02*
X97128000Y-112381000D01*
X95328000Y-112731000D02*
X95328000Y-111081000D01*
%TO.C,Q202*%
X97614000Y-112731000D02*
X97614000Y-111081000D01*
X99414000Y-111081000D02*
X99414000Y-112381000D01*
%TO.C,Q203*%
X101700000Y-111081000D02*
X101700000Y-112381000D01*
X99900000Y-112731000D02*
X99900000Y-111081000D01*
%TO.C,Q301*%
X87680000Y-131417000D02*
X87680000Y-129767000D01*
X89480000Y-129767000D02*
X89480000Y-131067000D01*
%TO.C,Q302*%
X85457500Y-131417000D02*
X85457500Y-129767000D01*
X87257500Y-129767000D02*
X87257500Y-131067000D01*
%TO.C,Q303*%
X85035000Y-129767000D02*
X85035000Y-131067000D01*
X83235000Y-131417000D02*
X83235000Y-129767000D01*
%TO.C,R204*%
X94576276Y-105493500D02*
X95085724Y-105493500D01*
X94576276Y-106538500D02*
X95085724Y-106538500D01*
%TO.C,R205*%
X94576276Y-108189500D02*
X95085724Y-108189500D01*
X94576276Y-107144500D02*
X95085724Y-107144500D01*
%TO.C,R206*%
X94576276Y-109840500D02*
X95085724Y-109840500D01*
X94576276Y-108795500D02*
X95085724Y-108795500D01*
%TO.C,R301*%
X61482500Y-133596724D02*
X61482500Y-133087276D01*
X60437500Y-133596724D02*
X60437500Y-133087276D01*
%TO.C,R302*%
X63070000Y-133087276D02*
X63070000Y-133596724D01*
X62025000Y-133087276D02*
X62025000Y-133596724D01*
%TO.C,R303*%
X64848000Y-133087276D02*
X64848000Y-133596724D01*
X63803000Y-133087276D02*
X63803000Y-133596724D01*
%TO.C,R304*%
X69192500Y-111599276D02*
X69192500Y-112108724D01*
X70237500Y-111599276D02*
X70237500Y-112108724D01*
%TO.C,R305*%
X62879500Y-124452724D02*
X62879500Y-123943276D01*
X61834500Y-124452724D02*
X61834500Y-123943276D01*
%TO.C,R306*%
X60183500Y-124452724D02*
X60183500Y-123943276D01*
X61228500Y-124452724D02*
X61228500Y-123943276D01*
%TO.C,R307*%
X65479500Y-133066276D02*
X65479500Y-133575724D01*
X66524500Y-133066276D02*
X66524500Y-133575724D01*
%TO.C,R308*%
X66681500Y-115664724D02*
X66681500Y-115155276D01*
X65636500Y-115664724D02*
X65636500Y-115155276D01*
%TO.C,R309*%
X65030500Y-115155276D02*
X65030500Y-115664724D01*
X63985500Y-115155276D02*
X63985500Y-115664724D01*
%TO.C,R310*%
X58532500Y-124452724D02*
X58532500Y-123943276D01*
X59577500Y-124452724D02*
X59577500Y-123943276D01*
%TO.C,R311*%
X57926500Y-124452724D02*
X57926500Y-123943276D01*
X56881500Y-124452724D02*
X56881500Y-123943276D01*
%TO.C,R312*%
X83237500Y-111599276D02*
X83237500Y-112108724D01*
X82192500Y-111599276D02*
X82192500Y-112108724D01*
%TO.C,R313*%
X89420000Y-133146776D02*
X89420000Y-133656224D01*
X88375000Y-133146776D02*
X88375000Y-133656224D01*
%TO.C,R314*%
X83231500Y-133656224D02*
X83231500Y-133146776D01*
X84276500Y-133656224D02*
X84276500Y-133146776D01*
%TO.C,R315*%
X85991000Y-133656224D02*
X85991000Y-133146776D01*
X84946000Y-133656224D02*
X84946000Y-133146776D01*
%TO.C,R316*%
X79681500Y-115664724D02*
X79681500Y-115155276D01*
X78636500Y-115664724D02*
X78636500Y-115155276D01*
%TO.C,R317*%
X76985500Y-115155276D02*
X76985500Y-115664724D01*
X78030500Y-115155276D02*
X78030500Y-115664724D01*
%TO.C,R318*%
X81355500Y-133656224D02*
X81355500Y-133146776D01*
X80310500Y-133656224D02*
X80310500Y-133146776D01*
%TO.C,R319*%
X79768000Y-129209776D02*
X79768000Y-129719224D01*
X78723000Y-129209776D02*
X78723000Y-129719224D01*
%TO.C,R320*%
X81419000Y-129719224D02*
X81419000Y-129209776D01*
X80374000Y-129719224D02*
X80374000Y-129209776D01*
%TO.C,R403*%
X87083276Y-120606500D02*
X87592724Y-120606500D01*
X87083276Y-121651500D02*
X87592724Y-121651500D01*
%TO.C,R404*%
X99910276Y-137780500D02*
X100419724Y-137780500D01*
X99910276Y-136735500D02*
X100419724Y-136735500D01*
%TO.C,R405*%
X99910276Y-136002500D02*
X100419724Y-136002500D01*
X99910276Y-134957500D02*
X100419724Y-134957500D01*
%TO.C,SW301*%
X50300000Y-120750000D02*
X50300000Y-124250000D01*
X53200000Y-120750000D02*
X53200000Y-124250000D01*
%TO.C,TP301*%
X66994000Y-130357500D02*
G75*
G03*
X66994000Y-130357500I-700000J0D01*
G01*
%TO.C,TP302*%
X71312000Y-130357500D02*
G75*
G03*
X71312000Y-130357500I-700000J0D01*
G01*
%TO.C,TP303*%
X69153000Y-130357500D02*
G75*
G03*
X69153000Y-130357500I-700000J0D01*
G01*
%TO.C,TP304*%
X68383000Y-112550000D02*
G75*
G03*
X68383000Y-112550000I-700000J0D01*
G01*
%TO.C,TP305*%
X81383000Y-112550000D02*
G75*
G03*
X81383000Y-112550000I-700000J0D01*
G01*
%TO.C,U201*%
X62711000Y-106946000D02*
X60261000Y-106946000D01*
X60911000Y-110166000D02*
X62711000Y-110166000D01*
D11*
%TO.C,U204*%
X97257000Y-109417000D02*
G75*
G03*
X97257000Y-109417000I-100000J0D01*
G01*
D10*
%TO.C,U301*%
X59104000Y-130155000D02*
X59104000Y-130880000D01*
X63324000Y-126660000D02*
X62599000Y-126660000D01*
X63324000Y-127385000D02*
X63324000Y-126660000D01*
X63324000Y-130880000D02*
X62599000Y-130880000D01*
X63324000Y-130155000D02*
X63324000Y-130880000D01*
X59104000Y-126660000D02*
X59829000Y-126660000D01*
X59104000Y-127385000D02*
X59104000Y-126660000D01*
%TO.C,U302*%
X72037000Y-116798000D02*
X72037000Y-115038000D01*
X68967000Y-115038000D02*
X68967000Y-117468000D01*
%TO.C,U303*%
X81967000Y-115038000D02*
X81967000Y-117468000D01*
X85037000Y-116798000D02*
X85037000Y-115038000D01*
%TO.C,U304*%
X79776000Y-134047500D02*
X79776000Y-132247500D01*
X76556000Y-132247500D02*
X76556000Y-134697500D01*
%TO.C,U405*%
X90681000Y-137996000D02*
X90681000Y-134996000D01*
X93901000Y-136496000D02*
X93901000Y-134996000D01*
D12*
%TO.C,U407*%
X95282000Y-137569000D02*
G75*
G03*
X95282000Y-137569000I-100000J0D01*
G01*
D10*
%TO.C,J301*%
X50630000Y-136670000D02*
X50630000Y-139330000D01*
X53230000Y-136670000D02*
X50630000Y-136670000D01*
X53230000Y-139330000D02*
X50630000Y-139330000D01*
X53230000Y-136670000D02*
X53230000Y-139330000D01*
X54500000Y-136670000D02*
X55830000Y-136670000D01*
X55830000Y-136670000D02*
X55830000Y-138000000D01*
%TO.C,C301*%
D13*
X51903452Y-127222142D02*
X51855833Y-127269761D01*
X51712976Y-127317380D01*
X51617738Y-127317380D01*
X51474880Y-127269761D01*
X51379642Y-127174523D01*
X51332023Y-127079285D01*
X51284404Y-126888809D01*
X51284404Y-126745952D01*
X51332023Y-126555476D01*
X51379642Y-126460238D01*
X51474880Y-126365000D01*
X51617738Y-126317380D01*
X51712976Y-126317380D01*
X51855833Y-126365000D01*
X51903452Y-126412619D01*
X52236785Y-126317380D02*
X52855833Y-126317380D01*
X52522500Y-126698333D01*
X52665357Y-126698333D01*
X52760595Y-126745952D01*
X52808214Y-126793571D01*
X52855833Y-126888809D01*
X52855833Y-127126904D01*
X52808214Y-127222142D01*
X52760595Y-127269761D01*
X52665357Y-127317380D01*
X52379642Y-127317380D01*
X52284404Y-127269761D01*
X52236785Y-127222142D01*
X53474880Y-126317380D02*
X53570119Y-126317380D01*
X53665357Y-126365000D01*
X53712976Y-126412619D01*
X53760595Y-126507857D01*
X53808214Y-126698333D01*
X53808214Y-126936428D01*
X53760595Y-127126904D01*
X53712976Y-127222142D01*
X53665357Y-127269761D01*
X53570119Y-127317380D01*
X53474880Y-127317380D01*
X53379642Y-127269761D01*
X53332023Y-127222142D01*
X53284404Y-127126904D01*
X53236785Y-126936428D01*
X53236785Y-126698333D01*
X53284404Y-126507857D01*
X53332023Y-126412619D01*
X53379642Y-126365000D01*
X53474880Y-126317380D01*
X54760595Y-127317380D02*
X54189166Y-127317380D01*
X54474880Y-127317380D02*
X54474880Y-126317380D01*
X54379642Y-126460238D01*
X54284404Y-126555476D01*
X54189166Y-126603095D01*
%TO.C,C302*%
X71723142Y-109263547D02*
X71770761Y-109311166D01*
X71818380Y-109454023D01*
X71818380Y-109549261D01*
X71770761Y-109692119D01*
X71675523Y-109787357D01*
X71580285Y-109834976D01*
X71389809Y-109882595D01*
X71246952Y-109882595D01*
X71056476Y-109834976D01*
X70961238Y-109787357D01*
X70866000Y-109692119D01*
X70818380Y-109549261D01*
X70818380Y-109454023D01*
X70866000Y-109311166D01*
X70913619Y-109263547D01*
X70818380Y-108930214D02*
X70818380Y-108311166D01*
X71199333Y-108644500D01*
X71199333Y-108501642D01*
X71246952Y-108406404D01*
X71294571Y-108358785D01*
X71389809Y-108311166D01*
X71627904Y-108311166D01*
X71723142Y-108358785D01*
X71770761Y-108406404D01*
X71818380Y-108501642D01*
X71818380Y-108787357D01*
X71770761Y-108882595D01*
X71723142Y-108930214D01*
X70818380Y-107692119D02*
X70818380Y-107596880D01*
X70866000Y-107501642D01*
X70913619Y-107454023D01*
X71008857Y-107406404D01*
X71199333Y-107358785D01*
X71437428Y-107358785D01*
X71627904Y-107406404D01*
X71723142Y-107454023D01*
X71770761Y-107501642D01*
X71818380Y-107596880D01*
X71818380Y-107692119D01*
X71770761Y-107787357D01*
X71723142Y-107834976D01*
X71627904Y-107882595D01*
X71437428Y-107930214D01*
X71199333Y-107930214D01*
X71008857Y-107882595D01*
X70913619Y-107834976D01*
X70866000Y-107787357D01*
X70818380Y-107692119D01*
X70913619Y-106977833D02*
X70866000Y-106930214D01*
X70818380Y-106834976D01*
X70818380Y-106596880D01*
X70866000Y-106501642D01*
X70913619Y-106454023D01*
X71008857Y-106406404D01*
X71104095Y-106406404D01*
X71246952Y-106454023D01*
X71818380Y-107025452D01*
X71818380Y-106406404D01*
%TO.C,C303*%
X59729642Y-138080547D02*
X59777261Y-138128166D01*
X59824880Y-138271023D01*
X59824880Y-138366261D01*
X59777261Y-138509119D01*
X59682023Y-138604357D01*
X59586785Y-138651976D01*
X59396309Y-138699595D01*
X59253452Y-138699595D01*
X59062976Y-138651976D01*
X58967738Y-138604357D01*
X58872500Y-138509119D01*
X58824880Y-138366261D01*
X58824880Y-138271023D01*
X58872500Y-138128166D01*
X58920119Y-138080547D01*
X58824880Y-137747214D02*
X58824880Y-137128166D01*
X59205833Y-137461500D01*
X59205833Y-137318642D01*
X59253452Y-137223404D01*
X59301071Y-137175785D01*
X59396309Y-137128166D01*
X59634404Y-137128166D01*
X59729642Y-137175785D01*
X59777261Y-137223404D01*
X59824880Y-137318642D01*
X59824880Y-137604357D01*
X59777261Y-137699595D01*
X59729642Y-137747214D01*
X58824880Y-136509119D02*
X58824880Y-136413880D01*
X58872500Y-136318642D01*
X58920119Y-136271023D01*
X59015357Y-136223404D01*
X59205833Y-136175785D01*
X59443928Y-136175785D01*
X59634404Y-136223404D01*
X59729642Y-136271023D01*
X59777261Y-136318642D01*
X59824880Y-136413880D01*
X59824880Y-136509119D01*
X59777261Y-136604357D01*
X59729642Y-136651976D01*
X59634404Y-136699595D01*
X59443928Y-136747214D01*
X59205833Y-136747214D01*
X59015357Y-136699595D01*
X58920119Y-136651976D01*
X58872500Y-136604357D01*
X58824880Y-136509119D01*
X58824880Y-135842452D02*
X58824880Y-135223404D01*
X59205833Y-135556738D01*
X59205833Y-135413880D01*
X59253452Y-135318642D01*
X59301071Y-135271023D01*
X59396309Y-135223404D01*
X59634404Y-135223404D01*
X59729642Y-135271023D01*
X59777261Y-135318642D01*
X59824880Y-135413880D01*
X59824880Y-135699595D01*
X59777261Y-135794833D01*
X59729642Y-135842452D01*
%TO.C,C304*%
X68167142Y-120492547D02*
X68214761Y-120540166D01*
X68262380Y-120683023D01*
X68262380Y-120778261D01*
X68214761Y-120921119D01*
X68119523Y-121016357D01*
X68024285Y-121063976D01*
X67833809Y-121111595D01*
X67690952Y-121111595D01*
X67500476Y-121063976D01*
X67405238Y-121016357D01*
X67310000Y-120921119D01*
X67262380Y-120778261D01*
X67262380Y-120683023D01*
X67310000Y-120540166D01*
X67357619Y-120492547D01*
X67262380Y-120159214D02*
X67262380Y-119540166D01*
X67643333Y-119873500D01*
X67643333Y-119730642D01*
X67690952Y-119635404D01*
X67738571Y-119587785D01*
X67833809Y-119540166D01*
X68071904Y-119540166D01*
X68167142Y-119587785D01*
X68214761Y-119635404D01*
X68262380Y-119730642D01*
X68262380Y-120016357D01*
X68214761Y-120111595D01*
X68167142Y-120159214D01*
X67262380Y-118921119D02*
X67262380Y-118825880D01*
X67310000Y-118730642D01*
X67357619Y-118683023D01*
X67452857Y-118635404D01*
X67643333Y-118587785D01*
X67881428Y-118587785D01*
X68071904Y-118635404D01*
X68167142Y-118683023D01*
X68214761Y-118730642D01*
X68262380Y-118825880D01*
X68262380Y-118921119D01*
X68214761Y-119016357D01*
X68167142Y-119063976D01*
X68071904Y-119111595D01*
X67881428Y-119159214D01*
X67643333Y-119159214D01*
X67452857Y-119111595D01*
X67357619Y-119063976D01*
X67310000Y-119016357D01*
X67262380Y-118921119D01*
X67595714Y-117730642D02*
X68262380Y-117730642D01*
X67214761Y-117968738D02*
X67929047Y-118206833D01*
X67929047Y-117587785D01*
%TO.C,C305*%
X73374142Y-109263547D02*
X73421761Y-109311166D01*
X73469380Y-109454023D01*
X73469380Y-109549261D01*
X73421761Y-109692119D01*
X73326523Y-109787357D01*
X73231285Y-109834976D01*
X73040809Y-109882595D01*
X72897952Y-109882595D01*
X72707476Y-109834976D01*
X72612238Y-109787357D01*
X72517000Y-109692119D01*
X72469380Y-109549261D01*
X72469380Y-109454023D01*
X72517000Y-109311166D01*
X72564619Y-109263547D01*
X72469380Y-108930214D02*
X72469380Y-108311166D01*
X72850333Y-108644500D01*
X72850333Y-108501642D01*
X72897952Y-108406404D01*
X72945571Y-108358785D01*
X73040809Y-108311166D01*
X73278904Y-108311166D01*
X73374142Y-108358785D01*
X73421761Y-108406404D01*
X73469380Y-108501642D01*
X73469380Y-108787357D01*
X73421761Y-108882595D01*
X73374142Y-108930214D01*
X72469380Y-107692119D02*
X72469380Y-107596880D01*
X72517000Y-107501642D01*
X72564619Y-107454023D01*
X72659857Y-107406404D01*
X72850333Y-107358785D01*
X73088428Y-107358785D01*
X73278904Y-107406404D01*
X73374142Y-107454023D01*
X73421761Y-107501642D01*
X73469380Y-107596880D01*
X73469380Y-107692119D01*
X73421761Y-107787357D01*
X73374142Y-107834976D01*
X73278904Y-107882595D01*
X73088428Y-107930214D01*
X72850333Y-107930214D01*
X72659857Y-107882595D01*
X72564619Y-107834976D01*
X72517000Y-107787357D01*
X72469380Y-107692119D01*
X72469380Y-106454023D02*
X72469380Y-106930214D01*
X72945571Y-106977833D01*
X72897952Y-106930214D01*
X72850333Y-106834976D01*
X72850333Y-106596880D01*
X72897952Y-106501642D01*
X72945571Y-106454023D01*
X73040809Y-106406404D01*
X73278904Y-106406404D01*
X73374142Y-106454023D01*
X73421761Y-106501642D01*
X73469380Y-106596880D01*
X73469380Y-106834976D01*
X73421761Y-106930214D01*
X73374142Y-106977833D01*
%TO.C,C306*%
X56110142Y-121634047D02*
X56157761Y-121681666D01*
X56205380Y-121824523D01*
X56205380Y-121919761D01*
X56157761Y-122062619D01*
X56062523Y-122157857D01*
X55967285Y-122205476D01*
X55776809Y-122253095D01*
X55633952Y-122253095D01*
X55443476Y-122205476D01*
X55348238Y-122157857D01*
X55253000Y-122062619D01*
X55205380Y-121919761D01*
X55205380Y-121824523D01*
X55253000Y-121681666D01*
X55300619Y-121634047D01*
X55205380Y-121300714D02*
X55205380Y-120681666D01*
X55586333Y-121015000D01*
X55586333Y-120872142D01*
X55633952Y-120776904D01*
X55681571Y-120729285D01*
X55776809Y-120681666D01*
X56014904Y-120681666D01*
X56110142Y-120729285D01*
X56157761Y-120776904D01*
X56205380Y-120872142D01*
X56205380Y-121157857D01*
X56157761Y-121253095D01*
X56110142Y-121300714D01*
X55205380Y-120062619D02*
X55205380Y-119967380D01*
X55253000Y-119872142D01*
X55300619Y-119824523D01*
X55395857Y-119776904D01*
X55586333Y-119729285D01*
X55824428Y-119729285D01*
X56014904Y-119776904D01*
X56110142Y-119824523D01*
X56157761Y-119872142D01*
X56205380Y-119967380D01*
X56205380Y-120062619D01*
X56157761Y-120157857D01*
X56110142Y-120205476D01*
X56014904Y-120253095D01*
X55824428Y-120300714D01*
X55586333Y-120300714D01*
X55395857Y-120253095D01*
X55300619Y-120205476D01*
X55253000Y-120157857D01*
X55205380Y-120062619D01*
X55205380Y-118872142D02*
X55205380Y-119062619D01*
X55253000Y-119157857D01*
X55300619Y-119205476D01*
X55443476Y-119300714D01*
X55633952Y-119348333D01*
X56014904Y-119348333D01*
X56110142Y-119300714D01*
X56157761Y-119253095D01*
X56205380Y-119157857D01*
X56205380Y-118967380D01*
X56157761Y-118872142D01*
X56110142Y-118824523D01*
X56014904Y-118776904D01*
X55776809Y-118776904D01*
X55681571Y-118824523D01*
X55633952Y-118872142D01*
X55586333Y-118967380D01*
X55586333Y-119157857D01*
X55633952Y-119253095D01*
X55681571Y-119300714D01*
X55776809Y-119348333D01*
%TO.C,C307*%
X84723142Y-109263547D02*
X84770761Y-109311166D01*
X84818380Y-109454023D01*
X84818380Y-109549261D01*
X84770761Y-109692119D01*
X84675523Y-109787357D01*
X84580285Y-109834976D01*
X84389809Y-109882595D01*
X84246952Y-109882595D01*
X84056476Y-109834976D01*
X83961238Y-109787357D01*
X83866000Y-109692119D01*
X83818380Y-109549261D01*
X83818380Y-109454023D01*
X83866000Y-109311166D01*
X83913619Y-109263547D01*
X83818380Y-108930214D02*
X83818380Y-108311166D01*
X84199333Y-108644500D01*
X84199333Y-108501642D01*
X84246952Y-108406404D01*
X84294571Y-108358785D01*
X84389809Y-108311166D01*
X84627904Y-108311166D01*
X84723142Y-108358785D01*
X84770761Y-108406404D01*
X84818380Y-108501642D01*
X84818380Y-108787357D01*
X84770761Y-108882595D01*
X84723142Y-108930214D01*
X83818380Y-107692119D02*
X83818380Y-107596880D01*
X83866000Y-107501642D01*
X83913619Y-107454023D01*
X84008857Y-107406404D01*
X84199333Y-107358785D01*
X84437428Y-107358785D01*
X84627904Y-107406404D01*
X84723142Y-107454023D01*
X84770761Y-107501642D01*
X84818380Y-107596880D01*
X84818380Y-107692119D01*
X84770761Y-107787357D01*
X84723142Y-107834976D01*
X84627904Y-107882595D01*
X84437428Y-107930214D01*
X84199333Y-107930214D01*
X84008857Y-107882595D01*
X83913619Y-107834976D01*
X83866000Y-107787357D01*
X83818380Y-107692119D01*
X83818380Y-107025452D02*
X83818380Y-106358785D01*
X84818380Y-106787357D01*
%TO.C,C308*%
X87603642Y-138140047D02*
X87651261Y-138187666D01*
X87698880Y-138330523D01*
X87698880Y-138425761D01*
X87651261Y-138568619D01*
X87556023Y-138663857D01*
X87460785Y-138711476D01*
X87270309Y-138759095D01*
X87127452Y-138759095D01*
X86936976Y-138711476D01*
X86841738Y-138663857D01*
X86746500Y-138568619D01*
X86698880Y-138425761D01*
X86698880Y-138330523D01*
X86746500Y-138187666D01*
X86794119Y-138140047D01*
X86698880Y-137806714D02*
X86698880Y-137187666D01*
X87079833Y-137521000D01*
X87079833Y-137378142D01*
X87127452Y-137282904D01*
X87175071Y-137235285D01*
X87270309Y-137187666D01*
X87508404Y-137187666D01*
X87603642Y-137235285D01*
X87651261Y-137282904D01*
X87698880Y-137378142D01*
X87698880Y-137663857D01*
X87651261Y-137759095D01*
X87603642Y-137806714D01*
X86698880Y-136568619D02*
X86698880Y-136473380D01*
X86746500Y-136378142D01*
X86794119Y-136330523D01*
X86889357Y-136282904D01*
X87079833Y-136235285D01*
X87317928Y-136235285D01*
X87508404Y-136282904D01*
X87603642Y-136330523D01*
X87651261Y-136378142D01*
X87698880Y-136473380D01*
X87698880Y-136568619D01*
X87651261Y-136663857D01*
X87603642Y-136711476D01*
X87508404Y-136759095D01*
X87317928Y-136806714D01*
X87079833Y-136806714D01*
X86889357Y-136759095D01*
X86794119Y-136711476D01*
X86746500Y-136663857D01*
X86698880Y-136568619D01*
X87127452Y-135663857D02*
X87079833Y-135759095D01*
X87032214Y-135806714D01*
X86936976Y-135854333D01*
X86889357Y-135854333D01*
X86794119Y-135806714D01*
X86746500Y-135759095D01*
X86698880Y-135663857D01*
X86698880Y-135473380D01*
X86746500Y-135378142D01*
X86794119Y-135330523D01*
X86889357Y-135282904D01*
X86936976Y-135282904D01*
X87032214Y-135330523D01*
X87079833Y-135378142D01*
X87127452Y-135473380D01*
X87127452Y-135663857D01*
X87175071Y-135759095D01*
X87222690Y-135806714D01*
X87317928Y-135854333D01*
X87508404Y-135854333D01*
X87603642Y-135806714D01*
X87651261Y-135759095D01*
X87698880Y-135663857D01*
X87698880Y-135473380D01*
X87651261Y-135378142D01*
X87603642Y-135330523D01*
X87508404Y-135282904D01*
X87317928Y-135282904D01*
X87222690Y-135330523D01*
X87175071Y-135378142D01*
X87127452Y-135473380D01*
%TO.C,C309*%
X81167142Y-120492547D02*
X81214761Y-120540166D01*
X81262380Y-120683023D01*
X81262380Y-120778261D01*
X81214761Y-120921119D01*
X81119523Y-121016357D01*
X81024285Y-121063976D01*
X80833809Y-121111595D01*
X80690952Y-121111595D01*
X80500476Y-121063976D01*
X80405238Y-121016357D01*
X80310000Y-120921119D01*
X80262380Y-120778261D01*
X80262380Y-120683023D01*
X80310000Y-120540166D01*
X80357619Y-120492547D01*
X80262380Y-120159214D02*
X80262380Y-119540166D01*
X80643333Y-119873500D01*
X80643333Y-119730642D01*
X80690952Y-119635404D01*
X80738571Y-119587785D01*
X80833809Y-119540166D01*
X81071904Y-119540166D01*
X81167142Y-119587785D01*
X81214761Y-119635404D01*
X81262380Y-119730642D01*
X81262380Y-120016357D01*
X81214761Y-120111595D01*
X81167142Y-120159214D01*
X80262380Y-118921119D02*
X80262380Y-118825880D01*
X80310000Y-118730642D01*
X80357619Y-118683023D01*
X80452857Y-118635404D01*
X80643333Y-118587785D01*
X80881428Y-118587785D01*
X81071904Y-118635404D01*
X81167142Y-118683023D01*
X81214761Y-118730642D01*
X81262380Y-118825880D01*
X81262380Y-118921119D01*
X81214761Y-119016357D01*
X81167142Y-119063976D01*
X81071904Y-119111595D01*
X80881428Y-119159214D01*
X80643333Y-119159214D01*
X80452857Y-119111595D01*
X80357619Y-119063976D01*
X80310000Y-119016357D01*
X80262380Y-118921119D01*
X81262380Y-118111595D02*
X81262380Y-117921119D01*
X81214761Y-117825880D01*
X81167142Y-117778261D01*
X81024285Y-117683023D01*
X80833809Y-117635404D01*
X80452857Y-117635404D01*
X80357619Y-117683023D01*
X80310000Y-117730642D01*
X80262380Y-117825880D01*
X80262380Y-118016357D01*
X80310000Y-118111595D01*
X80357619Y-118159214D01*
X80452857Y-118206833D01*
X80690952Y-118206833D01*
X80786190Y-118159214D01*
X80833809Y-118111595D01*
X80881428Y-118016357D01*
X80881428Y-117825880D01*
X80833809Y-117730642D01*
X80786190Y-117683023D01*
X80690952Y-117635404D01*
%TO.C,C310*%
X73633642Y-126900547D02*
X73681261Y-126948166D01*
X73728880Y-127091023D01*
X73728880Y-127186261D01*
X73681261Y-127329119D01*
X73586023Y-127424357D01*
X73490785Y-127471976D01*
X73300309Y-127519595D01*
X73157452Y-127519595D01*
X72966976Y-127471976D01*
X72871738Y-127424357D01*
X72776500Y-127329119D01*
X72728880Y-127186261D01*
X72728880Y-127091023D01*
X72776500Y-126948166D01*
X72824119Y-126900547D01*
X72728880Y-126567214D02*
X72728880Y-125948166D01*
X73109833Y-126281500D01*
X73109833Y-126138642D01*
X73157452Y-126043404D01*
X73205071Y-125995785D01*
X73300309Y-125948166D01*
X73538404Y-125948166D01*
X73633642Y-125995785D01*
X73681261Y-126043404D01*
X73728880Y-126138642D01*
X73728880Y-126424357D01*
X73681261Y-126519595D01*
X73633642Y-126567214D01*
X73728880Y-124995785D02*
X73728880Y-125567214D01*
X73728880Y-125281500D02*
X72728880Y-125281500D01*
X72871738Y-125376738D01*
X72966976Y-125471976D01*
X73014595Y-125567214D01*
X72728880Y-124376738D02*
X72728880Y-124281500D01*
X72776500Y-124186261D01*
X72824119Y-124138642D01*
X72919357Y-124091023D01*
X73109833Y-124043404D01*
X73347928Y-124043404D01*
X73538404Y-124091023D01*
X73633642Y-124138642D01*
X73681261Y-124186261D01*
X73728880Y-124281500D01*
X73728880Y-124376738D01*
X73681261Y-124471976D01*
X73633642Y-124519595D01*
X73538404Y-124567214D01*
X73347928Y-124614833D01*
X73109833Y-124614833D01*
X72919357Y-124567214D01*
X72824119Y-124519595D01*
X72776500Y-124471976D01*
X72728880Y-124376738D01*
%TO.C,C311*%
X86374142Y-109263547D02*
X86421761Y-109311166D01*
X86469380Y-109454023D01*
X86469380Y-109549261D01*
X86421761Y-109692119D01*
X86326523Y-109787357D01*
X86231285Y-109834976D01*
X86040809Y-109882595D01*
X85897952Y-109882595D01*
X85707476Y-109834976D01*
X85612238Y-109787357D01*
X85517000Y-109692119D01*
X85469380Y-109549261D01*
X85469380Y-109454023D01*
X85517000Y-109311166D01*
X85564619Y-109263547D01*
X85469380Y-108930214D02*
X85469380Y-108311166D01*
X85850333Y-108644500D01*
X85850333Y-108501642D01*
X85897952Y-108406404D01*
X85945571Y-108358785D01*
X86040809Y-108311166D01*
X86278904Y-108311166D01*
X86374142Y-108358785D01*
X86421761Y-108406404D01*
X86469380Y-108501642D01*
X86469380Y-108787357D01*
X86421761Y-108882595D01*
X86374142Y-108930214D01*
X86469380Y-107358785D02*
X86469380Y-107930214D01*
X86469380Y-107644500D02*
X85469380Y-107644500D01*
X85612238Y-107739738D01*
X85707476Y-107834976D01*
X85755095Y-107930214D01*
X86469380Y-106406404D02*
X86469380Y-106977833D01*
X86469380Y-106692119D02*
X85469380Y-106692119D01*
X85612238Y-106787357D01*
X85707476Y-106882595D01*
X85755095Y-106977833D01*
%TO.C,C312*%
X78015142Y-126900547D02*
X78062761Y-126948166D01*
X78110380Y-127091023D01*
X78110380Y-127186261D01*
X78062761Y-127329119D01*
X77967523Y-127424357D01*
X77872285Y-127471976D01*
X77681809Y-127519595D01*
X77538952Y-127519595D01*
X77348476Y-127471976D01*
X77253238Y-127424357D01*
X77158000Y-127329119D01*
X77110380Y-127186261D01*
X77110380Y-127091023D01*
X77158000Y-126948166D01*
X77205619Y-126900547D01*
X77110380Y-126567214D02*
X77110380Y-125948166D01*
X77491333Y-126281500D01*
X77491333Y-126138642D01*
X77538952Y-126043404D01*
X77586571Y-125995785D01*
X77681809Y-125948166D01*
X77919904Y-125948166D01*
X78015142Y-125995785D01*
X78062761Y-126043404D01*
X78110380Y-126138642D01*
X78110380Y-126424357D01*
X78062761Y-126519595D01*
X78015142Y-126567214D01*
X78110380Y-124995785D02*
X78110380Y-125567214D01*
X78110380Y-125281500D02*
X77110380Y-125281500D01*
X77253238Y-125376738D01*
X77348476Y-125471976D01*
X77396095Y-125567214D01*
X77205619Y-124614833D02*
X77158000Y-124567214D01*
X77110380Y-124471976D01*
X77110380Y-124233880D01*
X77158000Y-124138642D01*
X77205619Y-124091023D01*
X77300857Y-124043404D01*
X77396095Y-124043404D01*
X77538952Y-124091023D01*
X78110380Y-124662452D01*
X78110380Y-124043404D01*
%TO.C,C415*%
X89901952Y-123137142D02*
X89854333Y-123184761D01*
X89711476Y-123232380D01*
X89616238Y-123232380D01*
X89473380Y-123184761D01*
X89378142Y-123089523D01*
X89330523Y-122994285D01*
X89282904Y-122803809D01*
X89282904Y-122660952D01*
X89330523Y-122470476D01*
X89378142Y-122375238D01*
X89473380Y-122280000D01*
X89616238Y-122232380D01*
X89711476Y-122232380D01*
X89854333Y-122280000D01*
X89901952Y-122327619D01*
X90759095Y-122565714D02*
X90759095Y-123232380D01*
X90521000Y-122184761D02*
X90282904Y-122899047D01*
X90901952Y-122899047D01*
X91806714Y-123232380D02*
X91235285Y-123232380D01*
X91521000Y-123232380D02*
X91521000Y-122232380D01*
X91425761Y-122375238D01*
X91330523Y-122470476D01*
X91235285Y-122518095D01*
X92711476Y-122232380D02*
X92235285Y-122232380D01*
X92187666Y-122708571D01*
X92235285Y-122660952D01*
X92330523Y-122613333D01*
X92568619Y-122613333D01*
X92663857Y-122660952D01*
X92711476Y-122708571D01*
X92759095Y-122803809D01*
X92759095Y-123041904D01*
X92711476Y-123137142D01*
X92663857Y-123184761D01*
X92568619Y-123232380D01*
X92330523Y-123232380D01*
X92235285Y-123184761D01*
X92187666Y-123137142D01*
%TO.C,C416*%
X95315142Y-130122047D02*
X95362761Y-130169666D01*
X95410380Y-130312523D01*
X95410380Y-130407761D01*
X95362761Y-130550619D01*
X95267523Y-130645857D01*
X95172285Y-130693476D01*
X94981809Y-130741095D01*
X94838952Y-130741095D01*
X94648476Y-130693476D01*
X94553238Y-130645857D01*
X94458000Y-130550619D01*
X94410380Y-130407761D01*
X94410380Y-130312523D01*
X94458000Y-130169666D01*
X94505619Y-130122047D01*
X94743714Y-129264904D02*
X95410380Y-129264904D01*
X94362761Y-129503000D02*
X95077047Y-129741095D01*
X95077047Y-129122047D01*
X95410380Y-128217285D02*
X95410380Y-128788714D01*
X95410380Y-128503000D02*
X94410380Y-128503000D01*
X94553238Y-128598238D01*
X94648476Y-128693476D01*
X94696095Y-128788714D01*
X94410380Y-127360142D02*
X94410380Y-127550619D01*
X94458000Y-127645857D01*
X94505619Y-127693476D01*
X94648476Y-127788714D01*
X94838952Y-127836333D01*
X95219904Y-127836333D01*
X95315142Y-127788714D01*
X95362761Y-127741095D01*
X95410380Y-127645857D01*
X95410380Y-127455380D01*
X95362761Y-127360142D01*
X95315142Y-127312523D01*
X95219904Y-127264904D01*
X94981809Y-127264904D01*
X94886571Y-127312523D01*
X94838952Y-127360142D01*
X94791333Y-127455380D01*
X94791333Y-127645857D01*
X94838952Y-127741095D01*
X94886571Y-127788714D01*
X94981809Y-127836333D01*
%TO.C,C417*%
X93791142Y-130122047D02*
X93838761Y-130169666D01*
X93886380Y-130312523D01*
X93886380Y-130407761D01*
X93838761Y-130550619D01*
X93743523Y-130645857D01*
X93648285Y-130693476D01*
X93457809Y-130741095D01*
X93314952Y-130741095D01*
X93124476Y-130693476D01*
X93029238Y-130645857D01*
X92934000Y-130550619D01*
X92886380Y-130407761D01*
X92886380Y-130312523D01*
X92934000Y-130169666D01*
X92981619Y-130122047D01*
X93219714Y-129264904D02*
X93886380Y-129264904D01*
X92838761Y-129503000D02*
X93553047Y-129741095D01*
X93553047Y-129122047D01*
X93886380Y-128217285D02*
X93886380Y-128788714D01*
X93886380Y-128503000D02*
X92886380Y-128503000D01*
X93029238Y-128598238D01*
X93124476Y-128693476D01*
X93172095Y-128788714D01*
X92886380Y-127883952D02*
X92886380Y-127217285D01*
X93886380Y-127645857D01*
%TO.C,C418*%
X102982952Y-139393142D02*
X102935333Y-139440761D01*
X102792476Y-139488380D01*
X102697238Y-139488380D01*
X102554380Y-139440761D01*
X102459142Y-139345523D01*
X102411523Y-139250285D01*
X102363904Y-139059809D01*
X102363904Y-138916952D01*
X102411523Y-138726476D01*
X102459142Y-138631238D01*
X102554380Y-138536000D01*
X102697238Y-138488380D01*
X102792476Y-138488380D01*
X102935333Y-138536000D01*
X102982952Y-138583619D01*
X103840095Y-138821714D02*
X103840095Y-139488380D01*
X103602000Y-138440761D02*
X103363904Y-139155047D01*
X103982952Y-139155047D01*
X104887714Y-139488380D02*
X104316285Y-139488380D01*
X104602000Y-139488380D02*
X104602000Y-138488380D01*
X104506761Y-138631238D01*
X104411523Y-138726476D01*
X104316285Y-138774095D01*
X105459142Y-138916952D02*
X105363904Y-138869333D01*
X105316285Y-138821714D01*
X105268666Y-138726476D01*
X105268666Y-138678857D01*
X105316285Y-138583619D01*
X105363904Y-138536000D01*
X105459142Y-138488380D01*
X105649619Y-138488380D01*
X105744857Y-138536000D01*
X105792476Y-138583619D01*
X105840095Y-138678857D01*
X105840095Y-138726476D01*
X105792476Y-138821714D01*
X105744857Y-138869333D01*
X105649619Y-138916952D01*
X105459142Y-138916952D01*
X105363904Y-138964571D01*
X105316285Y-139012190D01*
X105268666Y-139107428D01*
X105268666Y-139297904D01*
X105316285Y-139393142D01*
X105363904Y-139440761D01*
X105459142Y-139488380D01*
X105649619Y-139488380D01*
X105744857Y-139440761D01*
X105792476Y-139393142D01*
X105840095Y-139297904D01*
X105840095Y-139107428D01*
X105792476Y-139012190D01*
X105744857Y-138964571D01*
X105649619Y-138916952D01*
%TO.C,D301*%
X85012523Y-127169380D02*
X85012523Y-126169380D01*
X85250619Y-126169380D01*
X85393476Y-126217000D01*
X85488714Y-126312238D01*
X85536333Y-126407476D01*
X85583952Y-126597952D01*
X85583952Y-126740809D01*
X85536333Y-126931285D01*
X85488714Y-127026523D01*
X85393476Y-127121761D01*
X85250619Y-127169380D01*
X85012523Y-127169380D01*
X85917285Y-126169380D02*
X86536333Y-126169380D01*
X86203000Y-126550333D01*
X86345857Y-126550333D01*
X86441095Y-126597952D01*
X86488714Y-126645571D01*
X86536333Y-126740809D01*
X86536333Y-126978904D01*
X86488714Y-127074142D01*
X86441095Y-127121761D01*
X86345857Y-127169380D01*
X86060142Y-127169380D01*
X85964904Y-127121761D01*
X85917285Y-127074142D01*
X87155380Y-126169380D02*
X87250619Y-126169380D01*
X87345857Y-126217000D01*
X87393476Y-126264619D01*
X87441095Y-126359857D01*
X87488714Y-126550333D01*
X87488714Y-126788428D01*
X87441095Y-126978904D01*
X87393476Y-127074142D01*
X87345857Y-127121761D01*
X87250619Y-127169380D01*
X87155380Y-127169380D01*
X87060142Y-127121761D01*
X87012523Y-127074142D01*
X86964904Y-126978904D01*
X86917285Y-126788428D01*
X86917285Y-126550333D01*
X86964904Y-126359857D01*
X87012523Y-126264619D01*
X87060142Y-126217000D01*
X87155380Y-126169380D01*
X88441095Y-127169380D02*
X87869666Y-127169380D01*
X88155380Y-127169380D02*
X88155380Y-126169380D01*
X88060142Y-126312238D01*
X87964904Y-126407476D01*
X87869666Y-126455095D01*
%TO.C,D302*%
X85012523Y-125264380D02*
X85012523Y-124264380D01*
X85250619Y-124264380D01*
X85393476Y-124312000D01*
X85488714Y-124407238D01*
X85536333Y-124502476D01*
X85583952Y-124692952D01*
X85583952Y-124835809D01*
X85536333Y-125026285D01*
X85488714Y-125121523D01*
X85393476Y-125216761D01*
X85250619Y-125264380D01*
X85012523Y-125264380D01*
X85917285Y-124264380D02*
X86536333Y-124264380D01*
X86203000Y-124645333D01*
X86345857Y-124645333D01*
X86441095Y-124692952D01*
X86488714Y-124740571D01*
X86536333Y-124835809D01*
X86536333Y-125073904D01*
X86488714Y-125169142D01*
X86441095Y-125216761D01*
X86345857Y-125264380D01*
X86060142Y-125264380D01*
X85964904Y-125216761D01*
X85917285Y-125169142D01*
X87155380Y-124264380D02*
X87250619Y-124264380D01*
X87345857Y-124312000D01*
X87393476Y-124359619D01*
X87441095Y-124454857D01*
X87488714Y-124645333D01*
X87488714Y-124883428D01*
X87441095Y-125073904D01*
X87393476Y-125169142D01*
X87345857Y-125216761D01*
X87250619Y-125264380D01*
X87155380Y-125264380D01*
X87060142Y-125216761D01*
X87012523Y-125169142D01*
X86964904Y-125073904D01*
X86917285Y-124883428D01*
X86917285Y-124645333D01*
X86964904Y-124454857D01*
X87012523Y-124359619D01*
X87060142Y-124312000D01*
X87155380Y-124264380D01*
X87869666Y-124359619D02*
X87917285Y-124312000D01*
X88012523Y-124264380D01*
X88250619Y-124264380D01*
X88345857Y-124312000D01*
X88393476Y-124359619D01*
X88441095Y-124454857D01*
X88441095Y-124550095D01*
X88393476Y-124692952D01*
X87822047Y-125264380D01*
X88441095Y-125264380D01*
%TO.C,J201*%
X50952380Y-113111914D02*
X51666666Y-113111914D01*
X51809523Y-113159533D01*
X51904761Y-113254771D01*
X51952380Y-113397628D01*
X51952380Y-113492866D01*
X51047619Y-112683342D02*
X51000000Y-112635723D01*
X50952380Y-112540485D01*
X50952380Y-112302390D01*
X51000000Y-112207152D01*
X51047619Y-112159533D01*
X51142857Y-112111914D01*
X51238095Y-112111914D01*
X51380952Y-112159533D01*
X51952380Y-112730961D01*
X51952380Y-112111914D01*
X50952380Y-111492866D02*
X50952380Y-111397628D01*
X51000000Y-111302390D01*
X51047619Y-111254771D01*
X51142857Y-111207152D01*
X51333333Y-111159533D01*
X51571428Y-111159533D01*
X51761904Y-111207152D01*
X51857142Y-111254771D01*
X51904761Y-111302390D01*
X51952380Y-111397628D01*
X51952380Y-111492866D01*
X51904761Y-111588104D01*
X51857142Y-111635723D01*
X51761904Y-111683342D01*
X51571428Y-111730961D01*
X51333333Y-111730961D01*
X51142857Y-111683342D01*
X51047619Y-111635723D01*
X51000000Y-111588104D01*
X50952380Y-111492866D01*
X51952380Y-110207152D02*
X51952380Y-110778580D01*
X51952380Y-110492866D02*
X50952380Y-110492866D01*
X51095238Y-110588104D01*
X51190476Y-110683342D01*
X51238095Y-110778580D01*
%TO.C,J202*%
X96214285Y-117717380D02*
X96214285Y-118431666D01*
X96166666Y-118574523D01*
X96071428Y-118669761D01*
X95928571Y-118717380D01*
X95833333Y-118717380D01*
X96642857Y-117812619D02*
X96690476Y-117765000D01*
X96785714Y-117717380D01*
X97023809Y-117717380D01*
X97119047Y-117765000D01*
X97166666Y-117812619D01*
X97214285Y-117907857D01*
X97214285Y-118003095D01*
X97166666Y-118145952D01*
X96595238Y-118717380D01*
X97214285Y-118717380D01*
X97833333Y-117717380D02*
X97928571Y-117717380D01*
X98023809Y-117765000D01*
X98071428Y-117812619D01*
X98119047Y-117907857D01*
X98166666Y-118098333D01*
X98166666Y-118336428D01*
X98119047Y-118526904D01*
X98071428Y-118622142D01*
X98023809Y-118669761D01*
X97928571Y-118717380D01*
X97833333Y-118717380D01*
X97738095Y-118669761D01*
X97690476Y-118622142D01*
X97642857Y-118526904D01*
X97595238Y-118336428D01*
X97595238Y-118098333D01*
X97642857Y-117907857D01*
X97690476Y-117812619D01*
X97738095Y-117765000D01*
X97833333Y-117717380D01*
X98547619Y-117812619D02*
X98595238Y-117765000D01*
X98690476Y-117717380D01*
X98928571Y-117717380D01*
X99023809Y-117765000D01*
X99071428Y-117812619D01*
X99119047Y-117907857D01*
X99119047Y-118003095D01*
X99071428Y-118145952D01*
X98500000Y-118717380D01*
X99119047Y-118717380D01*
%TO.C,JP301*%
X50792285Y-128476380D02*
X50792285Y-129190666D01*
X50744666Y-129333523D01*
X50649428Y-129428761D01*
X50506571Y-129476380D01*
X50411333Y-129476380D01*
X51268476Y-129476380D02*
X51268476Y-128476380D01*
X51649428Y-128476380D01*
X51744666Y-128524000D01*
X51792285Y-128571619D01*
X51839904Y-128666857D01*
X51839904Y-128809714D01*
X51792285Y-128904952D01*
X51744666Y-128952571D01*
X51649428Y-129000190D01*
X51268476Y-129000190D01*
X52173238Y-128476380D02*
X52792285Y-128476380D01*
X52458952Y-128857333D01*
X52601809Y-128857333D01*
X52697047Y-128904952D01*
X52744666Y-128952571D01*
X52792285Y-129047809D01*
X52792285Y-129285904D01*
X52744666Y-129381142D01*
X52697047Y-129428761D01*
X52601809Y-129476380D01*
X52316095Y-129476380D01*
X52220857Y-129428761D01*
X52173238Y-129381142D01*
X53411333Y-128476380D02*
X53506571Y-128476380D01*
X53601809Y-128524000D01*
X53649428Y-128571619D01*
X53697047Y-128666857D01*
X53744666Y-128857333D01*
X53744666Y-129095428D01*
X53697047Y-129285904D01*
X53649428Y-129381142D01*
X53601809Y-129428761D01*
X53506571Y-129476380D01*
X53411333Y-129476380D01*
X53316095Y-129428761D01*
X53268476Y-129381142D01*
X53220857Y-129285904D01*
X53173238Y-129095428D01*
X53173238Y-128857333D01*
X53220857Y-128666857D01*
X53268476Y-128571619D01*
X53316095Y-128524000D01*
X53411333Y-128476380D01*
X54697047Y-129476380D02*
X54125619Y-129476380D01*
X54411333Y-129476380D02*
X54411333Y-128476380D01*
X54316095Y-128619238D01*
X54220857Y-128714476D01*
X54125619Y-128762095D01*
%TO.C,JP302*%
X50792285Y-131143380D02*
X50792285Y-131857666D01*
X50744666Y-132000523D01*
X50649428Y-132095761D01*
X50506571Y-132143380D01*
X50411333Y-132143380D01*
X51268476Y-132143380D02*
X51268476Y-131143380D01*
X51649428Y-131143380D01*
X51744666Y-131191000D01*
X51792285Y-131238619D01*
X51839904Y-131333857D01*
X51839904Y-131476714D01*
X51792285Y-131571952D01*
X51744666Y-131619571D01*
X51649428Y-131667190D01*
X51268476Y-131667190D01*
X52173238Y-131143380D02*
X52792285Y-131143380D01*
X52458952Y-131524333D01*
X52601809Y-131524333D01*
X52697047Y-131571952D01*
X52744666Y-131619571D01*
X52792285Y-131714809D01*
X52792285Y-131952904D01*
X52744666Y-132048142D01*
X52697047Y-132095761D01*
X52601809Y-132143380D01*
X52316095Y-132143380D01*
X52220857Y-132095761D01*
X52173238Y-132048142D01*
X53411333Y-131143380D02*
X53506571Y-131143380D01*
X53601809Y-131191000D01*
X53649428Y-131238619D01*
X53697047Y-131333857D01*
X53744666Y-131524333D01*
X53744666Y-131762428D01*
X53697047Y-131952904D01*
X53649428Y-132048142D01*
X53601809Y-132095761D01*
X53506571Y-132143380D01*
X53411333Y-132143380D01*
X53316095Y-132095761D01*
X53268476Y-132048142D01*
X53220857Y-131952904D01*
X53173238Y-131762428D01*
X53173238Y-131524333D01*
X53220857Y-131333857D01*
X53268476Y-131238619D01*
X53316095Y-131191000D01*
X53411333Y-131143380D01*
X54125619Y-131238619D02*
X54173238Y-131191000D01*
X54268476Y-131143380D01*
X54506571Y-131143380D01*
X54601809Y-131191000D01*
X54649428Y-131238619D01*
X54697047Y-131333857D01*
X54697047Y-131429095D01*
X54649428Y-131571952D01*
X54078000Y-132143380D01*
X54697047Y-132143380D01*
%TO.C,JP303*%
X50792285Y-133810380D02*
X50792285Y-134524666D01*
X50744666Y-134667523D01*
X50649428Y-134762761D01*
X50506571Y-134810380D01*
X50411333Y-134810380D01*
X51268476Y-134810380D02*
X51268476Y-133810380D01*
X51649428Y-133810380D01*
X51744666Y-133858000D01*
X51792285Y-133905619D01*
X51839904Y-134000857D01*
X51839904Y-134143714D01*
X51792285Y-134238952D01*
X51744666Y-134286571D01*
X51649428Y-134334190D01*
X51268476Y-134334190D01*
X52173238Y-133810380D02*
X52792285Y-133810380D01*
X52458952Y-134191333D01*
X52601809Y-134191333D01*
X52697047Y-134238952D01*
X52744666Y-134286571D01*
X52792285Y-134381809D01*
X52792285Y-134619904D01*
X52744666Y-134715142D01*
X52697047Y-134762761D01*
X52601809Y-134810380D01*
X52316095Y-134810380D01*
X52220857Y-134762761D01*
X52173238Y-134715142D01*
X53411333Y-133810380D02*
X53506571Y-133810380D01*
X53601809Y-133858000D01*
X53649428Y-133905619D01*
X53697047Y-134000857D01*
X53744666Y-134191333D01*
X53744666Y-134429428D01*
X53697047Y-134619904D01*
X53649428Y-134715142D01*
X53601809Y-134762761D01*
X53506571Y-134810380D01*
X53411333Y-134810380D01*
X53316095Y-134762761D01*
X53268476Y-134715142D01*
X53220857Y-134619904D01*
X53173238Y-134429428D01*
X53173238Y-134191333D01*
X53220857Y-134000857D01*
X53268476Y-133905619D01*
X53316095Y-133858000D01*
X53411333Y-133810380D01*
X54078000Y-133810380D02*
X54697047Y-133810380D01*
X54363714Y-134191333D01*
X54506571Y-134191333D01*
X54601809Y-134238952D01*
X54649428Y-134286571D01*
X54697047Y-134381809D01*
X54697047Y-134619904D01*
X54649428Y-134715142D01*
X54601809Y-134762761D01*
X54506571Y-134810380D01*
X54220857Y-134810380D01*
X54125619Y-134762761D01*
X54078000Y-134715142D01*
%TO.C,JP304*%
X70280380Y-139170714D02*
X70994666Y-139170714D01*
X71137523Y-139218333D01*
X71232761Y-139313571D01*
X71280380Y-139456428D01*
X71280380Y-139551666D01*
X71280380Y-138694523D02*
X70280380Y-138694523D01*
X70280380Y-138313571D01*
X70328000Y-138218333D01*
X70375619Y-138170714D01*
X70470857Y-138123095D01*
X70613714Y-138123095D01*
X70708952Y-138170714D01*
X70756571Y-138218333D01*
X70804190Y-138313571D01*
X70804190Y-138694523D01*
X70280380Y-137789761D02*
X70280380Y-137170714D01*
X70661333Y-137504047D01*
X70661333Y-137361190D01*
X70708952Y-137265952D01*
X70756571Y-137218333D01*
X70851809Y-137170714D01*
X71089904Y-137170714D01*
X71185142Y-137218333D01*
X71232761Y-137265952D01*
X71280380Y-137361190D01*
X71280380Y-137646904D01*
X71232761Y-137742142D01*
X71185142Y-137789761D01*
X70280380Y-136551666D02*
X70280380Y-136456428D01*
X70328000Y-136361190D01*
X70375619Y-136313571D01*
X70470857Y-136265952D01*
X70661333Y-136218333D01*
X70899428Y-136218333D01*
X71089904Y-136265952D01*
X71185142Y-136313571D01*
X71232761Y-136361190D01*
X71280380Y-136456428D01*
X71280380Y-136551666D01*
X71232761Y-136646904D01*
X71185142Y-136694523D01*
X71089904Y-136742142D01*
X70899428Y-136789761D01*
X70661333Y-136789761D01*
X70470857Y-136742142D01*
X70375619Y-136694523D01*
X70328000Y-136646904D01*
X70280380Y-136551666D01*
X70613714Y-135361190D02*
X71280380Y-135361190D01*
X70232761Y-135599285D02*
X70947047Y-135837380D01*
X70947047Y-135218333D01*
%TO.C,JP305*%
X67549880Y-139185714D02*
X68264166Y-139185714D01*
X68407023Y-139233333D01*
X68502261Y-139328571D01*
X68549880Y-139471428D01*
X68549880Y-139566666D01*
X68549880Y-138709523D02*
X67549880Y-138709523D01*
X67549880Y-138328571D01*
X67597500Y-138233333D01*
X67645119Y-138185714D01*
X67740357Y-138138095D01*
X67883214Y-138138095D01*
X67978452Y-138185714D01*
X68026071Y-138233333D01*
X68073690Y-138328571D01*
X68073690Y-138709523D01*
X67549880Y-137804761D02*
X67549880Y-137185714D01*
X67930833Y-137519047D01*
X67930833Y-137376190D01*
X67978452Y-137280952D01*
X68026071Y-137233333D01*
X68121309Y-137185714D01*
X68359404Y-137185714D01*
X68454642Y-137233333D01*
X68502261Y-137280952D01*
X68549880Y-137376190D01*
X68549880Y-137661904D01*
X68502261Y-137757142D01*
X68454642Y-137804761D01*
X67549880Y-136566666D02*
X67549880Y-136471428D01*
X67597500Y-136376190D01*
X67645119Y-136328571D01*
X67740357Y-136280952D01*
X67930833Y-136233333D01*
X68168928Y-136233333D01*
X68359404Y-136280952D01*
X68454642Y-136328571D01*
X68502261Y-136376190D01*
X68549880Y-136471428D01*
X68549880Y-136566666D01*
X68502261Y-136661904D01*
X68454642Y-136709523D01*
X68359404Y-136757142D01*
X68168928Y-136804761D01*
X67930833Y-136804761D01*
X67740357Y-136757142D01*
X67645119Y-136709523D01*
X67597500Y-136661904D01*
X67549880Y-136566666D01*
X67549880Y-135328571D02*
X67549880Y-135804761D01*
X68026071Y-135852380D01*
X67978452Y-135804761D01*
X67930833Y-135709523D01*
X67930833Y-135471428D01*
X67978452Y-135376190D01*
X68026071Y-135328571D01*
X68121309Y-135280952D01*
X68359404Y-135280952D01*
X68454642Y-135328571D01*
X68502261Y-135376190D01*
X68549880Y-135471428D01*
X68549880Y-135709523D01*
X68502261Y-135804761D01*
X68454642Y-135852380D01*
%TO.C,JP306*%
X74628380Y-109509714D02*
X75342666Y-109509714D01*
X75485523Y-109557333D01*
X75580761Y-109652571D01*
X75628380Y-109795428D01*
X75628380Y-109890666D01*
X75628380Y-109033523D02*
X74628380Y-109033523D01*
X74628380Y-108652571D01*
X74676000Y-108557333D01*
X74723619Y-108509714D01*
X74818857Y-108462095D01*
X74961714Y-108462095D01*
X75056952Y-108509714D01*
X75104571Y-108557333D01*
X75152190Y-108652571D01*
X75152190Y-109033523D01*
X74628380Y-108128761D02*
X74628380Y-107509714D01*
X75009333Y-107843047D01*
X75009333Y-107700190D01*
X75056952Y-107604952D01*
X75104571Y-107557333D01*
X75199809Y-107509714D01*
X75437904Y-107509714D01*
X75533142Y-107557333D01*
X75580761Y-107604952D01*
X75628380Y-107700190D01*
X75628380Y-107985904D01*
X75580761Y-108081142D01*
X75533142Y-108128761D01*
X74628380Y-106890666D02*
X74628380Y-106795428D01*
X74676000Y-106700190D01*
X74723619Y-106652571D01*
X74818857Y-106604952D01*
X75009333Y-106557333D01*
X75247428Y-106557333D01*
X75437904Y-106604952D01*
X75533142Y-106652571D01*
X75580761Y-106700190D01*
X75628380Y-106795428D01*
X75628380Y-106890666D01*
X75580761Y-106985904D01*
X75533142Y-107033523D01*
X75437904Y-107081142D01*
X75247428Y-107128761D01*
X75009333Y-107128761D01*
X74818857Y-107081142D01*
X74723619Y-107033523D01*
X74676000Y-106985904D01*
X74628380Y-106890666D01*
X74628380Y-105700190D02*
X74628380Y-105890666D01*
X74676000Y-105985904D01*
X74723619Y-106033523D01*
X74866476Y-106128761D01*
X75056952Y-106176380D01*
X75437904Y-106176380D01*
X75533142Y-106128761D01*
X75580761Y-106081142D01*
X75628380Y-105985904D01*
X75628380Y-105795428D01*
X75580761Y-105700190D01*
X75533142Y-105652571D01*
X75437904Y-105604952D01*
X75199809Y-105604952D01*
X75104571Y-105652571D01*
X75056952Y-105700190D01*
X75009333Y-105795428D01*
X75009333Y-105985904D01*
X75056952Y-106081142D01*
X75104571Y-106128761D01*
X75199809Y-106176380D01*
%TO.C,JP307*%
X87628380Y-109463714D02*
X88342666Y-109463714D01*
X88485523Y-109511333D01*
X88580761Y-109606571D01*
X88628380Y-109749428D01*
X88628380Y-109844666D01*
X88628380Y-108987523D02*
X87628380Y-108987523D01*
X87628380Y-108606571D01*
X87676000Y-108511333D01*
X87723619Y-108463714D01*
X87818857Y-108416095D01*
X87961714Y-108416095D01*
X88056952Y-108463714D01*
X88104571Y-108511333D01*
X88152190Y-108606571D01*
X88152190Y-108987523D01*
X87628380Y-108082761D02*
X87628380Y-107463714D01*
X88009333Y-107797047D01*
X88009333Y-107654190D01*
X88056952Y-107558952D01*
X88104571Y-107511333D01*
X88199809Y-107463714D01*
X88437904Y-107463714D01*
X88533142Y-107511333D01*
X88580761Y-107558952D01*
X88628380Y-107654190D01*
X88628380Y-107939904D01*
X88580761Y-108035142D01*
X88533142Y-108082761D01*
X87628380Y-106844666D02*
X87628380Y-106749428D01*
X87676000Y-106654190D01*
X87723619Y-106606571D01*
X87818857Y-106558952D01*
X88009333Y-106511333D01*
X88247428Y-106511333D01*
X88437904Y-106558952D01*
X88533142Y-106606571D01*
X88580761Y-106654190D01*
X88628380Y-106749428D01*
X88628380Y-106844666D01*
X88580761Y-106939904D01*
X88533142Y-106987523D01*
X88437904Y-107035142D01*
X88247428Y-107082761D01*
X88009333Y-107082761D01*
X87818857Y-107035142D01*
X87723619Y-106987523D01*
X87676000Y-106939904D01*
X87628380Y-106844666D01*
X87628380Y-106178000D02*
X87628380Y-105511333D01*
X88628380Y-105939904D01*
%TO.C,JP308*%
X74887880Y-127186214D02*
X75602166Y-127186214D01*
X75745023Y-127233833D01*
X75840261Y-127329071D01*
X75887880Y-127471928D01*
X75887880Y-127567166D01*
X75887880Y-126710023D02*
X74887880Y-126710023D01*
X74887880Y-126329071D01*
X74935500Y-126233833D01*
X74983119Y-126186214D01*
X75078357Y-126138595D01*
X75221214Y-126138595D01*
X75316452Y-126186214D01*
X75364071Y-126233833D01*
X75411690Y-126329071D01*
X75411690Y-126710023D01*
X74887880Y-125805261D02*
X74887880Y-125186214D01*
X75268833Y-125519547D01*
X75268833Y-125376690D01*
X75316452Y-125281452D01*
X75364071Y-125233833D01*
X75459309Y-125186214D01*
X75697404Y-125186214D01*
X75792642Y-125233833D01*
X75840261Y-125281452D01*
X75887880Y-125376690D01*
X75887880Y-125662404D01*
X75840261Y-125757642D01*
X75792642Y-125805261D01*
X74887880Y-124567166D02*
X74887880Y-124471928D01*
X74935500Y-124376690D01*
X74983119Y-124329071D01*
X75078357Y-124281452D01*
X75268833Y-124233833D01*
X75506928Y-124233833D01*
X75697404Y-124281452D01*
X75792642Y-124329071D01*
X75840261Y-124376690D01*
X75887880Y-124471928D01*
X75887880Y-124567166D01*
X75840261Y-124662404D01*
X75792642Y-124710023D01*
X75697404Y-124757642D01*
X75506928Y-124805261D01*
X75268833Y-124805261D01*
X75078357Y-124757642D01*
X74983119Y-124710023D01*
X74935500Y-124662404D01*
X74887880Y-124567166D01*
X75316452Y-123662404D02*
X75268833Y-123757642D01*
X75221214Y-123805261D01*
X75125976Y-123852880D01*
X75078357Y-123852880D01*
X74983119Y-123805261D01*
X74935500Y-123757642D01*
X74887880Y-123662404D01*
X74887880Y-123471928D01*
X74935500Y-123376690D01*
X74983119Y-123329071D01*
X75078357Y-123281452D01*
X75125976Y-123281452D01*
X75221214Y-123329071D01*
X75268833Y-123376690D01*
X75316452Y-123471928D01*
X75316452Y-123662404D01*
X75364071Y-123757642D01*
X75411690Y-123805261D01*
X75506928Y-123852880D01*
X75697404Y-123852880D01*
X75792642Y-123805261D01*
X75840261Y-123757642D01*
X75887880Y-123662404D01*
X75887880Y-123471928D01*
X75840261Y-123376690D01*
X75792642Y-123329071D01*
X75697404Y-123281452D01*
X75506928Y-123281452D01*
X75411690Y-123329071D01*
X75364071Y-123376690D01*
X75316452Y-123471928D01*
%TO.C,L301*%
X73548952Y-120495380D02*
X73072761Y-120495380D01*
X73072761Y-119495380D01*
X73787047Y-119495380D02*
X74406095Y-119495380D01*
X74072761Y-119876333D01*
X74215619Y-119876333D01*
X74310857Y-119923952D01*
X74358476Y-119971571D01*
X74406095Y-120066809D01*
X74406095Y-120304904D01*
X74358476Y-120400142D01*
X74310857Y-120447761D01*
X74215619Y-120495380D01*
X73929904Y-120495380D01*
X73834666Y-120447761D01*
X73787047Y-120400142D01*
X75025142Y-119495380D02*
X75120380Y-119495380D01*
X75215619Y-119543000D01*
X75263238Y-119590619D01*
X75310857Y-119685857D01*
X75358476Y-119876333D01*
X75358476Y-120114428D01*
X75310857Y-120304904D01*
X75263238Y-120400142D01*
X75215619Y-120447761D01*
X75120380Y-120495380D01*
X75025142Y-120495380D01*
X74929904Y-120447761D01*
X74882285Y-120400142D01*
X74834666Y-120304904D01*
X74787047Y-120114428D01*
X74787047Y-119876333D01*
X74834666Y-119685857D01*
X74882285Y-119590619D01*
X74929904Y-119543000D01*
X75025142Y-119495380D01*
X76310857Y-120495380D02*
X75739428Y-120495380D01*
X76025142Y-120495380D02*
X76025142Y-119495380D01*
X75929904Y-119638238D01*
X75834666Y-119733476D01*
X75739428Y-119781095D01*
%TO.C,L302*%
X90711380Y-117676047D02*
X90711380Y-118152238D01*
X89711380Y-118152238D01*
X89711380Y-117437952D02*
X89711380Y-116818904D01*
X90092333Y-117152238D01*
X90092333Y-117009380D01*
X90139952Y-116914142D01*
X90187571Y-116866523D01*
X90282809Y-116818904D01*
X90520904Y-116818904D01*
X90616142Y-116866523D01*
X90663761Y-116914142D01*
X90711380Y-117009380D01*
X90711380Y-117295095D01*
X90663761Y-117390333D01*
X90616142Y-117437952D01*
X89711380Y-116199857D02*
X89711380Y-116104619D01*
X89759000Y-116009380D01*
X89806619Y-115961761D01*
X89901857Y-115914142D01*
X90092333Y-115866523D01*
X90330428Y-115866523D01*
X90520904Y-115914142D01*
X90616142Y-115961761D01*
X90663761Y-116009380D01*
X90711380Y-116104619D01*
X90711380Y-116199857D01*
X90663761Y-116295095D01*
X90616142Y-116342714D01*
X90520904Y-116390333D01*
X90330428Y-116437952D01*
X90092333Y-116437952D01*
X89901857Y-116390333D01*
X89806619Y-116342714D01*
X89759000Y-116295095D01*
X89711380Y-116199857D01*
X89806619Y-115485571D02*
X89759000Y-115437952D01*
X89711380Y-115342714D01*
X89711380Y-115104619D01*
X89759000Y-115009380D01*
X89806619Y-114961761D01*
X89901857Y-114914142D01*
X89997095Y-114914142D01*
X90139952Y-114961761D01*
X90711380Y-115533190D01*
X90711380Y-114914142D01*
%TO.C,L303*%
X73236952Y-137917880D02*
X72760761Y-137917880D01*
X72760761Y-136917880D01*
X73475047Y-136917880D02*
X74094095Y-136917880D01*
X73760761Y-137298833D01*
X73903619Y-137298833D01*
X73998857Y-137346452D01*
X74046476Y-137394071D01*
X74094095Y-137489309D01*
X74094095Y-137727404D01*
X74046476Y-137822642D01*
X73998857Y-137870261D01*
X73903619Y-137917880D01*
X73617904Y-137917880D01*
X73522666Y-137870261D01*
X73475047Y-137822642D01*
X74713142Y-136917880D02*
X74808380Y-136917880D01*
X74903619Y-136965500D01*
X74951238Y-137013119D01*
X74998857Y-137108357D01*
X75046476Y-137298833D01*
X75046476Y-137536928D01*
X74998857Y-137727404D01*
X74951238Y-137822642D01*
X74903619Y-137870261D01*
X74808380Y-137917880D01*
X74713142Y-137917880D01*
X74617904Y-137870261D01*
X74570285Y-137822642D01*
X74522666Y-137727404D01*
X74475047Y-137536928D01*
X74475047Y-137298833D01*
X74522666Y-137108357D01*
X74570285Y-137013119D01*
X74617904Y-136965500D01*
X74713142Y-136917880D01*
X75379809Y-136917880D02*
X75998857Y-136917880D01*
X75665523Y-137298833D01*
X75808380Y-137298833D01*
X75903619Y-137346452D01*
X75951238Y-137394071D01*
X75998857Y-137489309D01*
X75998857Y-137727404D01*
X75951238Y-137822642D01*
X75903619Y-137870261D01*
X75808380Y-137917880D01*
X75522666Y-137917880D01*
X75427428Y-137870261D01*
X75379809Y-137822642D01*
%TO.C,Q201*%
X96775619Y-116080619D02*
X96728000Y-116175857D01*
X96632761Y-116271095D01*
X96489904Y-116413952D01*
X96442285Y-116509190D01*
X96442285Y-116604428D01*
X96680380Y-116556809D02*
X96632761Y-116652047D01*
X96537523Y-116747285D01*
X96347047Y-116794904D01*
X96013714Y-116794904D01*
X95823238Y-116747285D01*
X95728000Y-116652047D01*
X95680380Y-116556809D01*
X95680380Y-116366333D01*
X95728000Y-116271095D01*
X95823238Y-116175857D01*
X96013714Y-116128238D01*
X96347047Y-116128238D01*
X96537523Y-116175857D01*
X96632761Y-116271095D01*
X96680380Y-116366333D01*
X96680380Y-116556809D01*
X95775619Y-115747285D02*
X95728000Y-115699666D01*
X95680380Y-115604428D01*
X95680380Y-115366333D01*
X95728000Y-115271095D01*
X95775619Y-115223476D01*
X95870857Y-115175857D01*
X95966095Y-115175857D01*
X96108952Y-115223476D01*
X96680380Y-115794904D01*
X96680380Y-115175857D01*
X95680380Y-114556809D02*
X95680380Y-114461571D01*
X95728000Y-114366333D01*
X95775619Y-114318714D01*
X95870857Y-114271095D01*
X96061333Y-114223476D01*
X96299428Y-114223476D01*
X96489904Y-114271095D01*
X96585142Y-114318714D01*
X96632761Y-114366333D01*
X96680380Y-114461571D01*
X96680380Y-114556809D01*
X96632761Y-114652047D01*
X96585142Y-114699666D01*
X96489904Y-114747285D01*
X96299428Y-114794904D01*
X96061333Y-114794904D01*
X95870857Y-114747285D01*
X95775619Y-114699666D01*
X95728000Y-114652047D01*
X95680380Y-114556809D01*
X96680380Y-113271095D02*
X96680380Y-113842523D01*
X96680380Y-113556809D02*
X95680380Y-113556809D01*
X95823238Y-113652047D01*
X95918476Y-113747285D01*
X95966095Y-113842523D01*
%TO.C,Q202*%
X99061619Y-116080619D02*
X99014000Y-116175857D01*
X98918761Y-116271095D01*
X98775904Y-116413952D01*
X98728285Y-116509190D01*
X98728285Y-116604428D01*
X98966380Y-116556809D02*
X98918761Y-116652047D01*
X98823523Y-116747285D01*
X98633047Y-116794904D01*
X98299714Y-116794904D01*
X98109238Y-116747285D01*
X98014000Y-116652047D01*
X97966380Y-116556809D01*
X97966380Y-116366333D01*
X98014000Y-116271095D01*
X98109238Y-116175857D01*
X98299714Y-116128238D01*
X98633047Y-116128238D01*
X98823523Y-116175857D01*
X98918761Y-116271095D01*
X98966380Y-116366333D01*
X98966380Y-116556809D01*
X98061619Y-115747285D02*
X98014000Y-115699666D01*
X97966380Y-115604428D01*
X97966380Y-115366333D01*
X98014000Y-115271095D01*
X98061619Y-115223476D01*
X98156857Y-115175857D01*
X98252095Y-115175857D01*
X98394952Y-115223476D01*
X98966380Y-115794904D01*
X98966380Y-115175857D01*
X97966380Y-114556809D02*
X97966380Y-114461571D01*
X98014000Y-114366333D01*
X98061619Y-114318714D01*
X98156857Y-114271095D01*
X98347333Y-114223476D01*
X98585428Y-114223476D01*
X98775904Y-114271095D01*
X98871142Y-114318714D01*
X98918761Y-114366333D01*
X98966380Y-114461571D01*
X98966380Y-114556809D01*
X98918761Y-114652047D01*
X98871142Y-114699666D01*
X98775904Y-114747285D01*
X98585428Y-114794904D01*
X98347333Y-114794904D01*
X98156857Y-114747285D01*
X98061619Y-114699666D01*
X98014000Y-114652047D01*
X97966380Y-114556809D01*
X98061619Y-113842523D02*
X98014000Y-113794904D01*
X97966380Y-113699666D01*
X97966380Y-113461571D01*
X98014000Y-113366333D01*
X98061619Y-113318714D01*
X98156857Y-113271095D01*
X98252095Y-113271095D01*
X98394952Y-113318714D01*
X98966380Y-113890142D01*
X98966380Y-113271095D01*
%TO.C,Q203*%
X101347619Y-116080619D02*
X101300000Y-116175857D01*
X101204761Y-116271095D01*
X101061904Y-116413952D01*
X101014285Y-116509190D01*
X101014285Y-116604428D01*
X101252380Y-116556809D02*
X101204761Y-116652047D01*
X101109523Y-116747285D01*
X100919047Y-116794904D01*
X100585714Y-116794904D01*
X100395238Y-116747285D01*
X100300000Y-116652047D01*
X100252380Y-116556809D01*
X100252380Y-116366333D01*
X100300000Y-116271095D01*
X100395238Y-116175857D01*
X100585714Y-116128238D01*
X100919047Y-116128238D01*
X101109523Y-116175857D01*
X101204761Y-116271095D01*
X101252380Y-116366333D01*
X101252380Y-116556809D01*
X100347619Y-115747285D02*
X100300000Y-115699666D01*
X100252380Y-115604428D01*
X100252380Y-115366333D01*
X100300000Y-115271095D01*
X100347619Y-115223476D01*
X100442857Y-115175857D01*
X100538095Y-115175857D01*
X100680952Y-115223476D01*
X101252380Y-115794904D01*
X101252380Y-115175857D01*
X100252380Y-114556809D02*
X100252380Y-114461571D01*
X100300000Y-114366333D01*
X100347619Y-114318714D01*
X100442857Y-114271095D01*
X100633333Y-114223476D01*
X100871428Y-114223476D01*
X101061904Y-114271095D01*
X101157142Y-114318714D01*
X101204761Y-114366333D01*
X101252380Y-114461571D01*
X101252380Y-114556809D01*
X101204761Y-114652047D01*
X101157142Y-114699666D01*
X101061904Y-114747285D01*
X100871428Y-114794904D01*
X100633333Y-114794904D01*
X100442857Y-114747285D01*
X100347619Y-114699666D01*
X100300000Y-114652047D01*
X100252380Y-114556809D01*
X100252380Y-113890142D02*
X100252380Y-113271095D01*
X100633333Y-113604428D01*
X100633333Y-113461571D01*
X100680952Y-113366333D01*
X100728571Y-113318714D01*
X100823809Y-113271095D01*
X101061904Y-113271095D01*
X101157142Y-113318714D01*
X101204761Y-113366333D01*
X101252380Y-113461571D01*
X101252380Y-113747285D01*
X101204761Y-113842523D01*
X101157142Y-113890142D01*
%TO.C,Q301*%
X91032619Y-131464619D02*
X90985000Y-131559857D01*
X90889761Y-131655095D01*
X90746904Y-131797952D01*
X90699285Y-131893190D01*
X90699285Y-131988428D01*
X90937380Y-131940809D02*
X90889761Y-132036047D01*
X90794523Y-132131285D01*
X90604047Y-132178904D01*
X90270714Y-132178904D01*
X90080238Y-132131285D01*
X89985000Y-132036047D01*
X89937380Y-131940809D01*
X89937380Y-131750333D01*
X89985000Y-131655095D01*
X90080238Y-131559857D01*
X90270714Y-131512238D01*
X90604047Y-131512238D01*
X90794523Y-131559857D01*
X90889761Y-131655095D01*
X90937380Y-131750333D01*
X90937380Y-131940809D01*
X89937380Y-131178904D02*
X89937380Y-130559857D01*
X90318333Y-130893190D01*
X90318333Y-130750333D01*
X90365952Y-130655095D01*
X90413571Y-130607476D01*
X90508809Y-130559857D01*
X90746904Y-130559857D01*
X90842142Y-130607476D01*
X90889761Y-130655095D01*
X90937380Y-130750333D01*
X90937380Y-131036047D01*
X90889761Y-131131285D01*
X90842142Y-131178904D01*
X89937380Y-129940809D02*
X89937380Y-129845571D01*
X89985000Y-129750333D01*
X90032619Y-129702714D01*
X90127857Y-129655095D01*
X90318333Y-129607476D01*
X90556428Y-129607476D01*
X90746904Y-129655095D01*
X90842142Y-129702714D01*
X90889761Y-129750333D01*
X90937380Y-129845571D01*
X90937380Y-129940809D01*
X90889761Y-130036047D01*
X90842142Y-130083666D01*
X90746904Y-130131285D01*
X90556428Y-130178904D01*
X90318333Y-130178904D01*
X90127857Y-130131285D01*
X90032619Y-130083666D01*
X89985000Y-130036047D01*
X89937380Y-129940809D01*
X90937380Y-128655095D02*
X90937380Y-129226523D01*
X90937380Y-128940809D02*
X89937380Y-128940809D01*
X90080238Y-129036047D01*
X90175476Y-129131285D01*
X90223095Y-129226523D01*
%TO.C,Q302*%
X85309880Y-128996119D02*
X85214642Y-128948500D01*
X85119404Y-128853261D01*
X84976547Y-128710404D01*
X84881309Y-128662785D01*
X84786071Y-128662785D01*
X84833690Y-128900880D02*
X84738452Y-128853261D01*
X84643214Y-128758023D01*
X84595595Y-128567547D01*
X84595595Y-128234214D01*
X84643214Y-128043738D01*
X84738452Y-127948500D01*
X84833690Y-127900880D01*
X85024166Y-127900880D01*
X85119404Y-127948500D01*
X85214642Y-128043738D01*
X85262261Y-128234214D01*
X85262261Y-128567547D01*
X85214642Y-128758023D01*
X85119404Y-128853261D01*
X85024166Y-128900880D01*
X84833690Y-128900880D01*
X85595595Y-127900880D02*
X86214642Y-127900880D01*
X85881309Y-128281833D01*
X86024166Y-128281833D01*
X86119404Y-128329452D01*
X86167023Y-128377071D01*
X86214642Y-128472309D01*
X86214642Y-128710404D01*
X86167023Y-128805642D01*
X86119404Y-128853261D01*
X86024166Y-128900880D01*
X85738452Y-128900880D01*
X85643214Y-128853261D01*
X85595595Y-128805642D01*
X86833690Y-127900880D02*
X86928928Y-127900880D01*
X87024166Y-127948500D01*
X87071785Y-127996119D01*
X87119404Y-128091357D01*
X87167023Y-128281833D01*
X87167023Y-128519928D01*
X87119404Y-128710404D01*
X87071785Y-128805642D01*
X87024166Y-128853261D01*
X86928928Y-128900880D01*
X86833690Y-128900880D01*
X86738452Y-128853261D01*
X86690833Y-128805642D01*
X86643214Y-128710404D01*
X86595595Y-128519928D01*
X86595595Y-128281833D01*
X86643214Y-128091357D01*
X86690833Y-127996119D01*
X86738452Y-127948500D01*
X86833690Y-127900880D01*
X87547976Y-127996119D02*
X87595595Y-127948500D01*
X87690833Y-127900880D01*
X87928928Y-127900880D01*
X88024166Y-127948500D01*
X88071785Y-127996119D01*
X88119404Y-128091357D01*
X88119404Y-128186595D01*
X88071785Y-128329452D01*
X87500357Y-128900880D01*
X88119404Y-128900880D01*
%TO.C,Q303*%
X82932619Y-131464619D02*
X82885000Y-131559857D01*
X82789761Y-131655095D01*
X82646904Y-131797952D01*
X82599285Y-131893190D01*
X82599285Y-131988428D01*
X82837380Y-131940809D02*
X82789761Y-132036047D01*
X82694523Y-132131285D01*
X82504047Y-132178904D01*
X82170714Y-132178904D01*
X81980238Y-132131285D01*
X81885000Y-132036047D01*
X81837380Y-131940809D01*
X81837380Y-131750333D01*
X81885000Y-131655095D01*
X81980238Y-131559857D01*
X82170714Y-131512238D01*
X82504047Y-131512238D01*
X82694523Y-131559857D01*
X82789761Y-131655095D01*
X82837380Y-131750333D01*
X82837380Y-131940809D01*
X81837380Y-131178904D02*
X81837380Y-130559857D01*
X82218333Y-130893190D01*
X82218333Y-130750333D01*
X82265952Y-130655095D01*
X82313571Y-130607476D01*
X82408809Y-130559857D01*
X82646904Y-130559857D01*
X82742142Y-130607476D01*
X82789761Y-130655095D01*
X82837380Y-130750333D01*
X82837380Y-131036047D01*
X82789761Y-131131285D01*
X82742142Y-131178904D01*
X81837380Y-129940809D02*
X81837380Y-129845571D01*
X81885000Y-129750333D01*
X81932619Y-129702714D01*
X82027857Y-129655095D01*
X82218333Y-129607476D01*
X82456428Y-129607476D01*
X82646904Y-129655095D01*
X82742142Y-129702714D01*
X82789761Y-129750333D01*
X82837380Y-129845571D01*
X82837380Y-129940809D01*
X82789761Y-130036047D01*
X82742142Y-130083666D01*
X82646904Y-130131285D01*
X82456428Y-130178904D01*
X82218333Y-130178904D01*
X82027857Y-130131285D01*
X81932619Y-130083666D01*
X81885000Y-130036047D01*
X81837380Y-129940809D01*
X81837380Y-129274142D02*
X81837380Y-128655095D01*
X82218333Y-128988428D01*
X82218333Y-128845571D01*
X82265952Y-128750333D01*
X82313571Y-128702714D01*
X82408809Y-128655095D01*
X82646904Y-128655095D01*
X82742142Y-128702714D01*
X82789761Y-128750333D01*
X82837380Y-128845571D01*
X82837380Y-129131285D01*
X82789761Y-129226523D01*
X82742142Y-129274142D01*
%TO.C,R204*%
X89901952Y-106468380D02*
X89568619Y-105992190D01*
X89330523Y-106468380D02*
X89330523Y-105468380D01*
X89711476Y-105468380D01*
X89806714Y-105516000D01*
X89854333Y-105563619D01*
X89901952Y-105658857D01*
X89901952Y-105801714D01*
X89854333Y-105896952D01*
X89806714Y-105944571D01*
X89711476Y-105992190D01*
X89330523Y-105992190D01*
X90282904Y-105563619D02*
X90330523Y-105516000D01*
X90425761Y-105468380D01*
X90663857Y-105468380D01*
X90759095Y-105516000D01*
X90806714Y-105563619D01*
X90854333Y-105658857D01*
X90854333Y-105754095D01*
X90806714Y-105896952D01*
X90235285Y-106468380D01*
X90854333Y-106468380D01*
X91473380Y-105468380D02*
X91568619Y-105468380D01*
X91663857Y-105516000D01*
X91711476Y-105563619D01*
X91759095Y-105658857D01*
X91806714Y-105849333D01*
X91806714Y-106087428D01*
X91759095Y-106277904D01*
X91711476Y-106373142D01*
X91663857Y-106420761D01*
X91568619Y-106468380D01*
X91473380Y-106468380D01*
X91378142Y-106420761D01*
X91330523Y-106373142D01*
X91282904Y-106277904D01*
X91235285Y-106087428D01*
X91235285Y-105849333D01*
X91282904Y-105658857D01*
X91330523Y-105563619D01*
X91378142Y-105516000D01*
X91473380Y-105468380D01*
X92663857Y-105801714D02*
X92663857Y-106468380D01*
X92425761Y-105420761D02*
X92187666Y-106135047D01*
X92806714Y-106135047D01*
%TO.C,R205*%
X89901952Y-108119380D02*
X89568619Y-107643190D01*
X89330523Y-108119380D02*
X89330523Y-107119380D01*
X89711476Y-107119380D01*
X89806714Y-107167000D01*
X89854333Y-107214619D01*
X89901952Y-107309857D01*
X89901952Y-107452714D01*
X89854333Y-107547952D01*
X89806714Y-107595571D01*
X89711476Y-107643190D01*
X89330523Y-107643190D01*
X90282904Y-107214619D02*
X90330523Y-107167000D01*
X90425761Y-107119380D01*
X90663857Y-107119380D01*
X90759095Y-107167000D01*
X90806714Y-107214619D01*
X90854333Y-107309857D01*
X90854333Y-107405095D01*
X90806714Y-107547952D01*
X90235285Y-108119380D01*
X90854333Y-108119380D01*
X91473380Y-107119380D02*
X91568619Y-107119380D01*
X91663857Y-107167000D01*
X91711476Y-107214619D01*
X91759095Y-107309857D01*
X91806714Y-107500333D01*
X91806714Y-107738428D01*
X91759095Y-107928904D01*
X91711476Y-108024142D01*
X91663857Y-108071761D01*
X91568619Y-108119380D01*
X91473380Y-108119380D01*
X91378142Y-108071761D01*
X91330523Y-108024142D01*
X91282904Y-107928904D01*
X91235285Y-107738428D01*
X91235285Y-107500333D01*
X91282904Y-107309857D01*
X91330523Y-107214619D01*
X91378142Y-107167000D01*
X91473380Y-107119380D01*
X92711476Y-107119380D02*
X92235285Y-107119380D01*
X92187666Y-107595571D01*
X92235285Y-107547952D01*
X92330523Y-107500333D01*
X92568619Y-107500333D01*
X92663857Y-107547952D01*
X92711476Y-107595571D01*
X92759095Y-107690809D01*
X92759095Y-107928904D01*
X92711476Y-108024142D01*
X92663857Y-108071761D01*
X92568619Y-108119380D01*
X92330523Y-108119380D01*
X92235285Y-108071761D01*
X92187666Y-108024142D01*
%TO.C,R206*%
X89901952Y-109770380D02*
X89568619Y-109294190D01*
X89330523Y-109770380D02*
X89330523Y-108770380D01*
X89711476Y-108770380D01*
X89806714Y-108818000D01*
X89854333Y-108865619D01*
X89901952Y-108960857D01*
X89901952Y-109103714D01*
X89854333Y-109198952D01*
X89806714Y-109246571D01*
X89711476Y-109294190D01*
X89330523Y-109294190D01*
X90282904Y-108865619D02*
X90330523Y-108818000D01*
X90425761Y-108770380D01*
X90663857Y-108770380D01*
X90759095Y-108818000D01*
X90806714Y-108865619D01*
X90854333Y-108960857D01*
X90854333Y-109056095D01*
X90806714Y-109198952D01*
X90235285Y-109770380D01*
X90854333Y-109770380D01*
X91473380Y-108770380D02*
X91568619Y-108770380D01*
X91663857Y-108818000D01*
X91711476Y-108865619D01*
X91759095Y-108960857D01*
X91806714Y-109151333D01*
X91806714Y-109389428D01*
X91759095Y-109579904D01*
X91711476Y-109675142D01*
X91663857Y-109722761D01*
X91568619Y-109770380D01*
X91473380Y-109770380D01*
X91378142Y-109722761D01*
X91330523Y-109675142D01*
X91282904Y-109579904D01*
X91235285Y-109389428D01*
X91235285Y-109151333D01*
X91282904Y-108960857D01*
X91330523Y-108865619D01*
X91378142Y-108818000D01*
X91473380Y-108770380D01*
X92663857Y-108770380D02*
X92473380Y-108770380D01*
X92378142Y-108818000D01*
X92330523Y-108865619D01*
X92235285Y-109008476D01*
X92187666Y-109198952D01*
X92187666Y-109579904D01*
X92235285Y-109675142D01*
X92282904Y-109722761D01*
X92378142Y-109770380D01*
X92568619Y-109770380D01*
X92663857Y-109722761D01*
X92711476Y-109675142D01*
X92759095Y-109579904D01*
X92759095Y-109341809D01*
X92711476Y-109246571D01*
X92663857Y-109198952D01*
X92568619Y-109151333D01*
X92378142Y-109151333D01*
X92282904Y-109198952D01*
X92235285Y-109246571D01*
X92187666Y-109341809D01*
%TO.C,R301*%
X61348880Y-138080547D02*
X60872690Y-138413880D01*
X61348880Y-138651976D02*
X60348880Y-138651976D01*
X60348880Y-138271023D01*
X60396500Y-138175785D01*
X60444119Y-138128166D01*
X60539357Y-138080547D01*
X60682214Y-138080547D01*
X60777452Y-138128166D01*
X60825071Y-138175785D01*
X60872690Y-138271023D01*
X60872690Y-138651976D01*
X60348880Y-137747214D02*
X60348880Y-137128166D01*
X60729833Y-137461500D01*
X60729833Y-137318642D01*
X60777452Y-137223404D01*
X60825071Y-137175785D01*
X60920309Y-137128166D01*
X61158404Y-137128166D01*
X61253642Y-137175785D01*
X61301261Y-137223404D01*
X61348880Y-137318642D01*
X61348880Y-137604357D01*
X61301261Y-137699595D01*
X61253642Y-137747214D01*
X60348880Y-136509119D02*
X60348880Y-136413880D01*
X60396500Y-136318642D01*
X60444119Y-136271023D01*
X60539357Y-136223404D01*
X60729833Y-136175785D01*
X60967928Y-136175785D01*
X61158404Y-136223404D01*
X61253642Y-136271023D01*
X61301261Y-136318642D01*
X61348880Y-136413880D01*
X61348880Y-136509119D01*
X61301261Y-136604357D01*
X61253642Y-136651976D01*
X61158404Y-136699595D01*
X60967928Y-136747214D01*
X60729833Y-136747214D01*
X60539357Y-136699595D01*
X60444119Y-136651976D01*
X60396500Y-136604357D01*
X60348880Y-136509119D01*
X61348880Y-135223404D02*
X61348880Y-135794833D01*
X61348880Y-135509119D02*
X60348880Y-135509119D01*
X60491738Y-135604357D01*
X60586976Y-135699595D01*
X60634595Y-135794833D01*
%TO.C,R302*%
X62999880Y-138080547D02*
X62523690Y-138413880D01*
X62999880Y-138651976D02*
X61999880Y-138651976D01*
X61999880Y-138271023D01*
X62047500Y-138175785D01*
X62095119Y-138128166D01*
X62190357Y-138080547D01*
X62333214Y-138080547D01*
X62428452Y-138128166D01*
X62476071Y-138175785D01*
X62523690Y-138271023D01*
X62523690Y-138651976D01*
X61999880Y-137747214D02*
X61999880Y-137128166D01*
X62380833Y-137461500D01*
X62380833Y-137318642D01*
X62428452Y-137223404D01*
X62476071Y-137175785D01*
X62571309Y-137128166D01*
X62809404Y-137128166D01*
X62904642Y-137175785D01*
X62952261Y-137223404D01*
X62999880Y-137318642D01*
X62999880Y-137604357D01*
X62952261Y-137699595D01*
X62904642Y-137747214D01*
X61999880Y-136509119D02*
X61999880Y-136413880D01*
X62047500Y-136318642D01*
X62095119Y-136271023D01*
X62190357Y-136223404D01*
X62380833Y-136175785D01*
X62618928Y-136175785D01*
X62809404Y-136223404D01*
X62904642Y-136271023D01*
X62952261Y-136318642D01*
X62999880Y-136413880D01*
X62999880Y-136509119D01*
X62952261Y-136604357D01*
X62904642Y-136651976D01*
X62809404Y-136699595D01*
X62618928Y-136747214D01*
X62380833Y-136747214D01*
X62190357Y-136699595D01*
X62095119Y-136651976D01*
X62047500Y-136604357D01*
X61999880Y-136509119D01*
X62095119Y-135794833D02*
X62047500Y-135747214D01*
X61999880Y-135651976D01*
X61999880Y-135413880D01*
X62047500Y-135318642D01*
X62095119Y-135271023D01*
X62190357Y-135223404D01*
X62285595Y-135223404D01*
X62428452Y-135271023D01*
X62999880Y-135842452D01*
X62999880Y-135223404D01*
%TO.C,R303*%
X64777880Y-138080547D02*
X64301690Y-138413880D01*
X64777880Y-138651976D02*
X63777880Y-138651976D01*
X63777880Y-138271023D01*
X63825500Y-138175785D01*
X63873119Y-138128166D01*
X63968357Y-138080547D01*
X64111214Y-138080547D01*
X64206452Y-138128166D01*
X64254071Y-138175785D01*
X64301690Y-138271023D01*
X64301690Y-138651976D01*
X63777880Y-137747214D02*
X63777880Y-137128166D01*
X64158833Y-137461500D01*
X64158833Y-137318642D01*
X64206452Y-137223404D01*
X64254071Y-137175785D01*
X64349309Y-137128166D01*
X64587404Y-137128166D01*
X64682642Y-137175785D01*
X64730261Y-137223404D01*
X64777880Y-137318642D01*
X64777880Y-137604357D01*
X64730261Y-137699595D01*
X64682642Y-137747214D01*
X63777880Y-136509119D02*
X63777880Y-136413880D01*
X63825500Y-136318642D01*
X63873119Y-136271023D01*
X63968357Y-136223404D01*
X64158833Y-136175785D01*
X64396928Y-136175785D01*
X64587404Y-136223404D01*
X64682642Y-136271023D01*
X64730261Y-136318642D01*
X64777880Y-136413880D01*
X64777880Y-136509119D01*
X64730261Y-136604357D01*
X64682642Y-136651976D01*
X64587404Y-136699595D01*
X64396928Y-136747214D01*
X64158833Y-136747214D01*
X63968357Y-136699595D01*
X63873119Y-136651976D01*
X63825500Y-136604357D01*
X63777880Y-136509119D01*
X63777880Y-135842452D02*
X63777880Y-135223404D01*
X64158833Y-135556738D01*
X64158833Y-135413880D01*
X64206452Y-135318642D01*
X64254071Y-135271023D01*
X64349309Y-135223404D01*
X64587404Y-135223404D01*
X64682642Y-135271023D01*
X64730261Y-135318642D01*
X64777880Y-135413880D01*
X64777880Y-135699595D01*
X64730261Y-135794833D01*
X64682642Y-135842452D01*
%TO.C,R304*%
X70167380Y-109290047D02*
X69691190Y-109623380D01*
X70167380Y-109861476D02*
X69167380Y-109861476D01*
X69167380Y-109480523D01*
X69215000Y-109385285D01*
X69262619Y-109337666D01*
X69357857Y-109290047D01*
X69500714Y-109290047D01*
X69595952Y-109337666D01*
X69643571Y-109385285D01*
X69691190Y-109480523D01*
X69691190Y-109861476D01*
X69167380Y-108956714D02*
X69167380Y-108337666D01*
X69548333Y-108671000D01*
X69548333Y-108528142D01*
X69595952Y-108432904D01*
X69643571Y-108385285D01*
X69738809Y-108337666D01*
X69976904Y-108337666D01*
X70072142Y-108385285D01*
X70119761Y-108432904D01*
X70167380Y-108528142D01*
X70167380Y-108813857D01*
X70119761Y-108909095D01*
X70072142Y-108956714D01*
X69167380Y-107718619D02*
X69167380Y-107623380D01*
X69215000Y-107528142D01*
X69262619Y-107480523D01*
X69357857Y-107432904D01*
X69548333Y-107385285D01*
X69786428Y-107385285D01*
X69976904Y-107432904D01*
X70072142Y-107480523D01*
X70119761Y-107528142D01*
X70167380Y-107623380D01*
X70167380Y-107718619D01*
X70119761Y-107813857D01*
X70072142Y-107861476D01*
X69976904Y-107909095D01*
X69786428Y-107956714D01*
X69548333Y-107956714D01*
X69357857Y-107909095D01*
X69262619Y-107861476D01*
X69215000Y-107813857D01*
X69167380Y-107718619D01*
X69500714Y-106528142D02*
X70167380Y-106528142D01*
X69119761Y-106766238D02*
X69834047Y-107004333D01*
X69834047Y-106385285D01*
%TO.C,R305*%
X62809380Y-121634047D02*
X62333190Y-121967380D01*
X62809380Y-122205476D02*
X61809380Y-122205476D01*
X61809380Y-121824523D01*
X61857000Y-121729285D01*
X61904619Y-121681666D01*
X61999857Y-121634047D01*
X62142714Y-121634047D01*
X62237952Y-121681666D01*
X62285571Y-121729285D01*
X62333190Y-121824523D01*
X62333190Y-122205476D01*
X61809380Y-121300714D02*
X61809380Y-120681666D01*
X62190333Y-121015000D01*
X62190333Y-120872142D01*
X62237952Y-120776904D01*
X62285571Y-120729285D01*
X62380809Y-120681666D01*
X62618904Y-120681666D01*
X62714142Y-120729285D01*
X62761761Y-120776904D01*
X62809380Y-120872142D01*
X62809380Y-121157857D01*
X62761761Y-121253095D01*
X62714142Y-121300714D01*
X61809380Y-120062619D02*
X61809380Y-119967380D01*
X61857000Y-119872142D01*
X61904619Y-119824523D01*
X61999857Y-119776904D01*
X62190333Y-119729285D01*
X62428428Y-119729285D01*
X62618904Y-119776904D01*
X62714142Y-119824523D01*
X62761761Y-119872142D01*
X62809380Y-119967380D01*
X62809380Y-120062619D01*
X62761761Y-120157857D01*
X62714142Y-120205476D01*
X62618904Y-120253095D01*
X62428428Y-120300714D01*
X62190333Y-120300714D01*
X61999857Y-120253095D01*
X61904619Y-120205476D01*
X61857000Y-120157857D01*
X61809380Y-120062619D01*
X61809380Y-118824523D02*
X61809380Y-119300714D01*
X62285571Y-119348333D01*
X62237952Y-119300714D01*
X62190333Y-119205476D01*
X62190333Y-118967380D01*
X62237952Y-118872142D01*
X62285571Y-118824523D01*
X62380809Y-118776904D01*
X62618904Y-118776904D01*
X62714142Y-118824523D01*
X62761761Y-118872142D01*
X62809380Y-118967380D01*
X62809380Y-119205476D01*
X62761761Y-119300714D01*
X62714142Y-119348333D01*
%TO.C,R306*%
X61158380Y-121634047D02*
X60682190Y-121967380D01*
X61158380Y-122205476D02*
X60158380Y-122205476D01*
X60158380Y-121824523D01*
X60206000Y-121729285D01*
X60253619Y-121681666D01*
X60348857Y-121634047D01*
X60491714Y-121634047D01*
X60586952Y-121681666D01*
X60634571Y-121729285D01*
X60682190Y-121824523D01*
X60682190Y-122205476D01*
X60158380Y-121300714D02*
X60158380Y-120681666D01*
X60539333Y-121015000D01*
X60539333Y-120872142D01*
X60586952Y-120776904D01*
X60634571Y-120729285D01*
X60729809Y-120681666D01*
X60967904Y-120681666D01*
X61063142Y-120729285D01*
X61110761Y-120776904D01*
X61158380Y-120872142D01*
X61158380Y-121157857D01*
X61110761Y-121253095D01*
X61063142Y-121300714D01*
X60158380Y-120062619D02*
X60158380Y-119967380D01*
X60206000Y-119872142D01*
X60253619Y-119824523D01*
X60348857Y-119776904D01*
X60539333Y-119729285D01*
X60777428Y-119729285D01*
X60967904Y-119776904D01*
X61063142Y-119824523D01*
X61110761Y-119872142D01*
X61158380Y-119967380D01*
X61158380Y-120062619D01*
X61110761Y-120157857D01*
X61063142Y-120205476D01*
X60967904Y-120253095D01*
X60777428Y-120300714D01*
X60539333Y-120300714D01*
X60348857Y-120253095D01*
X60253619Y-120205476D01*
X60206000Y-120157857D01*
X60158380Y-120062619D01*
X60158380Y-118872142D02*
X60158380Y-119062619D01*
X60206000Y-119157857D01*
X60253619Y-119205476D01*
X60396476Y-119300714D01*
X60586952Y-119348333D01*
X60967904Y-119348333D01*
X61063142Y-119300714D01*
X61110761Y-119253095D01*
X61158380Y-119157857D01*
X61158380Y-118967380D01*
X61110761Y-118872142D01*
X61063142Y-118824523D01*
X60967904Y-118776904D01*
X60729809Y-118776904D01*
X60634571Y-118824523D01*
X60586952Y-118872142D01*
X60539333Y-118967380D01*
X60539333Y-119157857D01*
X60586952Y-119253095D01*
X60634571Y-119300714D01*
X60729809Y-119348333D01*
%TO.C,R307*%
X66581380Y-138123047D02*
X66105190Y-138456380D01*
X66581380Y-138694476D02*
X65581380Y-138694476D01*
X65581380Y-138313523D01*
X65629000Y-138218285D01*
X65676619Y-138170666D01*
X65771857Y-138123047D01*
X65914714Y-138123047D01*
X66009952Y-138170666D01*
X66057571Y-138218285D01*
X66105190Y-138313523D01*
X66105190Y-138694476D01*
X65581380Y-137789714D02*
X65581380Y-137170666D01*
X65962333Y-137504000D01*
X65962333Y-137361142D01*
X66009952Y-137265904D01*
X66057571Y-137218285D01*
X66152809Y-137170666D01*
X66390904Y-137170666D01*
X66486142Y-137218285D01*
X66533761Y-137265904D01*
X66581380Y-137361142D01*
X66581380Y-137646857D01*
X66533761Y-137742095D01*
X66486142Y-137789714D01*
X65581380Y-136551619D02*
X65581380Y-136456380D01*
X65629000Y-136361142D01*
X65676619Y-136313523D01*
X65771857Y-136265904D01*
X65962333Y-136218285D01*
X66200428Y-136218285D01*
X66390904Y-136265904D01*
X66486142Y-136313523D01*
X66533761Y-136361142D01*
X66581380Y-136456380D01*
X66581380Y-136551619D01*
X66533761Y-136646857D01*
X66486142Y-136694476D01*
X66390904Y-136742095D01*
X66200428Y-136789714D01*
X65962333Y-136789714D01*
X65771857Y-136742095D01*
X65676619Y-136694476D01*
X65629000Y-136646857D01*
X65581380Y-136551619D01*
X65581380Y-135884952D02*
X65581380Y-135218285D01*
X66581380Y-135646857D01*
%TO.C,R308*%
X64960380Y-120442547D02*
X64484190Y-120775880D01*
X64960380Y-121013976D02*
X63960380Y-121013976D01*
X63960380Y-120633023D01*
X64008000Y-120537785D01*
X64055619Y-120490166D01*
X64150857Y-120442547D01*
X64293714Y-120442547D01*
X64388952Y-120490166D01*
X64436571Y-120537785D01*
X64484190Y-120633023D01*
X64484190Y-121013976D01*
X63960380Y-120109214D02*
X63960380Y-119490166D01*
X64341333Y-119823500D01*
X64341333Y-119680642D01*
X64388952Y-119585404D01*
X64436571Y-119537785D01*
X64531809Y-119490166D01*
X64769904Y-119490166D01*
X64865142Y-119537785D01*
X64912761Y-119585404D01*
X64960380Y-119680642D01*
X64960380Y-119966357D01*
X64912761Y-120061595D01*
X64865142Y-120109214D01*
X63960380Y-118871119D02*
X63960380Y-118775880D01*
X64008000Y-118680642D01*
X64055619Y-118633023D01*
X64150857Y-118585404D01*
X64341333Y-118537785D01*
X64579428Y-118537785D01*
X64769904Y-118585404D01*
X64865142Y-118633023D01*
X64912761Y-118680642D01*
X64960380Y-118775880D01*
X64960380Y-118871119D01*
X64912761Y-118966357D01*
X64865142Y-119013976D01*
X64769904Y-119061595D01*
X64579428Y-119109214D01*
X64341333Y-119109214D01*
X64150857Y-119061595D01*
X64055619Y-119013976D01*
X64008000Y-118966357D01*
X63960380Y-118871119D01*
X64388952Y-117966357D02*
X64341333Y-118061595D01*
X64293714Y-118109214D01*
X64198476Y-118156833D01*
X64150857Y-118156833D01*
X64055619Y-118109214D01*
X64008000Y-118061595D01*
X63960380Y-117966357D01*
X63960380Y-117775880D01*
X64008000Y-117680642D01*
X64055619Y-117633023D01*
X64150857Y-117585404D01*
X64198476Y-117585404D01*
X64293714Y-117633023D01*
X64341333Y-117680642D01*
X64388952Y-117775880D01*
X64388952Y-117966357D01*
X64436571Y-118061595D01*
X64484190Y-118109214D01*
X64579428Y-118156833D01*
X64769904Y-118156833D01*
X64865142Y-118109214D01*
X64912761Y-118061595D01*
X64960380Y-117966357D01*
X64960380Y-117775880D01*
X64912761Y-117680642D01*
X64865142Y-117633023D01*
X64769904Y-117585404D01*
X64579428Y-117585404D01*
X64484190Y-117633023D01*
X64436571Y-117680642D01*
X64388952Y-117775880D01*
%TO.C,R309*%
X66611380Y-120442547D02*
X66135190Y-120775880D01*
X66611380Y-121013976D02*
X65611380Y-121013976D01*
X65611380Y-120633023D01*
X65659000Y-120537785D01*
X65706619Y-120490166D01*
X65801857Y-120442547D01*
X65944714Y-120442547D01*
X66039952Y-120490166D01*
X66087571Y-120537785D01*
X66135190Y-120633023D01*
X66135190Y-121013976D01*
X65611380Y-120109214D02*
X65611380Y-119490166D01*
X65992333Y-119823500D01*
X65992333Y-119680642D01*
X66039952Y-119585404D01*
X66087571Y-119537785D01*
X66182809Y-119490166D01*
X66420904Y-119490166D01*
X66516142Y-119537785D01*
X66563761Y-119585404D01*
X66611380Y-119680642D01*
X66611380Y-119966357D01*
X66563761Y-120061595D01*
X66516142Y-120109214D01*
X65611380Y-118871119D02*
X65611380Y-118775880D01*
X65659000Y-118680642D01*
X65706619Y-118633023D01*
X65801857Y-118585404D01*
X65992333Y-118537785D01*
X66230428Y-118537785D01*
X66420904Y-118585404D01*
X66516142Y-118633023D01*
X66563761Y-118680642D01*
X66611380Y-118775880D01*
X66611380Y-118871119D01*
X66563761Y-118966357D01*
X66516142Y-119013976D01*
X66420904Y-119061595D01*
X66230428Y-119109214D01*
X65992333Y-119109214D01*
X65801857Y-119061595D01*
X65706619Y-119013976D01*
X65659000Y-118966357D01*
X65611380Y-118871119D01*
X66611380Y-118061595D02*
X66611380Y-117871119D01*
X66563761Y-117775880D01*
X66516142Y-117728261D01*
X66373285Y-117633023D01*
X66182809Y-117585404D01*
X65801857Y-117585404D01*
X65706619Y-117633023D01*
X65659000Y-117680642D01*
X65611380Y-117775880D01*
X65611380Y-117966357D01*
X65659000Y-118061595D01*
X65706619Y-118109214D01*
X65801857Y-118156833D01*
X66039952Y-118156833D01*
X66135190Y-118109214D01*
X66182809Y-118061595D01*
X66230428Y-117966357D01*
X66230428Y-117775880D01*
X66182809Y-117680642D01*
X66135190Y-117633023D01*
X66039952Y-117585404D01*
%TO.C,R310*%
X59507380Y-121634047D02*
X59031190Y-121967380D01*
X59507380Y-122205476D02*
X58507380Y-122205476D01*
X58507380Y-121824523D01*
X58555000Y-121729285D01*
X58602619Y-121681666D01*
X58697857Y-121634047D01*
X58840714Y-121634047D01*
X58935952Y-121681666D01*
X58983571Y-121729285D01*
X59031190Y-121824523D01*
X59031190Y-122205476D01*
X58507380Y-121300714D02*
X58507380Y-120681666D01*
X58888333Y-121015000D01*
X58888333Y-120872142D01*
X58935952Y-120776904D01*
X58983571Y-120729285D01*
X59078809Y-120681666D01*
X59316904Y-120681666D01*
X59412142Y-120729285D01*
X59459761Y-120776904D01*
X59507380Y-120872142D01*
X59507380Y-121157857D01*
X59459761Y-121253095D01*
X59412142Y-121300714D01*
X59507380Y-119729285D02*
X59507380Y-120300714D01*
X59507380Y-120015000D02*
X58507380Y-120015000D01*
X58650238Y-120110238D01*
X58745476Y-120205476D01*
X58793095Y-120300714D01*
X58507380Y-119110238D02*
X58507380Y-119015000D01*
X58555000Y-118919761D01*
X58602619Y-118872142D01*
X58697857Y-118824523D01*
X58888333Y-118776904D01*
X59126428Y-118776904D01*
X59316904Y-118824523D01*
X59412142Y-118872142D01*
X59459761Y-118919761D01*
X59507380Y-119015000D01*
X59507380Y-119110238D01*
X59459761Y-119205476D01*
X59412142Y-119253095D01*
X59316904Y-119300714D01*
X59126428Y-119348333D01*
X58888333Y-119348333D01*
X58697857Y-119300714D01*
X58602619Y-119253095D01*
X58555000Y-119205476D01*
X58507380Y-119110238D01*
%TO.C,R311*%
X57856380Y-121634047D02*
X57380190Y-121967380D01*
X57856380Y-122205476D02*
X56856380Y-122205476D01*
X56856380Y-121824523D01*
X56904000Y-121729285D01*
X56951619Y-121681666D01*
X57046857Y-121634047D01*
X57189714Y-121634047D01*
X57284952Y-121681666D01*
X57332571Y-121729285D01*
X57380190Y-121824523D01*
X57380190Y-122205476D01*
X56856380Y-121300714D02*
X56856380Y-120681666D01*
X57237333Y-121015000D01*
X57237333Y-120872142D01*
X57284952Y-120776904D01*
X57332571Y-120729285D01*
X57427809Y-120681666D01*
X57665904Y-120681666D01*
X57761142Y-120729285D01*
X57808761Y-120776904D01*
X57856380Y-120872142D01*
X57856380Y-121157857D01*
X57808761Y-121253095D01*
X57761142Y-121300714D01*
X57856380Y-119729285D02*
X57856380Y-120300714D01*
X57856380Y-120015000D02*
X56856380Y-120015000D01*
X56999238Y-120110238D01*
X57094476Y-120205476D01*
X57142095Y-120300714D01*
X57856380Y-118776904D02*
X57856380Y-119348333D01*
X57856380Y-119062619D02*
X56856380Y-119062619D01*
X56999238Y-119157857D01*
X57094476Y-119253095D01*
X57142095Y-119348333D01*
%TO.C,R312*%
X83167380Y-109290047D02*
X82691190Y-109623380D01*
X83167380Y-109861476D02*
X82167380Y-109861476D01*
X82167380Y-109480523D01*
X82215000Y-109385285D01*
X82262619Y-109337666D01*
X82357857Y-109290047D01*
X82500714Y-109290047D01*
X82595952Y-109337666D01*
X82643571Y-109385285D01*
X82691190Y-109480523D01*
X82691190Y-109861476D01*
X82167380Y-108956714D02*
X82167380Y-108337666D01*
X82548333Y-108671000D01*
X82548333Y-108528142D01*
X82595952Y-108432904D01*
X82643571Y-108385285D01*
X82738809Y-108337666D01*
X82976904Y-108337666D01*
X83072142Y-108385285D01*
X83119761Y-108432904D01*
X83167380Y-108528142D01*
X83167380Y-108813857D01*
X83119761Y-108909095D01*
X83072142Y-108956714D01*
X83167380Y-107385285D02*
X83167380Y-107956714D01*
X83167380Y-107671000D02*
X82167380Y-107671000D01*
X82310238Y-107766238D01*
X82405476Y-107861476D01*
X82453095Y-107956714D01*
X82262619Y-107004333D02*
X82215000Y-106956714D01*
X82167380Y-106861476D01*
X82167380Y-106623380D01*
X82215000Y-106528142D01*
X82262619Y-106480523D01*
X82357857Y-106432904D01*
X82453095Y-106432904D01*
X82595952Y-106480523D01*
X83167380Y-107051952D01*
X83167380Y-106432904D01*
%TO.C,R313*%
X89349880Y-138140047D02*
X88873690Y-138473380D01*
X89349880Y-138711476D02*
X88349880Y-138711476D01*
X88349880Y-138330523D01*
X88397500Y-138235285D01*
X88445119Y-138187666D01*
X88540357Y-138140047D01*
X88683214Y-138140047D01*
X88778452Y-138187666D01*
X88826071Y-138235285D01*
X88873690Y-138330523D01*
X88873690Y-138711476D01*
X88349880Y-137806714D02*
X88349880Y-137187666D01*
X88730833Y-137521000D01*
X88730833Y-137378142D01*
X88778452Y-137282904D01*
X88826071Y-137235285D01*
X88921309Y-137187666D01*
X89159404Y-137187666D01*
X89254642Y-137235285D01*
X89302261Y-137282904D01*
X89349880Y-137378142D01*
X89349880Y-137663857D01*
X89302261Y-137759095D01*
X89254642Y-137806714D01*
X89349880Y-136235285D02*
X89349880Y-136806714D01*
X89349880Y-136521000D02*
X88349880Y-136521000D01*
X88492738Y-136616238D01*
X88587976Y-136711476D01*
X88635595Y-136806714D01*
X88349880Y-135901952D02*
X88349880Y-135282904D01*
X88730833Y-135616238D01*
X88730833Y-135473380D01*
X88778452Y-135378142D01*
X88826071Y-135330523D01*
X88921309Y-135282904D01*
X89159404Y-135282904D01*
X89254642Y-135330523D01*
X89302261Y-135378142D01*
X89349880Y-135473380D01*
X89349880Y-135759095D01*
X89302261Y-135854333D01*
X89254642Y-135901952D01*
%TO.C,R314*%
X84206380Y-138203547D02*
X83730190Y-138536880D01*
X84206380Y-138774976D02*
X83206380Y-138774976D01*
X83206380Y-138394023D01*
X83254000Y-138298785D01*
X83301619Y-138251166D01*
X83396857Y-138203547D01*
X83539714Y-138203547D01*
X83634952Y-138251166D01*
X83682571Y-138298785D01*
X83730190Y-138394023D01*
X83730190Y-138774976D01*
X83206380Y-137870214D02*
X83206380Y-137251166D01*
X83587333Y-137584500D01*
X83587333Y-137441642D01*
X83634952Y-137346404D01*
X83682571Y-137298785D01*
X83777809Y-137251166D01*
X84015904Y-137251166D01*
X84111142Y-137298785D01*
X84158761Y-137346404D01*
X84206380Y-137441642D01*
X84206380Y-137727357D01*
X84158761Y-137822595D01*
X84111142Y-137870214D01*
X84206380Y-136298785D02*
X84206380Y-136870214D01*
X84206380Y-136584500D02*
X83206380Y-136584500D01*
X83349238Y-136679738D01*
X83444476Y-136774976D01*
X83492095Y-136870214D01*
X83539714Y-135441642D02*
X84206380Y-135441642D01*
X83158761Y-135679738D02*
X83873047Y-135917833D01*
X83873047Y-135298785D01*
%TO.C,R315*%
X85920880Y-138140047D02*
X85444690Y-138473380D01*
X85920880Y-138711476D02*
X84920880Y-138711476D01*
X84920880Y-138330523D01*
X84968500Y-138235285D01*
X85016119Y-138187666D01*
X85111357Y-138140047D01*
X85254214Y-138140047D01*
X85349452Y-138187666D01*
X85397071Y-138235285D01*
X85444690Y-138330523D01*
X85444690Y-138711476D01*
X84920880Y-137806714D02*
X84920880Y-137187666D01*
X85301833Y-137521000D01*
X85301833Y-137378142D01*
X85349452Y-137282904D01*
X85397071Y-137235285D01*
X85492309Y-137187666D01*
X85730404Y-137187666D01*
X85825642Y-137235285D01*
X85873261Y-137282904D01*
X85920880Y-137378142D01*
X85920880Y-137663857D01*
X85873261Y-137759095D01*
X85825642Y-137806714D01*
X85920880Y-136235285D02*
X85920880Y-136806714D01*
X85920880Y-136521000D02*
X84920880Y-136521000D01*
X85063738Y-136616238D01*
X85158976Y-136711476D01*
X85206595Y-136806714D01*
X84920880Y-135330523D02*
X84920880Y-135806714D01*
X85397071Y-135854333D01*
X85349452Y-135806714D01*
X85301833Y-135711476D01*
X85301833Y-135473380D01*
X85349452Y-135378142D01*
X85397071Y-135330523D01*
X85492309Y-135282904D01*
X85730404Y-135282904D01*
X85825642Y-135330523D01*
X85873261Y-135378142D01*
X85920880Y-135473380D01*
X85920880Y-135711476D01*
X85873261Y-135806714D01*
X85825642Y-135854333D01*
%TO.C,R316*%
X79611380Y-120442547D02*
X79135190Y-120775880D01*
X79611380Y-121013976D02*
X78611380Y-121013976D01*
X78611380Y-120633023D01*
X78659000Y-120537785D01*
X78706619Y-120490166D01*
X78801857Y-120442547D01*
X78944714Y-120442547D01*
X79039952Y-120490166D01*
X79087571Y-120537785D01*
X79135190Y-120633023D01*
X79135190Y-121013976D01*
X78611380Y-120109214D02*
X78611380Y-119490166D01*
X78992333Y-119823500D01*
X78992333Y-119680642D01*
X79039952Y-119585404D01*
X79087571Y-119537785D01*
X79182809Y-119490166D01*
X79420904Y-119490166D01*
X79516142Y-119537785D01*
X79563761Y-119585404D01*
X79611380Y-119680642D01*
X79611380Y-119966357D01*
X79563761Y-120061595D01*
X79516142Y-120109214D01*
X79611380Y-118537785D02*
X79611380Y-119109214D01*
X79611380Y-118823500D02*
X78611380Y-118823500D01*
X78754238Y-118918738D01*
X78849476Y-119013976D01*
X78897095Y-119109214D01*
X78611380Y-117680642D02*
X78611380Y-117871119D01*
X78659000Y-117966357D01*
X78706619Y-118013976D01*
X78849476Y-118109214D01*
X79039952Y-118156833D01*
X79420904Y-118156833D01*
X79516142Y-118109214D01*
X79563761Y-118061595D01*
X79611380Y-117966357D01*
X79611380Y-117775880D01*
X79563761Y-117680642D01*
X79516142Y-117633023D01*
X79420904Y-117585404D01*
X79182809Y-117585404D01*
X79087571Y-117633023D01*
X79039952Y-117680642D01*
X78992333Y-117775880D01*
X78992333Y-117966357D01*
X79039952Y-118061595D01*
X79087571Y-118109214D01*
X79182809Y-118156833D01*
%TO.C,R317*%
X77960380Y-120442547D02*
X77484190Y-120775880D01*
X77960380Y-121013976D02*
X76960380Y-121013976D01*
X76960380Y-120633023D01*
X77008000Y-120537785D01*
X77055619Y-120490166D01*
X77150857Y-120442547D01*
X77293714Y-120442547D01*
X77388952Y-120490166D01*
X77436571Y-120537785D01*
X77484190Y-120633023D01*
X77484190Y-121013976D01*
X76960380Y-120109214D02*
X76960380Y-119490166D01*
X77341333Y-119823500D01*
X77341333Y-119680642D01*
X77388952Y-119585404D01*
X77436571Y-119537785D01*
X77531809Y-119490166D01*
X77769904Y-119490166D01*
X77865142Y-119537785D01*
X77912761Y-119585404D01*
X77960380Y-119680642D01*
X77960380Y-119966357D01*
X77912761Y-120061595D01*
X77865142Y-120109214D01*
X77960380Y-118537785D02*
X77960380Y-119109214D01*
X77960380Y-118823500D02*
X76960380Y-118823500D01*
X77103238Y-118918738D01*
X77198476Y-119013976D01*
X77246095Y-119109214D01*
X76960380Y-118204452D02*
X76960380Y-117537785D01*
X77960380Y-117966357D01*
%TO.C,R318*%
X81348880Y-138140047D02*
X80872690Y-138473380D01*
X81348880Y-138711476D02*
X80348880Y-138711476D01*
X80348880Y-138330523D01*
X80396500Y-138235285D01*
X80444119Y-138187666D01*
X80539357Y-138140047D01*
X80682214Y-138140047D01*
X80777452Y-138187666D01*
X80825071Y-138235285D01*
X80872690Y-138330523D01*
X80872690Y-138711476D01*
X80348880Y-137806714D02*
X80348880Y-137187666D01*
X80729833Y-137521000D01*
X80729833Y-137378142D01*
X80777452Y-137282904D01*
X80825071Y-137235285D01*
X80920309Y-137187666D01*
X81158404Y-137187666D01*
X81253642Y-137235285D01*
X81301261Y-137282904D01*
X81348880Y-137378142D01*
X81348880Y-137663857D01*
X81301261Y-137759095D01*
X81253642Y-137806714D01*
X81348880Y-136235285D02*
X81348880Y-136806714D01*
X81348880Y-136521000D02*
X80348880Y-136521000D01*
X80491738Y-136616238D01*
X80586976Y-136711476D01*
X80634595Y-136806714D01*
X80777452Y-135663857D02*
X80729833Y-135759095D01*
X80682214Y-135806714D01*
X80586976Y-135854333D01*
X80539357Y-135854333D01*
X80444119Y-135806714D01*
X80396500Y-135759095D01*
X80348880Y-135663857D01*
X80348880Y-135473380D01*
X80396500Y-135378142D01*
X80444119Y-135330523D01*
X80539357Y-135282904D01*
X80586976Y-135282904D01*
X80682214Y-135330523D01*
X80729833Y-135378142D01*
X80777452Y-135473380D01*
X80777452Y-135663857D01*
X80825071Y-135759095D01*
X80872690Y-135806714D01*
X80967928Y-135854333D01*
X81158404Y-135854333D01*
X81253642Y-135806714D01*
X81301261Y-135759095D01*
X81348880Y-135663857D01*
X81348880Y-135473380D01*
X81301261Y-135378142D01*
X81253642Y-135330523D01*
X81158404Y-135282904D01*
X80967928Y-135282904D01*
X80872690Y-135330523D01*
X80825071Y-135378142D01*
X80777452Y-135473380D01*
%TO.C,R319*%
X79697880Y-126964047D02*
X79221690Y-127297380D01*
X79697880Y-127535476D02*
X78697880Y-127535476D01*
X78697880Y-127154523D01*
X78745500Y-127059285D01*
X78793119Y-127011666D01*
X78888357Y-126964047D01*
X79031214Y-126964047D01*
X79126452Y-127011666D01*
X79174071Y-127059285D01*
X79221690Y-127154523D01*
X79221690Y-127535476D01*
X78697880Y-126630714D02*
X78697880Y-126011666D01*
X79078833Y-126345000D01*
X79078833Y-126202142D01*
X79126452Y-126106904D01*
X79174071Y-126059285D01*
X79269309Y-126011666D01*
X79507404Y-126011666D01*
X79602642Y-126059285D01*
X79650261Y-126106904D01*
X79697880Y-126202142D01*
X79697880Y-126487857D01*
X79650261Y-126583095D01*
X79602642Y-126630714D01*
X79697880Y-125059285D02*
X79697880Y-125630714D01*
X79697880Y-125345000D02*
X78697880Y-125345000D01*
X78840738Y-125440238D01*
X78935976Y-125535476D01*
X78983595Y-125630714D01*
X79697880Y-124583095D02*
X79697880Y-124392619D01*
X79650261Y-124297380D01*
X79602642Y-124249761D01*
X79459785Y-124154523D01*
X79269309Y-124106904D01*
X78888357Y-124106904D01*
X78793119Y-124154523D01*
X78745500Y-124202142D01*
X78697880Y-124297380D01*
X78697880Y-124487857D01*
X78745500Y-124583095D01*
X78793119Y-124630714D01*
X78888357Y-124678333D01*
X79126452Y-124678333D01*
X79221690Y-124630714D01*
X79269309Y-124583095D01*
X79316928Y-124487857D01*
X79316928Y-124297380D01*
X79269309Y-124202142D01*
X79221690Y-124154523D01*
X79126452Y-124106904D01*
%TO.C,R320*%
X81348880Y-126964047D02*
X80872690Y-127297380D01*
X81348880Y-127535476D02*
X80348880Y-127535476D01*
X80348880Y-127154523D01*
X80396500Y-127059285D01*
X80444119Y-127011666D01*
X80539357Y-126964047D01*
X80682214Y-126964047D01*
X80777452Y-127011666D01*
X80825071Y-127059285D01*
X80872690Y-127154523D01*
X80872690Y-127535476D01*
X80348880Y-126630714D02*
X80348880Y-126011666D01*
X80729833Y-126345000D01*
X80729833Y-126202142D01*
X80777452Y-126106904D01*
X80825071Y-126059285D01*
X80920309Y-126011666D01*
X81158404Y-126011666D01*
X81253642Y-126059285D01*
X81301261Y-126106904D01*
X81348880Y-126202142D01*
X81348880Y-126487857D01*
X81301261Y-126583095D01*
X81253642Y-126630714D01*
X80444119Y-125630714D02*
X80396500Y-125583095D01*
X80348880Y-125487857D01*
X80348880Y-125249761D01*
X80396500Y-125154523D01*
X80444119Y-125106904D01*
X80539357Y-125059285D01*
X80634595Y-125059285D01*
X80777452Y-125106904D01*
X81348880Y-125678333D01*
X81348880Y-125059285D01*
X80348880Y-124440238D02*
X80348880Y-124345000D01*
X80396500Y-124249761D01*
X80444119Y-124202142D01*
X80539357Y-124154523D01*
X80729833Y-124106904D01*
X80967928Y-124106904D01*
X81158404Y-124154523D01*
X81253642Y-124202142D01*
X81301261Y-124249761D01*
X81348880Y-124345000D01*
X81348880Y-124440238D01*
X81301261Y-124535476D01*
X81253642Y-124583095D01*
X81158404Y-124630714D01*
X80967928Y-124678333D01*
X80729833Y-124678333D01*
X80539357Y-124630714D01*
X80444119Y-124583095D01*
X80396500Y-124535476D01*
X80348880Y-124440238D01*
%TO.C,R403*%
X89901952Y-121581380D02*
X89568619Y-121105190D01*
X89330523Y-121581380D02*
X89330523Y-120581380D01*
X89711476Y-120581380D01*
X89806714Y-120629000D01*
X89854333Y-120676619D01*
X89901952Y-120771857D01*
X89901952Y-120914714D01*
X89854333Y-121009952D01*
X89806714Y-121057571D01*
X89711476Y-121105190D01*
X89330523Y-121105190D01*
X90759095Y-120914714D02*
X90759095Y-121581380D01*
X90521000Y-120533761D02*
X90282904Y-121248047D01*
X90901952Y-121248047D01*
X91473380Y-120581380D02*
X91568619Y-120581380D01*
X91663857Y-120629000D01*
X91711476Y-120676619D01*
X91759095Y-120771857D01*
X91806714Y-120962333D01*
X91806714Y-121200428D01*
X91759095Y-121390904D01*
X91711476Y-121486142D01*
X91663857Y-121533761D01*
X91568619Y-121581380D01*
X91473380Y-121581380D01*
X91378142Y-121533761D01*
X91330523Y-121486142D01*
X91282904Y-121390904D01*
X91235285Y-121200428D01*
X91235285Y-120962333D01*
X91282904Y-120771857D01*
X91330523Y-120676619D01*
X91378142Y-120629000D01*
X91473380Y-120581380D01*
X92140047Y-120581380D02*
X92759095Y-120581380D01*
X92425761Y-120962333D01*
X92568619Y-120962333D01*
X92663857Y-121009952D01*
X92711476Y-121057571D01*
X92759095Y-121152809D01*
X92759095Y-121390904D01*
X92711476Y-121486142D01*
X92663857Y-121533761D01*
X92568619Y-121581380D01*
X92282904Y-121581380D01*
X92187666Y-121533761D01*
X92140047Y-121486142D01*
%TO.C,R404*%
X102855952Y-137710380D02*
X102522619Y-137234190D01*
X102284523Y-137710380D02*
X102284523Y-136710380D01*
X102665476Y-136710380D01*
X102760714Y-136758000D01*
X102808333Y-136805619D01*
X102855952Y-136900857D01*
X102855952Y-137043714D01*
X102808333Y-137138952D01*
X102760714Y-137186571D01*
X102665476Y-137234190D01*
X102284523Y-137234190D01*
X103713095Y-137043714D02*
X103713095Y-137710380D01*
X103475000Y-136662761D02*
X103236904Y-137377047D01*
X103855952Y-137377047D01*
X104427380Y-136710380D02*
X104522619Y-136710380D01*
X104617857Y-136758000D01*
X104665476Y-136805619D01*
X104713095Y-136900857D01*
X104760714Y-137091333D01*
X104760714Y-137329428D01*
X104713095Y-137519904D01*
X104665476Y-137615142D01*
X104617857Y-137662761D01*
X104522619Y-137710380D01*
X104427380Y-137710380D01*
X104332142Y-137662761D01*
X104284523Y-137615142D01*
X104236904Y-137519904D01*
X104189285Y-137329428D01*
X104189285Y-137091333D01*
X104236904Y-136900857D01*
X104284523Y-136805619D01*
X104332142Y-136758000D01*
X104427380Y-136710380D01*
X105617857Y-137043714D02*
X105617857Y-137710380D01*
X105379761Y-136662761D02*
X105141666Y-137377047D01*
X105760714Y-137377047D01*
%TO.C,R405*%
X102855952Y-135932380D02*
X102522619Y-135456190D01*
X102284523Y-135932380D02*
X102284523Y-134932380D01*
X102665476Y-134932380D01*
X102760714Y-134980000D01*
X102808333Y-135027619D01*
X102855952Y-135122857D01*
X102855952Y-135265714D01*
X102808333Y-135360952D01*
X102760714Y-135408571D01*
X102665476Y-135456190D01*
X102284523Y-135456190D01*
X103713095Y-135265714D02*
X103713095Y-135932380D01*
X103475000Y-134884761D02*
X103236904Y-135599047D01*
X103855952Y-135599047D01*
X104427380Y-134932380D02*
X104522619Y-134932380D01*
X104617857Y-134980000D01*
X104665476Y-135027619D01*
X104713095Y-135122857D01*
X104760714Y-135313333D01*
X104760714Y-135551428D01*
X104713095Y-135741904D01*
X104665476Y-135837142D01*
X104617857Y-135884761D01*
X104522619Y-135932380D01*
X104427380Y-135932380D01*
X104332142Y-135884761D01*
X104284523Y-135837142D01*
X104236904Y-135741904D01*
X104189285Y-135551428D01*
X104189285Y-135313333D01*
X104236904Y-135122857D01*
X104284523Y-135027619D01*
X104332142Y-134980000D01*
X104427380Y-134932380D01*
X105665476Y-134932380D02*
X105189285Y-134932380D01*
X105141666Y-135408571D01*
X105189285Y-135360952D01*
X105284523Y-135313333D01*
X105522619Y-135313333D01*
X105617857Y-135360952D01*
X105665476Y-135408571D01*
X105713095Y-135503809D01*
X105713095Y-135741904D01*
X105665476Y-135837142D01*
X105617857Y-135884761D01*
X105522619Y-135932380D01*
X105284523Y-135932380D01*
X105189285Y-135884761D01*
X105141666Y-135837142D01*
%TO.C,SW301*%
X54377261Y-124785714D02*
X54424880Y-124642857D01*
X54424880Y-124404761D01*
X54377261Y-124309523D01*
X54329642Y-124261904D01*
X54234404Y-124214285D01*
X54139166Y-124214285D01*
X54043928Y-124261904D01*
X53996309Y-124309523D01*
X53948690Y-124404761D01*
X53901071Y-124595238D01*
X53853452Y-124690476D01*
X53805833Y-124738095D01*
X53710595Y-124785714D01*
X53615357Y-124785714D01*
X53520119Y-124738095D01*
X53472500Y-124690476D01*
X53424880Y-124595238D01*
X53424880Y-124357142D01*
X53472500Y-124214285D01*
X53424880Y-123880952D02*
X54424880Y-123642857D01*
X53710595Y-123452380D01*
X54424880Y-123261904D01*
X53424880Y-123023809D01*
X53424880Y-122738095D02*
X53424880Y-122119047D01*
X53805833Y-122452380D01*
X53805833Y-122309523D01*
X53853452Y-122214285D01*
X53901071Y-122166666D01*
X53996309Y-122119047D01*
X54234404Y-122119047D01*
X54329642Y-122166666D01*
X54377261Y-122214285D01*
X54424880Y-122309523D01*
X54424880Y-122595238D01*
X54377261Y-122690476D01*
X54329642Y-122738095D01*
X53424880Y-121500000D02*
X53424880Y-121404761D01*
X53472500Y-121309523D01*
X53520119Y-121261904D01*
X53615357Y-121214285D01*
X53805833Y-121166666D01*
X54043928Y-121166666D01*
X54234404Y-121214285D01*
X54329642Y-121261904D01*
X54377261Y-121309523D01*
X54424880Y-121404761D01*
X54424880Y-121500000D01*
X54377261Y-121595238D01*
X54329642Y-121642857D01*
X54234404Y-121690476D01*
X54043928Y-121738095D01*
X53805833Y-121738095D01*
X53615357Y-121690476D01*
X53520119Y-121642857D01*
X53472500Y-121595238D01*
X53424880Y-121500000D01*
X54424880Y-120214285D02*
X54424880Y-120785714D01*
X54424880Y-120500000D02*
X53424880Y-120500000D01*
X53567738Y-120595238D01*
X53662976Y-120690476D01*
X53710595Y-120785714D01*
%TO.C,TP301*%
X65746380Y-129142785D02*
X65746380Y-128571357D01*
X66746380Y-128857071D02*
X65746380Y-128857071D01*
X66746380Y-128238023D02*
X65746380Y-128238023D01*
X65746380Y-127857071D01*
X65794000Y-127761833D01*
X65841619Y-127714214D01*
X65936857Y-127666595D01*
X66079714Y-127666595D01*
X66174952Y-127714214D01*
X66222571Y-127761833D01*
X66270190Y-127857071D01*
X66270190Y-128238023D01*
X65746380Y-127333261D02*
X65746380Y-126714214D01*
X66127333Y-127047547D01*
X66127333Y-126904690D01*
X66174952Y-126809452D01*
X66222571Y-126761833D01*
X66317809Y-126714214D01*
X66555904Y-126714214D01*
X66651142Y-126761833D01*
X66698761Y-126809452D01*
X66746380Y-126904690D01*
X66746380Y-127190404D01*
X66698761Y-127285642D01*
X66651142Y-127333261D01*
X65746380Y-126095166D02*
X65746380Y-125999928D01*
X65794000Y-125904690D01*
X65841619Y-125857071D01*
X65936857Y-125809452D01*
X66127333Y-125761833D01*
X66365428Y-125761833D01*
X66555904Y-125809452D01*
X66651142Y-125857071D01*
X66698761Y-125904690D01*
X66746380Y-125999928D01*
X66746380Y-126095166D01*
X66698761Y-126190404D01*
X66651142Y-126238023D01*
X66555904Y-126285642D01*
X66365428Y-126333261D01*
X66127333Y-126333261D01*
X65936857Y-126285642D01*
X65841619Y-126238023D01*
X65794000Y-126190404D01*
X65746380Y-126095166D01*
X66746380Y-124809452D02*
X66746380Y-125380880D01*
X66746380Y-125095166D02*
X65746380Y-125095166D01*
X65889238Y-125190404D01*
X65984476Y-125285642D01*
X66032095Y-125380880D01*
%TO.C,TP302*%
X70064380Y-129142785D02*
X70064380Y-128571357D01*
X71064380Y-128857071D02*
X70064380Y-128857071D01*
X71064380Y-128238023D02*
X70064380Y-128238023D01*
X70064380Y-127857071D01*
X70112000Y-127761833D01*
X70159619Y-127714214D01*
X70254857Y-127666595D01*
X70397714Y-127666595D01*
X70492952Y-127714214D01*
X70540571Y-127761833D01*
X70588190Y-127857071D01*
X70588190Y-128238023D01*
X70064380Y-127333261D02*
X70064380Y-126714214D01*
X70445333Y-127047547D01*
X70445333Y-126904690D01*
X70492952Y-126809452D01*
X70540571Y-126761833D01*
X70635809Y-126714214D01*
X70873904Y-126714214D01*
X70969142Y-126761833D01*
X71016761Y-126809452D01*
X71064380Y-126904690D01*
X71064380Y-127190404D01*
X71016761Y-127285642D01*
X70969142Y-127333261D01*
X70064380Y-126095166D02*
X70064380Y-125999928D01*
X70112000Y-125904690D01*
X70159619Y-125857071D01*
X70254857Y-125809452D01*
X70445333Y-125761833D01*
X70683428Y-125761833D01*
X70873904Y-125809452D01*
X70969142Y-125857071D01*
X71016761Y-125904690D01*
X71064380Y-125999928D01*
X71064380Y-126095166D01*
X71016761Y-126190404D01*
X70969142Y-126238023D01*
X70873904Y-126285642D01*
X70683428Y-126333261D01*
X70445333Y-126333261D01*
X70254857Y-126285642D01*
X70159619Y-126238023D01*
X70112000Y-126190404D01*
X70064380Y-126095166D01*
X70159619Y-125380880D02*
X70112000Y-125333261D01*
X70064380Y-125238023D01*
X70064380Y-124999928D01*
X70112000Y-124904690D01*
X70159619Y-124857071D01*
X70254857Y-124809452D01*
X70350095Y-124809452D01*
X70492952Y-124857071D01*
X71064380Y-125428500D01*
X71064380Y-124809452D01*
%TO.C,TP303*%
X67905380Y-129142785D02*
X67905380Y-128571357D01*
X68905380Y-128857071D02*
X67905380Y-128857071D01*
X68905380Y-128238023D02*
X67905380Y-128238023D01*
X67905380Y-127857071D01*
X67953000Y-127761833D01*
X68000619Y-127714214D01*
X68095857Y-127666595D01*
X68238714Y-127666595D01*
X68333952Y-127714214D01*
X68381571Y-127761833D01*
X68429190Y-127857071D01*
X68429190Y-128238023D01*
X67905380Y-127333261D02*
X67905380Y-126714214D01*
X68286333Y-127047547D01*
X68286333Y-126904690D01*
X68333952Y-126809452D01*
X68381571Y-126761833D01*
X68476809Y-126714214D01*
X68714904Y-126714214D01*
X68810142Y-126761833D01*
X68857761Y-126809452D01*
X68905380Y-126904690D01*
X68905380Y-127190404D01*
X68857761Y-127285642D01*
X68810142Y-127333261D01*
X67905380Y-126095166D02*
X67905380Y-125999928D01*
X67953000Y-125904690D01*
X68000619Y-125857071D01*
X68095857Y-125809452D01*
X68286333Y-125761833D01*
X68524428Y-125761833D01*
X68714904Y-125809452D01*
X68810142Y-125857071D01*
X68857761Y-125904690D01*
X68905380Y-125999928D01*
X68905380Y-126095166D01*
X68857761Y-126190404D01*
X68810142Y-126238023D01*
X68714904Y-126285642D01*
X68524428Y-126333261D01*
X68286333Y-126333261D01*
X68095857Y-126285642D01*
X68000619Y-126238023D01*
X67953000Y-126190404D01*
X67905380Y-126095166D01*
X67905380Y-125428500D02*
X67905380Y-124809452D01*
X68286333Y-125142785D01*
X68286333Y-124999928D01*
X68333952Y-124904690D01*
X68381571Y-124857071D01*
X68476809Y-124809452D01*
X68714904Y-124809452D01*
X68810142Y-124857071D01*
X68857761Y-124904690D01*
X68905380Y-124999928D01*
X68905380Y-125285642D01*
X68857761Y-125380880D01*
X68810142Y-125428500D01*
%TO.C,TP304*%
X67135380Y-111335285D02*
X67135380Y-110763857D01*
X68135380Y-111049571D02*
X67135380Y-111049571D01*
X68135380Y-110430523D02*
X67135380Y-110430523D01*
X67135380Y-110049571D01*
X67183000Y-109954333D01*
X67230619Y-109906714D01*
X67325857Y-109859095D01*
X67468714Y-109859095D01*
X67563952Y-109906714D01*
X67611571Y-109954333D01*
X67659190Y-110049571D01*
X67659190Y-110430523D01*
X67135380Y-109525761D02*
X67135380Y-108906714D01*
X67516333Y-109240047D01*
X67516333Y-109097190D01*
X67563952Y-109001952D01*
X67611571Y-108954333D01*
X67706809Y-108906714D01*
X67944904Y-108906714D01*
X68040142Y-108954333D01*
X68087761Y-109001952D01*
X68135380Y-109097190D01*
X68135380Y-109382904D01*
X68087761Y-109478142D01*
X68040142Y-109525761D01*
X67135380Y-108287666D02*
X67135380Y-108192428D01*
X67183000Y-108097190D01*
X67230619Y-108049571D01*
X67325857Y-108001952D01*
X67516333Y-107954333D01*
X67754428Y-107954333D01*
X67944904Y-108001952D01*
X68040142Y-108049571D01*
X68087761Y-108097190D01*
X68135380Y-108192428D01*
X68135380Y-108287666D01*
X68087761Y-108382904D01*
X68040142Y-108430523D01*
X67944904Y-108478142D01*
X67754428Y-108525761D01*
X67516333Y-108525761D01*
X67325857Y-108478142D01*
X67230619Y-108430523D01*
X67183000Y-108382904D01*
X67135380Y-108287666D01*
X67468714Y-107097190D02*
X68135380Y-107097190D01*
X67087761Y-107335285D02*
X67802047Y-107573380D01*
X67802047Y-106954333D01*
%TO.C,TP305*%
X80186380Y-111278285D02*
X80186380Y-110706857D01*
X81186380Y-110992571D02*
X80186380Y-110992571D01*
X81186380Y-110373523D02*
X80186380Y-110373523D01*
X80186380Y-109992571D01*
X80234000Y-109897333D01*
X80281619Y-109849714D01*
X80376857Y-109802095D01*
X80519714Y-109802095D01*
X80614952Y-109849714D01*
X80662571Y-109897333D01*
X80710190Y-109992571D01*
X80710190Y-110373523D01*
X80186380Y-109468761D02*
X80186380Y-108849714D01*
X80567333Y-109183047D01*
X80567333Y-109040190D01*
X80614952Y-108944952D01*
X80662571Y-108897333D01*
X80757809Y-108849714D01*
X80995904Y-108849714D01*
X81091142Y-108897333D01*
X81138761Y-108944952D01*
X81186380Y-109040190D01*
X81186380Y-109325904D01*
X81138761Y-109421142D01*
X81091142Y-109468761D01*
X80186380Y-108230666D02*
X80186380Y-108135428D01*
X80234000Y-108040190D01*
X80281619Y-107992571D01*
X80376857Y-107944952D01*
X80567333Y-107897333D01*
X80805428Y-107897333D01*
X80995904Y-107944952D01*
X81091142Y-107992571D01*
X81138761Y-108040190D01*
X81186380Y-108135428D01*
X81186380Y-108230666D01*
X81138761Y-108325904D01*
X81091142Y-108373523D01*
X80995904Y-108421142D01*
X80805428Y-108468761D01*
X80567333Y-108468761D01*
X80376857Y-108421142D01*
X80281619Y-108373523D01*
X80234000Y-108325904D01*
X80186380Y-108230666D01*
X80186380Y-106992571D02*
X80186380Y-107468761D01*
X80662571Y-107516380D01*
X80614952Y-107468761D01*
X80567333Y-107373523D01*
X80567333Y-107135428D01*
X80614952Y-107040190D01*
X80662571Y-106992571D01*
X80757809Y-106944952D01*
X80995904Y-106944952D01*
X81091142Y-106992571D01*
X81138761Y-107040190D01*
X81186380Y-107135428D01*
X81186380Y-107373523D01*
X81138761Y-107468761D01*
X81091142Y-107516380D01*
%TO.C,U201*%
X60096714Y-110675380D02*
X60096714Y-111484904D01*
X60144333Y-111580142D01*
X60191952Y-111627761D01*
X60287190Y-111675380D01*
X60477666Y-111675380D01*
X60572904Y-111627761D01*
X60620523Y-111580142D01*
X60668142Y-111484904D01*
X60668142Y-110675380D01*
X61096714Y-110770619D02*
X61144333Y-110723000D01*
X61239571Y-110675380D01*
X61477666Y-110675380D01*
X61572904Y-110723000D01*
X61620523Y-110770619D01*
X61668142Y-110865857D01*
X61668142Y-110961095D01*
X61620523Y-111103952D01*
X61049095Y-111675380D01*
X61668142Y-111675380D01*
X62287190Y-110675380D02*
X62382428Y-110675380D01*
X62477666Y-110723000D01*
X62525285Y-110770619D01*
X62572904Y-110865857D01*
X62620523Y-111056333D01*
X62620523Y-111294428D01*
X62572904Y-111484904D01*
X62525285Y-111580142D01*
X62477666Y-111627761D01*
X62382428Y-111675380D01*
X62287190Y-111675380D01*
X62191952Y-111627761D01*
X62144333Y-111580142D01*
X62096714Y-111484904D01*
X62049095Y-111294428D01*
X62049095Y-111056333D01*
X62096714Y-110865857D01*
X62144333Y-110770619D01*
X62191952Y-110723000D01*
X62287190Y-110675380D01*
X63572904Y-111675380D02*
X63001476Y-111675380D01*
X63287190Y-111675380D02*
X63287190Y-110675380D01*
X63191952Y-110818238D01*
X63096714Y-110913476D01*
X63001476Y-110961095D01*
%TO.C,U204*%
X102284380Y-109381285D02*
X103093904Y-109381285D01*
X103189142Y-109333666D01*
X103236761Y-109286047D01*
X103284380Y-109190809D01*
X103284380Y-109000333D01*
X103236761Y-108905095D01*
X103189142Y-108857476D01*
X103093904Y-108809857D01*
X102284380Y-108809857D01*
X102379619Y-108381285D02*
X102332000Y-108333666D01*
X102284380Y-108238428D01*
X102284380Y-108000333D01*
X102332000Y-107905095D01*
X102379619Y-107857476D01*
X102474857Y-107809857D01*
X102570095Y-107809857D01*
X102712952Y-107857476D01*
X103284380Y-108428904D01*
X103284380Y-107809857D01*
X102284380Y-107190809D02*
X102284380Y-107095571D01*
X102332000Y-107000333D01*
X102379619Y-106952714D01*
X102474857Y-106905095D01*
X102665333Y-106857476D01*
X102903428Y-106857476D01*
X103093904Y-106905095D01*
X103189142Y-106952714D01*
X103236761Y-107000333D01*
X103284380Y-107095571D01*
X103284380Y-107190809D01*
X103236761Y-107286047D01*
X103189142Y-107333666D01*
X103093904Y-107381285D01*
X102903428Y-107428904D01*
X102665333Y-107428904D01*
X102474857Y-107381285D01*
X102379619Y-107333666D01*
X102332000Y-107286047D01*
X102284380Y-107190809D01*
X102617714Y-106000333D02*
X103284380Y-106000333D01*
X102236761Y-106238428D02*
X102951047Y-106476523D01*
X102951047Y-105857476D01*
%TO.C,U301*%
X64095380Y-131246285D02*
X64904904Y-131246285D01*
X65000142Y-131198666D01*
X65047761Y-131151047D01*
X65095380Y-131055809D01*
X65095380Y-130865333D01*
X65047761Y-130770095D01*
X65000142Y-130722476D01*
X64904904Y-130674857D01*
X64095380Y-130674857D01*
X64095380Y-130293904D02*
X64095380Y-129674857D01*
X64476333Y-130008190D01*
X64476333Y-129865333D01*
X64523952Y-129770095D01*
X64571571Y-129722476D01*
X64666809Y-129674857D01*
X64904904Y-129674857D01*
X65000142Y-129722476D01*
X65047761Y-129770095D01*
X65095380Y-129865333D01*
X65095380Y-130151047D01*
X65047761Y-130246285D01*
X65000142Y-130293904D01*
X64095380Y-129055809D02*
X64095380Y-128960571D01*
X64143000Y-128865333D01*
X64190619Y-128817714D01*
X64285857Y-128770095D01*
X64476333Y-128722476D01*
X64714428Y-128722476D01*
X64904904Y-128770095D01*
X65000142Y-128817714D01*
X65047761Y-128865333D01*
X65095380Y-128960571D01*
X65095380Y-129055809D01*
X65047761Y-129151047D01*
X65000142Y-129198666D01*
X64904904Y-129246285D01*
X64714428Y-129293904D01*
X64476333Y-129293904D01*
X64285857Y-129246285D01*
X64190619Y-129198666D01*
X64143000Y-129151047D01*
X64095380Y-129055809D01*
X65095380Y-127770095D02*
X65095380Y-128341523D01*
X65095380Y-128055809D02*
X64095380Y-128055809D01*
X64238238Y-128151047D01*
X64333476Y-128246285D01*
X64381095Y-128341523D01*
%TO.C,U302*%
X68762714Y-118458380D02*
X68762714Y-119267904D01*
X68810333Y-119363142D01*
X68857952Y-119410761D01*
X68953190Y-119458380D01*
X69143666Y-119458380D01*
X69238904Y-119410761D01*
X69286523Y-119363142D01*
X69334142Y-119267904D01*
X69334142Y-118458380D01*
X69715095Y-118458380D02*
X70334142Y-118458380D01*
X70000809Y-118839333D01*
X70143666Y-118839333D01*
X70238904Y-118886952D01*
X70286523Y-118934571D01*
X70334142Y-119029809D01*
X70334142Y-119267904D01*
X70286523Y-119363142D01*
X70238904Y-119410761D01*
X70143666Y-119458380D01*
X69857952Y-119458380D01*
X69762714Y-119410761D01*
X69715095Y-119363142D01*
X70953190Y-118458380D02*
X71048428Y-118458380D01*
X71143666Y-118506000D01*
X71191285Y-118553619D01*
X71238904Y-118648857D01*
X71286523Y-118839333D01*
X71286523Y-119077428D01*
X71238904Y-119267904D01*
X71191285Y-119363142D01*
X71143666Y-119410761D01*
X71048428Y-119458380D01*
X70953190Y-119458380D01*
X70857952Y-119410761D01*
X70810333Y-119363142D01*
X70762714Y-119267904D01*
X70715095Y-119077428D01*
X70715095Y-118839333D01*
X70762714Y-118648857D01*
X70810333Y-118553619D01*
X70857952Y-118506000D01*
X70953190Y-118458380D01*
X71667476Y-118553619D02*
X71715095Y-118506000D01*
X71810333Y-118458380D01*
X72048428Y-118458380D01*
X72143666Y-118506000D01*
X72191285Y-118553619D01*
X72238904Y-118648857D01*
X72238904Y-118744095D01*
X72191285Y-118886952D01*
X71619857Y-119458380D01*
X72238904Y-119458380D01*
%TO.C,U303*%
X81696714Y-118378380D02*
X81696714Y-119187904D01*
X81744333Y-119283142D01*
X81791952Y-119330761D01*
X81887190Y-119378380D01*
X82077666Y-119378380D01*
X82172904Y-119330761D01*
X82220523Y-119283142D01*
X82268142Y-119187904D01*
X82268142Y-118378380D01*
X82649095Y-118378380D02*
X83268142Y-118378380D01*
X82934809Y-118759333D01*
X83077666Y-118759333D01*
X83172904Y-118806952D01*
X83220523Y-118854571D01*
X83268142Y-118949809D01*
X83268142Y-119187904D01*
X83220523Y-119283142D01*
X83172904Y-119330761D01*
X83077666Y-119378380D01*
X82791952Y-119378380D01*
X82696714Y-119330761D01*
X82649095Y-119283142D01*
X83887190Y-118378380D02*
X83982428Y-118378380D01*
X84077666Y-118426000D01*
X84125285Y-118473619D01*
X84172904Y-118568857D01*
X84220523Y-118759333D01*
X84220523Y-118997428D01*
X84172904Y-119187904D01*
X84125285Y-119283142D01*
X84077666Y-119330761D01*
X83982428Y-119378380D01*
X83887190Y-119378380D01*
X83791952Y-119330761D01*
X83744333Y-119283142D01*
X83696714Y-119187904D01*
X83649095Y-118997428D01*
X83649095Y-118759333D01*
X83696714Y-118568857D01*
X83744333Y-118473619D01*
X83791952Y-118426000D01*
X83887190Y-118378380D01*
X84553857Y-118378380D02*
X85172904Y-118378380D01*
X84839571Y-118759333D01*
X84982428Y-118759333D01*
X85077666Y-118806952D01*
X85125285Y-118854571D01*
X85172904Y-118949809D01*
X85172904Y-119187904D01*
X85125285Y-119283142D01*
X85077666Y-119330761D01*
X84982428Y-119378380D01*
X84696714Y-119378380D01*
X84601476Y-119330761D01*
X84553857Y-119283142D01*
%TO.C,U304*%
X76451714Y-135203380D02*
X76451714Y-136012904D01*
X76499333Y-136108142D01*
X76546952Y-136155761D01*
X76642190Y-136203380D01*
X76832666Y-136203380D01*
X76927904Y-136155761D01*
X76975523Y-136108142D01*
X77023142Y-136012904D01*
X77023142Y-135203380D01*
X77404095Y-135203380D02*
X78023142Y-135203380D01*
X77689809Y-135584333D01*
X77832666Y-135584333D01*
X77927904Y-135631952D01*
X77975523Y-135679571D01*
X78023142Y-135774809D01*
X78023142Y-136012904D01*
X77975523Y-136108142D01*
X77927904Y-136155761D01*
X77832666Y-136203380D01*
X77546952Y-136203380D01*
X77451714Y-136155761D01*
X77404095Y-136108142D01*
X78642190Y-135203380D02*
X78737428Y-135203380D01*
X78832666Y-135251000D01*
X78880285Y-135298619D01*
X78927904Y-135393857D01*
X78975523Y-135584333D01*
X78975523Y-135822428D01*
X78927904Y-136012904D01*
X78880285Y-136108142D01*
X78832666Y-136155761D01*
X78737428Y-136203380D01*
X78642190Y-136203380D01*
X78546952Y-136155761D01*
X78499333Y-136108142D01*
X78451714Y-136012904D01*
X78404095Y-135822428D01*
X78404095Y-135584333D01*
X78451714Y-135393857D01*
X78499333Y-135298619D01*
X78546952Y-135251000D01*
X78642190Y-135203380D01*
X79832666Y-135536714D02*
X79832666Y-136203380D01*
X79594571Y-135155761D02*
X79356476Y-135870047D01*
X79975523Y-135870047D01*
%TO.C,U405*%
X90576714Y-138398380D02*
X90576714Y-139207904D01*
X90624333Y-139303142D01*
X90671952Y-139350761D01*
X90767190Y-139398380D01*
X90957666Y-139398380D01*
X91052904Y-139350761D01*
X91100523Y-139303142D01*
X91148142Y-139207904D01*
X91148142Y-138398380D01*
X92052904Y-138731714D02*
X92052904Y-139398380D01*
X91814809Y-138350761D02*
X91576714Y-139065047D01*
X92195761Y-139065047D01*
X92767190Y-138398380D02*
X92862428Y-138398380D01*
X92957666Y-138446000D01*
X93005285Y-138493619D01*
X93052904Y-138588857D01*
X93100523Y-138779333D01*
X93100523Y-139017428D01*
X93052904Y-139207904D01*
X93005285Y-139303142D01*
X92957666Y-139350761D01*
X92862428Y-139398380D01*
X92767190Y-139398380D01*
X92671952Y-139350761D01*
X92624333Y-139303142D01*
X92576714Y-139207904D01*
X92529095Y-139017428D01*
X92529095Y-138779333D01*
X92576714Y-138588857D01*
X92624333Y-138493619D01*
X92671952Y-138446000D01*
X92767190Y-138398380D01*
X94005285Y-138398380D02*
X93529095Y-138398380D01*
X93481476Y-138874571D01*
X93529095Y-138826952D01*
X93624333Y-138779333D01*
X93862428Y-138779333D01*
X93957666Y-138826952D01*
X94005285Y-138874571D01*
X94052904Y-138969809D01*
X94052904Y-139207904D01*
X94005285Y-139303142D01*
X93957666Y-139350761D01*
X93862428Y-139398380D01*
X93624333Y-139398380D01*
X93529095Y-139350761D01*
X93481476Y-139303142D01*
%TO.C,U407*%
X94640714Y-138361380D02*
X94640714Y-139170904D01*
X94688333Y-139266142D01*
X94735952Y-139313761D01*
X94831190Y-139361380D01*
X95021666Y-139361380D01*
X95116904Y-139313761D01*
X95164523Y-139266142D01*
X95212142Y-139170904D01*
X95212142Y-138361380D01*
X96116904Y-138694714D02*
X96116904Y-139361380D01*
X95878809Y-138313761D02*
X95640714Y-139028047D01*
X96259761Y-139028047D01*
X96831190Y-138361380D02*
X96926428Y-138361380D01*
X97021666Y-138409000D01*
X97069285Y-138456619D01*
X97116904Y-138551857D01*
X97164523Y-138742333D01*
X97164523Y-138980428D01*
X97116904Y-139170904D01*
X97069285Y-139266142D01*
X97021666Y-139313761D01*
X96926428Y-139361380D01*
X96831190Y-139361380D01*
X96735952Y-139313761D01*
X96688333Y-139266142D01*
X96640714Y-139170904D01*
X96593095Y-138980428D01*
X96593095Y-138742333D01*
X96640714Y-138551857D01*
X96688333Y-138456619D01*
X96735952Y-138409000D01*
X96831190Y-138361380D01*
X97497857Y-138361380D02*
X98164523Y-138361380D01*
X97735952Y-139361380D01*
%TO.C,J301*%
X56282380Y-139285714D02*
X56996666Y-139285714D01*
X57139523Y-139333333D01*
X57234761Y-139428571D01*
X57282380Y-139571428D01*
X57282380Y-139666666D01*
X56282380Y-138904761D02*
X56282380Y-138285714D01*
X56663333Y-138619047D01*
X56663333Y-138476190D01*
X56710952Y-138380952D01*
X56758571Y-138333333D01*
X56853809Y-138285714D01*
X57091904Y-138285714D01*
X57187142Y-138333333D01*
X57234761Y-138380952D01*
X57282380Y-138476190D01*
X57282380Y-138761904D01*
X57234761Y-138857142D01*
X57187142Y-138904761D01*
X56282380Y-137666666D02*
X56282380Y-137571428D01*
X56330000Y-137476190D01*
X56377619Y-137428571D01*
X56472857Y-137380952D01*
X56663333Y-137333333D01*
X56901428Y-137333333D01*
X57091904Y-137380952D01*
X57187142Y-137428571D01*
X57234761Y-137476190D01*
X57282380Y-137571428D01*
X57282380Y-137666666D01*
X57234761Y-137761904D01*
X57187142Y-137809523D01*
X57091904Y-137857142D01*
X56901428Y-137904761D01*
X56663333Y-137904761D01*
X56472857Y-137857142D01*
X56377619Y-137809523D01*
X56330000Y-137761904D01*
X56282380Y-137666666D01*
X57282380Y-136380952D02*
X57282380Y-136952380D01*
X57282380Y-136666666D02*
X56282380Y-136666666D01*
X56425238Y-136761904D01*
X56520476Y-136857142D01*
X56568095Y-136952380D01*
%TD*%
M02*
