%TF.GenerationSoftware,KiCad,Pcbnew,(5.1.7)-1*%
%TF.CreationDate,2021-01-20T17:17:38-05:00*%
%TF.ProjectId,SYSC4907_REV2,53595343-3439-4303-975f-524556322e6b,rev?*%
%TF.SameCoordinates,Original*%
%TF.FileFunction,Copper,L2,Inr*%
%TF.FilePolarity,Positive*%
%FSLAX46Y46*%
G04 Gerber Fmt 4.6, Leading zero omitted, Abs format (unit mm)*
G04 Created by KiCad (PCBNEW (5.1.7)-1) date 2021-01-20 17:17:38*
%MOMM*%
%LPD*%
G01*
G04 APERTURE LIST*
%TA.AperFunction,ComponentPad*%
%ADD10R,1.700000X1.700000*%
%TD*%
%TA.AperFunction,ComponentPad*%
%ADD11O,1.700000X1.700000*%
%TD*%
%TA.AperFunction,ViaPad*%
%ADD12C,0.800000*%
%TD*%
%TA.AperFunction,Conductor*%
%ADD13C,0.500000*%
%TD*%
%TA.AperFunction,Conductor*%
%ADD14C,1.000000*%
%TD*%
%TA.AperFunction,Conductor*%
%ADD15C,0.250000*%
%TD*%
%TA.AperFunction,Conductor*%
%ADD16C,0.100000*%
%TD*%
G04 APERTURE END LIST*
D10*
%TO.N,+BATT*%
%TO.C,J301*%
X54500000Y-138000000D03*
D11*
%TO.N,GND*%
X51960000Y-138000000D03*
%TD*%
D12*
%TO.N,GND*%
X64508000Y-118011000D03*
X63373000Y-126611000D03*
X57366000Y-121637000D03*
X59372500Y-135755000D03*
X78166000Y-135607000D03*
X77594500Y-127051500D03*
X70509000Y-118900000D03*
X94323000Y-111731000D03*
X97625000Y-139036000D03*
X96228000Y-133956000D03*
X53429000Y-106651000D03*
X53429000Y-116811000D03*
X54699000Y-127860000D03*
X69304000Y-123288000D03*
X68669000Y-137893000D03*
X78321000Y-115414000D03*
X77778241Y-120330000D03*
X94450000Y-116684000D03*
X88608000Y-128876000D03*
X73241000Y-126463000D03*
X100800000Y-128114000D03*
X90640000Y-124658501D03*
X92799000Y-130019000D03*
X92672000Y-136496000D03*
X67145000Y-127987000D03*
X72225000Y-109953000D03*
X85179000Y-109953000D03*
X97498000Y-122526000D03*
%TO.N,+1V8*%
X90259000Y-132432000D03*
X101054000Y-133956000D03*
X91402000Y-133956000D03*
X53175000Y-112747000D03*
X63970000Y-137893000D03*
X73749000Y-119986000D03*
X90252503Y-120335495D03*
X83528000Y-124685000D03*
X88227000Y-109953000D03*
X70320000Y-135734000D03*
X64744316Y-130513011D03*
%TO.N,Net-(C301-Pad2)*%
X58991500Y-130992500D03*
X60960000Y-135755000D03*
%TO.N,+5V*%
X85687000Y-116557000D03*
X67780000Y-118843000D03*
%TO.N,Net-(C304-Pad1)*%
X72509000Y-114963000D03*
X68542000Y-115541000D03*
%TO.N,VBAT_MEAS*%
X59906000Y-113382000D03*
X97498000Y-123669000D03*
%TO.N,POWER_SW*%
X99799997Y-128114000D03*
X101474000Y-123161000D03*
%TO.N,Net-(C309-Pad1)*%
X85558500Y-114963000D03*
X81651524Y-115456702D03*
%TO.N,Net-(C407-Pad1)*%
X86068000Y-128622000D03*
%TO.N,+3V3*%
X64478000Y-119986000D03*
X76543000Y-122526000D03*
X93942000Y-110588000D03*
X88427052Y-108525050D03*
%TO.N,Net-(D301-Pad2)*%
X52667000Y-133194000D03*
X99149000Y-134083000D03*
%TO.N,POWER_ON*%
X90640000Y-126717000D03*
%TO.N,VBUS*%
X90259000Y-118970000D03*
%TO.N,Net-(J202-Pad2)*%
X101474000Y-121868009D03*
%TO.N,Net-(J202-Pad4)*%
X100859073Y-116922996D03*
%TO.N,Net-(J202-Pad10)*%
X98514000Y-116684000D03*
%TO.N,I2C_SCL*%
X81115000Y-137124950D03*
%TO.N,I2C_SDA*%
X82131000Y-136369000D03*
%TO.N,UV_INT*%
X100165000Y-136369000D03*
%TO.N,HEART_INT*%
X79718000Y-135607000D03*
X97945432Y-134084485D03*
%TO.N,FAST_CHARGE*%
X90259000Y-117573000D03*
X97498000Y-121383000D03*
%TO.N,+BATT*%
X59055000Y-126611000D03*
%TO.N,Net-(U201-Pad4)*%
X91695000Y-116684000D03*
%TO.N,Net-(U201-Pad6)*%
X93429347Y-116049000D03*
%TO.N,IR_TEMP*%
X82766000Y-128622000D03*
X92037000Y-129003000D03*
%TO.N,AMB_TEMP*%
X91275000Y-122526000D03*
%TO.N,Net-(U403-Pad8)*%
X85306000Y-125701000D03*
%TO.N,LED_B*%
X101308000Y-115414000D03*
%TO.N,LED_G*%
X101308000Y-114382003D03*
%TO.N,LED_R*%
X101308000Y-113382000D03*
%TO.N,SD_DET*%
X93942000Y-115033000D03*
X61176000Y-113382000D03*
%TD*%
D13*
%TO.N,Net-(C301-Pad2)*%
X60960000Y-132961000D02*
X58991500Y-130992500D01*
X60960000Y-135755000D02*
X60960000Y-132961000D01*
D14*
%TO.N,+5V*%
X70066000Y-116557000D02*
X67780000Y-118843000D01*
X85687000Y-116557000D02*
X70066000Y-116557000D01*
D13*
%TO.N,Net-(C304-Pad1)*%
X71931000Y-115541000D02*
X72509000Y-114963000D01*
X68542000Y-115541000D02*
X71931000Y-115541000D01*
%TO.N,VBAT_MEAS*%
X99364001Y-122818999D02*
X98514000Y-123669000D01*
X99364001Y-108263001D02*
X99364001Y-122818999D01*
X96576010Y-105475010D02*
X99364001Y-108263001D01*
X60795000Y-105475010D02*
X96576010Y-105475010D01*
X59906000Y-106364010D02*
X60795000Y-105475010D01*
X98514000Y-123669000D02*
X97498000Y-123669000D01*
X59906000Y-113382000D02*
X59906000Y-106364010D01*
%TO.N,POWER_SW*%
X99799997Y-124835003D02*
X101474000Y-123161000D01*
X99799997Y-128114000D02*
X99799997Y-124835003D01*
%TO.N,Net-(C309-Pad1)*%
X85064798Y-115456702D02*
X85558500Y-114963000D01*
X81651524Y-115456702D02*
X85064798Y-115456702D01*
D14*
%TO.N,+3V3*%
X75527000Y-121510000D02*
X76543000Y-122526000D01*
X66002000Y-121510000D02*
X75527000Y-121510000D01*
X64478000Y-119986000D02*
X66002000Y-121510000D01*
X91879050Y-108525050D02*
X93942000Y-110588000D01*
X88427052Y-108525050D02*
X91879050Y-108525050D01*
D13*
%TO.N,Net-(D301-Pad2)*%
X51397000Y-139524990D02*
X93072010Y-139524990D01*
X50508000Y-138655000D02*
X51397000Y-139524990D01*
X50508000Y-135353000D02*
X50508000Y-138655000D01*
X52667000Y-133194000D02*
X50508000Y-135353000D01*
X93072010Y-139524990D02*
X93707010Y-139524990D01*
X99149000Y-134083000D02*
X98577500Y-134654500D01*
X98577500Y-134654500D02*
X99022000Y-134210000D01*
X93707010Y-139524990D02*
X98577500Y-134654500D01*
%TO.N,HEART_INT*%
X93204937Y-138824980D02*
X97945432Y-134084485D01*
X80480000Y-138824980D02*
X93204937Y-138824980D01*
X79718000Y-138062980D02*
X80480000Y-138824980D01*
X79718000Y-135607000D02*
X79718000Y-138062980D01*
%TO.N,FAST_CHARGE*%
X93688000Y-117573000D02*
X97498000Y-121383000D01*
X90259000Y-117573000D02*
X93688000Y-117573000D01*
D14*
%TO.N,+BATT*%
X54500000Y-131166000D02*
X54500000Y-138000000D01*
X59055000Y-126611000D02*
X54500000Y-131166000D01*
D13*
%TO.N,IR_TEMP*%
X83870001Y-129726001D02*
X82766000Y-128622000D01*
X91313999Y-129726001D02*
X83870001Y-129726001D01*
X92037000Y-129003000D02*
X91313999Y-129726001D01*
%TO.N,SD_DET*%
X61176000Y-113382000D02*
X61176000Y-106429020D01*
X61176000Y-106429020D02*
X61430000Y-106175020D01*
X61430000Y-106175020D02*
X91053020Y-106175020D01*
X91053020Y-106175020D02*
X96286058Y-106175020D01*
X96286058Y-106175020D02*
X98663991Y-108552953D01*
X98663991Y-108552953D02*
X98663991Y-113255000D01*
X98663991Y-113255000D02*
X98663991Y-114271000D01*
X98663991Y-114271000D02*
X98641000Y-114271000D01*
X97901991Y-115033000D02*
X98663991Y-114271000D01*
X93942000Y-115033000D02*
X97901991Y-115033000D01*
%TD*%
D15*
%TO.N,+1V8*%
X59485772Y-105900356D02*
X59461921Y-105919930D01*
X59442348Y-105943780D01*
X59383818Y-106015099D01*
X59325782Y-106123676D01*
X59290044Y-106241489D01*
X59277977Y-106364010D01*
X59281001Y-106394714D01*
X59281000Y-112922415D01*
X59219204Y-113014900D01*
X59160783Y-113155941D01*
X59131000Y-113305669D01*
X59131000Y-113458331D01*
X59160783Y-113608059D01*
X59219204Y-113749100D01*
X59304018Y-113876034D01*
X59411966Y-113983982D01*
X59538900Y-114068796D01*
X59679941Y-114127217D01*
X59829669Y-114157000D01*
X59982331Y-114157000D01*
X60132059Y-114127217D01*
X60273100Y-114068796D01*
X60400034Y-113983982D01*
X60507982Y-113876034D01*
X60541000Y-113826619D01*
X60574018Y-113876034D01*
X60681966Y-113983982D01*
X60808900Y-114068796D01*
X60949941Y-114127217D01*
X61099669Y-114157000D01*
X61252331Y-114157000D01*
X61402059Y-114127217D01*
X61543100Y-114068796D01*
X61670034Y-113983982D01*
X61777982Y-113876034D01*
X61862796Y-113749100D01*
X61921217Y-113608059D01*
X61951000Y-113458331D01*
X61951000Y-113305669D01*
X61921217Y-113155941D01*
X61862796Y-113014900D01*
X61801000Y-112922415D01*
X61801000Y-109876669D01*
X71450000Y-109876669D01*
X71450000Y-110029331D01*
X71479783Y-110179059D01*
X71538204Y-110320100D01*
X71623018Y-110447034D01*
X71730966Y-110554982D01*
X71857900Y-110639796D01*
X71998941Y-110698217D01*
X72148669Y-110728000D01*
X72301331Y-110728000D01*
X72451059Y-110698217D01*
X72592100Y-110639796D01*
X72719034Y-110554982D01*
X72826982Y-110447034D01*
X72911796Y-110320100D01*
X72970217Y-110179059D01*
X73000000Y-110029331D01*
X73000000Y-109876669D01*
X84404000Y-109876669D01*
X84404000Y-110029331D01*
X84433783Y-110179059D01*
X84492204Y-110320100D01*
X84577018Y-110447034D01*
X84684966Y-110554982D01*
X84811900Y-110639796D01*
X84952941Y-110698217D01*
X85102669Y-110728000D01*
X85255331Y-110728000D01*
X85405059Y-110698217D01*
X85546100Y-110639796D01*
X85673034Y-110554982D01*
X85780982Y-110447034D01*
X85865796Y-110320100D01*
X85924217Y-110179059D01*
X85954000Y-110029331D01*
X85954000Y-109876669D01*
X85924217Y-109726941D01*
X85865796Y-109585900D01*
X85780982Y-109458966D01*
X85673034Y-109351018D01*
X85546100Y-109266204D01*
X85405059Y-109207783D01*
X85255331Y-109178000D01*
X85102669Y-109178000D01*
X84952941Y-109207783D01*
X84811900Y-109266204D01*
X84684966Y-109351018D01*
X84577018Y-109458966D01*
X84492204Y-109585900D01*
X84433783Y-109726941D01*
X84404000Y-109876669D01*
X73000000Y-109876669D01*
X72970217Y-109726941D01*
X72911796Y-109585900D01*
X72826982Y-109458966D01*
X72719034Y-109351018D01*
X72592100Y-109266204D01*
X72451059Y-109207783D01*
X72301331Y-109178000D01*
X72148669Y-109178000D01*
X71998941Y-109207783D01*
X71857900Y-109266204D01*
X71730966Y-109351018D01*
X71623018Y-109458966D01*
X71538204Y-109585900D01*
X71479783Y-109726941D01*
X71450000Y-109876669D01*
X61801000Y-109876669D01*
X61801000Y-108525050D01*
X87547819Y-108525050D01*
X87564713Y-108696580D01*
X87614747Y-108861518D01*
X87695996Y-109013526D01*
X87805340Y-109146762D01*
X87938576Y-109256106D01*
X88090584Y-109337355D01*
X88255522Y-109387389D01*
X88384073Y-109400050D01*
X91516614Y-109400050D01*
X93353672Y-111237109D01*
X93453524Y-111319055D01*
X93605532Y-111400305D01*
X93619384Y-111404507D01*
X93577783Y-111504941D01*
X93548000Y-111654669D01*
X93548000Y-111807331D01*
X93577783Y-111957059D01*
X93636204Y-112098100D01*
X93721018Y-112225034D01*
X93828966Y-112332982D01*
X93955900Y-112417796D01*
X94096941Y-112476217D01*
X94246669Y-112506000D01*
X94399331Y-112506000D01*
X94549059Y-112476217D01*
X94690100Y-112417796D01*
X94817034Y-112332982D01*
X94924982Y-112225034D01*
X95009796Y-112098100D01*
X95068217Y-111957059D01*
X95098000Y-111807331D01*
X95098000Y-111654669D01*
X95068217Y-111504941D01*
X95009796Y-111363900D01*
X94924982Y-111236966D01*
X94817034Y-111129018D01*
X94690250Y-111044305D01*
X94754305Y-110924467D01*
X94804339Y-110759530D01*
X94821233Y-110588000D01*
X94804339Y-110416470D01*
X94754305Y-110251532D01*
X94673055Y-110099524D01*
X94591109Y-109999672D01*
X92528167Y-107936730D01*
X92500762Y-107903338D01*
X92367526Y-107793994D01*
X92215518Y-107712745D01*
X92050580Y-107662711D01*
X91922029Y-107650050D01*
X91879050Y-107645817D01*
X91836071Y-107650050D01*
X88384073Y-107650050D01*
X88255522Y-107662711D01*
X88090584Y-107712745D01*
X87938576Y-107793994D01*
X87805340Y-107903338D01*
X87695996Y-108036574D01*
X87614747Y-108188582D01*
X87564713Y-108353520D01*
X87547819Y-108525050D01*
X61801000Y-108525050D01*
X61801000Y-106800020D01*
X96027176Y-106800020D01*
X98038991Y-108811836D01*
X98038992Y-113224287D01*
X98038991Y-113224297D01*
X98038992Y-114012117D01*
X97643109Y-114408000D01*
X94401585Y-114408000D01*
X94309100Y-114346204D01*
X94168059Y-114287783D01*
X94018331Y-114258000D01*
X93865669Y-114258000D01*
X93715941Y-114287783D01*
X93574900Y-114346204D01*
X93447966Y-114431018D01*
X93340018Y-114538966D01*
X93255204Y-114665900D01*
X93196783Y-114806941D01*
X93167000Y-114956669D01*
X93167000Y-115109331D01*
X93196783Y-115259059D01*
X93214393Y-115301574D01*
X93203288Y-115303783D01*
X93062247Y-115362204D01*
X92935313Y-115447018D01*
X92827365Y-115554966D01*
X92742551Y-115681900D01*
X92684130Y-115822941D01*
X92654347Y-115972669D01*
X92654347Y-116125331D01*
X92684130Y-116275059D01*
X92742551Y-116416100D01*
X92827365Y-116543034D01*
X92935313Y-116650982D01*
X93062247Y-116735796D01*
X93203288Y-116794217D01*
X93353016Y-116824000D01*
X93505678Y-116824000D01*
X93655406Y-116794217D01*
X93679736Y-116784139D01*
X93704783Y-116910059D01*
X93720575Y-116948184D01*
X93718704Y-116948000D01*
X93718694Y-116948000D01*
X93688000Y-116944977D01*
X93657306Y-116948000D01*
X92424501Y-116948000D01*
X92440217Y-116910059D01*
X92470000Y-116760331D01*
X92470000Y-116607669D01*
X92440217Y-116457941D01*
X92381796Y-116316900D01*
X92296982Y-116189966D01*
X92189034Y-116082018D01*
X92062100Y-115997204D01*
X91921059Y-115938783D01*
X91771331Y-115909000D01*
X91618669Y-115909000D01*
X91468941Y-115938783D01*
X91327900Y-115997204D01*
X91200966Y-116082018D01*
X91093018Y-116189966D01*
X91008204Y-116316900D01*
X90949783Y-116457941D01*
X90920000Y-116607669D01*
X90920000Y-116760331D01*
X90949783Y-116910059D01*
X90965499Y-116948000D01*
X90718585Y-116948000D01*
X90626100Y-116886204D01*
X90485059Y-116827783D01*
X90335331Y-116798000D01*
X90182669Y-116798000D01*
X90032941Y-116827783D01*
X89891900Y-116886204D01*
X89764966Y-116971018D01*
X89657018Y-117078966D01*
X89572204Y-117205900D01*
X89513783Y-117346941D01*
X89484000Y-117496669D01*
X89484000Y-117649331D01*
X89513783Y-117799059D01*
X89572204Y-117940100D01*
X89657018Y-118067034D01*
X89764966Y-118174982D01*
X89891900Y-118259796D01*
X89920156Y-118271500D01*
X89891900Y-118283204D01*
X89764966Y-118368018D01*
X89657018Y-118475966D01*
X89572204Y-118602900D01*
X89513783Y-118743941D01*
X89484000Y-118893669D01*
X89484000Y-119046331D01*
X89513783Y-119196059D01*
X89572204Y-119337100D01*
X89657018Y-119464034D01*
X89764966Y-119571982D01*
X89891900Y-119656796D01*
X90032941Y-119715217D01*
X90182669Y-119745000D01*
X90335331Y-119745000D01*
X90485059Y-119715217D01*
X90626100Y-119656796D01*
X90753034Y-119571982D01*
X90860982Y-119464034D01*
X90945796Y-119337100D01*
X91004217Y-119196059D01*
X91034000Y-119046331D01*
X91034000Y-118893669D01*
X91004217Y-118743941D01*
X90945796Y-118602900D01*
X90860982Y-118475966D01*
X90753034Y-118368018D01*
X90626100Y-118283204D01*
X90597844Y-118271500D01*
X90626100Y-118259796D01*
X90718585Y-118198000D01*
X93429118Y-118198000D01*
X96731083Y-121499966D01*
X96752783Y-121609059D01*
X96811204Y-121750100D01*
X96896018Y-121877034D01*
X96973484Y-121954500D01*
X96896018Y-122031966D01*
X96811204Y-122158900D01*
X96752783Y-122299941D01*
X96723000Y-122449669D01*
X96723000Y-122602331D01*
X96752783Y-122752059D01*
X96811204Y-122893100D01*
X96896018Y-123020034D01*
X96973484Y-123097500D01*
X96896018Y-123174966D01*
X96811204Y-123301900D01*
X96752783Y-123442941D01*
X96723000Y-123592669D01*
X96723000Y-123745331D01*
X96752783Y-123895059D01*
X96811204Y-124036100D01*
X96896018Y-124163034D01*
X97003966Y-124270982D01*
X97130900Y-124355796D01*
X97271941Y-124414217D01*
X97421669Y-124444000D01*
X97574331Y-124444000D01*
X97724059Y-124414217D01*
X97865100Y-124355796D01*
X97957585Y-124294000D01*
X98483306Y-124294000D01*
X98514000Y-124297023D01*
X98544694Y-124294000D01*
X98544704Y-124294000D01*
X98636521Y-124284957D01*
X98754334Y-124249219D01*
X98862911Y-124191183D01*
X98958080Y-124113080D01*
X98977658Y-124089224D01*
X99784230Y-123282653D01*
X99808081Y-123263079D01*
X99886184Y-123167910D01*
X99944220Y-123059333D01*
X99979958Y-122941520D01*
X99989001Y-122849703D01*
X99989001Y-122849693D01*
X99992024Y-122818999D01*
X99989001Y-122788305D01*
X99989001Y-116846665D01*
X100084073Y-116846665D01*
X100084073Y-116999327D01*
X100113856Y-117149055D01*
X100172277Y-117290096D01*
X100257091Y-117417030D01*
X100365039Y-117524978D01*
X100491973Y-117609792D01*
X100633014Y-117668213D01*
X100782742Y-117697996D01*
X100935404Y-117697996D01*
X101085132Y-117668213D01*
X101226173Y-117609792D01*
X101353107Y-117524978D01*
X101461055Y-117417030D01*
X101545869Y-117290096D01*
X101604290Y-117149055D01*
X101634073Y-116999327D01*
X101634073Y-116846665D01*
X101604290Y-116696937D01*
X101545869Y-116555896D01*
X101461055Y-116428962D01*
X101353107Y-116321014D01*
X101226173Y-116236200D01*
X101085132Y-116177779D01*
X100935404Y-116147996D01*
X100782742Y-116147996D01*
X100633014Y-116177779D01*
X100491973Y-116236200D01*
X100365039Y-116321014D01*
X100257091Y-116428962D01*
X100172277Y-116555896D01*
X100113856Y-116696937D01*
X100084073Y-116846665D01*
X99989001Y-116846665D01*
X99989001Y-108293703D01*
X99992025Y-108263001D01*
X99986218Y-108204040D01*
X99979958Y-108140480D01*
X99944220Y-108022667D01*
X99886185Y-107914091D01*
X99886184Y-107914089D01*
X99827653Y-107842770D01*
X99808081Y-107818921D01*
X99784231Y-107799348D01*
X97384882Y-105400000D01*
X101875000Y-105400000D01*
X101875000Y-112852984D01*
X101802034Y-112780018D01*
X101675100Y-112695204D01*
X101534059Y-112636783D01*
X101384331Y-112607000D01*
X101231669Y-112607000D01*
X101081941Y-112636783D01*
X100940900Y-112695204D01*
X100813966Y-112780018D01*
X100706018Y-112887966D01*
X100621204Y-113014900D01*
X100562783Y-113155941D01*
X100533000Y-113305669D01*
X100533000Y-113458331D01*
X100562783Y-113608059D01*
X100621204Y-113749100D01*
X100706018Y-113876034D01*
X100711986Y-113882002D01*
X100706018Y-113887969D01*
X100621204Y-114014903D01*
X100562783Y-114155944D01*
X100533000Y-114305672D01*
X100533000Y-114458334D01*
X100562783Y-114608062D01*
X100621204Y-114749103D01*
X100706018Y-114876037D01*
X100727983Y-114898002D01*
X100706018Y-114919966D01*
X100621204Y-115046900D01*
X100562783Y-115187941D01*
X100533000Y-115337669D01*
X100533000Y-115490331D01*
X100562783Y-115640059D01*
X100621204Y-115781100D01*
X100706018Y-115908034D01*
X100813966Y-116015982D01*
X100940900Y-116100796D01*
X101081941Y-116159217D01*
X101231669Y-116189000D01*
X101384331Y-116189000D01*
X101534059Y-116159217D01*
X101675100Y-116100796D01*
X101802034Y-116015982D01*
X101875000Y-115943016D01*
X101875000Y-121203864D01*
X101841100Y-121181213D01*
X101700059Y-121122792D01*
X101550331Y-121093009D01*
X101397669Y-121093009D01*
X101247941Y-121122792D01*
X101106900Y-121181213D01*
X100979966Y-121266027D01*
X100872018Y-121373975D01*
X100787204Y-121500909D01*
X100728783Y-121641950D01*
X100699000Y-121791678D01*
X100699000Y-121944340D01*
X100728783Y-122094068D01*
X100787204Y-122235109D01*
X100872018Y-122362043D01*
X100979966Y-122469991D01*
X101046586Y-122514505D01*
X100979966Y-122559018D01*
X100872018Y-122666966D01*
X100787204Y-122793900D01*
X100728783Y-122934941D01*
X100707083Y-123044034D01*
X99379769Y-124371349D01*
X99355918Y-124390923D01*
X99336345Y-124414773D01*
X99277815Y-124486092D01*
X99219779Y-124594669D01*
X99184041Y-124712482D01*
X99171974Y-124835003D01*
X99174998Y-124865707D01*
X99174997Y-127654415D01*
X99113201Y-127746900D01*
X99054780Y-127887941D01*
X99024997Y-128037669D01*
X99024997Y-128190331D01*
X99054780Y-128340059D01*
X99113201Y-128481100D01*
X99198015Y-128608034D01*
X99305963Y-128715982D01*
X99432897Y-128800796D01*
X99573938Y-128859217D01*
X99723666Y-128889000D01*
X99876328Y-128889000D01*
X100026056Y-128859217D01*
X100167097Y-128800796D01*
X100294031Y-128715982D01*
X100299999Y-128710015D01*
X100305966Y-128715982D01*
X100432900Y-128800796D01*
X100573941Y-128859217D01*
X100723669Y-128889000D01*
X100876331Y-128889000D01*
X101026059Y-128859217D01*
X101167100Y-128800796D01*
X101294034Y-128715982D01*
X101401982Y-128608034D01*
X101486796Y-128481100D01*
X101545217Y-128340059D01*
X101575000Y-128190331D01*
X101575000Y-128037669D01*
X101545217Y-127887941D01*
X101486796Y-127746900D01*
X101401982Y-127619966D01*
X101294034Y-127512018D01*
X101167100Y-127427204D01*
X101026059Y-127368783D01*
X100876331Y-127339000D01*
X100723669Y-127339000D01*
X100573941Y-127368783D01*
X100432900Y-127427204D01*
X100424997Y-127432485D01*
X100424997Y-125093885D01*
X101590966Y-123927917D01*
X101700059Y-123906217D01*
X101841100Y-123847796D01*
X101875000Y-123825145D01*
X101875000Y-139600000D01*
X98157016Y-139600000D01*
X98226982Y-139530034D01*
X98311796Y-139403100D01*
X98370217Y-139262059D01*
X98400000Y-139112331D01*
X98400000Y-138959669D01*
X98370217Y-138809941D01*
X98311796Y-138668900D01*
X98226982Y-138541966D01*
X98119034Y-138434018D01*
X97992100Y-138349204D01*
X97851059Y-138290783D01*
X97701331Y-138261000D01*
X97548669Y-138261000D01*
X97398941Y-138290783D01*
X97257900Y-138349204D01*
X97130966Y-138434018D01*
X97023018Y-138541966D01*
X96938204Y-138668900D01*
X96879783Y-138809941D01*
X96850000Y-138959669D01*
X96850000Y-139112331D01*
X96879783Y-139262059D01*
X96938204Y-139403100D01*
X97023018Y-139530034D01*
X97092984Y-139600000D01*
X94515882Y-139600000D01*
X97823213Y-136292669D01*
X99390000Y-136292669D01*
X99390000Y-136445331D01*
X99419783Y-136595059D01*
X99478204Y-136736100D01*
X99563018Y-136863034D01*
X99670966Y-136970982D01*
X99797900Y-137055796D01*
X99938941Y-137114217D01*
X100088669Y-137144000D01*
X100241331Y-137144000D01*
X100391059Y-137114217D01*
X100532100Y-137055796D01*
X100659034Y-136970982D01*
X100766982Y-136863034D01*
X100851796Y-136736100D01*
X100910217Y-136595059D01*
X100940000Y-136445331D01*
X100940000Y-136292669D01*
X100910217Y-136142941D01*
X100851796Y-136001900D01*
X100766982Y-135874966D01*
X100659034Y-135767018D01*
X100532100Y-135682204D01*
X100391059Y-135623783D01*
X100241331Y-135594000D01*
X100088669Y-135594000D01*
X99938941Y-135623783D01*
X99797900Y-135682204D01*
X99670966Y-135767018D01*
X99563018Y-135874966D01*
X99478204Y-136001900D01*
X99419783Y-136142941D01*
X99390000Y-136292669D01*
X97823213Y-136292669D01*
X99041152Y-135074731D01*
X99041156Y-135074726D01*
X99265965Y-134849917D01*
X99375059Y-134828217D01*
X99516100Y-134769796D01*
X99643034Y-134684982D01*
X99750982Y-134577034D01*
X99835796Y-134450100D01*
X99894217Y-134309059D01*
X99924000Y-134159331D01*
X99924000Y-134006669D01*
X99894217Y-133856941D01*
X99835796Y-133715900D01*
X99750982Y-133588966D01*
X99643034Y-133481018D01*
X99516100Y-133396204D01*
X99375059Y-133337783D01*
X99225331Y-133308000D01*
X99072669Y-133308000D01*
X98922941Y-133337783D01*
X98781900Y-133396204D01*
X98654966Y-133481018D01*
X98547018Y-133588966D01*
X98546582Y-133589619D01*
X98439466Y-133482503D01*
X98312532Y-133397689D01*
X98171491Y-133339268D01*
X98021763Y-133309485D01*
X97869101Y-133309485D01*
X97719373Y-133339268D01*
X97578332Y-133397689D01*
X97451398Y-133482503D01*
X97343450Y-133590451D01*
X97258636Y-133717385D01*
X97200215Y-133858426D01*
X97178515Y-133967519D01*
X96975512Y-134170522D01*
X97003000Y-134032331D01*
X97003000Y-133879669D01*
X96973217Y-133729941D01*
X96914796Y-133588900D01*
X96829982Y-133461966D01*
X96722034Y-133354018D01*
X96595100Y-133269204D01*
X96454059Y-133210783D01*
X96304331Y-133181000D01*
X96151669Y-133181000D01*
X96001941Y-133210783D01*
X95860900Y-133269204D01*
X95733966Y-133354018D01*
X95626018Y-133461966D01*
X95541204Y-133588900D01*
X95482783Y-133729941D01*
X95453000Y-133879669D01*
X95453000Y-134032331D01*
X95482783Y-134182059D01*
X95541204Y-134323100D01*
X95626018Y-134450034D01*
X95733966Y-134557982D01*
X95860900Y-134642796D01*
X96001941Y-134701217D01*
X96151669Y-134731000D01*
X96304331Y-134731000D01*
X96442522Y-134703512D01*
X92946055Y-138199980D01*
X80738883Y-138199980D01*
X80343000Y-137804098D01*
X80343000Y-137216363D01*
X80369783Y-137351009D01*
X80428204Y-137492050D01*
X80513018Y-137618984D01*
X80620966Y-137726932D01*
X80747900Y-137811746D01*
X80888941Y-137870167D01*
X81038669Y-137899950D01*
X81191331Y-137899950D01*
X81341059Y-137870167D01*
X81482100Y-137811746D01*
X81609034Y-137726932D01*
X81716982Y-137618984D01*
X81801796Y-137492050D01*
X81860217Y-137351009D01*
X81890000Y-137201281D01*
X81890000Y-137108028D01*
X81904941Y-137114217D01*
X82054669Y-137144000D01*
X82207331Y-137144000D01*
X82357059Y-137114217D01*
X82498100Y-137055796D01*
X82625034Y-136970982D01*
X82732982Y-136863034D01*
X82817796Y-136736100D01*
X82876217Y-136595059D01*
X82906000Y-136445331D01*
X82906000Y-136419669D01*
X91897000Y-136419669D01*
X91897000Y-136572331D01*
X91926783Y-136722059D01*
X91985204Y-136863100D01*
X92070018Y-136990034D01*
X92177966Y-137097982D01*
X92304900Y-137182796D01*
X92445941Y-137241217D01*
X92595669Y-137271000D01*
X92748331Y-137271000D01*
X92898059Y-137241217D01*
X93039100Y-137182796D01*
X93166034Y-137097982D01*
X93273982Y-136990034D01*
X93358796Y-136863100D01*
X93417217Y-136722059D01*
X93447000Y-136572331D01*
X93447000Y-136419669D01*
X93417217Y-136269941D01*
X93358796Y-136128900D01*
X93273982Y-136001966D01*
X93166034Y-135894018D01*
X93039100Y-135809204D01*
X92898059Y-135750783D01*
X92748331Y-135721000D01*
X92595669Y-135721000D01*
X92445941Y-135750783D01*
X92304900Y-135809204D01*
X92177966Y-135894018D01*
X92070018Y-136001966D01*
X91985204Y-136128900D01*
X91926783Y-136269941D01*
X91897000Y-136419669D01*
X82906000Y-136419669D01*
X82906000Y-136292669D01*
X82876217Y-136142941D01*
X82817796Y-136001900D01*
X82732982Y-135874966D01*
X82625034Y-135767018D01*
X82498100Y-135682204D01*
X82357059Y-135623783D01*
X82207331Y-135594000D01*
X82054669Y-135594000D01*
X81904941Y-135623783D01*
X81763900Y-135682204D01*
X81636966Y-135767018D01*
X81529018Y-135874966D01*
X81444204Y-136001900D01*
X81385783Y-136142941D01*
X81356000Y-136292669D01*
X81356000Y-136385922D01*
X81341059Y-136379733D01*
X81191331Y-136349950D01*
X81038669Y-136349950D01*
X80888941Y-136379733D01*
X80747900Y-136438154D01*
X80620966Y-136522968D01*
X80513018Y-136630916D01*
X80428204Y-136757850D01*
X80369783Y-136898891D01*
X80343000Y-137033537D01*
X80343000Y-136066585D01*
X80404796Y-135974100D01*
X80463217Y-135833059D01*
X80493000Y-135683331D01*
X80493000Y-135530669D01*
X80463217Y-135380941D01*
X80404796Y-135239900D01*
X80319982Y-135112966D01*
X80212034Y-135005018D01*
X80085100Y-134920204D01*
X79944059Y-134861783D01*
X79794331Y-134832000D01*
X79641669Y-134832000D01*
X79491941Y-134861783D01*
X79350900Y-134920204D01*
X79223966Y-135005018D01*
X79116018Y-135112966D01*
X79031204Y-135239900D01*
X78972783Y-135380941D01*
X78943000Y-135530669D01*
X78943000Y-135683331D01*
X78972783Y-135833059D01*
X79031204Y-135974100D01*
X79093000Y-136066585D01*
X79093001Y-138032276D01*
X79089977Y-138062980D01*
X79093001Y-138093684D01*
X79102044Y-138185501D01*
X79137782Y-138303314D01*
X79195818Y-138411891D01*
X79273921Y-138507060D01*
X79297772Y-138526634D01*
X79671127Y-138899990D01*
X55721891Y-138899990D01*
X55726814Y-138850000D01*
X55726814Y-137816669D01*
X67894000Y-137816669D01*
X67894000Y-137969331D01*
X67923783Y-138119059D01*
X67982204Y-138260100D01*
X68067018Y-138387034D01*
X68174966Y-138494982D01*
X68301900Y-138579796D01*
X68442941Y-138638217D01*
X68592669Y-138668000D01*
X68745331Y-138668000D01*
X68895059Y-138638217D01*
X69036100Y-138579796D01*
X69163034Y-138494982D01*
X69270982Y-138387034D01*
X69355796Y-138260100D01*
X69414217Y-138119059D01*
X69444000Y-137969331D01*
X69444000Y-137816669D01*
X69414217Y-137666941D01*
X69355796Y-137525900D01*
X69270982Y-137398966D01*
X69163034Y-137291018D01*
X69036100Y-137206204D01*
X68895059Y-137147783D01*
X68745331Y-137118000D01*
X68592669Y-137118000D01*
X68442941Y-137147783D01*
X68301900Y-137206204D01*
X68174966Y-137291018D01*
X68067018Y-137398966D01*
X67982204Y-137525900D01*
X67923783Y-137666941D01*
X67894000Y-137816669D01*
X55726814Y-137816669D01*
X55726814Y-137150000D01*
X55719574Y-137076487D01*
X55698131Y-137005800D01*
X55663309Y-136940653D01*
X55616448Y-136883552D01*
X55559347Y-136836691D01*
X55494200Y-136801869D01*
X55423513Y-136780426D01*
X55375000Y-136775648D01*
X55375000Y-135678669D01*
X58597500Y-135678669D01*
X58597500Y-135831331D01*
X58627283Y-135981059D01*
X58685704Y-136122100D01*
X58770518Y-136249034D01*
X58878466Y-136356982D01*
X59005400Y-136441796D01*
X59146441Y-136500217D01*
X59296169Y-136530000D01*
X59448831Y-136530000D01*
X59598559Y-136500217D01*
X59739600Y-136441796D01*
X59866534Y-136356982D01*
X59974482Y-136249034D01*
X60059296Y-136122100D01*
X60117717Y-135981059D01*
X60147500Y-135831331D01*
X60147500Y-135678669D01*
X60117717Y-135528941D01*
X60059296Y-135387900D01*
X59974482Y-135260966D01*
X59866534Y-135153018D01*
X59739600Y-135068204D01*
X59598559Y-135009783D01*
X59448831Y-134980000D01*
X59296169Y-134980000D01*
X59146441Y-135009783D01*
X59005400Y-135068204D01*
X58878466Y-135153018D01*
X58770518Y-135260966D01*
X58685704Y-135387900D01*
X58627283Y-135528941D01*
X58597500Y-135678669D01*
X55375000Y-135678669D01*
X55375000Y-131528436D01*
X55987267Y-130916169D01*
X58216500Y-130916169D01*
X58216500Y-131068831D01*
X58246283Y-131218559D01*
X58304704Y-131359600D01*
X58389518Y-131486534D01*
X58497466Y-131594482D01*
X58624400Y-131679296D01*
X58765441Y-131737717D01*
X58874535Y-131759417D01*
X60335001Y-133219885D01*
X60335000Y-135295415D01*
X60273204Y-135387900D01*
X60214783Y-135528941D01*
X60185000Y-135678669D01*
X60185000Y-135831331D01*
X60214783Y-135981059D01*
X60273204Y-136122100D01*
X60358018Y-136249034D01*
X60465966Y-136356982D01*
X60592900Y-136441796D01*
X60733941Y-136500217D01*
X60883669Y-136530000D01*
X61036331Y-136530000D01*
X61186059Y-136500217D01*
X61327100Y-136441796D01*
X61454034Y-136356982D01*
X61561982Y-136249034D01*
X61646796Y-136122100D01*
X61705217Y-135981059D01*
X61735000Y-135831331D01*
X61735000Y-135678669D01*
X61705561Y-135530669D01*
X77391000Y-135530669D01*
X77391000Y-135683331D01*
X77420783Y-135833059D01*
X77479204Y-135974100D01*
X77564018Y-136101034D01*
X77671966Y-136208982D01*
X77798900Y-136293796D01*
X77939941Y-136352217D01*
X78089669Y-136382000D01*
X78242331Y-136382000D01*
X78392059Y-136352217D01*
X78533100Y-136293796D01*
X78660034Y-136208982D01*
X78767982Y-136101034D01*
X78852796Y-135974100D01*
X78911217Y-135833059D01*
X78941000Y-135683331D01*
X78941000Y-135530669D01*
X78911217Y-135380941D01*
X78852796Y-135239900D01*
X78767982Y-135112966D01*
X78660034Y-135005018D01*
X78533100Y-134920204D01*
X78392059Y-134861783D01*
X78242331Y-134832000D01*
X78089669Y-134832000D01*
X77939941Y-134861783D01*
X77798900Y-134920204D01*
X77671966Y-135005018D01*
X77564018Y-135112966D01*
X77479204Y-135239900D01*
X77420783Y-135380941D01*
X77391000Y-135530669D01*
X61705561Y-135530669D01*
X61705217Y-135528941D01*
X61646796Y-135387900D01*
X61585000Y-135295415D01*
X61585000Y-132991693D01*
X61588023Y-132960999D01*
X61585000Y-132930305D01*
X61585000Y-132930296D01*
X61575957Y-132838479D01*
X61540219Y-132720666D01*
X61482183Y-132612089D01*
X61482182Y-132612087D01*
X61423652Y-132540768D01*
X61423649Y-132540765D01*
X61404080Y-132516920D01*
X61380235Y-132497351D01*
X59758417Y-130875535D01*
X59736717Y-130766441D01*
X59678296Y-130625400D01*
X59593482Y-130498466D01*
X59485534Y-130390518D01*
X59358600Y-130305704D01*
X59217559Y-130247283D01*
X59067831Y-130217500D01*
X58915169Y-130217500D01*
X58765441Y-130247283D01*
X58624400Y-130305704D01*
X58497466Y-130390518D01*
X58389518Y-130498466D01*
X58304704Y-130625400D01*
X58246283Y-130766441D01*
X58216500Y-130916169D01*
X55987267Y-130916169D01*
X58992767Y-127910669D01*
X66370000Y-127910669D01*
X66370000Y-128063331D01*
X66399783Y-128213059D01*
X66458204Y-128354100D01*
X66543018Y-128481034D01*
X66650966Y-128588982D01*
X66777900Y-128673796D01*
X66918941Y-128732217D01*
X67068669Y-128762000D01*
X67221331Y-128762000D01*
X67371059Y-128732217D01*
X67512100Y-128673796D01*
X67639034Y-128588982D01*
X67682347Y-128545669D01*
X81991000Y-128545669D01*
X81991000Y-128698331D01*
X82020783Y-128848059D01*
X82079204Y-128989100D01*
X82164018Y-129116034D01*
X82271966Y-129223982D01*
X82398900Y-129308796D01*
X82539941Y-129367217D01*
X82649035Y-129388917D01*
X83406347Y-130146230D01*
X83425921Y-130170081D01*
X83449770Y-130189653D01*
X83521088Y-130248183D01*
X83521090Y-130248184D01*
X83629667Y-130306220D01*
X83747480Y-130341958D01*
X83839297Y-130351001D01*
X83839306Y-130351001D01*
X83870000Y-130354024D01*
X83900694Y-130351001D01*
X91283305Y-130351001D01*
X91313999Y-130354024D01*
X91344693Y-130351001D01*
X91344703Y-130351001D01*
X91436520Y-130341958D01*
X91554333Y-130306220D01*
X91662910Y-130248184D01*
X91758079Y-130170081D01*
X91777657Y-130146225D01*
X92034624Y-129889258D01*
X92024000Y-129942669D01*
X92024000Y-130095331D01*
X92053783Y-130245059D01*
X92112204Y-130386100D01*
X92197018Y-130513034D01*
X92304966Y-130620982D01*
X92431900Y-130705796D01*
X92572941Y-130764217D01*
X92722669Y-130794000D01*
X92875331Y-130794000D01*
X93025059Y-130764217D01*
X93166100Y-130705796D01*
X93293034Y-130620982D01*
X93400982Y-130513034D01*
X93485796Y-130386100D01*
X93544217Y-130245059D01*
X93574000Y-130095331D01*
X93574000Y-129942669D01*
X93544217Y-129792941D01*
X93485796Y-129651900D01*
X93400982Y-129524966D01*
X93293034Y-129417018D01*
X93166100Y-129332204D01*
X93025059Y-129273783D01*
X92875331Y-129244000D01*
X92776028Y-129244000D01*
X92782217Y-129229059D01*
X92812000Y-129079331D01*
X92812000Y-128926669D01*
X92782217Y-128776941D01*
X92723796Y-128635900D01*
X92638982Y-128508966D01*
X92531034Y-128401018D01*
X92404100Y-128316204D01*
X92263059Y-128257783D01*
X92113331Y-128228000D01*
X91960669Y-128228000D01*
X91810941Y-128257783D01*
X91669900Y-128316204D01*
X91542966Y-128401018D01*
X91435018Y-128508966D01*
X91350204Y-128635900D01*
X91291783Y-128776941D01*
X91270083Y-128886035D01*
X91055117Y-129101001D01*
X89353427Y-129101001D01*
X89383000Y-128952331D01*
X89383000Y-128799669D01*
X89353217Y-128649941D01*
X89294796Y-128508900D01*
X89209982Y-128381966D01*
X89102034Y-128274018D01*
X88975100Y-128189204D01*
X88834059Y-128130783D01*
X88684331Y-128101000D01*
X88531669Y-128101000D01*
X88381941Y-128130783D01*
X88240900Y-128189204D01*
X88113966Y-128274018D01*
X88006018Y-128381966D01*
X87921204Y-128508900D01*
X87862783Y-128649941D01*
X87833000Y-128799669D01*
X87833000Y-128952331D01*
X87862573Y-129101001D01*
X86680027Y-129101001D01*
X86754796Y-128989100D01*
X86813217Y-128848059D01*
X86843000Y-128698331D01*
X86843000Y-128545669D01*
X86813217Y-128395941D01*
X86754796Y-128254900D01*
X86669982Y-128127966D01*
X86562034Y-128020018D01*
X86435100Y-127935204D01*
X86294059Y-127876783D01*
X86144331Y-127847000D01*
X85991669Y-127847000D01*
X85841941Y-127876783D01*
X85700900Y-127935204D01*
X85573966Y-128020018D01*
X85466018Y-128127966D01*
X85381204Y-128254900D01*
X85322783Y-128395941D01*
X85293000Y-128545669D01*
X85293000Y-128698331D01*
X85322783Y-128848059D01*
X85381204Y-128989100D01*
X85455973Y-129101001D01*
X84128884Y-129101001D01*
X83532917Y-128505035D01*
X83511217Y-128395941D01*
X83452796Y-128254900D01*
X83367982Y-128127966D01*
X83260034Y-128020018D01*
X83133100Y-127935204D01*
X82992059Y-127876783D01*
X82842331Y-127847000D01*
X82689669Y-127847000D01*
X82539941Y-127876783D01*
X82398900Y-127935204D01*
X82271966Y-128020018D01*
X82164018Y-128127966D01*
X82079204Y-128254900D01*
X82020783Y-128395941D01*
X81991000Y-128545669D01*
X67682347Y-128545669D01*
X67746982Y-128481034D01*
X67831796Y-128354100D01*
X67890217Y-128213059D01*
X67920000Y-128063331D01*
X67920000Y-127910669D01*
X67890217Y-127760941D01*
X67831796Y-127619900D01*
X67746982Y-127492966D01*
X67639034Y-127385018D01*
X67512100Y-127300204D01*
X67371059Y-127241783D01*
X67221331Y-127212000D01*
X67068669Y-127212000D01*
X66918941Y-127241783D01*
X66777900Y-127300204D01*
X66650966Y-127385018D01*
X66543018Y-127492966D01*
X66458204Y-127619900D01*
X66399783Y-127760941D01*
X66370000Y-127910669D01*
X58992767Y-127910669D01*
X59704109Y-127199328D01*
X59786055Y-127099476D01*
X59867305Y-126947468D01*
X59917339Y-126782530D01*
X59934233Y-126611000D01*
X59926716Y-126534669D01*
X62598000Y-126534669D01*
X62598000Y-126687331D01*
X62627783Y-126837059D01*
X62686204Y-126978100D01*
X62771018Y-127105034D01*
X62878966Y-127212982D01*
X63005900Y-127297796D01*
X63146941Y-127356217D01*
X63296669Y-127386000D01*
X63449331Y-127386000D01*
X63599059Y-127356217D01*
X63740100Y-127297796D01*
X63867034Y-127212982D01*
X63974982Y-127105034D01*
X64059796Y-126978100D01*
X64118217Y-126837059D01*
X64148000Y-126687331D01*
X64148000Y-126534669D01*
X64118561Y-126386669D01*
X72466000Y-126386669D01*
X72466000Y-126539331D01*
X72495783Y-126689059D01*
X72554204Y-126830100D01*
X72639018Y-126957034D01*
X72746966Y-127064982D01*
X72873900Y-127149796D01*
X73014941Y-127208217D01*
X73164669Y-127238000D01*
X73317331Y-127238000D01*
X73467059Y-127208217D01*
X73608100Y-127149796D01*
X73735034Y-127064982D01*
X73824847Y-126975169D01*
X76819500Y-126975169D01*
X76819500Y-127127831D01*
X76849283Y-127277559D01*
X76907704Y-127418600D01*
X76992518Y-127545534D01*
X77100466Y-127653482D01*
X77227400Y-127738296D01*
X77368441Y-127796717D01*
X77518169Y-127826500D01*
X77670831Y-127826500D01*
X77820559Y-127796717D01*
X77961600Y-127738296D01*
X78088534Y-127653482D01*
X78196482Y-127545534D01*
X78281296Y-127418600D01*
X78339717Y-127277559D01*
X78369500Y-127127831D01*
X78369500Y-126975169D01*
X78339717Y-126825441D01*
X78281296Y-126684400D01*
X78252077Y-126640669D01*
X89865000Y-126640669D01*
X89865000Y-126793331D01*
X89894783Y-126943059D01*
X89953204Y-127084100D01*
X90038018Y-127211034D01*
X90145966Y-127318982D01*
X90272900Y-127403796D01*
X90413941Y-127462217D01*
X90563669Y-127492000D01*
X90716331Y-127492000D01*
X90866059Y-127462217D01*
X91007100Y-127403796D01*
X91134034Y-127318982D01*
X91241982Y-127211034D01*
X91326796Y-127084100D01*
X91385217Y-126943059D01*
X91415000Y-126793331D01*
X91415000Y-126640669D01*
X91385217Y-126490941D01*
X91326796Y-126349900D01*
X91241982Y-126222966D01*
X91134034Y-126115018D01*
X91007100Y-126030204D01*
X90866059Y-125971783D01*
X90716331Y-125942000D01*
X90563669Y-125942000D01*
X90413941Y-125971783D01*
X90272900Y-126030204D01*
X90145966Y-126115018D01*
X90038018Y-126222966D01*
X89953204Y-126349900D01*
X89894783Y-126490941D01*
X89865000Y-126640669D01*
X78252077Y-126640669D01*
X78196482Y-126557466D01*
X78088534Y-126449518D01*
X77961600Y-126364704D01*
X77820559Y-126306283D01*
X77670831Y-126276500D01*
X77518169Y-126276500D01*
X77368441Y-126306283D01*
X77227400Y-126364704D01*
X77100466Y-126449518D01*
X76992518Y-126557466D01*
X76907704Y-126684400D01*
X76849283Y-126825441D01*
X76819500Y-126975169D01*
X73824847Y-126975169D01*
X73842982Y-126957034D01*
X73927796Y-126830100D01*
X73986217Y-126689059D01*
X74016000Y-126539331D01*
X74016000Y-126386669D01*
X73986217Y-126236941D01*
X73927796Y-126095900D01*
X73842982Y-125968966D01*
X73735034Y-125861018D01*
X73608100Y-125776204D01*
X73467059Y-125717783D01*
X73317331Y-125688000D01*
X73164669Y-125688000D01*
X73014941Y-125717783D01*
X72873900Y-125776204D01*
X72746966Y-125861018D01*
X72639018Y-125968966D01*
X72554204Y-126095900D01*
X72495783Y-126236941D01*
X72466000Y-126386669D01*
X64118561Y-126386669D01*
X64118217Y-126384941D01*
X64059796Y-126243900D01*
X63974982Y-126116966D01*
X63867034Y-126009018D01*
X63740100Y-125924204D01*
X63599059Y-125865783D01*
X63449331Y-125836000D01*
X63296669Y-125836000D01*
X63146941Y-125865783D01*
X63005900Y-125924204D01*
X62878966Y-126009018D01*
X62771018Y-126116966D01*
X62686204Y-126243900D01*
X62627783Y-126384941D01*
X62598000Y-126534669D01*
X59926716Y-126534669D01*
X59917339Y-126439470D01*
X59867305Y-126274533D01*
X59786055Y-126122525D01*
X59676711Y-125989289D01*
X59543475Y-125879945D01*
X59391467Y-125798695D01*
X59226530Y-125748661D01*
X59055000Y-125731767D01*
X58883470Y-125748661D01*
X58718532Y-125798695D01*
X58566524Y-125879945D01*
X58466672Y-125961891D01*
X53911681Y-130516883D01*
X53878288Y-130544288D01*
X53768944Y-130677525D01*
X53722607Y-130764217D01*
X53687695Y-130829533D01*
X53637661Y-130994471D01*
X53620767Y-131166000D01*
X53625000Y-131208979D01*
X53625001Y-136775648D01*
X53576487Y-136780426D01*
X53505800Y-136801869D01*
X53440653Y-136836691D01*
X53383552Y-136883552D01*
X53336691Y-136940653D01*
X53301869Y-137005800D01*
X53280426Y-137076487D01*
X53273186Y-137150000D01*
X53273186Y-138850000D01*
X53278109Y-138899990D01*
X52792421Y-138899990D01*
X52911519Y-138780892D01*
X53045581Y-138580255D01*
X53137924Y-138357319D01*
X53185000Y-138120652D01*
X53185000Y-137879348D01*
X53137924Y-137642681D01*
X53045581Y-137419745D01*
X52911519Y-137219108D01*
X52740892Y-137048481D01*
X52540255Y-136914419D01*
X52317319Y-136822076D01*
X52080652Y-136775000D01*
X51839348Y-136775000D01*
X51602681Y-136822076D01*
X51379745Y-136914419D01*
X51179108Y-137048481D01*
X51133000Y-137094589D01*
X51133000Y-135611882D01*
X52783966Y-133960917D01*
X52893059Y-133939217D01*
X53034100Y-133880796D01*
X53161034Y-133795982D01*
X53268982Y-133688034D01*
X53353796Y-133561100D01*
X53412217Y-133420059D01*
X53442000Y-133270331D01*
X53442000Y-133117669D01*
X53412217Y-132967941D01*
X53353796Y-132826900D01*
X53268982Y-132699966D01*
X53161034Y-132592018D01*
X53034100Y-132507204D01*
X52893059Y-132448783D01*
X52743331Y-132419000D01*
X52590669Y-132419000D01*
X52440941Y-132448783D01*
X52299900Y-132507204D01*
X52172966Y-132592018D01*
X52065018Y-132699966D01*
X51980204Y-132826900D01*
X51921783Y-132967941D01*
X51900083Y-133077034D01*
X50400000Y-134577118D01*
X50400000Y-127783669D01*
X53924000Y-127783669D01*
X53924000Y-127936331D01*
X53953783Y-128086059D01*
X54012204Y-128227100D01*
X54097018Y-128354034D01*
X54204966Y-128461982D01*
X54331900Y-128546796D01*
X54472941Y-128605217D01*
X54622669Y-128635000D01*
X54775331Y-128635000D01*
X54925059Y-128605217D01*
X55066100Y-128546796D01*
X55193034Y-128461982D01*
X55300982Y-128354034D01*
X55385796Y-128227100D01*
X55444217Y-128086059D01*
X55474000Y-127936331D01*
X55474000Y-127783669D01*
X55444217Y-127633941D01*
X55385796Y-127492900D01*
X55300982Y-127365966D01*
X55193034Y-127258018D01*
X55066100Y-127173204D01*
X54925059Y-127114783D01*
X54775331Y-127085000D01*
X54622669Y-127085000D01*
X54472941Y-127114783D01*
X54331900Y-127173204D01*
X54204966Y-127258018D01*
X54097018Y-127365966D01*
X54012204Y-127492900D01*
X53953783Y-127633941D01*
X53924000Y-127783669D01*
X50400000Y-127783669D01*
X50400000Y-125624669D01*
X84531000Y-125624669D01*
X84531000Y-125777331D01*
X84560783Y-125927059D01*
X84619204Y-126068100D01*
X84704018Y-126195034D01*
X84811966Y-126302982D01*
X84938900Y-126387796D01*
X85079941Y-126446217D01*
X85229669Y-126476000D01*
X85382331Y-126476000D01*
X85532059Y-126446217D01*
X85673100Y-126387796D01*
X85800034Y-126302982D01*
X85907982Y-126195034D01*
X85992796Y-126068100D01*
X86051217Y-125927059D01*
X86081000Y-125777331D01*
X86081000Y-125624669D01*
X86051217Y-125474941D01*
X85992796Y-125333900D01*
X85907982Y-125206966D01*
X85800034Y-125099018D01*
X85673100Y-125014204D01*
X85532059Y-124955783D01*
X85382331Y-124926000D01*
X85229669Y-124926000D01*
X85079941Y-124955783D01*
X84938900Y-125014204D01*
X84811966Y-125099018D01*
X84704018Y-125206966D01*
X84619204Y-125333900D01*
X84560783Y-125474941D01*
X84531000Y-125624669D01*
X50400000Y-125624669D01*
X50400000Y-124582170D01*
X89865000Y-124582170D01*
X89865000Y-124734832D01*
X89894783Y-124884560D01*
X89953204Y-125025601D01*
X90038018Y-125152535D01*
X90145966Y-125260483D01*
X90272900Y-125345297D01*
X90413941Y-125403718D01*
X90563669Y-125433501D01*
X90716331Y-125433501D01*
X90866059Y-125403718D01*
X91007100Y-125345297D01*
X91134034Y-125260483D01*
X91241982Y-125152535D01*
X91326796Y-125025601D01*
X91385217Y-124884560D01*
X91415000Y-124734832D01*
X91415000Y-124582170D01*
X91385217Y-124432442D01*
X91326796Y-124291401D01*
X91241982Y-124164467D01*
X91134034Y-124056519D01*
X91007100Y-123971705D01*
X90866059Y-123913284D01*
X90716331Y-123883501D01*
X90563669Y-123883501D01*
X90413941Y-123913284D01*
X90272900Y-123971705D01*
X90145966Y-124056519D01*
X90038018Y-124164467D01*
X89953204Y-124291401D01*
X89894783Y-124432442D01*
X89865000Y-124582170D01*
X50400000Y-124582170D01*
X50400000Y-123071270D01*
X50506584Y-123142487D01*
X50638525Y-123197139D01*
X50778594Y-123225000D01*
X50921406Y-123225000D01*
X51061475Y-123197139D01*
X51193416Y-123142487D01*
X51312161Y-123063144D01*
X51413144Y-122962161D01*
X51492487Y-122843416D01*
X51547139Y-122711475D01*
X51575000Y-122571406D01*
X51575000Y-122428594D01*
X51925000Y-122428594D01*
X51925000Y-122571406D01*
X51952861Y-122711475D01*
X52007513Y-122843416D01*
X52086856Y-122962161D01*
X52187839Y-123063144D01*
X52306584Y-123142487D01*
X52438525Y-123197139D01*
X52578594Y-123225000D01*
X52721406Y-123225000D01*
X52788426Y-123211669D01*
X68529000Y-123211669D01*
X68529000Y-123364331D01*
X68558783Y-123514059D01*
X68617204Y-123655100D01*
X68702018Y-123782034D01*
X68809966Y-123889982D01*
X68936900Y-123974796D01*
X69077941Y-124033217D01*
X69227669Y-124063000D01*
X69380331Y-124063000D01*
X69530059Y-124033217D01*
X69671100Y-123974796D01*
X69798034Y-123889982D01*
X69905982Y-123782034D01*
X69990796Y-123655100D01*
X70049217Y-123514059D01*
X70079000Y-123364331D01*
X70079000Y-123211669D01*
X70049217Y-123061941D01*
X69990796Y-122920900D01*
X69905982Y-122793966D01*
X69798034Y-122686018D01*
X69671100Y-122601204D01*
X69530059Y-122542783D01*
X69380331Y-122513000D01*
X69227669Y-122513000D01*
X69077941Y-122542783D01*
X68936900Y-122601204D01*
X68809966Y-122686018D01*
X68702018Y-122793966D01*
X68617204Y-122920900D01*
X68558783Y-123061941D01*
X68529000Y-123211669D01*
X52788426Y-123211669D01*
X52861475Y-123197139D01*
X52993416Y-123142487D01*
X53112161Y-123063144D01*
X53213144Y-122962161D01*
X53292487Y-122843416D01*
X53347139Y-122711475D01*
X53375000Y-122571406D01*
X53375000Y-122428594D01*
X53347139Y-122288525D01*
X53292487Y-122156584D01*
X53213144Y-122037839D01*
X53112161Y-121936856D01*
X52993416Y-121857513D01*
X52861475Y-121802861D01*
X52721406Y-121775000D01*
X52578594Y-121775000D01*
X52438525Y-121802861D01*
X52306584Y-121857513D01*
X52187839Y-121936856D01*
X52086856Y-122037839D01*
X52007513Y-122156584D01*
X51952861Y-122288525D01*
X51925000Y-122428594D01*
X51575000Y-122428594D01*
X51547139Y-122288525D01*
X51492487Y-122156584D01*
X51413144Y-122037839D01*
X51312161Y-121936856D01*
X51193416Y-121857513D01*
X51061475Y-121802861D01*
X50921406Y-121775000D01*
X50778594Y-121775000D01*
X50638525Y-121802861D01*
X50506584Y-121857513D01*
X50400000Y-121928730D01*
X50400000Y-121560669D01*
X56591000Y-121560669D01*
X56591000Y-121713331D01*
X56620783Y-121863059D01*
X56679204Y-122004100D01*
X56764018Y-122131034D01*
X56871966Y-122238982D01*
X56998900Y-122323796D01*
X57139941Y-122382217D01*
X57289669Y-122412000D01*
X57442331Y-122412000D01*
X57592059Y-122382217D01*
X57733100Y-122323796D01*
X57860034Y-122238982D01*
X57967982Y-122131034D01*
X58052796Y-122004100D01*
X58111217Y-121863059D01*
X58141000Y-121713331D01*
X58141000Y-121560669D01*
X58111217Y-121410941D01*
X58052796Y-121269900D01*
X57967982Y-121142966D01*
X57860034Y-121035018D01*
X57733100Y-120950204D01*
X57592059Y-120891783D01*
X57442331Y-120862000D01*
X57289669Y-120862000D01*
X57139941Y-120891783D01*
X56998900Y-120950204D01*
X56871966Y-121035018D01*
X56764018Y-121142966D01*
X56679204Y-121269900D01*
X56620783Y-121410941D01*
X56591000Y-121560669D01*
X50400000Y-121560669D01*
X50400000Y-119986000D01*
X63598767Y-119986000D01*
X63615661Y-120157529D01*
X63665695Y-120322467D01*
X63746945Y-120474475D01*
X63828891Y-120574327D01*
X65352888Y-122098325D01*
X65380288Y-122131712D01*
X65513524Y-122241056D01*
X65665532Y-122322305D01*
X65771565Y-122354470D01*
X65830469Y-122372339D01*
X66001999Y-122389233D01*
X66044978Y-122385000D01*
X75164564Y-122385000D01*
X75954672Y-123175109D01*
X76054524Y-123257055D01*
X76206532Y-123338305D01*
X76371470Y-123388339D01*
X76543000Y-123405233D01*
X76714529Y-123388339D01*
X76879467Y-123338305D01*
X76883814Y-123335981D01*
X81950000Y-123335981D01*
X81950000Y-123464019D01*
X81974979Y-123589598D01*
X82023978Y-123707890D01*
X82095112Y-123814351D01*
X82185649Y-123904888D01*
X82292110Y-123976022D01*
X82410402Y-124025021D01*
X82535981Y-124050000D01*
X82664019Y-124050000D01*
X82789598Y-124025021D01*
X82907890Y-123976022D01*
X83014351Y-123904888D01*
X83104888Y-123814351D01*
X83176022Y-123707890D01*
X83225021Y-123589598D01*
X83250000Y-123464019D01*
X83250000Y-123335981D01*
X83750000Y-123335981D01*
X83750000Y-123464019D01*
X83774979Y-123589598D01*
X83823978Y-123707890D01*
X83895112Y-123814351D01*
X83985649Y-123904888D01*
X84092110Y-123976022D01*
X84210402Y-124025021D01*
X84335981Y-124050000D01*
X84464019Y-124050000D01*
X84589598Y-124025021D01*
X84707890Y-123976022D01*
X84814351Y-123904888D01*
X84904888Y-123814351D01*
X84976022Y-123707890D01*
X85025021Y-123589598D01*
X85050000Y-123464019D01*
X85050000Y-123335981D01*
X85025021Y-123210402D01*
X84976022Y-123092110D01*
X84904888Y-122985649D01*
X84814351Y-122895112D01*
X84707890Y-122823978D01*
X84589598Y-122774979D01*
X84464019Y-122750000D01*
X84335981Y-122750000D01*
X84210402Y-122774979D01*
X84092110Y-122823978D01*
X83985649Y-122895112D01*
X83895112Y-122985649D01*
X83823978Y-123092110D01*
X83774979Y-123210402D01*
X83750000Y-123335981D01*
X83250000Y-123335981D01*
X83225021Y-123210402D01*
X83176022Y-123092110D01*
X83104888Y-122985649D01*
X83014351Y-122895112D01*
X82907890Y-122823978D01*
X82789598Y-122774979D01*
X82664019Y-122750000D01*
X82535981Y-122750000D01*
X82410402Y-122774979D01*
X82292110Y-122823978D01*
X82185649Y-122895112D01*
X82095112Y-122985649D01*
X82023978Y-123092110D01*
X81974979Y-123210402D01*
X81950000Y-123335981D01*
X76883814Y-123335981D01*
X77031475Y-123257055D01*
X77164711Y-123147711D01*
X77274055Y-123014475D01*
X77355305Y-122862467D01*
X77405339Y-122697529D01*
X77422233Y-122526000D01*
X77414716Y-122449669D01*
X90500000Y-122449669D01*
X90500000Y-122602331D01*
X90529783Y-122752059D01*
X90588204Y-122893100D01*
X90673018Y-123020034D01*
X90780966Y-123127982D01*
X90907900Y-123212796D01*
X91048941Y-123271217D01*
X91198669Y-123301000D01*
X91351331Y-123301000D01*
X91501059Y-123271217D01*
X91642100Y-123212796D01*
X91769034Y-123127982D01*
X91876982Y-123020034D01*
X91961796Y-122893100D01*
X92020217Y-122752059D01*
X92050000Y-122602331D01*
X92050000Y-122449669D01*
X92020217Y-122299941D01*
X91961796Y-122158900D01*
X91876982Y-122031966D01*
X91769034Y-121924018D01*
X91642100Y-121839204D01*
X91501059Y-121780783D01*
X91351331Y-121751000D01*
X91198669Y-121751000D01*
X91048941Y-121780783D01*
X90907900Y-121839204D01*
X90780966Y-121924018D01*
X90673018Y-122031966D01*
X90588204Y-122158900D01*
X90529783Y-122299941D01*
X90500000Y-122449669D01*
X77414716Y-122449669D01*
X77405339Y-122354470D01*
X77355305Y-122189532D01*
X77274055Y-122037524D01*
X77192109Y-121937672D01*
X76790418Y-121535981D01*
X81950000Y-121535981D01*
X81950000Y-121664019D01*
X81974979Y-121789598D01*
X82023978Y-121907890D01*
X82095112Y-122014351D01*
X82185649Y-122104888D01*
X82292110Y-122176022D01*
X82410402Y-122225021D01*
X82535981Y-122250000D01*
X82664019Y-122250000D01*
X82789598Y-122225021D01*
X82907890Y-122176022D01*
X83014351Y-122104888D01*
X83104888Y-122014351D01*
X83176022Y-121907890D01*
X83225021Y-121789598D01*
X83250000Y-121664019D01*
X83250000Y-121535981D01*
X83750000Y-121535981D01*
X83750000Y-121664019D01*
X83774979Y-121789598D01*
X83823978Y-121907890D01*
X83895112Y-122014351D01*
X83985649Y-122104888D01*
X84092110Y-122176022D01*
X84210402Y-122225021D01*
X84335981Y-122250000D01*
X84464019Y-122250000D01*
X84589598Y-122225021D01*
X84707890Y-122176022D01*
X84814351Y-122104888D01*
X84904888Y-122014351D01*
X84976022Y-121907890D01*
X85025021Y-121789598D01*
X85050000Y-121664019D01*
X85050000Y-121535981D01*
X85025021Y-121410402D01*
X84976022Y-121292110D01*
X84904888Y-121185649D01*
X84814351Y-121095112D01*
X84707890Y-121023978D01*
X84589598Y-120974979D01*
X84464019Y-120950000D01*
X84335981Y-120950000D01*
X84210402Y-120974979D01*
X84092110Y-121023978D01*
X83985649Y-121095112D01*
X83895112Y-121185649D01*
X83823978Y-121292110D01*
X83774979Y-121410402D01*
X83750000Y-121535981D01*
X83250000Y-121535981D01*
X83225021Y-121410402D01*
X83176022Y-121292110D01*
X83104888Y-121185649D01*
X83014351Y-121095112D01*
X82907890Y-121023978D01*
X82789598Y-120974979D01*
X82664019Y-120950000D01*
X82535981Y-120950000D01*
X82410402Y-120974979D01*
X82292110Y-121023978D01*
X82185649Y-121095112D01*
X82095112Y-121185649D01*
X82023978Y-121292110D01*
X81974979Y-121410402D01*
X81950000Y-121535981D01*
X76790418Y-121535981D01*
X76176116Y-120921680D01*
X76148712Y-120888288D01*
X76015476Y-120778944D01*
X75863468Y-120697695D01*
X75698530Y-120647661D01*
X75569979Y-120635000D01*
X75527000Y-120630767D01*
X75484021Y-120635000D01*
X66364437Y-120635000D01*
X65983106Y-120253669D01*
X77003241Y-120253669D01*
X77003241Y-120406331D01*
X77033024Y-120556059D01*
X77091445Y-120697100D01*
X77176259Y-120824034D01*
X77284207Y-120931982D01*
X77411141Y-121016796D01*
X77552182Y-121075217D01*
X77701910Y-121105000D01*
X77854572Y-121105000D01*
X78004300Y-121075217D01*
X78145341Y-121016796D01*
X78272275Y-120931982D01*
X78380223Y-120824034D01*
X78465037Y-120697100D01*
X78523458Y-120556059D01*
X78553241Y-120406331D01*
X78553241Y-120253669D01*
X78523458Y-120103941D01*
X78465037Y-119962900D01*
X78380223Y-119835966D01*
X78272275Y-119728018D01*
X78145341Y-119643204D01*
X78004300Y-119584783D01*
X77854572Y-119555000D01*
X77701910Y-119555000D01*
X77552182Y-119584783D01*
X77411141Y-119643204D01*
X77284207Y-119728018D01*
X77176259Y-119835966D01*
X77091445Y-119962900D01*
X77033024Y-120103941D01*
X77003241Y-120253669D01*
X65983106Y-120253669D01*
X65066327Y-119336891D01*
X64966475Y-119254945D01*
X64814467Y-119173695D01*
X64649529Y-119123661D01*
X64478000Y-119106767D01*
X64306471Y-119123661D01*
X64141533Y-119173695D01*
X63989525Y-119254945D01*
X63856289Y-119364289D01*
X63746945Y-119497525D01*
X63665695Y-119649533D01*
X63615661Y-119814471D01*
X63598767Y-119986000D01*
X50400000Y-119986000D01*
X50400000Y-118843000D01*
X66900767Y-118843000D01*
X66917661Y-119014529D01*
X66967695Y-119179467D01*
X67048945Y-119331475D01*
X67158289Y-119464711D01*
X67291525Y-119574055D01*
X67443533Y-119655305D01*
X67608471Y-119705339D01*
X67780000Y-119722233D01*
X67951529Y-119705339D01*
X68116467Y-119655305D01*
X68268475Y-119574055D01*
X68368327Y-119492109D01*
X69036767Y-118823669D01*
X69734000Y-118823669D01*
X69734000Y-118976331D01*
X69763783Y-119126059D01*
X69822204Y-119267100D01*
X69907018Y-119394034D01*
X70014966Y-119501982D01*
X70141900Y-119586796D01*
X70282941Y-119645217D01*
X70432669Y-119675000D01*
X70585331Y-119675000D01*
X70735059Y-119645217D01*
X70876100Y-119586796D01*
X71003034Y-119501982D01*
X71110982Y-119394034D01*
X71195796Y-119267100D01*
X71254217Y-119126059D01*
X71284000Y-118976331D01*
X71284000Y-118823669D01*
X71254217Y-118673941D01*
X71195796Y-118532900D01*
X71110982Y-118405966D01*
X71003034Y-118298018D01*
X70876100Y-118213204D01*
X70735059Y-118154783D01*
X70585331Y-118125000D01*
X70432669Y-118125000D01*
X70282941Y-118154783D01*
X70141900Y-118213204D01*
X70014966Y-118298018D01*
X69907018Y-118405966D01*
X69822204Y-118532900D01*
X69763783Y-118673941D01*
X69734000Y-118823669D01*
X69036767Y-118823669D01*
X70428437Y-117432000D01*
X85729979Y-117432000D01*
X85858530Y-117419339D01*
X86023468Y-117369305D01*
X86175476Y-117288056D01*
X86308712Y-117178712D01*
X86418056Y-117045476D01*
X86499305Y-116893468D01*
X86549339Y-116728530D01*
X86566233Y-116557000D01*
X86549339Y-116385470D01*
X86499305Y-116220532D01*
X86418056Y-116068524D01*
X86308712Y-115935288D01*
X86175476Y-115825944D01*
X86023468Y-115744695D01*
X85858530Y-115694661D01*
X85825209Y-115691379D01*
X85925600Y-115649796D01*
X86052534Y-115564982D01*
X86160482Y-115457034D01*
X86245296Y-115330100D01*
X86303717Y-115189059D01*
X86333500Y-115039331D01*
X86333500Y-114886669D01*
X86303717Y-114736941D01*
X86245296Y-114595900D01*
X86160482Y-114468966D01*
X86052534Y-114361018D01*
X85925600Y-114276204D01*
X85784559Y-114217783D01*
X85634831Y-114188000D01*
X85482169Y-114188000D01*
X85332441Y-114217783D01*
X85191400Y-114276204D01*
X85064466Y-114361018D01*
X84956518Y-114468966D01*
X84871704Y-114595900D01*
X84813283Y-114736941D01*
X84794434Y-114831702D01*
X82111109Y-114831702D01*
X82018624Y-114769906D01*
X81877583Y-114711485D01*
X81727855Y-114681702D01*
X81575193Y-114681702D01*
X81425465Y-114711485D01*
X81284424Y-114769906D01*
X81157490Y-114854720D01*
X81049542Y-114962668D01*
X80964728Y-115089602D01*
X80906307Y-115230643D01*
X80876524Y-115380371D01*
X80876524Y-115533033D01*
X80906156Y-115682000D01*
X79048844Y-115682000D01*
X79066217Y-115640059D01*
X79096000Y-115490331D01*
X79096000Y-115337669D01*
X79066217Y-115187941D01*
X79007796Y-115046900D01*
X78922982Y-114919966D01*
X78815034Y-114812018D01*
X78688100Y-114727204D01*
X78547059Y-114668783D01*
X78397331Y-114639000D01*
X78244669Y-114639000D01*
X78094941Y-114668783D01*
X77953900Y-114727204D01*
X77826966Y-114812018D01*
X77719018Y-114919966D01*
X77634204Y-115046900D01*
X77575783Y-115187941D01*
X77546000Y-115337669D01*
X77546000Y-115490331D01*
X77575783Y-115640059D01*
X77593156Y-115682000D01*
X72798353Y-115682000D01*
X72876100Y-115649796D01*
X73003034Y-115564982D01*
X73110982Y-115457034D01*
X73195796Y-115330100D01*
X73254217Y-115189059D01*
X73284000Y-115039331D01*
X73284000Y-114886669D01*
X73254217Y-114736941D01*
X73195796Y-114595900D01*
X73110982Y-114468966D01*
X73003034Y-114361018D01*
X72876100Y-114276204D01*
X72735059Y-114217783D01*
X72585331Y-114188000D01*
X72432669Y-114188000D01*
X72282941Y-114217783D01*
X72141900Y-114276204D01*
X72014966Y-114361018D01*
X71907018Y-114468966D01*
X71822204Y-114595900D01*
X71763783Y-114736941D01*
X71742083Y-114846034D01*
X71672117Y-114916000D01*
X69001585Y-114916000D01*
X68909100Y-114854204D01*
X68768059Y-114795783D01*
X68618331Y-114766000D01*
X68465669Y-114766000D01*
X68315941Y-114795783D01*
X68174900Y-114854204D01*
X68047966Y-114939018D01*
X67940018Y-115046966D01*
X67855204Y-115173900D01*
X67796783Y-115314941D01*
X67767000Y-115464669D01*
X67767000Y-115617331D01*
X67796783Y-115767059D01*
X67855204Y-115908100D01*
X67940018Y-116035034D01*
X68047966Y-116142982D01*
X68174900Y-116227796D01*
X68315941Y-116286217D01*
X68465669Y-116316000D01*
X68618331Y-116316000D01*
X68768059Y-116286217D01*
X68909100Y-116227796D01*
X69001585Y-116166000D01*
X69219563Y-116166000D01*
X67130891Y-118254673D01*
X67048945Y-118354525D01*
X66967695Y-118506533D01*
X66917661Y-118671471D01*
X66900767Y-118843000D01*
X50400000Y-118843000D01*
X50400000Y-117934669D01*
X63733000Y-117934669D01*
X63733000Y-118087331D01*
X63762783Y-118237059D01*
X63821204Y-118378100D01*
X63906018Y-118505034D01*
X64013966Y-118612982D01*
X64140900Y-118697796D01*
X64281941Y-118756217D01*
X64431669Y-118786000D01*
X64584331Y-118786000D01*
X64734059Y-118756217D01*
X64875100Y-118697796D01*
X65002034Y-118612982D01*
X65109982Y-118505034D01*
X65194796Y-118378100D01*
X65253217Y-118237059D01*
X65283000Y-118087331D01*
X65283000Y-117934669D01*
X65253217Y-117784941D01*
X65194796Y-117643900D01*
X65109982Y-117516966D01*
X65002034Y-117409018D01*
X64875100Y-117324204D01*
X64734059Y-117265783D01*
X64584331Y-117236000D01*
X64431669Y-117236000D01*
X64281941Y-117265783D01*
X64140900Y-117324204D01*
X64013966Y-117409018D01*
X63906018Y-117516966D01*
X63821204Y-117643900D01*
X63762783Y-117784941D01*
X63733000Y-117934669D01*
X50400000Y-117934669D01*
X50400000Y-116734669D01*
X52654000Y-116734669D01*
X52654000Y-116887331D01*
X52683783Y-117037059D01*
X52742204Y-117178100D01*
X52827018Y-117305034D01*
X52934966Y-117412982D01*
X53061900Y-117497796D01*
X53202941Y-117556217D01*
X53352669Y-117586000D01*
X53505331Y-117586000D01*
X53655059Y-117556217D01*
X53796100Y-117497796D01*
X53923034Y-117412982D01*
X54030982Y-117305034D01*
X54115796Y-117178100D01*
X54174217Y-117037059D01*
X54204000Y-116887331D01*
X54204000Y-116734669D01*
X54174217Y-116584941D01*
X54115796Y-116443900D01*
X54030982Y-116316966D01*
X53923034Y-116209018D01*
X53796100Y-116124204D01*
X53655059Y-116065783D01*
X53505331Y-116036000D01*
X53352669Y-116036000D01*
X53202941Y-116065783D01*
X53061900Y-116124204D01*
X52934966Y-116209018D01*
X52827018Y-116316966D01*
X52742204Y-116443900D01*
X52683783Y-116584941D01*
X52654000Y-116734669D01*
X50400000Y-116734669D01*
X50400000Y-114571056D01*
X54225000Y-114571056D01*
X54225000Y-114708944D01*
X54251901Y-114844182D01*
X54304668Y-114971574D01*
X54381274Y-115086224D01*
X54478776Y-115183726D01*
X54593426Y-115260332D01*
X54720818Y-115313099D01*
X54856056Y-115340000D01*
X54993944Y-115340000D01*
X55129182Y-115313099D01*
X55256574Y-115260332D01*
X55371224Y-115183726D01*
X55468726Y-115086224D01*
X55545332Y-114971574D01*
X55598099Y-114844182D01*
X55625000Y-114708944D01*
X55625000Y-114571056D01*
X55598099Y-114435818D01*
X55545332Y-114308426D01*
X55468726Y-114193776D01*
X55371224Y-114096274D01*
X55256574Y-114019668D01*
X55129182Y-113966901D01*
X54993944Y-113940000D01*
X54856056Y-113940000D01*
X54720818Y-113966901D01*
X54593426Y-114019668D01*
X54478776Y-114096274D01*
X54381274Y-114193776D01*
X54304668Y-114308426D01*
X54251901Y-114435818D01*
X54225000Y-114571056D01*
X50400000Y-114571056D01*
X50400000Y-108791056D01*
X54225000Y-108791056D01*
X54225000Y-108928944D01*
X54251901Y-109064182D01*
X54304668Y-109191574D01*
X54381274Y-109306224D01*
X54478776Y-109403726D01*
X54593426Y-109480332D01*
X54720818Y-109533099D01*
X54856056Y-109560000D01*
X54993944Y-109560000D01*
X55129182Y-109533099D01*
X55256574Y-109480332D01*
X55371224Y-109403726D01*
X55468726Y-109306224D01*
X55545332Y-109191574D01*
X55598099Y-109064182D01*
X55625000Y-108928944D01*
X55625000Y-108791056D01*
X55598099Y-108655818D01*
X55545332Y-108528426D01*
X55468726Y-108413776D01*
X55371224Y-108316274D01*
X55256574Y-108239668D01*
X55129182Y-108186901D01*
X54993944Y-108160000D01*
X54856056Y-108160000D01*
X54720818Y-108186901D01*
X54593426Y-108239668D01*
X54478776Y-108316274D01*
X54381274Y-108413776D01*
X54304668Y-108528426D01*
X54251901Y-108655818D01*
X54225000Y-108791056D01*
X50400000Y-108791056D01*
X50400000Y-106574669D01*
X52654000Y-106574669D01*
X52654000Y-106727331D01*
X52683783Y-106877059D01*
X52742204Y-107018100D01*
X52827018Y-107145034D01*
X52934966Y-107252982D01*
X53061900Y-107337796D01*
X53202941Y-107396217D01*
X53352669Y-107426000D01*
X53505331Y-107426000D01*
X53655059Y-107396217D01*
X53796100Y-107337796D01*
X53923034Y-107252982D01*
X54030982Y-107145034D01*
X54115796Y-107018100D01*
X54174217Y-106877059D01*
X54204000Y-106727331D01*
X54204000Y-106574669D01*
X54174217Y-106424941D01*
X54115796Y-106283900D01*
X54030982Y-106156966D01*
X53923034Y-106049018D01*
X53796100Y-105964204D01*
X53655059Y-105905783D01*
X53505331Y-105876000D01*
X53352669Y-105876000D01*
X53202941Y-105905783D01*
X53061900Y-105964204D01*
X52934966Y-106049018D01*
X52827018Y-106156966D01*
X52742204Y-106283900D01*
X52683783Y-106424941D01*
X52654000Y-106574669D01*
X50400000Y-106574669D01*
X50400000Y-105400000D01*
X59986127Y-105400000D01*
X59485772Y-105900356D01*
%TA.AperFunction,Conductor*%
D16*
G36*
X59485772Y-105900356D02*
G01*
X59461921Y-105919930D01*
X59442348Y-105943780D01*
X59383818Y-106015099D01*
X59325782Y-106123676D01*
X59290044Y-106241489D01*
X59277977Y-106364010D01*
X59281001Y-106394714D01*
X59281000Y-112922415D01*
X59219204Y-113014900D01*
X59160783Y-113155941D01*
X59131000Y-113305669D01*
X59131000Y-113458331D01*
X59160783Y-113608059D01*
X59219204Y-113749100D01*
X59304018Y-113876034D01*
X59411966Y-113983982D01*
X59538900Y-114068796D01*
X59679941Y-114127217D01*
X59829669Y-114157000D01*
X59982331Y-114157000D01*
X60132059Y-114127217D01*
X60273100Y-114068796D01*
X60400034Y-113983982D01*
X60507982Y-113876034D01*
X60541000Y-113826619D01*
X60574018Y-113876034D01*
X60681966Y-113983982D01*
X60808900Y-114068796D01*
X60949941Y-114127217D01*
X61099669Y-114157000D01*
X61252331Y-114157000D01*
X61402059Y-114127217D01*
X61543100Y-114068796D01*
X61670034Y-113983982D01*
X61777982Y-113876034D01*
X61862796Y-113749100D01*
X61921217Y-113608059D01*
X61951000Y-113458331D01*
X61951000Y-113305669D01*
X61921217Y-113155941D01*
X61862796Y-113014900D01*
X61801000Y-112922415D01*
X61801000Y-109876669D01*
X71450000Y-109876669D01*
X71450000Y-110029331D01*
X71479783Y-110179059D01*
X71538204Y-110320100D01*
X71623018Y-110447034D01*
X71730966Y-110554982D01*
X71857900Y-110639796D01*
X71998941Y-110698217D01*
X72148669Y-110728000D01*
X72301331Y-110728000D01*
X72451059Y-110698217D01*
X72592100Y-110639796D01*
X72719034Y-110554982D01*
X72826982Y-110447034D01*
X72911796Y-110320100D01*
X72970217Y-110179059D01*
X73000000Y-110029331D01*
X73000000Y-109876669D01*
X84404000Y-109876669D01*
X84404000Y-110029331D01*
X84433783Y-110179059D01*
X84492204Y-110320100D01*
X84577018Y-110447034D01*
X84684966Y-110554982D01*
X84811900Y-110639796D01*
X84952941Y-110698217D01*
X85102669Y-110728000D01*
X85255331Y-110728000D01*
X85405059Y-110698217D01*
X85546100Y-110639796D01*
X85673034Y-110554982D01*
X85780982Y-110447034D01*
X85865796Y-110320100D01*
X85924217Y-110179059D01*
X85954000Y-110029331D01*
X85954000Y-109876669D01*
X85924217Y-109726941D01*
X85865796Y-109585900D01*
X85780982Y-109458966D01*
X85673034Y-109351018D01*
X85546100Y-109266204D01*
X85405059Y-109207783D01*
X85255331Y-109178000D01*
X85102669Y-109178000D01*
X84952941Y-109207783D01*
X84811900Y-109266204D01*
X84684966Y-109351018D01*
X84577018Y-109458966D01*
X84492204Y-109585900D01*
X84433783Y-109726941D01*
X84404000Y-109876669D01*
X73000000Y-109876669D01*
X72970217Y-109726941D01*
X72911796Y-109585900D01*
X72826982Y-109458966D01*
X72719034Y-109351018D01*
X72592100Y-109266204D01*
X72451059Y-109207783D01*
X72301331Y-109178000D01*
X72148669Y-109178000D01*
X71998941Y-109207783D01*
X71857900Y-109266204D01*
X71730966Y-109351018D01*
X71623018Y-109458966D01*
X71538204Y-109585900D01*
X71479783Y-109726941D01*
X71450000Y-109876669D01*
X61801000Y-109876669D01*
X61801000Y-108525050D01*
X87547819Y-108525050D01*
X87564713Y-108696580D01*
X87614747Y-108861518D01*
X87695996Y-109013526D01*
X87805340Y-109146762D01*
X87938576Y-109256106D01*
X88090584Y-109337355D01*
X88255522Y-109387389D01*
X88384073Y-109400050D01*
X91516614Y-109400050D01*
X93353672Y-111237109D01*
X93453524Y-111319055D01*
X93605532Y-111400305D01*
X93619384Y-111404507D01*
X93577783Y-111504941D01*
X93548000Y-111654669D01*
X93548000Y-111807331D01*
X93577783Y-111957059D01*
X93636204Y-112098100D01*
X93721018Y-112225034D01*
X93828966Y-112332982D01*
X93955900Y-112417796D01*
X94096941Y-112476217D01*
X94246669Y-112506000D01*
X94399331Y-112506000D01*
X94549059Y-112476217D01*
X94690100Y-112417796D01*
X94817034Y-112332982D01*
X94924982Y-112225034D01*
X95009796Y-112098100D01*
X95068217Y-111957059D01*
X95098000Y-111807331D01*
X95098000Y-111654669D01*
X95068217Y-111504941D01*
X95009796Y-111363900D01*
X94924982Y-111236966D01*
X94817034Y-111129018D01*
X94690250Y-111044305D01*
X94754305Y-110924467D01*
X94804339Y-110759530D01*
X94821233Y-110588000D01*
X94804339Y-110416470D01*
X94754305Y-110251532D01*
X94673055Y-110099524D01*
X94591109Y-109999672D01*
X92528167Y-107936730D01*
X92500762Y-107903338D01*
X92367526Y-107793994D01*
X92215518Y-107712745D01*
X92050580Y-107662711D01*
X91922029Y-107650050D01*
X91879050Y-107645817D01*
X91836071Y-107650050D01*
X88384073Y-107650050D01*
X88255522Y-107662711D01*
X88090584Y-107712745D01*
X87938576Y-107793994D01*
X87805340Y-107903338D01*
X87695996Y-108036574D01*
X87614747Y-108188582D01*
X87564713Y-108353520D01*
X87547819Y-108525050D01*
X61801000Y-108525050D01*
X61801000Y-106800020D01*
X96027176Y-106800020D01*
X98038991Y-108811836D01*
X98038992Y-113224287D01*
X98038991Y-113224297D01*
X98038992Y-114012117D01*
X97643109Y-114408000D01*
X94401585Y-114408000D01*
X94309100Y-114346204D01*
X94168059Y-114287783D01*
X94018331Y-114258000D01*
X93865669Y-114258000D01*
X93715941Y-114287783D01*
X93574900Y-114346204D01*
X93447966Y-114431018D01*
X93340018Y-114538966D01*
X93255204Y-114665900D01*
X93196783Y-114806941D01*
X93167000Y-114956669D01*
X93167000Y-115109331D01*
X93196783Y-115259059D01*
X93214393Y-115301574D01*
X93203288Y-115303783D01*
X93062247Y-115362204D01*
X92935313Y-115447018D01*
X92827365Y-115554966D01*
X92742551Y-115681900D01*
X92684130Y-115822941D01*
X92654347Y-115972669D01*
X92654347Y-116125331D01*
X92684130Y-116275059D01*
X92742551Y-116416100D01*
X92827365Y-116543034D01*
X92935313Y-116650982D01*
X93062247Y-116735796D01*
X93203288Y-116794217D01*
X93353016Y-116824000D01*
X93505678Y-116824000D01*
X93655406Y-116794217D01*
X93679736Y-116784139D01*
X93704783Y-116910059D01*
X93720575Y-116948184D01*
X93718704Y-116948000D01*
X93718694Y-116948000D01*
X93688000Y-116944977D01*
X93657306Y-116948000D01*
X92424501Y-116948000D01*
X92440217Y-116910059D01*
X92470000Y-116760331D01*
X92470000Y-116607669D01*
X92440217Y-116457941D01*
X92381796Y-116316900D01*
X92296982Y-116189966D01*
X92189034Y-116082018D01*
X92062100Y-115997204D01*
X91921059Y-115938783D01*
X91771331Y-115909000D01*
X91618669Y-115909000D01*
X91468941Y-115938783D01*
X91327900Y-115997204D01*
X91200966Y-116082018D01*
X91093018Y-116189966D01*
X91008204Y-116316900D01*
X90949783Y-116457941D01*
X90920000Y-116607669D01*
X90920000Y-116760331D01*
X90949783Y-116910059D01*
X90965499Y-116948000D01*
X90718585Y-116948000D01*
X90626100Y-116886204D01*
X90485059Y-116827783D01*
X90335331Y-116798000D01*
X90182669Y-116798000D01*
X90032941Y-116827783D01*
X89891900Y-116886204D01*
X89764966Y-116971018D01*
X89657018Y-117078966D01*
X89572204Y-117205900D01*
X89513783Y-117346941D01*
X89484000Y-117496669D01*
X89484000Y-117649331D01*
X89513783Y-117799059D01*
X89572204Y-117940100D01*
X89657018Y-118067034D01*
X89764966Y-118174982D01*
X89891900Y-118259796D01*
X89920156Y-118271500D01*
X89891900Y-118283204D01*
X89764966Y-118368018D01*
X89657018Y-118475966D01*
X89572204Y-118602900D01*
X89513783Y-118743941D01*
X89484000Y-118893669D01*
X89484000Y-119046331D01*
X89513783Y-119196059D01*
X89572204Y-119337100D01*
X89657018Y-119464034D01*
X89764966Y-119571982D01*
X89891900Y-119656796D01*
X90032941Y-119715217D01*
X90182669Y-119745000D01*
X90335331Y-119745000D01*
X90485059Y-119715217D01*
X90626100Y-119656796D01*
X90753034Y-119571982D01*
X90860982Y-119464034D01*
X90945796Y-119337100D01*
X91004217Y-119196059D01*
X91034000Y-119046331D01*
X91034000Y-118893669D01*
X91004217Y-118743941D01*
X90945796Y-118602900D01*
X90860982Y-118475966D01*
X90753034Y-118368018D01*
X90626100Y-118283204D01*
X90597844Y-118271500D01*
X90626100Y-118259796D01*
X90718585Y-118198000D01*
X93429118Y-118198000D01*
X96731083Y-121499966D01*
X96752783Y-121609059D01*
X96811204Y-121750100D01*
X96896018Y-121877034D01*
X96973484Y-121954500D01*
X96896018Y-122031966D01*
X96811204Y-122158900D01*
X96752783Y-122299941D01*
X96723000Y-122449669D01*
X96723000Y-122602331D01*
X96752783Y-122752059D01*
X96811204Y-122893100D01*
X96896018Y-123020034D01*
X96973484Y-123097500D01*
X96896018Y-123174966D01*
X96811204Y-123301900D01*
X96752783Y-123442941D01*
X96723000Y-123592669D01*
X96723000Y-123745331D01*
X96752783Y-123895059D01*
X96811204Y-124036100D01*
X96896018Y-124163034D01*
X97003966Y-124270982D01*
X97130900Y-124355796D01*
X97271941Y-124414217D01*
X97421669Y-124444000D01*
X97574331Y-124444000D01*
X97724059Y-124414217D01*
X97865100Y-124355796D01*
X97957585Y-124294000D01*
X98483306Y-124294000D01*
X98514000Y-124297023D01*
X98544694Y-124294000D01*
X98544704Y-124294000D01*
X98636521Y-124284957D01*
X98754334Y-124249219D01*
X98862911Y-124191183D01*
X98958080Y-124113080D01*
X98977658Y-124089224D01*
X99784230Y-123282653D01*
X99808081Y-123263079D01*
X99886184Y-123167910D01*
X99944220Y-123059333D01*
X99979958Y-122941520D01*
X99989001Y-122849703D01*
X99989001Y-122849693D01*
X99992024Y-122818999D01*
X99989001Y-122788305D01*
X99989001Y-116846665D01*
X100084073Y-116846665D01*
X100084073Y-116999327D01*
X100113856Y-117149055D01*
X100172277Y-117290096D01*
X100257091Y-117417030D01*
X100365039Y-117524978D01*
X100491973Y-117609792D01*
X100633014Y-117668213D01*
X100782742Y-117697996D01*
X100935404Y-117697996D01*
X101085132Y-117668213D01*
X101226173Y-117609792D01*
X101353107Y-117524978D01*
X101461055Y-117417030D01*
X101545869Y-117290096D01*
X101604290Y-117149055D01*
X101634073Y-116999327D01*
X101634073Y-116846665D01*
X101604290Y-116696937D01*
X101545869Y-116555896D01*
X101461055Y-116428962D01*
X101353107Y-116321014D01*
X101226173Y-116236200D01*
X101085132Y-116177779D01*
X100935404Y-116147996D01*
X100782742Y-116147996D01*
X100633014Y-116177779D01*
X100491973Y-116236200D01*
X100365039Y-116321014D01*
X100257091Y-116428962D01*
X100172277Y-116555896D01*
X100113856Y-116696937D01*
X100084073Y-116846665D01*
X99989001Y-116846665D01*
X99989001Y-108293703D01*
X99992025Y-108263001D01*
X99986218Y-108204040D01*
X99979958Y-108140480D01*
X99944220Y-108022667D01*
X99886185Y-107914091D01*
X99886184Y-107914089D01*
X99827653Y-107842770D01*
X99808081Y-107818921D01*
X99784231Y-107799348D01*
X97384882Y-105400000D01*
X101875000Y-105400000D01*
X101875000Y-112852984D01*
X101802034Y-112780018D01*
X101675100Y-112695204D01*
X101534059Y-112636783D01*
X101384331Y-112607000D01*
X101231669Y-112607000D01*
X101081941Y-112636783D01*
X100940900Y-112695204D01*
X100813966Y-112780018D01*
X100706018Y-112887966D01*
X100621204Y-113014900D01*
X100562783Y-113155941D01*
X100533000Y-113305669D01*
X100533000Y-113458331D01*
X100562783Y-113608059D01*
X100621204Y-113749100D01*
X100706018Y-113876034D01*
X100711986Y-113882002D01*
X100706018Y-113887969D01*
X100621204Y-114014903D01*
X100562783Y-114155944D01*
X100533000Y-114305672D01*
X100533000Y-114458334D01*
X100562783Y-114608062D01*
X100621204Y-114749103D01*
X100706018Y-114876037D01*
X100727983Y-114898002D01*
X100706018Y-114919966D01*
X100621204Y-115046900D01*
X100562783Y-115187941D01*
X100533000Y-115337669D01*
X100533000Y-115490331D01*
X100562783Y-115640059D01*
X100621204Y-115781100D01*
X100706018Y-115908034D01*
X100813966Y-116015982D01*
X100940900Y-116100796D01*
X101081941Y-116159217D01*
X101231669Y-116189000D01*
X101384331Y-116189000D01*
X101534059Y-116159217D01*
X101675100Y-116100796D01*
X101802034Y-116015982D01*
X101875000Y-115943016D01*
X101875000Y-121203864D01*
X101841100Y-121181213D01*
X101700059Y-121122792D01*
X101550331Y-121093009D01*
X101397669Y-121093009D01*
X101247941Y-121122792D01*
X101106900Y-121181213D01*
X100979966Y-121266027D01*
X100872018Y-121373975D01*
X100787204Y-121500909D01*
X100728783Y-121641950D01*
X100699000Y-121791678D01*
X100699000Y-121944340D01*
X100728783Y-122094068D01*
X100787204Y-122235109D01*
X100872018Y-122362043D01*
X100979966Y-122469991D01*
X101046586Y-122514505D01*
X100979966Y-122559018D01*
X100872018Y-122666966D01*
X100787204Y-122793900D01*
X100728783Y-122934941D01*
X100707083Y-123044034D01*
X99379769Y-124371349D01*
X99355918Y-124390923D01*
X99336345Y-124414773D01*
X99277815Y-124486092D01*
X99219779Y-124594669D01*
X99184041Y-124712482D01*
X99171974Y-124835003D01*
X99174998Y-124865707D01*
X99174997Y-127654415D01*
X99113201Y-127746900D01*
X99054780Y-127887941D01*
X99024997Y-128037669D01*
X99024997Y-128190331D01*
X99054780Y-128340059D01*
X99113201Y-128481100D01*
X99198015Y-128608034D01*
X99305963Y-128715982D01*
X99432897Y-128800796D01*
X99573938Y-128859217D01*
X99723666Y-128889000D01*
X99876328Y-128889000D01*
X100026056Y-128859217D01*
X100167097Y-128800796D01*
X100294031Y-128715982D01*
X100299999Y-128710015D01*
X100305966Y-128715982D01*
X100432900Y-128800796D01*
X100573941Y-128859217D01*
X100723669Y-128889000D01*
X100876331Y-128889000D01*
X101026059Y-128859217D01*
X101167100Y-128800796D01*
X101294034Y-128715982D01*
X101401982Y-128608034D01*
X101486796Y-128481100D01*
X101545217Y-128340059D01*
X101575000Y-128190331D01*
X101575000Y-128037669D01*
X101545217Y-127887941D01*
X101486796Y-127746900D01*
X101401982Y-127619966D01*
X101294034Y-127512018D01*
X101167100Y-127427204D01*
X101026059Y-127368783D01*
X100876331Y-127339000D01*
X100723669Y-127339000D01*
X100573941Y-127368783D01*
X100432900Y-127427204D01*
X100424997Y-127432485D01*
X100424997Y-125093885D01*
X101590966Y-123927917D01*
X101700059Y-123906217D01*
X101841100Y-123847796D01*
X101875000Y-123825145D01*
X101875000Y-139600000D01*
X98157016Y-139600000D01*
X98226982Y-139530034D01*
X98311796Y-139403100D01*
X98370217Y-139262059D01*
X98400000Y-139112331D01*
X98400000Y-138959669D01*
X98370217Y-138809941D01*
X98311796Y-138668900D01*
X98226982Y-138541966D01*
X98119034Y-138434018D01*
X97992100Y-138349204D01*
X97851059Y-138290783D01*
X97701331Y-138261000D01*
X97548669Y-138261000D01*
X97398941Y-138290783D01*
X97257900Y-138349204D01*
X97130966Y-138434018D01*
X97023018Y-138541966D01*
X96938204Y-138668900D01*
X96879783Y-138809941D01*
X96850000Y-138959669D01*
X96850000Y-139112331D01*
X96879783Y-139262059D01*
X96938204Y-139403100D01*
X97023018Y-139530034D01*
X97092984Y-139600000D01*
X94515882Y-139600000D01*
X97823213Y-136292669D01*
X99390000Y-136292669D01*
X99390000Y-136445331D01*
X99419783Y-136595059D01*
X99478204Y-136736100D01*
X99563018Y-136863034D01*
X99670966Y-136970982D01*
X99797900Y-137055796D01*
X99938941Y-137114217D01*
X100088669Y-137144000D01*
X100241331Y-137144000D01*
X100391059Y-137114217D01*
X100532100Y-137055796D01*
X100659034Y-136970982D01*
X100766982Y-136863034D01*
X100851796Y-136736100D01*
X100910217Y-136595059D01*
X100940000Y-136445331D01*
X100940000Y-136292669D01*
X100910217Y-136142941D01*
X100851796Y-136001900D01*
X100766982Y-135874966D01*
X100659034Y-135767018D01*
X100532100Y-135682204D01*
X100391059Y-135623783D01*
X100241331Y-135594000D01*
X100088669Y-135594000D01*
X99938941Y-135623783D01*
X99797900Y-135682204D01*
X99670966Y-135767018D01*
X99563018Y-135874966D01*
X99478204Y-136001900D01*
X99419783Y-136142941D01*
X99390000Y-136292669D01*
X97823213Y-136292669D01*
X99041152Y-135074731D01*
X99041156Y-135074726D01*
X99265965Y-134849917D01*
X99375059Y-134828217D01*
X99516100Y-134769796D01*
X99643034Y-134684982D01*
X99750982Y-134577034D01*
X99835796Y-134450100D01*
X99894217Y-134309059D01*
X99924000Y-134159331D01*
X99924000Y-134006669D01*
X99894217Y-133856941D01*
X99835796Y-133715900D01*
X99750982Y-133588966D01*
X99643034Y-133481018D01*
X99516100Y-133396204D01*
X99375059Y-133337783D01*
X99225331Y-133308000D01*
X99072669Y-133308000D01*
X98922941Y-133337783D01*
X98781900Y-133396204D01*
X98654966Y-133481018D01*
X98547018Y-133588966D01*
X98546582Y-133589619D01*
X98439466Y-133482503D01*
X98312532Y-133397689D01*
X98171491Y-133339268D01*
X98021763Y-133309485D01*
X97869101Y-133309485D01*
X97719373Y-133339268D01*
X97578332Y-133397689D01*
X97451398Y-133482503D01*
X97343450Y-133590451D01*
X97258636Y-133717385D01*
X97200215Y-133858426D01*
X97178515Y-133967519D01*
X96975512Y-134170522D01*
X97003000Y-134032331D01*
X97003000Y-133879669D01*
X96973217Y-133729941D01*
X96914796Y-133588900D01*
X96829982Y-133461966D01*
X96722034Y-133354018D01*
X96595100Y-133269204D01*
X96454059Y-133210783D01*
X96304331Y-133181000D01*
X96151669Y-133181000D01*
X96001941Y-133210783D01*
X95860900Y-133269204D01*
X95733966Y-133354018D01*
X95626018Y-133461966D01*
X95541204Y-133588900D01*
X95482783Y-133729941D01*
X95453000Y-133879669D01*
X95453000Y-134032331D01*
X95482783Y-134182059D01*
X95541204Y-134323100D01*
X95626018Y-134450034D01*
X95733966Y-134557982D01*
X95860900Y-134642796D01*
X96001941Y-134701217D01*
X96151669Y-134731000D01*
X96304331Y-134731000D01*
X96442522Y-134703512D01*
X92946055Y-138199980D01*
X80738883Y-138199980D01*
X80343000Y-137804098D01*
X80343000Y-137216363D01*
X80369783Y-137351009D01*
X80428204Y-137492050D01*
X80513018Y-137618984D01*
X80620966Y-137726932D01*
X80747900Y-137811746D01*
X80888941Y-137870167D01*
X81038669Y-137899950D01*
X81191331Y-137899950D01*
X81341059Y-137870167D01*
X81482100Y-137811746D01*
X81609034Y-137726932D01*
X81716982Y-137618984D01*
X81801796Y-137492050D01*
X81860217Y-137351009D01*
X81890000Y-137201281D01*
X81890000Y-137108028D01*
X81904941Y-137114217D01*
X82054669Y-137144000D01*
X82207331Y-137144000D01*
X82357059Y-137114217D01*
X82498100Y-137055796D01*
X82625034Y-136970982D01*
X82732982Y-136863034D01*
X82817796Y-136736100D01*
X82876217Y-136595059D01*
X82906000Y-136445331D01*
X82906000Y-136419669D01*
X91897000Y-136419669D01*
X91897000Y-136572331D01*
X91926783Y-136722059D01*
X91985204Y-136863100D01*
X92070018Y-136990034D01*
X92177966Y-137097982D01*
X92304900Y-137182796D01*
X92445941Y-137241217D01*
X92595669Y-137271000D01*
X92748331Y-137271000D01*
X92898059Y-137241217D01*
X93039100Y-137182796D01*
X93166034Y-137097982D01*
X93273982Y-136990034D01*
X93358796Y-136863100D01*
X93417217Y-136722059D01*
X93447000Y-136572331D01*
X93447000Y-136419669D01*
X93417217Y-136269941D01*
X93358796Y-136128900D01*
X93273982Y-136001966D01*
X93166034Y-135894018D01*
X93039100Y-135809204D01*
X92898059Y-135750783D01*
X92748331Y-135721000D01*
X92595669Y-135721000D01*
X92445941Y-135750783D01*
X92304900Y-135809204D01*
X92177966Y-135894018D01*
X92070018Y-136001966D01*
X91985204Y-136128900D01*
X91926783Y-136269941D01*
X91897000Y-136419669D01*
X82906000Y-136419669D01*
X82906000Y-136292669D01*
X82876217Y-136142941D01*
X82817796Y-136001900D01*
X82732982Y-135874966D01*
X82625034Y-135767018D01*
X82498100Y-135682204D01*
X82357059Y-135623783D01*
X82207331Y-135594000D01*
X82054669Y-135594000D01*
X81904941Y-135623783D01*
X81763900Y-135682204D01*
X81636966Y-135767018D01*
X81529018Y-135874966D01*
X81444204Y-136001900D01*
X81385783Y-136142941D01*
X81356000Y-136292669D01*
X81356000Y-136385922D01*
X81341059Y-136379733D01*
X81191331Y-136349950D01*
X81038669Y-136349950D01*
X80888941Y-136379733D01*
X80747900Y-136438154D01*
X80620966Y-136522968D01*
X80513018Y-136630916D01*
X80428204Y-136757850D01*
X80369783Y-136898891D01*
X80343000Y-137033537D01*
X80343000Y-136066585D01*
X80404796Y-135974100D01*
X80463217Y-135833059D01*
X80493000Y-135683331D01*
X80493000Y-135530669D01*
X80463217Y-135380941D01*
X80404796Y-135239900D01*
X80319982Y-135112966D01*
X80212034Y-135005018D01*
X80085100Y-134920204D01*
X79944059Y-134861783D01*
X79794331Y-134832000D01*
X79641669Y-134832000D01*
X79491941Y-134861783D01*
X79350900Y-134920204D01*
X79223966Y-135005018D01*
X79116018Y-135112966D01*
X79031204Y-135239900D01*
X78972783Y-135380941D01*
X78943000Y-135530669D01*
X78943000Y-135683331D01*
X78972783Y-135833059D01*
X79031204Y-135974100D01*
X79093000Y-136066585D01*
X79093001Y-138032276D01*
X79089977Y-138062980D01*
X79093001Y-138093684D01*
X79102044Y-138185501D01*
X79137782Y-138303314D01*
X79195818Y-138411891D01*
X79273921Y-138507060D01*
X79297772Y-138526634D01*
X79671127Y-138899990D01*
X55721891Y-138899990D01*
X55726814Y-138850000D01*
X55726814Y-137816669D01*
X67894000Y-137816669D01*
X67894000Y-137969331D01*
X67923783Y-138119059D01*
X67982204Y-138260100D01*
X68067018Y-138387034D01*
X68174966Y-138494982D01*
X68301900Y-138579796D01*
X68442941Y-138638217D01*
X68592669Y-138668000D01*
X68745331Y-138668000D01*
X68895059Y-138638217D01*
X69036100Y-138579796D01*
X69163034Y-138494982D01*
X69270982Y-138387034D01*
X69355796Y-138260100D01*
X69414217Y-138119059D01*
X69444000Y-137969331D01*
X69444000Y-137816669D01*
X69414217Y-137666941D01*
X69355796Y-137525900D01*
X69270982Y-137398966D01*
X69163034Y-137291018D01*
X69036100Y-137206204D01*
X68895059Y-137147783D01*
X68745331Y-137118000D01*
X68592669Y-137118000D01*
X68442941Y-137147783D01*
X68301900Y-137206204D01*
X68174966Y-137291018D01*
X68067018Y-137398966D01*
X67982204Y-137525900D01*
X67923783Y-137666941D01*
X67894000Y-137816669D01*
X55726814Y-137816669D01*
X55726814Y-137150000D01*
X55719574Y-137076487D01*
X55698131Y-137005800D01*
X55663309Y-136940653D01*
X55616448Y-136883552D01*
X55559347Y-136836691D01*
X55494200Y-136801869D01*
X55423513Y-136780426D01*
X55375000Y-136775648D01*
X55375000Y-135678669D01*
X58597500Y-135678669D01*
X58597500Y-135831331D01*
X58627283Y-135981059D01*
X58685704Y-136122100D01*
X58770518Y-136249034D01*
X58878466Y-136356982D01*
X59005400Y-136441796D01*
X59146441Y-136500217D01*
X59296169Y-136530000D01*
X59448831Y-136530000D01*
X59598559Y-136500217D01*
X59739600Y-136441796D01*
X59866534Y-136356982D01*
X59974482Y-136249034D01*
X60059296Y-136122100D01*
X60117717Y-135981059D01*
X60147500Y-135831331D01*
X60147500Y-135678669D01*
X60117717Y-135528941D01*
X60059296Y-135387900D01*
X59974482Y-135260966D01*
X59866534Y-135153018D01*
X59739600Y-135068204D01*
X59598559Y-135009783D01*
X59448831Y-134980000D01*
X59296169Y-134980000D01*
X59146441Y-135009783D01*
X59005400Y-135068204D01*
X58878466Y-135153018D01*
X58770518Y-135260966D01*
X58685704Y-135387900D01*
X58627283Y-135528941D01*
X58597500Y-135678669D01*
X55375000Y-135678669D01*
X55375000Y-131528436D01*
X55987267Y-130916169D01*
X58216500Y-130916169D01*
X58216500Y-131068831D01*
X58246283Y-131218559D01*
X58304704Y-131359600D01*
X58389518Y-131486534D01*
X58497466Y-131594482D01*
X58624400Y-131679296D01*
X58765441Y-131737717D01*
X58874535Y-131759417D01*
X60335001Y-133219885D01*
X60335000Y-135295415D01*
X60273204Y-135387900D01*
X60214783Y-135528941D01*
X60185000Y-135678669D01*
X60185000Y-135831331D01*
X60214783Y-135981059D01*
X60273204Y-136122100D01*
X60358018Y-136249034D01*
X60465966Y-136356982D01*
X60592900Y-136441796D01*
X60733941Y-136500217D01*
X60883669Y-136530000D01*
X61036331Y-136530000D01*
X61186059Y-136500217D01*
X61327100Y-136441796D01*
X61454034Y-136356982D01*
X61561982Y-136249034D01*
X61646796Y-136122100D01*
X61705217Y-135981059D01*
X61735000Y-135831331D01*
X61735000Y-135678669D01*
X61705561Y-135530669D01*
X77391000Y-135530669D01*
X77391000Y-135683331D01*
X77420783Y-135833059D01*
X77479204Y-135974100D01*
X77564018Y-136101034D01*
X77671966Y-136208982D01*
X77798900Y-136293796D01*
X77939941Y-136352217D01*
X78089669Y-136382000D01*
X78242331Y-136382000D01*
X78392059Y-136352217D01*
X78533100Y-136293796D01*
X78660034Y-136208982D01*
X78767982Y-136101034D01*
X78852796Y-135974100D01*
X78911217Y-135833059D01*
X78941000Y-135683331D01*
X78941000Y-135530669D01*
X78911217Y-135380941D01*
X78852796Y-135239900D01*
X78767982Y-135112966D01*
X78660034Y-135005018D01*
X78533100Y-134920204D01*
X78392059Y-134861783D01*
X78242331Y-134832000D01*
X78089669Y-134832000D01*
X77939941Y-134861783D01*
X77798900Y-134920204D01*
X77671966Y-135005018D01*
X77564018Y-135112966D01*
X77479204Y-135239900D01*
X77420783Y-135380941D01*
X77391000Y-135530669D01*
X61705561Y-135530669D01*
X61705217Y-135528941D01*
X61646796Y-135387900D01*
X61585000Y-135295415D01*
X61585000Y-132991693D01*
X61588023Y-132960999D01*
X61585000Y-132930305D01*
X61585000Y-132930296D01*
X61575957Y-132838479D01*
X61540219Y-132720666D01*
X61482183Y-132612089D01*
X61482182Y-132612087D01*
X61423652Y-132540768D01*
X61423649Y-132540765D01*
X61404080Y-132516920D01*
X61380235Y-132497351D01*
X59758417Y-130875535D01*
X59736717Y-130766441D01*
X59678296Y-130625400D01*
X59593482Y-130498466D01*
X59485534Y-130390518D01*
X59358600Y-130305704D01*
X59217559Y-130247283D01*
X59067831Y-130217500D01*
X58915169Y-130217500D01*
X58765441Y-130247283D01*
X58624400Y-130305704D01*
X58497466Y-130390518D01*
X58389518Y-130498466D01*
X58304704Y-130625400D01*
X58246283Y-130766441D01*
X58216500Y-130916169D01*
X55987267Y-130916169D01*
X58992767Y-127910669D01*
X66370000Y-127910669D01*
X66370000Y-128063331D01*
X66399783Y-128213059D01*
X66458204Y-128354100D01*
X66543018Y-128481034D01*
X66650966Y-128588982D01*
X66777900Y-128673796D01*
X66918941Y-128732217D01*
X67068669Y-128762000D01*
X67221331Y-128762000D01*
X67371059Y-128732217D01*
X67512100Y-128673796D01*
X67639034Y-128588982D01*
X67682347Y-128545669D01*
X81991000Y-128545669D01*
X81991000Y-128698331D01*
X82020783Y-128848059D01*
X82079204Y-128989100D01*
X82164018Y-129116034D01*
X82271966Y-129223982D01*
X82398900Y-129308796D01*
X82539941Y-129367217D01*
X82649035Y-129388917D01*
X83406347Y-130146230D01*
X83425921Y-130170081D01*
X83449770Y-130189653D01*
X83521088Y-130248183D01*
X83521090Y-130248184D01*
X83629667Y-130306220D01*
X83747480Y-130341958D01*
X83839297Y-130351001D01*
X83839306Y-130351001D01*
X83870000Y-130354024D01*
X83900694Y-130351001D01*
X91283305Y-130351001D01*
X91313999Y-130354024D01*
X91344693Y-130351001D01*
X91344703Y-130351001D01*
X91436520Y-130341958D01*
X91554333Y-130306220D01*
X91662910Y-130248184D01*
X91758079Y-130170081D01*
X91777657Y-130146225D01*
X92034624Y-129889258D01*
X92024000Y-129942669D01*
X92024000Y-130095331D01*
X92053783Y-130245059D01*
X92112204Y-130386100D01*
X92197018Y-130513034D01*
X92304966Y-130620982D01*
X92431900Y-130705796D01*
X92572941Y-130764217D01*
X92722669Y-130794000D01*
X92875331Y-130794000D01*
X93025059Y-130764217D01*
X93166100Y-130705796D01*
X93293034Y-130620982D01*
X93400982Y-130513034D01*
X93485796Y-130386100D01*
X93544217Y-130245059D01*
X93574000Y-130095331D01*
X93574000Y-129942669D01*
X93544217Y-129792941D01*
X93485796Y-129651900D01*
X93400982Y-129524966D01*
X93293034Y-129417018D01*
X93166100Y-129332204D01*
X93025059Y-129273783D01*
X92875331Y-129244000D01*
X92776028Y-129244000D01*
X92782217Y-129229059D01*
X92812000Y-129079331D01*
X92812000Y-128926669D01*
X92782217Y-128776941D01*
X92723796Y-128635900D01*
X92638982Y-128508966D01*
X92531034Y-128401018D01*
X92404100Y-128316204D01*
X92263059Y-128257783D01*
X92113331Y-128228000D01*
X91960669Y-128228000D01*
X91810941Y-128257783D01*
X91669900Y-128316204D01*
X91542966Y-128401018D01*
X91435018Y-128508966D01*
X91350204Y-128635900D01*
X91291783Y-128776941D01*
X91270083Y-128886035D01*
X91055117Y-129101001D01*
X89353427Y-129101001D01*
X89383000Y-128952331D01*
X89383000Y-128799669D01*
X89353217Y-128649941D01*
X89294796Y-128508900D01*
X89209982Y-128381966D01*
X89102034Y-128274018D01*
X88975100Y-128189204D01*
X88834059Y-128130783D01*
X88684331Y-128101000D01*
X88531669Y-128101000D01*
X88381941Y-128130783D01*
X88240900Y-128189204D01*
X88113966Y-128274018D01*
X88006018Y-128381966D01*
X87921204Y-128508900D01*
X87862783Y-128649941D01*
X87833000Y-128799669D01*
X87833000Y-128952331D01*
X87862573Y-129101001D01*
X86680027Y-129101001D01*
X86754796Y-128989100D01*
X86813217Y-128848059D01*
X86843000Y-128698331D01*
X86843000Y-128545669D01*
X86813217Y-128395941D01*
X86754796Y-128254900D01*
X86669982Y-128127966D01*
X86562034Y-128020018D01*
X86435100Y-127935204D01*
X86294059Y-127876783D01*
X86144331Y-127847000D01*
X85991669Y-127847000D01*
X85841941Y-127876783D01*
X85700900Y-127935204D01*
X85573966Y-128020018D01*
X85466018Y-128127966D01*
X85381204Y-128254900D01*
X85322783Y-128395941D01*
X85293000Y-128545669D01*
X85293000Y-128698331D01*
X85322783Y-128848059D01*
X85381204Y-128989100D01*
X85455973Y-129101001D01*
X84128884Y-129101001D01*
X83532917Y-128505035D01*
X83511217Y-128395941D01*
X83452796Y-128254900D01*
X83367982Y-128127966D01*
X83260034Y-128020018D01*
X83133100Y-127935204D01*
X82992059Y-127876783D01*
X82842331Y-127847000D01*
X82689669Y-127847000D01*
X82539941Y-127876783D01*
X82398900Y-127935204D01*
X82271966Y-128020018D01*
X82164018Y-128127966D01*
X82079204Y-128254900D01*
X82020783Y-128395941D01*
X81991000Y-128545669D01*
X67682347Y-128545669D01*
X67746982Y-128481034D01*
X67831796Y-128354100D01*
X67890217Y-128213059D01*
X67920000Y-128063331D01*
X67920000Y-127910669D01*
X67890217Y-127760941D01*
X67831796Y-127619900D01*
X67746982Y-127492966D01*
X67639034Y-127385018D01*
X67512100Y-127300204D01*
X67371059Y-127241783D01*
X67221331Y-127212000D01*
X67068669Y-127212000D01*
X66918941Y-127241783D01*
X66777900Y-127300204D01*
X66650966Y-127385018D01*
X66543018Y-127492966D01*
X66458204Y-127619900D01*
X66399783Y-127760941D01*
X66370000Y-127910669D01*
X58992767Y-127910669D01*
X59704109Y-127199328D01*
X59786055Y-127099476D01*
X59867305Y-126947468D01*
X59917339Y-126782530D01*
X59934233Y-126611000D01*
X59926716Y-126534669D01*
X62598000Y-126534669D01*
X62598000Y-126687331D01*
X62627783Y-126837059D01*
X62686204Y-126978100D01*
X62771018Y-127105034D01*
X62878966Y-127212982D01*
X63005900Y-127297796D01*
X63146941Y-127356217D01*
X63296669Y-127386000D01*
X63449331Y-127386000D01*
X63599059Y-127356217D01*
X63740100Y-127297796D01*
X63867034Y-127212982D01*
X63974982Y-127105034D01*
X64059796Y-126978100D01*
X64118217Y-126837059D01*
X64148000Y-126687331D01*
X64148000Y-126534669D01*
X64118561Y-126386669D01*
X72466000Y-126386669D01*
X72466000Y-126539331D01*
X72495783Y-126689059D01*
X72554204Y-126830100D01*
X72639018Y-126957034D01*
X72746966Y-127064982D01*
X72873900Y-127149796D01*
X73014941Y-127208217D01*
X73164669Y-127238000D01*
X73317331Y-127238000D01*
X73467059Y-127208217D01*
X73608100Y-127149796D01*
X73735034Y-127064982D01*
X73824847Y-126975169D01*
X76819500Y-126975169D01*
X76819500Y-127127831D01*
X76849283Y-127277559D01*
X76907704Y-127418600D01*
X76992518Y-127545534D01*
X77100466Y-127653482D01*
X77227400Y-127738296D01*
X77368441Y-127796717D01*
X77518169Y-127826500D01*
X77670831Y-127826500D01*
X77820559Y-127796717D01*
X77961600Y-127738296D01*
X78088534Y-127653482D01*
X78196482Y-127545534D01*
X78281296Y-127418600D01*
X78339717Y-127277559D01*
X78369500Y-127127831D01*
X78369500Y-126975169D01*
X78339717Y-126825441D01*
X78281296Y-126684400D01*
X78252077Y-126640669D01*
X89865000Y-126640669D01*
X89865000Y-126793331D01*
X89894783Y-126943059D01*
X89953204Y-127084100D01*
X90038018Y-127211034D01*
X90145966Y-127318982D01*
X90272900Y-127403796D01*
X90413941Y-127462217D01*
X90563669Y-127492000D01*
X90716331Y-127492000D01*
X90866059Y-127462217D01*
X91007100Y-127403796D01*
X91134034Y-127318982D01*
X91241982Y-127211034D01*
X91326796Y-127084100D01*
X91385217Y-126943059D01*
X91415000Y-126793331D01*
X91415000Y-126640669D01*
X91385217Y-126490941D01*
X91326796Y-126349900D01*
X91241982Y-126222966D01*
X91134034Y-126115018D01*
X91007100Y-126030204D01*
X90866059Y-125971783D01*
X90716331Y-125942000D01*
X90563669Y-125942000D01*
X90413941Y-125971783D01*
X90272900Y-126030204D01*
X90145966Y-126115018D01*
X90038018Y-126222966D01*
X89953204Y-126349900D01*
X89894783Y-126490941D01*
X89865000Y-126640669D01*
X78252077Y-126640669D01*
X78196482Y-126557466D01*
X78088534Y-126449518D01*
X77961600Y-126364704D01*
X77820559Y-126306283D01*
X77670831Y-126276500D01*
X77518169Y-126276500D01*
X77368441Y-126306283D01*
X77227400Y-126364704D01*
X77100466Y-126449518D01*
X76992518Y-126557466D01*
X76907704Y-126684400D01*
X76849283Y-126825441D01*
X76819500Y-126975169D01*
X73824847Y-126975169D01*
X73842982Y-126957034D01*
X73927796Y-126830100D01*
X73986217Y-126689059D01*
X74016000Y-126539331D01*
X74016000Y-126386669D01*
X73986217Y-126236941D01*
X73927796Y-126095900D01*
X73842982Y-125968966D01*
X73735034Y-125861018D01*
X73608100Y-125776204D01*
X73467059Y-125717783D01*
X73317331Y-125688000D01*
X73164669Y-125688000D01*
X73014941Y-125717783D01*
X72873900Y-125776204D01*
X72746966Y-125861018D01*
X72639018Y-125968966D01*
X72554204Y-126095900D01*
X72495783Y-126236941D01*
X72466000Y-126386669D01*
X64118561Y-126386669D01*
X64118217Y-126384941D01*
X64059796Y-126243900D01*
X63974982Y-126116966D01*
X63867034Y-126009018D01*
X63740100Y-125924204D01*
X63599059Y-125865783D01*
X63449331Y-125836000D01*
X63296669Y-125836000D01*
X63146941Y-125865783D01*
X63005900Y-125924204D01*
X62878966Y-126009018D01*
X62771018Y-126116966D01*
X62686204Y-126243900D01*
X62627783Y-126384941D01*
X62598000Y-126534669D01*
X59926716Y-126534669D01*
X59917339Y-126439470D01*
X59867305Y-126274533D01*
X59786055Y-126122525D01*
X59676711Y-125989289D01*
X59543475Y-125879945D01*
X59391467Y-125798695D01*
X59226530Y-125748661D01*
X59055000Y-125731767D01*
X58883470Y-125748661D01*
X58718532Y-125798695D01*
X58566524Y-125879945D01*
X58466672Y-125961891D01*
X53911681Y-130516883D01*
X53878288Y-130544288D01*
X53768944Y-130677525D01*
X53722607Y-130764217D01*
X53687695Y-130829533D01*
X53637661Y-130994471D01*
X53620767Y-131166000D01*
X53625000Y-131208979D01*
X53625001Y-136775648D01*
X53576487Y-136780426D01*
X53505800Y-136801869D01*
X53440653Y-136836691D01*
X53383552Y-136883552D01*
X53336691Y-136940653D01*
X53301869Y-137005800D01*
X53280426Y-137076487D01*
X53273186Y-137150000D01*
X53273186Y-138850000D01*
X53278109Y-138899990D01*
X52792421Y-138899990D01*
X52911519Y-138780892D01*
X53045581Y-138580255D01*
X53137924Y-138357319D01*
X53185000Y-138120652D01*
X53185000Y-137879348D01*
X53137924Y-137642681D01*
X53045581Y-137419745D01*
X52911519Y-137219108D01*
X52740892Y-137048481D01*
X52540255Y-136914419D01*
X52317319Y-136822076D01*
X52080652Y-136775000D01*
X51839348Y-136775000D01*
X51602681Y-136822076D01*
X51379745Y-136914419D01*
X51179108Y-137048481D01*
X51133000Y-137094589D01*
X51133000Y-135611882D01*
X52783966Y-133960917D01*
X52893059Y-133939217D01*
X53034100Y-133880796D01*
X53161034Y-133795982D01*
X53268982Y-133688034D01*
X53353796Y-133561100D01*
X53412217Y-133420059D01*
X53442000Y-133270331D01*
X53442000Y-133117669D01*
X53412217Y-132967941D01*
X53353796Y-132826900D01*
X53268982Y-132699966D01*
X53161034Y-132592018D01*
X53034100Y-132507204D01*
X52893059Y-132448783D01*
X52743331Y-132419000D01*
X52590669Y-132419000D01*
X52440941Y-132448783D01*
X52299900Y-132507204D01*
X52172966Y-132592018D01*
X52065018Y-132699966D01*
X51980204Y-132826900D01*
X51921783Y-132967941D01*
X51900083Y-133077034D01*
X50400000Y-134577118D01*
X50400000Y-127783669D01*
X53924000Y-127783669D01*
X53924000Y-127936331D01*
X53953783Y-128086059D01*
X54012204Y-128227100D01*
X54097018Y-128354034D01*
X54204966Y-128461982D01*
X54331900Y-128546796D01*
X54472941Y-128605217D01*
X54622669Y-128635000D01*
X54775331Y-128635000D01*
X54925059Y-128605217D01*
X55066100Y-128546796D01*
X55193034Y-128461982D01*
X55300982Y-128354034D01*
X55385796Y-128227100D01*
X55444217Y-128086059D01*
X55474000Y-127936331D01*
X55474000Y-127783669D01*
X55444217Y-127633941D01*
X55385796Y-127492900D01*
X55300982Y-127365966D01*
X55193034Y-127258018D01*
X55066100Y-127173204D01*
X54925059Y-127114783D01*
X54775331Y-127085000D01*
X54622669Y-127085000D01*
X54472941Y-127114783D01*
X54331900Y-127173204D01*
X54204966Y-127258018D01*
X54097018Y-127365966D01*
X54012204Y-127492900D01*
X53953783Y-127633941D01*
X53924000Y-127783669D01*
X50400000Y-127783669D01*
X50400000Y-125624669D01*
X84531000Y-125624669D01*
X84531000Y-125777331D01*
X84560783Y-125927059D01*
X84619204Y-126068100D01*
X84704018Y-126195034D01*
X84811966Y-126302982D01*
X84938900Y-126387796D01*
X85079941Y-126446217D01*
X85229669Y-126476000D01*
X85382331Y-126476000D01*
X85532059Y-126446217D01*
X85673100Y-126387796D01*
X85800034Y-126302982D01*
X85907982Y-126195034D01*
X85992796Y-126068100D01*
X86051217Y-125927059D01*
X86081000Y-125777331D01*
X86081000Y-125624669D01*
X86051217Y-125474941D01*
X85992796Y-125333900D01*
X85907982Y-125206966D01*
X85800034Y-125099018D01*
X85673100Y-125014204D01*
X85532059Y-124955783D01*
X85382331Y-124926000D01*
X85229669Y-124926000D01*
X85079941Y-124955783D01*
X84938900Y-125014204D01*
X84811966Y-125099018D01*
X84704018Y-125206966D01*
X84619204Y-125333900D01*
X84560783Y-125474941D01*
X84531000Y-125624669D01*
X50400000Y-125624669D01*
X50400000Y-124582170D01*
X89865000Y-124582170D01*
X89865000Y-124734832D01*
X89894783Y-124884560D01*
X89953204Y-125025601D01*
X90038018Y-125152535D01*
X90145966Y-125260483D01*
X90272900Y-125345297D01*
X90413941Y-125403718D01*
X90563669Y-125433501D01*
X90716331Y-125433501D01*
X90866059Y-125403718D01*
X91007100Y-125345297D01*
X91134034Y-125260483D01*
X91241982Y-125152535D01*
X91326796Y-125025601D01*
X91385217Y-124884560D01*
X91415000Y-124734832D01*
X91415000Y-124582170D01*
X91385217Y-124432442D01*
X91326796Y-124291401D01*
X91241982Y-124164467D01*
X91134034Y-124056519D01*
X91007100Y-123971705D01*
X90866059Y-123913284D01*
X90716331Y-123883501D01*
X90563669Y-123883501D01*
X90413941Y-123913284D01*
X90272900Y-123971705D01*
X90145966Y-124056519D01*
X90038018Y-124164467D01*
X89953204Y-124291401D01*
X89894783Y-124432442D01*
X89865000Y-124582170D01*
X50400000Y-124582170D01*
X50400000Y-123071270D01*
X50506584Y-123142487D01*
X50638525Y-123197139D01*
X50778594Y-123225000D01*
X50921406Y-123225000D01*
X51061475Y-123197139D01*
X51193416Y-123142487D01*
X51312161Y-123063144D01*
X51413144Y-122962161D01*
X51492487Y-122843416D01*
X51547139Y-122711475D01*
X51575000Y-122571406D01*
X51575000Y-122428594D01*
X51925000Y-122428594D01*
X51925000Y-122571406D01*
X51952861Y-122711475D01*
X52007513Y-122843416D01*
X52086856Y-122962161D01*
X52187839Y-123063144D01*
X52306584Y-123142487D01*
X52438525Y-123197139D01*
X52578594Y-123225000D01*
X52721406Y-123225000D01*
X52788426Y-123211669D01*
X68529000Y-123211669D01*
X68529000Y-123364331D01*
X68558783Y-123514059D01*
X68617204Y-123655100D01*
X68702018Y-123782034D01*
X68809966Y-123889982D01*
X68936900Y-123974796D01*
X69077941Y-124033217D01*
X69227669Y-124063000D01*
X69380331Y-124063000D01*
X69530059Y-124033217D01*
X69671100Y-123974796D01*
X69798034Y-123889982D01*
X69905982Y-123782034D01*
X69990796Y-123655100D01*
X70049217Y-123514059D01*
X70079000Y-123364331D01*
X70079000Y-123211669D01*
X70049217Y-123061941D01*
X69990796Y-122920900D01*
X69905982Y-122793966D01*
X69798034Y-122686018D01*
X69671100Y-122601204D01*
X69530059Y-122542783D01*
X69380331Y-122513000D01*
X69227669Y-122513000D01*
X69077941Y-122542783D01*
X68936900Y-122601204D01*
X68809966Y-122686018D01*
X68702018Y-122793966D01*
X68617204Y-122920900D01*
X68558783Y-123061941D01*
X68529000Y-123211669D01*
X52788426Y-123211669D01*
X52861475Y-123197139D01*
X52993416Y-123142487D01*
X53112161Y-123063144D01*
X53213144Y-122962161D01*
X53292487Y-122843416D01*
X53347139Y-122711475D01*
X53375000Y-122571406D01*
X53375000Y-122428594D01*
X53347139Y-122288525D01*
X53292487Y-122156584D01*
X53213144Y-122037839D01*
X53112161Y-121936856D01*
X52993416Y-121857513D01*
X52861475Y-121802861D01*
X52721406Y-121775000D01*
X52578594Y-121775000D01*
X52438525Y-121802861D01*
X52306584Y-121857513D01*
X52187839Y-121936856D01*
X52086856Y-122037839D01*
X52007513Y-122156584D01*
X51952861Y-122288525D01*
X51925000Y-122428594D01*
X51575000Y-122428594D01*
X51547139Y-122288525D01*
X51492487Y-122156584D01*
X51413144Y-122037839D01*
X51312161Y-121936856D01*
X51193416Y-121857513D01*
X51061475Y-121802861D01*
X50921406Y-121775000D01*
X50778594Y-121775000D01*
X50638525Y-121802861D01*
X50506584Y-121857513D01*
X50400000Y-121928730D01*
X50400000Y-121560669D01*
X56591000Y-121560669D01*
X56591000Y-121713331D01*
X56620783Y-121863059D01*
X56679204Y-122004100D01*
X56764018Y-122131034D01*
X56871966Y-122238982D01*
X56998900Y-122323796D01*
X57139941Y-122382217D01*
X57289669Y-122412000D01*
X57442331Y-122412000D01*
X57592059Y-122382217D01*
X57733100Y-122323796D01*
X57860034Y-122238982D01*
X57967982Y-122131034D01*
X58052796Y-122004100D01*
X58111217Y-121863059D01*
X58141000Y-121713331D01*
X58141000Y-121560669D01*
X58111217Y-121410941D01*
X58052796Y-121269900D01*
X57967982Y-121142966D01*
X57860034Y-121035018D01*
X57733100Y-120950204D01*
X57592059Y-120891783D01*
X57442331Y-120862000D01*
X57289669Y-120862000D01*
X57139941Y-120891783D01*
X56998900Y-120950204D01*
X56871966Y-121035018D01*
X56764018Y-121142966D01*
X56679204Y-121269900D01*
X56620783Y-121410941D01*
X56591000Y-121560669D01*
X50400000Y-121560669D01*
X50400000Y-119986000D01*
X63598767Y-119986000D01*
X63615661Y-120157529D01*
X63665695Y-120322467D01*
X63746945Y-120474475D01*
X63828891Y-120574327D01*
X65352888Y-122098325D01*
X65380288Y-122131712D01*
X65513524Y-122241056D01*
X65665532Y-122322305D01*
X65771565Y-122354470D01*
X65830469Y-122372339D01*
X66001999Y-122389233D01*
X66044978Y-122385000D01*
X75164564Y-122385000D01*
X75954672Y-123175109D01*
X76054524Y-123257055D01*
X76206532Y-123338305D01*
X76371470Y-123388339D01*
X76543000Y-123405233D01*
X76714529Y-123388339D01*
X76879467Y-123338305D01*
X76883814Y-123335981D01*
X81950000Y-123335981D01*
X81950000Y-123464019D01*
X81974979Y-123589598D01*
X82023978Y-123707890D01*
X82095112Y-123814351D01*
X82185649Y-123904888D01*
X82292110Y-123976022D01*
X82410402Y-124025021D01*
X82535981Y-124050000D01*
X82664019Y-124050000D01*
X82789598Y-124025021D01*
X82907890Y-123976022D01*
X83014351Y-123904888D01*
X83104888Y-123814351D01*
X83176022Y-123707890D01*
X83225021Y-123589598D01*
X83250000Y-123464019D01*
X83250000Y-123335981D01*
X83750000Y-123335981D01*
X83750000Y-123464019D01*
X83774979Y-123589598D01*
X83823978Y-123707890D01*
X83895112Y-123814351D01*
X83985649Y-123904888D01*
X84092110Y-123976022D01*
X84210402Y-124025021D01*
X84335981Y-124050000D01*
X84464019Y-124050000D01*
X84589598Y-124025021D01*
X84707890Y-123976022D01*
X84814351Y-123904888D01*
X84904888Y-123814351D01*
X84976022Y-123707890D01*
X85025021Y-123589598D01*
X85050000Y-123464019D01*
X85050000Y-123335981D01*
X85025021Y-123210402D01*
X84976022Y-123092110D01*
X84904888Y-122985649D01*
X84814351Y-122895112D01*
X84707890Y-122823978D01*
X84589598Y-122774979D01*
X84464019Y-122750000D01*
X84335981Y-122750000D01*
X84210402Y-122774979D01*
X84092110Y-122823978D01*
X83985649Y-122895112D01*
X83895112Y-122985649D01*
X83823978Y-123092110D01*
X83774979Y-123210402D01*
X83750000Y-123335981D01*
X83250000Y-123335981D01*
X83225021Y-123210402D01*
X83176022Y-123092110D01*
X83104888Y-122985649D01*
X83014351Y-122895112D01*
X82907890Y-122823978D01*
X82789598Y-122774979D01*
X82664019Y-122750000D01*
X82535981Y-122750000D01*
X82410402Y-122774979D01*
X82292110Y-122823978D01*
X82185649Y-122895112D01*
X82095112Y-122985649D01*
X82023978Y-123092110D01*
X81974979Y-123210402D01*
X81950000Y-123335981D01*
X76883814Y-123335981D01*
X77031475Y-123257055D01*
X77164711Y-123147711D01*
X77274055Y-123014475D01*
X77355305Y-122862467D01*
X77405339Y-122697529D01*
X77422233Y-122526000D01*
X77414716Y-122449669D01*
X90500000Y-122449669D01*
X90500000Y-122602331D01*
X90529783Y-122752059D01*
X90588204Y-122893100D01*
X90673018Y-123020034D01*
X90780966Y-123127982D01*
X90907900Y-123212796D01*
X91048941Y-123271217D01*
X91198669Y-123301000D01*
X91351331Y-123301000D01*
X91501059Y-123271217D01*
X91642100Y-123212796D01*
X91769034Y-123127982D01*
X91876982Y-123020034D01*
X91961796Y-122893100D01*
X92020217Y-122752059D01*
X92050000Y-122602331D01*
X92050000Y-122449669D01*
X92020217Y-122299941D01*
X91961796Y-122158900D01*
X91876982Y-122031966D01*
X91769034Y-121924018D01*
X91642100Y-121839204D01*
X91501059Y-121780783D01*
X91351331Y-121751000D01*
X91198669Y-121751000D01*
X91048941Y-121780783D01*
X90907900Y-121839204D01*
X90780966Y-121924018D01*
X90673018Y-122031966D01*
X90588204Y-122158900D01*
X90529783Y-122299941D01*
X90500000Y-122449669D01*
X77414716Y-122449669D01*
X77405339Y-122354470D01*
X77355305Y-122189532D01*
X77274055Y-122037524D01*
X77192109Y-121937672D01*
X76790418Y-121535981D01*
X81950000Y-121535981D01*
X81950000Y-121664019D01*
X81974979Y-121789598D01*
X82023978Y-121907890D01*
X82095112Y-122014351D01*
X82185649Y-122104888D01*
X82292110Y-122176022D01*
X82410402Y-122225021D01*
X82535981Y-122250000D01*
X82664019Y-122250000D01*
X82789598Y-122225021D01*
X82907890Y-122176022D01*
X83014351Y-122104888D01*
X83104888Y-122014351D01*
X83176022Y-121907890D01*
X83225021Y-121789598D01*
X83250000Y-121664019D01*
X83250000Y-121535981D01*
X83750000Y-121535981D01*
X83750000Y-121664019D01*
X83774979Y-121789598D01*
X83823978Y-121907890D01*
X83895112Y-122014351D01*
X83985649Y-122104888D01*
X84092110Y-122176022D01*
X84210402Y-122225021D01*
X84335981Y-122250000D01*
X84464019Y-122250000D01*
X84589598Y-122225021D01*
X84707890Y-122176022D01*
X84814351Y-122104888D01*
X84904888Y-122014351D01*
X84976022Y-121907890D01*
X85025021Y-121789598D01*
X85050000Y-121664019D01*
X85050000Y-121535981D01*
X85025021Y-121410402D01*
X84976022Y-121292110D01*
X84904888Y-121185649D01*
X84814351Y-121095112D01*
X84707890Y-121023978D01*
X84589598Y-120974979D01*
X84464019Y-120950000D01*
X84335981Y-120950000D01*
X84210402Y-120974979D01*
X84092110Y-121023978D01*
X83985649Y-121095112D01*
X83895112Y-121185649D01*
X83823978Y-121292110D01*
X83774979Y-121410402D01*
X83750000Y-121535981D01*
X83250000Y-121535981D01*
X83225021Y-121410402D01*
X83176022Y-121292110D01*
X83104888Y-121185649D01*
X83014351Y-121095112D01*
X82907890Y-121023978D01*
X82789598Y-120974979D01*
X82664019Y-120950000D01*
X82535981Y-120950000D01*
X82410402Y-120974979D01*
X82292110Y-121023978D01*
X82185649Y-121095112D01*
X82095112Y-121185649D01*
X82023978Y-121292110D01*
X81974979Y-121410402D01*
X81950000Y-121535981D01*
X76790418Y-121535981D01*
X76176116Y-120921680D01*
X76148712Y-120888288D01*
X76015476Y-120778944D01*
X75863468Y-120697695D01*
X75698530Y-120647661D01*
X75569979Y-120635000D01*
X75527000Y-120630767D01*
X75484021Y-120635000D01*
X66364437Y-120635000D01*
X65983106Y-120253669D01*
X77003241Y-120253669D01*
X77003241Y-120406331D01*
X77033024Y-120556059D01*
X77091445Y-120697100D01*
X77176259Y-120824034D01*
X77284207Y-120931982D01*
X77411141Y-121016796D01*
X77552182Y-121075217D01*
X77701910Y-121105000D01*
X77854572Y-121105000D01*
X78004300Y-121075217D01*
X78145341Y-121016796D01*
X78272275Y-120931982D01*
X78380223Y-120824034D01*
X78465037Y-120697100D01*
X78523458Y-120556059D01*
X78553241Y-120406331D01*
X78553241Y-120253669D01*
X78523458Y-120103941D01*
X78465037Y-119962900D01*
X78380223Y-119835966D01*
X78272275Y-119728018D01*
X78145341Y-119643204D01*
X78004300Y-119584783D01*
X77854572Y-119555000D01*
X77701910Y-119555000D01*
X77552182Y-119584783D01*
X77411141Y-119643204D01*
X77284207Y-119728018D01*
X77176259Y-119835966D01*
X77091445Y-119962900D01*
X77033024Y-120103941D01*
X77003241Y-120253669D01*
X65983106Y-120253669D01*
X65066327Y-119336891D01*
X64966475Y-119254945D01*
X64814467Y-119173695D01*
X64649529Y-119123661D01*
X64478000Y-119106767D01*
X64306471Y-119123661D01*
X64141533Y-119173695D01*
X63989525Y-119254945D01*
X63856289Y-119364289D01*
X63746945Y-119497525D01*
X63665695Y-119649533D01*
X63615661Y-119814471D01*
X63598767Y-119986000D01*
X50400000Y-119986000D01*
X50400000Y-118843000D01*
X66900767Y-118843000D01*
X66917661Y-119014529D01*
X66967695Y-119179467D01*
X67048945Y-119331475D01*
X67158289Y-119464711D01*
X67291525Y-119574055D01*
X67443533Y-119655305D01*
X67608471Y-119705339D01*
X67780000Y-119722233D01*
X67951529Y-119705339D01*
X68116467Y-119655305D01*
X68268475Y-119574055D01*
X68368327Y-119492109D01*
X69036767Y-118823669D01*
X69734000Y-118823669D01*
X69734000Y-118976331D01*
X69763783Y-119126059D01*
X69822204Y-119267100D01*
X69907018Y-119394034D01*
X70014966Y-119501982D01*
X70141900Y-119586796D01*
X70282941Y-119645217D01*
X70432669Y-119675000D01*
X70585331Y-119675000D01*
X70735059Y-119645217D01*
X70876100Y-119586796D01*
X71003034Y-119501982D01*
X71110982Y-119394034D01*
X71195796Y-119267100D01*
X71254217Y-119126059D01*
X71284000Y-118976331D01*
X71284000Y-118823669D01*
X71254217Y-118673941D01*
X71195796Y-118532900D01*
X71110982Y-118405966D01*
X71003034Y-118298018D01*
X70876100Y-118213204D01*
X70735059Y-118154783D01*
X70585331Y-118125000D01*
X70432669Y-118125000D01*
X70282941Y-118154783D01*
X70141900Y-118213204D01*
X70014966Y-118298018D01*
X69907018Y-118405966D01*
X69822204Y-118532900D01*
X69763783Y-118673941D01*
X69734000Y-118823669D01*
X69036767Y-118823669D01*
X70428437Y-117432000D01*
X85729979Y-117432000D01*
X85858530Y-117419339D01*
X86023468Y-117369305D01*
X86175476Y-117288056D01*
X86308712Y-117178712D01*
X86418056Y-117045476D01*
X86499305Y-116893468D01*
X86549339Y-116728530D01*
X86566233Y-116557000D01*
X86549339Y-116385470D01*
X86499305Y-116220532D01*
X86418056Y-116068524D01*
X86308712Y-115935288D01*
X86175476Y-115825944D01*
X86023468Y-115744695D01*
X85858530Y-115694661D01*
X85825209Y-115691379D01*
X85925600Y-115649796D01*
X86052534Y-115564982D01*
X86160482Y-115457034D01*
X86245296Y-115330100D01*
X86303717Y-115189059D01*
X86333500Y-115039331D01*
X86333500Y-114886669D01*
X86303717Y-114736941D01*
X86245296Y-114595900D01*
X86160482Y-114468966D01*
X86052534Y-114361018D01*
X85925600Y-114276204D01*
X85784559Y-114217783D01*
X85634831Y-114188000D01*
X85482169Y-114188000D01*
X85332441Y-114217783D01*
X85191400Y-114276204D01*
X85064466Y-114361018D01*
X84956518Y-114468966D01*
X84871704Y-114595900D01*
X84813283Y-114736941D01*
X84794434Y-114831702D01*
X82111109Y-114831702D01*
X82018624Y-114769906D01*
X81877583Y-114711485D01*
X81727855Y-114681702D01*
X81575193Y-114681702D01*
X81425465Y-114711485D01*
X81284424Y-114769906D01*
X81157490Y-114854720D01*
X81049542Y-114962668D01*
X80964728Y-115089602D01*
X80906307Y-115230643D01*
X80876524Y-115380371D01*
X80876524Y-115533033D01*
X80906156Y-115682000D01*
X79048844Y-115682000D01*
X79066217Y-115640059D01*
X79096000Y-115490331D01*
X79096000Y-115337669D01*
X79066217Y-115187941D01*
X79007796Y-115046900D01*
X78922982Y-114919966D01*
X78815034Y-114812018D01*
X78688100Y-114727204D01*
X78547059Y-114668783D01*
X78397331Y-114639000D01*
X78244669Y-114639000D01*
X78094941Y-114668783D01*
X77953900Y-114727204D01*
X77826966Y-114812018D01*
X77719018Y-114919966D01*
X77634204Y-115046900D01*
X77575783Y-115187941D01*
X77546000Y-115337669D01*
X77546000Y-115490331D01*
X77575783Y-115640059D01*
X77593156Y-115682000D01*
X72798353Y-115682000D01*
X72876100Y-115649796D01*
X73003034Y-115564982D01*
X73110982Y-115457034D01*
X73195796Y-115330100D01*
X73254217Y-115189059D01*
X73284000Y-115039331D01*
X73284000Y-114886669D01*
X73254217Y-114736941D01*
X73195796Y-114595900D01*
X73110982Y-114468966D01*
X73003034Y-114361018D01*
X72876100Y-114276204D01*
X72735059Y-114217783D01*
X72585331Y-114188000D01*
X72432669Y-114188000D01*
X72282941Y-114217783D01*
X72141900Y-114276204D01*
X72014966Y-114361018D01*
X71907018Y-114468966D01*
X71822204Y-114595900D01*
X71763783Y-114736941D01*
X71742083Y-114846034D01*
X71672117Y-114916000D01*
X69001585Y-114916000D01*
X68909100Y-114854204D01*
X68768059Y-114795783D01*
X68618331Y-114766000D01*
X68465669Y-114766000D01*
X68315941Y-114795783D01*
X68174900Y-114854204D01*
X68047966Y-114939018D01*
X67940018Y-115046966D01*
X67855204Y-115173900D01*
X67796783Y-115314941D01*
X67767000Y-115464669D01*
X67767000Y-115617331D01*
X67796783Y-115767059D01*
X67855204Y-115908100D01*
X67940018Y-116035034D01*
X68047966Y-116142982D01*
X68174900Y-116227796D01*
X68315941Y-116286217D01*
X68465669Y-116316000D01*
X68618331Y-116316000D01*
X68768059Y-116286217D01*
X68909100Y-116227796D01*
X69001585Y-116166000D01*
X69219563Y-116166000D01*
X67130891Y-118254673D01*
X67048945Y-118354525D01*
X66967695Y-118506533D01*
X66917661Y-118671471D01*
X66900767Y-118843000D01*
X50400000Y-118843000D01*
X50400000Y-117934669D01*
X63733000Y-117934669D01*
X63733000Y-118087331D01*
X63762783Y-118237059D01*
X63821204Y-118378100D01*
X63906018Y-118505034D01*
X64013966Y-118612982D01*
X64140900Y-118697796D01*
X64281941Y-118756217D01*
X64431669Y-118786000D01*
X64584331Y-118786000D01*
X64734059Y-118756217D01*
X64875100Y-118697796D01*
X65002034Y-118612982D01*
X65109982Y-118505034D01*
X65194796Y-118378100D01*
X65253217Y-118237059D01*
X65283000Y-118087331D01*
X65283000Y-117934669D01*
X65253217Y-117784941D01*
X65194796Y-117643900D01*
X65109982Y-117516966D01*
X65002034Y-117409018D01*
X64875100Y-117324204D01*
X64734059Y-117265783D01*
X64584331Y-117236000D01*
X64431669Y-117236000D01*
X64281941Y-117265783D01*
X64140900Y-117324204D01*
X64013966Y-117409018D01*
X63906018Y-117516966D01*
X63821204Y-117643900D01*
X63762783Y-117784941D01*
X63733000Y-117934669D01*
X50400000Y-117934669D01*
X50400000Y-116734669D01*
X52654000Y-116734669D01*
X52654000Y-116887331D01*
X52683783Y-117037059D01*
X52742204Y-117178100D01*
X52827018Y-117305034D01*
X52934966Y-117412982D01*
X53061900Y-117497796D01*
X53202941Y-117556217D01*
X53352669Y-117586000D01*
X53505331Y-117586000D01*
X53655059Y-117556217D01*
X53796100Y-117497796D01*
X53923034Y-117412982D01*
X54030982Y-117305034D01*
X54115796Y-117178100D01*
X54174217Y-117037059D01*
X54204000Y-116887331D01*
X54204000Y-116734669D01*
X54174217Y-116584941D01*
X54115796Y-116443900D01*
X54030982Y-116316966D01*
X53923034Y-116209018D01*
X53796100Y-116124204D01*
X53655059Y-116065783D01*
X53505331Y-116036000D01*
X53352669Y-116036000D01*
X53202941Y-116065783D01*
X53061900Y-116124204D01*
X52934966Y-116209018D01*
X52827018Y-116316966D01*
X52742204Y-116443900D01*
X52683783Y-116584941D01*
X52654000Y-116734669D01*
X50400000Y-116734669D01*
X50400000Y-114571056D01*
X54225000Y-114571056D01*
X54225000Y-114708944D01*
X54251901Y-114844182D01*
X54304668Y-114971574D01*
X54381274Y-115086224D01*
X54478776Y-115183726D01*
X54593426Y-115260332D01*
X54720818Y-115313099D01*
X54856056Y-115340000D01*
X54993944Y-115340000D01*
X55129182Y-115313099D01*
X55256574Y-115260332D01*
X55371224Y-115183726D01*
X55468726Y-115086224D01*
X55545332Y-114971574D01*
X55598099Y-114844182D01*
X55625000Y-114708944D01*
X55625000Y-114571056D01*
X55598099Y-114435818D01*
X55545332Y-114308426D01*
X55468726Y-114193776D01*
X55371224Y-114096274D01*
X55256574Y-114019668D01*
X55129182Y-113966901D01*
X54993944Y-113940000D01*
X54856056Y-113940000D01*
X54720818Y-113966901D01*
X54593426Y-114019668D01*
X54478776Y-114096274D01*
X54381274Y-114193776D01*
X54304668Y-114308426D01*
X54251901Y-114435818D01*
X54225000Y-114571056D01*
X50400000Y-114571056D01*
X50400000Y-108791056D01*
X54225000Y-108791056D01*
X54225000Y-108928944D01*
X54251901Y-109064182D01*
X54304668Y-109191574D01*
X54381274Y-109306224D01*
X54478776Y-109403726D01*
X54593426Y-109480332D01*
X54720818Y-109533099D01*
X54856056Y-109560000D01*
X54993944Y-109560000D01*
X55129182Y-109533099D01*
X55256574Y-109480332D01*
X55371224Y-109403726D01*
X55468726Y-109306224D01*
X55545332Y-109191574D01*
X55598099Y-109064182D01*
X55625000Y-108928944D01*
X55625000Y-108791056D01*
X55598099Y-108655818D01*
X55545332Y-108528426D01*
X55468726Y-108413776D01*
X55371224Y-108316274D01*
X55256574Y-108239668D01*
X55129182Y-108186901D01*
X54993944Y-108160000D01*
X54856056Y-108160000D01*
X54720818Y-108186901D01*
X54593426Y-108239668D01*
X54478776Y-108316274D01*
X54381274Y-108413776D01*
X54304668Y-108528426D01*
X54251901Y-108655818D01*
X54225000Y-108791056D01*
X50400000Y-108791056D01*
X50400000Y-106574669D01*
X52654000Y-106574669D01*
X52654000Y-106727331D01*
X52683783Y-106877059D01*
X52742204Y-107018100D01*
X52827018Y-107145034D01*
X52934966Y-107252982D01*
X53061900Y-107337796D01*
X53202941Y-107396217D01*
X53352669Y-107426000D01*
X53505331Y-107426000D01*
X53655059Y-107396217D01*
X53796100Y-107337796D01*
X53923034Y-107252982D01*
X54030982Y-107145034D01*
X54115796Y-107018100D01*
X54174217Y-106877059D01*
X54204000Y-106727331D01*
X54204000Y-106574669D01*
X54174217Y-106424941D01*
X54115796Y-106283900D01*
X54030982Y-106156966D01*
X53923034Y-106049018D01*
X53796100Y-105964204D01*
X53655059Y-105905783D01*
X53505331Y-105876000D01*
X53352669Y-105876000D01*
X53202941Y-105905783D01*
X53061900Y-105964204D01*
X52934966Y-106049018D01*
X52827018Y-106156966D01*
X52742204Y-106283900D01*
X52683783Y-106424941D01*
X52654000Y-106574669D01*
X50400000Y-106574669D01*
X50400000Y-105400000D01*
X59986127Y-105400000D01*
X59485772Y-105900356D01*
G37*
%TD.AperFunction*%
%TD*%
M02*
