%TF.GenerationSoftware,KiCad,Pcbnew,(5.1.7)-1*%
%TF.CreationDate,2021-01-20T17:17:38-05:00*%
%TF.ProjectId,SYSC4907_REV2,53595343-3439-4303-975f-524556322e6b,rev?*%
%TF.SameCoordinates,Original*%
%TF.FileFunction,Copper,L3,Inr*%
%TF.FilePolarity,Positive*%
%FSLAX46Y46*%
G04 Gerber Fmt 4.6, Leading zero omitted, Abs format (unit mm)*
G04 Created by KiCad (PCBNEW (5.1.7)-1) date 2021-01-20 17:17:38*
%MOMM*%
%LPD*%
G01*
G04 APERTURE LIST*
%TA.AperFunction,ComponentPad*%
%ADD10R,1.700000X1.700000*%
%TD*%
%TA.AperFunction,ComponentPad*%
%ADD11O,1.700000X1.700000*%
%TD*%
%TA.AperFunction,ViaPad*%
%ADD12C,0.800000*%
%TD*%
%TA.AperFunction,Conductor*%
%ADD13C,0.250000*%
%TD*%
%TA.AperFunction,Conductor*%
%ADD14C,0.100000*%
%TD*%
G04 APERTURE END LIST*
D10*
%TO.N,+BATT*%
%TO.C,J301*%
X54500000Y-138000000D03*
D11*
%TO.N,GND*%
X51960000Y-138000000D03*
%TD*%
D12*
%TO.N,GND*%
X64508000Y-118011000D03*
X63373000Y-126611000D03*
X57366000Y-121637000D03*
X59372500Y-135755000D03*
X78166000Y-135607000D03*
X77594500Y-127051500D03*
X70509000Y-118900000D03*
X94323000Y-111731000D03*
X97625000Y-139036000D03*
X96228000Y-133956000D03*
X53429000Y-106651000D03*
X53429000Y-116811000D03*
X54699000Y-127860000D03*
X69304000Y-123288000D03*
X68669000Y-137893000D03*
X78321000Y-115414000D03*
X77778241Y-120330000D03*
X94450000Y-116684000D03*
X88608000Y-128876000D03*
X73241000Y-126463000D03*
X100800000Y-128114000D03*
X90640000Y-124658501D03*
X92799000Y-130019000D03*
X92672000Y-136496000D03*
X67145000Y-127987000D03*
X72225000Y-109953000D03*
X85179000Y-109953000D03*
X97498000Y-122526000D03*
%TO.N,+1V8*%
X90259000Y-132432000D03*
X101054000Y-133956000D03*
X91402000Y-133956000D03*
X53175000Y-112747000D03*
X63970000Y-137893000D03*
X73749000Y-119986000D03*
X90252503Y-120335495D03*
X83528000Y-124685000D03*
X88227000Y-109953000D03*
X70320000Y-135734000D03*
X64744316Y-130513011D03*
%TO.N,Net-(C301-Pad2)*%
X58991500Y-130992500D03*
X60960000Y-135755000D03*
%TO.N,+5V*%
X85687000Y-116557000D03*
X67780000Y-118843000D03*
%TO.N,Net-(C304-Pad1)*%
X72509000Y-114963000D03*
X68542000Y-115541000D03*
%TO.N,VBAT_MEAS*%
X59906000Y-113382000D03*
X97498000Y-123669000D03*
%TO.N,POWER_SW*%
X99799997Y-128114000D03*
X101474000Y-123161000D03*
%TO.N,Net-(C309-Pad1)*%
X85558500Y-114963000D03*
X81651524Y-115456702D03*
%TO.N,Net-(C407-Pad1)*%
X86068000Y-128622000D03*
%TO.N,+3V3*%
X64478000Y-119986000D03*
X76543000Y-122526000D03*
X93942000Y-110588000D03*
X88427052Y-108525050D03*
%TO.N,Net-(D301-Pad2)*%
X52667000Y-133194000D03*
X99149000Y-134083000D03*
%TO.N,POWER_ON*%
X90640000Y-126717000D03*
%TO.N,VBUS*%
X90259000Y-118970000D03*
%TO.N,Net-(J202-Pad2)*%
X101474000Y-121868009D03*
%TO.N,Net-(J202-Pad4)*%
X100859073Y-116922996D03*
%TO.N,Net-(J202-Pad10)*%
X98514000Y-116684000D03*
%TO.N,I2C_SCL*%
X81115000Y-137124950D03*
%TO.N,I2C_SDA*%
X82131000Y-136369000D03*
%TO.N,UV_INT*%
X100165000Y-136369000D03*
%TO.N,HEART_INT*%
X79718000Y-135607000D03*
X97945432Y-134084485D03*
%TO.N,FAST_CHARGE*%
X90259000Y-117573000D03*
X97498000Y-121383000D03*
%TO.N,+BATT*%
X59055000Y-126611000D03*
%TO.N,Net-(U201-Pad4)*%
X91695000Y-116684000D03*
%TO.N,Net-(U201-Pad6)*%
X93429347Y-116049000D03*
%TO.N,IR_TEMP*%
X82766000Y-128622000D03*
X92037000Y-129003000D03*
%TO.N,AMB_TEMP*%
X91275000Y-122526000D03*
%TO.N,Net-(U403-Pad8)*%
X85306000Y-125701000D03*
%TO.N,LED_B*%
X101308000Y-115414000D03*
%TO.N,LED_G*%
X101308000Y-114382003D03*
%TO.N,LED_R*%
X101308000Y-113382000D03*
%TO.N,SD_DET*%
X93942000Y-115033000D03*
X61176000Y-113382000D03*
%TD*%
D13*
%TO.N,GND*%
X101875000Y-112852984D02*
X101802034Y-112780018D01*
X101675100Y-112695204D01*
X101534059Y-112636783D01*
X101384331Y-112607000D01*
X101231669Y-112607000D01*
X101081941Y-112636783D01*
X100940900Y-112695204D01*
X100813966Y-112780018D01*
X100706018Y-112887966D01*
X100621204Y-113014900D01*
X100562783Y-113155941D01*
X100533000Y-113305669D01*
X100533000Y-113458331D01*
X100562783Y-113608059D01*
X100621204Y-113749100D01*
X100706018Y-113876034D01*
X100711986Y-113882002D01*
X100706018Y-113887969D01*
X100621204Y-114014903D01*
X100562783Y-114155944D01*
X100533000Y-114305672D01*
X100533000Y-114458334D01*
X100562783Y-114608062D01*
X100621204Y-114749103D01*
X100706018Y-114876037D01*
X100727983Y-114898002D01*
X100706018Y-114919966D01*
X100621204Y-115046900D01*
X100562783Y-115187941D01*
X100533000Y-115337669D01*
X100533000Y-115490331D01*
X100562783Y-115640059D01*
X100621204Y-115781100D01*
X100706018Y-115908034D01*
X100813966Y-116015982D01*
X100940900Y-116100796D01*
X101081941Y-116159217D01*
X101231669Y-116189000D01*
X101384331Y-116189000D01*
X101534059Y-116159217D01*
X101675100Y-116100796D01*
X101802034Y-116015982D01*
X101875000Y-115943016D01*
X101875000Y-121203864D01*
X101841100Y-121181213D01*
X101700059Y-121122792D01*
X101550331Y-121093009D01*
X101397669Y-121093009D01*
X101247941Y-121122792D01*
X101106900Y-121181213D01*
X100979966Y-121266027D01*
X100872018Y-121373975D01*
X100787204Y-121500909D01*
X100728783Y-121641950D01*
X100699000Y-121791678D01*
X100699000Y-121944340D01*
X100728783Y-122094068D01*
X100787204Y-122235109D01*
X100872018Y-122362043D01*
X100979966Y-122469991D01*
X101046586Y-122514505D01*
X100979966Y-122559018D01*
X100872018Y-122666966D01*
X100787204Y-122793900D01*
X100728783Y-122934941D01*
X100699000Y-123084669D01*
X100699000Y-123237331D01*
X100728783Y-123387059D01*
X100787204Y-123528100D01*
X100872018Y-123655034D01*
X100979966Y-123762982D01*
X101106900Y-123847796D01*
X101247941Y-123906217D01*
X101397669Y-123936000D01*
X101550331Y-123936000D01*
X101700059Y-123906217D01*
X101841100Y-123847796D01*
X101875000Y-123825145D01*
X101875000Y-139600000D01*
X50400000Y-139600000D01*
X50400000Y-138314094D01*
X50775945Y-138314094D01*
X50859973Y-138539056D01*
X50986274Y-138743303D01*
X51149995Y-138918985D01*
X51344844Y-139059351D01*
X51563333Y-139159007D01*
X51645907Y-139184049D01*
X51835000Y-139124323D01*
X51835000Y-138125000D01*
X52085000Y-138125000D01*
X52085000Y-139124323D01*
X52274093Y-139184049D01*
X52356667Y-139159007D01*
X52575156Y-139059351D01*
X52770005Y-138918985D01*
X52933726Y-138743303D01*
X53060027Y-138539056D01*
X53144055Y-138314094D01*
X53084862Y-138125000D01*
X52085000Y-138125000D01*
X51835000Y-138125000D01*
X50835138Y-138125000D01*
X50775945Y-138314094D01*
X50400000Y-138314094D01*
X50400000Y-137685906D01*
X50775945Y-137685906D01*
X50835138Y-137875000D01*
X51835000Y-137875000D01*
X51835000Y-136875677D01*
X52085000Y-136875677D01*
X52085000Y-137875000D01*
X53084862Y-137875000D01*
X53144055Y-137685906D01*
X53060027Y-137460944D01*
X52933726Y-137256697D01*
X52834294Y-137150000D01*
X53273186Y-137150000D01*
X53273186Y-138850000D01*
X53280426Y-138923513D01*
X53301869Y-138994200D01*
X53336691Y-139059347D01*
X53383552Y-139116448D01*
X53440653Y-139163309D01*
X53505800Y-139198131D01*
X53576487Y-139219574D01*
X53650000Y-139226814D01*
X55350000Y-139226814D01*
X55423513Y-139219574D01*
X55494200Y-139198131D01*
X55559347Y-139163309D01*
X55616448Y-139116448D01*
X55663309Y-139059347D01*
X55698131Y-138994200D01*
X55719574Y-138923513D01*
X55726814Y-138850000D01*
X55726814Y-137816669D01*
X63195000Y-137816669D01*
X63195000Y-137969331D01*
X63224783Y-138119059D01*
X63283204Y-138260100D01*
X63368018Y-138387034D01*
X63475966Y-138494982D01*
X63602900Y-138579796D01*
X63743941Y-138638217D01*
X63893669Y-138668000D01*
X64046331Y-138668000D01*
X64196059Y-138638217D01*
X64337100Y-138579796D01*
X64464034Y-138494982D01*
X64571982Y-138387034D01*
X64656796Y-138260100D01*
X64715217Y-138119059D01*
X64745000Y-137969331D01*
X64745000Y-137816669D01*
X64715217Y-137666941D01*
X64656796Y-137525900D01*
X64571982Y-137398966D01*
X64464034Y-137291018D01*
X64337100Y-137206204D01*
X64196059Y-137147783D01*
X64046331Y-137118000D01*
X63893669Y-137118000D01*
X63743941Y-137147783D01*
X63602900Y-137206204D01*
X63475966Y-137291018D01*
X63368018Y-137398966D01*
X63283204Y-137525900D01*
X63224783Y-137666941D01*
X63195000Y-137816669D01*
X55726814Y-137816669D01*
X55726814Y-137150000D01*
X55719574Y-137076487D01*
X55711121Y-137048619D01*
X80340000Y-137048619D01*
X80340000Y-137201281D01*
X80369783Y-137351009D01*
X80428204Y-137492050D01*
X80513018Y-137618984D01*
X80620966Y-137726932D01*
X80747900Y-137811746D01*
X80888941Y-137870167D01*
X81038669Y-137899950D01*
X81191331Y-137899950D01*
X81341059Y-137870167D01*
X81482100Y-137811746D01*
X81609034Y-137726932D01*
X81716982Y-137618984D01*
X81801796Y-137492050D01*
X81860217Y-137351009D01*
X81890000Y-137201281D01*
X81890000Y-137108028D01*
X81904941Y-137114217D01*
X82054669Y-137144000D01*
X82207331Y-137144000D01*
X82357059Y-137114217D01*
X82498100Y-137055796D01*
X82625034Y-136970982D01*
X82732982Y-136863034D01*
X82817796Y-136736100D01*
X82876217Y-136595059D01*
X82906000Y-136445331D01*
X82906000Y-136292669D01*
X99390000Y-136292669D01*
X99390000Y-136445331D01*
X99419783Y-136595059D01*
X99478204Y-136736100D01*
X99563018Y-136863034D01*
X99670966Y-136970982D01*
X99797900Y-137055796D01*
X99938941Y-137114217D01*
X100088669Y-137144000D01*
X100241331Y-137144000D01*
X100391059Y-137114217D01*
X100532100Y-137055796D01*
X100659034Y-136970982D01*
X100766982Y-136863034D01*
X100851796Y-136736100D01*
X100910217Y-136595059D01*
X100940000Y-136445331D01*
X100940000Y-136292669D01*
X100910217Y-136142941D01*
X100851796Y-136001900D01*
X100766982Y-135874966D01*
X100659034Y-135767018D01*
X100532100Y-135682204D01*
X100391059Y-135623783D01*
X100241331Y-135594000D01*
X100088669Y-135594000D01*
X99938941Y-135623783D01*
X99797900Y-135682204D01*
X99670966Y-135767018D01*
X99563018Y-135874966D01*
X99478204Y-136001900D01*
X99419783Y-136142941D01*
X99390000Y-136292669D01*
X82906000Y-136292669D01*
X82876217Y-136142941D01*
X82817796Y-136001900D01*
X82732982Y-135874966D01*
X82625034Y-135767018D01*
X82498100Y-135682204D01*
X82357059Y-135623783D01*
X82207331Y-135594000D01*
X82054669Y-135594000D01*
X81904941Y-135623783D01*
X81763900Y-135682204D01*
X81636966Y-135767018D01*
X81529018Y-135874966D01*
X81444204Y-136001900D01*
X81385783Y-136142941D01*
X81356000Y-136292669D01*
X81356000Y-136385922D01*
X81341059Y-136379733D01*
X81191331Y-136349950D01*
X81038669Y-136349950D01*
X80888941Y-136379733D01*
X80747900Y-136438154D01*
X80620966Y-136522968D01*
X80513018Y-136630916D01*
X80428204Y-136757850D01*
X80369783Y-136898891D01*
X80340000Y-137048619D01*
X55711121Y-137048619D01*
X55698131Y-137005800D01*
X55663309Y-136940653D01*
X55616448Y-136883552D01*
X55559347Y-136836691D01*
X55494200Y-136801869D01*
X55423513Y-136780426D01*
X55350000Y-136773186D01*
X53650000Y-136773186D01*
X53576487Y-136780426D01*
X53505800Y-136801869D01*
X53440653Y-136836691D01*
X53383552Y-136883552D01*
X53336691Y-136940653D01*
X53301869Y-137005800D01*
X53280426Y-137076487D01*
X53273186Y-137150000D01*
X52834294Y-137150000D01*
X52770005Y-137081015D01*
X52575156Y-136940649D01*
X52356667Y-136840993D01*
X52274093Y-136815951D01*
X52085000Y-136875677D01*
X51835000Y-136875677D01*
X51645907Y-136815951D01*
X51563333Y-136840993D01*
X51344844Y-136940649D01*
X51149995Y-137081015D01*
X50986274Y-137256697D01*
X50859973Y-137460944D01*
X50775945Y-137685906D01*
X50400000Y-137685906D01*
X50400000Y-135678669D01*
X60185000Y-135678669D01*
X60185000Y-135831331D01*
X60214783Y-135981059D01*
X60273204Y-136122100D01*
X60358018Y-136249034D01*
X60465966Y-136356982D01*
X60592900Y-136441796D01*
X60733941Y-136500217D01*
X60883669Y-136530000D01*
X61036331Y-136530000D01*
X61186059Y-136500217D01*
X61327100Y-136441796D01*
X61454034Y-136356982D01*
X61561982Y-136249034D01*
X61646796Y-136122100D01*
X61705217Y-135981059D01*
X61735000Y-135831331D01*
X61735000Y-135678669D01*
X61730823Y-135657669D01*
X69545000Y-135657669D01*
X69545000Y-135810331D01*
X69574783Y-135960059D01*
X69633204Y-136101100D01*
X69718018Y-136228034D01*
X69825966Y-136335982D01*
X69952900Y-136420796D01*
X70093941Y-136479217D01*
X70243669Y-136509000D01*
X70396331Y-136509000D01*
X70546059Y-136479217D01*
X70687100Y-136420796D01*
X70814034Y-136335982D01*
X70921982Y-136228034D01*
X71006796Y-136101100D01*
X71065217Y-135960059D01*
X71095000Y-135810331D01*
X71095000Y-135657669D01*
X71069738Y-135530669D01*
X78943000Y-135530669D01*
X78943000Y-135683331D01*
X78972783Y-135833059D01*
X79031204Y-135974100D01*
X79116018Y-136101034D01*
X79223966Y-136208982D01*
X79350900Y-136293796D01*
X79491941Y-136352217D01*
X79641669Y-136382000D01*
X79794331Y-136382000D01*
X79944059Y-136352217D01*
X80085100Y-136293796D01*
X80212034Y-136208982D01*
X80319982Y-136101034D01*
X80404796Y-135974100D01*
X80463217Y-135833059D01*
X80493000Y-135683331D01*
X80493000Y-135530669D01*
X80463217Y-135380941D01*
X80404796Y-135239900D01*
X80319982Y-135112966D01*
X80212034Y-135005018D01*
X80085100Y-134920204D01*
X79944059Y-134861783D01*
X79794331Y-134832000D01*
X79641669Y-134832000D01*
X79491941Y-134861783D01*
X79350900Y-134920204D01*
X79223966Y-135005018D01*
X79116018Y-135112966D01*
X79031204Y-135239900D01*
X78972783Y-135380941D01*
X78943000Y-135530669D01*
X71069738Y-135530669D01*
X71065217Y-135507941D01*
X71006796Y-135366900D01*
X70921982Y-135239966D01*
X70814034Y-135132018D01*
X70687100Y-135047204D01*
X70546059Y-134988783D01*
X70396331Y-134959000D01*
X70243669Y-134959000D01*
X70093941Y-134988783D01*
X69952900Y-135047204D01*
X69825966Y-135132018D01*
X69718018Y-135239966D01*
X69633204Y-135366900D01*
X69574783Y-135507941D01*
X69545000Y-135657669D01*
X61730823Y-135657669D01*
X61705217Y-135528941D01*
X61646796Y-135387900D01*
X61561982Y-135260966D01*
X61454034Y-135153018D01*
X61327100Y-135068204D01*
X61186059Y-135009783D01*
X61036331Y-134980000D01*
X60883669Y-134980000D01*
X60733941Y-135009783D01*
X60592900Y-135068204D01*
X60465966Y-135153018D01*
X60358018Y-135260966D01*
X60273204Y-135387900D01*
X60214783Y-135528941D01*
X60185000Y-135678669D01*
X50400000Y-135678669D01*
X50400000Y-133117669D01*
X51892000Y-133117669D01*
X51892000Y-133270331D01*
X51921783Y-133420059D01*
X51980204Y-133561100D01*
X52065018Y-133688034D01*
X52172966Y-133795982D01*
X52299900Y-133880796D01*
X52440941Y-133939217D01*
X52590669Y-133969000D01*
X52743331Y-133969000D01*
X52893059Y-133939217D01*
X53034100Y-133880796D01*
X53035786Y-133879669D01*
X90627000Y-133879669D01*
X90627000Y-134032331D01*
X90656783Y-134182059D01*
X90715204Y-134323100D01*
X90800018Y-134450034D01*
X90907966Y-134557982D01*
X91034900Y-134642796D01*
X91175941Y-134701217D01*
X91325669Y-134731000D01*
X91478331Y-134731000D01*
X91628059Y-134701217D01*
X91769100Y-134642796D01*
X91896034Y-134557982D01*
X92003982Y-134450034D01*
X92088796Y-134323100D01*
X92147217Y-134182059D01*
X92177000Y-134032331D01*
X92177000Y-134008154D01*
X97170432Y-134008154D01*
X97170432Y-134160816D01*
X97200215Y-134310544D01*
X97258636Y-134451585D01*
X97343450Y-134578519D01*
X97451398Y-134686467D01*
X97578332Y-134771281D01*
X97719373Y-134829702D01*
X97869101Y-134859485D01*
X98021763Y-134859485D01*
X98171491Y-134829702D01*
X98312532Y-134771281D01*
X98439466Y-134686467D01*
X98547414Y-134578519D01*
X98547850Y-134577866D01*
X98654966Y-134684982D01*
X98781900Y-134769796D01*
X98922941Y-134828217D01*
X99072669Y-134858000D01*
X99225331Y-134858000D01*
X99375059Y-134828217D01*
X99516100Y-134769796D01*
X99643034Y-134684982D01*
X99750982Y-134577034D01*
X99835796Y-134450100D01*
X99894217Y-134309059D01*
X99924000Y-134159331D01*
X99924000Y-134006669D01*
X99898738Y-133879669D01*
X100279000Y-133879669D01*
X100279000Y-134032331D01*
X100308783Y-134182059D01*
X100367204Y-134323100D01*
X100452018Y-134450034D01*
X100559966Y-134557982D01*
X100686900Y-134642796D01*
X100827941Y-134701217D01*
X100977669Y-134731000D01*
X101130331Y-134731000D01*
X101280059Y-134701217D01*
X101421100Y-134642796D01*
X101548034Y-134557982D01*
X101655982Y-134450034D01*
X101740796Y-134323100D01*
X101799217Y-134182059D01*
X101829000Y-134032331D01*
X101829000Y-133879669D01*
X101799217Y-133729941D01*
X101740796Y-133588900D01*
X101655982Y-133461966D01*
X101548034Y-133354018D01*
X101421100Y-133269204D01*
X101280059Y-133210783D01*
X101130331Y-133181000D01*
X100977669Y-133181000D01*
X100827941Y-133210783D01*
X100686900Y-133269204D01*
X100559966Y-133354018D01*
X100452018Y-133461966D01*
X100367204Y-133588900D01*
X100308783Y-133729941D01*
X100279000Y-133879669D01*
X99898738Y-133879669D01*
X99894217Y-133856941D01*
X99835796Y-133715900D01*
X99750982Y-133588966D01*
X99643034Y-133481018D01*
X99516100Y-133396204D01*
X99375059Y-133337783D01*
X99225331Y-133308000D01*
X99072669Y-133308000D01*
X98922941Y-133337783D01*
X98781900Y-133396204D01*
X98654966Y-133481018D01*
X98547018Y-133588966D01*
X98546582Y-133589619D01*
X98439466Y-133482503D01*
X98312532Y-133397689D01*
X98171491Y-133339268D01*
X98021763Y-133309485D01*
X97869101Y-133309485D01*
X97719373Y-133339268D01*
X97578332Y-133397689D01*
X97451398Y-133482503D01*
X97343450Y-133590451D01*
X97258636Y-133717385D01*
X97200215Y-133858426D01*
X97170432Y-134008154D01*
X92177000Y-134008154D01*
X92177000Y-133879669D01*
X92147217Y-133729941D01*
X92088796Y-133588900D01*
X92003982Y-133461966D01*
X91896034Y-133354018D01*
X91769100Y-133269204D01*
X91628059Y-133210783D01*
X91478331Y-133181000D01*
X91325669Y-133181000D01*
X91175941Y-133210783D01*
X91034900Y-133269204D01*
X90907966Y-133354018D01*
X90800018Y-133461966D01*
X90715204Y-133588900D01*
X90656783Y-133729941D01*
X90627000Y-133879669D01*
X53035786Y-133879669D01*
X53161034Y-133795982D01*
X53268982Y-133688034D01*
X53353796Y-133561100D01*
X53412217Y-133420059D01*
X53442000Y-133270331D01*
X53442000Y-133117669D01*
X53412217Y-132967941D01*
X53353796Y-132826900D01*
X53268982Y-132699966D01*
X53161034Y-132592018D01*
X53034100Y-132507204D01*
X52893059Y-132448783D01*
X52743331Y-132419000D01*
X52590669Y-132419000D01*
X52440941Y-132448783D01*
X52299900Y-132507204D01*
X52172966Y-132592018D01*
X52065018Y-132699966D01*
X51980204Y-132826900D01*
X51921783Y-132967941D01*
X51892000Y-133117669D01*
X50400000Y-133117669D01*
X50400000Y-132355669D01*
X89484000Y-132355669D01*
X89484000Y-132508331D01*
X89513783Y-132658059D01*
X89572204Y-132799100D01*
X89657018Y-132926034D01*
X89764966Y-133033982D01*
X89891900Y-133118796D01*
X90032941Y-133177217D01*
X90182669Y-133207000D01*
X90335331Y-133207000D01*
X90485059Y-133177217D01*
X90626100Y-133118796D01*
X90753034Y-133033982D01*
X90860982Y-132926034D01*
X90945796Y-132799100D01*
X91004217Y-132658059D01*
X91034000Y-132508331D01*
X91034000Y-132355669D01*
X91004217Y-132205941D01*
X90945796Y-132064900D01*
X90860982Y-131937966D01*
X90753034Y-131830018D01*
X90626100Y-131745204D01*
X90485059Y-131686783D01*
X90335331Y-131657000D01*
X90182669Y-131657000D01*
X90032941Y-131686783D01*
X89891900Y-131745204D01*
X89764966Y-131830018D01*
X89657018Y-131937966D01*
X89572204Y-132064900D01*
X89513783Y-132205941D01*
X89484000Y-132355669D01*
X50400000Y-132355669D01*
X50400000Y-130916169D01*
X58216500Y-130916169D01*
X58216500Y-131068831D01*
X58246283Y-131218559D01*
X58304704Y-131359600D01*
X58389518Y-131486534D01*
X58497466Y-131594482D01*
X58624400Y-131679296D01*
X58765441Y-131737717D01*
X58915169Y-131767500D01*
X59067831Y-131767500D01*
X59217559Y-131737717D01*
X59358600Y-131679296D01*
X59485534Y-131594482D01*
X59593482Y-131486534D01*
X59678296Y-131359600D01*
X59736717Y-131218559D01*
X59766500Y-131068831D01*
X59766500Y-130916169D01*
X59736717Y-130766441D01*
X59678296Y-130625400D01*
X59593482Y-130498466D01*
X59531696Y-130436680D01*
X63969316Y-130436680D01*
X63969316Y-130589342D01*
X63999099Y-130739070D01*
X64057520Y-130880111D01*
X64142334Y-131007045D01*
X64250282Y-131114993D01*
X64377216Y-131199807D01*
X64518257Y-131258228D01*
X64667985Y-131288011D01*
X64820647Y-131288011D01*
X64970375Y-131258228D01*
X65111416Y-131199807D01*
X65238350Y-131114993D01*
X65346298Y-131007045D01*
X65431112Y-130880111D01*
X65489533Y-130739070D01*
X65519316Y-130589342D01*
X65519316Y-130436680D01*
X65489533Y-130286952D01*
X65431112Y-130145911D01*
X65346298Y-130018977D01*
X65238350Y-129911029D01*
X65111416Y-129826215D01*
X64970375Y-129767794D01*
X64820647Y-129738011D01*
X64667985Y-129738011D01*
X64518257Y-129767794D01*
X64377216Y-129826215D01*
X64250282Y-129911029D01*
X64142334Y-130018977D01*
X64057520Y-130145911D01*
X63999099Y-130286952D01*
X63969316Y-130436680D01*
X59531696Y-130436680D01*
X59485534Y-130390518D01*
X59358600Y-130305704D01*
X59217559Y-130247283D01*
X59067831Y-130217500D01*
X58915169Y-130217500D01*
X58765441Y-130247283D01*
X58624400Y-130305704D01*
X58497466Y-130390518D01*
X58389518Y-130498466D01*
X58304704Y-130625400D01*
X58246283Y-130766441D01*
X58216500Y-130916169D01*
X50400000Y-130916169D01*
X50400000Y-128545669D01*
X81991000Y-128545669D01*
X81991000Y-128698331D01*
X82020783Y-128848059D01*
X82079204Y-128989100D01*
X82164018Y-129116034D01*
X82271966Y-129223982D01*
X82398900Y-129308796D01*
X82539941Y-129367217D01*
X82689669Y-129397000D01*
X82842331Y-129397000D01*
X82992059Y-129367217D01*
X83133100Y-129308796D01*
X83260034Y-129223982D01*
X83367982Y-129116034D01*
X83452796Y-128989100D01*
X83511217Y-128848059D01*
X83541000Y-128698331D01*
X83541000Y-128545669D01*
X85293000Y-128545669D01*
X85293000Y-128698331D01*
X85322783Y-128848059D01*
X85381204Y-128989100D01*
X85466018Y-129116034D01*
X85573966Y-129223982D01*
X85700900Y-129308796D01*
X85841941Y-129367217D01*
X85991669Y-129397000D01*
X86144331Y-129397000D01*
X86294059Y-129367217D01*
X86435100Y-129308796D01*
X86562034Y-129223982D01*
X86669982Y-129116034D01*
X86754796Y-128989100D01*
X86780655Y-128926669D01*
X91262000Y-128926669D01*
X91262000Y-129079331D01*
X91291783Y-129229059D01*
X91350204Y-129370100D01*
X91435018Y-129497034D01*
X91542966Y-129604982D01*
X91669900Y-129689796D01*
X91810941Y-129748217D01*
X91960669Y-129778000D01*
X92113331Y-129778000D01*
X92263059Y-129748217D01*
X92404100Y-129689796D01*
X92531034Y-129604982D01*
X92638982Y-129497034D01*
X92723796Y-129370100D01*
X92782217Y-129229059D01*
X92812000Y-129079331D01*
X92812000Y-128926669D01*
X92782217Y-128776941D01*
X92723796Y-128635900D01*
X92638982Y-128508966D01*
X92531034Y-128401018D01*
X92404100Y-128316204D01*
X92263059Y-128257783D01*
X92113331Y-128228000D01*
X91960669Y-128228000D01*
X91810941Y-128257783D01*
X91669900Y-128316204D01*
X91542966Y-128401018D01*
X91435018Y-128508966D01*
X91350204Y-128635900D01*
X91291783Y-128776941D01*
X91262000Y-128926669D01*
X86780655Y-128926669D01*
X86813217Y-128848059D01*
X86843000Y-128698331D01*
X86843000Y-128545669D01*
X86813217Y-128395941D01*
X86754796Y-128254900D01*
X86669982Y-128127966D01*
X86579685Y-128037669D01*
X99024997Y-128037669D01*
X99024997Y-128190331D01*
X99054780Y-128340059D01*
X99113201Y-128481100D01*
X99198015Y-128608034D01*
X99305963Y-128715982D01*
X99432897Y-128800796D01*
X99573938Y-128859217D01*
X99723666Y-128889000D01*
X99876328Y-128889000D01*
X100026056Y-128859217D01*
X100167097Y-128800796D01*
X100294031Y-128715982D01*
X100401979Y-128608034D01*
X100486793Y-128481100D01*
X100545214Y-128340059D01*
X100574997Y-128190331D01*
X100574997Y-128037669D01*
X100545214Y-127887941D01*
X100486793Y-127746900D01*
X100401979Y-127619966D01*
X100294031Y-127512018D01*
X100167097Y-127427204D01*
X100026056Y-127368783D01*
X99876328Y-127339000D01*
X99723666Y-127339000D01*
X99573938Y-127368783D01*
X99432897Y-127427204D01*
X99305963Y-127512018D01*
X99198015Y-127619966D01*
X99113201Y-127746900D01*
X99054780Y-127887941D01*
X99024997Y-128037669D01*
X86579685Y-128037669D01*
X86562034Y-128020018D01*
X86435100Y-127935204D01*
X86294059Y-127876783D01*
X86144331Y-127847000D01*
X85991669Y-127847000D01*
X85841941Y-127876783D01*
X85700900Y-127935204D01*
X85573966Y-128020018D01*
X85466018Y-128127966D01*
X85381204Y-128254900D01*
X85322783Y-128395941D01*
X85293000Y-128545669D01*
X83541000Y-128545669D01*
X83511217Y-128395941D01*
X83452796Y-128254900D01*
X83367982Y-128127966D01*
X83260034Y-128020018D01*
X83133100Y-127935204D01*
X82992059Y-127876783D01*
X82842331Y-127847000D01*
X82689669Y-127847000D01*
X82539941Y-127876783D01*
X82398900Y-127935204D01*
X82271966Y-128020018D01*
X82164018Y-128127966D01*
X82079204Y-128254900D01*
X82020783Y-128395941D01*
X81991000Y-128545669D01*
X50400000Y-128545669D01*
X50400000Y-126534669D01*
X58280000Y-126534669D01*
X58280000Y-126687331D01*
X58309783Y-126837059D01*
X58368204Y-126978100D01*
X58453018Y-127105034D01*
X58560966Y-127212982D01*
X58687900Y-127297796D01*
X58828941Y-127356217D01*
X58978669Y-127386000D01*
X59131331Y-127386000D01*
X59281059Y-127356217D01*
X59422100Y-127297796D01*
X59549034Y-127212982D01*
X59656982Y-127105034D01*
X59741796Y-126978100D01*
X59800217Y-126837059D01*
X59830000Y-126687331D01*
X59830000Y-126640669D01*
X89865000Y-126640669D01*
X89865000Y-126793331D01*
X89894783Y-126943059D01*
X89953204Y-127084100D01*
X90038018Y-127211034D01*
X90145966Y-127318982D01*
X90272900Y-127403796D01*
X90413941Y-127462217D01*
X90563669Y-127492000D01*
X90716331Y-127492000D01*
X90866059Y-127462217D01*
X91007100Y-127403796D01*
X91134034Y-127318982D01*
X91241982Y-127211034D01*
X91326796Y-127084100D01*
X91385217Y-126943059D01*
X91415000Y-126793331D01*
X91415000Y-126640669D01*
X91385217Y-126490941D01*
X91326796Y-126349900D01*
X91241982Y-126222966D01*
X91134034Y-126115018D01*
X91007100Y-126030204D01*
X90866059Y-125971783D01*
X90716331Y-125942000D01*
X90563669Y-125942000D01*
X90413941Y-125971783D01*
X90272900Y-126030204D01*
X90145966Y-126115018D01*
X90038018Y-126222966D01*
X89953204Y-126349900D01*
X89894783Y-126490941D01*
X89865000Y-126640669D01*
X59830000Y-126640669D01*
X59830000Y-126534669D01*
X59800217Y-126384941D01*
X59741796Y-126243900D01*
X59656982Y-126116966D01*
X59549034Y-126009018D01*
X59422100Y-125924204D01*
X59281059Y-125865783D01*
X59131331Y-125836000D01*
X58978669Y-125836000D01*
X58828941Y-125865783D01*
X58687900Y-125924204D01*
X58560966Y-126009018D01*
X58453018Y-126116966D01*
X58368204Y-126243900D01*
X58309783Y-126384941D01*
X58280000Y-126534669D01*
X50400000Y-126534669D01*
X50400000Y-125624669D01*
X84531000Y-125624669D01*
X84531000Y-125777331D01*
X84560783Y-125927059D01*
X84619204Y-126068100D01*
X84704018Y-126195034D01*
X84811966Y-126302982D01*
X84938900Y-126387796D01*
X85079941Y-126446217D01*
X85229669Y-126476000D01*
X85382331Y-126476000D01*
X85532059Y-126446217D01*
X85673100Y-126387796D01*
X85800034Y-126302982D01*
X85907982Y-126195034D01*
X85992796Y-126068100D01*
X86051217Y-125927059D01*
X86081000Y-125777331D01*
X86081000Y-125624669D01*
X86051217Y-125474941D01*
X85992796Y-125333900D01*
X85907982Y-125206966D01*
X85800034Y-125099018D01*
X85673100Y-125014204D01*
X85532059Y-124955783D01*
X85382331Y-124926000D01*
X85229669Y-124926000D01*
X85079941Y-124955783D01*
X84938900Y-125014204D01*
X84811966Y-125099018D01*
X84704018Y-125206966D01*
X84619204Y-125333900D01*
X84560783Y-125474941D01*
X84531000Y-125624669D01*
X50400000Y-125624669D01*
X50400000Y-124608669D01*
X82753000Y-124608669D01*
X82753000Y-124761331D01*
X82782783Y-124911059D01*
X82841204Y-125052100D01*
X82926018Y-125179034D01*
X83033966Y-125286982D01*
X83160900Y-125371796D01*
X83301941Y-125430217D01*
X83451669Y-125460000D01*
X83604331Y-125460000D01*
X83754059Y-125430217D01*
X83895100Y-125371796D01*
X84022034Y-125286982D01*
X84129982Y-125179034D01*
X84214796Y-125052100D01*
X84273217Y-124911059D01*
X84303000Y-124761331D01*
X84303000Y-124608669D01*
X84273217Y-124458941D01*
X84214796Y-124317900D01*
X84129982Y-124190966D01*
X84022034Y-124083018D01*
X83895100Y-123998204D01*
X83754059Y-123939783D01*
X83604331Y-123910000D01*
X83451669Y-123910000D01*
X83301941Y-123939783D01*
X83160900Y-123998204D01*
X83033966Y-124083018D01*
X82926018Y-124190966D01*
X82841204Y-124317900D01*
X82782783Y-124458941D01*
X82753000Y-124608669D01*
X50400000Y-124608669D01*
X50400000Y-123335981D01*
X81950000Y-123335981D01*
X81950000Y-123464019D01*
X81974979Y-123589598D01*
X82023978Y-123707890D01*
X82095112Y-123814351D01*
X82185649Y-123904888D01*
X82292110Y-123976022D01*
X82410402Y-124025021D01*
X82535981Y-124050000D01*
X82664019Y-124050000D01*
X82789598Y-124025021D01*
X82907890Y-123976022D01*
X83014351Y-123904888D01*
X83104888Y-123814351D01*
X83176022Y-123707890D01*
X83225021Y-123589598D01*
X83250000Y-123464019D01*
X83250000Y-123335981D01*
X83750000Y-123335981D01*
X83750000Y-123464019D01*
X83774979Y-123589598D01*
X83823978Y-123707890D01*
X83895112Y-123814351D01*
X83985649Y-123904888D01*
X84092110Y-123976022D01*
X84210402Y-124025021D01*
X84335981Y-124050000D01*
X84464019Y-124050000D01*
X84589598Y-124025021D01*
X84707890Y-123976022D01*
X84814351Y-123904888D01*
X84904888Y-123814351D01*
X84976022Y-123707890D01*
X85023748Y-123592669D01*
X96723000Y-123592669D01*
X96723000Y-123745331D01*
X96752783Y-123895059D01*
X96811204Y-124036100D01*
X96896018Y-124163034D01*
X97003966Y-124270982D01*
X97130900Y-124355796D01*
X97271941Y-124414217D01*
X97421669Y-124444000D01*
X97574331Y-124444000D01*
X97724059Y-124414217D01*
X97865100Y-124355796D01*
X97992034Y-124270982D01*
X98099982Y-124163034D01*
X98184796Y-124036100D01*
X98243217Y-123895059D01*
X98273000Y-123745331D01*
X98273000Y-123592669D01*
X98243217Y-123442941D01*
X98184796Y-123301900D01*
X98099982Y-123174966D01*
X97992034Y-123067018D01*
X97865100Y-122982204D01*
X97724059Y-122923783D01*
X97574331Y-122894000D01*
X97421669Y-122894000D01*
X97271941Y-122923783D01*
X97130900Y-122982204D01*
X97003966Y-123067018D01*
X96896018Y-123174966D01*
X96811204Y-123301900D01*
X96752783Y-123442941D01*
X96723000Y-123592669D01*
X85023748Y-123592669D01*
X85025021Y-123589598D01*
X85050000Y-123464019D01*
X85050000Y-123335981D01*
X85025021Y-123210402D01*
X84976022Y-123092110D01*
X84904888Y-122985649D01*
X84814351Y-122895112D01*
X84707890Y-122823978D01*
X84589598Y-122774979D01*
X84464019Y-122750000D01*
X84335981Y-122750000D01*
X84210402Y-122774979D01*
X84092110Y-122823978D01*
X83985649Y-122895112D01*
X83895112Y-122985649D01*
X83823978Y-123092110D01*
X83774979Y-123210402D01*
X83750000Y-123335981D01*
X83250000Y-123335981D01*
X83225021Y-123210402D01*
X83176022Y-123092110D01*
X83104888Y-122985649D01*
X83014351Y-122895112D01*
X82907890Y-122823978D01*
X82789598Y-122774979D01*
X82664019Y-122750000D01*
X82535981Y-122750000D01*
X82410402Y-122774979D01*
X82292110Y-122823978D01*
X82185649Y-122895112D01*
X82095112Y-122985649D01*
X82023978Y-123092110D01*
X81974979Y-123210402D01*
X81950000Y-123335981D01*
X50400000Y-123335981D01*
X50400000Y-123071270D01*
X50506584Y-123142487D01*
X50638525Y-123197139D01*
X50778594Y-123225000D01*
X50921406Y-123225000D01*
X51061475Y-123197139D01*
X51193416Y-123142487D01*
X51312161Y-123063144D01*
X51413144Y-122962161D01*
X51492487Y-122843416D01*
X51547139Y-122711475D01*
X51575000Y-122571406D01*
X51575000Y-122428594D01*
X51925000Y-122428594D01*
X51925000Y-122571406D01*
X51952861Y-122711475D01*
X52007513Y-122843416D01*
X52086856Y-122962161D01*
X52187839Y-123063144D01*
X52306584Y-123142487D01*
X52438525Y-123197139D01*
X52578594Y-123225000D01*
X52721406Y-123225000D01*
X52861475Y-123197139D01*
X52993416Y-123142487D01*
X53112161Y-123063144D01*
X53213144Y-122962161D01*
X53292487Y-122843416D01*
X53347139Y-122711475D01*
X53375000Y-122571406D01*
X53375000Y-122449669D01*
X75768000Y-122449669D01*
X75768000Y-122602331D01*
X75797783Y-122752059D01*
X75856204Y-122893100D01*
X75941018Y-123020034D01*
X76048966Y-123127982D01*
X76175900Y-123212796D01*
X76316941Y-123271217D01*
X76466669Y-123301000D01*
X76619331Y-123301000D01*
X76769059Y-123271217D01*
X76910100Y-123212796D01*
X77037034Y-123127982D01*
X77144982Y-123020034D01*
X77229796Y-122893100D01*
X77288217Y-122752059D01*
X77318000Y-122602331D01*
X77318000Y-122449669D01*
X90500000Y-122449669D01*
X90500000Y-122602331D01*
X90529783Y-122752059D01*
X90588204Y-122893100D01*
X90673018Y-123020034D01*
X90780966Y-123127982D01*
X90907900Y-123212796D01*
X91048941Y-123271217D01*
X91198669Y-123301000D01*
X91351331Y-123301000D01*
X91501059Y-123271217D01*
X91642100Y-123212796D01*
X91769034Y-123127982D01*
X91876982Y-123020034D01*
X91961796Y-122893100D01*
X92020217Y-122752059D01*
X92050000Y-122602331D01*
X92050000Y-122449669D01*
X92020217Y-122299941D01*
X91961796Y-122158900D01*
X91876982Y-122031966D01*
X91769034Y-121924018D01*
X91642100Y-121839204D01*
X91501059Y-121780783D01*
X91351331Y-121751000D01*
X91198669Y-121751000D01*
X91048941Y-121780783D01*
X90907900Y-121839204D01*
X90780966Y-121924018D01*
X90673018Y-122031966D01*
X90588204Y-122158900D01*
X90529783Y-122299941D01*
X90500000Y-122449669D01*
X77318000Y-122449669D01*
X77288217Y-122299941D01*
X77229796Y-122158900D01*
X77144982Y-122031966D01*
X77037034Y-121924018D01*
X76910100Y-121839204D01*
X76769059Y-121780783D01*
X76619331Y-121751000D01*
X76466669Y-121751000D01*
X76316941Y-121780783D01*
X76175900Y-121839204D01*
X76048966Y-121924018D01*
X75941018Y-122031966D01*
X75856204Y-122158900D01*
X75797783Y-122299941D01*
X75768000Y-122449669D01*
X53375000Y-122449669D01*
X53375000Y-122428594D01*
X53347139Y-122288525D01*
X53292487Y-122156584D01*
X53213144Y-122037839D01*
X53112161Y-121936856D01*
X52993416Y-121857513D01*
X52861475Y-121802861D01*
X52721406Y-121775000D01*
X52578594Y-121775000D01*
X52438525Y-121802861D01*
X52306584Y-121857513D01*
X52187839Y-121936856D01*
X52086856Y-122037839D01*
X52007513Y-122156584D01*
X51952861Y-122288525D01*
X51925000Y-122428594D01*
X51575000Y-122428594D01*
X51547139Y-122288525D01*
X51492487Y-122156584D01*
X51413144Y-122037839D01*
X51312161Y-121936856D01*
X51193416Y-121857513D01*
X51061475Y-121802861D01*
X50921406Y-121775000D01*
X50778594Y-121775000D01*
X50638525Y-121802861D01*
X50506584Y-121857513D01*
X50400000Y-121928730D01*
X50400000Y-121535981D01*
X81950000Y-121535981D01*
X81950000Y-121664019D01*
X81974979Y-121789598D01*
X82023978Y-121907890D01*
X82095112Y-122014351D01*
X82185649Y-122104888D01*
X82292110Y-122176022D01*
X82410402Y-122225021D01*
X82535981Y-122250000D01*
X82664019Y-122250000D01*
X82789598Y-122225021D01*
X82907890Y-122176022D01*
X83014351Y-122104888D01*
X83104888Y-122014351D01*
X83176022Y-121907890D01*
X83225021Y-121789598D01*
X83250000Y-121664019D01*
X83250000Y-121535981D01*
X83750000Y-121535981D01*
X83750000Y-121664019D01*
X83774979Y-121789598D01*
X83823978Y-121907890D01*
X83895112Y-122014351D01*
X83985649Y-122104888D01*
X84092110Y-122176022D01*
X84210402Y-122225021D01*
X84335981Y-122250000D01*
X84464019Y-122250000D01*
X84589598Y-122225021D01*
X84707890Y-122176022D01*
X84814351Y-122104888D01*
X84904888Y-122014351D01*
X84976022Y-121907890D01*
X85025021Y-121789598D01*
X85050000Y-121664019D01*
X85050000Y-121535981D01*
X85025021Y-121410402D01*
X84982053Y-121306669D01*
X96723000Y-121306669D01*
X96723000Y-121459331D01*
X96752783Y-121609059D01*
X96811204Y-121750100D01*
X96896018Y-121877034D01*
X97003966Y-121984982D01*
X97130900Y-122069796D01*
X97271941Y-122128217D01*
X97421669Y-122158000D01*
X97574331Y-122158000D01*
X97724059Y-122128217D01*
X97865100Y-122069796D01*
X97992034Y-121984982D01*
X98099982Y-121877034D01*
X98184796Y-121750100D01*
X98243217Y-121609059D01*
X98273000Y-121459331D01*
X98273000Y-121306669D01*
X98243217Y-121156941D01*
X98184796Y-121015900D01*
X98099982Y-120888966D01*
X97992034Y-120781018D01*
X97865100Y-120696204D01*
X97724059Y-120637783D01*
X97574331Y-120608000D01*
X97421669Y-120608000D01*
X97271941Y-120637783D01*
X97130900Y-120696204D01*
X97003966Y-120781018D01*
X96896018Y-120888966D01*
X96811204Y-121015900D01*
X96752783Y-121156941D01*
X96723000Y-121306669D01*
X84982053Y-121306669D01*
X84976022Y-121292110D01*
X84904888Y-121185649D01*
X84814351Y-121095112D01*
X84707890Y-121023978D01*
X84589598Y-120974979D01*
X84464019Y-120950000D01*
X84335981Y-120950000D01*
X84210402Y-120974979D01*
X84092110Y-121023978D01*
X83985649Y-121095112D01*
X83895112Y-121185649D01*
X83823978Y-121292110D01*
X83774979Y-121410402D01*
X83750000Y-121535981D01*
X83250000Y-121535981D01*
X83225021Y-121410402D01*
X83176022Y-121292110D01*
X83104888Y-121185649D01*
X83014351Y-121095112D01*
X82907890Y-121023978D01*
X82789598Y-120974979D01*
X82664019Y-120950000D01*
X82535981Y-120950000D01*
X82410402Y-120974979D01*
X82292110Y-121023978D01*
X82185649Y-121095112D01*
X82095112Y-121185649D01*
X82023978Y-121292110D01*
X81974979Y-121410402D01*
X81950000Y-121535981D01*
X50400000Y-121535981D01*
X50400000Y-119909669D01*
X63703000Y-119909669D01*
X63703000Y-120062331D01*
X63732783Y-120212059D01*
X63791204Y-120353100D01*
X63876018Y-120480034D01*
X63983966Y-120587982D01*
X64110900Y-120672796D01*
X64251941Y-120731217D01*
X64401669Y-120761000D01*
X64554331Y-120761000D01*
X64704059Y-120731217D01*
X64845100Y-120672796D01*
X64972034Y-120587982D01*
X65079982Y-120480034D01*
X65164796Y-120353100D01*
X65223217Y-120212059D01*
X65253000Y-120062331D01*
X65253000Y-119909669D01*
X72974000Y-119909669D01*
X72974000Y-120062331D01*
X73003783Y-120212059D01*
X73062204Y-120353100D01*
X73147018Y-120480034D01*
X73254966Y-120587982D01*
X73381900Y-120672796D01*
X73522941Y-120731217D01*
X73672669Y-120761000D01*
X73825331Y-120761000D01*
X73975059Y-120731217D01*
X74116100Y-120672796D01*
X74243034Y-120587982D01*
X74350982Y-120480034D01*
X74435796Y-120353100D01*
X74474705Y-120259164D01*
X89477503Y-120259164D01*
X89477503Y-120411826D01*
X89507286Y-120561554D01*
X89565707Y-120702595D01*
X89650521Y-120829529D01*
X89758469Y-120937477D01*
X89885403Y-121022291D01*
X90026444Y-121080712D01*
X90176172Y-121110495D01*
X90328834Y-121110495D01*
X90478562Y-121080712D01*
X90619603Y-121022291D01*
X90746537Y-120937477D01*
X90854485Y-120829529D01*
X90939299Y-120702595D01*
X90997720Y-120561554D01*
X91027503Y-120411826D01*
X91027503Y-120259164D01*
X90997720Y-120109436D01*
X90939299Y-119968395D01*
X90854485Y-119841461D01*
X90746537Y-119733513D01*
X90628911Y-119654918D01*
X90753034Y-119571982D01*
X90860982Y-119464034D01*
X90945796Y-119337100D01*
X91004217Y-119196059D01*
X91034000Y-119046331D01*
X91034000Y-118893669D01*
X91004217Y-118743941D01*
X90945796Y-118602900D01*
X90860982Y-118475966D01*
X90753034Y-118368018D01*
X90626100Y-118283204D01*
X90597844Y-118271500D01*
X90626100Y-118259796D01*
X90753034Y-118174982D01*
X90860982Y-118067034D01*
X90945796Y-117940100D01*
X91004217Y-117799059D01*
X91034000Y-117649331D01*
X91034000Y-117496669D01*
X91004217Y-117346941D01*
X90945796Y-117205900D01*
X90860982Y-117078966D01*
X90753034Y-116971018D01*
X90626100Y-116886204D01*
X90485059Y-116827783D01*
X90335331Y-116798000D01*
X90182669Y-116798000D01*
X90032941Y-116827783D01*
X89891900Y-116886204D01*
X89764966Y-116971018D01*
X89657018Y-117078966D01*
X89572204Y-117205900D01*
X89513783Y-117346941D01*
X89484000Y-117496669D01*
X89484000Y-117649331D01*
X89513783Y-117799059D01*
X89572204Y-117940100D01*
X89657018Y-118067034D01*
X89764966Y-118174982D01*
X89891900Y-118259796D01*
X89920156Y-118271500D01*
X89891900Y-118283204D01*
X89764966Y-118368018D01*
X89657018Y-118475966D01*
X89572204Y-118602900D01*
X89513783Y-118743941D01*
X89484000Y-118893669D01*
X89484000Y-119046331D01*
X89513783Y-119196059D01*
X89572204Y-119337100D01*
X89657018Y-119464034D01*
X89764966Y-119571982D01*
X89882592Y-119650577D01*
X89758469Y-119733513D01*
X89650521Y-119841461D01*
X89565707Y-119968395D01*
X89507286Y-120109436D01*
X89477503Y-120259164D01*
X74474705Y-120259164D01*
X74494217Y-120212059D01*
X74524000Y-120062331D01*
X74524000Y-119909669D01*
X74494217Y-119759941D01*
X74435796Y-119618900D01*
X74350982Y-119491966D01*
X74243034Y-119384018D01*
X74116100Y-119299204D01*
X73975059Y-119240783D01*
X73825331Y-119211000D01*
X73672669Y-119211000D01*
X73522941Y-119240783D01*
X73381900Y-119299204D01*
X73254966Y-119384018D01*
X73147018Y-119491966D01*
X73062204Y-119618900D01*
X73003783Y-119759941D01*
X72974000Y-119909669D01*
X65253000Y-119909669D01*
X65223217Y-119759941D01*
X65164796Y-119618900D01*
X65079982Y-119491966D01*
X64972034Y-119384018D01*
X64845100Y-119299204D01*
X64704059Y-119240783D01*
X64554331Y-119211000D01*
X64401669Y-119211000D01*
X64251941Y-119240783D01*
X64110900Y-119299204D01*
X63983966Y-119384018D01*
X63876018Y-119491966D01*
X63791204Y-119618900D01*
X63732783Y-119759941D01*
X63703000Y-119909669D01*
X50400000Y-119909669D01*
X50400000Y-118766669D01*
X67005000Y-118766669D01*
X67005000Y-118919331D01*
X67034783Y-119069059D01*
X67093204Y-119210100D01*
X67178018Y-119337034D01*
X67285966Y-119444982D01*
X67412900Y-119529796D01*
X67553941Y-119588217D01*
X67703669Y-119618000D01*
X67856331Y-119618000D01*
X68006059Y-119588217D01*
X68147100Y-119529796D01*
X68274034Y-119444982D01*
X68381982Y-119337034D01*
X68466796Y-119210100D01*
X68525217Y-119069059D01*
X68555000Y-118919331D01*
X68555000Y-118766669D01*
X68525217Y-118616941D01*
X68466796Y-118475900D01*
X68381982Y-118348966D01*
X68274034Y-118241018D01*
X68147100Y-118156204D01*
X68006059Y-118097783D01*
X67856331Y-118068000D01*
X67703669Y-118068000D01*
X67553941Y-118097783D01*
X67412900Y-118156204D01*
X67285966Y-118241018D01*
X67178018Y-118348966D01*
X67093204Y-118475900D01*
X67034783Y-118616941D01*
X67005000Y-118766669D01*
X50400000Y-118766669D01*
X50400000Y-116480669D01*
X84912000Y-116480669D01*
X84912000Y-116633331D01*
X84941783Y-116783059D01*
X85000204Y-116924100D01*
X85085018Y-117051034D01*
X85192966Y-117158982D01*
X85319900Y-117243796D01*
X85460941Y-117302217D01*
X85610669Y-117332000D01*
X85763331Y-117332000D01*
X85913059Y-117302217D01*
X86054100Y-117243796D01*
X86181034Y-117158982D01*
X86288982Y-117051034D01*
X86373796Y-116924100D01*
X86432217Y-116783059D01*
X86462000Y-116633331D01*
X86462000Y-116607669D01*
X90920000Y-116607669D01*
X90920000Y-116760331D01*
X90949783Y-116910059D01*
X91008204Y-117051100D01*
X91093018Y-117178034D01*
X91200966Y-117285982D01*
X91327900Y-117370796D01*
X91468941Y-117429217D01*
X91618669Y-117459000D01*
X91771331Y-117459000D01*
X91921059Y-117429217D01*
X92062100Y-117370796D01*
X92189034Y-117285982D01*
X92296982Y-117178034D01*
X92381796Y-117051100D01*
X92440217Y-116910059D01*
X92470000Y-116760331D01*
X92470000Y-116607669D01*
X92440217Y-116457941D01*
X92381796Y-116316900D01*
X92296982Y-116189966D01*
X92189034Y-116082018D01*
X92062100Y-115997204D01*
X92002868Y-115972669D01*
X92654347Y-115972669D01*
X92654347Y-116125331D01*
X92684130Y-116275059D01*
X92742551Y-116416100D01*
X92827365Y-116543034D01*
X92935313Y-116650982D01*
X93062247Y-116735796D01*
X93203288Y-116794217D01*
X93353016Y-116824000D01*
X93505678Y-116824000D01*
X93655406Y-116794217D01*
X93796447Y-116735796D01*
X93923381Y-116650982D01*
X93966694Y-116607669D01*
X97739000Y-116607669D01*
X97739000Y-116760331D01*
X97768783Y-116910059D01*
X97827204Y-117051100D01*
X97912018Y-117178034D01*
X98019966Y-117285982D01*
X98146900Y-117370796D01*
X98287941Y-117429217D01*
X98437669Y-117459000D01*
X98590331Y-117459000D01*
X98740059Y-117429217D01*
X98881100Y-117370796D01*
X99008034Y-117285982D01*
X99115982Y-117178034D01*
X99200796Y-117051100D01*
X99259217Y-116910059D01*
X99271826Y-116846665D01*
X100084073Y-116846665D01*
X100084073Y-116999327D01*
X100113856Y-117149055D01*
X100172277Y-117290096D01*
X100257091Y-117417030D01*
X100365039Y-117524978D01*
X100491973Y-117609792D01*
X100633014Y-117668213D01*
X100782742Y-117697996D01*
X100935404Y-117697996D01*
X101085132Y-117668213D01*
X101226173Y-117609792D01*
X101353107Y-117524978D01*
X101461055Y-117417030D01*
X101545869Y-117290096D01*
X101604290Y-117149055D01*
X101634073Y-116999327D01*
X101634073Y-116846665D01*
X101604290Y-116696937D01*
X101545869Y-116555896D01*
X101461055Y-116428962D01*
X101353107Y-116321014D01*
X101226173Y-116236200D01*
X101085132Y-116177779D01*
X100935404Y-116147996D01*
X100782742Y-116147996D01*
X100633014Y-116177779D01*
X100491973Y-116236200D01*
X100365039Y-116321014D01*
X100257091Y-116428962D01*
X100172277Y-116555896D01*
X100113856Y-116696937D01*
X100084073Y-116846665D01*
X99271826Y-116846665D01*
X99289000Y-116760331D01*
X99289000Y-116607669D01*
X99259217Y-116457941D01*
X99200796Y-116316900D01*
X99115982Y-116189966D01*
X99008034Y-116082018D01*
X98881100Y-115997204D01*
X98740059Y-115938783D01*
X98590331Y-115909000D01*
X98437669Y-115909000D01*
X98287941Y-115938783D01*
X98146900Y-115997204D01*
X98019966Y-116082018D01*
X97912018Y-116189966D01*
X97827204Y-116316900D01*
X97768783Y-116457941D01*
X97739000Y-116607669D01*
X93966694Y-116607669D01*
X94031329Y-116543034D01*
X94116143Y-116416100D01*
X94174564Y-116275059D01*
X94204347Y-116125331D01*
X94204347Y-115972669D01*
X94174564Y-115822941D01*
X94156954Y-115780426D01*
X94168059Y-115778217D01*
X94309100Y-115719796D01*
X94436034Y-115634982D01*
X94543982Y-115527034D01*
X94628796Y-115400100D01*
X94687217Y-115259059D01*
X94717000Y-115109331D01*
X94717000Y-114956669D01*
X94687217Y-114806941D01*
X94628796Y-114665900D01*
X94543982Y-114538966D01*
X94436034Y-114431018D01*
X94309100Y-114346204D01*
X94168059Y-114287783D01*
X94018331Y-114258000D01*
X93865669Y-114258000D01*
X93715941Y-114287783D01*
X93574900Y-114346204D01*
X93447966Y-114431018D01*
X93340018Y-114538966D01*
X93255204Y-114665900D01*
X93196783Y-114806941D01*
X93167000Y-114956669D01*
X93167000Y-115109331D01*
X93196783Y-115259059D01*
X93214393Y-115301574D01*
X93203288Y-115303783D01*
X93062247Y-115362204D01*
X92935313Y-115447018D01*
X92827365Y-115554966D01*
X92742551Y-115681900D01*
X92684130Y-115822941D01*
X92654347Y-115972669D01*
X92002868Y-115972669D01*
X91921059Y-115938783D01*
X91771331Y-115909000D01*
X91618669Y-115909000D01*
X91468941Y-115938783D01*
X91327900Y-115997204D01*
X91200966Y-116082018D01*
X91093018Y-116189966D01*
X91008204Y-116316900D01*
X90949783Y-116457941D01*
X90920000Y-116607669D01*
X86462000Y-116607669D01*
X86462000Y-116480669D01*
X86432217Y-116330941D01*
X86373796Y-116189900D01*
X86288982Y-116062966D01*
X86181034Y-115955018D01*
X86054100Y-115870204D01*
X85913059Y-115811783D01*
X85763331Y-115782000D01*
X85610669Y-115782000D01*
X85460941Y-115811783D01*
X85319900Y-115870204D01*
X85192966Y-115955018D01*
X85085018Y-116062966D01*
X85000204Y-116189900D01*
X84941783Y-116330941D01*
X84912000Y-116480669D01*
X50400000Y-116480669D01*
X50400000Y-115464669D01*
X67767000Y-115464669D01*
X67767000Y-115617331D01*
X67796783Y-115767059D01*
X67855204Y-115908100D01*
X67940018Y-116035034D01*
X68047966Y-116142982D01*
X68174900Y-116227796D01*
X68315941Y-116286217D01*
X68465669Y-116316000D01*
X68618331Y-116316000D01*
X68768059Y-116286217D01*
X68909100Y-116227796D01*
X69036034Y-116142982D01*
X69143982Y-116035034D01*
X69228796Y-115908100D01*
X69287217Y-115767059D01*
X69317000Y-115617331D01*
X69317000Y-115464669D01*
X69287217Y-115314941D01*
X69228796Y-115173900D01*
X69143982Y-115046966D01*
X69036034Y-114939018D01*
X68957688Y-114886669D01*
X71734000Y-114886669D01*
X71734000Y-115039331D01*
X71763783Y-115189059D01*
X71822204Y-115330100D01*
X71907018Y-115457034D01*
X72014966Y-115564982D01*
X72141900Y-115649796D01*
X72282941Y-115708217D01*
X72432669Y-115738000D01*
X72585331Y-115738000D01*
X72735059Y-115708217D01*
X72876100Y-115649796D01*
X73003034Y-115564982D01*
X73110982Y-115457034D01*
X73162206Y-115380371D01*
X80876524Y-115380371D01*
X80876524Y-115533033D01*
X80906307Y-115682761D01*
X80964728Y-115823802D01*
X81049542Y-115950736D01*
X81157490Y-116058684D01*
X81284424Y-116143498D01*
X81425465Y-116201919D01*
X81575193Y-116231702D01*
X81727855Y-116231702D01*
X81877583Y-116201919D01*
X82018624Y-116143498D01*
X82145558Y-116058684D01*
X82253506Y-115950736D01*
X82338320Y-115823802D01*
X82396741Y-115682761D01*
X82426524Y-115533033D01*
X82426524Y-115380371D01*
X82396741Y-115230643D01*
X82338320Y-115089602D01*
X82253506Y-114962668D01*
X82177507Y-114886669D01*
X84783500Y-114886669D01*
X84783500Y-115039331D01*
X84813283Y-115189059D01*
X84871704Y-115330100D01*
X84956518Y-115457034D01*
X85064466Y-115564982D01*
X85191400Y-115649796D01*
X85332441Y-115708217D01*
X85482169Y-115738000D01*
X85634831Y-115738000D01*
X85784559Y-115708217D01*
X85925600Y-115649796D01*
X86052534Y-115564982D01*
X86160482Y-115457034D01*
X86245296Y-115330100D01*
X86303717Y-115189059D01*
X86333500Y-115039331D01*
X86333500Y-114886669D01*
X86303717Y-114736941D01*
X86245296Y-114595900D01*
X86160482Y-114468966D01*
X86052534Y-114361018D01*
X85925600Y-114276204D01*
X85784559Y-114217783D01*
X85634831Y-114188000D01*
X85482169Y-114188000D01*
X85332441Y-114217783D01*
X85191400Y-114276204D01*
X85064466Y-114361018D01*
X84956518Y-114468966D01*
X84871704Y-114595900D01*
X84813283Y-114736941D01*
X84783500Y-114886669D01*
X82177507Y-114886669D01*
X82145558Y-114854720D01*
X82018624Y-114769906D01*
X81877583Y-114711485D01*
X81727855Y-114681702D01*
X81575193Y-114681702D01*
X81425465Y-114711485D01*
X81284424Y-114769906D01*
X81157490Y-114854720D01*
X81049542Y-114962668D01*
X80964728Y-115089602D01*
X80906307Y-115230643D01*
X80876524Y-115380371D01*
X73162206Y-115380371D01*
X73195796Y-115330100D01*
X73254217Y-115189059D01*
X73284000Y-115039331D01*
X73284000Y-114886669D01*
X73254217Y-114736941D01*
X73195796Y-114595900D01*
X73110982Y-114468966D01*
X73003034Y-114361018D01*
X72876100Y-114276204D01*
X72735059Y-114217783D01*
X72585331Y-114188000D01*
X72432669Y-114188000D01*
X72282941Y-114217783D01*
X72141900Y-114276204D01*
X72014966Y-114361018D01*
X71907018Y-114468966D01*
X71822204Y-114595900D01*
X71763783Y-114736941D01*
X71734000Y-114886669D01*
X68957688Y-114886669D01*
X68909100Y-114854204D01*
X68768059Y-114795783D01*
X68618331Y-114766000D01*
X68465669Y-114766000D01*
X68315941Y-114795783D01*
X68174900Y-114854204D01*
X68047966Y-114939018D01*
X67940018Y-115046966D01*
X67855204Y-115173900D01*
X67796783Y-115314941D01*
X67767000Y-115464669D01*
X50400000Y-115464669D01*
X50400000Y-114571056D01*
X54225000Y-114571056D01*
X54225000Y-114708944D01*
X54251901Y-114844182D01*
X54304668Y-114971574D01*
X54381274Y-115086224D01*
X54478776Y-115183726D01*
X54593426Y-115260332D01*
X54720818Y-115313099D01*
X54856056Y-115340000D01*
X54993944Y-115340000D01*
X55129182Y-115313099D01*
X55256574Y-115260332D01*
X55371224Y-115183726D01*
X55468726Y-115086224D01*
X55545332Y-114971574D01*
X55598099Y-114844182D01*
X55625000Y-114708944D01*
X55625000Y-114571056D01*
X55598099Y-114435818D01*
X55545332Y-114308426D01*
X55468726Y-114193776D01*
X55371224Y-114096274D01*
X55256574Y-114019668D01*
X55129182Y-113966901D01*
X54993944Y-113940000D01*
X54856056Y-113940000D01*
X54720818Y-113966901D01*
X54593426Y-114019668D01*
X54478776Y-114096274D01*
X54381274Y-114193776D01*
X54304668Y-114308426D01*
X54251901Y-114435818D01*
X54225000Y-114571056D01*
X50400000Y-114571056D01*
X50400000Y-112670669D01*
X52400000Y-112670669D01*
X52400000Y-112823331D01*
X52429783Y-112973059D01*
X52488204Y-113114100D01*
X52573018Y-113241034D01*
X52680966Y-113348982D01*
X52807900Y-113433796D01*
X52948941Y-113492217D01*
X53098669Y-113522000D01*
X53251331Y-113522000D01*
X53401059Y-113492217D01*
X53542100Y-113433796D01*
X53669034Y-113348982D01*
X53712347Y-113305669D01*
X59131000Y-113305669D01*
X59131000Y-113458331D01*
X59160783Y-113608059D01*
X59219204Y-113749100D01*
X59304018Y-113876034D01*
X59411966Y-113983982D01*
X59538900Y-114068796D01*
X59679941Y-114127217D01*
X59829669Y-114157000D01*
X59982331Y-114157000D01*
X60132059Y-114127217D01*
X60273100Y-114068796D01*
X60400034Y-113983982D01*
X60507982Y-113876034D01*
X60541000Y-113826619D01*
X60574018Y-113876034D01*
X60681966Y-113983982D01*
X60808900Y-114068796D01*
X60949941Y-114127217D01*
X61099669Y-114157000D01*
X61252331Y-114157000D01*
X61402059Y-114127217D01*
X61543100Y-114068796D01*
X61670034Y-113983982D01*
X61777982Y-113876034D01*
X61862796Y-113749100D01*
X61921217Y-113608059D01*
X61951000Y-113458331D01*
X61951000Y-113305669D01*
X61921217Y-113155941D01*
X61862796Y-113014900D01*
X61777982Y-112887966D01*
X61670034Y-112780018D01*
X61543100Y-112695204D01*
X61402059Y-112636783D01*
X61252331Y-112607000D01*
X61099669Y-112607000D01*
X60949941Y-112636783D01*
X60808900Y-112695204D01*
X60681966Y-112780018D01*
X60574018Y-112887966D01*
X60541000Y-112937381D01*
X60507982Y-112887966D01*
X60400034Y-112780018D01*
X60273100Y-112695204D01*
X60132059Y-112636783D01*
X59982331Y-112607000D01*
X59829669Y-112607000D01*
X59679941Y-112636783D01*
X59538900Y-112695204D01*
X59411966Y-112780018D01*
X59304018Y-112887966D01*
X59219204Y-113014900D01*
X59160783Y-113155941D01*
X59131000Y-113305669D01*
X53712347Y-113305669D01*
X53776982Y-113241034D01*
X53861796Y-113114100D01*
X53920217Y-112973059D01*
X53950000Y-112823331D01*
X53950000Y-112670669D01*
X53920217Y-112520941D01*
X53861796Y-112379900D01*
X53776982Y-112252966D01*
X53669034Y-112145018D01*
X53542100Y-112060204D01*
X53401059Y-112001783D01*
X53251331Y-111972000D01*
X53098669Y-111972000D01*
X52948941Y-112001783D01*
X52807900Y-112060204D01*
X52680966Y-112145018D01*
X52573018Y-112252966D01*
X52488204Y-112379900D01*
X52429783Y-112520941D01*
X52400000Y-112670669D01*
X50400000Y-112670669D01*
X50400000Y-109876669D01*
X87452000Y-109876669D01*
X87452000Y-110029331D01*
X87481783Y-110179059D01*
X87540204Y-110320100D01*
X87625018Y-110447034D01*
X87732966Y-110554982D01*
X87859900Y-110639796D01*
X88000941Y-110698217D01*
X88150669Y-110728000D01*
X88303331Y-110728000D01*
X88453059Y-110698217D01*
X88594100Y-110639796D01*
X88721034Y-110554982D01*
X88764347Y-110511669D01*
X93167000Y-110511669D01*
X93167000Y-110664331D01*
X93196783Y-110814059D01*
X93255204Y-110955100D01*
X93340018Y-111082034D01*
X93447966Y-111189982D01*
X93574900Y-111274796D01*
X93715941Y-111333217D01*
X93865669Y-111363000D01*
X94018331Y-111363000D01*
X94168059Y-111333217D01*
X94309100Y-111274796D01*
X94436034Y-111189982D01*
X94543982Y-111082034D01*
X94628796Y-110955100D01*
X94687217Y-110814059D01*
X94717000Y-110664331D01*
X94717000Y-110511669D01*
X94687217Y-110361941D01*
X94628796Y-110220900D01*
X94543982Y-110093966D01*
X94436034Y-109986018D01*
X94309100Y-109901204D01*
X94168059Y-109842783D01*
X94018331Y-109813000D01*
X93865669Y-109813000D01*
X93715941Y-109842783D01*
X93574900Y-109901204D01*
X93447966Y-109986018D01*
X93340018Y-110093966D01*
X93255204Y-110220900D01*
X93196783Y-110361941D01*
X93167000Y-110511669D01*
X88764347Y-110511669D01*
X88828982Y-110447034D01*
X88913796Y-110320100D01*
X88972217Y-110179059D01*
X89002000Y-110029331D01*
X89002000Y-109876669D01*
X88972217Y-109726941D01*
X88913796Y-109585900D01*
X88828982Y-109458966D01*
X88721034Y-109351018D01*
X88612323Y-109278380D01*
X88653111Y-109270267D01*
X88794152Y-109211846D01*
X88921086Y-109127032D01*
X89029034Y-109019084D01*
X89113848Y-108892150D01*
X89172269Y-108751109D01*
X89202052Y-108601381D01*
X89202052Y-108448719D01*
X89172269Y-108298991D01*
X89113848Y-108157950D01*
X89029034Y-108031016D01*
X88921086Y-107923068D01*
X88794152Y-107838254D01*
X88653111Y-107779833D01*
X88503383Y-107750050D01*
X88350721Y-107750050D01*
X88200993Y-107779833D01*
X88059952Y-107838254D01*
X87933018Y-107923068D01*
X87825070Y-108031016D01*
X87740256Y-108157950D01*
X87681835Y-108298991D01*
X87652052Y-108448719D01*
X87652052Y-108601381D01*
X87681835Y-108751109D01*
X87740256Y-108892150D01*
X87825070Y-109019084D01*
X87933018Y-109127032D01*
X88041729Y-109199670D01*
X88000941Y-109207783D01*
X87859900Y-109266204D01*
X87732966Y-109351018D01*
X87625018Y-109458966D01*
X87540204Y-109585900D01*
X87481783Y-109726941D01*
X87452000Y-109876669D01*
X50400000Y-109876669D01*
X50400000Y-108791056D01*
X54225000Y-108791056D01*
X54225000Y-108928944D01*
X54251901Y-109064182D01*
X54304668Y-109191574D01*
X54381274Y-109306224D01*
X54478776Y-109403726D01*
X54593426Y-109480332D01*
X54720818Y-109533099D01*
X54856056Y-109560000D01*
X54993944Y-109560000D01*
X55129182Y-109533099D01*
X55256574Y-109480332D01*
X55371224Y-109403726D01*
X55468726Y-109306224D01*
X55545332Y-109191574D01*
X55598099Y-109064182D01*
X55625000Y-108928944D01*
X55625000Y-108791056D01*
X55598099Y-108655818D01*
X55545332Y-108528426D01*
X55468726Y-108413776D01*
X55371224Y-108316274D01*
X55256574Y-108239668D01*
X55129182Y-108186901D01*
X54993944Y-108160000D01*
X54856056Y-108160000D01*
X54720818Y-108186901D01*
X54593426Y-108239668D01*
X54478776Y-108316274D01*
X54381274Y-108413776D01*
X54304668Y-108528426D01*
X54251901Y-108655818D01*
X54225000Y-108791056D01*
X50400000Y-108791056D01*
X50400000Y-105400000D01*
X101875000Y-105400000D01*
X101875000Y-112852984D01*
%TA.AperFunction,Conductor*%
D14*
G36*
X101875000Y-112852984D02*
G01*
X101802034Y-112780018D01*
X101675100Y-112695204D01*
X101534059Y-112636783D01*
X101384331Y-112607000D01*
X101231669Y-112607000D01*
X101081941Y-112636783D01*
X100940900Y-112695204D01*
X100813966Y-112780018D01*
X100706018Y-112887966D01*
X100621204Y-113014900D01*
X100562783Y-113155941D01*
X100533000Y-113305669D01*
X100533000Y-113458331D01*
X100562783Y-113608059D01*
X100621204Y-113749100D01*
X100706018Y-113876034D01*
X100711986Y-113882002D01*
X100706018Y-113887969D01*
X100621204Y-114014903D01*
X100562783Y-114155944D01*
X100533000Y-114305672D01*
X100533000Y-114458334D01*
X100562783Y-114608062D01*
X100621204Y-114749103D01*
X100706018Y-114876037D01*
X100727983Y-114898002D01*
X100706018Y-114919966D01*
X100621204Y-115046900D01*
X100562783Y-115187941D01*
X100533000Y-115337669D01*
X100533000Y-115490331D01*
X100562783Y-115640059D01*
X100621204Y-115781100D01*
X100706018Y-115908034D01*
X100813966Y-116015982D01*
X100940900Y-116100796D01*
X101081941Y-116159217D01*
X101231669Y-116189000D01*
X101384331Y-116189000D01*
X101534059Y-116159217D01*
X101675100Y-116100796D01*
X101802034Y-116015982D01*
X101875000Y-115943016D01*
X101875000Y-121203864D01*
X101841100Y-121181213D01*
X101700059Y-121122792D01*
X101550331Y-121093009D01*
X101397669Y-121093009D01*
X101247941Y-121122792D01*
X101106900Y-121181213D01*
X100979966Y-121266027D01*
X100872018Y-121373975D01*
X100787204Y-121500909D01*
X100728783Y-121641950D01*
X100699000Y-121791678D01*
X100699000Y-121944340D01*
X100728783Y-122094068D01*
X100787204Y-122235109D01*
X100872018Y-122362043D01*
X100979966Y-122469991D01*
X101046586Y-122514505D01*
X100979966Y-122559018D01*
X100872018Y-122666966D01*
X100787204Y-122793900D01*
X100728783Y-122934941D01*
X100699000Y-123084669D01*
X100699000Y-123237331D01*
X100728783Y-123387059D01*
X100787204Y-123528100D01*
X100872018Y-123655034D01*
X100979966Y-123762982D01*
X101106900Y-123847796D01*
X101247941Y-123906217D01*
X101397669Y-123936000D01*
X101550331Y-123936000D01*
X101700059Y-123906217D01*
X101841100Y-123847796D01*
X101875000Y-123825145D01*
X101875000Y-139600000D01*
X50400000Y-139600000D01*
X50400000Y-138314094D01*
X50775945Y-138314094D01*
X50859973Y-138539056D01*
X50986274Y-138743303D01*
X51149995Y-138918985D01*
X51344844Y-139059351D01*
X51563333Y-139159007D01*
X51645907Y-139184049D01*
X51835000Y-139124323D01*
X51835000Y-138125000D01*
X52085000Y-138125000D01*
X52085000Y-139124323D01*
X52274093Y-139184049D01*
X52356667Y-139159007D01*
X52575156Y-139059351D01*
X52770005Y-138918985D01*
X52933726Y-138743303D01*
X53060027Y-138539056D01*
X53144055Y-138314094D01*
X53084862Y-138125000D01*
X52085000Y-138125000D01*
X51835000Y-138125000D01*
X50835138Y-138125000D01*
X50775945Y-138314094D01*
X50400000Y-138314094D01*
X50400000Y-137685906D01*
X50775945Y-137685906D01*
X50835138Y-137875000D01*
X51835000Y-137875000D01*
X51835000Y-136875677D01*
X52085000Y-136875677D01*
X52085000Y-137875000D01*
X53084862Y-137875000D01*
X53144055Y-137685906D01*
X53060027Y-137460944D01*
X52933726Y-137256697D01*
X52834294Y-137150000D01*
X53273186Y-137150000D01*
X53273186Y-138850000D01*
X53280426Y-138923513D01*
X53301869Y-138994200D01*
X53336691Y-139059347D01*
X53383552Y-139116448D01*
X53440653Y-139163309D01*
X53505800Y-139198131D01*
X53576487Y-139219574D01*
X53650000Y-139226814D01*
X55350000Y-139226814D01*
X55423513Y-139219574D01*
X55494200Y-139198131D01*
X55559347Y-139163309D01*
X55616448Y-139116448D01*
X55663309Y-139059347D01*
X55698131Y-138994200D01*
X55719574Y-138923513D01*
X55726814Y-138850000D01*
X55726814Y-137816669D01*
X63195000Y-137816669D01*
X63195000Y-137969331D01*
X63224783Y-138119059D01*
X63283204Y-138260100D01*
X63368018Y-138387034D01*
X63475966Y-138494982D01*
X63602900Y-138579796D01*
X63743941Y-138638217D01*
X63893669Y-138668000D01*
X64046331Y-138668000D01*
X64196059Y-138638217D01*
X64337100Y-138579796D01*
X64464034Y-138494982D01*
X64571982Y-138387034D01*
X64656796Y-138260100D01*
X64715217Y-138119059D01*
X64745000Y-137969331D01*
X64745000Y-137816669D01*
X64715217Y-137666941D01*
X64656796Y-137525900D01*
X64571982Y-137398966D01*
X64464034Y-137291018D01*
X64337100Y-137206204D01*
X64196059Y-137147783D01*
X64046331Y-137118000D01*
X63893669Y-137118000D01*
X63743941Y-137147783D01*
X63602900Y-137206204D01*
X63475966Y-137291018D01*
X63368018Y-137398966D01*
X63283204Y-137525900D01*
X63224783Y-137666941D01*
X63195000Y-137816669D01*
X55726814Y-137816669D01*
X55726814Y-137150000D01*
X55719574Y-137076487D01*
X55711121Y-137048619D01*
X80340000Y-137048619D01*
X80340000Y-137201281D01*
X80369783Y-137351009D01*
X80428204Y-137492050D01*
X80513018Y-137618984D01*
X80620966Y-137726932D01*
X80747900Y-137811746D01*
X80888941Y-137870167D01*
X81038669Y-137899950D01*
X81191331Y-137899950D01*
X81341059Y-137870167D01*
X81482100Y-137811746D01*
X81609034Y-137726932D01*
X81716982Y-137618984D01*
X81801796Y-137492050D01*
X81860217Y-137351009D01*
X81890000Y-137201281D01*
X81890000Y-137108028D01*
X81904941Y-137114217D01*
X82054669Y-137144000D01*
X82207331Y-137144000D01*
X82357059Y-137114217D01*
X82498100Y-137055796D01*
X82625034Y-136970982D01*
X82732982Y-136863034D01*
X82817796Y-136736100D01*
X82876217Y-136595059D01*
X82906000Y-136445331D01*
X82906000Y-136292669D01*
X99390000Y-136292669D01*
X99390000Y-136445331D01*
X99419783Y-136595059D01*
X99478204Y-136736100D01*
X99563018Y-136863034D01*
X99670966Y-136970982D01*
X99797900Y-137055796D01*
X99938941Y-137114217D01*
X100088669Y-137144000D01*
X100241331Y-137144000D01*
X100391059Y-137114217D01*
X100532100Y-137055796D01*
X100659034Y-136970982D01*
X100766982Y-136863034D01*
X100851796Y-136736100D01*
X100910217Y-136595059D01*
X100940000Y-136445331D01*
X100940000Y-136292669D01*
X100910217Y-136142941D01*
X100851796Y-136001900D01*
X100766982Y-135874966D01*
X100659034Y-135767018D01*
X100532100Y-135682204D01*
X100391059Y-135623783D01*
X100241331Y-135594000D01*
X100088669Y-135594000D01*
X99938941Y-135623783D01*
X99797900Y-135682204D01*
X99670966Y-135767018D01*
X99563018Y-135874966D01*
X99478204Y-136001900D01*
X99419783Y-136142941D01*
X99390000Y-136292669D01*
X82906000Y-136292669D01*
X82876217Y-136142941D01*
X82817796Y-136001900D01*
X82732982Y-135874966D01*
X82625034Y-135767018D01*
X82498100Y-135682204D01*
X82357059Y-135623783D01*
X82207331Y-135594000D01*
X82054669Y-135594000D01*
X81904941Y-135623783D01*
X81763900Y-135682204D01*
X81636966Y-135767018D01*
X81529018Y-135874966D01*
X81444204Y-136001900D01*
X81385783Y-136142941D01*
X81356000Y-136292669D01*
X81356000Y-136385922D01*
X81341059Y-136379733D01*
X81191331Y-136349950D01*
X81038669Y-136349950D01*
X80888941Y-136379733D01*
X80747900Y-136438154D01*
X80620966Y-136522968D01*
X80513018Y-136630916D01*
X80428204Y-136757850D01*
X80369783Y-136898891D01*
X80340000Y-137048619D01*
X55711121Y-137048619D01*
X55698131Y-137005800D01*
X55663309Y-136940653D01*
X55616448Y-136883552D01*
X55559347Y-136836691D01*
X55494200Y-136801869D01*
X55423513Y-136780426D01*
X55350000Y-136773186D01*
X53650000Y-136773186D01*
X53576487Y-136780426D01*
X53505800Y-136801869D01*
X53440653Y-136836691D01*
X53383552Y-136883552D01*
X53336691Y-136940653D01*
X53301869Y-137005800D01*
X53280426Y-137076487D01*
X53273186Y-137150000D01*
X52834294Y-137150000D01*
X52770005Y-137081015D01*
X52575156Y-136940649D01*
X52356667Y-136840993D01*
X52274093Y-136815951D01*
X52085000Y-136875677D01*
X51835000Y-136875677D01*
X51645907Y-136815951D01*
X51563333Y-136840993D01*
X51344844Y-136940649D01*
X51149995Y-137081015D01*
X50986274Y-137256697D01*
X50859973Y-137460944D01*
X50775945Y-137685906D01*
X50400000Y-137685906D01*
X50400000Y-135678669D01*
X60185000Y-135678669D01*
X60185000Y-135831331D01*
X60214783Y-135981059D01*
X60273204Y-136122100D01*
X60358018Y-136249034D01*
X60465966Y-136356982D01*
X60592900Y-136441796D01*
X60733941Y-136500217D01*
X60883669Y-136530000D01*
X61036331Y-136530000D01*
X61186059Y-136500217D01*
X61327100Y-136441796D01*
X61454034Y-136356982D01*
X61561982Y-136249034D01*
X61646796Y-136122100D01*
X61705217Y-135981059D01*
X61735000Y-135831331D01*
X61735000Y-135678669D01*
X61730823Y-135657669D01*
X69545000Y-135657669D01*
X69545000Y-135810331D01*
X69574783Y-135960059D01*
X69633204Y-136101100D01*
X69718018Y-136228034D01*
X69825966Y-136335982D01*
X69952900Y-136420796D01*
X70093941Y-136479217D01*
X70243669Y-136509000D01*
X70396331Y-136509000D01*
X70546059Y-136479217D01*
X70687100Y-136420796D01*
X70814034Y-136335982D01*
X70921982Y-136228034D01*
X71006796Y-136101100D01*
X71065217Y-135960059D01*
X71095000Y-135810331D01*
X71095000Y-135657669D01*
X71069738Y-135530669D01*
X78943000Y-135530669D01*
X78943000Y-135683331D01*
X78972783Y-135833059D01*
X79031204Y-135974100D01*
X79116018Y-136101034D01*
X79223966Y-136208982D01*
X79350900Y-136293796D01*
X79491941Y-136352217D01*
X79641669Y-136382000D01*
X79794331Y-136382000D01*
X79944059Y-136352217D01*
X80085100Y-136293796D01*
X80212034Y-136208982D01*
X80319982Y-136101034D01*
X80404796Y-135974100D01*
X80463217Y-135833059D01*
X80493000Y-135683331D01*
X80493000Y-135530669D01*
X80463217Y-135380941D01*
X80404796Y-135239900D01*
X80319982Y-135112966D01*
X80212034Y-135005018D01*
X80085100Y-134920204D01*
X79944059Y-134861783D01*
X79794331Y-134832000D01*
X79641669Y-134832000D01*
X79491941Y-134861783D01*
X79350900Y-134920204D01*
X79223966Y-135005018D01*
X79116018Y-135112966D01*
X79031204Y-135239900D01*
X78972783Y-135380941D01*
X78943000Y-135530669D01*
X71069738Y-135530669D01*
X71065217Y-135507941D01*
X71006796Y-135366900D01*
X70921982Y-135239966D01*
X70814034Y-135132018D01*
X70687100Y-135047204D01*
X70546059Y-134988783D01*
X70396331Y-134959000D01*
X70243669Y-134959000D01*
X70093941Y-134988783D01*
X69952900Y-135047204D01*
X69825966Y-135132018D01*
X69718018Y-135239966D01*
X69633204Y-135366900D01*
X69574783Y-135507941D01*
X69545000Y-135657669D01*
X61730823Y-135657669D01*
X61705217Y-135528941D01*
X61646796Y-135387900D01*
X61561982Y-135260966D01*
X61454034Y-135153018D01*
X61327100Y-135068204D01*
X61186059Y-135009783D01*
X61036331Y-134980000D01*
X60883669Y-134980000D01*
X60733941Y-135009783D01*
X60592900Y-135068204D01*
X60465966Y-135153018D01*
X60358018Y-135260966D01*
X60273204Y-135387900D01*
X60214783Y-135528941D01*
X60185000Y-135678669D01*
X50400000Y-135678669D01*
X50400000Y-133117669D01*
X51892000Y-133117669D01*
X51892000Y-133270331D01*
X51921783Y-133420059D01*
X51980204Y-133561100D01*
X52065018Y-133688034D01*
X52172966Y-133795982D01*
X52299900Y-133880796D01*
X52440941Y-133939217D01*
X52590669Y-133969000D01*
X52743331Y-133969000D01*
X52893059Y-133939217D01*
X53034100Y-133880796D01*
X53035786Y-133879669D01*
X90627000Y-133879669D01*
X90627000Y-134032331D01*
X90656783Y-134182059D01*
X90715204Y-134323100D01*
X90800018Y-134450034D01*
X90907966Y-134557982D01*
X91034900Y-134642796D01*
X91175941Y-134701217D01*
X91325669Y-134731000D01*
X91478331Y-134731000D01*
X91628059Y-134701217D01*
X91769100Y-134642796D01*
X91896034Y-134557982D01*
X92003982Y-134450034D01*
X92088796Y-134323100D01*
X92147217Y-134182059D01*
X92177000Y-134032331D01*
X92177000Y-134008154D01*
X97170432Y-134008154D01*
X97170432Y-134160816D01*
X97200215Y-134310544D01*
X97258636Y-134451585D01*
X97343450Y-134578519D01*
X97451398Y-134686467D01*
X97578332Y-134771281D01*
X97719373Y-134829702D01*
X97869101Y-134859485D01*
X98021763Y-134859485D01*
X98171491Y-134829702D01*
X98312532Y-134771281D01*
X98439466Y-134686467D01*
X98547414Y-134578519D01*
X98547850Y-134577866D01*
X98654966Y-134684982D01*
X98781900Y-134769796D01*
X98922941Y-134828217D01*
X99072669Y-134858000D01*
X99225331Y-134858000D01*
X99375059Y-134828217D01*
X99516100Y-134769796D01*
X99643034Y-134684982D01*
X99750982Y-134577034D01*
X99835796Y-134450100D01*
X99894217Y-134309059D01*
X99924000Y-134159331D01*
X99924000Y-134006669D01*
X99898738Y-133879669D01*
X100279000Y-133879669D01*
X100279000Y-134032331D01*
X100308783Y-134182059D01*
X100367204Y-134323100D01*
X100452018Y-134450034D01*
X100559966Y-134557982D01*
X100686900Y-134642796D01*
X100827941Y-134701217D01*
X100977669Y-134731000D01*
X101130331Y-134731000D01*
X101280059Y-134701217D01*
X101421100Y-134642796D01*
X101548034Y-134557982D01*
X101655982Y-134450034D01*
X101740796Y-134323100D01*
X101799217Y-134182059D01*
X101829000Y-134032331D01*
X101829000Y-133879669D01*
X101799217Y-133729941D01*
X101740796Y-133588900D01*
X101655982Y-133461966D01*
X101548034Y-133354018D01*
X101421100Y-133269204D01*
X101280059Y-133210783D01*
X101130331Y-133181000D01*
X100977669Y-133181000D01*
X100827941Y-133210783D01*
X100686900Y-133269204D01*
X100559966Y-133354018D01*
X100452018Y-133461966D01*
X100367204Y-133588900D01*
X100308783Y-133729941D01*
X100279000Y-133879669D01*
X99898738Y-133879669D01*
X99894217Y-133856941D01*
X99835796Y-133715900D01*
X99750982Y-133588966D01*
X99643034Y-133481018D01*
X99516100Y-133396204D01*
X99375059Y-133337783D01*
X99225331Y-133308000D01*
X99072669Y-133308000D01*
X98922941Y-133337783D01*
X98781900Y-133396204D01*
X98654966Y-133481018D01*
X98547018Y-133588966D01*
X98546582Y-133589619D01*
X98439466Y-133482503D01*
X98312532Y-133397689D01*
X98171491Y-133339268D01*
X98021763Y-133309485D01*
X97869101Y-133309485D01*
X97719373Y-133339268D01*
X97578332Y-133397689D01*
X97451398Y-133482503D01*
X97343450Y-133590451D01*
X97258636Y-133717385D01*
X97200215Y-133858426D01*
X97170432Y-134008154D01*
X92177000Y-134008154D01*
X92177000Y-133879669D01*
X92147217Y-133729941D01*
X92088796Y-133588900D01*
X92003982Y-133461966D01*
X91896034Y-133354018D01*
X91769100Y-133269204D01*
X91628059Y-133210783D01*
X91478331Y-133181000D01*
X91325669Y-133181000D01*
X91175941Y-133210783D01*
X91034900Y-133269204D01*
X90907966Y-133354018D01*
X90800018Y-133461966D01*
X90715204Y-133588900D01*
X90656783Y-133729941D01*
X90627000Y-133879669D01*
X53035786Y-133879669D01*
X53161034Y-133795982D01*
X53268982Y-133688034D01*
X53353796Y-133561100D01*
X53412217Y-133420059D01*
X53442000Y-133270331D01*
X53442000Y-133117669D01*
X53412217Y-132967941D01*
X53353796Y-132826900D01*
X53268982Y-132699966D01*
X53161034Y-132592018D01*
X53034100Y-132507204D01*
X52893059Y-132448783D01*
X52743331Y-132419000D01*
X52590669Y-132419000D01*
X52440941Y-132448783D01*
X52299900Y-132507204D01*
X52172966Y-132592018D01*
X52065018Y-132699966D01*
X51980204Y-132826900D01*
X51921783Y-132967941D01*
X51892000Y-133117669D01*
X50400000Y-133117669D01*
X50400000Y-132355669D01*
X89484000Y-132355669D01*
X89484000Y-132508331D01*
X89513783Y-132658059D01*
X89572204Y-132799100D01*
X89657018Y-132926034D01*
X89764966Y-133033982D01*
X89891900Y-133118796D01*
X90032941Y-133177217D01*
X90182669Y-133207000D01*
X90335331Y-133207000D01*
X90485059Y-133177217D01*
X90626100Y-133118796D01*
X90753034Y-133033982D01*
X90860982Y-132926034D01*
X90945796Y-132799100D01*
X91004217Y-132658059D01*
X91034000Y-132508331D01*
X91034000Y-132355669D01*
X91004217Y-132205941D01*
X90945796Y-132064900D01*
X90860982Y-131937966D01*
X90753034Y-131830018D01*
X90626100Y-131745204D01*
X90485059Y-131686783D01*
X90335331Y-131657000D01*
X90182669Y-131657000D01*
X90032941Y-131686783D01*
X89891900Y-131745204D01*
X89764966Y-131830018D01*
X89657018Y-131937966D01*
X89572204Y-132064900D01*
X89513783Y-132205941D01*
X89484000Y-132355669D01*
X50400000Y-132355669D01*
X50400000Y-130916169D01*
X58216500Y-130916169D01*
X58216500Y-131068831D01*
X58246283Y-131218559D01*
X58304704Y-131359600D01*
X58389518Y-131486534D01*
X58497466Y-131594482D01*
X58624400Y-131679296D01*
X58765441Y-131737717D01*
X58915169Y-131767500D01*
X59067831Y-131767500D01*
X59217559Y-131737717D01*
X59358600Y-131679296D01*
X59485534Y-131594482D01*
X59593482Y-131486534D01*
X59678296Y-131359600D01*
X59736717Y-131218559D01*
X59766500Y-131068831D01*
X59766500Y-130916169D01*
X59736717Y-130766441D01*
X59678296Y-130625400D01*
X59593482Y-130498466D01*
X59531696Y-130436680D01*
X63969316Y-130436680D01*
X63969316Y-130589342D01*
X63999099Y-130739070D01*
X64057520Y-130880111D01*
X64142334Y-131007045D01*
X64250282Y-131114993D01*
X64377216Y-131199807D01*
X64518257Y-131258228D01*
X64667985Y-131288011D01*
X64820647Y-131288011D01*
X64970375Y-131258228D01*
X65111416Y-131199807D01*
X65238350Y-131114993D01*
X65346298Y-131007045D01*
X65431112Y-130880111D01*
X65489533Y-130739070D01*
X65519316Y-130589342D01*
X65519316Y-130436680D01*
X65489533Y-130286952D01*
X65431112Y-130145911D01*
X65346298Y-130018977D01*
X65238350Y-129911029D01*
X65111416Y-129826215D01*
X64970375Y-129767794D01*
X64820647Y-129738011D01*
X64667985Y-129738011D01*
X64518257Y-129767794D01*
X64377216Y-129826215D01*
X64250282Y-129911029D01*
X64142334Y-130018977D01*
X64057520Y-130145911D01*
X63999099Y-130286952D01*
X63969316Y-130436680D01*
X59531696Y-130436680D01*
X59485534Y-130390518D01*
X59358600Y-130305704D01*
X59217559Y-130247283D01*
X59067831Y-130217500D01*
X58915169Y-130217500D01*
X58765441Y-130247283D01*
X58624400Y-130305704D01*
X58497466Y-130390518D01*
X58389518Y-130498466D01*
X58304704Y-130625400D01*
X58246283Y-130766441D01*
X58216500Y-130916169D01*
X50400000Y-130916169D01*
X50400000Y-128545669D01*
X81991000Y-128545669D01*
X81991000Y-128698331D01*
X82020783Y-128848059D01*
X82079204Y-128989100D01*
X82164018Y-129116034D01*
X82271966Y-129223982D01*
X82398900Y-129308796D01*
X82539941Y-129367217D01*
X82689669Y-129397000D01*
X82842331Y-129397000D01*
X82992059Y-129367217D01*
X83133100Y-129308796D01*
X83260034Y-129223982D01*
X83367982Y-129116034D01*
X83452796Y-128989100D01*
X83511217Y-128848059D01*
X83541000Y-128698331D01*
X83541000Y-128545669D01*
X85293000Y-128545669D01*
X85293000Y-128698331D01*
X85322783Y-128848059D01*
X85381204Y-128989100D01*
X85466018Y-129116034D01*
X85573966Y-129223982D01*
X85700900Y-129308796D01*
X85841941Y-129367217D01*
X85991669Y-129397000D01*
X86144331Y-129397000D01*
X86294059Y-129367217D01*
X86435100Y-129308796D01*
X86562034Y-129223982D01*
X86669982Y-129116034D01*
X86754796Y-128989100D01*
X86780655Y-128926669D01*
X91262000Y-128926669D01*
X91262000Y-129079331D01*
X91291783Y-129229059D01*
X91350204Y-129370100D01*
X91435018Y-129497034D01*
X91542966Y-129604982D01*
X91669900Y-129689796D01*
X91810941Y-129748217D01*
X91960669Y-129778000D01*
X92113331Y-129778000D01*
X92263059Y-129748217D01*
X92404100Y-129689796D01*
X92531034Y-129604982D01*
X92638982Y-129497034D01*
X92723796Y-129370100D01*
X92782217Y-129229059D01*
X92812000Y-129079331D01*
X92812000Y-128926669D01*
X92782217Y-128776941D01*
X92723796Y-128635900D01*
X92638982Y-128508966D01*
X92531034Y-128401018D01*
X92404100Y-128316204D01*
X92263059Y-128257783D01*
X92113331Y-128228000D01*
X91960669Y-128228000D01*
X91810941Y-128257783D01*
X91669900Y-128316204D01*
X91542966Y-128401018D01*
X91435018Y-128508966D01*
X91350204Y-128635900D01*
X91291783Y-128776941D01*
X91262000Y-128926669D01*
X86780655Y-128926669D01*
X86813217Y-128848059D01*
X86843000Y-128698331D01*
X86843000Y-128545669D01*
X86813217Y-128395941D01*
X86754796Y-128254900D01*
X86669982Y-128127966D01*
X86579685Y-128037669D01*
X99024997Y-128037669D01*
X99024997Y-128190331D01*
X99054780Y-128340059D01*
X99113201Y-128481100D01*
X99198015Y-128608034D01*
X99305963Y-128715982D01*
X99432897Y-128800796D01*
X99573938Y-128859217D01*
X99723666Y-128889000D01*
X99876328Y-128889000D01*
X100026056Y-128859217D01*
X100167097Y-128800796D01*
X100294031Y-128715982D01*
X100401979Y-128608034D01*
X100486793Y-128481100D01*
X100545214Y-128340059D01*
X100574997Y-128190331D01*
X100574997Y-128037669D01*
X100545214Y-127887941D01*
X100486793Y-127746900D01*
X100401979Y-127619966D01*
X100294031Y-127512018D01*
X100167097Y-127427204D01*
X100026056Y-127368783D01*
X99876328Y-127339000D01*
X99723666Y-127339000D01*
X99573938Y-127368783D01*
X99432897Y-127427204D01*
X99305963Y-127512018D01*
X99198015Y-127619966D01*
X99113201Y-127746900D01*
X99054780Y-127887941D01*
X99024997Y-128037669D01*
X86579685Y-128037669D01*
X86562034Y-128020018D01*
X86435100Y-127935204D01*
X86294059Y-127876783D01*
X86144331Y-127847000D01*
X85991669Y-127847000D01*
X85841941Y-127876783D01*
X85700900Y-127935204D01*
X85573966Y-128020018D01*
X85466018Y-128127966D01*
X85381204Y-128254900D01*
X85322783Y-128395941D01*
X85293000Y-128545669D01*
X83541000Y-128545669D01*
X83511217Y-128395941D01*
X83452796Y-128254900D01*
X83367982Y-128127966D01*
X83260034Y-128020018D01*
X83133100Y-127935204D01*
X82992059Y-127876783D01*
X82842331Y-127847000D01*
X82689669Y-127847000D01*
X82539941Y-127876783D01*
X82398900Y-127935204D01*
X82271966Y-128020018D01*
X82164018Y-128127966D01*
X82079204Y-128254900D01*
X82020783Y-128395941D01*
X81991000Y-128545669D01*
X50400000Y-128545669D01*
X50400000Y-126534669D01*
X58280000Y-126534669D01*
X58280000Y-126687331D01*
X58309783Y-126837059D01*
X58368204Y-126978100D01*
X58453018Y-127105034D01*
X58560966Y-127212982D01*
X58687900Y-127297796D01*
X58828941Y-127356217D01*
X58978669Y-127386000D01*
X59131331Y-127386000D01*
X59281059Y-127356217D01*
X59422100Y-127297796D01*
X59549034Y-127212982D01*
X59656982Y-127105034D01*
X59741796Y-126978100D01*
X59800217Y-126837059D01*
X59830000Y-126687331D01*
X59830000Y-126640669D01*
X89865000Y-126640669D01*
X89865000Y-126793331D01*
X89894783Y-126943059D01*
X89953204Y-127084100D01*
X90038018Y-127211034D01*
X90145966Y-127318982D01*
X90272900Y-127403796D01*
X90413941Y-127462217D01*
X90563669Y-127492000D01*
X90716331Y-127492000D01*
X90866059Y-127462217D01*
X91007100Y-127403796D01*
X91134034Y-127318982D01*
X91241982Y-127211034D01*
X91326796Y-127084100D01*
X91385217Y-126943059D01*
X91415000Y-126793331D01*
X91415000Y-126640669D01*
X91385217Y-126490941D01*
X91326796Y-126349900D01*
X91241982Y-126222966D01*
X91134034Y-126115018D01*
X91007100Y-126030204D01*
X90866059Y-125971783D01*
X90716331Y-125942000D01*
X90563669Y-125942000D01*
X90413941Y-125971783D01*
X90272900Y-126030204D01*
X90145966Y-126115018D01*
X90038018Y-126222966D01*
X89953204Y-126349900D01*
X89894783Y-126490941D01*
X89865000Y-126640669D01*
X59830000Y-126640669D01*
X59830000Y-126534669D01*
X59800217Y-126384941D01*
X59741796Y-126243900D01*
X59656982Y-126116966D01*
X59549034Y-126009018D01*
X59422100Y-125924204D01*
X59281059Y-125865783D01*
X59131331Y-125836000D01*
X58978669Y-125836000D01*
X58828941Y-125865783D01*
X58687900Y-125924204D01*
X58560966Y-126009018D01*
X58453018Y-126116966D01*
X58368204Y-126243900D01*
X58309783Y-126384941D01*
X58280000Y-126534669D01*
X50400000Y-126534669D01*
X50400000Y-125624669D01*
X84531000Y-125624669D01*
X84531000Y-125777331D01*
X84560783Y-125927059D01*
X84619204Y-126068100D01*
X84704018Y-126195034D01*
X84811966Y-126302982D01*
X84938900Y-126387796D01*
X85079941Y-126446217D01*
X85229669Y-126476000D01*
X85382331Y-126476000D01*
X85532059Y-126446217D01*
X85673100Y-126387796D01*
X85800034Y-126302982D01*
X85907982Y-126195034D01*
X85992796Y-126068100D01*
X86051217Y-125927059D01*
X86081000Y-125777331D01*
X86081000Y-125624669D01*
X86051217Y-125474941D01*
X85992796Y-125333900D01*
X85907982Y-125206966D01*
X85800034Y-125099018D01*
X85673100Y-125014204D01*
X85532059Y-124955783D01*
X85382331Y-124926000D01*
X85229669Y-124926000D01*
X85079941Y-124955783D01*
X84938900Y-125014204D01*
X84811966Y-125099018D01*
X84704018Y-125206966D01*
X84619204Y-125333900D01*
X84560783Y-125474941D01*
X84531000Y-125624669D01*
X50400000Y-125624669D01*
X50400000Y-124608669D01*
X82753000Y-124608669D01*
X82753000Y-124761331D01*
X82782783Y-124911059D01*
X82841204Y-125052100D01*
X82926018Y-125179034D01*
X83033966Y-125286982D01*
X83160900Y-125371796D01*
X83301941Y-125430217D01*
X83451669Y-125460000D01*
X83604331Y-125460000D01*
X83754059Y-125430217D01*
X83895100Y-125371796D01*
X84022034Y-125286982D01*
X84129982Y-125179034D01*
X84214796Y-125052100D01*
X84273217Y-124911059D01*
X84303000Y-124761331D01*
X84303000Y-124608669D01*
X84273217Y-124458941D01*
X84214796Y-124317900D01*
X84129982Y-124190966D01*
X84022034Y-124083018D01*
X83895100Y-123998204D01*
X83754059Y-123939783D01*
X83604331Y-123910000D01*
X83451669Y-123910000D01*
X83301941Y-123939783D01*
X83160900Y-123998204D01*
X83033966Y-124083018D01*
X82926018Y-124190966D01*
X82841204Y-124317900D01*
X82782783Y-124458941D01*
X82753000Y-124608669D01*
X50400000Y-124608669D01*
X50400000Y-123335981D01*
X81950000Y-123335981D01*
X81950000Y-123464019D01*
X81974979Y-123589598D01*
X82023978Y-123707890D01*
X82095112Y-123814351D01*
X82185649Y-123904888D01*
X82292110Y-123976022D01*
X82410402Y-124025021D01*
X82535981Y-124050000D01*
X82664019Y-124050000D01*
X82789598Y-124025021D01*
X82907890Y-123976022D01*
X83014351Y-123904888D01*
X83104888Y-123814351D01*
X83176022Y-123707890D01*
X83225021Y-123589598D01*
X83250000Y-123464019D01*
X83250000Y-123335981D01*
X83750000Y-123335981D01*
X83750000Y-123464019D01*
X83774979Y-123589598D01*
X83823978Y-123707890D01*
X83895112Y-123814351D01*
X83985649Y-123904888D01*
X84092110Y-123976022D01*
X84210402Y-124025021D01*
X84335981Y-124050000D01*
X84464019Y-124050000D01*
X84589598Y-124025021D01*
X84707890Y-123976022D01*
X84814351Y-123904888D01*
X84904888Y-123814351D01*
X84976022Y-123707890D01*
X85023748Y-123592669D01*
X96723000Y-123592669D01*
X96723000Y-123745331D01*
X96752783Y-123895059D01*
X96811204Y-124036100D01*
X96896018Y-124163034D01*
X97003966Y-124270982D01*
X97130900Y-124355796D01*
X97271941Y-124414217D01*
X97421669Y-124444000D01*
X97574331Y-124444000D01*
X97724059Y-124414217D01*
X97865100Y-124355796D01*
X97992034Y-124270982D01*
X98099982Y-124163034D01*
X98184796Y-124036100D01*
X98243217Y-123895059D01*
X98273000Y-123745331D01*
X98273000Y-123592669D01*
X98243217Y-123442941D01*
X98184796Y-123301900D01*
X98099982Y-123174966D01*
X97992034Y-123067018D01*
X97865100Y-122982204D01*
X97724059Y-122923783D01*
X97574331Y-122894000D01*
X97421669Y-122894000D01*
X97271941Y-122923783D01*
X97130900Y-122982204D01*
X97003966Y-123067018D01*
X96896018Y-123174966D01*
X96811204Y-123301900D01*
X96752783Y-123442941D01*
X96723000Y-123592669D01*
X85023748Y-123592669D01*
X85025021Y-123589598D01*
X85050000Y-123464019D01*
X85050000Y-123335981D01*
X85025021Y-123210402D01*
X84976022Y-123092110D01*
X84904888Y-122985649D01*
X84814351Y-122895112D01*
X84707890Y-122823978D01*
X84589598Y-122774979D01*
X84464019Y-122750000D01*
X84335981Y-122750000D01*
X84210402Y-122774979D01*
X84092110Y-122823978D01*
X83985649Y-122895112D01*
X83895112Y-122985649D01*
X83823978Y-123092110D01*
X83774979Y-123210402D01*
X83750000Y-123335981D01*
X83250000Y-123335981D01*
X83225021Y-123210402D01*
X83176022Y-123092110D01*
X83104888Y-122985649D01*
X83014351Y-122895112D01*
X82907890Y-122823978D01*
X82789598Y-122774979D01*
X82664019Y-122750000D01*
X82535981Y-122750000D01*
X82410402Y-122774979D01*
X82292110Y-122823978D01*
X82185649Y-122895112D01*
X82095112Y-122985649D01*
X82023978Y-123092110D01*
X81974979Y-123210402D01*
X81950000Y-123335981D01*
X50400000Y-123335981D01*
X50400000Y-123071270D01*
X50506584Y-123142487D01*
X50638525Y-123197139D01*
X50778594Y-123225000D01*
X50921406Y-123225000D01*
X51061475Y-123197139D01*
X51193416Y-123142487D01*
X51312161Y-123063144D01*
X51413144Y-122962161D01*
X51492487Y-122843416D01*
X51547139Y-122711475D01*
X51575000Y-122571406D01*
X51575000Y-122428594D01*
X51925000Y-122428594D01*
X51925000Y-122571406D01*
X51952861Y-122711475D01*
X52007513Y-122843416D01*
X52086856Y-122962161D01*
X52187839Y-123063144D01*
X52306584Y-123142487D01*
X52438525Y-123197139D01*
X52578594Y-123225000D01*
X52721406Y-123225000D01*
X52861475Y-123197139D01*
X52993416Y-123142487D01*
X53112161Y-123063144D01*
X53213144Y-122962161D01*
X53292487Y-122843416D01*
X53347139Y-122711475D01*
X53375000Y-122571406D01*
X53375000Y-122449669D01*
X75768000Y-122449669D01*
X75768000Y-122602331D01*
X75797783Y-122752059D01*
X75856204Y-122893100D01*
X75941018Y-123020034D01*
X76048966Y-123127982D01*
X76175900Y-123212796D01*
X76316941Y-123271217D01*
X76466669Y-123301000D01*
X76619331Y-123301000D01*
X76769059Y-123271217D01*
X76910100Y-123212796D01*
X77037034Y-123127982D01*
X77144982Y-123020034D01*
X77229796Y-122893100D01*
X77288217Y-122752059D01*
X77318000Y-122602331D01*
X77318000Y-122449669D01*
X90500000Y-122449669D01*
X90500000Y-122602331D01*
X90529783Y-122752059D01*
X90588204Y-122893100D01*
X90673018Y-123020034D01*
X90780966Y-123127982D01*
X90907900Y-123212796D01*
X91048941Y-123271217D01*
X91198669Y-123301000D01*
X91351331Y-123301000D01*
X91501059Y-123271217D01*
X91642100Y-123212796D01*
X91769034Y-123127982D01*
X91876982Y-123020034D01*
X91961796Y-122893100D01*
X92020217Y-122752059D01*
X92050000Y-122602331D01*
X92050000Y-122449669D01*
X92020217Y-122299941D01*
X91961796Y-122158900D01*
X91876982Y-122031966D01*
X91769034Y-121924018D01*
X91642100Y-121839204D01*
X91501059Y-121780783D01*
X91351331Y-121751000D01*
X91198669Y-121751000D01*
X91048941Y-121780783D01*
X90907900Y-121839204D01*
X90780966Y-121924018D01*
X90673018Y-122031966D01*
X90588204Y-122158900D01*
X90529783Y-122299941D01*
X90500000Y-122449669D01*
X77318000Y-122449669D01*
X77288217Y-122299941D01*
X77229796Y-122158900D01*
X77144982Y-122031966D01*
X77037034Y-121924018D01*
X76910100Y-121839204D01*
X76769059Y-121780783D01*
X76619331Y-121751000D01*
X76466669Y-121751000D01*
X76316941Y-121780783D01*
X76175900Y-121839204D01*
X76048966Y-121924018D01*
X75941018Y-122031966D01*
X75856204Y-122158900D01*
X75797783Y-122299941D01*
X75768000Y-122449669D01*
X53375000Y-122449669D01*
X53375000Y-122428594D01*
X53347139Y-122288525D01*
X53292487Y-122156584D01*
X53213144Y-122037839D01*
X53112161Y-121936856D01*
X52993416Y-121857513D01*
X52861475Y-121802861D01*
X52721406Y-121775000D01*
X52578594Y-121775000D01*
X52438525Y-121802861D01*
X52306584Y-121857513D01*
X52187839Y-121936856D01*
X52086856Y-122037839D01*
X52007513Y-122156584D01*
X51952861Y-122288525D01*
X51925000Y-122428594D01*
X51575000Y-122428594D01*
X51547139Y-122288525D01*
X51492487Y-122156584D01*
X51413144Y-122037839D01*
X51312161Y-121936856D01*
X51193416Y-121857513D01*
X51061475Y-121802861D01*
X50921406Y-121775000D01*
X50778594Y-121775000D01*
X50638525Y-121802861D01*
X50506584Y-121857513D01*
X50400000Y-121928730D01*
X50400000Y-121535981D01*
X81950000Y-121535981D01*
X81950000Y-121664019D01*
X81974979Y-121789598D01*
X82023978Y-121907890D01*
X82095112Y-122014351D01*
X82185649Y-122104888D01*
X82292110Y-122176022D01*
X82410402Y-122225021D01*
X82535981Y-122250000D01*
X82664019Y-122250000D01*
X82789598Y-122225021D01*
X82907890Y-122176022D01*
X83014351Y-122104888D01*
X83104888Y-122014351D01*
X83176022Y-121907890D01*
X83225021Y-121789598D01*
X83250000Y-121664019D01*
X83250000Y-121535981D01*
X83750000Y-121535981D01*
X83750000Y-121664019D01*
X83774979Y-121789598D01*
X83823978Y-121907890D01*
X83895112Y-122014351D01*
X83985649Y-122104888D01*
X84092110Y-122176022D01*
X84210402Y-122225021D01*
X84335981Y-122250000D01*
X84464019Y-122250000D01*
X84589598Y-122225021D01*
X84707890Y-122176022D01*
X84814351Y-122104888D01*
X84904888Y-122014351D01*
X84976022Y-121907890D01*
X85025021Y-121789598D01*
X85050000Y-121664019D01*
X85050000Y-121535981D01*
X85025021Y-121410402D01*
X84982053Y-121306669D01*
X96723000Y-121306669D01*
X96723000Y-121459331D01*
X96752783Y-121609059D01*
X96811204Y-121750100D01*
X96896018Y-121877034D01*
X97003966Y-121984982D01*
X97130900Y-122069796D01*
X97271941Y-122128217D01*
X97421669Y-122158000D01*
X97574331Y-122158000D01*
X97724059Y-122128217D01*
X97865100Y-122069796D01*
X97992034Y-121984982D01*
X98099982Y-121877034D01*
X98184796Y-121750100D01*
X98243217Y-121609059D01*
X98273000Y-121459331D01*
X98273000Y-121306669D01*
X98243217Y-121156941D01*
X98184796Y-121015900D01*
X98099982Y-120888966D01*
X97992034Y-120781018D01*
X97865100Y-120696204D01*
X97724059Y-120637783D01*
X97574331Y-120608000D01*
X97421669Y-120608000D01*
X97271941Y-120637783D01*
X97130900Y-120696204D01*
X97003966Y-120781018D01*
X96896018Y-120888966D01*
X96811204Y-121015900D01*
X96752783Y-121156941D01*
X96723000Y-121306669D01*
X84982053Y-121306669D01*
X84976022Y-121292110D01*
X84904888Y-121185649D01*
X84814351Y-121095112D01*
X84707890Y-121023978D01*
X84589598Y-120974979D01*
X84464019Y-120950000D01*
X84335981Y-120950000D01*
X84210402Y-120974979D01*
X84092110Y-121023978D01*
X83985649Y-121095112D01*
X83895112Y-121185649D01*
X83823978Y-121292110D01*
X83774979Y-121410402D01*
X83750000Y-121535981D01*
X83250000Y-121535981D01*
X83225021Y-121410402D01*
X83176022Y-121292110D01*
X83104888Y-121185649D01*
X83014351Y-121095112D01*
X82907890Y-121023978D01*
X82789598Y-120974979D01*
X82664019Y-120950000D01*
X82535981Y-120950000D01*
X82410402Y-120974979D01*
X82292110Y-121023978D01*
X82185649Y-121095112D01*
X82095112Y-121185649D01*
X82023978Y-121292110D01*
X81974979Y-121410402D01*
X81950000Y-121535981D01*
X50400000Y-121535981D01*
X50400000Y-119909669D01*
X63703000Y-119909669D01*
X63703000Y-120062331D01*
X63732783Y-120212059D01*
X63791204Y-120353100D01*
X63876018Y-120480034D01*
X63983966Y-120587982D01*
X64110900Y-120672796D01*
X64251941Y-120731217D01*
X64401669Y-120761000D01*
X64554331Y-120761000D01*
X64704059Y-120731217D01*
X64845100Y-120672796D01*
X64972034Y-120587982D01*
X65079982Y-120480034D01*
X65164796Y-120353100D01*
X65223217Y-120212059D01*
X65253000Y-120062331D01*
X65253000Y-119909669D01*
X72974000Y-119909669D01*
X72974000Y-120062331D01*
X73003783Y-120212059D01*
X73062204Y-120353100D01*
X73147018Y-120480034D01*
X73254966Y-120587982D01*
X73381900Y-120672796D01*
X73522941Y-120731217D01*
X73672669Y-120761000D01*
X73825331Y-120761000D01*
X73975059Y-120731217D01*
X74116100Y-120672796D01*
X74243034Y-120587982D01*
X74350982Y-120480034D01*
X74435796Y-120353100D01*
X74474705Y-120259164D01*
X89477503Y-120259164D01*
X89477503Y-120411826D01*
X89507286Y-120561554D01*
X89565707Y-120702595D01*
X89650521Y-120829529D01*
X89758469Y-120937477D01*
X89885403Y-121022291D01*
X90026444Y-121080712D01*
X90176172Y-121110495D01*
X90328834Y-121110495D01*
X90478562Y-121080712D01*
X90619603Y-121022291D01*
X90746537Y-120937477D01*
X90854485Y-120829529D01*
X90939299Y-120702595D01*
X90997720Y-120561554D01*
X91027503Y-120411826D01*
X91027503Y-120259164D01*
X90997720Y-120109436D01*
X90939299Y-119968395D01*
X90854485Y-119841461D01*
X90746537Y-119733513D01*
X90628911Y-119654918D01*
X90753034Y-119571982D01*
X90860982Y-119464034D01*
X90945796Y-119337100D01*
X91004217Y-119196059D01*
X91034000Y-119046331D01*
X91034000Y-118893669D01*
X91004217Y-118743941D01*
X90945796Y-118602900D01*
X90860982Y-118475966D01*
X90753034Y-118368018D01*
X90626100Y-118283204D01*
X90597844Y-118271500D01*
X90626100Y-118259796D01*
X90753034Y-118174982D01*
X90860982Y-118067034D01*
X90945796Y-117940100D01*
X91004217Y-117799059D01*
X91034000Y-117649331D01*
X91034000Y-117496669D01*
X91004217Y-117346941D01*
X90945796Y-117205900D01*
X90860982Y-117078966D01*
X90753034Y-116971018D01*
X90626100Y-116886204D01*
X90485059Y-116827783D01*
X90335331Y-116798000D01*
X90182669Y-116798000D01*
X90032941Y-116827783D01*
X89891900Y-116886204D01*
X89764966Y-116971018D01*
X89657018Y-117078966D01*
X89572204Y-117205900D01*
X89513783Y-117346941D01*
X89484000Y-117496669D01*
X89484000Y-117649331D01*
X89513783Y-117799059D01*
X89572204Y-117940100D01*
X89657018Y-118067034D01*
X89764966Y-118174982D01*
X89891900Y-118259796D01*
X89920156Y-118271500D01*
X89891900Y-118283204D01*
X89764966Y-118368018D01*
X89657018Y-118475966D01*
X89572204Y-118602900D01*
X89513783Y-118743941D01*
X89484000Y-118893669D01*
X89484000Y-119046331D01*
X89513783Y-119196059D01*
X89572204Y-119337100D01*
X89657018Y-119464034D01*
X89764966Y-119571982D01*
X89882592Y-119650577D01*
X89758469Y-119733513D01*
X89650521Y-119841461D01*
X89565707Y-119968395D01*
X89507286Y-120109436D01*
X89477503Y-120259164D01*
X74474705Y-120259164D01*
X74494217Y-120212059D01*
X74524000Y-120062331D01*
X74524000Y-119909669D01*
X74494217Y-119759941D01*
X74435796Y-119618900D01*
X74350982Y-119491966D01*
X74243034Y-119384018D01*
X74116100Y-119299204D01*
X73975059Y-119240783D01*
X73825331Y-119211000D01*
X73672669Y-119211000D01*
X73522941Y-119240783D01*
X73381900Y-119299204D01*
X73254966Y-119384018D01*
X73147018Y-119491966D01*
X73062204Y-119618900D01*
X73003783Y-119759941D01*
X72974000Y-119909669D01*
X65253000Y-119909669D01*
X65223217Y-119759941D01*
X65164796Y-119618900D01*
X65079982Y-119491966D01*
X64972034Y-119384018D01*
X64845100Y-119299204D01*
X64704059Y-119240783D01*
X64554331Y-119211000D01*
X64401669Y-119211000D01*
X64251941Y-119240783D01*
X64110900Y-119299204D01*
X63983966Y-119384018D01*
X63876018Y-119491966D01*
X63791204Y-119618900D01*
X63732783Y-119759941D01*
X63703000Y-119909669D01*
X50400000Y-119909669D01*
X50400000Y-118766669D01*
X67005000Y-118766669D01*
X67005000Y-118919331D01*
X67034783Y-119069059D01*
X67093204Y-119210100D01*
X67178018Y-119337034D01*
X67285966Y-119444982D01*
X67412900Y-119529796D01*
X67553941Y-119588217D01*
X67703669Y-119618000D01*
X67856331Y-119618000D01*
X68006059Y-119588217D01*
X68147100Y-119529796D01*
X68274034Y-119444982D01*
X68381982Y-119337034D01*
X68466796Y-119210100D01*
X68525217Y-119069059D01*
X68555000Y-118919331D01*
X68555000Y-118766669D01*
X68525217Y-118616941D01*
X68466796Y-118475900D01*
X68381982Y-118348966D01*
X68274034Y-118241018D01*
X68147100Y-118156204D01*
X68006059Y-118097783D01*
X67856331Y-118068000D01*
X67703669Y-118068000D01*
X67553941Y-118097783D01*
X67412900Y-118156204D01*
X67285966Y-118241018D01*
X67178018Y-118348966D01*
X67093204Y-118475900D01*
X67034783Y-118616941D01*
X67005000Y-118766669D01*
X50400000Y-118766669D01*
X50400000Y-116480669D01*
X84912000Y-116480669D01*
X84912000Y-116633331D01*
X84941783Y-116783059D01*
X85000204Y-116924100D01*
X85085018Y-117051034D01*
X85192966Y-117158982D01*
X85319900Y-117243796D01*
X85460941Y-117302217D01*
X85610669Y-117332000D01*
X85763331Y-117332000D01*
X85913059Y-117302217D01*
X86054100Y-117243796D01*
X86181034Y-117158982D01*
X86288982Y-117051034D01*
X86373796Y-116924100D01*
X86432217Y-116783059D01*
X86462000Y-116633331D01*
X86462000Y-116607669D01*
X90920000Y-116607669D01*
X90920000Y-116760331D01*
X90949783Y-116910059D01*
X91008204Y-117051100D01*
X91093018Y-117178034D01*
X91200966Y-117285982D01*
X91327900Y-117370796D01*
X91468941Y-117429217D01*
X91618669Y-117459000D01*
X91771331Y-117459000D01*
X91921059Y-117429217D01*
X92062100Y-117370796D01*
X92189034Y-117285982D01*
X92296982Y-117178034D01*
X92381796Y-117051100D01*
X92440217Y-116910059D01*
X92470000Y-116760331D01*
X92470000Y-116607669D01*
X92440217Y-116457941D01*
X92381796Y-116316900D01*
X92296982Y-116189966D01*
X92189034Y-116082018D01*
X92062100Y-115997204D01*
X92002868Y-115972669D01*
X92654347Y-115972669D01*
X92654347Y-116125331D01*
X92684130Y-116275059D01*
X92742551Y-116416100D01*
X92827365Y-116543034D01*
X92935313Y-116650982D01*
X93062247Y-116735796D01*
X93203288Y-116794217D01*
X93353016Y-116824000D01*
X93505678Y-116824000D01*
X93655406Y-116794217D01*
X93796447Y-116735796D01*
X93923381Y-116650982D01*
X93966694Y-116607669D01*
X97739000Y-116607669D01*
X97739000Y-116760331D01*
X97768783Y-116910059D01*
X97827204Y-117051100D01*
X97912018Y-117178034D01*
X98019966Y-117285982D01*
X98146900Y-117370796D01*
X98287941Y-117429217D01*
X98437669Y-117459000D01*
X98590331Y-117459000D01*
X98740059Y-117429217D01*
X98881100Y-117370796D01*
X99008034Y-117285982D01*
X99115982Y-117178034D01*
X99200796Y-117051100D01*
X99259217Y-116910059D01*
X99271826Y-116846665D01*
X100084073Y-116846665D01*
X100084073Y-116999327D01*
X100113856Y-117149055D01*
X100172277Y-117290096D01*
X100257091Y-117417030D01*
X100365039Y-117524978D01*
X100491973Y-117609792D01*
X100633014Y-117668213D01*
X100782742Y-117697996D01*
X100935404Y-117697996D01*
X101085132Y-117668213D01*
X101226173Y-117609792D01*
X101353107Y-117524978D01*
X101461055Y-117417030D01*
X101545869Y-117290096D01*
X101604290Y-117149055D01*
X101634073Y-116999327D01*
X101634073Y-116846665D01*
X101604290Y-116696937D01*
X101545869Y-116555896D01*
X101461055Y-116428962D01*
X101353107Y-116321014D01*
X101226173Y-116236200D01*
X101085132Y-116177779D01*
X100935404Y-116147996D01*
X100782742Y-116147996D01*
X100633014Y-116177779D01*
X100491973Y-116236200D01*
X100365039Y-116321014D01*
X100257091Y-116428962D01*
X100172277Y-116555896D01*
X100113856Y-116696937D01*
X100084073Y-116846665D01*
X99271826Y-116846665D01*
X99289000Y-116760331D01*
X99289000Y-116607669D01*
X99259217Y-116457941D01*
X99200796Y-116316900D01*
X99115982Y-116189966D01*
X99008034Y-116082018D01*
X98881100Y-115997204D01*
X98740059Y-115938783D01*
X98590331Y-115909000D01*
X98437669Y-115909000D01*
X98287941Y-115938783D01*
X98146900Y-115997204D01*
X98019966Y-116082018D01*
X97912018Y-116189966D01*
X97827204Y-116316900D01*
X97768783Y-116457941D01*
X97739000Y-116607669D01*
X93966694Y-116607669D01*
X94031329Y-116543034D01*
X94116143Y-116416100D01*
X94174564Y-116275059D01*
X94204347Y-116125331D01*
X94204347Y-115972669D01*
X94174564Y-115822941D01*
X94156954Y-115780426D01*
X94168059Y-115778217D01*
X94309100Y-115719796D01*
X94436034Y-115634982D01*
X94543982Y-115527034D01*
X94628796Y-115400100D01*
X94687217Y-115259059D01*
X94717000Y-115109331D01*
X94717000Y-114956669D01*
X94687217Y-114806941D01*
X94628796Y-114665900D01*
X94543982Y-114538966D01*
X94436034Y-114431018D01*
X94309100Y-114346204D01*
X94168059Y-114287783D01*
X94018331Y-114258000D01*
X93865669Y-114258000D01*
X93715941Y-114287783D01*
X93574900Y-114346204D01*
X93447966Y-114431018D01*
X93340018Y-114538966D01*
X93255204Y-114665900D01*
X93196783Y-114806941D01*
X93167000Y-114956669D01*
X93167000Y-115109331D01*
X93196783Y-115259059D01*
X93214393Y-115301574D01*
X93203288Y-115303783D01*
X93062247Y-115362204D01*
X92935313Y-115447018D01*
X92827365Y-115554966D01*
X92742551Y-115681900D01*
X92684130Y-115822941D01*
X92654347Y-115972669D01*
X92002868Y-115972669D01*
X91921059Y-115938783D01*
X91771331Y-115909000D01*
X91618669Y-115909000D01*
X91468941Y-115938783D01*
X91327900Y-115997204D01*
X91200966Y-116082018D01*
X91093018Y-116189966D01*
X91008204Y-116316900D01*
X90949783Y-116457941D01*
X90920000Y-116607669D01*
X86462000Y-116607669D01*
X86462000Y-116480669D01*
X86432217Y-116330941D01*
X86373796Y-116189900D01*
X86288982Y-116062966D01*
X86181034Y-115955018D01*
X86054100Y-115870204D01*
X85913059Y-115811783D01*
X85763331Y-115782000D01*
X85610669Y-115782000D01*
X85460941Y-115811783D01*
X85319900Y-115870204D01*
X85192966Y-115955018D01*
X85085018Y-116062966D01*
X85000204Y-116189900D01*
X84941783Y-116330941D01*
X84912000Y-116480669D01*
X50400000Y-116480669D01*
X50400000Y-115464669D01*
X67767000Y-115464669D01*
X67767000Y-115617331D01*
X67796783Y-115767059D01*
X67855204Y-115908100D01*
X67940018Y-116035034D01*
X68047966Y-116142982D01*
X68174900Y-116227796D01*
X68315941Y-116286217D01*
X68465669Y-116316000D01*
X68618331Y-116316000D01*
X68768059Y-116286217D01*
X68909100Y-116227796D01*
X69036034Y-116142982D01*
X69143982Y-116035034D01*
X69228796Y-115908100D01*
X69287217Y-115767059D01*
X69317000Y-115617331D01*
X69317000Y-115464669D01*
X69287217Y-115314941D01*
X69228796Y-115173900D01*
X69143982Y-115046966D01*
X69036034Y-114939018D01*
X68957688Y-114886669D01*
X71734000Y-114886669D01*
X71734000Y-115039331D01*
X71763783Y-115189059D01*
X71822204Y-115330100D01*
X71907018Y-115457034D01*
X72014966Y-115564982D01*
X72141900Y-115649796D01*
X72282941Y-115708217D01*
X72432669Y-115738000D01*
X72585331Y-115738000D01*
X72735059Y-115708217D01*
X72876100Y-115649796D01*
X73003034Y-115564982D01*
X73110982Y-115457034D01*
X73162206Y-115380371D01*
X80876524Y-115380371D01*
X80876524Y-115533033D01*
X80906307Y-115682761D01*
X80964728Y-115823802D01*
X81049542Y-115950736D01*
X81157490Y-116058684D01*
X81284424Y-116143498D01*
X81425465Y-116201919D01*
X81575193Y-116231702D01*
X81727855Y-116231702D01*
X81877583Y-116201919D01*
X82018624Y-116143498D01*
X82145558Y-116058684D01*
X82253506Y-115950736D01*
X82338320Y-115823802D01*
X82396741Y-115682761D01*
X82426524Y-115533033D01*
X82426524Y-115380371D01*
X82396741Y-115230643D01*
X82338320Y-115089602D01*
X82253506Y-114962668D01*
X82177507Y-114886669D01*
X84783500Y-114886669D01*
X84783500Y-115039331D01*
X84813283Y-115189059D01*
X84871704Y-115330100D01*
X84956518Y-115457034D01*
X85064466Y-115564982D01*
X85191400Y-115649796D01*
X85332441Y-115708217D01*
X85482169Y-115738000D01*
X85634831Y-115738000D01*
X85784559Y-115708217D01*
X85925600Y-115649796D01*
X86052534Y-115564982D01*
X86160482Y-115457034D01*
X86245296Y-115330100D01*
X86303717Y-115189059D01*
X86333500Y-115039331D01*
X86333500Y-114886669D01*
X86303717Y-114736941D01*
X86245296Y-114595900D01*
X86160482Y-114468966D01*
X86052534Y-114361018D01*
X85925600Y-114276204D01*
X85784559Y-114217783D01*
X85634831Y-114188000D01*
X85482169Y-114188000D01*
X85332441Y-114217783D01*
X85191400Y-114276204D01*
X85064466Y-114361018D01*
X84956518Y-114468966D01*
X84871704Y-114595900D01*
X84813283Y-114736941D01*
X84783500Y-114886669D01*
X82177507Y-114886669D01*
X82145558Y-114854720D01*
X82018624Y-114769906D01*
X81877583Y-114711485D01*
X81727855Y-114681702D01*
X81575193Y-114681702D01*
X81425465Y-114711485D01*
X81284424Y-114769906D01*
X81157490Y-114854720D01*
X81049542Y-114962668D01*
X80964728Y-115089602D01*
X80906307Y-115230643D01*
X80876524Y-115380371D01*
X73162206Y-115380371D01*
X73195796Y-115330100D01*
X73254217Y-115189059D01*
X73284000Y-115039331D01*
X73284000Y-114886669D01*
X73254217Y-114736941D01*
X73195796Y-114595900D01*
X73110982Y-114468966D01*
X73003034Y-114361018D01*
X72876100Y-114276204D01*
X72735059Y-114217783D01*
X72585331Y-114188000D01*
X72432669Y-114188000D01*
X72282941Y-114217783D01*
X72141900Y-114276204D01*
X72014966Y-114361018D01*
X71907018Y-114468966D01*
X71822204Y-114595900D01*
X71763783Y-114736941D01*
X71734000Y-114886669D01*
X68957688Y-114886669D01*
X68909100Y-114854204D01*
X68768059Y-114795783D01*
X68618331Y-114766000D01*
X68465669Y-114766000D01*
X68315941Y-114795783D01*
X68174900Y-114854204D01*
X68047966Y-114939018D01*
X67940018Y-115046966D01*
X67855204Y-115173900D01*
X67796783Y-115314941D01*
X67767000Y-115464669D01*
X50400000Y-115464669D01*
X50400000Y-114571056D01*
X54225000Y-114571056D01*
X54225000Y-114708944D01*
X54251901Y-114844182D01*
X54304668Y-114971574D01*
X54381274Y-115086224D01*
X54478776Y-115183726D01*
X54593426Y-115260332D01*
X54720818Y-115313099D01*
X54856056Y-115340000D01*
X54993944Y-115340000D01*
X55129182Y-115313099D01*
X55256574Y-115260332D01*
X55371224Y-115183726D01*
X55468726Y-115086224D01*
X55545332Y-114971574D01*
X55598099Y-114844182D01*
X55625000Y-114708944D01*
X55625000Y-114571056D01*
X55598099Y-114435818D01*
X55545332Y-114308426D01*
X55468726Y-114193776D01*
X55371224Y-114096274D01*
X55256574Y-114019668D01*
X55129182Y-113966901D01*
X54993944Y-113940000D01*
X54856056Y-113940000D01*
X54720818Y-113966901D01*
X54593426Y-114019668D01*
X54478776Y-114096274D01*
X54381274Y-114193776D01*
X54304668Y-114308426D01*
X54251901Y-114435818D01*
X54225000Y-114571056D01*
X50400000Y-114571056D01*
X50400000Y-112670669D01*
X52400000Y-112670669D01*
X52400000Y-112823331D01*
X52429783Y-112973059D01*
X52488204Y-113114100D01*
X52573018Y-113241034D01*
X52680966Y-113348982D01*
X52807900Y-113433796D01*
X52948941Y-113492217D01*
X53098669Y-113522000D01*
X53251331Y-113522000D01*
X53401059Y-113492217D01*
X53542100Y-113433796D01*
X53669034Y-113348982D01*
X53712347Y-113305669D01*
X59131000Y-113305669D01*
X59131000Y-113458331D01*
X59160783Y-113608059D01*
X59219204Y-113749100D01*
X59304018Y-113876034D01*
X59411966Y-113983982D01*
X59538900Y-114068796D01*
X59679941Y-114127217D01*
X59829669Y-114157000D01*
X59982331Y-114157000D01*
X60132059Y-114127217D01*
X60273100Y-114068796D01*
X60400034Y-113983982D01*
X60507982Y-113876034D01*
X60541000Y-113826619D01*
X60574018Y-113876034D01*
X60681966Y-113983982D01*
X60808900Y-114068796D01*
X60949941Y-114127217D01*
X61099669Y-114157000D01*
X61252331Y-114157000D01*
X61402059Y-114127217D01*
X61543100Y-114068796D01*
X61670034Y-113983982D01*
X61777982Y-113876034D01*
X61862796Y-113749100D01*
X61921217Y-113608059D01*
X61951000Y-113458331D01*
X61951000Y-113305669D01*
X61921217Y-113155941D01*
X61862796Y-113014900D01*
X61777982Y-112887966D01*
X61670034Y-112780018D01*
X61543100Y-112695204D01*
X61402059Y-112636783D01*
X61252331Y-112607000D01*
X61099669Y-112607000D01*
X60949941Y-112636783D01*
X60808900Y-112695204D01*
X60681966Y-112780018D01*
X60574018Y-112887966D01*
X60541000Y-112937381D01*
X60507982Y-112887966D01*
X60400034Y-112780018D01*
X60273100Y-112695204D01*
X60132059Y-112636783D01*
X59982331Y-112607000D01*
X59829669Y-112607000D01*
X59679941Y-112636783D01*
X59538900Y-112695204D01*
X59411966Y-112780018D01*
X59304018Y-112887966D01*
X59219204Y-113014900D01*
X59160783Y-113155941D01*
X59131000Y-113305669D01*
X53712347Y-113305669D01*
X53776982Y-113241034D01*
X53861796Y-113114100D01*
X53920217Y-112973059D01*
X53950000Y-112823331D01*
X53950000Y-112670669D01*
X53920217Y-112520941D01*
X53861796Y-112379900D01*
X53776982Y-112252966D01*
X53669034Y-112145018D01*
X53542100Y-112060204D01*
X53401059Y-112001783D01*
X53251331Y-111972000D01*
X53098669Y-111972000D01*
X52948941Y-112001783D01*
X52807900Y-112060204D01*
X52680966Y-112145018D01*
X52573018Y-112252966D01*
X52488204Y-112379900D01*
X52429783Y-112520941D01*
X52400000Y-112670669D01*
X50400000Y-112670669D01*
X50400000Y-109876669D01*
X87452000Y-109876669D01*
X87452000Y-110029331D01*
X87481783Y-110179059D01*
X87540204Y-110320100D01*
X87625018Y-110447034D01*
X87732966Y-110554982D01*
X87859900Y-110639796D01*
X88000941Y-110698217D01*
X88150669Y-110728000D01*
X88303331Y-110728000D01*
X88453059Y-110698217D01*
X88594100Y-110639796D01*
X88721034Y-110554982D01*
X88764347Y-110511669D01*
X93167000Y-110511669D01*
X93167000Y-110664331D01*
X93196783Y-110814059D01*
X93255204Y-110955100D01*
X93340018Y-111082034D01*
X93447966Y-111189982D01*
X93574900Y-111274796D01*
X93715941Y-111333217D01*
X93865669Y-111363000D01*
X94018331Y-111363000D01*
X94168059Y-111333217D01*
X94309100Y-111274796D01*
X94436034Y-111189982D01*
X94543982Y-111082034D01*
X94628796Y-110955100D01*
X94687217Y-110814059D01*
X94717000Y-110664331D01*
X94717000Y-110511669D01*
X94687217Y-110361941D01*
X94628796Y-110220900D01*
X94543982Y-110093966D01*
X94436034Y-109986018D01*
X94309100Y-109901204D01*
X94168059Y-109842783D01*
X94018331Y-109813000D01*
X93865669Y-109813000D01*
X93715941Y-109842783D01*
X93574900Y-109901204D01*
X93447966Y-109986018D01*
X93340018Y-110093966D01*
X93255204Y-110220900D01*
X93196783Y-110361941D01*
X93167000Y-110511669D01*
X88764347Y-110511669D01*
X88828982Y-110447034D01*
X88913796Y-110320100D01*
X88972217Y-110179059D01*
X89002000Y-110029331D01*
X89002000Y-109876669D01*
X88972217Y-109726941D01*
X88913796Y-109585900D01*
X88828982Y-109458966D01*
X88721034Y-109351018D01*
X88612323Y-109278380D01*
X88653111Y-109270267D01*
X88794152Y-109211846D01*
X88921086Y-109127032D01*
X89029034Y-109019084D01*
X89113848Y-108892150D01*
X89172269Y-108751109D01*
X89202052Y-108601381D01*
X89202052Y-108448719D01*
X89172269Y-108298991D01*
X89113848Y-108157950D01*
X89029034Y-108031016D01*
X88921086Y-107923068D01*
X88794152Y-107838254D01*
X88653111Y-107779833D01*
X88503383Y-107750050D01*
X88350721Y-107750050D01*
X88200993Y-107779833D01*
X88059952Y-107838254D01*
X87933018Y-107923068D01*
X87825070Y-108031016D01*
X87740256Y-108157950D01*
X87681835Y-108298991D01*
X87652052Y-108448719D01*
X87652052Y-108601381D01*
X87681835Y-108751109D01*
X87740256Y-108892150D01*
X87825070Y-109019084D01*
X87933018Y-109127032D01*
X88041729Y-109199670D01*
X88000941Y-109207783D01*
X87859900Y-109266204D01*
X87732966Y-109351018D01*
X87625018Y-109458966D01*
X87540204Y-109585900D01*
X87481783Y-109726941D01*
X87452000Y-109876669D01*
X50400000Y-109876669D01*
X50400000Y-108791056D01*
X54225000Y-108791056D01*
X54225000Y-108928944D01*
X54251901Y-109064182D01*
X54304668Y-109191574D01*
X54381274Y-109306224D01*
X54478776Y-109403726D01*
X54593426Y-109480332D01*
X54720818Y-109533099D01*
X54856056Y-109560000D01*
X54993944Y-109560000D01*
X55129182Y-109533099D01*
X55256574Y-109480332D01*
X55371224Y-109403726D01*
X55468726Y-109306224D01*
X55545332Y-109191574D01*
X55598099Y-109064182D01*
X55625000Y-108928944D01*
X55625000Y-108791056D01*
X55598099Y-108655818D01*
X55545332Y-108528426D01*
X55468726Y-108413776D01*
X55371224Y-108316274D01*
X55256574Y-108239668D01*
X55129182Y-108186901D01*
X54993944Y-108160000D01*
X54856056Y-108160000D01*
X54720818Y-108186901D01*
X54593426Y-108239668D01*
X54478776Y-108316274D01*
X54381274Y-108413776D01*
X54304668Y-108528426D01*
X54251901Y-108655818D01*
X54225000Y-108791056D01*
X50400000Y-108791056D01*
X50400000Y-105400000D01*
X101875000Y-105400000D01*
X101875000Y-112852984D01*
G37*
%TD.AperFunction*%
%TD*%
M02*
