%TF.GenerationSoftware,KiCad,Pcbnew,(5.1.7)-1*%
%TF.CreationDate,2021-01-20T17:17:38-05:00*%
%TF.ProjectId,SYSC4907_REV2,53595343-3439-4303-975f-524556322e6b,rev?*%
%TF.SameCoordinates,Original*%
%TF.FileFunction,Copper,L4,Bot*%
%TF.FilePolarity,Positive*%
%FSLAX46Y46*%
G04 Gerber Fmt 4.6, Leading zero omitted, Abs format (unit mm)*
G04 Created by KiCad (PCBNEW (5.1.7)-1) date 2021-01-20 17:17:38*
%MOMM*%
%LPD*%
G01*
G04 APERTURE LIST*
%TA.AperFunction,EtchedComponent*%
%ADD10C,0.100000*%
%TD*%
%TA.AperFunction,SMDPad,CuDef*%
%ADD11R,0.700000X1.200000*%
%TD*%
%TA.AperFunction,SMDPad,CuDef*%
%ADD12R,1.000000X1.200000*%
%TD*%
%TA.AperFunction,SMDPad,CuDef*%
%ADD13R,1.000000X0.800000*%
%TD*%
%TA.AperFunction,SMDPad,CuDef*%
%ADD14R,1.000000X2.800000*%
%TD*%
%TA.AperFunction,SMDPad,CuDef*%
%ADD15R,1.300000X1.900000*%
%TD*%
%TA.AperFunction,SMDPad,CuDef*%
%ADD16R,1.000000X1.500000*%
%TD*%
%TA.AperFunction,SMDPad,CuDef*%
%ADD17R,1.500000X1.000000*%
%TD*%
%TA.AperFunction,SMDPad,CuDef*%
%ADD18R,0.508000X0.508000*%
%TD*%
%TA.AperFunction,SMDPad,CuDef*%
%ADD19R,0.650000X1.060000*%
%TD*%
%TA.AperFunction,SMDPad,CuDef*%
%ADD20R,0.300000X0.900000*%
%TD*%
%TA.AperFunction,SMDPad,CuDef*%
%ADD21R,0.300000X0.850000*%
%TD*%
%TA.AperFunction,SMDPad,CuDef*%
%ADD22R,0.400000X1.060000*%
%TD*%
%TA.AperFunction,SMDPad,CuDef*%
%ADD23C,0.100000*%
%TD*%
%TA.AperFunction,SMDPad,CuDef*%
%ADD24R,1.600000X1.750000*%
%TD*%
%TA.AperFunction,ComponentPad*%
%ADD25R,1.700000X1.700000*%
%TD*%
%TA.AperFunction,ComponentPad*%
%ADD26O,1.700000X1.700000*%
%TD*%
%TA.AperFunction,ViaPad*%
%ADD27C,0.800000*%
%TD*%
%TA.AperFunction,Conductor*%
%ADD28C,0.200000*%
%TD*%
%TA.AperFunction,Conductor*%
%ADD29C,0.250000*%
%TD*%
%TA.AperFunction,Conductor*%
%ADD30C,0.500000*%
%TD*%
%TA.AperFunction,Conductor*%
%ADD31C,0.160000*%
%TD*%
G04 APERTURE END LIST*
D10*
%TO.C,JP201*%
G36*
X91406000Y-114444000D02*
G01*
X91906000Y-114444000D01*
X91906000Y-113844000D01*
X91406000Y-113844000D01*
X91406000Y-114444000D01*
G37*
%TO.C,JP202*%
G36*
X91406000Y-111523000D02*
G01*
X91906000Y-111523000D01*
X91906000Y-110923000D01*
X91406000Y-110923000D01*
X91406000Y-111523000D01*
G37*
%TO.C,JP203*%
G36*
X71975000Y-130954000D02*
G01*
X72475000Y-130954000D01*
X72475000Y-130354000D01*
X71975000Y-130354000D01*
X71975000Y-130954000D01*
G37*
%TO.C,JP204*%
G36*
X71975000Y-133621000D02*
G01*
X72475000Y-133621000D01*
X72475000Y-133021000D01*
X71975000Y-133021000D01*
X71975000Y-133621000D01*
G37*
%TO.C,JP205*%
G36*
X71975000Y-136288000D02*
G01*
X72475000Y-136288000D01*
X72475000Y-135688000D01*
X71975000Y-135688000D01*
X71975000Y-136288000D01*
G37*
%TO.C,JP206*%
G36*
X71990000Y-128287000D02*
G01*
X72490000Y-128287000D01*
X72490000Y-127687000D01*
X71990000Y-127687000D01*
X71990000Y-128287000D01*
G37*
%TO.C,JP207*%
G36*
X71975000Y-138955000D02*
G01*
X72475000Y-138955000D01*
X72475000Y-138355000D01*
X71975000Y-138355000D01*
X71975000Y-138955000D01*
G37*
%TO.C,JP208*%
G36*
X100973000Y-131031000D02*
G01*
X100973000Y-130531000D01*
X100373000Y-130531000D01*
X100373000Y-131031000D01*
X100973000Y-131031000D01*
G37*
%TO.C,JP209*%
G36*
X98306000Y-131031000D02*
G01*
X98306000Y-130531000D01*
X97706000Y-130531000D01*
X97706000Y-131031000D01*
X98306000Y-131031000D01*
G37*
%TO.C,JP210*%
G36*
X76412000Y-114098000D02*
G01*
X75912000Y-114098000D01*
X75912000Y-114698000D01*
X76412000Y-114698000D01*
X76412000Y-114098000D01*
G37*
%TO.C,JP211*%
G36*
X76412000Y-111431000D02*
G01*
X75912000Y-111431000D01*
X75912000Y-112031000D01*
X76412000Y-112031000D01*
X76412000Y-111431000D01*
G37*
%TO.C,JP212*%
G36*
X76412000Y-108764000D02*
G01*
X75912000Y-108764000D01*
X75912000Y-109364000D01*
X76412000Y-109364000D01*
X76412000Y-108764000D01*
G37*
%TO.C,JP213*%
G36*
X76412000Y-106097000D02*
G01*
X75912000Y-106097000D01*
X75912000Y-106697000D01*
X76412000Y-106697000D01*
X76412000Y-106097000D01*
G37*
%TD*%
%TO.P,C201,1*%
%TO.N,GND*%
%TA.AperFunction,SMDPad,CuDef*%
G36*
G01*
X90496500Y-123926000D02*
X90021500Y-123926000D01*
G75*
G02*
X89784000Y-123688500I0J237500D01*
G01*
X89784000Y-123088500D01*
G75*
G02*
X90021500Y-122851000I237500J0D01*
G01*
X90496500Y-122851000D01*
G75*
G02*
X90734000Y-123088500I0J-237500D01*
G01*
X90734000Y-123688500D01*
G75*
G02*
X90496500Y-123926000I-237500J0D01*
G01*
G37*
%TD.AperFunction*%
%TO.P,C201,2*%
%TO.N,+1V8*%
%TA.AperFunction,SMDPad,CuDef*%
G36*
G01*
X90496500Y-122201000D02*
X90021500Y-122201000D01*
G75*
G02*
X89784000Y-121963500I0J237500D01*
G01*
X89784000Y-121363500D01*
G75*
G02*
X90021500Y-121126000I237500J0D01*
G01*
X90496500Y-121126000D01*
G75*
G02*
X90734000Y-121363500I0J-237500D01*
G01*
X90734000Y-121963500D01*
G75*
G02*
X90496500Y-122201000I-237500J0D01*
G01*
G37*
%TD.AperFunction*%
%TD*%
%TO.P,C401,1*%
%TO.N,+1V8*%
%TA.AperFunction,SMDPad,CuDef*%
G36*
G01*
X87448500Y-135610000D02*
X86973500Y-135610000D01*
G75*
G02*
X86736000Y-135372500I0J237500D01*
G01*
X86736000Y-134772500D01*
G75*
G02*
X86973500Y-134535000I237500J0D01*
G01*
X87448500Y-134535000D01*
G75*
G02*
X87686000Y-134772500I0J-237500D01*
G01*
X87686000Y-135372500D01*
G75*
G02*
X87448500Y-135610000I-237500J0D01*
G01*
G37*
%TD.AperFunction*%
%TO.P,C401,2*%
%TO.N,GND*%
%TA.AperFunction,SMDPad,CuDef*%
G36*
G01*
X87448500Y-133885000D02*
X86973500Y-133885000D01*
G75*
G02*
X86736000Y-133647500I0J237500D01*
G01*
X86736000Y-133047500D01*
G75*
G02*
X86973500Y-132810000I237500J0D01*
G01*
X87448500Y-132810000D01*
G75*
G02*
X87686000Y-133047500I0J-237500D01*
G01*
X87686000Y-133647500D01*
G75*
G02*
X87448500Y-133885000I-237500J0D01*
G01*
G37*
%TD.AperFunction*%
%TD*%
%TO.P,C402,1*%
%TO.N,+1V8*%
%TA.AperFunction,SMDPad,CuDef*%
G36*
G01*
X75510500Y-119227000D02*
X75035500Y-119227000D01*
G75*
G02*
X74798000Y-118989500I0J237500D01*
G01*
X74798000Y-118389500D01*
G75*
G02*
X75035500Y-118152000I237500J0D01*
G01*
X75510500Y-118152000D01*
G75*
G02*
X75748000Y-118389500I0J-237500D01*
G01*
X75748000Y-118989500D01*
G75*
G02*
X75510500Y-119227000I-237500J0D01*
G01*
G37*
%TD.AperFunction*%
%TO.P,C402,2*%
%TO.N,GND*%
%TA.AperFunction,SMDPad,CuDef*%
G36*
G01*
X75510500Y-117502000D02*
X75035500Y-117502000D01*
G75*
G02*
X74798000Y-117264500I0J237500D01*
G01*
X74798000Y-116664500D01*
G75*
G02*
X75035500Y-116427000I237500J0D01*
G01*
X75510500Y-116427000D01*
G75*
G02*
X75748000Y-116664500I0J-237500D01*
G01*
X75748000Y-117264500D01*
G75*
G02*
X75510500Y-117502000I-237500J0D01*
G01*
G37*
%TD.AperFunction*%
%TD*%
%TO.P,C403,1*%
%TO.N,GND*%
%TA.AperFunction,SMDPad,CuDef*%
G36*
G01*
X82655500Y-116427000D02*
X83130500Y-116427000D01*
G75*
G02*
X83368000Y-116664500I0J-237500D01*
G01*
X83368000Y-117264500D01*
G75*
G02*
X83130500Y-117502000I-237500J0D01*
G01*
X82655500Y-117502000D01*
G75*
G02*
X82418000Y-117264500I0J237500D01*
G01*
X82418000Y-116664500D01*
G75*
G02*
X82655500Y-116427000I237500J0D01*
G01*
G37*
%TD.AperFunction*%
%TO.P,C403,2*%
%TO.N,Net-(C403-Pad2)*%
%TA.AperFunction,SMDPad,CuDef*%
G36*
G01*
X82655500Y-118152000D02*
X83130500Y-118152000D01*
G75*
G02*
X83368000Y-118389500I0J-237500D01*
G01*
X83368000Y-118989500D01*
G75*
G02*
X83130500Y-119227000I-237500J0D01*
G01*
X82655500Y-119227000D01*
G75*
G02*
X82418000Y-118989500I0J237500D01*
G01*
X82418000Y-118389500D01*
G75*
G02*
X82655500Y-118152000I237500J0D01*
G01*
G37*
%TD.AperFunction*%
%TD*%
%TO.P,C404,2*%
%TO.N,GND*%
%TA.AperFunction,SMDPad,CuDef*%
G36*
G01*
X73986500Y-117502000D02*
X73511500Y-117502000D01*
G75*
G02*
X73274000Y-117264500I0J237500D01*
G01*
X73274000Y-116664500D01*
G75*
G02*
X73511500Y-116427000I237500J0D01*
G01*
X73986500Y-116427000D01*
G75*
G02*
X74224000Y-116664500I0J-237500D01*
G01*
X74224000Y-117264500D01*
G75*
G02*
X73986500Y-117502000I-237500J0D01*
G01*
G37*
%TD.AperFunction*%
%TO.P,C404,1*%
%TO.N,+1V8*%
%TA.AperFunction,SMDPad,CuDef*%
G36*
G01*
X73986500Y-119227000D02*
X73511500Y-119227000D01*
G75*
G02*
X73274000Y-118989500I0J237500D01*
G01*
X73274000Y-118389500D01*
G75*
G02*
X73511500Y-118152000I237500J0D01*
G01*
X73986500Y-118152000D01*
G75*
G02*
X74224000Y-118389500I0J-237500D01*
G01*
X74224000Y-118989500D01*
G75*
G02*
X73986500Y-119227000I-237500J0D01*
G01*
G37*
%TD.AperFunction*%
%TD*%
%TO.P,C405,2*%
%TO.N,Net-(C405-Pad2)*%
%TA.AperFunction,SMDPad,CuDef*%
G36*
G01*
X84179500Y-118152000D02*
X84654500Y-118152000D01*
G75*
G02*
X84892000Y-118389500I0J-237500D01*
G01*
X84892000Y-118989500D01*
G75*
G02*
X84654500Y-119227000I-237500J0D01*
G01*
X84179500Y-119227000D01*
G75*
G02*
X83942000Y-118989500I0J237500D01*
G01*
X83942000Y-118389500D01*
G75*
G02*
X84179500Y-118152000I237500J0D01*
G01*
G37*
%TD.AperFunction*%
%TO.P,C405,1*%
%TO.N,Net-(C405-Pad1)*%
%TA.AperFunction,SMDPad,CuDef*%
G36*
G01*
X84179500Y-116427000D02*
X84654500Y-116427000D01*
G75*
G02*
X84892000Y-116664500I0J-237500D01*
G01*
X84892000Y-117264500D01*
G75*
G02*
X84654500Y-117502000I-237500J0D01*
G01*
X84179500Y-117502000D01*
G75*
G02*
X83942000Y-117264500I0J237500D01*
G01*
X83942000Y-116664500D01*
G75*
G02*
X84179500Y-116427000I237500J0D01*
G01*
G37*
%TD.AperFunction*%
%TD*%
%TO.P,C407,2*%
%TO.N,GND*%
%TA.AperFunction,SMDPad,CuDef*%
G36*
G01*
X81385500Y-134535000D02*
X81860500Y-134535000D01*
G75*
G02*
X82098000Y-134772500I0J-237500D01*
G01*
X82098000Y-135372500D01*
G75*
G02*
X81860500Y-135610000I-237500J0D01*
G01*
X81385500Y-135610000D01*
G75*
G02*
X81148000Y-135372500I0J237500D01*
G01*
X81148000Y-134772500D01*
G75*
G02*
X81385500Y-134535000I237500J0D01*
G01*
G37*
%TD.AperFunction*%
%TO.P,C407,1*%
%TO.N,Net-(C407-Pad1)*%
%TA.AperFunction,SMDPad,CuDef*%
G36*
G01*
X81385500Y-132810000D02*
X81860500Y-132810000D01*
G75*
G02*
X82098000Y-133047500I0J-237500D01*
G01*
X82098000Y-133647500D01*
G75*
G02*
X81860500Y-133885000I-237500J0D01*
G01*
X81385500Y-133885000D01*
G75*
G02*
X81148000Y-133647500I0J237500D01*
G01*
X81148000Y-133047500D01*
G75*
G02*
X81385500Y-132810000I237500J0D01*
G01*
G37*
%TD.AperFunction*%
%TD*%
%TO.P,C408,1*%
%TO.N,+1V8*%
%TA.AperFunction,SMDPad,CuDef*%
G36*
G01*
X86846500Y-127222000D02*
X87321500Y-127222000D01*
G75*
G02*
X87559000Y-127459500I0J-237500D01*
G01*
X87559000Y-128059500D01*
G75*
G02*
X87321500Y-128297000I-237500J0D01*
G01*
X86846500Y-128297000D01*
G75*
G02*
X86609000Y-128059500I0J237500D01*
G01*
X86609000Y-127459500D01*
G75*
G02*
X86846500Y-127222000I237500J0D01*
G01*
G37*
%TD.AperFunction*%
%TO.P,C408,2*%
%TO.N,GND*%
%TA.AperFunction,SMDPad,CuDef*%
G36*
G01*
X86846500Y-128947000D02*
X87321500Y-128947000D01*
G75*
G02*
X87559000Y-129184500I0J-237500D01*
G01*
X87559000Y-129784500D01*
G75*
G02*
X87321500Y-130022000I-237500J0D01*
G01*
X86846500Y-130022000D01*
G75*
G02*
X86609000Y-129784500I0J237500D01*
G01*
X86609000Y-129184500D01*
G75*
G02*
X86846500Y-128947000I237500J0D01*
G01*
G37*
%TD.AperFunction*%
%TD*%
%TO.P,C410,1*%
%TO.N,+3V3*%
%TA.AperFunction,SMDPad,CuDef*%
G36*
G01*
X80082500Y-119227000D02*
X79607500Y-119227000D01*
G75*
G02*
X79370000Y-118989500I0J237500D01*
G01*
X79370000Y-118389500D01*
G75*
G02*
X79607500Y-118152000I237500J0D01*
G01*
X80082500Y-118152000D01*
G75*
G02*
X80320000Y-118389500I0J-237500D01*
G01*
X80320000Y-118989500D01*
G75*
G02*
X80082500Y-119227000I-237500J0D01*
G01*
G37*
%TD.AperFunction*%
%TO.P,C410,2*%
%TO.N,GND*%
%TA.AperFunction,SMDPad,CuDef*%
G36*
G01*
X80082500Y-117502000D02*
X79607500Y-117502000D01*
G75*
G02*
X79370000Y-117264500I0J237500D01*
G01*
X79370000Y-116664500D01*
G75*
G02*
X79607500Y-116427000I237500J0D01*
G01*
X80082500Y-116427000D01*
G75*
G02*
X80320000Y-116664500I0J-237500D01*
G01*
X80320000Y-117264500D01*
G75*
G02*
X80082500Y-117502000I-237500J0D01*
G01*
G37*
%TD.AperFunction*%
%TD*%
%TO.P,C411,1*%
%TO.N,Net-(C411-Pad1)*%
%TA.AperFunction,SMDPad,CuDef*%
G36*
G01*
X81512500Y-127222000D02*
X81987500Y-127222000D01*
G75*
G02*
X82225000Y-127459500I0J-237500D01*
G01*
X82225000Y-128059500D01*
G75*
G02*
X81987500Y-128297000I-237500J0D01*
G01*
X81512500Y-128297000D01*
G75*
G02*
X81275000Y-128059500I0J237500D01*
G01*
X81275000Y-127459500D01*
G75*
G02*
X81512500Y-127222000I237500J0D01*
G01*
G37*
%TD.AperFunction*%
%TO.P,C411,2*%
%TO.N,Net-(C411-Pad2)*%
%TA.AperFunction,SMDPad,CuDef*%
G36*
G01*
X81512500Y-128947000D02*
X81987500Y-128947000D01*
G75*
G02*
X82225000Y-129184500I0J-237500D01*
G01*
X82225000Y-129784500D01*
G75*
G02*
X81987500Y-130022000I-237500J0D01*
G01*
X81512500Y-130022000D01*
G75*
G02*
X81275000Y-129784500I0J237500D01*
G01*
X81275000Y-129184500D01*
G75*
G02*
X81512500Y-128947000I237500J0D01*
G01*
G37*
%TD.AperFunction*%
%TD*%
%TO.P,C412,2*%
%TO.N,GND*%
%TA.AperFunction,SMDPad,CuDef*%
G36*
G01*
X81606500Y-117502000D02*
X81131500Y-117502000D01*
G75*
G02*
X80894000Y-117264500I0J237500D01*
G01*
X80894000Y-116664500D01*
G75*
G02*
X81131500Y-116427000I237500J0D01*
G01*
X81606500Y-116427000D01*
G75*
G02*
X81844000Y-116664500I0J-237500D01*
G01*
X81844000Y-117264500D01*
G75*
G02*
X81606500Y-117502000I-237500J0D01*
G01*
G37*
%TD.AperFunction*%
%TO.P,C412,1*%
%TO.N,+3V3*%
%TA.AperFunction,SMDPad,CuDef*%
G36*
G01*
X81606500Y-119227000D02*
X81131500Y-119227000D01*
G75*
G02*
X80894000Y-118989500I0J237500D01*
G01*
X80894000Y-118389500D01*
G75*
G02*
X81131500Y-118152000I237500J0D01*
G01*
X81606500Y-118152000D01*
G75*
G02*
X81844000Y-118389500I0J-237500D01*
G01*
X81844000Y-118989500D01*
G75*
G02*
X81606500Y-119227000I-237500J0D01*
G01*
G37*
%TD.AperFunction*%
%TD*%
%TO.P,C413,2*%
%TO.N,GND*%
%TA.AperFunction,SMDPad,CuDef*%
G36*
G01*
X78558500Y-117502000D02*
X78083500Y-117502000D01*
G75*
G02*
X77846000Y-117264500I0J237500D01*
G01*
X77846000Y-116664500D01*
G75*
G02*
X78083500Y-116427000I237500J0D01*
G01*
X78558500Y-116427000D01*
G75*
G02*
X78796000Y-116664500I0J-237500D01*
G01*
X78796000Y-117264500D01*
G75*
G02*
X78558500Y-117502000I-237500J0D01*
G01*
G37*
%TD.AperFunction*%
%TO.P,C413,1*%
%TO.N,Net-(C413-Pad1)*%
%TA.AperFunction,SMDPad,CuDef*%
G36*
G01*
X78558500Y-119227000D02*
X78083500Y-119227000D01*
G75*
G02*
X77846000Y-118989500I0J237500D01*
G01*
X77846000Y-118389500D01*
G75*
G02*
X78083500Y-118152000I237500J0D01*
G01*
X78558500Y-118152000D01*
G75*
G02*
X78796000Y-118389500I0J-237500D01*
G01*
X78796000Y-118989500D01*
G75*
G02*
X78558500Y-119227000I-237500J0D01*
G01*
G37*
%TD.AperFunction*%
%TD*%
%TO.P,C414,1*%
%TO.N,GND*%
%TA.AperFunction,SMDPad,CuDef*%
G36*
G01*
X85817000Y-131178500D02*
X85817000Y-131653500D01*
G75*
G02*
X85579500Y-131891000I-237500J0D01*
G01*
X84979500Y-131891000D01*
G75*
G02*
X84742000Y-131653500I0J237500D01*
G01*
X84742000Y-131178500D01*
G75*
G02*
X84979500Y-130941000I237500J0D01*
G01*
X85579500Y-130941000D01*
G75*
G02*
X85817000Y-131178500I0J-237500D01*
G01*
G37*
%TD.AperFunction*%
%TO.P,C414,2*%
%TO.N,IR_TEMP*%
%TA.AperFunction,SMDPad,CuDef*%
G36*
G01*
X84092000Y-131178500D02*
X84092000Y-131653500D01*
G75*
G02*
X83854500Y-131891000I-237500J0D01*
G01*
X83254500Y-131891000D01*
G75*
G02*
X83017000Y-131653500I0J237500D01*
G01*
X83017000Y-131178500D01*
G75*
G02*
X83254500Y-130941000I237500J0D01*
G01*
X83854500Y-130941000D01*
G75*
G02*
X84092000Y-131178500I0J-237500D01*
G01*
G37*
%TD.AperFunction*%
%TD*%
%TO.P,C419,1*%
%TO.N,GND*%
%TA.AperFunction,SMDPad,CuDef*%
G36*
G01*
X67783000Y-131305500D02*
X67783000Y-131780500D01*
G75*
G02*
X67545500Y-132018000I-237500J0D01*
G01*
X66945500Y-132018000D01*
G75*
G02*
X66708000Y-131780500I0J237500D01*
G01*
X66708000Y-131305500D01*
G75*
G02*
X66945500Y-131068000I237500J0D01*
G01*
X67545500Y-131068000D01*
G75*
G02*
X67783000Y-131305500I0J-237500D01*
G01*
G37*
%TD.AperFunction*%
%TO.P,C419,2*%
%TO.N,+1V8*%
%TA.AperFunction,SMDPad,CuDef*%
G36*
G01*
X66058000Y-131305500D02*
X66058000Y-131780500D01*
G75*
G02*
X65820500Y-132018000I-237500J0D01*
G01*
X65220500Y-132018000D01*
G75*
G02*
X64983000Y-131780500I0J237500D01*
G01*
X64983000Y-131305500D01*
G75*
G02*
X65220500Y-131068000I237500J0D01*
G01*
X65820500Y-131068000D01*
G75*
G02*
X66058000Y-131305500I0J-237500D01*
G01*
G37*
%TD.AperFunction*%
%TD*%
%TO.P,C420,2*%
%TO.N,+1V8*%
%TA.AperFunction,SMDPad,CuDef*%
G36*
G01*
X66058000Y-137655500D02*
X66058000Y-138130500D01*
G75*
G02*
X65820500Y-138368000I-237500J0D01*
G01*
X65220500Y-138368000D01*
G75*
G02*
X64983000Y-138130500I0J237500D01*
G01*
X64983000Y-137655500D01*
G75*
G02*
X65220500Y-137418000I237500J0D01*
G01*
X65820500Y-137418000D01*
G75*
G02*
X66058000Y-137655500I0J-237500D01*
G01*
G37*
%TD.AperFunction*%
%TO.P,C420,1*%
%TO.N,GND*%
%TA.AperFunction,SMDPad,CuDef*%
G36*
G01*
X67783000Y-137655500D02*
X67783000Y-138130500D01*
G75*
G02*
X67545500Y-138368000I-237500J0D01*
G01*
X66945500Y-138368000D01*
G75*
G02*
X66708000Y-138130500I0J237500D01*
G01*
X66708000Y-137655500D01*
G75*
G02*
X66945500Y-137418000I237500J0D01*
G01*
X67545500Y-137418000D01*
G75*
G02*
X67783000Y-137655500I0J-237500D01*
G01*
G37*
%TD.AperFunction*%
%TD*%
%TO.P,C421,1*%
%TO.N,GND*%
%TA.AperFunction,SMDPad,CuDef*%
G36*
G01*
X62335500Y-133318000D02*
X62810500Y-133318000D01*
G75*
G02*
X63048000Y-133555500I0J-237500D01*
G01*
X63048000Y-134155500D01*
G75*
G02*
X62810500Y-134393000I-237500J0D01*
G01*
X62335500Y-134393000D01*
G75*
G02*
X62098000Y-134155500I0J237500D01*
G01*
X62098000Y-133555500D01*
G75*
G02*
X62335500Y-133318000I237500J0D01*
G01*
G37*
%TD.AperFunction*%
%TO.P,C421,2*%
%TO.N,Net-(C421-Pad2)*%
%TA.AperFunction,SMDPad,CuDef*%
G36*
G01*
X62335500Y-135043000D02*
X62810500Y-135043000D01*
G75*
G02*
X63048000Y-135280500I0J-237500D01*
G01*
X63048000Y-135880500D01*
G75*
G02*
X62810500Y-136118000I-237500J0D01*
G01*
X62335500Y-136118000D01*
G75*
G02*
X62098000Y-135880500I0J237500D01*
G01*
X62098000Y-135280500D01*
G75*
G02*
X62335500Y-135043000I237500J0D01*
G01*
G37*
%TD.AperFunction*%
%TD*%
D11*
%TO.P,J203,9*%
%TO.N,SD_DET*%
X59125000Y-121325000D03*
%TO.P,J203,8*%
%TO.N,Net-(J203-Pad8)*%
X60075000Y-121325000D03*
%TO.P,J203,1*%
%TO.N,Net-(J203-Pad1)*%
X67775000Y-121325000D03*
%TO.P,J203,2*%
%TO.N,Net-(J203-Pad2)*%
X66675000Y-121325000D03*
%TO.P,J203,3*%
%TO.N,Net-(J203-Pad3)*%
X65575000Y-121325000D03*
%TO.P,J203,4*%
%TO.N,+3V3*%
X64475000Y-121325000D03*
%TO.P,J203,5*%
%TO.N,Net-(J203-Pad5)*%
X63375000Y-121325000D03*
%TO.P,J203,6*%
%TO.N,GND*%
X62275000Y-121325000D03*
%TO.P,J203,7*%
%TO.N,Net-(J203-Pad7)*%
X61175000Y-121325000D03*
D12*
%TO.P,J203,11*%
%TO.N,GND*%
X69325000Y-121325000D03*
X58175000Y-117025000D03*
D13*
%TO.P,J203,10*%
%TO.N,+1V8*%
X58175000Y-110825000D03*
D14*
%TO.P,J203,11*%
%TO.N,GND*%
X58175000Y-106675000D03*
D15*
X71675000Y-106225000D03*
%TD*%
D16*
%TO.P,JP201,1*%
%TO.N,I2C_SCL*%
X91006000Y-114144000D03*
%TO.P,JP201,2*%
%TO.N,Net-(JP201-Pad2)*%
X92306000Y-114144000D03*
%TD*%
%TO.P,JP202,2*%
%TO.N,Net-(JP202-Pad2)*%
X92306000Y-111223000D03*
%TO.P,JP202,1*%
%TO.N,I2C_SDA*%
X91006000Y-111223000D03*
%TD*%
%TO.P,JP203,2*%
%TO.N,Net-(JP203-Pad2)*%
X72875000Y-130654000D03*
%TO.P,JP203,1*%
%TO.N,IMU_SCK*%
X71575000Y-130654000D03*
%TD*%
%TO.P,JP204,1*%
%TO.N,IMU_MOSI*%
X71575000Y-133321000D03*
%TO.P,JP204,2*%
%TO.N,Net-(JP204-Pad2)*%
X72875000Y-133321000D03*
%TD*%
%TO.P,JP205,2*%
%TO.N,Net-(JP205-Pad2)*%
X72875000Y-135988000D03*
%TO.P,JP205,1*%
%TO.N,IMU_MISO*%
X71575000Y-135988000D03*
%TD*%
%TO.P,JP206,2*%
%TO.N,Net-(JP206-Pad2)*%
X72890000Y-127987000D03*
%TO.P,JP206,1*%
%TO.N,IMU_CS*%
X71590000Y-127987000D03*
%TD*%
%TO.P,JP207,1*%
%TO.N,IMU_INT*%
X71575000Y-138655000D03*
%TO.P,JP207,2*%
%TO.N,Net-(JP207-Pad2)*%
X72875000Y-138655000D03*
%TD*%
D17*
%TO.P,JP208,1*%
%TO.N,UV_INT*%
X100673000Y-131431000D03*
%TO.P,JP208,2*%
%TO.N,Net-(JP208-Pad2)*%
X100673000Y-130131000D03*
%TD*%
%TO.P,JP209,2*%
%TO.N,Net-(JP209-Pad2)*%
X98006000Y-130131000D03*
%TO.P,JP209,1*%
%TO.N,HEART_INT*%
X98006000Y-131431000D03*
%TD*%
D16*
%TO.P,JP210,1*%
%TO.N,SD_MISO*%
X76812000Y-114398000D03*
%TO.P,JP210,2*%
%TO.N,Net-(JP210-Pad2)*%
X75512000Y-114398000D03*
%TD*%
%TO.P,JP211,2*%
%TO.N,Net-(JP211-Pad2)*%
X75512000Y-111731000D03*
%TO.P,JP211,1*%
%TO.N,SD_MOSI*%
X76812000Y-111731000D03*
%TD*%
%TO.P,JP212,1*%
%TO.N,SD_SCK*%
X76812000Y-109064000D03*
%TO.P,JP212,2*%
%TO.N,Net-(JP212-Pad2)*%
X75512000Y-109064000D03*
%TD*%
%TO.P,JP213,1*%
%TO.N,SD_CS*%
X76812000Y-106397000D03*
%TO.P,JP213,2*%
%TO.N,Net-(JP213-Pad2)*%
X75512000Y-106397000D03*
%TD*%
%TO.P,R201,2*%
%TO.N,I2C_SCL*%
%TA.AperFunction,SMDPad,CuDef*%
G36*
G01*
X88652000Y-114889500D02*
X88652000Y-114414500D01*
G75*
G02*
X88889500Y-114177000I237500J0D01*
G01*
X89389500Y-114177000D01*
G75*
G02*
X89627000Y-114414500I0J-237500D01*
G01*
X89627000Y-114889500D01*
G75*
G02*
X89389500Y-115127000I-237500J0D01*
G01*
X88889500Y-115127000D01*
G75*
G02*
X88652000Y-114889500I0J237500D01*
G01*
G37*
%TD.AperFunction*%
%TO.P,R201,1*%
%TO.N,+1V8*%
%TA.AperFunction,SMDPad,CuDef*%
G36*
G01*
X86827000Y-114889500D02*
X86827000Y-114414500D01*
G75*
G02*
X87064500Y-114177000I237500J0D01*
G01*
X87564500Y-114177000D01*
G75*
G02*
X87802000Y-114414500I0J-237500D01*
G01*
X87802000Y-114889500D01*
G75*
G02*
X87564500Y-115127000I-237500J0D01*
G01*
X87064500Y-115127000D01*
G75*
G02*
X86827000Y-114889500I0J237500D01*
G01*
G37*
%TD.AperFunction*%
%TD*%
%TO.P,R202,2*%
%TO.N,I2C_SDA*%
%TA.AperFunction,SMDPad,CuDef*%
G36*
G01*
X88652000Y-111968500D02*
X88652000Y-111493500D01*
G75*
G02*
X88889500Y-111256000I237500J0D01*
G01*
X89389500Y-111256000D01*
G75*
G02*
X89627000Y-111493500I0J-237500D01*
G01*
X89627000Y-111968500D01*
G75*
G02*
X89389500Y-112206000I-237500J0D01*
G01*
X88889500Y-112206000D01*
G75*
G02*
X88652000Y-111968500I0J237500D01*
G01*
G37*
%TD.AperFunction*%
%TO.P,R202,1*%
%TO.N,+1V8*%
%TA.AperFunction,SMDPad,CuDef*%
G36*
G01*
X86827000Y-111968500D02*
X86827000Y-111493500D01*
G75*
G02*
X87064500Y-111256000I237500J0D01*
G01*
X87564500Y-111256000D01*
G75*
G02*
X87802000Y-111493500I0J-237500D01*
G01*
X87802000Y-111968500D01*
G75*
G02*
X87564500Y-112206000I-237500J0D01*
G01*
X87064500Y-112206000D01*
G75*
G02*
X86827000Y-111968500I0J237500D01*
G01*
G37*
%TD.AperFunction*%
%TD*%
%TO.P,R203,1*%
%TO.N,SD_DET*%
%TA.AperFunction,SMDPad,CuDef*%
G36*
G01*
X55718000Y-119494500D02*
X55718000Y-119969500D01*
G75*
G02*
X55480500Y-120207000I-237500J0D01*
G01*
X54980500Y-120207000D01*
G75*
G02*
X54743000Y-119969500I0J237500D01*
G01*
X54743000Y-119494500D01*
G75*
G02*
X54980500Y-119257000I237500J0D01*
G01*
X55480500Y-119257000D01*
G75*
G02*
X55718000Y-119494500I0J-237500D01*
G01*
G37*
%TD.AperFunction*%
%TO.P,R203,2*%
%TO.N,GND*%
%TA.AperFunction,SMDPad,CuDef*%
G36*
G01*
X53893000Y-119494500D02*
X53893000Y-119969500D01*
G75*
G02*
X53655500Y-120207000I-237500J0D01*
G01*
X53155500Y-120207000D01*
G75*
G02*
X52918000Y-119969500I0J237500D01*
G01*
X52918000Y-119494500D01*
G75*
G02*
X53155500Y-119257000I237500J0D01*
G01*
X53655500Y-119257000D01*
G75*
G02*
X53893000Y-119494500I0J-237500D01*
G01*
G37*
%TD.AperFunction*%
%TD*%
%TO.P,R401,2*%
%TO.N,HEART_INT*%
%TA.AperFunction,SMDPad,CuDef*%
G36*
G01*
X79166000Y-125209500D02*
X79166000Y-125684500D01*
G75*
G02*
X78928500Y-125922000I-237500J0D01*
G01*
X78428500Y-125922000D01*
G75*
G02*
X78191000Y-125684500I0J237500D01*
G01*
X78191000Y-125209500D01*
G75*
G02*
X78428500Y-124972000I237500J0D01*
G01*
X78928500Y-124972000D01*
G75*
G02*
X79166000Y-125209500I0J-237500D01*
G01*
G37*
%TD.AperFunction*%
%TO.P,R401,1*%
%TO.N,+1V8*%
%TA.AperFunction,SMDPad,CuDef*%
G36*
G01*
X80991000Y-125209500D02*
X80991000Y-125684500D01*
G75*
G02*
X80753500Y-125922000I-237500J0D01*
G01*
X80253500Y-125922000D01*
G75*
G02*
X80016000Y-125684500I0J237500D01*
G01*
X80016000Y-125209500D01*
G75*
G02*
X80253500Y-124972000I237500J0D01*
G01*
X80753500Y-124972000D01*
G75*
G02*
X80991000Y-125209500I0J-237500D01*
G01*
G37*
%TD.AperFunction*%
%TD*%
%TO.P,R402,2*%
%TO.N,+1V8*%
%TA.AperFunction,SMDPad,CuDef*%
G36*
G01*
X77034500Y-117402000D02*
X76559500Y-117402000D01*
G75*
G02*
X76322000Y-117164500I0J237500D01*
G01*
X76322000Y-116664500D01*
G75*
G02*
X76559500Y-116427000I237500J0D01*
G01*
X77034500Y-116427000D01*
G75*
G02*
X77272000Y-116664500I0J-237500D01*
G01*
X77272000Y-117164500D01*
G75*
G02*
X77034500Y-117402000I-237500J0D01*
G01*
G37*
%TD.AperFunction*%
%TO.P,R402,1*%
%TO.N,Net-(C413-Pad1)*%
%TA.AperFunction,SMDPad,CuDef*%
G36*
G01*
X77034500Y-119227000D02*
X76559500Y-119227000D01*
G75*
G02*
X76322000Y-118989500I0J237500D01*
G01*
X76322000Y-118489500D01*
G75*
G02*
X76559500Y-118252000I237500J0D01*
G01*
X77034500Y-118252000D01*
G75*
G02*
X77272000Y-118489500I0J-237500D01*
G01*
X77272000Y-118989500D01*
G75*
G02*
X77034500Y-119227000I-237500J0D01*
G01*
G37*
%TD.AperFunction*%
%TD*%
D18*
%TO.P,U202,1*%
%TO.N,GND*%
X101850001Y-126899999D03*
%TO.P,U202,3*%
X100750001Y-126899999D03*
%TO.P,U202,5*%
X99650001Y-126899999D03*
%TO.P,U202,7*%
%TO.N,Net-(JP209-Pad2)*%
X98550000Y-126899999D03*
%TO.P,U202,9*%
%TO.N,Net-(JP205-Pad2)*%
X97450000Y-126899999D03*
%TO.P,U202,11*%
%TO.N,Net-(JP203-Pad2)*%
X96350000Y-126899999D03*
%TO.P,U202,13*%
%TO.N,Net-(U202-Pad13)*%
X95249999Y-126899999D03*
%TO.P,U202,15*%
%TO.N,IR_TEMP*%
X94149999Y-126899999D03*
%TO.P,U202,16*%
%TO.N,GND*%
X93049999Y-126899999D03*
%TO.P,U202,61*%
%TO.N,POWER_ON*%
X92149998Y-126350000D03*
%TO.P,U202,62*%
%TO.N,Net-(U202-Pad62)*%
X92149998Y-125250000D03*
%TO.P,U202,63*%
%TO.N,Net-(U202-Pad63)*%
X92149998Y-124149999D03*
%TO.P,U202,64*%
%TO.N,Net-(U202-Pad64)*%
X92149998Y-123049999D03*
%TO.P,U202,65*%
%TO.N,+1V8*%
X92149998Y-121950001D03*
%TO.P,U202,66*%
%TO.N,VBUS*%
X92149998Y-120850001D03*
%TO.P,U202,67*%
%TO.N,Net-(U201-Pad4)*%
X92149998Y-119750000D03*
%TO.P,U202,68*%
%TO.N,Net-(U201-Pad6)*%
X92149998Y-118650000D03*
%TO.P,U202,30*%
%TO.N,GND*%
X93049999Y-118100001D03*
%TO.P,U202,31*%
%TO.N,Net-(U202-Pad31)*%
X94149999Y-118100001D03*
%TO.P,U202,33*%
%TO.N,Net-(JP201-Pad2)*%
X95249999Y-118100001D03*
%TO.P,U202,35*%
%TO.N,SD_MISO*%
X96350000Y-118100001D03*
%TO.P,U202,37*%
%TO.N,SD_SCK*%
X97450000Y-118100001D03*
%TO.P,U202,39*%
%TO.N,Net-(J202-Pad10)*%
X98550000Y-118100001D03*
%TO.P,U202,41*%
%TO.N,LED_G*%
X99650001Y-118100001D03*
%TO.P,U202,43*%
%TO.N,Net-(J202-Pad4)*%
X100750001Y-118100001D03*
%TO.P,U202,45*%
%TO.N,GND*%
X101850001Y-118100001D03*
%TO.P,U202,18*%
X93949998Y-125250000D03*
%TO.P,U202,32*%
%TO.N,SD_DET*%
X94699999Y-119000001D03*
%TO.P,U202,34*%
%TO.N,Net-(JP202-Pad2)*%
X95800000Y-119000001D03*
%TO.P,U202,36*%
%TO.N,SD_MOSI*%
X96900000Y-119000001D03*
%TO.P,U202,38*%
%TO.N,SD_CS*%
X98000000Y-119000001D03*
%TO.P,U202,40*%
%TO.N,LED_R*%
X99100001Y-119000001D03*
%TO.P,U202,42*%
%TO.N,LED_B*%
X100200001Y-119000001D03*
%TO.P,U202,44*%
%TO.N,Net-(J202-Pad2)*%
X101300001Y-119000001D03*
%TO.P,U202,56*%
%TO.N,Net-(U202-Pad56)*%
X96350000Y-119900001D03*
%TO.P,U202,57*%
%TO.N,FAST_CHARGE*%
X97450000Y-119900001D03*
%TO.P,U202,58*%
%TO.N,Net-(U202-Pad58)*%
X98550001Y-119900001D03*
%TO.P,U202,59*%
%TO.N,Net-(U202-Pad59)*%
X99650001Y-119900001D03*
%TO.P,U202,60*%
%TO.N,Net-(U202-Pad60)*%
X100750001Y-119900001D03*
%TO.P,U202,2*%
%TO.N,GND*%
X101300001Y-125999999D03*
%TO.P,U202,4*%
X100200001Y-125999999D03*
%TO.P,U202,6*%
%TO.N,Net-(JP208-Pad2)*%
X99100001Y-125999999D03*
%TO.P,U202,8*%
%TO.N,Net-(JP207-Pad2)*%
X98000000Y-125999999D03*
%TO.P,U202,10*%
%TO.N,Net-(JP204-Pad2)*%
X96900000Y-125999999D03*
%TO.P,U202,12*%
%TO.N,Net-(JP206-Pad2)*%
X95800000Y-125999999D03*
%TO.P,U202,14*%
%TO.N,Net-(U202-Pad14)*%
X94699999Y-125999999D03*
%TO.P,U202,53*%
%TO.N,Net-(U202-Pad53)*%
X94849998Y-123600000D03*
%TO.P,U202,48*%
%TO.N,POWER_SW*%
X100750001Y-125099999D03*
%TO.P,U202,49*%
%TO.N,Net-(U202-Pad49)*%
X99650001Y-125099999D03*
%TO.P,U202,50*%
%TO.N,Net-(U202-Pad50)*%
X98550001Y-125099999D03*
%TO.P,U202,51*%
%TO.N,Net-(U202-Pad51)*%
X97450000Y-125099999D03*
%TO.P,U202,52*%
%TO.N,Net-(U202-Pad52)*%
X96350000Y-125099999D03*
%TO.P,U202,17*%
%TO.N,+1V8*%
X93049998Y-125800000D03*
%TO.P,U202,19*%
%TO.N,AMB_TEMP*%
X93049998Y-124700000D03*
%TO.P,U202,47*%
%TO.N,GND*%
X101850001Y-124149999D03*
%TO.P,U202,46*%
X101850001Y-120850001D03*
%TO.P,U202,27*%
%TO.N,Net-(U202-Pad27)*%
X93049998Y-120300001D03*
%TO.P,U202,29*%
%TO.N,GND*%
X93049998Y-119200000D03*
%TO.P,U202,54*%
%TO.N,Net-(U202-Pad54)*%
X94849998Y-122499999D03*
%TO.P,U202,55*%
%TO.N,GND*%
X94849998Y-121399999D03*
%TO.P,U202,26*%
%TO.N,Net-(U202-Pad26)*%
X93949998Y-120850001D03*
%TO.P,U202,28*%
%TO.N,Net-(U202-Pad28)*%
X93949998Y-119750001D03*
%TO.P,U202,21*%
%TO.N,Net-(U202-Pad21)*%
X93049998Y-123600000D03*
%TO.P,U202,23*%
%TO.N,Net-(U202-Pad23)*%
X93049998Y-122499999D03*
%TO.P,U202,25*%
%TO.N,Net-(U202-Pad25)*%
X93049998Y-121399999D03*
%TO.P,U202,20*%
%TO.N,VBAT_MEAS*%
X93949998Y-124150000D03*
%TO.P,U202,22*%
%TO.N,Net-(U202-Pad22)*%
X93949998Y-123050000D03*
%TO.P,U202,24*%
%TO.N,Net-(U202-Pad24)*%
X93949998Y-121949999D03*
%TD*%
%TO.P,U203,1*%
%TO.N,+1V8*%
%TA.AperFunction,SMDPad,CuDef*%
G36*
G01*
X57384000Y-131968000D02*
X57184000Y-131968000D01*
G75*
G02*
X57084000Y-131868000I0J100000D01*
G01*
X57084000Y-130593000D01*
G75*
G02*
X57184000Y-130493000I100000J0D01*
G01*
X57384000Y-130493000D01*
G75*
G02*
X57484000Y-130593000I0J-100000D01*
G01*
X57484000Y-131868000D01*
G75*
G02*
X57384000Y-131968000I-100000J0D01*
G01*
G37*
%TD.AperFunction*%
%TO.P,U203,2*%
%TO.N,Net-(JP210-Pad2)*%
%TA.AperFunction,SMDPad,CuDef*%
G36*
G01*
X56734000Y-131968000D02*
X56534000Y-131968000D01*
G75*
G02*
X56434000Y-131868000I0J100000D01*
G01*
X56434000Y-130593000D01*
G75*
G02*
X56534000Y-130493000I100000J0D01*
G01*
X56734000Y-130493000D01*
G75*
G02*
X56834000Y-130593000I0J-100000D01*
G01*
X56834000Y-131868000D01*
G75*
G02*
X56734000Y-131968000I-100000J0D01*
G01*
G37*
%TD.AperFunction*%
%TO.P,U203,3*%
%TO.N,Net-(JP211-Pad2)*%
%TA.AperFunction,SMDPad,CuDef*%
G36*
G01*
X56084000Y-131968000D02*
X55884000Y-131968000D01*
G75*
G02*
X55784000Y-131868000I0J100000D01*
G01*
X55784000Y-130593000D01*
G75*
G02*
X55884000Y-130493000I100000J0D01*
G01*
X56084000Y-130493000D01*
G75*
G02*
X56184000Y-130593000I0J-100000D01*
G01*
X56184000Y-131868000D01*
G75*
G02*
X56084000Y-131968000I-100000J0D01*
G01*
G37*
%TD.AperFunction*%
%TO.P,U203,4*%
%TO.N,Net-(JP212-Pad2)*%
%TA.AperFunction,SMDPad,CuDef*%
G36*
G01*
X55434000Y-131968000D02*
X55234000Y-131968000D01*
G75*
G02*
X55134000Y-131868000I0J100000D01*
G01*
X55134000Y-130593000D01*
G75*
G02*
X55234000Y-130493000I100000J0D01*
G01*
X55434000Y-130493000D01*
G75*
G02*
X55534000Y-130593000I0J-100000D01*
G01*
X55534000Y-131868000D01*
G75*
G02*
X55434000Y-131968000I-100000J0D01*
G01*
G37*
%TD.AperFunction*%
%TO.P,U203,5*%
%TO.N,Net-(JP213-Pad2)*%
%TA.AperFunction,SMDPad,CuDef*%
G36*
G01*
X54784000Y-131968000D02*
X54584000Y-131968000D01*
G75*
G02*
X54484000Y-131868000I0J100000D01*
G01*
X54484000Y-130593000D01*
G75*
G02*
X54584000Y-130493000I100000J0D01*
G01*
X54784000Y-130493000D01*
G75*
G02*
X54884000Y-130593000I0J-100000D01*
G01*
X54884000Y-131868000D01*
G75*
G02*
X54784000Y-131968000I-100000J0D01*
G01*
G37*
%TD.AperFunction*%
%TO.P,U203,6*%
%TO.N,Net-(U203-Pad6)*%
%TA.AperFunction,SMDPad,CuDef*%
G36*
G01*
X54134000Y-131968000D02*
X53934000Y-131968000D01*
G75*
G02*
X53834000Y-131868000I0J100000D01*
G01*
X53834000Y-130593000D01*
G75*
G02*
X53934000Y-130493000I100000J0D01*
G01*
X54134000Y-130493000D01*
G75*
G02*
X54234000Y-130593000I0J-100000D01*
G01*
X54234000Y-131868000D01*
G75*
G02*
X54134000Y-131968000I-100000J0D01*
G01*
G37*
%TD.AperFunction*%
%TO.P,U203,7*%
%TO.N,GND*%
%TA.AperFunction,SMDPad,CuDef*%
G36*
G01*
X53484000Y-131968000D02*
X53284000Y-131968000D01*
G75*
G02*
X53184000Y-131868000I0J100000D01*
G01*
X53184000Y-130593000D01*
G75*
G02*
X53284000Y-130493000I100000J0D01*
G01*
X53484000Y-130493000D01*
G75*
G02*
X53584000Y-130593000I0J-100000D01*
G01*
X53584000Y-131868000D01*
G75*
G02*
X53484000Y-131968000I-100000J0D01*
G01*
G37*
%TD.AperFunction*%
%TO.P,U203,8*%
%TO.N,+1V8*%
%TA.AperFunction,SMDPad,CuDef*%
G36*
G01*
X53484000Y-126243000D02*
X53284000Y-126243000D01*
G75*
G02*
X53184000Y-126143000I0J100000D01*
G01*
X53184000Y-124868000D01*
G75*
G02*
X53284000Y-124768000I100000J0D01*
G01*
X53484000Y-124768000D01*
G75*
G02*
X53584000Y-124868000I0J-100000D01*
G01*
X53584000Y-126143000D01*
G75*
G02*
X53484000Y-126243000I-100000J0D01*
G01*
G37*
%TD.AperFunction*%
%TO.P,U203,9*%
%TO.N,Net-(U203-Pad9)*%
%TA.AperFunction,SMDPad,CuDef*%
G36*
G01*
X54134000Y-126243000D02*
X53934000Y-126243000D01*
G75*
G02*
X53834000Y-126143000I0J100000D01*
G01*
X53834000Y-124868000D01*
G75*
G02*
X53934000Y-124768000I100000J0D01*
G01*
X54134000Y-124768000D01*
G75*
G02*
X54234000Y-124868000I0J-100000D01*
G01*
X54234000Y-126143000D01*
G75*
G02*
X54134000Y-126243000I-100000J0D01*
G01*
G37*
%TD.AperFunction*%
%TO.P,U203,10*%
%TO.N,Net-(J203-Pad8)*%
%TA.AperFunction,SMDPad,CuDef*%
G36*
G01*
X54784000Y-126243000D02*
X54584000Y-126243000D01*
G75*
G02*
X54484000Y-126143000I0J100000D01*
G01*
X54484000Y-124868000D01*
G75*
G02*
X54584000Y-124768000I100000J0D01*
G01*
X54784000Y-124768000D01*
G75*
G02*
X54884000Y-124868000I0J-100000D01*
G01*
X54884000Y-126143000D01*
G75*
G02*
X54784000Y-126243000I-100000J0D01*
G01*
G37*
%TD.AperFunction*%
%TO.P,U203,11*%
%TO.N,Net-(J203-Pad5)*%
%TA.AperFunction,SMDPad,CuDef*%
G36*
G01*
X55434000Y-126243000D02*
X55234000Y-126243000D01*
G75*
G02*
X55134000Y-126143000I0J100000D01*
G01*
X55134000Y-124868000D01*
G75*
G02*
X55234000Y-124768000I100000J0D01*
G01*
X55434000Y-124768000D01*
G75*
G02*
X55534000Y-124868000I0J-100000D01*
G01*
X55534000Y-126143000D01*
G75*
G02*
X55434000Y-126243000I-100000J0D01*
G01*
G37*
%TD.AperFunction*%
%TO.P,U203,12*%
%TO.N,Net-(J203-Pad3)*%
%TA.AperFunction,SMDPad,CuDef*%
G36*
G01*
X56084000Y-126243000D02*
X55884000Y-126243000D01*
G75*
G02*
X55784000Y-126143000I0J100000D01*
G01*
X55784000Y-124868000D01*
G75*
G02*
X55884000Y-124768000I100000J0D01*
G01*
X56084000Y-124768000D01*
G75*
G02*
X56184000Y-124868000I0J-100000D01*
G01*
X56184000Y-126143000D01*
G75*
G02*
X56084000Y-126243000I-100000J0D01*
G01*
G37*
%TD.AperFunction*%
%TO.P,U203,13*%
%TO.N,Net-(J203-Pad2)*%
%TA.AperFunction,SMDPad,CuDef*%
G36*
G01*
X56734000Y-126243000D02*
X56534000Y-126243000D01*
G75*
G02*
X56434000Y-126143000I0J100000D01*
G01*
X56434000Y-124868000D01*
G75*
G02*
X56534000Y-124768000I100000J0D01*
G01*
X56734000Y-124768000D01*
G75*
G02*
X56834000Y-124868000I0J-100000D01*
G01*
X56834000Y-126143000D01*
G75*
G02*
X56734000Y-126243000I-100000J0D01*
G01*
G37*
%TD.AperFunction*%
%TO.P,U203,14*%
%TO.N,+3V3*%
%TA.AperFunction,SMDPad,CuDef*%
G36*
G01*
X57384000Y-126243000D02*
X57184000Y-126243000D01*
G75*
G02*
X57084000Y-126143000I0J100000D01*
G01*
X57084000Y-124868000D01*
G75*
G02*
X57184000Y-124768000I100000J0D01*
G01*
X57384000Y-124768000D01*
G75*
G02*
X57484000Y-124868000I0J-100000D01*
G01*
X57484000Y-126143000D01*
G75*
G02*
X57384000Y-126243000I-100000J0D01*
G01*
G37*
%TD.AperFunction*%
%TD*%
D19*
%TO.P,U401,1*%
%TO.N,Net-(C407-Pad1)*%
X83467000Y-133110000D03*
%TO.P,U401,2*%
%TO.N,GND*%
X84417000Y-133110000D03*
%TO.P,U401,3*%
X85367000Y-133110000D03*
%TO.P,U401,4*%
%TO.N,+1V8*%
X85367000Y-135310000D03*
%TO.P,U401,6*%
X83467000Y-135310000D03*
%TO.P,U401,5*%
%TO.N,GND*%
X84417000Y-135310000D03*
%TD*%
D20*
%TO.P,U402,21*%
%TO.N,Net-(C405-Pad1)*%
X79500000Y-121350000D03*
%TO.P,U402,20*%
%TO.N,Net-(C405-Pad2)*%
X78992000Y-121350000D03*
%TO.P,U402,19*%
%TO.N,Net-(C403-Pad2)*%
X78484000Y-121350000D03*
%TO.P,U402,18*%
%TO.N,GND*%
X77976000Y-121350000D03*
%TO.P,U402,17*%
X77468000Y-121350000D03*
%TO.P,U402,16*%
X76960000Y-121350000D03*
%TO.P,U402,15*%
%TO.N,+3V3*%
X76452000Y-121350000D03*
%TO.P,U402,14*%
%TO.N,Net-(C413-Pad1)*%
X75944000Y-121350000D03*
%TO.P,U402,1*%
%TO.N,Net-(U402-Pad1)*%
X79500000Y-123650000D03*
%TO.P,U402,2*%
%TO.N,Net-(U402-Pad2)*%
X78992000Y-123650000D03*
%TO.P,U402,3*%
%TO.N,Net-(U402-Pad3)*%
X78484000Y-123650000D03*
%TO.P,U402,4*%
%TO.N,Net-(U402-Pad4)*%
X77976000Y-123650000D03*
%TO.P,U402,5*%
%TO.N,Net-(U402-Pad5)*%
X77468000Y-123650000D03*
%TO.P,U402,6*%
%TO.N,Net-(U402-Pad6)*%
X76960000Y-123650000D03*
%TO.P,U402,7*%
%TO.N,HEART_INT*%
X76452000Y-123650000D03*
%TO.P,U402,8*%
%TO.N,I2C_SDA*%
X75944000Y-123650000D03*
D21*
%TO.P,U402,22*%
%TO.N,Net-(U402-Pad22)*%
X79500000Y-122500000D03*
D20*
%TO.P,U402,9*%
%TO.N,I2C_SCL*%
X75436000Y-123650000D03*
%TO.P,U402,13*%
%TO.N,+1V8*%
X75436000Y-121350000D03*
%TO.P,U402,10*%
%TO.N,Net-(U402-Pad10)*%
X74500000Y-123650000D03*
%TO.P,U402,12*%
%TO.N,Net-(U402-Pad12)*%
X74500000Y-121350000D03*
D21*
%TO.P,U402,11*%
%TO.N,Net-(U402-Pad11)*%
X74500000Y-122500000D03*
%TD*%
D22*
%TO.P,U403,1*%
%TO.N,Net-(C407-Pad1)*%
X85397000Y-129722000D03*
%TO.P,U403,2*%
%TO.N,GND*%
X84747000Y-129722000D03*
%TO.P,U403,3*%
%TO.N,Net-(C407-Pad1)*%
X84087000Y-129722000D03*
%TO.P,U403,4*%
%TO.N,IR_TEMP*%
X83437000Y-129722000D03*
%TO.P,U403,5*%
%TO.N,Net-(C411-Pad1)*%
X83437000Y-127522000D03*
%TO.P,U403,6*%
%TO.N,Net-(C411-Pad2)*%
X84087000Y-127522000D03*
%TO.P,U403,7*%
%TO.N,+1V8*%
X84747000Y-127522000D03*
%TO.P,U403,8*%
%TO.N,Net-(U403-Pad8)*%
X85397000Y-127522000D03*
%TD*%
%TA.AperFunction,SMDPad,CuDef*%
D23*
%TO.P,U406,1*%
%TO.N,Net-(U406-Pad1)*%
G36*
X67283769Y-135899196D02*
G01*
X67286045Y-135891693D01*
X67289741Y-135884777D01*
X67294716Y-135878716D01*
X67300777Y-135873741D01*
X67307693Y-135870045D01*
X67315196Y-135867769D01*
X67323000Y-135867000D01*
X67346431Y-135867000D01*
X67354235Y-135867769D01*
X67361738Y-135870045D01*
X67368654Y-135873741D01*
X67374715Y-135878716D01*
X67471284Y-135975285D01*
X67476259Y-135981346D01*
X67479955Y-135988262D01*
X67482231Y-135995765D01*
X67483000Y-136003569D01*
X67483000Y-136577000D01*
X67482231Y-136584804D01*
X67479955Y-136592307D01*
X67476259Y-136599223D01*
X67471284Y-136605284D01*
X67465223Y-136610259D01*
X67458307Y-136613955D01*
X67450804Y-136616231D01*
X67443000Y-136617000D01*
X67323000Y-136617000D01*
X67315196Y-136616231D01*
X67307693Y-136613955D01*
X67300777Y-136610259D01*
X67294716Y-136605284D01*
X67289741Y-136599223D01*
X67286045Y-136592307D01*
X67283769Y-136584804D01*
X67283000Y-136577000D01*
X67283000Y-135907000D01*
X67283769Y-135899196D01*
G37*
%TD.AperFunction*%
%TO.P,U406,2*%
%TO.N,Net-(U406-Pad2)*%
%TA.AperFunction,SMDPad,CuDef*%
G36*
G01*
X67033000Y-136617000D02*
X66933000Y-136617000D01*
G75*
G02*
X66883000Y-136567000I0J50000D01*
G01*
X66883000Y-135917000D01*
G75*
G02*
X66933000Y-135867000I50000J0D01*
G01*
X67033000Y-135867000D01*
G75*
G02*
X67083000Y-135917000I0J-50000D01*
G01*
X67083000Y-136567000D01*
G75*
G02*
X67033000Y-136617000I-50000J0D01*
G01*
G37*
%TD.AperFunction*%
%TO.P,U406,3*%
%TO.N,Net-(U406-Pad3)*%
%TA.AperFunction,SMDPad,CuDef*%
G36*
G01*
X66633000Y-136617000D02*
X66533000Y-136617000D01*
G75*
G02*
X66483000Y-136567000I0J50000D01*
G01*
X66483000Y-135917000D01*
G75*
G02*
X66533000Y-135867000I50000J0D01*
G01*
X66633000Y-135867000D01*
G75*
G02*
X66683000Y-135917000I0J-50000D01*
G01*
X66683000Y-136567000D01*
G75*
G02*
X66633000Y-136617000I-50000J0D01*
G01*
G37*
%TD.AperFunction*%
%TO.P,U406,4*%
%TO.N,Net-(U406-Pad4)*%
%TA.AperFunction,SMDPad,CuDef*%
G36*
G01*
X66233000Y-136617000D02*
X66133000Y-136617000D01*
G75*
G02*
X66083000Y-136567000I0J50000D01*
G01*
X66083000Y-135917000D01*
G75*
G02*
X66133000Y-135867000I50000J0D01*
G01*
X66233000Y-135867000D01*
G75*
G02*
X66283000Y-135917000I0J-50000D01*
G01*
X66283000Y-136567000D01*
G75*
G02*
X66233000Y-136617000I-50000J0D01*
G01*
G37*
%TD.AperFunction*%
%TO.P,U406,5*%
%TO.N,Net-(U406-Pad5)*%
%TA.AperFunction,SMDPad,CuDef*%
G36*
G01*
X65833000Y-136617000D02*
X65733000Y-136617000D01*
G75*
G02*
X65683000Y-136567000I0J50000D01*
G01*
X65683000Y-135917000D01*
G75*
G02*
X65733000Y-135867000I50000J0D01*
G01*
X65833000Y-135867000D01*
G75*
G02*
X65883000Y-135917000I0J-50000D01*
G01*
X65883000Y-136567000D01*
G75*
G02*
X65833000Y-136617000I-50000J0D01*
G01*
G37*
%TD.AperFunction*%
%TA.AperFunction,SMDPad,CuDef*%
%TO.P,U406,6*%
%TO.N,Net-(U406-Pad6)*%
G36*
X65283769Y-135995765D02*
G01*
X65286045Y-135988262D01*
X65289741Y-135981346D01*
X65294716Y-135975285D01*
X65391285Y-135878716D01*
X65397346Y-135873741D01*
X65404262Y-135870045D01*
X65411765Y-135867769D01*
X65419569Y-135867000D01*
X65443000Y-135867000D01*
X65450804Y-135867769D01*
X65458307Y-135870045D01*
X65465223Y-135873741D01*
X65471284Y-135878716D01*
X65476259Y-135884777D01*
X65479955Y-135891693D01*
X65482231Y-135899196D01*
X65483000Y-135907000D01*
X65483000Y-136577000D01*
X65482231Y-136584804D01*
X65479955Y-136592307D01*
X65476259Y-136599223D01*
X65471284Y-136605284D01*
X65465223Y-136610259D01*
X65458307Y-136613955D01*
X65450804Y-136616231D01*
X65443000Y-136617000D01*
X65323000Y-136617000D01*
X65315196Y-136616231D01*
X65307693Y-136613955D01*
X65300777Y-136610259D01*
X65294716Y-136605284D01*
X65289741Y-136599223D01*
X65286045Y-136592307D01*
X65283769Y-136584804D01*
X65283000Y-136577000D01*
X65283000Y-136003569D01*
X65283769Y-135995765D01*
G37*
%TD.AperFunction*%
%TA.AperFunction,SMDPad,CuDef*%
%TO.P,U406,7*%
%TO.N,Net-(U406-Pad7)*%
G36*
X64508769Y-135674196D02*
G01*
X64511045Y-135666693D01*
X64514741Y-135659777D01*
X64519716Y-135653716D01*
X64525777Y-135648741D01*
X64532693Y-135645045D01*
X64540196Y-135642769D01*
X64548000Y-135642000D01*
X65218000Y-135642000D01*
X65225804Y-135642769D01*
X65233307Y-135645045D01*
X65240223Y-135648741D01*
X65246284Y-135653716D01*
X65251259Y-135659777D01*
X65254955Y-135666693D01*
X65257231Y-135674196D01*
X65258000Y-135682000D01*
X65258000Y-135705431D01*
X65257231Y-135713235D01*
X65254955Y-135720738D01*
X65251259Y-135727654D01*
X65246284Y-135733715D01*
X65149715Y-135830284D01*
X65143654Y-135835259D01*
X65136738Y-135838955D01*
X65129235Y-135841231D01*
X65121431Y-135842000D01*
X64548000Y-135842000D01*
X64540196Y-135841231D01*
X64532693Y-135838955D01*
X64525777Y-135835259D01*
X64519716Y-135830284D01*
X64514741Y-135824223D01*
X64511045Y-135817307D01*
X64508769Y-135809804D01*
X64508000Y-135802000D01*
X64508000Y-135682000D01*
X64508769Y-135674196D01*
G37*
%TD.AperFunction*%
%TO.P,U406,8*%
%TO.N,+1V8*%
%TA.AperFunction,SMDPad,CuDef*%
G36*
G01*
X65208000Y-135442000D02*
X64558000Y-135442000D01*
G75*
G02*
X64508000Y-135392000I0J50000D01*
G01*
X64508000Y-135292000D01*
G75*
G02*
X64558000Y-135242000I50000J0D01*
G01*
X65208000Y-135242000D01*
G75*
G02*
X65258000Y-135292000I0J-50000D01*
G01*
X65258000Y-135392000D01*
G75*
G02*
X65208000Y-135442000I-50000J0D01*
G01*
G37*
%TD.AperFunction*%
%TO.P,U406,9*%
%TO.N,IMU_MISO*%
%TA.AperFunction,SMDPad,CuDef*%
G36*
G01*
X65208000Y-135042000D02*
X64558000Y-135042000D01*
G75*
G02*
X64508000Y-134992000I0J50000D01*
G01*
X64508000Y-134892000D01*
G75*
G02*
X64558000Y-134842000I50000J0D01*
G01*
X65208000Y-134842000D01*
G75*
G02*
X65258000Y-134892000I0J-50000D01*
G01*
X65258000Y-134992000D01*
G75*
G02*
X65208000Y-135042000I-50000J0D01*
G01*
G37*
%TD.AperFunction*%
%TO.P,U406,10*%
%TO.N,Net-(C421-Pad2)*%
%TA.AperFunction,SMDPad,CuDef*%
G36*
G01*
X65208000Y-134642000D02*
X64558000Y-134642000D01*
G75*
G02*
X64508000Y-134592000I0J50000D01*
G01*
X64508000Y-134492000D01*
G75*
G02*
X64558000Y-134442000I50000J0D01*
G01*
X65208000Y-134442000D01*
G75*
G02*
X65258000Y-134492000I0J-50000D01*
G01*
X65258000Y-134592000D01*
G75*
G02*
X65208000Y-134642000I-50000J0D01*
G01*
G37*
%TD.AperFunction*%
%TO.P,U406,11*%
%TO.N,GND*%
%TA.AperFunction,SMDPad,CuDef*%
G36*
G01*
X65208000Y-134242000D02*
X64558000Y-134242000D01*
G75*
G02*
X64508000Y-134192000I0J50000D01*
G01*
X64508000Y-134092000D01*
G75*
G02*
X64558000Y-134042000I50000J0D01*
G01*
X65208000Y-134042000D01*
G75*
G02*
X65258000Y-134092000I0J-50000D01*
G01*
X65258000Y-134192000D01*
G75*
G02*
X65208000Y-134242000I-50000J0D01*
G01*
G37*
%TD.AperFunction*%
%TA.AperFunction,SMDPad,CuDef*%
%TO.P,U406,12*%
%TO.N,IMU_INT*%
G36*
X64508769Y-133674196D02*
G01*
X64511045Y-133666693D01*
X64514741Y-133659777D01*
X64519716Y-133653716D01*
X64525777Y-133648741D01*
X64532693Y-133645045D01*
X64540196Y-133642769D01*
X64548000Y-133642000D01*
X65121431Y-133642000D01*
X65129235Y-133642769D01*
X65136738Y-133645045D01*
X65143654Y-133648741D01*
X65149715Y-133653716D01*
X65246284Y-133750285D01*
X65251259Y-133756346D01*
X65254955Y-133763262D01*
X65257231Y-133770765D01*
X65258000Y-133778569D01*
X65258000Y-133802000D01*
X65257231Y-133809804D01*
X65254955Y-133817307D01*
X65251259Y-133824223D01*
X65246284Y-133830284D01*
X65240223Y-133835259D01*
X65233307Y-133838955D01*
X65225804Y-133841231D01*
X65218000Y-133842000D01*
X64548000Y-133842000D01*
X64540196Y-133841231D01*
X64532693Y-133838955D01*
X64525777Y-133835259D01*
X64519716Y-133830284D01*
X64514741Y-133824223D01*
X64511045Y-133817307D01*
X64508769Y-133809804D01*
X64508000Y-133802000D01*
X64508000Y-133682000D01*
X64508769Y-133674196D01*
G37*
%TD.AperFunction*%
%TA.AperFunction,SMDPad,CuDef*%
%TO.P,U406,13*%
%TO.N,+1V8*%
G36*
X65283769Y-132899196D02*
G01*
X65286045Y-132891693D01*
X65289741Y-132884777D01*
X65294716Y-132878716D01*
X65300777Y-132873741D01*
X65307693Y-132870045D01*
X65315196Y-132867769D01*
X65323000Y-132867000D01*
X65443000Y-132867000D01*
X65450804Y-132867769D01*
X65458307Y-132870045D01*
X65465223Y-132873741D01*
X65471284Y-132878716D01*
X65476259Y-132884777D01*
X65479955Y-132891693D01*
X65482231Y-132899196D01*
X65483000Y-132907000D01*
X65483000Y-133577000D01*
X65482231Y-133584804D01*
X65479955Y-133592307D01*
X65476259Y-133599223D01*
X65471284Y-133605284D01*
X65465223Y-133610259D01*
X65458307Y-133613955D01*
X65450804Y-133616231D01*
X65443000Y-133617000D01*
X65419569Y-133617000D01*
X65411765Y-133616231D01*
X65404262Y-133613955D01*
X65397346Y-133610259D01*
X65391285Y-133605284D01*
X65294716Y-133508715D01*
X65289741Y-133502654D01*
X65286045Y-133495738D01*
X65283769Y-133488235D01*
X65283000Y-133480431D01*
X65283000Y-132907000D01*
X65283769Y-132899196D01*
G37*
%TD.AperFunction*%
%TO.P,U406,14*%
%TO.N,Net-(U406-Pad14)*%
%TA.AperFunction,SMDPad,CuDef*%
G36*
G01*
X65833000Y-133617000D02*
X65733000Y-133617000D01*
G75*
G02*
X65683000Y-133567000I0J50000D01*
G01*
X65683000Y-132917000D01*
G75*
G02*
X65733000Y-132867000I50000J0D01*
G01*
X65833000Y-132867000D01*
G75*
G02*
X65883000Y-132917000I0J-50000D01*
G01*
X65883000Y-133567000D01*
G75*
G02*
X65833000Y-133617000I-50000J0D01*
G01*
G37*
%TD.AperFunction*%
%TO.P,U406,15*%
%TO.N,Net-(U406-Pad15)*%
%TA.AperFunction,SMDPad,CuDef*%
G36*
G01*
X66233000Y-133617000D02*
X66133000Y-133617000D01*
G75*
G02*
X66083000Y-133567000I0J50000D01*
G01*
X66083000Y-132917000D01*
G75*
G02*
X66133000Y-132867000I50000J0D01*
G01*
X66233000Y-132867000D01*
G75*
G02*
X66283000Y-132917000I0J-50000D01*
G01*
X66283000Y-133567000D01*
G75*
G02*
X66233000Y-133617000I-50000J0D01*
G01*
G37*
%TD.AperFunction*%
%TO.P,U406,16*%
%TO.N,Net-(U406-Pad16)*%
%TA.AperFunction,SMDPad,CuDef*%
G36*
G01*
X66633000Y-133617000D02*
X66533000Y-133617000D01*
G75*
G02*
X66483000Y-133567000I0J50000D01*
G01*
X66483000Y-132917000D01*
G75*
G02*
X66533000Y-132867000I50000J0D01*
G01*
X66633000Y-132867000D01*
G75*
G02*
X66683000Y-132917000I0J-50000D01*
G01*
X66683000Y-133567000D01*
G75*
G02*
X66633000Y-133617000I-50000J0D01*
G01*
G37*
%TD.AperFunction*%
%TO.P,U406,17*%
%TO.N,Net-(U406-Pad17)*%
%TA.AperFunction,SMDPad,CuDef*%
G36*
G01*
X67033000Y-133617000D02*
X66933000Y-133617000D01*
G75*
G02*
X66883000Y-133567000I0J50000D01*
G01*
X66883000Y-132917000D01*
G75*
G02*
X66933000Y-132867000I50000J0D01*
G01*
X67033000Y-132867000D01*
G75*
G02*
X67083000Y-132917000I0J-50000D01*
G01*
X67083000Y-133567000D01*
G75*
G02*
X67033000Y-133617000I-50000J0D01*
G01*
G37*
%TD.AperFunction*%
%TA.AperFunction,SMDPad,CuDef*%
%TO.P,U406,18*%
%TO.N,GND*%
G36*
X67283769Y-132899196D02*
G01*
X67286045Y-132891693D01*
X67289741Y-132884777D01*
X67294716Y-132878716D01*
X67300777Y-132873741D01*
X67307693Y-132870045D01*
X67315196Y-132867769D01*
X67323000Y-132867000D01*
X67443000Y-132867000D01*
X67450804Y-132867769D01*
X67458307Y-132870045D01*
X67465223Y-132873741D01*
X67471284Y-132878716D01*
X67476259Y-132884777D01*
X67479955Y-132891693D01*
X67482231Y-132899196D01*
X67483000Y-132907000D01*
X67483000Y-133480431D01*
X67482231Y-133488235D01*
X67479955Y-133495738D01*
X67476259Y-133502654D01*
X67471284Y-133508715D01*
X67374715Y-133605284D01*
X67368654Y-133610259D01*
X67361738Y-133613955D01*
X67354235Y-133616231D01*
X67346431Y-133617000D01*
X67323000Y-133617000D01*
X67315196Y-133616231D01*
X67307693Y-133613955D01*
X67300777Y-133610259D01*
X67294716Y-133605284D01*
X67289741Y-133599223D01*
X67286045Y-133592307D01*
X67283769Y-133584804D01*
X67283000Y-133577000D01*
X67283000Y-132907000D01*
X67283769Y-132899196D01*
G37*
%TD.AperFunction*%
%TA.AperFunction,SMDPad,CuDef*%
%TO.P,U406,19*%
%TO.N,Net-(U406-Pad19)*%
G36*
X67508769Y-133770765D02*
G01*
X67511045Y-133763262D01*
X67514741Y-133756346D01*
X67519716Y-133750285D01*
X67616285Y-133653716D01*
X67622346Y-133648741D01*
X67629262Y-133645045D01*
X67636765Y-133642769D01*
X67644569Y-133642000D01*
X68218000Y-133642000D01*
X68225804Y-133642769D01*
X68233307Y-133645045D01*
X68240223Y-133648741D01*
X68246284Y-133653716D01*
X68251259Y-133659777D01*
X68254955Y-133666693D01*
X68257231Y-133674196D01*
X68258000Y-133682000D01*
X68258000Y-133802000D01*
X68257231Y-133809804D01*
X68254955Y-133817307D01*
X68251259Y-133824223D01*
X68246284Y-133830284D01*
X68240223Y-133835259D01*
X68233307Y-133838955D01*
X68225804Y-133841231D01*
X68218000Y-133842000D01*
X67548000Y-133842000D01*
X67540196Y-133841231D01*
X67532693Y-133838955D01*
X67525777Y-133835259D01*
X67519716Y-133830284D01*
X67514741Y-133824223D01*
X67511045Y-133817307D01*
X67508769Y-133809804D01*
X67508000Y-133802000D01*
X67508000Y-133778569D01*
X67508769Y-133770765D01*
G37*
%TD.AperFunction*%
%TO.P,U406,20*%
%TO.N,GND*%
%TA.AperFunction,SMDPad,CuDef*%
G36*
G01*
X68208000Y-134242000D02*
X67558000Y-134242000D01*
G75*
G02*
X67508000Y-134192000I0J50000D01*
G01*
X67508000Y-134092000D01*
G75*
G02*
X67558000Y-134042000I50000J0D01*
G01*
X68208000Y-134042000D01*
G75*
G02*
X68258000Y-134092000I0J-50000D01*
G01*
X68258000Y-134192000D01*
G75*
G02*
X68208000Y-134242000I-50000J0D01*
G01*
G37*
%TD.AperFunction*%
%TO.P,U406,21*%
%TO.N,Net-(U406-Pad21)*%
%TA.AperFunction,SMDPad,CuDef*%
G36*
G01*
X68208000Y-134642000D02*
X67558000Y-134642000D01*
G75*
G02*
X67508000Y-134592000I0J50000D01*
G01*
X67508000Y-134492000D01*
G75*
G02*
X67558000Y-134442000I50000J0D01*
G01*
X68208000Y-134442000D01*
G75*
G02*
X68258000Y-134492000I0J-50000D01*
G01*
X68258000Y-134592000D01*
G75*
G02*
X68208000Y-134642000I-50000J0D01*
G01*
G37*
%TD.AperFunction*%
%TO.P,U406,22*%
%TO.N,IMU_CS*%
%TA.AperFunction,SMDPad,CuDef*%
G36*
G01*
X68208000Y-135042000D02*
X67558000Y-135042000D01*
G75*
G02*
X67508000Y-134992000I0J50000D01*
G01*
X67508000Y-134892000D01*
G75*
G02*
X67558000Y-134842000I50000J0D01*
G01*
X68208000Y-134842000D01*
G75*
G02*
X68258000Y-134892000I0J-50000D01*
G01*
X68258000Y-134992000D01*
G75*
G02*
X68208000Y-135042000I-50000J0D01*
G01*
G37*
%TD.AperFunction*%
%TO.P,U406,23*%
%TO.N,IMU_SCK*%
%TA.AperFunction,SMDPad,CuDef*%
G36*
G01*
X68208000Y-135442000D02*
X67558000Y-135442000D01*
G75*
G02*
X67508000Y-135392000I0J50000D01*
G01*
X67508000Y-135292000D01*
G75*
G02*
X67558000Y-135242000I50000J0D01*
G01*
X68208000Y-135242000D01*
G75*
G02*
X68258000Y-135292000I0J-50000D01*
G01*
X68258000Y-135392000D01*
G75*
G02*
X68208000Y-135442000I-50000J0D01*
G01*
G37*
%TD.AperFunction*%
%TA.AperFunction,SMDPad,CuDef*%
%TO.P,U406,24*%
%TO.N,IMU_MOSI*%
G36*
X67508769Y-135674196D02*
G01*
X67511045Y-135666693D01*
X67514741Y-135659777D01*
X67519716Y-135653716D01*
X67525777Y-135648741D01*
X67532693Y-135645045D01*
X67540196Y-135642769D01*
X67548000Y-135642000D01*
X68218000Y-135642000D01*
X68225804Y-135642769D01*
X68233307Y-135645045D01*
X68240223Y-135648741D01*
X68246284Y-135653716D01*
X68251259Y-135659777D01*
X68254955Y-135666693D01*
X68257231Y-135674196D01*
X68258000Y-135682000D01*
X68258000Y-135802000D01*
X68257231Y-135809804D01*
X68254955Y-135817307D01*
X68251259Y-135824223D01*
X68246284Y-135830284D01*
X68240223Y-135835259D01*
X68233307Y-135838955D01*
X68225804Y-135841231D01*
X68218000Y-135842000D01*
X67644569Y-135842000D01*
X67636765Y-135841231D01*
X67629262Y-135838955D01*
X67622346Y-135835259D01*
X67616285Y-135830284D01*
X67519716Y-135733715D01*
X67514741Y-135727654D01*
X67511045Y-135720738D01*
X67508769Y-135713235D01*
X67508000Y-135705431D01*
X67508000Y-135682000D01*
X67508769Y-135674196D01*
G37*
%TD.AperFunction*%
D24*
%TO.P,U406,25*%
%TO.N,N/C*%
X66383000Y-134742000D03*
%TD*%
D25*
%TO.P,J301,1*%
%TO.N,+BATT*%
X54500000Y-138000000D03*
D26*
%TO.P,J301,2*%
%TO.N,GND*%
X51960000Y-138000000D03*
%TD*%
%TO.P,C202,1*%
%TO.N,+1V8*%
%TA.AperFunction,SMDPad,CuDef*%
G36*
G01*
X51413500Y-124809000D02*
X51888500Y-124809000D01*
G75*
G02*
X52126000Y-125046500I0J-237500D01*
G01*
X52126000Y-125646500D01*
G75*
G02*
X51888500Y-125884000I-237500J0D01*
G01*
X51413500Y-125884000D01*
G75*
G02*
X51176000Y-125646500I0J237500D01*
G01*
X51176000Y-125046500D01*
G75*
G02*
X51413500Y-124809000I237500J0D01*
G01*
G37*
%TD.AperFunction*%
%TO.P,C202,2*%
%TO.N,GND*%
%TA.AperFunction,SMDPad,CuDef*%
G36*
G01*
X51413500Y-126534000D02*
X51888500Y-126534000D01*
G75*
G02*
X52126000Y-126771500I0J-237500D01*
G01*
X52126000Y-127371500D01*
G75*
G02*
X51888500Y-127609000I-237500J0D01*
G01*
X51413500Y-127609000D01*
G75*
G02*
X51176000Y-127371500I0J237500D01*
G01*
X51176000Y-126771500D01*
G75*
G02*
X51413500Y-126534000I237500J0D01*
G01*
G37*
%TD.AperFunction*%
%TD*%
%TO.P,C203,2*%
%TO.N,GND*%
%TA.AperFunction,SMDPad,CuDef*%
G36*
G01*
X51413500Y-130852000D02*
X51888500Y-130852000D01*
G75*
G02*
X52126000Y-131089500I0J-237500D01*
G01*
X52126000Y-131689500D01*
G75*
G02*
X51888500Y-131927000I-237500J0D01*
G01*
X51413500Y-131927000D01*
G75*
G02*
X51176000Y-131689500I0J237500D01*
G01*
X51176000Y-131089500D01*
G75*
G02*
X51413500Y-130852000I237500J0D01*
G01*
G37*
%TD.AperFunction*%
%TO.P,C203,1*%
%TO.N,+3V3*%
%TA.AperFunction,SMDPad,CuDef*%
G36*
G01*
X51413500Y-129127000D02*
X51888500Y-129127000D01*
G75*
G02*
X52126000Y-129364500I0J-237500D01*
G01*
X52126000Y-129964500D01*
G75*
G02*
X51888500Y-130202000I-237500J0D01*
G01*
X51413500Y-130202000D01*
G75*
G02*
X51176000Y-129964500I0J237500D01*
G01*
X51176000Y-129364500D01*
G75*
G02*
X51413500Y-129127000I237500J0D01*
G01*
G37*
%TD.AperFunction*%
%TD*%
D27*
%TO.N,GND*%
X64508000Y-118011000D03*
X63373000Y-126611000D03*
X57366000Y-121637000D03*
X59372500Y-135755000D03*
X78166000Y-135607000D03*
X77594500Y-127051500D03*
X70509000Y-118900000D03*
X94323000Y-111731000D03*
X97625000Y-139036000D03*
X96228000Y-133956000D03*
X53429000Y-106651000D03*
X53429000Y-116811000D03*
X54699000Y-127860000D03*
X69304000Y-123288000D03*
X68669000Y-137893000D03*
X78321000Y-115414000D03*
X77778241Y-120330000D03*
X94450000Y-116684000D03*
X88608000Y-128876000D03*
X73241000Y-126463000D03*
X100800000Y-128114000D03*
X90640000Y-124658501D03*
X92799000Y-130019000D03*
X92672000Y-136496000D03*
X67145000Y-127987000D03*
X72225000Y-109953000D03*
X85179000Y-109953000D03*
X97498000Y-122526000D03*
%TO.N,+1V8*%
X90259000Y-132432000D03*
X101054000Y-133956000D03*
X91402000Y-133956000D03*
X53175000Y-112747000D03*
X63970000Y-137893000D03*
X73749000Y-119986000D03*
X90252503Y-120335495D03*
X83528000Y-124685000D03*
X88227000Y-109953000D03*
X70320000Y-135734000D03*
X64744316Y-130513011D03*
%TO.N,Net-(C301-Pad2)*%
X58991500Y-130992500D03*
X60960000Y-135755000D03*
%TO.N,+5V*%
X85687000Y-116557000D03*
X67780000Y-118843000D03*
%TO.N,Net-(C304-Pad1)*%
X72509000Y-114963000D03*
X68542000Y-115541000D03*
%TO.N,VBAT_MEAS*%
X59906000Y-113382000D03*
X97498000Y-123669000D03*
%TO.N,POWER_SW*%
X99799997Y-128114000D03*
X101474000Y-123161000D03*
%TO.N,Net-(C309-Pad1)*%
X85558500Y-114963000D03*
X81651524Y-115456702D03*
%TO.N,Net-(C407-Pad1)*%
X86068000Y-128622000D03*
%TO.N,+3V3*%
X64478000Y-119986000D03*
X76543000Y-122526000D03*
X93942000Y-110588000D03*
X88427052Y-108525050D03*
%TO.N,Net-(D301-Pad2)*%
X52667000Y-133194000D03*
X99149000Y-134083000D03*
%TO.N,POWER_ON*%
X90640000Y-126717000D03*
%TO.N,VBUS*%
X90259000Y-118970000D03*
%TO.N,Net-(J202-Pad2)*%
X101474000Y-121868009D03*
%TO.N,Net-(J202-Pad4)*%
X100859073Y-116922996D03*
%TO.N,Net-(J202-Pad10)*%
X98514000Y-116684000D03*
%TO.N,I2C_SCL*%
X81115000Y-137124950D03*
%TO.N,I2C_SDA*%
X82131000Y-136369000D03*
%TO.N,UV_INT*%
X100165000Y-136369000D03*
%TO.N,HEART_INT*%
X79718000Y-135607000D03*
X97945432Y-134084485D03*
%TO.N,FAST_CHARGE*%
X90259000Y-117573000D03*
X97498000Y-121383000D03*
%TO.N,+BATT*%
X59055000Y-126611000D03*
%TO.N,Net-(U201-Pad4)*%
X91695000Y-116684000D03*
%TO.N,Net-(U201-Pad6)*%
X93429347Y-116049000D03*
%TO.N,IR_TEMP*%
X82766000Y-128622000D03*
X92037000Y-129003000D03*
%TO.N,AMB_TEMP*%
X91275000Y-122526000D03*
%TO.N,Net-(U403-Pad8)*%
X85306000Y-125701000D03*
%TO.N,LED_B*%
X101308000Y-115414000D03*
%TO.N,LED_G*%
X101308000Y-114382003D03*
%TO.N,LED_R*%
X101308000Y-113382000D03*
%TO.N,SD_DET*%
X93942000Y-115033000D03*
X61176000Y-113382000D03*
%TD*%
D28*
%TO.N,GND*%
X67383000Y-131680500D02*
X67245500Y-131543000D01*
X67383000Y-133242000D02*
X67383000Y-131680500D01*
X67883000Y-134142000D02*
X68610000Y-134142000D01*
X68610000Y-134142000D02*
X68796000Y-133956000D01*
X68796000Y-133956000D02*
X68796000Y-133321000D01*
X68796000Y-133321000D02*
X68669000Y-133194000D01*
X67431000Y-133194000D02*
X67383000Y-133242000D01*
X68669000Y-133194000D02*
X67431000Y-133194000D01*
D29*
X53225000Y-131389500D02*
X53384000Y-131230500D01*
X51651000Y-131389500D02*
X53225000Y-131389500D01*
X53910500Y-127071500D02*
X54699000Y-127860000D01*
X51651000Y-127071500D02*
X53910500Y-127071500D01*
X53384000Y-129175000D02*
X54699000Y-127860000D01*
X53384000Y-131230500D02*
X53384000Y-129175000D01*
D30*
X71649000Y-106651000D02*
X71675000Y-106625000D01*
X53405500Y-116834500D02*
X53429000Y-116811000D01*
X53405500Y-119732000D02*
X53405500Y-116834500D01*
X58175000Y-106731000D02*
X58255000Y-106651000D01*
X58175000Y-107075000D02*
X58175000Y-106731000D01*
X58255000Y-106651000D02*
X71649000Y-106651000D01*
X53429000Y-106651000D02*
X58255000Y-106651000D01*
X69325000Y-123267000D02*
X69304000Y-123288000D01*
X69325000Y-121725000D02*
X69325000Y-123267000D01*
D28*
X62859500Y-134142000D02*
X62573000Y-133855500D01*
X64883000Y-134142000D02*
X62859500Y-134142000D01*
D30*
X61272000Y-133855500D02*
X62573000Y-133855500D01*
X59372500Y-135755000D02*
X61272000Y-133855500D01*
X67245500Y-137893000D02*
X68669000Y-137893000D01*
X85367000Y-133110000D02*
X85984000Y-133110000D01*
X86221500Y-133347500D02*
X87211000Y-133347500D01*
X85984000Y-133110000D02*
X86221500Y-133347500D01*
X85367000Y-133110000D02*
X84417000Y-133110000D01*
X84417000Y-134210000D02*
X82485500Y-134210000D01*
X84417000Y-133110000D02*
X84417000Y-134210000D01*
X82485500Y-134210000D02*
X81623000Y-135072500D01*
X84417000Y-134210000D02*
X84417000Y-135310000D01*
X73749000Y-116964500D02*
X75273000Y-116964500D01*
X78321000Y-116964500D02*
X79845000Y-116964500D01*
X79845000Y-116964500D02*
X81369000Y-116964500D01*
D29*
X76960000Y-121350000D02*
X77468000Y-121350000D01*
X77468000Y-121350000D02*
X77976000Y-121350000D01*
D30*
X82893000Y-116964500D02*
X81369000Y-116964500D01*
D29*
X77468000Y-120640241D02*
X77778241Y-120330000D01*
X77468000Y-121350000D02*
X77468000Y-120640241D01*
D30*
X78321000Y-116964500D02*
X78321000Y-115414000D01*
X75977999Y-115598001D02*
X78136999Y-115598001D01*
X78136999Y-115598001D02*
X78321000Y-115414000D01*
X75273000Y-116303000D02*
X75977999Y-115598001D01*
X75273000Y-116964500D02*
X75273000Y-116303000D01*
X85279500Y-131416000D02*
X86449000Y-131416000D01*
X87084000Y-130781000D02*
X87084000Y-129484500D01*
X86449000Y-131416000D02*
X86766500Y-131098500D01*
X86766500Y-131098500D02*
X87084000Y-130781000D01*
D29*
X93049999Y-118084001D02*
X94450000Y-116684000D01*
X93049999Y-118100001D02*
X93049999Y-118084001D01*
D30*
X99650001Y-126899999D02*
X100750001Y-126899999D01*
X101850001Y-126899999D02*
X100750001Y-126899999D01*
X100750001Y-126032001D02*
X100717999Y-125999999D01*
X100750001Y-126899999D02*
X100750001Y-126032001D01*
X100717999Y-125999999D02*
X101300001Y-125999999D01*
X100200001Y-125999999D02*
X100717999Y-125999999D01*
X102324000Y-118589000D02*
X102324000Y-120376002D01*
X102324000Y-120376002D02*
X101850001Y-120850001D01*
X101850001Y-118115001D02*
X102324000Y-118589000D01*
X101850001Y-118100001D02*
X101850001Y-118115001D01*
X101850001Y-120850001D02*
X101918001Y-120850001D01*
X101918001Y-120850001D02*
X102324000Y-121256000D01*
X102324000Y-123676000D02*
X101850001Y-124149999D01*
X101850001Y-124149999D02*
X101915999Y-124149999D01*
X101915999Y-124149999D02*
X102324000Y-124558000D01*
X102324000Y-126426000D02*
X101850001Y-126899999D01*
X102324000Y-124558000D02*
X102324000Y-126426000D01*
X87999500Y-129484500D02*
X88608000Y-128876000D01*
X87084000Y-129484500D02*
X87999500Y-129484500D01*
D29*
X84747000Y-129722000D02*
X84747000Y-130387002D01*
X84747000Y-130387002D02*
X84936999Y-130577001D01*
X84936999Y-130577001D02*
X85052000Y-130577001D01*
X84936999Y-130577001D02*
X85102001Y-130577001D01*
X85279500Y-130754500D02*
X85279500Y-131416000D01*
X85102001Y-130577001D02*
X85279500Y-130754500D01*
D30*
X85367000Y-131503500D02*
X85279500Y-131416000D01*
X85367000Y-133110000D02*
X85367000Y-131503500D01*
X102324000Y-121256000D02*
X102324000Y-122399000D01*
X102324000Y-122399000D02*
X102324000Y-123161000D01*
X102324000Y-123161000D02*
X102324000Y-123676000D01*
X100750001Y-128064001D02*
X100800000Y-128114000D01*
X100750001Y-126899999D02*
X100750001Y-128064001D01*
D29*
X93949998Y-126000000D02*
X93949998Y-125250000D01*
X93049999Y-126899999D02*
X93949998Y-126000000D01*
X93049998Y-118100002D02*
X93049999Y-118100001D01*
X93049998Y-119200000D02*
X93049998Y-118100002D01*
D30*
X90640000Y-123769500D02*
X90259000Y-123388500D01*
X90640000Y-124658501D02*
X90640000Y-123769500D01*
D29*
X95630002Y-124520998D02*
X98043002Y-124520998D01*
X94901000Y-125250000D02*
X95630002Y-124520998D01*
X98043002Y-124520998D02*
X98387000Y-124177000D01*
X93949998Y-125250000D02*
X94901000Y-125250000D01*
D30*
X67245500Y-128087500D02*
X67145000Y-127987000D01*
X67245500Y-131543000D02*
X67245500Y-128087500D01*
X72225000Y-109953000D02*
X71717000Y-109445000D01*
X71717000Y-106667000D02*
X71675000Y-106625000D01*
X71717000Y-109445000D02*
X71717000Y-106667000D01*
D29*
X98387000Y-124177000D02*
X98387000Y-122907000D01*
X98006000Y-122526000D02*
X97498000Y-122526000D01*
X98387000Y-122907000D02*
X98006000Y-122526000D01*
X94849998Y-121399999D02*
X94849998Y-121401998D01*
X95974000Y-122526000D02*
X97498000Y-122526000D01*
X94849998Y-121401998D02*
X95974000Y-122526000D01*
D30*
X53429000Y-116811000D02*
X55911000Y-116811000D01*
X56125000Y-117025000D02*
X58175000Y-117025000D01*
X55911000Y-116811000D02*
X56125000Y-117025000D01*
X58175000Y-117025000D02*
X60025000Y-117025000D01*
X62275000Y-119275000D02*
X62275000Y-121325000D01*
X60025000Y-117025000D02*
X62275000Y-119275000D01*
D28*
%TO.N,+1V8*%
X65383000Y-131680500D02*
X65520500Y-131543000D01*
X65383000Y-133242000D02*
X65383000Y-131680500D01*
X64883000Y-135342000D02*
X64000010Y-135342000D01*
X64000010Y-135342000D02*
X63862010Y-135480000D01*
X63862010Y-136234510D02*
X65520500Y-137893000D01*
X63862010Y-135480000D02*
X63862010Y-136234510D01*
D29*
X53225000Y-125346500D02*
X53384000Y-125505500D01*
X51651000Y-125346500D02*
X53225000Y-125346500D01*
X51406580Y-125346500D02*
X51651000Y-125346500D01*
X50735500Y-125346500D02*
X51651000Y-125346500D01*
X50400981Y-125681019D02*
X50735500Y-125346500D01*
X50400980Y-131472490D02*
X50400981Y-125681019D01*
X51221500Y-132293010D02*
X50400980Y-131472490D01*
X56958990Y-132293010D02*
X51221500Y-132293010D01*
X57284000Y-131968000D02*
X56958990Y-132293010D01*
X57284000Y-131230500D02*
X57284000Y-131968000D01*
D30*
X51651000Y-112370000D02*
X51651000Y-117192000D01*
X51651000Y-117192000D02*
X51651000Y-116766998D01*
X51651000Y-125346500D02*
X51651000Y-117192000D01*
X53175000Y-112747000D02*
X52224500Y-111796500D01*
X52224500Y-111796500D02*
X51651000Y-112370000D01*
X52796000Y-111225000D02*
X52224500Y-111796500D01*
X65520500Y-131543000D02*
X65494000Y-131543000D01*
X65520500Y-137893000D02*
X63970000Y-137893000D01*
X85367000Y-135310000D02*
X85984000Y-135310000D01*
X86221500Y-135072500D02*
X87211000Y-135072500D01*
X85984000Y-135310000D02*
X86221500Y-135072500D01*
X73749000Y-118689500D02*
X75273000Y-118689500D01*
X76797000Y-117165500D02*
X76797000Y-116914500D01*
X75273000Y-118689500D02*
X76797000Y-117165500D01*
D29*
X75309000Y-118725500D02*
X75273000Y-118689500D01*
X75436000Y-118852500D02*
X75273000Y-118689500D01*
X75436000Y-121350000D02*
X75436000Y-118852500D01*
X92149998Y-121950001D02*
X92096001Y-121950001D01*
X91863497Y-121663500D02*
X92149998Y-121950001D01*
X90259000Y-120341992D02*
X90252503Y-120335495D01*
X90259000Y-121663500D02*
X90259000Y-120341992D01*
D30*
X85548002Y-124685000D02*
X83528000Y-124685000D01*
X87084000Y-126220998D02*
X85548002Y-124685000D01*
X87084000Y-127759500D02*
X87084000Y-126220998D01*
D29*
X84747000Y-127522000D02*
X84747000Y-126412000D01*
X83528000Y-125193000D02*
X83528000Y-124685000D01*
X84747000Y-126412000D02*
X83528000Y-125193000D01*
X81265500Y-124685000D02*
X80503500Y-125447000D01*
X83528000Y-124685000D02*
X81265500Y-124685000D01*
D30*
X90285500Y-135072500D02*
X91402000Y-133956000D01*
X87211000Y-135072500D02*
X90285500Y-135072500D01*
D31*
X93049998Y-125800000D02*
X91687996Y-125800000D01*
D29*
X91301500Y-121663500D02*
X91863497Y-121663500D01*
X90259000Y-121663500D02*
X91301500Y-121663500D01*
D30*
X87314500Y-114652000D02*
X87314500Y-111731000D01*
X87314500Y-110865500D02*
X88227000Y-109953000D01*
X87314500Y-111731000D02*
X87314500Y-110865500D01*
X85367000Y-136025002D02*
X85367000Y-135310000D01*
X85102001Y-136290001D02*
X85367000Y-136025002D01*
X83731999Y-136290001D02*
X85102001Y-136290001D01*
X83467000Y-136025002D02*
X83731999Y-136290001D01*
X83467000Y-135310000D02*
X83467000Y-136025002D01*
X73749000Y-118689500D02*
X73749000Y-119986000D01*
D29*
X89469000Y-125800000D02*
X89127020Y-125458020D01*
X91687996Y-125800000D02*
X89469000Y-125800000D01*
X89127020Y-125458020D02*
X89127020Y-121879980D01*
X89343500Y-121663500D02*
X90259000Y-121663500D01*
X89127020Y-121879980D02*
X89343500Y-121663500D01*
D30*
X65520500Y-131289195D02*
X64744316Y-130513011D01*
X65520500Y-131543000D02*
X65520500Y-131289195D01*
X53196000Y-110825000D02*
X52796000Y-111225000D01*
X58175000Y-110825000D02*
X53196000Y-110825000D01*
D29*
%TO.N,VBAT_MEAS*%
X95210590Y-124304000D02*
X95443602Y-124070988D01*
X94607998Y-124304000D02*
X95210590Y-124304000D01*
X94453998Y-124150000D02*
X94607998Y-124304000D01*
X93949998Y-124150000D02*
X94453998Y-124150000D01*
D28*
X97096012Y-124070988D02*
X97498000Y-123669000D01*
X95443602Y-124070988D02*
X97096012Y-124070988D01*
D29*
%TO.N,POWER_SW*%
X100750001Y-123884999D02*
X101474000Y-123161000D01*
X100750001Y-125099999D02*
X100750001Y-123884999D01*
%TO.N,Net-(C403-Pad2)*%
X82737999Y-118998001D02*
X82737999Y-118689500D01*
X82131000Y-119605000D02*
X82737999Y-118998001D01*
X79374920Y-119605000D02*
X82131000Y-119605000D01*
X78484000Y-120495920D02*
X79374920Y-119605000D01*
X78484000Y-121350000D02*
X78484000Y-120495920D01*
%TO.N,Net-(C405-Pad2)*%
X78992000Y-120672998D02*
X78992000Y-121350000D01*
X79609988Y-120055010D02*
X78992000Y-120672998D01*
X83588990Y-120055010D02*
X79609988Y-120055010D01*
X84417000Y-119227000D02*
X83588990Y-120055010D01*
X84417000Y-118689500D02*
X84417000Y-119227000D01*
%TO.N,Net-(C405-Pad1)*%
X79796388Y-120505020D02*
X79500000Y-120801408D01*
X79500000Y-120801408D02*
X79500000Y-121350000D01*
X83934490Y-120505020D02*
X79796388Y-120505020D01*
X85217010Y-119222500D02*
X83934490Y-120505020D01*
X85217010Y-117764510D02*
X85217010Y-119222500D01*
X84417000Y-116964500D02*
X85217010Y-117764510D01*
D30*
%TO.N,Net-(C407-Pad1)*%
X83467000Y-133110000D02*
X82850000Y-133110000D01*
X82612500Y-133347500D02*
X81623000Y-133347500D01*
X82850000Y-133110000D02*
X82612500Y-133347500D01*
D29*
X85941000Y-128749000D02*
X86068000Y-128622000D01*
X84087000Y-128953410D02*
X84087000Y-129722000D01*
X84418410Y-128622000D02*
X84087000Y-128953410D01*
X85397000Y-128658000D02*
X85433000Y-128622000D01*
X85397000Y-129722000D02*
X85397000Y-128658000D01*
X85433000Y-128622000D02*
X84418410Y-128622000D01*
X86068000Y-128622000D02*
X85433000Y-128622000D01*
X83467000Y-132619998D02*
X83467000Y-133110000D01*
X83831999Y-132254999D02*
X83467000Y-132619998D01*
X84213001Y-132254999D02*
X83831999Y-132254999D01*
X84417000Y-132051000D02*
X84213001Y-132254999D01*
X84087000Y-130578000D02*
X84417000Y-130908000D01*
X84417000Y-130908000D02*
X84417000Y-132051000D01*
X84087000Y-129722000D02*
X84087000Y-130578000D01*
%TO.N,+3V3*%
X50850990Y-126538500D02*
X51180490Y-126209000D01*
X50850990Y-128864490D02*
X50850990Y-126538500D01*
X51651000Y-129664500D02*
X50850990Y-128864490D01*
X51180490Y-126209000D02*
X52667000Y-126209000D01*
X57284000Y-126243000D02*
X57284000Y-125505500D01*
X56958990Y-126568010D02*
X57284000Y-126243000D01*
X53026010Y-126568010D02*
X56958990Y-126568010D01*
X52667000Y-126209000D02*
X53026010Y-126568010D01*
D30*
X64475000Y-119989000D02*
X64478000Y-119986000D01*
X79845000Y-118689500D02*
X81369000Y-118689500D01*
D29*
X76452000Y-121292000D02*
X76452000Y-121350000D01*
X76484999Y-121259001D02*
X76452000Y-121292000D01*
X76484999Y-120044001D02*
X76484999Y-121259001D01*
X76924000Y-119605000D02*
X76484999Y-120044001D01*
X78738510Y-119605000D02*
X76924000Y-119605000D01*
X79654010Y-118689500D02*
X78738510Y-119605000D01*
X79845000Y-118689500D02*
X79654010Y-118689500D01*
X76452000Y-122435000D02*
X76543000Y-122526000D01*
X76452000Y-121350000D02*
X76452000Y-122435000D01*
D30*
X64475000Y-121400000D02*
X64475000Y-119964000D01*
D29*
X69271002Y-119986000D02*
X64478000Y-119986000D01*
X70783991Y-121098989D02*
X69671002Y-119986000D01*
X69671002Y-119986000D02*
X69271002Y-119986000D01*
X70783991Y-123330599D02*
X70783991Y-121098989D01*
X69534551Y-124580039D02*
X70783991Y-123330599D01*
X58209461Y-124580039D02*
X69534551Y-124580039D01*
X57284000Y-125505500D02*
X58209461Y-124580039D01*
%TO.N,Net-(C411-Pad1)*%
X81987500Y-127522000D02*
X81750000Y-127759500D01*
X83437000Y-127522000D02*
X81987500Y-127522000D01*
%TO.N,Net-(C411-Pad2)*%
X80734000Y-126717000D02*
X80734000Y-128468500D01*
X80988000Y-126463000D02*
X80734000Y-126717000D01*
X83808000Y-126463000D02*
X80988000Y-126463000D01*
X80734000Y-128468500D02*
X81750000Y-129484500D01*
X84087000Y-126742000D02*
X83808000Y-126463000D01*
X84087000Y-127522000D02*
X84087000Y-126742000D01*
D30*
%TO.N,Net-(C413-Pad1)*%
X78271000Y-118739500D02*
X78321000Y-118689500D01*
X76797000Y-118739500D02*
X78271000Y-118739500D01*
D29*
X75944000Y-119592500D02*
X76797000Y-118739500D01*
X75944000Y-121350000D02*
X75944000Y-119592500D01*
D28*
%TO.N,Net-(C421-Pad2)*%
X63611500Y-134542000D02*
X62573000Y-135580500D01*
X64883000Y-134542000D02*
X63611500Y-134542000D01*
D29*
%TO.N,POWER_ON*%
X91782998Y-126717000D02*
X92149998Y-126350000D01*
X90640000Y-126717000D02*
X91782998Y-126717000D01*
%TO.N,VBUS*%
X92149998Y-120850001D02*
X92139001Y-120850001D01*
X92139001Y-120850001D02*
X90259000Y-118970000D01*
D28*
%TO.N,Net-(J202-Pad2)*%
X101308000Y-120344000D02*
X101054000Y-120598000D01*
X101308000Y-119462000D02*
X101308000Y-120344000D01*
X101300001Y-119454001D02*
X101308000Y-119462000D01*
X101300001Y-119000001D02*
X101300001Y-119454001D01*
X101054000Y-120598000D02*
X101054000Y-121383000D01*
X101054000Y-121448009D02*
X101474000Y-121868009D01*
X101054000Y-121383000D02*
X101054000Y-121448009D01*
D29*
%TO.N,Net-(J202-Pad4)*%
X100750001Y-117032068D02*
X100859073Y-116922996D01*
X100750001Y-118100001D02*
X100750001Y-117032068D01*
%TO.N,Net-(J202-Pad10)*%
X98550000Y-116720000D02*
X98514000Y-116684000D01*
X98550000Y-118100001D02*
X98550000Y-116720000D01*
%TO.N,Net-(J203-Pad8)*%
X60075000Y-122575000D02*
X60075000Y-121725000D01*
X59870000Y-122780000D02*
X60075000Y-122575000D01*
X55080000Y-122780000D02*
X59870000Y-122780000D01*
X54684000Y-123176000D02*
X55080000Y-122780000D01*
X54684000Y-125505500D02*
X54684000Y-123176000D01*
%TO.N,Net-(J203-Pad2)*%
X66675000Y-122742000D02*
X66675000Y-121725000D01*
X65286970Y-124130030D02*
X66675000Y-122742000D01*
X56985000Y-124130030D02*
X65286970Y-124130030D01*
X56634000Y-124481030D02*
X56985000Y-124130030D01*
X56634000Y-125505500D02*
X56634000Y-124481030D01*
%TO.N,Net-(J203-Pad3)*%
X65575000Y-122575000D02*
X65575000Y-121725000D01*
X64469980Y-123680020D02*
X65575000Y-122575000D01*
X56350000Y-123680020D02*
X64469980Y-123680020D01*
X55984000Y-124046020D02*
X56350000Y-123680020D01*
X55984000Y-125505500D02*
X55984000Y-124046020D01*
%TO.N,Net-(J203-Pad5)*%
X55334000Y-125505500D02*
X55334000Y-123611010D01*
X55715000Y-123230010D02*
X62757990Y-123230010D01*
X55334000Y-123611010D02*
X55715000Y-123230010D01*
X63375000Y-122613000D02*
X63375000Y-121725000D01*
X62757990Y-123230010D02*
X63375000Y-122613000D01*
%TO.N,I2C_SCL*%
X75436000Y-128783590D02*
X75436000Y-123650000D01*
X76057039Y-129404629D02*
X75436000Y-128783590D01*
X76057040Y-136750000D02*
X76057039Y-129404629D01*
X76431990Y-137124950D02*
X76057040Y-136750000D01*
X81115000Y-137124950D02*
X76431990Y-137124950D01*
X90498000Y-114652000D02*
X91006000Y-114144000D01*
X89139500Y-114652000D02*
X90498000Y-114652000D01*
X88677010Y-116106990D02*
X89139500Y-115644500D01*
X88677010Y-127165600D02*
X88677010Y-116106990D01*
X92577011Y-131065601D02*
X88677010Y-127165600D01*
X92577010Y-134560400D02*
X92577011Y-131065601D01*
X89139500Y-115644500D02*
X89139500Y-114652000D01*
X89737470Y-137399940D02*
X92577010Y-134560400D01*
X81383940Y-137399940D02*
X89737470Y-137399940D01*
X81115000Y-137131000D02*
X81383940Y-137399940D01*
X81115000Y-137124950D02*
X81115000Y-137131000D01*
D31*
%TO.N,Net-(JP201-Pad2)*%
X95930960Y-115751960D02*
X94323000Y-114144000D01*
X95930960Y-116723648D02*
X95930960Y-115751960D01*
X95249999Y-117404609D02*
X95930960Y-116723648D01*
X94323000Y-114144000D02*
X92306000Y-114144000D01*
X95249999Y-118100001D02*
X95249999Y-117404609D01*
%TO.N,Net-(JP202-Pad2)*%
X95815999Y-118984002D02*
X95800000Y-119000001D01*
X96290970Y-115349970D02*
X92306000Y-111365000D01*
X96290970Y-116872768D02*
X96290970Y-115349970D01*
X92306000Y-111365000D02*
X92306000Y-111223000D01*
X95815998Y-118984003D02*
X95815998Y-117347740D01*
X95815998Y-117347740D02*
X96290970Y-116872768D01*
X95800000Y-119000001D02*
X95815998Y-118984003D01*
D29*
%TO.N,I2C_SDA*%
X75944000Y-128655180D02*
X75944000Y-123650000D01*
X76507050Y-136460050D02*
X76507050Y-129218230D01*
X76507050Y-129218230D02*
X75944000Y-128655180D01*
X76721940Y-136674940D02*
X76507050Y-136460050D01*
X80492008Y-136674940D02*
X76721940Y-136674940D01*
X80797948Y-136369000D02*
X80492008Y-136674940D01*
X82131000Y-136369000D02*
X80797948Y-136369000D01*
X90498000Y-111731000D02*
X91006000Y-111223000D01*
X89139500Y-111731000D02*
X90498000Y-111731000D01*
X88227000Y-112643500D02*
X89139500Y-111731000D01*
X92127001Y-131252001D02*
X88227000Y-127352000D01*
X92127001Y-134373999D02*
X92127001Y-131252001D01*
X89551070Y-136949930D02*
X92127001Y-134373999D01*
X82711930Y-136949930D02*
X89551070Y-136949930D01*
X88227000Y-127352000D02*
X88227000Y-112643500D01*
X82131000Y-136369000D02*
X82711930Y-136949930D01*
%TO.N,Net-(JP203-Pad2)*%
X96350000Y-127860770D02*
X96350000Y-126899999D01*
X95258973Y-128951797D02*
X96350000Y-127860770D01*
X95258972Y-131942796D02*
X95258973Y-128951797D01*
X94115971Y-137333799D02*
X94115973Y-133085795D01*
X75557190Y-138299960D02*
X93149810Y-138299960D01*
X93149810Y-138299960D02*
X94115971Y-137333799D01*
X75157020Y-137899790D02*
X75557190Y-138299960D01*
X94115973Y-133085795D02*
X95258972Y-131942796D01*
X75157020Y-131808020D02*
X75157020Y-137899790D01*
X74003000Y-130654000D02*
X75157020Y-131808020D01*
X72875000Y-130654000D02*
X74003000Y-130654000D01*
D28*
%TO.N,IMU_SCK*%
X71575000Y-131050000D02*
X71575000Y-130654000D01*
X69596018Y-133028982D02*
X71575000Y-131050000D01*
X69596018Y-134356680D02*
X69596018Y-133028982D01*
X68610698Y-135342000D02*
X69596018Y-134356680D01*
X67883000Y-135342000D02*
X68610698Y-135342000D01*
%TO.N,IMU_MOSI*%
X67883000Y-135742000D02*
X68281000Y-135742000D01*
X67883000Y-135742000D02*
X69296000Y-135742000D01*
X71575000Y-133463000D02*
X71575000Y-133321000D01*
X69296000Y-135742000D02*
X71575000Y-133463000D01*
D31*
%TO.N,Net-(JP204-Pad2)*%
X96900000Y-125999999D02*
X96900000Y-127442000D01*
D29*
X74003000Y-133321000D02*
X72875000Y-133321000D01*
X74707010Y-134025010D02*
X74003000Y-133321000D01*
X74707010Y-138086190D02*
X74707010Y-134025010D01*
X93336210Y-138749970D02*
X75370790Y-138749970D01*
X94565981Y-137520199D02*
X93336210Y-138749970D01*
X75370790Y-138749970D02*
X74707010Y-138086190D01*
X94565982Y-133272196D02*
X94565981Y-137520199D01*
X95708981Y-132129197D02*
X94565982Y-133272196D01*
X95708982Y-129138198D02*
X95708981Y-132129197D01*
X96900000Y-127947180D02*
X95708982Y-129138198D01*
X96900000Y-127442000D02*
X96900000Y-127947180D01*
%TO.N,Net-(JP205-Pad2)*%
X74257000Y-136242000D02*
X74003000Y-135988000D01*
X74257000Y-138272590D02*
X74257000Y-136242000D01*
X75184390Y-139199980D02*
X74257000Y-138272590D01*
X95015990Y-137706600D02*
X93522610Y-139199980D01*
X96158990Y-132315598D02*
X95015991Y-133458597D01*
X95015991Y-133458597D02*
X95015990Y-137706600D01*
X96158991Y-129324599D02*
X96158990Y-132315598D01*
X74003000Y-135988000D02*
X72875000Y-135988000D01*
X97450000Y-128033590D02*
X96158991Y-129324599D01*
X93522610Y-139199980D02*
X75184390Y-139199980D01*
X97450000Y-126899999D02*
X97450000Y-128033590D01*
D28*
%TO.N,IMU_MISO*%
X71575000Y-136257000D02*
X71575000Y-135988000D01*
X63335000Y-139036000D02*
X68796000Y-139036000D01*
X62827000Y-138528000D02*
X63335000Y-139036000D01*
X62827000Y-137385000D02*
X62827000Y-138528000D01*
X63462000Y-136750000D02*
X62827000Y-137385000D01*
X68796000Y-139036000D02*
X71575000Y-136257000D01*
X63462000Y-135257198D02*
X63462000Y-136750000D01*
X63777198Y-134942000D02*
X63462000Y-135257198D01*
X64883000Y-134942000D02*
X63777198Y-134942000D01*
D31*
%TO.N,Net-(JP206-Pad2)*%
X95800000Y-125999999D02*
X95800000Y-127399000D01*
D29*
X74003000Y-127987000D02*
X72890000Y-127987000D01*
X75607030Y-129591030D02*
X74003000Y-127987000D01*
X75607030Y-137713390D02*
X75607030Y-129591030D01*
X75743590Y-137849950D02*
X75607030Y-137713390D01*
X92963410Y-137849950D02*
X75743590Y-137849950D01*
X93665964Y-132899394D02*
X93665962Y-137147398D01*
X94808963Y-131756395D02*
X93665964Y-132899394D01*
X94808964Y-128765396D02*
X94808963Y-131756395D01*
X93665962Y-137147398D02*
X92963410Y-137849950D01*
X95800000Y-127774360D02*
X94808964Y-128765396D01*
X95800000Y-127399000D02*
X95800000Y-127774360D01*
D28*
%TO.N,IMU_CS*%
X71590000Y-128114000D02*
X71590000Y-127987000D01*
X70320000Y-131670000D02*
X70320000Y-129384000D01*
X69196010Y-132793990D02*
X70320000Y-131670000D01*
X70320000Y-129384000D02*
X71590000Y-128114000D01*
X69196010Y-134190990D02*
X69196010Y-132793990D01*
X68445000Y-134942000D02*
X69196010Y-134190990D01*
X67883000Y-134942000D02*
X68445000Y-134942000D01*
%TO.N,IMU_INT*%
X69792990Y-139436010D02*
X70574000Y-138655000D01*
X59798010Y-139436010D02*
X69792990Y-139436010D01*
X58382000Y-138020000D02*
X59798010Y-139436010D01*
X63208000Y-132559000D02*
X61303000Y-132559000D01*
X63462000Y-133448000D02*
X63462000Y-132813000D01*
X58382000Y-135480000D02*
X58382000Y-138020000D01*
X61303000Y-132559000D02*
X58382000Y-135480000D01*
X63462000Y-132813000D02*
X63208000Y-132559000D01*
X63756000Y-133742000D02*
X63462000Y-133448000D01*
X70574000Y-138655000D02*
X71575000Y-138655000D01*
X64883000Y-133742000D02*
X63756000Y-133742000D01*
D31*
%TO.N,Net-(JP207-Pad2)*%
X98000000Y-125999999D02*
X98000000Y-127473000D01*
D29*
X98000000Y-128120000D02*
X98000000Y-127473000D01*
X96609000Y-129511000D02*
X98000000Y-128120000D01*
X96609000Y-132501998D02*
X96609000Y-129511000D01*
X95466000Y-137893000D02*
X95466000Y-133644998D01*
X95466000Y-133644998D02*
X96609000Y-132501998D01*
X93709010Y-139649990D02*
X95466000Y-137893000D01*
X74997990Y-139649990D02*
X93709010Y-139649990D01*
X74003000Y-138655000D02*
X74997990Y-139649990D01*
X72875000Y-138655000D02*
X74003000Y-138655000D01*
D30*
%TO.N,UV_INT*%
X100673000Y-131431000D02*
X100531000Y-131431000D01*
X100165000Y-136369000D02*
X100165000Y-133448000D01*
X100673000Y-132940000D02*
X100673000Y-131431000D01*
X100165000Y-133448000D02*
X100673000Y-132940000D01*
D31*
%TO.N,Net-(JP208-Pad2)*%
X99100001Y-125999999D02*
X99100001Y-128827001D01*
X100404000Y-130131000D02*
X100673000Y-130131000D01*
X99100001Y-128827001D02*
X100404000Y-130131000D01*
%TO.N,Net-(JP209-Pad2)*%
X98550000Y-126899999D02*
X98550000Y-128713000D01*
X98006000Y-129257000D02*
X98006000Y-130131000D01*
X98550000Y-128713000D02*
X98006000Y-129257000D01*
D29*
%TO.N,HEART_INT*%
X76452000Y-124350000D02*
X76452000Y-123650000D01*
X76543000Y-125447000D02*
X76452000Y-125538000D01*
X78678500Y-125447000D02*
X76543000Y-125447000D01*
X76452000Y-124350000D02*
X76452000Y-125538000D01*
X98006000Y-131431000D02*
X98275000Y-131431000D01*
D30*
X97945432Y-131491568D02*
X98006000Y-131431000D01*
X97945432Y-134084485D02*
X97945432Y-131491568D01*
D29*
X76452000Y-128526770D02*
X76452000Y-125538000D01*
X76957060Y-129031830D02*
X76452000Y-128526770D01*
X76957060Y-133862060D02*
X76957060Y-129031830D01*
X77432000Y-134337000D02*
X76957060Y-133862060D01*
X79083000Y-134337000D02*
X77432000Y-134337000D01*
X79718000Y-134972000D02*
X79083000Y-134337000D01*
X79718000Y-135607000D02*
X79718000Y-134972000D01*
%TO.N,Net-(JP210-Pad2)*%
X75512000Y-114398000D02*
X75512000Y-114540000D01*
X72606000Y-116575412D02*
X74656412Y-114525000D01*
X74656412Y-114525000D02*
X75385000Y-114525000D01*
X72606000Y-124054230D02*
X72606000Y-116575412D01*
X70117200Y-126543030D02*
X72606000Y-124054230D01*
X65542380Y-126543030D02*
X70117200Y-126543030D01*
X58148390Y-128379020D02*
X63706391Y-128379019D01*
X75385000Y-114525000D02*
X75512000Y-114398000D01*
X56634000Y-129893410D02*
X58148390Y-128379020D01*
X63706391Y-128379019D02*
X65542380Y-126543030D01*
X56634000Y-131230500D02*
X56634000Y-129893410D01*
%TO.N,Net-(JP211-Pad2)*%
X75512000Y-111873000D02*
X75512000Y-111731000D01*
X73495000Y-113890000D02*
X75512000Y-111873000D01*
X55984000Y-131230500D02*
X55984000Y-129907000D01*
X65494000Y-125955000D02*
X70068820Y-125955000D01*
X55984000Y-129907000D02*
X57961990Y-127929010D01*
X57961990Y-127929010D02*
X63519990Y-127929010D01*
X70068820Y-125955000D02*
X72134021Y-123889799D01*
X72134021Y-122489979D02*
X72155990Y-122468010D01*
X63519990Y-127929010D02*
X65494000Y-125955000D01*
X72134021Y-123889799D02*
X72134021Y-122489979D01*
X72155990Y-122468010D02*
X72155991Y-116389011D01*
X73495000Y-115033000D02*
X73495000Y-113890000D01*
X72155991Y-116389011D02*
X73234001Y-115311001D01*
X73234001Y-115311001D02*
X73234001Y-115293999D01*
X73234001Y-115293999D02*
X73495000Y-115033000D01*
%TO.N,Net-(JP212-Pad2)*%
X69907352Y-125480058D02*
X71684011Y-123703399D01*
X61269941Y-125480059D02*
X69907352Y-125480058D01*
X59271000Y-127479000D02*
X61269941Y-125480059D01*
X57620000Y-127479000D02*
X59271000Y-127479000D01*
X55334000Y-129765000D02*
X57620000Y-127479000D01*
X55334000Y-131230500D02*
X55334000Y-129765000D01*
X71684011Y-113795989D02*
X71684011Y-113636000D01*
X71684011Y-123703399D02*
X71684011Y-113795989D01*
X71684011Y-113033989D02*
X71684011Y-113795989D01*
X75512000Y-109206000D02*
X71684011Y-113033989D01*
X75512000Y-109064000D02*
X75512000Y-109206000D01*
%TO.N,Net-(JP213-Pad2)*%
X54684000Y-129908998D02*
X54699000Y-129893998D01*
X54684000Y-130258000D02*
X54684000Y-129908998D01*
X54684000Y-131230500D02*
X54684000Y-130258000D01*
X74762000Y-106397000D02*
X75512000Y-106397000D01*
X73742001Y-109850001D02*
X73742001Y-107416999D01*
X73724999Y-109850001D02*
X73742001Y-109850001D01*
X71234001Y-112340999D02*
X73724999Y-109850001D01*
X71234001Y-123516999D02*
X71234001Y-112340999D01*
X59306951Y-125030049D02*
X69720951Y-125030049D01*
X73742001Y-107416999D02*
X74762000Y-106397000D01*
X54684000Y-129653000D02*
X59306951Y-125030049D01*
X69720951Y-125030049D02*
X71234001Y-123516999D01*
X54684000Y-130258000D02*
X54684000Y-129653000D01*
%TO.N,FAST_CHARGE*%
X97450000Y-121335000D02*
X97498000Y-121383000D01*
X97450000Y-119900001D02*
X97450000Y-121335000D01*
%TO.N,Net-(U201-Pad4)*%
X92149998Y-119750000D02*
X91402000Y-119002002D01*
X91402000Y-116977000D02*
X91695000Y-116684000D01*
X91402000Y-119002002D02*
X91402000Y-116977000D01*
%TO.N,Net-(U201-Pad6)*%
X92149998Y-117328349D02*
X93429347Y-116049000D01*
X92149998Y-118650000D02*
X92149998Y-117328349D01*
%TO.N,IR_TEMP*%
X83437000Y-131298500D02*
X83554500Y-131416000D01*
X83437000Y-129722000D02*
X83437000Y-131298500D01*
X83437000Y-129293000D02*
X82766000Y-128622000D01*
X83437000Y-129722000D02*
X83437000Y-129293000D01*
X94140001Y-126899999D02*
X92037000Y-129003000D01*
X94149999Y-126899999D02*
X94140001Y-126899999D01*
D31*
%TO.N,AMB_TEMP*%
X91275000Y-124287003D02*
X91275000Y-122526000D01*
X91687997Y-124700000D02*
X91275000Y-124287003D01*
X93049998Y-124700000D02*
X91687997Y-124700000D01*
D29*
%TO.N,Net-(U403-Pad8)*%
X85397000Y-125792000D02*
X85306000Y-125701000D01*
X85397000Y-127522000D02*
X85397000Y-125792000D01*
D31*
%TO.N,LED_B*%
X100200001Y-119000001D02*
X100200001Y-117090403D01*
X100200001Y-117090403D02*
X100190403Y-117090403D01*
X100190403Y-117090403D02*
X100038000Y-116938000D01*
X100038000Y-116938000D02*
X100038000Y-115795000D01*
X100419000Y-115414000D02*
X101308000Y-115414000D01*
X100038000Y-115795000D02*
X100419000Y-115414000D01*
%TO.N,LED_G*%
X100307997Y-114382003D02*
X101308000Y-114382003D01*
X99650001Y-115039999D02*
X100307997Y-114382003D01*
X99650001Y-118100001D02*
X99650001Y-115039999D01*
%TO.N,LED_R*%
X100546000Y-113382000D02*
X101308000Y-113382000D01*
X99276000Y-114652000D02*
X100546000Y-113382000D01*
X99276000Y-116928402D02*
X99276000Y-114652000D01*
X99100001Y-117104401D02*
X99276000Y-116928402D01*
X99100001Y-119000001D02*
X99100001Y-117104401D01*
D29*
%TO.N,SD_MISO*%
X76812000Y-114398000D02*
X78194000Y-114398000D01*
X78194000Y-114398000D02*
X79094020Y-113497980D01*
X79094020Y-106893980D02*
X79256970Y-106731030D01*
X79094020Y-113497980D02*
X79094020Y-106893980D01*
X79256970Y-106731030D02*
X85687000Y-106731030D01*
X85687000Y-106731030D02*
X96811800Y-106731030D01*
X96811800Y-106731030D02*
X97163970Y-107083200D01*
X97163970Y-107083200D02*
X97163970Y-114144000D01*
D31*
X96650980Y-114656990D02*
X97163970Y-114144000D01*
X96650980Y-117021889D02*
X96650980Y-114656990D01*
X96350000Y-117322869D02*
X96650980Y-117021889D01*
X96350000Y-118100001D02*
X96350000Y-117322869D01*
D29*
%TO.N,SD_MOSI*%
X76812000Y-111731000D02*
X77940000Y-111731000D01*
X77940000Y-111731000D02*
X78644010Y-111026990D01*
X78644010Y-111026990D02*
X78644010Y-106584810D01*
X78644010Y-106584810D02*
X78947800Y-106281020D01*
X78947800Y-106281020D02*
X85687000Y-106281020D01*
X85687000Y-106281020D02*
X96998200Y-106281020D01*
X96998200Y-106281020D02*
X97613980Y-106896800D01*
X97613980Y-106896800D02*
X97613980Y-114652000D01*
D31*
X97010990Y-115254990D02*
X97613980Y-114652000D01*
X97010990Y-117171010D02*
X97010990Y-115254990D01*
X96900000Y-117282000D02*
X97010990Y-117171010D01*
X96900000Y-119000001D02*
X96900000Y-117282000D01*
%TO.N,SD_SCK*%
X97450000Y-118100001D02*
X97371000Y-118021001D01*
X97371000Y-118021001D02*
X97371000Y-116303000D01*
D29*
X76812000Y-109064000D02*
X77813000Y-109064000D01*
X78194000Y-108683000D02*
X78194000Y-106398410D01*
X77813000Y-109064000D02*
X78194000Y-108683000D01*
X78194000Y-106398410D02*
X78761400Y-105831010D01*
X78761400Y-105831010D02*
X85687000Y-105831010D01*
X85687000Y-105831010D02*
X96863000Y-105831010D01*
X96863000Y-105831010D02*
X97184600Y-105831010D01*
X97184600Y-105831010D02*
X98063990Y-106710400D01*
X98063990Y-106710400D02*
X98063990Y-115033000D01*
D31*
X97391990Y-115705000D02*
X98063990Y-115033000D01*
X97391990Y-116282010D02*
X97391990Y-115705000D01*
X97371000Y-116303000D02*
X97391990Y-116282010D01*
%TO.N,SD_CS*%
X98000000Y-117176402D02*
X97752000Y-116928402D01*
X98000000Y-119000001D02*
X98000000Y-117176402D01*
X97752000Y-116928402D02*
X97752000Y-116303000D01*
D29*
X76812000Y-106397000D02*
X77559000Y-106397000D01*
X77559000Y-106397000D02*
X78575000Y-105381000D01*
X78575000Y-105381000D02*
X85687000Y-105381000D01*
X85687000Y-105381000D02*
X97371000Y-105381000D01*
X97371000Y-105381000D02*
X98514000Y-106524000D01*
X98514000Y-106524000D02*
X98514000Y-115541000D01*
D31*
X97752000Y-116303000D02*
X98514000Y-115541000D01*
D30*
%TO.N,SD_DET*%
X55230500Y-119732000D02*
X55230500Y-120343500D01*
X55230500Y-120343500D02*
X54699000Y-120875000D01*
X54699000Y-120875000D02*
X53088712Y-120875000D01*
X53088712Y-120875000D02*
X52921000Y-120875000D01*
X52921000Y-120875000D02*
X52351010Y-120305010D01*
X52351010Y-114828992D02*
X54814002Y-112366000D01*
X52351010Y-120305010D02*
X52351010Y-114828992D01*
X54814002Y-112366000D02*
X59271000Y-112366000D01*
X59271000Y-112366000D02*
X59398000Y-112366000D01*
D31*
X94699999Y-119000001D02*
X94699999Y-117440403D01*
X95130001Y-117010401D02*
X95135077Y-117010401D01*
X94699999Y-117440403D02*
X95130001Y-117010401D01*
X95135077Y-117010401D02*
X95339000Y-116806478D01*
X95339000Y-116806478D02*
X95339000Y-115795000D01*
X94577000Y-115033000D02*
X93942000Y-115033000D01*
X95339000Y-115795000D02*
X94577000Y-115033000D01*
D30*
X60160000Y-112366000D02*
X61176000Y-113382000D01*
X59271000Y-112366000D02*
X60160000Y-112366000D01*
X59125000Y-121325000D02*
X59125000Y-120225000D01*
X58632000Y-119732000D02*
X55230500Y-119732000D01*
X59125000Y-120225000D02*
X58632000Y-119732000D01*
%TD*%
M02*
