%TF.GenerationSoftware,KiCad,Pcbnew,(5.1.7)-1*%
%TF.CreationDate,2021-01-20T17:17:38-05:00*%
%TF.ProjectId,SYSC4907_REV2,53595343-3439-4303-975f-524556322e6b,rev?*%
%TF.SameCoordinates,Original*%
%TF.FileFunction,Soldermask,Top*%
%TF.FilePolarity,Negative*%
%FSLAX46Y46*%
G04 Gerber Fmt 4.6, Leading zero omitted, Abs format (unit mm)*
G04 Created by KiCad (PCBNEW (5.1.7)-1) date 2021-01-20 17:17:38*
%MOMM*%
%LPD*%
G01*
G04 APERTURE LIST*
%ADD10R,1.000000X1.000000*%
%ADD11R,1.150000X0.300000*%
%ADD12R,1.150000X0.600000*%
%ADD13R,2.000000X2.180000*%
%ADD14C,0.650000*%
%ADD15R,2.400000X0.740000*%
%ADD16R,1.000000X1.500000*%
%ADD17R,1.500000X1.000000*%
%ADD18R,2.900000X1.800000*%
%ADD19R,0.400000X0.510000*%
%ADD20R,1.050000X1.400000*%
%ADD21C,0.700000*%
%ADD22C,1.000000*%
%ADD23R,1.060000X0.650000*%
%ADD24R,2.700000X2.700000*%
%ADD25R,0.650000X1.220000*%
%ADD26R,0.650000X1.060000*%
%ADD27C,1.500000*%
%ADD28R,0.300000X0.800000*%
%ADD29R,0.800000X0.300000*%
%ADD30R,1.700000X1.700000*%
%ADD31O,1.700000X1.700000*%
G04 APERTURE END LIST*
%TO.C,C301*%
G36*
G01*
X56967000Y-127102500D02*
X56967000Y-126627500D01*
G75*
G02*
X57204500Y-126390000I237500J0D01*
G01*
X57804500Y-126390000D01*
G75*
G02*
X58042000Y-126627500I0J-237500D01*
G01*
X58042000Y-127102500D01*
G75*
G02*
X57804500Y-127340000I-237500J0D01*
G01*
X57204500Y-127340000D01*
G75*
G02*
X56967000Y-127102500I0J237500D01*
G01*
G37*
G36*
G01*
X55242000Y-127102500D02*
X55242000Y-126627500D01*
G75*
G02*
X55479500Y-126390000I237500J0D01*
G01*
X56079500Y-126390000D01*
G75*
G02*
X56317000Y-126627500I0J-237500D01*
G01*
X56317000Y-127102500D01*
G75*
G02*
X56079500Y-127340000I-237500J0D01*
G01*
X55479500Y-127340000D01*
G75*
G02*
X55242000Y-127102500I0J237500D01*
G01*
G37*
%TD*%
%TO.C,C302*%
G36*
G01*
X71603500Y-113254000D02*
X71128500Y-113254000D01*
G75*
G02*
X70891000Y-113016500I0J237500D01*
G01*
X70891000Y-112416500D01*
G75*
G02*
X71128500Y-112179000I237500J0D01*
G01*
X71603500Y-112179000D01*
G75*
G02*
X71841000Y-112416500I0J-237500D01*
G01*
X71841000Y-113016500D01*
G75*
G02*
X71603500Y-113254000I-237500J0D01*
G01*
G37*
G36*
G01*
X71603500Y-111529000D02*
X71128500Y-111529000D01*
G75*
G02*
X70891000Y-111291500I0J237500D01*
G01*
X70891000Y-110691500D01*
G75*
G02*
X71128500Y-110454000I237500J0D01*
G01*
X71603500Y-110454000D01*
G75*
G02*
X71841000Y-110691500I0J-237500D01*
G01*
X71841000Y-111291500D01*
G75*
G02*
X71603500Y-111529000I-237500J0D01*
G01*
G37*
%TD*%
%TO.C,C303*%
G36*
G01*
X59610000Y-134742000D02*
X59135000Y-134742000D01*
G75*
G02*
X58897500Y-134504500I0J237500D01*
G01*
X58897500Y-133904500D01*
G75*
G02*
X59135000Y-133667000I237500J0D01*
G01*
X59610000Y-133667000D01*
G75*
G02*
X59847500Y-133904500I0J-237500D01*
G01*
X59847500Y-134504500D01*
G75*
G02*
X59610000Y-134742000I-237500J0D01*
G01*
G37*
G36*
G01*
X59610000Y-133017000D02*
X59135000Y-133017000D01*
G75*
G02*
X58897500Y-132779500I0J237500D01*
G01*
X58897500Y-132179500D01*
G75*
G02*
X59135000Y-131942000I237500J0D01*
G01*
X59610000Y-131942000D01*
G75*
G02*
X59847500Y-132179500I0J-237500D01*
G01*
X59847500Y-132779500D01*
G75*
G02*
X59610000Y-133017000I-237500J0D01*
G01*
G37*
%TD*%
%TO.C,C304*%
G36*
G01*
X68047500Y-115085000D02*
X67572500Y-115085000D01*
G75*
G02*
X67335000Y-114847500I0J237500D01*
G01*
X67335000Y-114247500D01*
G75*
G02*
X67572500Y-114010000I237500J0D01*
G01*
X68047500Y-114010000D01*
G75*
G02*
X68285000Y-114247500I0J-237500D01*
G01*
X68285000Y-114847500D01*
G75*
G02*
X68047500Y-115085000I-237500J0D01*
G01*
G37*
G36*
G01*
X68047500Y-116810000D02*
X67572500Y-116810000D01*
G75*
G02*
X67335000Y-116572500I0J237500D01*
G01*
X67335000Y-115972500D01*
G75*
G02*
X67572500Y-115735000I237500J0D01*
G01*
X68047500Y-115735000D01*
G75*
G02*
X68285000Y-115972500I0J-237500D01*
G01*
X68285000Y-116572500D01*
G75*
G02*
X68047500Y-116810000I-237500J0D01*
G01*
G37*
%TD*%
%TO.C,C305*%
G36*
G01*
X73254500Y-113254000D02*
X72779500Y-113254000D01*
G75*
G02*
X72542000Y-113016500I0J237500D01*
G01*
X72542000Y-112416500D01*
G75*
G02*
X72779500Y-112179000I237500J0D01*
G01*
X73254500Y-112179000D01*
G75*
G02*
X73492000Y-112416500I0J-237500D01*
G01*
X73492000Y-113016500D01*
G75*
G02*
X73254500Y-113254000I-237500J0D01*
G01*
G37*
G36*
G01*
X73254500Y-111529000D02*
X72779500Y-111529000D01*
G75*
G02*
X72542000Y-111291500I0J237500D01*
G01*
X72542000Y-110691500D01*
G75*
G02*
X72779500Y-110454000I237500J0D01*
G01*
X73254500Y-110454000D01*
G75*
G02*
X73492000Y-110691500I0J-237500D01*
G01*
X73492000Y-111291500D01*
G75*
G02*
X73254500Y-111529000I-237500J0D01*
G01*
G37*
%TD*%
%TO.C,C306*%
G36*
G01*
X55990500Y-123873000D02*
X55515500Y-123873000D01*
G75*
G02*
X55278000Y-123635500I0J237500D01*
G01*
X55278000Y-123035500D01*
G75*
G02*
X55515500Y-122798000I237500J0D01*
G01*
X55990500Y-122798000D01*
G75*
G02*
X56228000Y-123035500I0J-237500D01*
G01*
X56228000Y-123635500D01*
G75*
G02*
X55990500Y-123873000I-237500J0D01*
G01*
G37*
G36*
G01*
X55990500Y-125598000D02*
X55515500Y-125598000D01*
G75*
G02*
X55278000Y-125360500I0J237500D01*
G01*
X55278000Y-124760500D01*
G75*
G02*
X55515500Y-124523000I237500J0D01*
G01*
X55990500Y-124523000D01*
G75*
G02*
X56228000Y-124760500I0J-237500D01*
G01*
X56228000Y-125360500D01*
G75*
G02*
X55990500Y-125598000I-237500J0D01*
G01*
G37*
%TD*%
%TO.C,C307*%
G36*
G01*
X84603500Y-111529000D02*
X84128500Y-111529000D01*
G75*
G02*
X83891000Y-111291500I0J237500D01*
G01*
X83891000Y-110691500D01*
G75*
G02*
X84128500Y-110454000I237500J0D01*
G01*
X84603500Y-110454000D01*
G75*
G02*
X84841000Y-110691500I0J-237500D01*
G01*
X84841000Y-111291500D01*
G75*
G02*
X84603500Y-111529000I-237500J0D01*
G01*
G37*
G36*
G01*
X84603500Y-113254000D02*
X84128500Y-113254000D01*
G75*
G02*
X83891000Y-113016500I0J237500D01*
G01*
X83891000Y-112416500D01*
G75*
G02*
X84128500Y-112179000I237500J0D01*
G01*
X84603500Y-112179000D01*
G75*
G02*
X84841000Y-112416500I0J-237500D01*
G01*
X84841000Y-113016500D01*
G75*
G02*
X84603500Y-113254000I-237500J0D01*
G01*
G37*
%TD*%
%TO.C,C308*%
G36*
G01*
X87420500Y-133076500D02*
X86945500Y-133076500D01*
G75*
G02*
X86708000Y-132839000I0J237500D01*
G01*
X86708000Y-132239000D01*
G75*
G02*
X86945500Y-132001500I237500J0D01*
G01*
X87420500Y-132001500D01*
G75*
G02*
X87658000Y-132239000I0J-237500D01*
G01*
X87658000Y-132839000D01*
G75*
G02*
X87420500Y-133076500I-237500J0D01*
G01*
G37*
G36*
G01*
X87420500Y-134801500D02*
X86945500Y-134801500D01*
G75*
G02*
X86708000Y-134564000I0J237500D01*
G01*
X86708000Y-133964000D01*
G75*
G02*
X86945500Y-133726500I237500J0D01*
G01*
X87420500Y-133726500D01*
G75*
G02*
X87658000Y-133964000I0J-237500D01*
G01*
X87658000Y-134564000D01*
G75*
G02*
X87420500Y-134801500I-237500J0D01*
G01*
G37*
%TD*%
%TO.C,C309*%
G36*
G01*
X81047500Y-116810000D02*
X80572500Y-116810000D01*
G75*
G02*
X80335000Y-116572500I0J237500D01*
G01*
X80335000Y-115972500D01*
G75*
G02*
X80572500Y-115735000I237500J0D01*
G01*
X81047500Y-115735000D01*
G75*
G02*
X81285000Y-115972500I0J-237500D01*
G01*
X81285000Y-116572500D01*
G75*
G02*
X81047500Y-116810000I-237500J0D01*
G01*
G37*
G36*
G01*
X81047500Y-115085000D02*
X80572500Y-115085000D01*
G75*
G02*
X80335000Y-114847500I0J237500D01*
G01*
X80335000Y-114247500D01*
G75*
G02*
X80572500Y-114010000I237500J0D01*
G01*
X81047500Y-114010000D01*
G75*
G02*
X81285000Y-114247500I0J-237500D01*
G01*
X81285000Y-114847500D01*
G75*
G02*
X81047500Y-115085000I-237500J0D01*
G01*
G37*
%TD*%
%TO.C,C310*%
G36*
G01*
X73514000Y-129139500D02*
X73039000Y-129139500D01*
G75*
G02*
X72801500Y-128902000I0J237500D01*
G01*
X72801500Y-128302000D01*
G75*
G02*
X73039000Y-128064500I237500J0D01*
G01*
X73514000Y-128064500D01*
G75*
G02*
X73751500Y-128302000I0J-237500D01*
G01*
X73751500Y-128902000D01*
G75*
G02*
X73514000Y-129139500I-237500J0D01*
G01*
G37*
G36*
G01*
X73514000Y-130864500D02*
X73039000Y-130864500D01*
G75*
G02*
X72801500Y-130627000I0J237500D01*
G01*
X72801500Y-130027000D01*
G75*
G02*
X73039000Y-129789500I237500J0D01*
G01*
X73514000Y-129789500D01*
G75*
G02*
X73751500Y-130027000I0J-237500D01*
G01*
X73751500Y-130627000D01*
G75*
G02*
X73514000Y-130864500I-237500J0D01*
G01*
G37*
%TD*%
%TO.C,C311*%
G36*
G01*
X86254500Y-113254000D02*
X85779500Y-113254000D01*
G75*
G02*
X85542000Y-113016500I0J237500D01*
G01*
X85542000Y-112416500D01*
G75*
G02*
X85779500Y-112179000I237500J0D01*
G01*
X86254500Y-112179000D01*
G75*
G02*
X86492000Y-112416500I0J-237500D01*
G01*
X86492000Y-113016500D01*
G75*
G02*
X86254500Y-113254000I-237500J0D01*
G01*
G37*
G36*
G01*
X86254500Y-111529000D02*
X85779500Y-111529000D01*
G75*
G02*
X85542000Y-111291500I0J237500D01*
G01*
X85542000Y-110691500D01*
G75*
G02*
X85779500Y-110454000I237500J0D01*
G01*
X86254500Y-110454000D01*
G75*
G02*
X86492000Y-110691500I0J-237500D01*
G01*
X86492000Y-111291500D01*
G75*
G02*
X86254500Y-111529000I-237500J0D01*
G01*
G37*
%TD*%
%TO.C,C312*%
G36*
G01*
X77832000Y-129139500D02*
X77357000Y-129139500D01*
G75*
G02*
X77119500Y-128902000I0J237500D01*
G01*
X77119500Y-128302000D01*
G75*
G02*
X77357000Y-128064500I237500J0D01*
G01*
X77832000Y-128064500D01*
G75*
G02*
X78069500Y-128302000I0J-237500D01*
G01*
X78069500Y-128902000D01*
G75*
G02*
X77832000Y-129139500I-237500J0D01*
G01*
G37*
G36*
G01*
X77832000Y-130864500D02*
X77357000Y-130864500D01*
G75*
G02*
X77119500Y-130627000I0J237500D01*
G01*
X77119500Y-130027000D01*
G75*
G02*
X77357000Y-129789500I237500J0D01*
G01*
X77832000Y-129789500D01*
G75*
G02*
X78069500Y-130027000I0J-237500D01*
G01*
X78069500Y-130627000D01*
G75*
G02*
X77832000Y-130864500I-237500J0D01*
G01*
G37*
%TD*%
%TO.C,C415*%
G36*
G01*
X87663000Y-123017500D02*
X87663000Y-122542500D01*
G75*
G02*
X87900500Y-122305000I237500J0D01*
G01*
X88500500Y-122305000D01*
G75*
G02*
X88738000Y-122542500I0J-237500D01*
G01*
X88738000Y-123017500D01*
G75*
G02*
X88500500Y-123255000I-237500J0D01*
G01*
X87900500Y-123255000D01*
G75*
G02*
X87663000Y-123017500I0J237500D01*
G01*
G37*
G36*
G01*
X85938000Y-123017500D02*
X85938000Y-122542500D01*
G75*
G02*
X86175500Y-122305000I237500J0D01*
G01*
X86775500Y-122305000D01*
G75*
G02*
X87013000Y-122542500I0J-237500D01*
G01*
X87013000Y-123017500D01*
G75*
G02*
X86775500Y-123255000I-237500J0D01*
G01*
X86175500Y-123255000D01*
G75*
G02*
X85938000Y-123017500I0J237500D01*
G01*
G37*
%TD*%
%TO.C,C416*%
G36*
G01*
X94687500Y-134086000D02*
X94212500Y-134086000D01*
G75*
G02*
X93975000Y-133848500I0J237500D01*
G01*
X93975000Y-133248500D01*
G75*
G02*
X94212500Y-133011000I237500J0D01*
G01*
X94687500Y-133011000D01*
G75*
G02*
X94925000Y-133248500I0J-237500D01*
G01*
X94925000Y-133848500D01*
G75*
G02*
X94687500Y-134086000I-237500J0D01*
G01*
G37*
G36*
G01*
X94687500Y-132361000D02*
X94212500Y-132361000D01*
G75*
G02*
X93975000Y-132123500I0J237500D01*
G01*
X93975000Y-131523500D01*
G75*
G02*
X94212500Y-131286000I237500J0D01*
G01*
X94687500Y-131286000D01*
G75*
G02*
X94925000Y-131523500I0J-237500D01*
G01*
X94925000Y-132123500D01*
G75*
G02*
X94687500Y-132361000I-237500J0D01*
G01*
G37*
%TD*%
%TO.C,C417*%
G36*
G01*
X93036500Y-132361000D02*
X92561500Y-132361000D01*
G75*
G02*
X92324000Y-132123500I0J237500D01*
G01*
X92324000Y-131523500D01*
G75*
G02*
X92561500Y-131286000I237500J0D01*
G01*
X93036500Y-131286000D01*
G75*
G02*
X93274000Y-131523500I0J-237500D01*
G01*
X93274000Y-132123500D01*
G75*
G02*
X93036500Y-132361000I-237500J0D01*
G01*
G37*
G36*
G01*
X93036500Y-134086000D02*
X92561500Y-134086000D01*
G75*
G02*
X92324000Y-133848500I0J237500D01*
G01*
X92324000Y-133248500D01*
G75*
G02*
X92561500Y-133011000I237500J0D01*
G01*
X93036500Y-133011000D01*
G75*
G02*
X93274000Y-133248500I0J-237500D01*
G01*
X93274000Y-133848500D01*
G75*
G02*
X93036500Y-134086000I-237500J0D01*
G01*
G37*
%TD*%
%TO.C,C418*%
G36*
G01*
X100490000Y-139273500D02*
X100490000Y-138798500D01*
G75*
G02*
X100727500Y-138561000I237500J0D01*
G01*
X101327500Y-138561000D01*
G75*
G02*
X101565000Y-138798500I0J-237500D01*
G01*
X101565000Y-139273500D01*
G75*
G02*
X101327500Y-139511000I-237500J0D01*
G01*
X100727500Y-139511000D01*
G75*
G02*
X100490000Y-139273500I0J237500D01*
G01*
G37*
G36*
G01*
X98765000Y-139273500D02*
X98765000Y-138798500D01*
G75*
G02*
X99002500Y-138561000I237500J0D01*
G01*
X99602500Y-138561000D01*
G75*
G02*
X99840000Y-138798500I0J-237500D01*
G01*
X99840000Y-139273500D01*
G75*
G02*
X99602500Y-139511000I-237500J0D01*
G01*
X99002500Y-139511000D01*
G75*
G02*
X98765000Y-139273500I0J237500D01*
G01*
G37*
%TD*%
D10*
%TO.C,D301*%
X91890000Y-126717000D03*
X89390000Y-126717000D03*
%TD*%
%TO.C,D302*%
X89390000Y-124658501D03*
X91890000Y-124658501D03*
%TD*%
D11*
%TO.C,J201*%
X56000000Y-111500000D03*
X56000000Y-112000000D03*
X56000000Y-112500000D03*
X56000000Y-113000000D03*
X56000000Y-113500000D03*
X56000000Y-111000000D03*
X56000000Y-110500000D03*
X56000000Y-110000000D03*
D12*
X56000000Y-109350000D03*
X56000000Y-114150000D03*
X56000000Y-114950000D03*
X56000000Y-108550000D03*
D13*
X55425000Y-106640000D03*
X55425000Y-116860000D03*
X51495000Y-116860000D03*
X51495000Y-106640000D03*
D14*
X54925000Y-108860000D03*
X54925000Y-114640000D03*
%TD*%
D15*
%TO.C,J202*%
X95550000Y-119960000D03*
X99450000Y-119960000D03*
X95550000Y-121230000D03*
X99450000Y-121230000D03*
X95550000Y-122500000D03*
X99450000Y-122500000D03*
X95550000Y-123770000D03*
X99450000Y-123770000D03*
X95550000Y-125040000D03*
X99450000Y-125040000D03*
%TD*%
D16*
%TO.C,JP301*%
X55992000Y-129024000D03*
X57292000Y-129024000D03*
%TD*%
%TO.C,JP302*%
X57292000Y-131691000D03*
X55992000Y-131691000D03*
%TD*%
%TO.C,JP303*%
X55992000Y-134358000D03*
X57292000Y-134358000D03*
%TD*%
D17*
%TO.C,JP304*%
X70866000Y-132692000D03*
X70866000Y-133992000D03*
%TD*%
%TO.C,JP305*%
X68161000Y-133986000D03*
X68161000Y-132686000D03*
%TD*%
%TO.C,JP306*%
X75176000Y-111204000D03*
X75176000Y-112504000D03*
%TD*%
%TO.C,JP307*%
X88176000Y-112504000D03*
X88176000Y-111204000D03*
%TD*%
%TO.C,JP308*%
X75435500Y-128814500D03*
X75435500Y-130114500D03*
%TD*%
D18*
%TO.C,L301*%
X74668000Y-114953000D03*
X74668000Y-118153000D03*
%TD*%
%TO.C,L302*%
X87668000Y-114953000D03*
X87668000Y-118153000D03*
%TD*%
%TO.C,L303*%
X74356000Y-135636500D03*
X74356000Y-132436500D03*
%TD*%
D19*
%TO.C,Q201*%
X96728000Y-112376000D03*
X96228000Y-111086000D03*
X95728000Y-112376000D03*
%TD*%
%TO.C,Q202*%
X98014000Y-112376000D03*
X98514000Y-111086000D03*
X99014000Y-112376000D03*
%TD*%
%TO.C,Q203*%
X101300000Y-112376000D03*
X100800000Y-111086000D03*
X100300000Y-112376000D03*
%TD*%
%TO.C,Q301*%
X88080000Y-131062000D03*
X88580000Y-129772000D03*
X89080000Y-131062000D03*
%TD*%
%TO.C,Q302*%
X85857500Y-131062000D03*
X86357500Y-129772000D03*
X86857500Y-131062000D03*
%TD*%
%TO.C,Q303*%
X84635000Y-131062000D03*
X84135000Y-129772000D03*
X83635000Y-131062000D03*
%TD*%
%TO.C,R204*%
G36*
G01*
X95256000Y-106253500D02*
X95256000Y-105778500D01*
G75*
G02*
X95493500Y-105541000I237500J0D01*
G01*
X95993500Y-105541000D01*
G75*
G02*
X96231000Y-105778500I0J-237500D01*
G01*
X96231000Y-106253500D01*
G75*
G02*
X95993500Y-106491000I-237500J0D01*
G01*
X95493500Y-106491000D01*
G75*
G02*
X95256000Y-106253500I0J237500D01*
G01*
G37*
G36*
G01*
X93431000Y-106253500D02*
X93431000Y-105778500D01*
G75*
G02*
X93668500Y-105541000I237500J0D01*
G01*
X94168500Y-105541000D01*
G75*
G02*
X94406000Y-105778500I0J-237500D01*
G01*
X94406000Y-106253500D01*
G75*
G02*
X94168500Y-106491000I-237500J0D01*
G01*
X93668500Y-106491000D01*
G75*
G02*
X93431000Y-106253500I0J237500D01*
G01*
G37*
%TD*%
%TO.C,R205*%
G36*
G01*
X93431000Y-107904500D02*
X93431000Y-107429500D01*
G75*
G02*
X93668500Y-107192000I237500J0D01*
G01*
X94168500Y-107192000D01*
G75*
G02*
X94406000Y-107429500I0J-237500D01*
G01*
X94406000Y-107904500D01*
G75*
G02*
X94168500Y-108142000I-237500J0D01*
G01*
X93668500Y-108142000D01*
G75*
G02*
X93431000Y-107904500I0J237500D01*
G01*
G37*
G36*
G01*
X95256000Y-107904500D02*
X95256000Y-107429500D01*
G75*
G02*
X95493500Y-107192000I237500J0D01*
G01*
X95993500Y-107192000D01*
G75*
G02*
X96231000Y-107429500I0J-237500D01*
G01*
X96231000Y-107904500D01*
G75*
G02*
X95993500Y-108142000I-237500J0D01*
G01*
X95493500Y-108142000D01*
G75*
G02*
X95256000Y-107904500I0J237500D01*
G01*
G37*
%TD*%
%TO.C,R206*%
G36*
G01*
X93431000Y-109555500D02*
X93431000Y-109080500D01*
G75*
G02*
X93668500Y-108843000I237500J0D01*
G01*
X94168500Y-108843000D01*
G75*
G02*
X94406000Y-109080500I0J-237500D01*
G01*
X94406000Y-109555500D01*
G75*
G02*
X94168500Y-109793000I-237500J0D01*
G01*
X93668500Y-109793000D01*
G75*
G02*
X93431000Y-109555500I0J237500D01*
G01*
G37*
G36*
G01*
X95256000Y-109555500D02*
X95256000Y-109080500D01*
G75*
G02*
X95493500Y-108843000I237500J0D01*
G01*
X95993500Y-108843000D01*
G75*
G02*
X96231000Y-109080500I0J-237500D01*
G01*
X96231000Y-109555500D01*
G75*
G02*
X95993500Y-109793000I-237500J0D01*
G01*
X95493500Y-109793000D01*
G75*
G02*
X95256000Y-109555500I0J237500D01*
G01*
G37*
%TD*%
%TO.C,R301*%
G36*
G01*
X61197500Y-134742000D02*
X60722500Y-134742000D01*
G75*
G02*
X60485000Y-134504500I0J237500D01*
G01*
X60485000Y-134004500D01*
G75*
G02*
X60722500Y-133767000I237500J0D01*
G01*
X61197500Y-133767000D01*
G75*
G02*
X61435000Y-134004500I0J-237500D01*
G01*
X61435000Y-134504500D01*
G75*
G02*
X61197500Y-134742000I-237500J0D01*
G01*
G37*
G36*
G01*
X61197500Y-132917000D02*
X60722500Y-132917000D01*
G75*
G02*
X60485000Y-132679500I0J237500D01*
G01*
X60485000Y-132179500D01*
G75*
G02*
X60722500Y-131942000I237500J0D01*
G01*
X61197500Y-131942000D01*
G75*
G02*
X61435000Y-132179500I0J-237500D01*
G01*
X61435000Y-132679500D01*
G75*
G02*
X61197500Y-132917000I-237500J0D01*
G01*
G37*
%TD*%
%TO.C,R302*%
G36*
G01*
X62310000Y-133767000D02*
X62785000Y-133767000D01*
G75*
G02*
X63022500Y-134004500I0J-237500D01*
G01*
X63022500Y-134504500D01*
G75*
G02*
X62785000Y-134742000I-237500J0D01*
G01*
X62310000Y-134742000D01*
G75*
G02*
X62072500Y-134504500I0J237500D01*
G01*
X62072500Y-134004500D01*
G75*
G02*
X62310000Y-133767000I237500J0D01*
G01*
G37*
G36*
G01*
X62310000Y-131942000D02*
X62785000Y-131942000D01*
G75*
G02*
X63022500Y-132179500I0J-237500D01*
G01*
X63022500Y-132679500D01*
G75*
G02*
X62785000Y-132917000I-237500J0D01*
G01*
X62310000Y-132917000D01*
G75*
G02*
X62072500Y-132679500I0J237500D01*
G01*
X62072500Y-132179500D01*
G75*
G02*
X62310000Y-131942000I237500J0D01*
G01*
G37*
%TD*%
%TO.C,R303*%
G36*
G01*
X64088000Y-133767000D02*
X64563000Y-133767000D01*
G75*
G02*
X64800500Y-134004500I0J-237500D01*
G01*
X64800500Y-134504500D01*
G75*
G02*
X64563000Y-134742000I-237500J0D01*
G01*
X64088000Y-134742000D01*
G75*
G02*
X63850500Y-134504500I0J237500D01*
G01*
X63850500Y-134004500D01*
G75*
G02*
X64088000Y-133767000I237500J0D01*
G01*
G37*
G36*
G01*
X64088000Y-131942000D02*
X64563000Y-131942000D01*
G75*
G02*
X64800500Y-132179500I0J-237500D01*
G01*
X64800500Y-132679500D01*
G75*
G02*
X64563000Y-132917000I-237500J0D01*
G01*
X64088000Y-132917000D01*
G75*
G02*
X63850500Y-132679500I0J237500D01*
G01*
X63850500Y-132179500D01*
G75*
G02*
X64088000Y-131942000I237500J0D01*
G01*
G37*
%TD*%
%TO.C,R304*%
G36*
G01*
X69477500Y-110454000D02*
X69952500Y-110454000D01*
G75*
G02*
X70190000Y-110691500I0J-237500D01*
G01*
X70190000Y-111191500D01*
G75*
G02*
X69952500Y-111429000I-237500J0D01*
G01*
X69477500Y-111429000D01*
G75*
G02*
X69240000Y-111191500I0J237500D01*
G01*
X69240000Y-110691500D01*
G75*
G02*
X69477500Y-110454000I237500J0D01*
G01*
G37*
G36*
G01*
X69477500Y-112279000D02*
X69952500Y-112279000D01*
G75*
G02*
X70190000Y-112516500I0J-237500D01*
G01*
X70190000Y-113016500D01*
G75*
G02*
X69952500Y-113254000I-237500J0D01*
G01*
X69477500Y-113254000D01*
G75*
G02*
X69240000Y-113016500I0J237500D01*
G01*
X69240000Y-112516500D01*
G75*
G02*
X69477500Y-112279000I237500J0D01*
G01*
G37*
%TD*%
%TO.C,R305*%
G36*
G01*
X62594500Y-125598000D02*
X62119500Y-125598000D01*
G75*
G02*
X61882000Y-125360500I0J237500D01*
G01*
X61882000Y-124860500D01*
G75*
G02*
X62119500Y-124623000I237500J0D01*
G01*
X62594500Y-124623000D01*
G75*
G02*
X62832000Y-124860500I0J-237500D01*
G01*
X62832000Y-125360500D01*
G75*
G02*
X62594500Y-125598000I-237500J0D01*
G01*
G37*
G36*
G01*
X62594500Y-123773000D02*
X62119500Y-123773000D01*
G75*
G02*
X61882000Y-123535500I0J237500D01*
G01*
X61882000Y-123035500D01*
G75*
G02*
X62119500Y-122798000I237500J0D01*
G01*
X62594500Y-122798000D01*
G75*
G02*
X62832000Y-123035500I0J-237500D01*
G01*
X62832000Y-123535500D01*
G75*
G02*
X62594500Y-123773000I-237500J0D01*
G01*
G37*
%TD*%
%TO.C,R306*%
G36*
G01*
X60943500Y-123773000D02*
X60468500Y-123773000D01*
G75*
G02*
X60231000Y-123535500I0J237500D01*
G01*
X60231000Y-123035500D01*
G75*
G02*
X60468500Y-122798000I237500J0D01*
G01*
X60943500Y-122798000D01*
G75*
G02*
X61181000Y-123035500I0J-237500D01*
G01*
X61181000Y-123535500D01*
G75*
G02*
X60943500Y-123773000I-237500J0D01*
G01*
G37*
G36*
G01*
X60943500Y-125598000D02*
X60468500Y-125598000D01*
G75*
G02*
X60231000Y-125360500I0J237500D01*
G01*
X60231000Y-124860500D01*
G75*
G02*
X60468500Y-124623000I237500J0D01*
G01*
X60943500Y-124623000D01*
G75*
G02*
X61181000Y-124860500I0J-237500D01*
G01*
X61181000Y-125360500D01*
G75*
G02*
X60943500Y-125598000I-237500J0D01*
G01*
G37*
%TD*%
%TO.C,R307*%
G36*
G01*
X65764500Y-131921000D02*
X66239500Y-131921000D01*
G75*
G02*
X66477000Y-132158500I0J-237500D01*
G01*
X66477000Y-132658500D01*
G75*
G02*
X66239500Y-132896000I-237500J0D01*
G01*
X65764500Y-132896000D01*
G75*
G02*
X65527000Y-132658500I0J237500D01*
G01*
X65527000Y-132158500D01*
G75*
G02*
X65764500Y-131921000I237500J0D01*
G01*
G37*
G36*
G01*
X65764500Y-133746000D02*
X66239500Y-133746000D01*
G75*
G02*
X66477000Y-133983500I0J-237500D01*
G01*
X66477000Y-134483500D01*
G75*
G02*
X66239500Y-134721000I-237500J0D01*
G01*
X65764500Y-134721000D01*
G75*
G02*
X65527000Y-134483500I0J237500D01*
G01*
X65527000Y-133983500D01*
G75*
G02*
X65764500Y-133746000I237500J0D01*
G01*
G37*
%TD*%
%TO.C,R308*%
G36*
G01*
X66396500Y-116810000D02*
X65921500Y-116810000D01*
G75*
G02*
X65684000Y-116572500I0J237500D01*
G01*
X65684000Y-116072500D01*
G75*
G02*
X65921500Y-115835000I237500J0D01*
G01*
X66396500Y-115835000D01*
G75*
G02*
X66634000Y-116072500I0J-237500D01*
G01*
X66634000Y-116572500D01*
G75*
G02*
X66396500Y-116810000I-237500J0D01*
G01*
G37*
G36*
G01*
X66396500Y-114985000D02*
X65921500Y-114985000D01*
G75*
G02*
X65684000Y-114747500I0J237500D01*
G01*
X65684000Y-114247500D01*
G75*
G02*
X65921500Y-114010000I237500J0D01*
G01*
X66396500Y-114010000D01*
G75*
G02*
X66634000Y-114247500I0J-237500D01*
G01*
X66634000Y-114747500D01*
G75*
G02*
X66396500Y-114985000I-237500J0D01*
G01*
G37*
%TD*%
%TO.C,R309*%
G36*
G01*
X64270500Y-115835000D02*
X64745500Y-115835000D01*
G75*
G02*
X64983000Y-116072500I0J-237500D01*
G01*
X64983000Y-116572500D01*
G75*
G02*
X64745500Y-116810000I-237500J0D01*
G01*
X64270500Y-116810000D01*
G75*
G02*
X64033000Y-116572500I0J237500D01*
G01*
X64033000Y-116072500D01*
G75*
G02*
X64270500Y-115835000I237500J0D01*
G01*
G37*
G36*
G01*
X64270500Y-114010000D02*
X64745500Y-114010000D01*
G75*
G02*
X64983000Y-114247500I0J-237500D01*
G01*
X64983000Y-114747500D01*
G75*
G02*
X64745500Y-114985000I-237500J0D01*
G01*
X64270500Y-114985000D01*
G75*
G02*
X64033000Y-114747500I0J237500D01*
G01*
X64033000Y-114247500D01*
G75*
G02*
X64270500Y-114010000I237500J0D01*
G01*
G37*
%TD*%
%TO.C,R310*%
G36*
G01*
X59292500Y-123773000D02*
X58817500Y-123773000D01*
G75*
G02*
X58580000Y-123535500I0J237500D01*
G01*
X58580000Y-123035500D01*
G75*
G02*
X58817500Y-122798000I237500J0D01*
G01*
X59292500Y-122798000D01*
G75*
G02*
X59530000Y-123035500I0J-237500D01*
G01*
X59530000Y-123535500D01*
G75*
G02*
X59292500Y-123773000I-237500J0D01*
G01*
G37*
G36*
G01*
X59292500Y-125598000D02*
X58817500Y-125598000D01*
G75*
G02*
X58580000Y-125360500I0J237500D01*
G01*
X58580000Y-124860500D01*
G75*
G02*
X58817500Y-124623000I237500J0D01*
G01*
X59292500Y-124623000D01*
G75*
G02*
X59530000Y-124860500I0J-237500D01*
G01*
X59530000Y-125360500D01*
G75*
G02*
X59292500Y-125598000I-237500J0D01*
G01*
G37*
%TD*%
%TO.C,R311*%
G36*
G01*
X57641500Y-125598000D02*
X57166500Y-125598000D01*
G75*
G02*
X56929000Y-125360500I0J237500D01*
G01*
X56929000Y-124860500D01*
G75*
G02*
X57166500Y-124623000I237500J0D01*
G01*
X57641500Y-124623000D01*
G75*
G02*
X57879000Y-124860500I0J-237500D01*
G01*
X57879000Y-125360500D01*
G75*
G02*
X57641500Y-125598000I-237500J0D01*
G01*
G37*
G36*
G01*
X57641500Y-123773000D02*
X57166500Y-123773000D01*
G75*
G02*
X56929000Y-123535500I0J237500D01*
G01*
X56929000Y-123035500D01*
G75*
G02*
X57166500Y-122798000I237500J0D01*
G01*
X57641500Y-122798000D01*
G75*
G02*
X57879000Y-123035500I0J-237500D01*
G01*
X57879000Y-123535500D01*
G75*
G02*
X57641500Y-123773000I-237500J0D01*
G01*
G37*
%TD*%
%TO.C,R312*%
G36*
G01*
X82477500Y-112279000D02*
X82952500Y-112279000D01*
G75*
G02*
X83190000Y-112516500I0J-237500D01*
G01*
X83190000Y-113016500D01*
G75*
G02*
X82952500Y-113254000I-237500J0D01*
G01*
X82477500Y-113254000D01*
G75*
G02*
X82240000Y-113016500I0J237500D01*
G01*
X82240000Y-112516500D01*
G75*
G02*
X82477500Y-112279000I237500J0D01*
G01*
G37*
G36*
G01*
X82477500Y-110454000D02*
X82952500Y-110454000D01*
G75*
G02*
X83190000Y-110691500I0J-237500D01*
G01*
X83190000Y-111191500D01*
G75*
G02*
X82952500Y-111429000I-237500J0D01*
G01*
X82477500Y-111429000D01*
G75*
G02*
X82240000Y-111191500I0J237500D01*
G01*
X82240000Y-110691500D01*
G75*
G02*
X82477500Y-110454000I237500J0D01*
G01*
G37*
%TD*%
%TO.C,R313*%
G36*
G01*
X88660000Y-133826500D02*
X89135000Y-133826500D01*
G75*
G02*
X89372500Y-134064000I0J-237500D01*
G01*
X89372500Y-134564000D01*
G75*
G02*
X89135000Y-134801500I-237500J0D01*
G01*
X88660000Y-134801500D01*
G75*
G02*
X88422500Y-134564000I0J237500D01*
G01*
X88422500Y-134064000D01*
G75*
G02*
X88660000Y-133826500I237500J0D01*
G01*
G37*
G36*
G01*
X88660000Y-132001500D02*
X89135000Y-132001500D01*
G75*
G02*
X89372500Y-132239000I0J-237500D01*
G01*
X89372500Y-132739000D01*
G75*
G02*
X89135000Y-132976500I-237500J0D01*
G01*
X88660000Y-132976500D01*
G75*
G02*
X88422500Y-132739000I0J237500D01*
G01*
X88422500Y-132239000D01*
G75*
G02*
X88660000Y-132001500I237500J0D01*
G01*
G37*
%TD*%
%TO.C,R314*%
G36*
G01*
X83991500Y-132976500D02*
X83516500Y-132976500D01*
G75*
G02*
X83279000Y-132739000I0J237500D01*
G01*
X83279000Y-132239000D01*
G75*
G02*
X83516500Y-132001500I237500J0D01*
G01*
X83991500Y-132001500D01*
G75*
G02*
X84229000Y-132239000I0J-237500D01*
G01*
X84229000Y-132739000D01*
G75*
G02*
X83991500Y-132976500I-237500J0D01*
G01*
G37*
G36*
G01*
X83991500Y-134801500D02*
X83516500Y-134801500D01*
G75*
G02*
X83279000Y-134564000I0J237500D01*
G01*
X83279000Y-134064000D01*
G75*
G02*
X83516500Y-133826500I237500J0D01*
G01*
X83991500Y-133826500D01*
G75*
G02*
X84229000Y-134064000I0J-237500D01*
G01*
X84229000Y-134564000D01*
G75*
G02*
X83991500Y-134801500I-237500J0D01*
G01*
G37*
%TD*%
%TO.C,R315*%
G36*
G01*
X85706000Y-134801500D02*
X85231000Y-134801500D01*
G75*
G02*
X84993500Y-134564000I0J237500D01*
G01*
X84993500Y-134064000D01*
G75*
G02*
X85231000Y-133826500I237500J0D01*
G01*
X85706000Y-133826500D01*
G75*
G02*
X85943500Y-134064000I0J-237500D01*
G01*
X85943500Y-134564000D01*
G75*
G02*
X85706000Y-134801500I-237500J0D01*
G01*
G37*
G36*
G01*
X85706000Y-132976500D02*
X85231000Y-132976500D01*
G75*
G02*
X84993500Y-132739000I0J237500D01*
G01*
X84993500Y-132239000D01*
G75*
G02*
X85231000Y-132001500I237500J0D01*
G01*
X85706000Y-132001500D01*
G75*
G02*
X85943500Y-132239000I0J-237500D01*
G01*
X85943500Y-132739000D01*
G75*
G02*
X85706000Y-132976500I-237500J0D01*
G01*
G37*
%TD*%
%TO.C,R316*%
G36*
G01*
X79396500Y-116810000D02*
X78921500Y-116810000D01*
G75*
G02*
X78684000Y-116572500I0J237500D01*
G01*
X78684000Y-116072500D01*
G75*
G02*
X78921500Y-115835000I237500J0D01*
G01*
X79396500Y-115835000D01*
G75*
G02*
X79634000Y-116072500I0J-237500D01*
G01*
X79634000Y-116572500D01*
G75*
G02*
X79396500Y-116810000I-237500J0D01*
G01*
G37*
G36*
G01*
X79396500Y-114985000D02*
X78921500Y-114985000D01*
G75*
G02*
X78684000Y-114747500I0J237500D01*
G01*
X78684000Y-114247500D01*
G75*
G02*
X78921500Y-114010000I237500J0D01*
G01*
X79396500Y-114010000D01*
G75*
G02*
X79634000Y-114247500I0J-237500D01*
G01*
X79634000Y-114747500D01*
G75*
G02*
X79396500Y-114985000I-237500J0D01*
G01*
G37*
%TD*%
%TO.C,R317*%
G36*
G01*
X77270500Y-114010000D02*
X77745500Y-114010000D01*
G75*
G02*
X77983000Y-114247500I0J-237500D01*
G01*
X77983000Y-114747500D01*
G75*
G02*
X77745500Y-114985000I-237500J0D01*
G01*
X77270500Y-114985000D01*
G75*
G02*
X77033000Y-114747500I0J237500D01*
G01*
X77033000Y-114247500D01*
G75*
G02*
X77270500Y-114010000I237500J0D01*
G01*
G37*
G36*
G01*
X77270500Y-115835000D02*
X77745500Y-115835000D01*
G75*
G02*
X77983000Y-116072500I0J-237500D01*
G01*
X77983000Y-116572500D01*
G75*
G02*
X77745500Y-116810000I-237500J0D01*
G01*
X77270500Y-116810000D01*
G75*
G02*
X77033000Y-116572500I0J237500D01*
G01*
X77033000Y-116072500D01*
G75*
G02*
X77270500Y-115835000I237500J0D01*
G01*
G37*
%TD*%
%TO.C,R318*%
G36*
G01*
X81070500Y-134801500D02*
X80595500Y-134801500D01*
G75*
G02*
X80358000Y-134564000I0J237500D01*
G01*
X80358000Y-134064000D01*
G75*
G02*
X80595500Y-133826500I237500J0D01*
G01*
X81070500Y-133826500D01*
G75*
G02*
X81308000Y-134064000I0J-237500D01*
G01*
X81308000Y-134564000D01*
G75*
G02*
X81070500Y-134801500I-237500J0D01*
G01*
G37*
G36*
G01*
X81070500Y-132976500D02*
X80595500Y-132976500D01*
G75*
G02*
X80358000Y-132739000I0J237500D01*
G01*
X80358000Y-132239000D01*
G75*
G02*
X80595500Y-132001500I237500J0D01*
G01*
X81070500Y-132001500D01*
G75*
G02*
X81308000Y-132239000I0J-237500D01*
G01*
X81308000Y-132739000D01*
G75*
G02*
X81070500Y-132976500I-237500J0D01*
G01*
G37*
%TD*%
%TO.C,R319*%
G36*
G01*
X79008000Y-129889500D02*
X79483000Y-129889500D01*
G75*
G02*
X79720500Y-130127000I0J-237500D01*
G01*
X79720500Y-130627000D01*
G75*
G02*
X79483000Y-130864500I-237500J0D01*
G01*
X79008000Y-130864500D01*
G75*
G02*
X78770500Y-130627000I0J237500D01*
G01*
X78770500Y-130127000D01*
G75*
G02*
X79008000Y-129889500I237500J0D01*
G01*
G37*
G36*
G01*
X79008000Y-128064500D02*
X79483000Y-128064500D01*
G75*
G02*
X79720500Y-128302000I0J-237500D01*
G01*
X79720500Y-128802000D01*
G75*
G02*
X79483000Y-129039500I-237500J0D01*
G01*
X79008000Y-129039500D01*
G75*
G02*
X78770500Y-128802000I0J237500D01*
G01*
X78770500Y-128302000D01*
G75*
G02*
X79008000Y-128064500I237500J0D01*
G01*
G37*
%TD*%
%TO.C,R320*%
G36*
G01*
X81134000Y-130864500D02*
X80659000Y-130864500D01*
G75*
G02*
X80421500Y-130627000I0J237500D01*
G01*
X80421500Y-130127000D01*
G75*
G02*
X80659000Y-129889500I237500J0D01*
G01*
X81134000Y-129889500D01*
G75*
G02*
X81371500Y-130127000I0J-237500D01*
G01*
X81371500Y-130627000D01*
G75*
G02*
X81134000Y-130864500I-237500J0D01*
G01*
G37*
G36*
G01*
X81134000Y-129039500D02*
X80659000Y-129039500D01*
G75*
G02*
X80421500Y-128802000I0J237500D01*
G01*
X80421500Y-128302000D01*
G75*
G02*
X80659000Y-128064500I237500J0D01*
G01*
X81134000Y-128064500D01*
G75*
G02*
X81371500Y-128302000I0J-237500D01*
G01*
X81371500Y-128802000D01*
G75*
G02*
X81134000Y-129039500I-237500J0D01*
G01*
G37*
%TD*%
%TO.C,R403*%
G36*
G01*
X87763000Y-121366500D02*
X87763000Y-120891500D01*
G75*
G02*
X88000500Y-120654000I237500J0D01*
G01*
X88500500Y-120654000D01*
G75*
G02*
X88738000Y-120891500I0J-237500D01*
G01*
X88738000Y-121366500D01*
G75*
G02*
X88500500Y-121604000I-237500J0D01*
G01*
X88000500Y-121604000D01*
G75*
G02*
X87763000Y-121366500I0J237500D01*
G01*
G37*
G36*
G01*
X85938000Y-121366500D02*
X85938000Y-120891500D01*
G75*
G02*
X86175500Y-120654000I237500J0D01*
G01*
X86675500Y-120654000D01*
G75*
G02*
X86913000Y-120891500I0J-237500D01*
G01*
X86913000Y-121366500D01*
G75*
G02*
X86675500Y-121604000I-237500J0D01*
G01*
X86175500Y-121604000D01*
G75*
G02*
X85938000Y-121366500I0J237500D01*
G01*
G37*
%TD*%
%TO.C,R404*%
G36*
G01*
X98765000Y-137495500D02*
X98765000Y-137020500D01*
G75*
G02*
X99002500Y-136783000I237500J0D01*
G01*
X99502500Y-136783000D01*
G75*
G02*
X99740000Y-137020500I0J-237500D01*
G01*
X99740000Y-137495500D01*
G75*
G02*
X99502500Y-137733000I-237500J0D01*
G01*
X99002500Y-137733000D01*
G75*
G02*
X98765000Y-137495500I0J237500D01*
G01*
G37*
G36*
G01*
X100590000Y-137495500D02*
X100590000Y-137020500D01*
G75*
G02*
X100827500Y-136783000I237500J0D01*
G01*
X101327500Y-136783000D01*
G75*
G02*
X101565000Y-137020500I0J-237500D01*
G01*
X101565000Y-137495500D01*
G75*
G02*
X101327500Y-137733000I-237500J0D01*
G01*
X100827500Y-137733000D01*
G75*
G02*
X100590000Y-137495500I0J237500D01*
G01*
G37*
%TD*%
%TO.C,R405*%
G36*
G01*
X98765000Y-135717500D02*
X98765000Y-135242500D01*
G75*
G02*
X99002500Y-135005000I237500J0D01*
G01*
X99502500Y-135005000D01*
G75*
G02*
X99740000Y-135242500I0J-237500D01*
G01*
X99740000Y-135717500D01*
G75*
G02*
X99502500Y-135955000I-237500J0D01*
G01*
X99002500Y-135955000D01*
G75*
G02*
X98765000Y-135717500I0J237500D01*
G01*
G37*
G36*
G01*
X100590000Y-135717500D02*
X100590000Y-135242500D01*
G75*
G02*
X100827500Y-135005000I237500J0D01*
G01*
X101327500Y-135005000D01*
G75*
G02*
X101565000Y-135242500I0J-237500D01*
G01*
X101565000Y-135717500D01*
G75*
G02*
X101327500Y-135955000I-237500J0D01*
G01*
X100827500Y-135955000D01*
G75*
G02*
X100590000Y-135717500I0J237500D01*
G01*
G37*
%TD*%
D20*
%TO.C,SW301*%
X51025000Y-124300000D03*
X52475000Y-124300000D03*
X52475000Y-120700000D03*
X51025000Y-120700000D03*
D21*
X52650000Y-122500000D03*
X50850000Y-122500000D03*
%TD*%
D22*
%TO.C,TP301*%
X66294000Y-130357500D03*
%TD*%
%TO.C,TP302*%
X70612000Y-130357500D03*
%TD*%
%TO.C,TP303*%
X68453000Y-130357500D03*
%TD*%
%TO.C,TP304*%
X67683000Y-112550000D03*
%TD*%
%TO.C,TP305*%
X80683000Y-112550000D03*
%TD*%
D23*
%TO.C,U201*%
X60711000Y-107606000D03*
X60711000Y-108556000D03*
X60711000Y-109506000D03*
X62911000Y-109506000D03*
X62911000Y-107606000D03*
X62911000Y-108556000D03*
%TD*%
D16*
%TO.C,U204*%
X98157000Y-109167000D03*
X99657000Y-109167000D03*
X101157000Y-109167000D03*
X99657000Y-106167000D03*
X98157000Y-106167000D03*
X101157000Y-106167000D03*
%TD*%
%TO.C,U301*%
G36*
G01*
X60276500Y-131120000D02*
X60151500Y-131120000D01*
G75*
G02*
X60089000Y-131057500I0J62500D01*
G01*
X60089000Y-130382500D01*
G75*
G02*
X60151500Y-130320000I62500J0D01*
G01*
X60276500Y-130320000D01*
G75*
G02*
X60339000Y-130382500I0J-62500D01*
G01*
X60339000Y-131057500D01*
G75*
G02*
X60276500Y-131120000I-62500J0D01*
G01*
G37*
G36*
G01*
X60776500Y-131120000D02*
X60651500Y-131120000D01*
G75*
G02*
X60589000Y-131057500I0J62500D01*
G01*
X60589000Y-130382500D01*
G75*
G02*
X60651500Y-130320000I62500J0D01*
G01*
X60776500Y-130320000D01*
G75*
G02*
X60839000Y-130382500I0J-62500D01*
G01*
X60839000Y-131057500D01*
G75*
G02*
X60776500Y-131120000I-62500J0D01*
G01*
G37*
G36*
G01*
X61276500Y-131120000D02*
X61151500Y-131120000D01*
G75*
G02*
X61089000Y-131057500I0J62500D01*
G01*
X61089000Y-130382500D01*
G75*
G02*
X61151500Y-130320000I62500J0D01*
G01*
X61276500Y-130320000D01*
G75*
G02*
X61339000Y-130382500I0J-62500D01*
G01*
X61339000Y-131057500D01*
G75*
G02*
X61276500Y-131120000I-62500J0D01*
G01*
G37*
G36*
G01*
X61776500Y-131120000D02*
X61651500Y-131120000D01*
G75*
G02*
X61589000Y-131057500I0J62500D01*
G01*
X61589000Y-130382500D01*
G75*
G02*
X61651500Y-130320000I62500J0D01*
G01*
X61776500Y-130320000D01*
G75*
G02*
X61839000Y-130382500I0J-62500D01*
G01*
X61839000Y-131057500D01*
G75*
G02*
X61776500Y-131120000I-62500J0D01*
G01*
G37*
G36*
G01*
X62276500Y-131120000D02*
X62151500Y-131120000D01*
G75*
G02*
X62089000Y-131057500I0J62500D01*
G01*
X62089000Y-130382500D01*
G75*
G02*
X62151500Y-130320000I62500J0D01*
G01*
X62276500Y-130320000D01*
G75*
G02*
X62339000Y-130382500I0J-62500D01*
G01*
X62339000Y-131057500D01*
G75*
G02*
X62276500Y-131120000I-62500J0D01*
G01*
G37*
G36*
G01*
X63501500Y-129895000D02*
X62826500Y-129895000D01*
G75*
G02*
X62764000Y-129832500I0J62500D01*
G01*
X62764000Y-129707500D01*
G75*
G02*
X62826500Y-129645000I62500J0D01*
G01*
X63501500Y-129645000D01*
G75*
G02*
X63564000Y-129707500I0J-62500D01*
G01*
X63564000Y-129832500D01*
G75*
G02*
X63501500Y-129895000I-62500J0D01*
G01*
G37*
G36*
G01*
X63501500Y-129395000D02*
X62826500Y-129395000D01*
G75*
G02*
X62764000Y-129332500I0J62500D01*
G01*
X62764000Y-129207500D01*
G75*
G02*
X62826500Y-129145000I62500J0D01*
G01*
X63501500Y-129145000D01*
G75*
G02*
X63564000Y-129207500I0J-62500D01*
G01*
X63564000Y-129332500D01*
G75*
G02*
X63501500Y-129395000I-62500J0D01*
G01*
G37*
G36*
G01*
X63501500Y-128895000D02*
X62826500Y-128895000D01*
G75*
G02*
X62764000Y-128832500I0J62500D01*
G01*
X62764000Y-128707500D01*
G75*
G02*
X62826500Y-128645000I62500J0D01*
G01*
X63501500Y-128645000D01*
G75*
G02*
X63564000Y-128707500I0J-62500D01*
G01*
X63564000Y-128832500D01*
G75*
G02*
X63501500Y-128895000I-62500J0D01*
G01*
G37*
G36*
G01*
X63501500Y-128395000D02*
X62826500Y-128395000D01*
G75*
G02*
X62764000Y-128332500I0J62500D01*
G01*
X62764000Y-128207500D01*
G75*
G02*
X62826500Y-128145000I62500J0D01*
G01*
X63501500Y-128145000D01*
G75*
G02*
X63564000Y-128207500I0J-62500D01*
G01*
X63564000Y-128332500D01*
G75*
G02*
X63501500Y-128395000I-62500J0D01*
G01*
G37*
G36*
G01*
X63501500Y-127895000D02*
X62826500Y-127895000D01*
G75*
G02*
X62764000Y-127832500I0J62500D01*
G01*
X62764000Y-127707500D01*
G75*
G02*
X62826500Y-127645000I62500J0D01*
G01*
X63501500Y-127645000D01*
G75*
G02*
X63564000Y-127707500I0J-62500D01*
G01*
X63564000Y-127832500D01*
G75*
G02*
X63501500Y-127895000I-62500J0D01*
G01*
G37*
G36*
G01*
X62276500Y-127220000D02*
X62151500Y-127220000D01*
G75*
G02*
X62089000Y-127157500I0J62500D01*
G01*
X62089000Y-126482500D01*
G75*
G02*
X62151500Y-126420000I62500J0D01*
G01*
X62276500Y-126420000D01*
G75*
G02*
X62339000Y-126482500I0J-62500D01*
G01*
X62339000Y-127157500D01*
G75*
G02*
X62276500Y-127220000I-62500J0D01*
G01*
G37*
G36*
G01*
X61776500Y-127220000D02*
X61651500Y-127220000D01*
G75*
G02*
X61589000Y-127157500I0J62500D01*
G01*
X61589000Y-126482500D01*
G75*
G02*
X61651500Y-126420000I62500J0D01*
G01*
X61776500Y-126420000D01*
G75*
G02*
X61839000Y-126482500I0J-62500D01*
G01*
X61839000Y-127157500D01*
G75*
G02*
X61776500Y-127220000I-62500J0D01*
G01*
G37*
G36*
G01*
X61276500Y-127220000D02*
X61151500Y-127220000D01*
G75*
G02*
X61089000Y-127157500I0J62500D01*
G01*
X61089000Y-126482500D01*
G75*
G02*
X61151500Y-126420000I62500J0D01*
G01*
X61276500Y-126420000D01*
G75*
G02*
X61339000Y-126482500I0J-62500D01*
G01*
X61339000Y-127157500D01*
G75*
G02*
X61276500Y-127220000I-62500J0D01*
G01*
G37*
G36*
G01*
X60776500Y-127220000D02*
X60651500Y-127220000D01*
G75*
G02*
X60589000Y-127157500I0J62500D01*
G01*
X60589000Y-126482500D01*
G75*
G02*
X60651500Y-126420000I62500J0D01*
G01*
X60776500Y-126420000D01*
G75*
G02*
X60839000Y-126482500I0J-62500D01*
G01*
X60839000Y-127157500D01*
G75*
G02*
X60776500Y-127220000I-62500J0D01*
G01*
G37*
G36*
G01*
X60276500Y-127220000D02*
X60151500Y-127220000D01*
G75*
G02*
X60089000Y-127157500I0J62500D01*
G01*
X60089000Y-126482500D01*
G75*
G02*
X60151500Y-126420000I62500J0D01*
G01*
X60276500Y-126420000D01*
G75*
G02*
X60339000Y-126482500I0J-62500D01*
G01*
X60339000Y-127157500D01*
G75*
G02*
X60276500Y-127220000I-62500J0D01*
G01*
G37*
G36*
G01*
X59601500Y-127895000D02*
X58926500Y-127895000D01*
G75*
G02*
X58864000Y-127832500I0J62500D01*
G01*
X58864000Y-127707500D01*
G75*
G02*
X58926500Y-127645000I62500J0D01*
G01*
X59601500Y-127645000D01*
G75*
G02*
X59664000Y-127707500I0J-62500D01*
G01*
X59664000Y-127832500D01*
G75*
G02*
X59601500Y-127895000I-62500J0D01*
G01*
G37*
G36*
G01*
X59601500Y-128395000D02*
X58926500Y-128395000D01*
G75*
G02*
X58864000Y-128332500I0J62500D01*
G01*
X58864000Y-128207500D01*
G75*
G02*
X58926500Y-128145000I62500J0D01*
G01*
X59601500Y-128145000D01*
G75*
G02*
X59664000Y-128207500I0J-62500D01*
G01*
X59664000Y-128332500D01*
G75*
G02*
X59601500Y-128395000I-62500J0D01*
G01*
G37*
G36*
G01*
X59601500Y-128895000D02*
X58926500Y-128895000D01*
G75*
G02*
X58864000Y-128832500I0J62500D01*
G01*
X58864000Y-128707500D01*
G75*
G02*
X58926500Y-128645000I62500J0D01*
G01*
X59601500Y-128645000D01*
G75*
G02*
X59664000Y-128707500I0J-62500D01*
G01*
X59664000Y-128832500D01*
G75*
G02*
X59601500Y-128895000I-62500J0D01*
G01*
G37*
G36*
G01*
X59601500Y-129395000D02*
X58926500Y-129395000D01*
G75*
G02*
X58864000Y-129332500I0J62500D01*
G01*
X58864000Y-129207500D01*
G75*
G02*
X58926500Y-129145000I62500J0D01*
G01*
X59601500Y-129145000D01*
G75*
G02*
X59664000Y-129207500I0J-62500D01*
G01*
X59664000Y-129332500D01*
G75*
G02*
X59601500Y-129395000I-62500J0D01*
G01*
G37*
G36*
G01*
X59601500Y-129895000D02*
X58926500Y-129895000D01*
G75*
G02*
X58864000Y-129832500I0J62500D01*
G01*
X58864000Y-129707500D01*
G75*
G02*
X58926500Y-129645000I62500J0D01*
G01*
X59601500Y-129645000D01*
G75*
G02*
X59664000Y-129707500I0J-62500D01*
G01*
X59664000Y-129832500D01*
G75*
G02*
X59601500Y-129895000I-62500J0D01*
G01*
G37*
D24*
X61214000Y-128770000D03*
%TD*%
D25*
%TO.C,U302*%
X69527000Y-114608000D03*
X70477000Y-114608000D03*
X71427000Y-114608000D03*
X71427000Y-117228000D03*
X70477000Y-117228000D03*
X69527000Y-117228000D03*
%TD*%
%TO.C,U303*%
X82527000Y-117228000D03*
X83477000Y-117228000D03*
X84427000Y-117228000D03*
X84427000Y-114608000D03*
X83477000Y-114608000D03*
X82527000Y-114608000D03*
%TD*%
D26*
%TO.C,U304*%
X78166000Y-132047500D03*
X77216000Y-132047500D03*
X79116000Y-132047500D03*
X79116000Y-134247500D03*
X78166000Y-134247500D03*
X77216000Y-134247500D03*
%TD*%
D27*
%TO.C,U404*%
X82600000Y-123400000D03*
X84400000Y-123400000D03*
X82600000Y-121600000D03*
X84400000Y-121600000D03*
%TD*%
%TO.C,U405*%
G36*
G01*
X93741000Y-137546000D02*
X93741000Y-137821000D01*
G75*
G02*
X93616000Y-137946000I-125000J0D01*
G01*
X93366000Y-137946000D01*
G75*
G02*
X93241000Y-137821000I0J125000D01*
G01*
X93241000Y-137546000D01*
G75*
G02*
X93366000Y-137421000I125000J0D01*
G01*
X93616000Y-137421000D01*
G75*
G02*
X93741000Y-137546000I0J-125000D01*
G01*
G37*
G36*
G01*
X92941000Y-137546000D02*
X92941000Y-137821000D01*
G75*
G02*
X92816000Y-137946000I-125000J0D01*
G01*
X92566000Y-137946000D01*
G75*
G02*
X92441000Y-137821000I0J125000D01*
G01*
X92441000Y-137546000D01*
G75*
G02*
X92566000Y-137421000I125000J0D01*
G01*
X92816000Y-137421000D01*
G75*
G02*
X92941000Y-137546000I0J-125000D01*
G01*
G37*
G36*
G01*
X92141000Y-137546000D02*
X92141000Y-137821000D01*
G75*
G02*
X92016000Y-137946000I-125000J0D01*
G01*
X91766000Y-137946000D01*
G75*
G02*
X91641000Y-137821000I0J125000D01*
G01*
X91641000Y-137546000D01*
G75*
G02*
X91766000Y-137421000I125000J0D01*
G01*
X92016000Y-137421000D01*
G75*
G02*
X92141000Y-137546000I0J-125000D01*
G01*
G37*
G36*
G01*
X91341000Y-137546000D02*
X91341000Y-137821000D01*
G75*
G02*
X91216000Y-137946000I-125000J0D01*
G01*
X90966000Y-137946000D01*
G75*
G02*
X90841000Y-137821000I0J125000D01*
G01*
X90841000Y-137546000D01*
G75*
G02*
X90966000Y-137421000I125000J0D01*
G01*
X91216000Y-137421000D01*
G75*
G02*
X91341000Y-137546000I0J-125000D01*
G01*
G37*
G36*
G01*
X91341000Y-135171000D02*
X91341000Y-135446000D01*
G75*
G02*
X91216000Y-135571000I-125000J0D01*
G01*
X90966000Y-135571000D01*
G75*
G02*
X90841000Y-135446000I0J125000D01*
G01*
X90841000Y-135171000D01*
G75*
G02*
X90966000Y-135046000I125000J0D01*
G01*
X91216000Y-135046000D01*
G75*
G02*
X91341000Y-135171000I0J-125000D01*
G01*
G37*
G36*
G01*
X92141000Y-135171000D02*
X92141000Y-135446000D01*
G75*
G02*
X92016000Y-135571000I-125000J0D01*
G01*
X91766000Y-135571000D01*
G75*
G02*
X91641000Y-135446000I0J125000D01*
G01*
X91641000Y-135171000D01*
G75*
G02*
X91766000Y-135046000I125000J0D01*
G01*
X92016000Y-135046000D01*
G75*
G02*
X92141000Y-135171000I0J-125000D01*
G01*
G37*
G36*
G01*
X92941000Y-135171000D02*
X92941000Y-135446000D01*
G75*
G02*
X92816000Y-135571000I-125000J0D01*
G01*
X92566000Y-135571000D01*
G75*
G02*
X92441000Y-135446000I0J125000D01*
G01*
X92441000Y-135171000D01*
G75*
G02*
X92566000Y-135046000I125000J0D01*
G01*
X92816000Y-135046000D01*
G75*
G02*
X92941000Y-135171000I0J-125000D01*
G01*
G37*
G36*
G01*
X93741000Y-135171000D02*
X93741000Y-135446000D01*
G75*
G02*
X93616000Y-135571000I-125000J0D01*
G01*
X93366000Y-135571000D01*
G75*
G02*
X93241000Y-135446000I0J125000D01*
G01*
X93241000Y-135171000D01*
G75*
G02*
X93366000Y-135046000I125000J0D01*
G01*
X93616000Y-135046000D01*
G75*
G02*
X93741000Y-135171000I0J-125000D01*
G01*
G37*
%TD*%
D28*
%TO.C,U407*%
X95732000Y-137319000D03*
X96232000Y-137319000D03*
X96732000Y-137319000D03*
X97232000Y-137319000D03*
X97232000Y-135419000D03*
X96732000Y-135419000D03*
X96232000Y-135419000D03*
X95732000Y-135419000D03*
D29*
X95532000Y-136369000D03*
X97432000Y-136369000D03*
%TD*%
D30*
%TO.C,J301*%
X54500000Y-138000000D03*
D31*
X51960000Y-138000000D03*
%TD*%
M02*
